solid OpenSCAD_Model
  facet normal 1 0 0
    outer loop
      vertex 100 2 42
      vertex 100 0 42
      vertex 100 2 2
    endloop
  endfacet
  facet normal 1 -0 0
    outer loop
      vertex 100 2 2
      vertex 100 60 0
      vertex 100 60 2
    endloop
  endfacet
  facet normal 1 0 0
    outer loop
      vertex 100 2 2
      vertex 100 0 0
      vertex 100 60 0
    endloop
  endfacet
  facet normal 1 0 0
    outer loop
      vertex 100 0 0
      vertex 100 2 2
      vertex 100 0 42
    endloop
  endfacet
  facet normal 0 0 1
    outer loop
      vertex 75 35 2
      vertex 100 60 2
      vertex 75 45 2
    endloop
  endfacet
  facet normal 0 0 1
    outer loop
      vertex 100 60 2
      vertex 60 45 2
      vertex 75 45 2
    endloop
  endfacet
  facet normal 0 0 1
    outer loop
      vertex 60 45 2
      vertex 40 23 2
      vertex 60 35 2
    endloop
  endfacet
  facet normal 0 0 1
    outer loop
      vertex 60 45 2
      vertex 30 23 2
      vertex 40 23 2
    endloop
  endfacet
  facet normal 0 0 1
    outer loop
      vertex 0 2 2
      vertex 30 23 2
      vertex 0 60 2
    endloop
  endfacet
  facet normal 0 0 1
    outer loop
      vertex 60 45 2
      vertex 0 60 2
      vertex 30 23 2
    endloop
  endfacet
  facet normal -0 0 1
    outer loop
      vertex 0 60 2
      vertex 60 45 2
      vertex 100 60 2
    endloop
  endfacet
  facet normal 0 0 1
    outer loop
      vertex 100 60 2
      vertex 75 35 2
      vertex 100 2 2
    endloop
  endfacet
  facet normal 0 0 1
    outer loop
      vertex 40 15 2
      vertex 75 35 2
      vertex 60 35 2
    endloop
  endfacet
  facet normal 0 0 1
    outer loop
      vertex 40 15 2
      vertex 60 35 2
      vertex 40 23 2
    endloop
  endfacet
  facet normal 0 0 1
    outer loop
      vertex 75 35 2
      vertex 40 15 2
      vertex 100 2 2
    endloop
  endfacet
  facet normal 0 0 1
    outer loop
      vertex 0 2 2
      vertex 40 15 2
      vertex 30 15 2
    endloop
  endfacet
  facet normal 0 0 1
    outer loop
      vertex 40 15 2
      vertex 0 2 2
      vertex 100 2 2
    endloop
  endfacet
  facet normal 0 0 1
    outer loop
      vertex 30 23 2
      vertex 0 2 2
      vertex 30 15 2
    endloop
  endfacet
  facet normal 0 0 -1
    outer loop
      vertex 100 0 0
      vertex 75 35 0
      vertex 100 60 0
    endloop
  endfacet
  facet normal 0 0 -1
    outer loop
      vertex 40 15 0
      vertex 75 35 0
      vertex 100 0 0
    endloop
  endfacet
  facet normal 0 0 -1
    outer loop
      vertex 40 23 0
      vertex 60 35 0
      vertex 40 15 0
    endloop
  endfacet
  facet normal -0 0 -1
    outer loop
      vertex 75 35 0
      vertex 40 15 0
      vertex 60 35 0
    endloop
  endfacet
  facet normal 0 0 -1
    outer loop
      vertex 0 0 0
      vertex 40 15 0
      vertex 100 0 0
    endloop
  endfacet
  facet normal -0 0 -1
    outer loop
      vertex 30 15 0
      vertex 0 0 0
      vertex 30 23 0
    endloop
  endfacet
  facet normal -0 0 -1
    outer loop
      vertex 40 15 0
      vertex 0 0 0
      vertex 30 15 0
    endloop
  endfacet
  facet normal 0 0 -1
    outer loop
      vertex 75 45 0
      vertex 100 60 0
      vertex 75 35 0
    endloop
  endfacet
  facet normal 0 0 -1
    outer loop
      vertex 60 45 0
      vertex 100 60 0
      vertex 75 45 0
    endloop
  endfacet
  facet normal -0 0 -1
    outer loop
      vertex 60 35 0
      vertex 40 23 0
      vertex 60 45 0
    endloop
  endfacet
  facet normal 0 0 -1
    outer loop
      vertex 30 23 0
      vertex 60 45 0
      vertex 40 23 0
    endloop
  endfacet
  facet normal 0 0 -1
    outer loop
      vertex 60 45 0
      vertex 0 60 0
      vertex 100 60 0
    endloop
  endfacet
  facet normal 0 0 -1
    outer loop
      vertex 30 23 0
      vertex 0 60 0
      vertex 60 45 0
    endloop
  endfacet
  facet normal 0 0 -1
    outer loop
      vertex 0 60 0
      vertex 30 23 0
      vertex 0 0 0
    endloop
  endfacet
  facet normal -1 0 0
    outer loop
      vertex 0 60 0
      vertex 0 2 2
      vertex 0 60 2
    endloop
  endfacet
  facet normal -1 0 0
    outer loop
      vertex 0 0 0
      vertex 0 2 2
      vertex 0 60 0
    endloop
  endfacet
  facet normal -1 0 0
    outer loop
      vertex 0 0 42
      vertex 0 2 2
      vertex 0 0 0
    endloop
  endfacet
  facet normal -1 0 0
    outer loop
      vertex 0 2 2
      vertex 0 0 42
      vertex 0 2 42
    endloop
  endfacet
  facet normal 0 1 -0
    outer loop
      vertex 100 60 0
      vertex 0 60 2
      vertex 100 60 2
    endloop
  endfacet
  facet normal 0 1 0
    outer loop
      vertex 0 60 2
      vertex 100 60 0
      vertex 0 60 0
    endloop
  endfacet
  facet normal 0 -1 0
    outer loop
      vertex 53.9921 0 31.7488
      vertex 70 0 32
      vertex 54 0 32
    endloop
  endfacet
  facet normal 0 -1 0
    outer loop
      vertex 53.9685 0 31.4987
      vertex 70 0 32
      vertex 53.9921 0 31.7488
    endloop
  endfacet
  facet normal 0 -1 0
    outer loop
      vertex 53.9291 0 31.2505
      vertex 70 0 32
      vertex 53.9685 0 31.4987
    endloop
  endfacet
  facet normal 0 -1 0
    outer loop
      vertex 53.8743 0 31.0052
      vertex 70 0 32
      vertex 53.9291 0 31.2505
    endloop
  endfacet
  facet normal 0 -1 0
    outer loop
      vertex 53.8042 0 30.7639
      vertex 70 0 32
      vertex 53.8743 0 31.0052
    endloop
  endfacet
  facet normal 0 -1 0
    outer loop
      vertex 53.7191 0 30.5275
      vertex 70 0 32
      vertex 53.8042 0 30.7639
    endloop
  endfacet
  facet normal 0 -1 0
    outer loop
      vertex 70 0 22
      vertex 53.7191 0 30.5275
      vertex 53.6193 0 30.2969
    endloop
  endfacet
  facet normal 0 -1 0
    outer loop
      vertex 70 0 22
      vertex 53.6193 0 30.2969
      vertex 53.5052 0 30.073
    endloop
  endfacet
  facet normal 0 -1 0
    outer loop
      vertex 70 0 22
      vertex 53.5052 0 30.073
      vertex 53.3773 0 29.8567
    endloop
  endfacet
  facet normal 0 -1 0
    outer loop
      vertex 70 0 22
      vertex 53.3773 0 29.8567
      vertex 53.2361 0 29.6489
    endloop
  endfacet
  facet normal 0 -1 0
    outer loop
      vertex 70 0 22
      vertex 53.2361 0 29.6489
      vertex 53.0821 0 29.4503
    endloop
  endfacet
  facet normal 0 -1 0
    outer loop
      vertex 70 0 22
      vertex 53.0821 0 29.4503
      vertex 52.9159 0 29.2618
    endloop
  endfacet
  facet normal 0 -1 0
    outer loop
      vertex 70 0 22
      vertex 52.9159 0 29.2618
      vertex 52.7382 0 29.0841
    endloop
  endfacet
  facet normal 0 -1 0
    outer loop
      vertex 70 0 22
      vertex 52.7382 0 29.0841
      vertex 52.5497 0 28.9179
    endloop
  endfacet
  facet normal 0 -1 0
    outer loop
      vertex 70 0 22
      vertex 52.5497 0 28.9179
      vertex 52.3511 0 28.7639
    endloop
  endfacet
  facet normal 0 -1 0
    outer loop
      vertex 70 0 22
      vertex 52.3511 0 28.7639
      vertex 52.1433 0 28.6227
    endloop
  endfacet
  facet normal 0 -1 0
    outer loop
      vertex 70 0 22
      vertex 52.1433 0 28.6227
      vertex 51.927 0 28.4948
    endloop
  endfacet
  facet normal 0 -1 0
    outer loop
      vertex 70 0 22
      vertex 51.927 0 28.4948
      vertex 51.7031 0 28.3807
    endloop
  endfacet
  facet normal 0 -1 0
    outer loop
      vertex 45 0 22
      vertex 51.7031 0 28.3807
      vertex 51.4725 0 28.2809
    endloop
  endfacet
  facet normal 0 -1 0
    outer loop
      vertex 45 0 22
      vertex 51.4725 0 28.2809
      vertex 51.2361 0 28.1958
    endloop
  endfacet
  facet normal 0 -1 0
    outer loop
      vertex 45 0 22
      vertex 51.2361 0 28.1958
      vertex 50.9948 0 28.1257
    endloop
  endfacet
  facet normal 0 -1 0
    outer loop
      vertex 45 0 22
      vertex 50.9948 0 28.1257
      vertex 50.7495 0 28.0709
    endloop
  endfacet
  facet normal 0 -1 -0
    outer loop
      vertex 49.7488 0 28.0079
      vertex 45 0 22
      vertex 50 0 28
    endloop
  endfacet
  facet normal 0 -1 -0
    outer loop
      vertex 50 0 28
      vertex 45 0 22
      vertex 50.2512 0 28.0079
    endloop
  endfacet
  facet normal 0 -1 -0
    outer loop
      vertex 50.2512 0 28.0079
      vertex 45 0 22
      vertex 50.5013 0 28.0315
    endloop
  endfacet
  facet normal 0 -1 -0
    outer loop
      vertex 50.5013 0 28.0315
      vertex 45 0 22
      vertex 50.7495 0 28.0709
    endloop
  endfacet
  facet normal 0 -1 -0
    outer loop
      vertex 51.7031 0 28.3807
      vertex 45 0 22
      vertex 70 0 22
    endloop
  endfacet
  facet normal 0 -1 0
    outer loop
      vertex 53.7191 0 30.5275
      vertex 70 0 22
      vertex 70 0 32
    endloop
  endfacet
  facet normal 0 -1 0
    outer loop
      vertex 45 0 7
      vertex 70 0 22
      vertex 45 0 22
    endloop
  endfacet
  facet normal 0 -1 0
    outer loop
      vertex 100 0 0
      vertex 70 0 22
      vertex 45 0 7
    endloop
  endfacet
  facet normal 0 -1 0
    outer loop
      vertex 0 0 42
      vertex 50 0 36
      vertex 100 0 42
    endloop
  endfacet
  facet normal 0 -1 0
    outer loop
      vertex 0 0 42
      vertex 49.7488 0 35.9921
      vertex 50 0 36
    endloop
  endfacet
  facet normal 0 -1 0
    outer loop
      vertex 0 0 42
      vertex 49.4987 0 35.9685
      vertex 49.7488 0 35.9921
    endloop
  endfacet
  facet normal 0 -1 0
    outer loop
      vertex 0 0 42
      vertex 49.2505 0 35.9291
      vertex 49.4987 0 35.9685
    endloop
  endfacet
  facet normal 0 -1 0
    outer loop
      vertex 0 0 42
      vertex 49.0052 0 35.8743
      vertex 49.2505 0 35.9291
    endloop
  endfacet
  facet normal 0 -1 0
    outer loop
      vertex 0 0 42
      vertex 48.7639 0 35.8042
      vertex 49.0052 0 35.8743
    endloop
  endfacet
  facet normal 0 -1 0
    outer loop
      vertex 0 0 42
      vertex 48.5275 0 35.7191
      vertex 48.7639 0 35.8042
    endloop
  endfacet
  facet normal 0 -1 0
    outer loop
      vertex 0 0 42
      vertex 48.2969 0 35.6193
      vertex 48.5275 0 35.7191
    endloop
  endfacet
  facet normal 0 -1 0
    outer loop
      vertex 0 0 42
      vertex 48.073 0 35.5052
      vertex 48.2969 0 35.6193
    endloop
  endfacet
  facet normal 0 -1 0
    outer loop
      vertex 0 0 42
      vertex 47.8567 0 35.3773
      vertex 48.073 0 35.5052
    endloop
  endfacet
  facet normal 0 -1 0
    outer loop
      vertex 0 0 42
      vertex 47.6489 0 35.2361
      vertex 47.8567 0 35.3773
    endloop
  endfacet
  facet normal 0 -1 0
    outer loop
      vertex 0 0 42
      vertex 47.4503 0 35.0821
      vertex 47.6489 0 35.2361
    endloop
  endfacet
  facet normal 0 -1 0
    outer loop
      vertex 0 0 42
      vertex 47.2618 0 34.9159
      vertex 47.4503 0 35.0821
    endloop
  endfacet
  facet normal 0 -1 0
    outer loop
      vertex 0 0 42
      vertex 47.0841 0 34.7382
      vertex 47.2618 0 34.9159
    endloop
  endfacet
  facet normal 0 -1 0
    outer loop
      vertex 0 0 42
      vertex 46.9179 0 34.5497
      vertex 47.0841 0 34.7382
    endloop
  endfacet
  facet normal 0 -1 0
    outer loop
      vertex 0 0 42
      vertex 46.7639 0 34.3511
      vertex 46.9179 0 34.5497
    endloop
  endfacet
  facet normal 0 -1 0
    outer loop
      vertex 0 0 42
      vertex 46.6227 0 34.1433
      vertex 46.7639 0 34.3511
    endloop
  endfacet
  facet normal 0 -1 0
    outer loop
      vertex 25 0 22
      vertex 46.6227 0 34.1433
      vertex 0 0 42
    endloop
  endfacet
  facet normal 0 -1 0
    outer loop
      vertex 46.6227 0 34.1433
      vertex 25 0 22
      vertex 46.4948 0 33.927
    endloop
  endfacet
  facet normal 0 -1 0
    outer loop
      vertex 46.4948 0 33.927
      vertex 25 0 22
      vertex 46.3807 0 33.7031
    endloop
  endfacet
  facet normal 0 -1 0
    outer loop
      vertex 46.3807 0 33.7031
      vertex 25 0 22
      vertex 46.2809 0 33.4725
    endloop
  endfacet
  facet normal 0 -1 0
    outer loop
      vertex 46.2809 0 33.4725
      vertex 25 0 22
      vertex 46.1958 0 33.2361
    endloop
  endfacet
  facet normal 0 -1 0
    outer loop
      vertex 46.1958 0 33.2361
      vertex 25 0 22
      vertex 46.1257 0 32.9948
    endloop
  endfacet
  facet normal 0 -1 0
    outer loop
      vertex 46.1257 0 32.9948
      vertex 25 0 22
      vertex 46.0709 0 32.7495
    endloop
  endfacet
  facet normal 0 -1 0
    outer loop
      vertex 46.0709 0 32.7495
      vertex 25 0 22
      vertex 46.0315 0 32.5013
    endloop
  endfacet
  facet normal 0 -1 0
    outer loop
      vertex 46.0315 0 32.5013
      vertex 25 0 22
      vertex 46.0079 0 32.2512
    endloop
  endfacet
  facet normal 0 -1 0
    outer loop
      vertex 46.0079 0 32.2512
      vertex 25 0 22
      vertex 46 0 32
    endloop
  endfacet
  facet normal 0 -1 -0
    outer loop
      vertex 46 0 32
      vertex 25 0 22
      vertex 46.0079 0 31.7488
    endloop
  endfacet
  facet normal 0 -1 -0
    outer loop
      vertex 46.0079 0 31.7488
      vertex 25 0 22
      vertex 46.0315 0 31.4987
    endloop
  endfacet
  facet normal 0 -1 -0
    outer loop
      vertex 46.0315 0 31.4987
      vertex 25 0 22
      vertex 46.0709 0 31.2505
    endloop
  endfacet
  facet normal 0 -1 -0
    outer loop
      vertex 46.0709 0 31.2505
      vertex 25 0 22
      vertex 46.1257 0 31.0052
    endloop
  endfacet
  facet normal 0 -1 0
    outer loop
      vertex 45 0 22
      vertex 46.1257 0 31.0052
      vertex 25 0 22
    endloop
  endfacet
  facet normal 0 -1 -0
    outer loop
      vertex 46.1257 0 31.0052
      vertex 45 0 22
      vertex 46.1958 0 30.7639
    endloop
  endfacet
  facet normal 0 -1 -0
    outer loop
      vertex 46.1958 0 30.7639
      vertex 45 0 22
      vertex 46.2809 0 30.5275
    endloop
  endfacet
  facet normal 0 -1 -0
    outer loop
      vertex 46.2809 0 30.5275
      vertex 45 0 22
      vertex 46.3807 0 30.2969
    endloop
  endfacet
  facet normal 0 -1 -0
    outer loop
      vertex 46.3807 0 30.2969
      vertex 45 0 22
      vertex 46.4948 0 30.073
    endloop
  endfacet
  facet normal 0 -1 -0
    outer loop
      vertex 46.4948 0 30.073
      vertex 45 0 22
      vertex 46.6227 0 29.8567
    endloop
  endfacet
  facet normal 0 -1 -0
    outer loop
      vertex 46.6227 0 29.8567
      vertex 45 0 22
      vertex 46.7639 0 29.6489
    endloop
  endfacet
  facet normal 0 -1 -0
    outer loop
      vertex 46.7639 0 29.6489
      vertex 45 0 22
      vertex 46.9179 0 29.4503
    endloop
  endfacet
  facet normal 0 -1 -0
    outer loop
      vertex 46.9179 0 29.4503
      vertex 45 0 22
      vertex 47.0841 0 29.2618
    endloop
  endfacet
  facet normal 0 -1 -0
    outer loop
      vertex 47.0841 0 29.2618
      vertex 45 0 22
      vertex 47.2618 0 29.0841
    endloop
  endfacet
  facet normal 0 -1 -0
    outer loop
      vertex 47.2618 0 29.0841
      vertex 45 0 22
      vertex 47.4503 0 28.9179
    endloop
  endfacet
  facet normal 0 -1 -0
    outer loop
      vertex 47.4503 0 28.9179
      vertex 45 0 22
      vertex 47.6489 0 28.7639
    endloop
  endfacet
  facet normal 0 -1 -0
    outer loop
      vertex 47.6489 0 28.7639
      vertex 45 0 22
      vertex 47.8567 0 28.6227
    endloop
  endfacet
  facet normal 0 -1 -0
    outer loop
      vertex 47.8567 0 28.6227
      vertex 45 0 22
      vertex 48.073 0 28.4948
    endloop
  endfacet
  facet normal 0 -1 -0
    outer loop
      vertex 48.073 0 28.4948
      vertex 45 0 22
      vertex 48.2969 0 28.3807
    endloop
  endfacet
  facet normal 0 -1 -0
    outer loop
      vertex 48.2969 0 28.3807
      vertex 45 0 22
      vertex 48.5275 0 28.2809
    endloop
  endfacet
  facet normal 0 -1 -0
    outer loop
      vertex 49.4987 0 28.0315
      vertex 45 0 22
      vertex 49.7488 0 28.0079
    endloop
  endfacet
  facet normal 0 -1 -0
    outer loop
      vertex 49.2505 0 28.0709
      vertex 45 0 22
      vertex 49.4987 0 28.0315
    endloop
  endfacet
  facet normal 0 -1 -0
    outer loop
      vertex 49.0052 0 28.1257
      vertex 45 0 22
      vertex 49.2505 0 28.0709
    endloop
  endfacet
  facet normal 0 -1 -0
    outer loop
      vertex 48.7639 0 28.1958
      vertex 45 0 22
      vertex 49.0052 0 28.1257
    endloop
  endfacet
  facet normal 0 -1 -0
    outer loop
      vertex 48.5275 0 28.2809
      vertex 45 0 22
      vertex 48.7639 0 28.1958
    endloop
  endfacet
  facet normal 0 -1 0
    outer loop
      vertex 0 0 0
      vertex 25 0 22
      vertex 0 0 42
    endloop
  endfacet
  facet normal 0 -1 -0
    outer loop
      vertex 25 0 7
      vertex 0 0 0
      vertex 45 0 7
    endloop
  endfacet
  facet normal 0 -1 -0
    outer loop
      vertex 25 0 22
      vertex 0 0 0
      vertex 25 0 7
    endloop
  endfacet
  facet normal 0 -1 0
    outer loop
      vertex 50.2512 0 35.9921
      vertex 100 0 42
      vertex 50 0 36
    endloop
  endfacet
  facet normal 0 -1 0
    outer loop
      vertex 50.5013 0 35.9685
      vertex 100 0 42
      vertex 50.2512 0 35.9921
    endloop
  endfacet
  facet normal 0 -1 0
    outer loop
      vertex 50.7495 0 35.9291
      vertex 100 0 42
      vertex 50.5013 0 35.9685
    endloop
  endfacet
  facet normal 0 -1 0
    outer loop
      vertex 50.9948 0 35.8743
      vertex 100 0 42
      vertex 50.7495 0 35.9291
    endloop
  endfacet
  facet normal 0 -1 0
    outer loop
      vertex 51.2361 0 35.8042
      vertex 100 0 42
      vertex 50.9948 0 35.8743
    endloop
  endfacet
  facet normal 0 -1 0
    outer loop
      vertex 51.4725 0 35.7191
      vertex 100 0 42
      vertex 51.2361 0 35.8042
    endloop
  endfacet
  facet normal 0 -1 0
    outer loop
      vertex 70 0 32
      vertex 51.4725 0 35.7191
      vertex 51.7031 0 35.6193
    endloop
  endfacet
  facet normal 0 -1 0
    outer loop
      vertex 70 0 32
      vertex 51.7031 0 35.6193
      vertex 51.927 0 35.5052
    endloop
  endfacet
  facet normal 0 -1 0
    outer loop
      vertex 70 0 32
      vertex 51.927 0 35.5052
      vertex 52.1433 0 35.3773
    endloop
  endfacet
  facet normal 0 -1 0
    outer loop
      vertex 70 0 32
      vertex 52.1433 0 35.3773
      vertex 52.3511 0 35.2361
    endloop
  endfacet
  facet normal 0 -1 0
    outer loop
      vertex 70 0 32
      vertex 52.3511 0 35.2361
      vertex 52.5497 0 35.0821
    endloop
  endfacet
  facet normal 0 -1 0
    outer loop
      vertex 70 0 32
      vertex 52.5497 0 35.0821
      vertex 52.7382 0 34.9159
    endloop
  endfacet
  facet normal 0 -1 0
    outer loop
      vertex 70 0 32
      vertex 52.7382 0 34.9159
      vertex 52.9159 0 34.7382
    endloop
  endfacet
  facet normal 0 -1 0
    outer loop
      vertex 70 0 32
      vertex 52.9159 0 34.7382
      vertex 53.0821 0 34.5497
    endloop
  endfacet
  facet normal 0 -1 0
    outer loop
      vertex 70 0 32
      vertex 53.0821 0 34.5497
      vertex 53.2361 0 34.3511
    endloop
  endfacet
  facet normal 0 -1 0
    outer loop
      vertex 70 0 32
      vertex 53.2361 0 34.3511
      vertex 53.3773 0 34.1433
    endloop
  endfacet
  facet normal 0 -1 0
    outer loop
      vertex 70 0 32
      vertex 53.3773 0 34.1433
      vertex 53.5052 0 33.927
    endloop
  endfacet
  facet normal 0 -1 0
    outer loop
      vertex 70 0 32
      vertex 53.5052 0 33.927
      vertex 53.6193 0 33.7031
    endloop
  endfacet
  facet normal 0 -1 0
    outer loop
      vertex 70 0 32
      vertex 53.6193 0 33.7031
      vertex 53.7191 0 33.4725
    endloop
  endfacet
  facet normal 0 -1 0
    outer loop
      vertex 70 0 32
      vertex 53.7191 0 33.4725
      vertex 53.8042 0 33.2361
    endloop
  endfacet
  facet normal 0 -1 0
    outer loop
      vertex 70 0 32
      vertex 53.8042 0 33.2361
      vertex 53.8743 0 32.9948
    endloop
  endfacet
  facet normal 0 -1 0
    outer loop
      vertex 70 0 32
      vertex 53.8743 0 32.9948
      vertex 53.9291 0 32.7495
    endloop
  endfacet
  facet normal 0 -1 0
    outer loop
      vertex 70 0 32
      vertex 53.9291 0 32.7495
      vertex 53.9685 0 32.5013
    endloop
  endfacet
  facet normal 0 -1 0
    outer loop
      vertex 70 0 32
      vertex 53.9685 0 32.5013
      vertex 53.9921 0 32.2512
    endloop
  endfacet
  facet normal 0 -1 0
    outer loop
      vertex 70 0 32
      vertex 53.9921 0 32.2512
      vertex 54 0 32
    endloop
  endfacet
  facet normal 0 -1 0
    outer loop
      vertex 51.4725 0 35.7191
      vertex 70 0 32
      vertex 100 0 42
    endloop
  endfacet
  facet normal 0 -1 0
    outer loop
      vertex 82 0 32
      vertex 100 0 42
      vertex 70 0 32
    endloop
  endfacet
  facet normal 0 -1 0
    outer loop
      vertex 82 0 22
      vertex 100 0 42
      vertex 82 0 32
    endloop
  endfacet
  facet normal 0 -1 0
    outer loop
      vertex 82 0 22
      vertex 100 0 0
      vertex 100 0 42
    endloop
  endfacet
  facet normal 0 -1 0
    outer loop
      vertex 70 0 22
      vertex 100 0 0
      vertex 82 0 22
    endloop
  endfacet
  facet normal 0 -1 0
    outer loop
      vertex 100 0 0
      vertex 45 0 7
      vertex 0 0 0
    endloop
  endfacet
  facet normal -1 0 0
    outer loop
      vertex 40 15 0
      vertex 40 23 2
      vertex 40 23 0
    endloop
  endfacet
  facet normal -1 -0 0
    outer loop
      vertex 40 23 2
      vertex 40 15 0
      vertex 40 15 2
    endloop
  endfacet
  facet normal 1 -0 0
    outer loop
      vertex 30 15 2
      vertex 30 23 0
      vertex 30 23 2
    endloop
  endfacet
  facet normal 1 0 0
    outer loop
      vertex 30 23 0
      vertex 30 15 2
      vertex 30 15 0
    endloop
  endfacet
  facet normal 0 -1 0
    outer loop
      vertex 30 23 0
      vertex 40 23 2
      vertex 30 23 2
    endloop
  endfacet
  facet normal 0 -1 -0
    outer loop
      vertex 40 23 2
      vertex 30 23 0
      vertex 40 23 0
    endloop
  endfacet
  facet normal 0 1 -0
    outer loop
      vertex 40 15 0
      vertex 30 15 2
      vertex 40 15 2
    endloop
  endfacet
  facet normal 0 1 0
    outer loop
      vertex 30 15 2
      vertex 40 15 0
      vertex 30 15 0
    endloop
  endfacet
  facet normal -1 0 0
    outer loop
      vertex 75 35 0
      vertex 75 45 2
      vertex 75 45 0
    endloop
  endfacet
  facet normal -1 -0 0
    outer loop
      vertex 75 45 2
      vertex 75 35 0
      vertex 75 35 2
    endloop
  endfacet
  facet normal 1 -0 0
    outer loop
      vertex 60 35 2
      vertex 60 45 0
      vertex 60 45 2
    endloop
  endfacet
  facet normal 1 0 0
    outer loop
      vertex 60 45 0
      vertex 60 35 2
      vertex 60 35 0
    endloop
  endfacet
  facet normal 0 -1 0
    outer loop
      vertex 60 45 0
      vertex 75 45 2
      vertex 60 45 2
    endloop
  endfacet
  facet normal 0 -1 -0
    outer loop
      vertex 75 45 2
      vertex 60 45 0
      vertex 75 45 0
    endloop
  endfacet
  facet normal 0 1 -0
    outer loop
      vertex 75 35 0
      vertex 60 35 2
      vertex 75 35 2
    endloop
  endfacet
  facet normal 0 1 0
    outer loop
      vertex 60 35 2
      vertex 75 35 0
      vertex 60 35 0
    endloop
  endfacet
  facet normal -0 0 1
    outer loop
      vertex 0 2 42
      vertex 100 0 42
      vertex 100 2 42
    endloop
  endfacet
  facet normal 0 0 1
    outer loop
      vertex 100 0 42
      vertex 0 2 42
      vertex 0 0 42
    endloop
  endfacet
  facet normal 0 1 0
    outer loop
      vertex 100 2 42
      vertex 50 2 36
      vertex 0 2 42
    endloop
  endfacet
  facet normal 0 1 0
    outer loop
      vertex 100 2 42
      vertex 50.2512 2 35.9921
      vertex 50 2 36
    endloop
  endfacet
  facet normal 0 1 0
    outer loop
      vertex 100 2 42
      vertex 50.5013 2 35.9685
      vertex 50.2512 2 35.9921
    endloop
  endfacet
  facet normal 0 1 0
    outer loop
      vertex 100 2 42
      vertex 50.7495 2 35.9291
      vertex 50.5013 2 35.9685
    endloop
  endfacet
  facet normal 0 1 0
    outer loop
      vertex 100 2 42
      vertex 50.9948 2 35.8743
      vertex 50.7495 2 35.9291
    endloop
  endfacet
  facet normal 0 1 0
    outer loop
      vertex 100 2 42
      vertex 51.2361 2 35.8042
      vertex 50.9948 2 35.8743
    endloop
  endfacet
  facet normal 0 1 0
    outer loop
      vertex 100 2 42
      vertex 51.4725 2 35.7191
      vertex 51.2361 2 35.8042
    endloop
  endfacet
  facet normal 0 1 -0
    outer loop
      vertex 70 2 32
      vertex 51.4725 2 35.7191
      vertex 100 2 42
    endloop
  endfacet
  facet normal 0 1 0
    outer loop
      vertex 51.4725 2 35.7191
      vertex 70 2 32
      vertex 51.7031 2 35.6193
    endloop
  endfacet
  facet normal 0 1 0
    outer loop
      vertex 51.7031 2 35.6193
      vertex 70 2 32
      vertex 51.927 2 35.5052
    endloop
  endfacet
  facet normal 0 1 0
    outer loop
      vertex 51.927 2 35.5052
      vertex 70 2 32
      vertex 52.1433 2 35.3773
    endloop
  endfacet
  facet normal 0 1 0
    outer loop
      vertex 52.1433 2 35.3773
      vertex 70 2 32
      vertex 52.3511 2 35.2361
    endloop
  endfacet
  facet normal 0 1 0
    outer loop
      vertex 52.3511 2 35.2361
      vertex 70 2 32
      vertex 52.5497 2 35.0821
    endloop
  endfacet
  facet normal 0 1 0
    outer loop
      vertex 52.5497 2 35.0821
      vertex 70 2 32
      vertex 52.7382 2 34.9159
    endloop
  endfacet
  facet normal 0 1 0
    outer loop
      vertex 52.7382 2 34.9159
      vertex 70 2 32
      vertex 52.9159 2 34.7382
    endloop
  endfacet
  facet normal 0 1 0
    outer loop
      vertex 52.9159 2 34.7382
      vertex 70 2 32
      vertex 53.0821 2 34.5497
    endloop
  endfacet
  facet normal 0 1 0
    outer loop
      vertex 53.0821 2 34.5497
      vertex 70 2 32
      vertex 53.2361 2 34.3511
    endloop
  endfacet
  facet normal 0 1 0
    outer loop
      vertex 53.2361 2 34.3511
      vertex 70 2 32
      vertex 53.3773 2 34.1433
    endloop
  endfacet
  facet normal 0 1 0
    outer loop
      vertex 53.3773 2 34.1433
      vertex 70 2 32
      vertex 53.5052 2 33.927
    endloop
  endfacet
  facet normal 0 1 0
    outer loop
      vertex 53.5052 2 33.927
      vertex 70 2 32
      vertex 53.6193 2 33.7031
    endloop
  endfacet
  facet normal 0 1 0
    outer loop
      vertex 53.6193 2 33.7031
      vertex 70 2 32
      vertex 53.7191 2 33.4725
    endloop
  endfacet
  facet normal 0 1 0
    outer loop
      vertex 53.7191 2 33.4725
      vertex 70 2 32
      vertex 53.8042 2 33.2361
    endloop
  endfacet
  facet normal 0 1 0
    outer loop
      vertex 53.8042 2 33.2361
      vertex 70 2 32
      vertex 53.8743 2 32.9948
    endloop
  endfacet
  facet normal 0 1 0
    outer loop
      vertex 53.8743 2 32.9948
      vertex 70 2 32
      vertex 53.9291 2 32.7495
    endloop
  endfacet
  facet normal 0 1 0
    outer loop
      vertex 53.9291 2 32.7495
      vertex 70 2 32
      vertex 53.9685 2 32.5013
    endloop
  endfacet
  facet normal 0 1 0
    outer loop
      vertex 70 2 32
      vertex 100 2 42
      vertex 82 2 32
    endloop
  endfacet
  facet normal 0 1 0
    outer loop
      vertex 100 2 42
      vertex 82 2 22
      vertex 82 2 32
    endloop
  endfacet
  facet normal 0 1 0
    outer loop
      vertex 100 2 2
      vertex 70 2 22
      vertex 82 2 22
    endloop
  endfacet
  facet normal 0 1 0
    outer loop
      vertex 70 2 22
      vertex 45 2 7
      vertex 45 2 22
    endloop
  endfacet
  facet normal 0 1 0
    outer loop
      vertex 0 2 2
      vertex 45 2 7
      vertex 100 2 2
    endloop
  endfacet
  facet normal 0 1 0
    outer loop
      vertex 70 2 22
      vertex 100 2 2
      vertex 45 2 7
    endloop
  endfacet
  facet normal 0 1 -0
    outer loop
      vertex 100 2 2
      vertex 82 2 22
      vertex 100 2 42
    endloop
  endfacet
  facet normal 0 1 -0
    outer loop
      vertex 49.7488 2 35.9921
      vertex 0 2 42
      vertex 50 2 36
    endloop
  endfacet
  facet normal 0 1 -0
    outer loop
      vertex 49.4987 2 35.9685
      vertex 0 2 42
      vertex 49.7488 2 35.9921
    endloop
  endfacet
  facet normal 0 1 -0
    outer loop
      vertex 49.2505 2 35.9291
      vertex 0 2 42
      vertex 49.4987 2 35.9685
    endloop
  endfacet
  facet normal 0 1 -0
    outer loop
      vertex 49.0052 2 35.8743
      vertex 0 2 42
      vertex 49.2505 2 35.9291
    endloop
  endfacet
  facet normal 0 1 -0
    outer loop
      vertex 48.7639 2 35.8042
      vertex 0 2 42
      vertex 49.0052 2 35.8743
    endloop
  endfacet
  facet normal 0 1 -0
    outer loop
      vertex 48.5275 2 35.7191
      vertex 0 2 42
      vertex 48.7639 2 35.8042
    endloop
  endfacet
  facet normal 0 1 -0
    outer loop
      vertex 48.2969 2 35.6193
      vertex 0 2 42
      vertex 48.5275 2 35.7191
    endloop
  endfacet
  facet normal 0 1 -0
    outer loop
      vertex 48.073 2 35.5052
      vertex 0 2 42
      vertex 48.2969 2 35.6193
    endloop
  endfacet
  facet normal 0 1 -0
    outer loop
      vertex 47.8567 2 35.3773
      vertex 0 2 42
      vertex 48.073 2 35.5052
    endloop
  endfacet
  facet normal 0 1 -0
    outer loop
      vertex 47.6489 2 35.2361
      vertex 0 2 42
      vertex 47.8567 2 35.3773
    endloop
  endfacet
  facet normal 0 1 -0
    outer loop
      vertex 47.4503 2 35.0821
      vertex 0 2 42
      vertex 47.6489 2 35.2361
    endloop
  endfacet
  facet normal 0 1 -0
    outer loop
      vertex 47.2618 2 34.9159
      vertex 0 2 42
      vertex 47.4503 2 35.0821
    endloop
  endfacet
  facet normal 0 1 -0
    outer loop
      vertex 47.0841 2 34.7382
      vertex 0 2 42
      vertex 47.2618 2 34.9159
    endloop
  endfacet
  facet normal 0 1 -0
    outer loop
      vertex 46.9179 2 34.5497
      vertex 0 2 42
      vertex 47.0841 2 34.7382
    endloop
  endfacet
  facet normal 0 1 -0
    outer loop
      vertex 46.7639 2 34.3511
      vertex 0 2 42
      vertex 46.9179 2 34.5497
    endloop
  endfacet
  facet normal 0 1 -0
    outer loop
      vertex 46.6227 2 34.1433
      vertex 0 2 42
      vertex 46.7639 2 34.3511
    endloop
  endfacet
  facet normal 0 1 0
    outer loop
      vertex 25 2 22
      vertex 46.6227 2 34.1433
      vertex 46.4948 2 33.927
    endloop
  endfacet
  facet normal 0 1 0
    outer loop
      vertex 25 2 22
      vertex 46.4948 2 33.927
      vertex 46.3807 2 33.7031
    endloop
  endfacet
  facet normal 0 1 0
    outer loop
      vertex 25 2 22
      vertex 46.3807 2 33.7031
      vertex 46.2809 2 33.4725
    endloop
  endfacet
  facet normal 0 1 0
    outer loop
      vertex 25 2 22
      vertex 46.2809 2 33.4725
      vertex 46.1958 2 33.2361
    endloop
  endfacet
  facet normal 0 1 0
    outer loop
      vertex 25 2 22
      vertex 46.1958 2 33.2361
      vertex 46.1257 2 32.9948
    endloop
  endfacet
  facet normal 0 1 0
    outer loop
      vertex 25 2 22
      vertex 46.1257 2 32.9948
      vertex 46.0709 2 32.7495
    endloop
  endfacet
  facet normal 0 1 0
    outer loop
      vertex 25 2 22
      vertex 46.0709 2 32.7495
      vertex 46.0315 2 32.5013
    endloop
  endfacet
  facet normal 0 1 0
    outer loop
      vertex 25 2 22
      vertex 46.0315 2 32.5013
      vertex 46.0079 2 32.2512
    endloop
  endfacet
  facet normal 0 1 0
    outer loop
      vertex 25 2 22
      vertex 46.0079 2 32.2512
      vertex 46 2 32
    endloop
  endfacet
  facet normal 0 1 0
    outer loop
      vertex 25 2 22
      vertex 46 2 32
      vertex 46.0079 2 31.7488
    endloop
  endfacet
  facet normal 0 1 0
    outer loop
      vertex 25 2 22
      vertex 46.0079 2 31.7488
      vertex 46.0315 2 31.4987
    endloop
  endfacet
  facet normal 0 1 0
    outer loop
      vertex 25 2 22
      vertex 46.0315 2 31.4987
      vertex 46.0709 2 31.2505
    endloop
  endfacet
  facet normal 0 1 0
    outer loop
      vertex 25 2 22
      vertex 46.0709 2 31.2505
      vertex 46.1257 2 31.0052
    endloop
  endfacet
  facet normal 0 1 0
    outer loop
      vertex 45 2 22
      vertex 46.1257 2 31.0052
      vertex 46.1958 2 30.7639
    endloop
  endfacet
  facet normal 0 1 0
    outer loop
      vertex 45 2 22
      vertex 46.1958 2 30.7639
      vertex 46.2809 2 30.5275
    endloop
  endfacet
  facet normal 0 1 0
    outer loop
      vertex 45 2 22
      vertex 46.2809 2 30.5275
      vertex 46.3807 2 30.2969
    endloop
  endfacet
  facet normal 0 1 0
    outer loop
      vertex 45 2 22
      vertex 46.3807 2 30.2969
      vertex 46.4948 2 30.073
    endloop
  endfacet
  facet normal 0 1 0
    outer loop
      vertex 45 2 22
      vertex 46.4948 2 30.073
      vertex 46.6227 2 29.8567
    endloop
  endfacet
  facet normal 0 1 0
    outer loop
      vertex 45 2 22
      vertex 46.6227 2 29.8567
      vertex 46.7639 2 29.6489
    endloop
  endfacet
  facet normal 0 1 0
    outer loop
      vertex 45 2 22
      vertex 46.7639 2 29.6489
      vertex 46.9179 2 29.4503
    endloop
  endfacet
  facet normal 0 1 0
    outer loop
      vertex 45 2 22
      vertex 46.9179 2 29.4503
      vertex 47.0841 2 29.2618
    endloop
  endfacet
  facet normal 0 1 0
    outer loop
      vertex 45 2 22
      vertex 47.0841 2 29.2618
      vertex 47.2618 2 29.0841
    endloop
  endfacet
  facet normal 0 1 0
    outer loop
      vertex 45 2 22
      vertex 47.2618 2 29.0841
      vertex 47.4503 2 28.9179
    endloop
  endfacet
  facet normal 0 1 0
    outer loop
      vertex 45 2 22
      vertex 47.4503 2 28.9179
      vertex 47.6489 2 28.7639
    endloop
  endfacet
  facet normal 0 1 0
    outer loop
      vertex 45 2 22
      vertex 47.6489 2 28.7639
      vertex 47.8567 2 28.6227
    endloop
  endfacet
  facet normal 0 1 0
    outer loop
      vertex 45 2 22
      vertex 47.8567 2 28.6227
      vertex 48.073 2 28.4948
    endloop
  endfacet
  facet normal 0 1 0
    outer loop
      vertex 45 2 22
      vertex 48.073 2 28.4948
      vertex 48.2969 2 28.3807
    endloop
  endfacet
  facet normal 0 1 0
    outer loop
      vertex 45 2 22
      vertex 48.2969 2 28.3807
      vertex 48.5275 2 28.2809
    endloop
  endfacet
  facet normal 0 1 0
    outer loop
      vertex 45 2 22
      vertex 48.5275 2 28.2809
      vertex 48.7639 2 28.1958
    endloop
  endfacet
  facet normal 0 1 0
    outer loop
      vertex 45 2 22
      vertex 48.7639 2 28.1958
      vertex 49.0052 2 28.1257
    endloop
  endfacet
  facet normal 0 1 0
    outer loop
      vertex 50.2512 2 28.0079
      vertex 45 2 22
      vertex 50 2 28
    endloop
  endfacet
  facet normal 0 1 0
    outer loop
      vertex 50 2 28
      vertex 45 2 22
      vertex 49.7488 2 28.0079
    endloop
  endfacet
  facet normal 0 1 0
    outer loop
      vertex 49.7488 2 28.0079
      vertex 45 2 22
      vertex 49.4987 2 28.0315
    endloop
  endfacet
  facet normal 0 1 0
    outer loop
      vertex 49.4987 2 28.0315
      vertex 45 2 22
      vertex 49.2505 2 28.0709
    endloop
  endfacet
  facet normal 0 1 0
    outer loop
      vertex 49.2505 2 28.0709
      vertex 45 2 22
      vertex 49.0052 2 28.1257
    endloop
  endfacet
  facet normal 0 1 0
    outer loop
      vertex 46.1257 2 31.0052
      vertex 45 2 22
      vertex 25 2 22
    endloop
  endfacet
  facet normal 0 1 0
    outer loop
      vertex 46.6227 2 34.1433
      vertex 25 2 22
      vertex 0 2 42
    endloop
  endfacet
  facet normal 0 1 0
    outer loop
      vertex 0 2 2
      vertex 25 2 22
      vertex 25 2 7
    endloop
  endfacet
  facet normal 0 1 0
    outer loop
      vertex 25 2 22
      vertex 0 2 2
      vertex 0 2 42
    endloop
  endfacet
  facet normal 0 1 0
    outer loop
      vertex 45 2 7
      vertex 0 2 2
      vertex 25 2 7
    endloop
  endfacet
  facet normal 0 1 0
    outer loop
      vertex 53.9685 2 32.5013
      vertex 70 2 32
      vertex 53.9921 2 32.2512
    endloop
  endfacet
  facet normal 0 1 0
    outer loop
      vertex 70 2 32
      vertex 54 2 32
      vertex 53.9921 2 32.2512
    endloop
  endfacet
  facet normal 0 1 0
    outer loop
      vertex 70 2 32
      vertex 53.9921 2 31.7488
      vertex 54 2 32
    endloop
  endfacet
  facet normal 0 1 0
    outer loop
      vertex 70 2 32
      vertex 53.9685 2 31.4987
      vertex 53.9921 2 31.7488
    endloop
  endfacet
  facet normal 0 1 0
    outer loop
      vertex 70 2 32
      vertex 53.9291 2 31.2505
      vertex 53.9685 2 31.4987
    endloop
  endfacet
  facet normal 0 1 0
    outer loop
      vertex 70 2 32
      vertex 53.8743 2 31.0052
      vertex 53.9291 2 31.2505
    endloop
  endfacet
  facet normal 0 1 0
    outer loop
      vertex 70 2 32
      vertex 53.8042 2 30.7639
      vertex 53.8743 2 31.0052
    endloop
  endfacet
  facet normal 0 1 0
    outer loop
      vertex 70 2 32
      vertex 53.7191 2 30.5275
      vertex 53.8042 2 30.7639
    endloop
  endfacet
  facet normal 0 1 -0
    outer loop
      vertex 70 2 22
      vertex 53.7191 2 30.5275
      vertex 70 2 32
    endloop
  endfacet
  facet normal 0 1 0
    outer loop
      vertex 53.7191 2 30.5275
      vertex 70 2 22
      vertex 53.6193 2 30.2969
    endloop
  endfacet
  facet normal 0 1 0
    outer loop
      vertex 53.6193 2 30.2969
      vertex 70 2 22
      vertex 53.5052 2 30.073
    endloop
  endfacet
  facet normal 0 1 0
    outer loop
      vertex 53.5052 2 30.073
      vertex 70 2 22
      vertex 53.3773 2 29.8567
    endloop
  endfacet
  facet normal 0 1 0
    outer loop
      vertex 53.3773 2 29.8567
      vertex 70 2 22
      vertex 53.2361 2 29.6489
    endloop
  endfacet
  facet normal 0 1 0
    outer loop
      vertex 53.2361 2 29.6489
      vertex 70 2 22
      vertex 53.0821 2 29.4503
    endloop
  endfacet
  facet normal 0 1 0
    outer loop
      vertex 53.0821 2 29.4503
      vertex 70 2 22
      vertex 52.9159 2 29.2618
    endloop
  endfacet
  facet normal 0 1 0
    outer loop
      vertex 52.9159 2 29.2618
      vertex 70 2 22
      vertex 52.7382 2 29.0841
    endloop
  endfacet
  facet normal 0 1 0
    outer loop
      vertex 52.7382 2 29.0841
      vertex 70 2 22
      vertex 52.5497 2 28.9179
    endloop
  endfacet
  facet normal 0 1 0
    outer loop
      vertex 52.5497 2 28.9179
      vertex 70 2 22
      vertex 52.3511 2 28.7639
    endloop
  endfacet
  facet normal 0 1 0
    outer loop
      vertex 52.3511 2 28.7639
      vertex 70 2 22
      vertex 52.1433 2 28.6227
    endloop
  endfacet
  facet normal 0 1 0
    outer loop
      vertex 52.1433 2 28.6227
      vertex 70 2 22
      vertex 51.927 2 28.4948
    endloop
  endfacet
  facet normal 0 1 0
    outer loop
      vertex 51.927 2 28.4948
      vertex 70 2 22
      vertex 51.7031 2 28.3807
    endloop
  endfacet
  facet normal 0 1 0
    outer loop
      vertex 45 2 22
      vertex 51.7031 2 28.3807
      vertex 70 2 22
    endloop
  endfacet
  facet normal 0 1 0
    outer loop
      vertex 51.7031 2 28.3807
      vertex 45 2 22
      vertex 51.4725 2 28.2809
    endloop
  endfacet
  facet normal 0 1 0
    outer loop
      vertex 51.4725 2 28.2809
      vertex 45 2 22
      vertex 51.2361 2 28.1958
    endloop
  endfacet
  facet normal 0 1 0
    outer loop
      vertex 50.5013 2 28.0315
      vertex 45 2 22
      vertex 50.2512 2 28.0079
    endloop
  endfacet
  facet normal 0 1 0
    outer loop
      vertex 50.7495 2 28.0709
      vertex 45 2 22
      vertex 50.5013 2 28.0315
    endloop
  endfacet
  facet normal 0 1 0
    outer loop
      vertex 50.9948 2 28.1257
      vertex 45 2 22
      vertex 50.7495 2 28.0709
    endloop
  endfacet
  facet normal 0 1 0
    outer loop
      vertex 51.2361 2 28.1958
      vertex 45 2 22
      vertex 50.9948 2 28.1257
    endloop
  endfacet
  facet normal -1 0 0
    outer loop
      vertex 45 0 7
      vertex 45 2 22
      vertex 45 2 7
    endloop
  endfacet
  facet normal -1 -0 0
    outer loop
      vertex 45 2 22
      vertex 45 0 7
      vertex 45 0 22
    endloop
  endfacet
  facet normal 0 0 -1
    outer loop
      vertex 25 0 22
      vertex 45 2 22
      vertex 45 0 22
    endloop
  endfacet
  facet normal -0 0 -1
    outer loop
      vertex 45 2 22
      vertex 25 0 22
      vertex 25 2 22
    endloop
  endfacet
  facet normal -0 0 1
    outer loop
      vertex 25 2 7
      vertex 45 0 7
      vertex 45 2 7
    endloop
  endfacet
  facet normal 0 0 1
    outer loop
      vertex 45 0 7
      vertex 25 2 7
      vertex 25 0 7
    endloop
  endfacet
  facet normal 1 -0 0
    outer loop
      vertex 25 0 22
      vertex 25 2 7
      vertex 25 2 22
    endloop
  endfacet
  facet normal 1 0 0
    outer loop
      vertex 25 2 7
      vertex 25 0 22
      vertex 25 0 7
    endloop
  endfacet
  facet normal -1 0 0
    outer loop
      vertex 82 0 22
      vertex 82 2 32
      vertex 82 2 22
    endloop
  endfacet
  facet normal -1 -0 0
    outer loop
      vertex 82 2 32
      vertex 82 0 22
      vertex 82 0 32
    endloop
  endfacet
  facet normal 0 0 -1
    outer loop
      vertex 70 0 32
      vertex 82 2 32
      vertex 82 0 32
    endloop
  endfacet
  facet normal -0 0 -1
    outer loop
      vertex 82 2 32
      vertex 70 0 32
      vertex 70 2 32
    endloop
  endfacet
  facet normal -0 0 1
    outer loop
      vertex 70 2 22
      vertex 82 0 22
      vertex 82 2 22
    endloop
  endfacet
  facet normal 0 0 1
    outer loop
      vertex 82 0 22
      vertex 70 2 22
      vertex 70 0 22
    endloop
  endfacet
  facet normal 1 -0 0
    outer loop
      vertex 70 0 32
      vertex 70 2 22
      vertex 70 2 32
    endloop
  endfacet
  facet normal 1 0 0
    outer loop
      vertex 70 2 22
      vertex 70 0 32
      vertex 70 0 22
    endloop
  endfacet
  facet normal -0.661345 0 0.750082
    outer loop
      vertex 52.5497 2 28.9179
      vertex 52.7382 0 29.0841
      vertex 52.7382 2 29.0841
    endloop
  endfacet
  facet normal -0.661345 0 0.750082
    outer loop
      vertex 52.7382 0 29.0841
      vertex 52.5497 2 28.9179
      vertex 52.5497 0 28.9179
    endloop
  endfacet
  facet normal -0.995577 0 0.0939449
    outer loop
      vertex 53.9685 0 31.4987
      vertex 53.9921 2 31.7488
      vertex 53.9685 2 31.4987
    endloop
  endfacet
  facet normal -0.995577 0 0.0939449
    outer loop
      vertex 53.9921 2 31.7488
      vertex 53.9685 0 31.4987
      vertex 53.9921 0 31.7488
    endloop
  endfacet
  facet normal -0.999506 0 0.0314335
    outer loop
      vertex 53.9921 0 31.7488
      vertex 54 2 32
      vertex 53.9921 2 31.7488
    endloop
  endfacet
  facet normal -0.999506 0 0.0314335
    outer loop
      vertex 54 2 32
      vertex 53.9921 0 31.7488
      vertex 54 0 32
    endloop
  endfacet
  facet normal -0.987634 0 0.15678
    outer loop
      vertex 53.9291 0 31.2505
      vertex 53.9685 2 31.4987
      vertex 53.9291 2 31.2505
    endloop
  endfacet
  facet normal -0.987634 0 0.15678
    outer loop
      vertex 53.9685 2 31.4987
      vertex 53.9291 0 31.2505
      vertex 53.9685 0 31.4987
    endloop
  endfacet
  facet normal -0.975943 0 0.218026
    outer loop
      vertex 53.8743 0 31.0052
      vertex 53.9291 2 31.2505
      vertex 53.8743 2 31.0052
    endloop
  endfacet
  facet normal -0.975943 0 0.218026
    outer loop
      vertex 53.9291 2 31.2505
      vertex 53.8743 0 31.0052
      vertex 53.9291 0 31.2505
    endloop
  endfacet
  facet normal -0.508984 0 0.860776
    outer loop
      vertex 51.927 2 28.4948
      vertex 52.1433 0 28.6227
      vertex 52.1433 2 28.6227
    endloop
  endfacet
  facet normal -0.508984 0 0.860776
    outer loop
      vertex 52.1433 0 28.6227
      vertex 51.927 2 28.4948
      vertex 51.927 0 28.4948
    endloop
  endfacet
  facet normal -0.0314335 0 -0.999506
    outer loop
      vertex 50 0 36
      vertex 50.2512 2 35.9921
      vertex 50.2512 0 35.9921
    endloop
  endfacet
  facet normal -0.0314335 0 -0.999506
    outer loop
      vertex 50.2512 2 35.9921
      vertex 50 0 36
      vertex 50 2 36
    endloop
  endfacet
  facet normal 0.827119 -0 0.562027
    outer loop
      vertex 46.6227 0 29.8567
      vertex 46.7639 2 29.6489
      vertex 46.6227 2 29.8567
    endloop
  endfacet
  facet normal 0.827119 0 0.562027
    outer loop
      vertex 46.7639 2 29.6489
      vertex 46.6227 0 29.8567
      vertex 46.7639 0 29.6489
    endloop
  endfacet
  facet normal 0.940892 0 -0.338705
    outer loop
      vertex 46.2809 0 33.4725
      vertex 46.1958 2 33.2361
      vertex 46.2809 2 33.4725
    endloop
  endfacet
  facet normal 0.940892 0 -0.338705
    outer loop
      vertex 46.1958 2 33.2361
      vertex 46.2809 0 33.4725
      vertex 46.1958 0 33.2361
    endloop
  endfacet
  facet normal -0.612783 0 0.790251
    outer loop
      vertex 52.3511 2 28.7639
      vertex 52.5497 0 28.9179
      vertex 52.5497 2 28.9179
    endloop
  endfacet
  facet normal -0.612783 0 0.790251
    outer loop
      vertex 52.5497 0 28.9179
      vertex 52.3511 2 28.7639
      vertex 52.3511 0 28.7639
    endloop
  endfacet
  facet normal -0.218026 0 0.975943
    outer loop
      vertex 50.7495 2 28.0709
      vertex 50.9948 0 28.1257
      vertex 50.9948 2 28.1257
    endloop
  endfacet
  facet normal -0.218026 0 0.975943
    outer loop
      vertex 50.9948 0 28.1257
      vertex 50.7495 2 28.0709
      vertex 50.7495 0 28.0709
    endloop
  endfacet
  facet normal 0.917739 0 -0.397183
    outer loop
      vertex 46.3807 0 33.7031
      vertex 46.2809 2 33.4725
      vertex 46.3807 2 33.7031
    endloop
  endfacet
  facet normal 0.917739 0 -0.397183
    outer loop
      vertex 46.2809 2 33.4725
      vertex 46.3807 0 33.7031
      vertex 46.2809 0 33.4725
    endloop
  endfacet
  facet normal 0.338705 0 -0.940892
    outer loop
      vertex 48.5275 0 35.7191
      vertex 48.7639 2 35.8042
      vertex 48.7639 0 35.8042
    endloop
  endfacet
  facet normal 0.338705 0 -0.940892
    outer loop
      vertex 48.7639 2 35.8042
      vertex 48.5275 0 35.7191
      vertex 48.5275 2 35.7191
    endloop
  endfacet
  facet normal 0.397183 0 0.917739
    outer loop
      vertex 48.2969 2 28.3807
      vertex 48.5275 0 28.2809
      vertex 48.5275 2 28.2809
    endloop
  endfacet
  facet normal 0.397183 0 0.917739
    outer loop
      vertex 48.5275 0 28.2809
      vertex 48.2969 2 28.3807
      vertex 48.2969 0 28.3807
    endloop
  endfacet
  facet normal -0.562027 0 -0.827119
    outer loop
      vertex 52.1433 0 35.3773
      vertex 52.3511 2 35.2361
      vertex 52.3511 0 35.2361
    endloop
  endfacet
  facet normal -0.562027 0 -0.827119
    outer loop
      vertex 52.3511 2 35.2361
      vertex 52.1433 0 35.3773
      vertex 52.1433 2 35.3773
    endloop
  endfacet
  facet normal 0.508984 0 0.860776
    outer loop
      vertex 47.8567 2 28.6227
      vertex 48.073 0 28.4948
      vertex 48.073 2 28.4948
    endloop
  endfacet
  facet normal 0.508984 0 0.860776
    outer loop
      vertex 48.073 0 28.4948
      vertex 47.8567 2 28.6227
      vertex 47.8567 0 28.6227
    endloop
  endfacet
  facet normal 0.218026 0 0.975943
    outer loop
      vertex 49.0052 2 28.1257
      vertex 49.2505 0 28.0709
      vertex 49.2505 2 28.0709
    endloop
  endfacet
  facet normal 0.218026 0 0.975943
    outer loop
      vertex 49.2505 0 28.0709
      vertex 49.0052 2 28.1257
      vertex 49.0052 0 28.1257
    endloop
  endfacet
  facet normal 0.707107 0 -0.707107
    outer loop
      vertex 47.2618 0 34.9159
      vertex 47.0841 2 34.7382
      vertex 47.2618 2 34.9159
    endloop
  endfacet
  facet normal 0.707107 0 -0.707107
    outer loop
      vertex 47.0841 2 34.7382
      vertex 47.2618 0 34.9159
      vertex 47.0841 0 34.7382
    endloop
  endfacet
  facet normal -0.975943 0 -0.218026
    outer loop
      vertex 53.9291 0 32.7495
      vertex 53.8743 2 32.9948
      vertex 53.9291 2 32.7495
    endloop
  endfacet
  facet normal -0.975943 -0 -0.218026
    outer loop
      vertex 53.8743 2 32.9948
      vertex 53.9291 0 32.7495
      vertex 53.8743 0 32.9948
    endloop
  endfacet
  facet normal -0.0939449 0 0.995577
    outer loop
      vertex 50.2512 2 28.0079
      vertex 50.5013 0 28.0315
      vertex 50.5013 2 28.0315
    endloop
  endfacet
  facet normal -0.0939449 0 0.995577
    outer loop
      vertex 50.5013 0 28.0315
      vertex 50.2512 2 28.0079
      vertex 50.2512 0 28.0079
    endloop
  endfacet
  facet normal 0.860776 -0 0.508984
    outer loop
      vertex 46.4948 0 30.073
      vertex 46.6227 2 29.8567
      vertex 46.4948 2 30.073
    endloop
  endfacet
  facet normal 0.860776 0 0.508984
    outer loop
      vertex 46.6227 2 29.8567
      vertex 46.4948 0 30.073
      vertex 46.6227 0 29.8567
    endloop
  endfacet
  facet normal -0.454045 0 -0.890979
    outer loop
      vertex 51.7031 0 35.6193
      vertex 51.927 2 35.5052
      vertex 51.927 0 35.5052
    endloop
  endfacet
  facet normal -0.454045 0 -0.890979
    outer loop
      vertex 51.927 2 35.5052
      vertex 51.7031 0 35.6193
      vertex 51.7031 2 35.6193
    endloop
  endfacet
  facet normal 0.975943 0 -0.218026
    outer loop
      vertex 46.1257 0 32.9948
      vertex 46.0709 2 32.7495
      vertex 46.1257 2 32.9948
    endloop
  endfacet
  facet normal 0.975943 0 -0.218026
    outer loop
      vertex 46.0709 2 32.7495
      vertex 46.1257 0 32.9948
      vertex 46.0709 0 32.7495
    endloop
  endfacet
  facet normal -0.661345 0 -0.750082
    outer loop
      vertex 52.5497 0 35.0821
      vertex 52.7382 2 34.9159
      vertex 52.7382 0 34.9159
    endloop
  endfacet
  facet normal -0.661345 0 -0.750082
    outer loop
      vertex 52.7382 2 34.9159
      vertex 52.5497 0 35.0821
      vertex 52.5497 2 35.0821
    endloop
  endfacet
  facet normal 0.995577 -0 0.0939449
    outer loop
      vertex 46.0079 0 31.7488
      vertex 46.0315 2 31.4987
      vertex 46.0079 2 31.7488
    endloop
  endfacet
  facet normal 0.995577 0 0.0939449
    outer loop
      vertex 46.0315 2 31.4987
      vertex 46.0079 0 31.7488
      vertex 46.0315 0 31.4987
    endloop
  endfacet
  facet normal -0.890979 0 0.454045
    outer loop
      vertex 53.5052 0 30.073
      vertex 53.6193 2 30.2969
      vertex 53.5052 2 30.073
    endloop
  endfacet
  facet normal -0.890979 0 0.454045
    outer loop
      vertex 53.6193 2 30.2969
      vertex 53.5052 0 30.073
      vertex 53.6193 0 30.2969
    endloop
  endfacet
  facet normal -0.15678 0 0.987634
    outer loop
      vertex 50.5013 2 28.0315
      vertex 50.7495 0 28.0709
      vertex 50.7495 2 28.0709
    endloop
  endfacet
  facet normal -0.15678 0 0.987634
    outer loop
      vertex 50.7495 0 28.0709
      vertex 50.5013 2 28.0315
      vertex 50.5013 0 28.0315
    endloop
  endfacet
  facet normal -0.995577 0 -0.0939449
    outer loop
      vertex 53.9921 0 32.2512
      vertex 53.9685 2 32.5013
      vertex 53.9921 2 32.2512
    endloop
  endfacet
  facet normal -0.995577 -0 -0.0939449
    outer loop
      vertex 53.9685 2 32.5013
      vertex 53.9921 0 32.2512
      vertex 53.9685 0 32.5013
    endloop
  endfacet
  facet normal -0.917739 0 0.397183
    outer loop
      vertex 53.6193 0 30.2969
      vertex 53.7191 2 30.5275
      vertex 53.6193 2 30.2969
    endloop
  endfacet
  facet normal -0.917739 0 0.397183
    outer loop
      vertex 53.7191 2 30.5275
      vertex 53.6193 0 30.2969
      vertex 53.7191 0 30.5275
    endloop
  endfacet
  facet normal -0.860776 0 0.508984
    outer loop
      vertex 53.3773 0 29.8567
      vertex 53.5052 2 30.073
      vertex 53.3773 2 29.8567
    endloop
  endfacet
  facet normal -0.860776 0 0.508984
    outer loop
      vertex 53.5052 2 30.073
      vertex 53.3773 0 29.8567
      vertex 53.5052 0 30.073
    endloop
  endfacet
  facet normal -0.917739 0 -0.397183
    outer loop
      vertex 53.7191 0 33.4725
      vertex 53.6193 2 33.7031
      vertex 53.7191 2 33.4725
    endloop
  endfacet
  facet normal -0.917739 -0 -0.397183
    outer loop
      vertex 53.6193 2 33.7031
      vertex 53.7191 0 33.4725
      vertex 53.6193 0 33.7031
    endloop
  endfacet
  facet normal 0.960298 -0 0.278976
    outer loop
      vertex 46.1257 0 31.0052
      vertex 46.1958 2 30.7639
      vertex 46.1257 2 31.0052
    endloop
  endfacet
  facet normal 0.960298 0 0.278976
    outer loop
      vertex 46.1958 2 30.7639
      vertex 46.1257 0 31.0052
      vertex 46.1958 0 30.7639
    endloop
  endfacet
  facet normal 0.0314335 0 0.999506
    outer loop
      vertex 49.7488 2 28.0079
      vertex 50 0 28
      vertex 50 2 28
    endloop
  endfacet
  facet normal 0.0314335 0 0.999506
    outer loop
      vertex 50 0 28
      vertex 49.7488 2 28.0079
      vertex 49.7488 0 28.0079
    endloop
  endfacet
  facet normal -0.0939449 0 -0.995577
    outer loop
      vertex 50.2512 0 35.9921
      vertex 50.5013 2 35.9685
      vertex 50.5013 0 35.9685
    endloop
  endfacet
  facet normal -0.0939449 0 -0.995577
    outer loop
      vertex 50.5013 2 35.9685
      vertex 50.2512 0 35.9921
      vertex 50.2512 2 35.9921
    endloop
  endfacet
  facet normal 0.508984 0 -0.860776
    outer loop
      vertex 47.8567 0 35.3773
      vertex 48.073 2 35.5052
      vertex 48.073 0 35.5052
    endloop
  endfacet
  facet normal 0.508984 0 -0.860776
    outer loop
      vertex 48.073 2 35.5052
      vertex 47.8567 0 35.3773
      vertex 47.8567 2 35.3773
    endloop
  endfacet
  facet normal -0.960298 0 -0.278976
    outer loop
      vertex 53.8743 0 32.9948
      vertex 53.8042 2 33.2361
      vertex 53.8743 2 32.9948
    endloop
  endfacet
  facet normal -0.960298 -0 -0.278976
    outer loop
      vertex 53.8042 2 33.2361
      vertex 53.8743 0 32.9948
      vertex 53.8042 0 33.2361
    endloop
  endfacet
  facet normal 0.15678 0 -0.987634
    outer loop
      vertex 49.2505 0 35.9291
      vertex 49.4987 2 35.9685
      vertex 49.4987 0 35.9685
    endloop
  endfacet
  facet normal 0.15678 0 -0.987634
    outer loop
      vertex 49.4987 2 35.9685
      vertex 49.2505 0 35.9291
      vertex 49.2505 2 35.9291
    endloop
  endfacet
  facet normal -0.890979 0 -0.454045
    outer loop
      vertex 53.6193 0 33.7031
      vertex 53.5052 2 33.927
      vertex 53.6193 2 33.7031
    endloop
  endfacet
  facet normal -0.890979 -0 -0.454045
    outer loop
      vertex 53.5052 2 33.927
      vertex 53.6193 0 33.7031
      vertex 53.5052 0 33.927
    endloop
  endfacet
  facet normal -0.999506 0 -0.0314335
    outer loop
      vertex 54 0 32
      vertex 53.9921 2 32.2512
      vertex 54 2 32
    endloop
  endfacet
  facet normal -0.999506 -0 -0.0314335
    outer loop
      vertex 53.9921 2 32.2512
      vertex 54 0 32
      vertex 53.9921 0 32.2512
    endloop
  endfacet
  facet normal 0.790251 -0 0.612783
    outer loop
      vertex 46.7639 0 29.6489
      vertex 46.9179 2 29.4503
      vertex 46.7639 2 29.6489
    endloop
  endfacet
  facet normal 0.790251 0 0.612783
    outer loop
      vertex 46.9179 2 29.4503
      vertex 46.7639 0 29.6489
      vertex 46.9179 0 29.4503
    endloop
  endfacet
  facet normal -0.338705 0 0.940892
    outer loop
      vertex 51.2361 2 28.1958
      vertex 51.4725 0 28.2809
      vertex 51.4725 2 28.2809
    endloop
  endfacet
  facet normal -0.338705 0 0.940892
    outer loop
      vertex 51.4725 0 28.2809
      vertex 51.2361 2 28.1958
      vertex 51.2361 0 28.1958
    endloop
  endfacet
  facet normal -0.750082 0 0.661345
    outer loop
      vertex 52.9159 0 29.2618
      vertex 53.0821 2 29.4503
      vertex 52.9159 2 29.2618
    endloop
  endfacet
  facet normal -0.750082 0 0.661345
    outer loop
      vertex 53.0821 2 29.4503
      vertex 52.9159 0 29.2618
      vertex 53.0821 0 29.4503
    endloop
  endfacet
  facet normal -0.940892 0 0.338705
    outer loop
      vertex 53.7191 0 30.5275
      vertex 53.8042 2 30.7639
      vertex 53.7191 2 30.5275
    endloop
  endfacet
  facet normal -0.940892 0 0.338705
    outer loop
      vertex 53.8042 2 30.7639
      vertex 53.7191 0 30.5275
      vertex 53.8042 0 30.7639
    endloop
  endfacet
  facet normal -0.397183 0 -0.917739
    outer loop
      vertex 51.4725 0 35.7191
      vertex 51.7031 2 35.6193
      vertex 51.7031 0 35.6193
    endloop
  endfacet
  facet normal -0.397183 0 -0.917739
    outer loop
      vertex 51.7031 2 35.6193
      vertex 51.4725 0 35.7191
      vertex 51.4725 2 35.7191
    endloop
  endfacet
  facet normal 0.278976 0 0.960298
    outer loop
      vertex 48.7639 2 28.1958
      vertex 49.0052 0 28.1257
      vertex 49.0052 2 28.1257
    endloop
  endfacet
  facet normal 0.278976 0 0.960298
    outer loop
      vertex 49.0052 0 28.1257
      vertex 48.7639 2 28.1958
      vertex 48.7639 0 28.1958
    endloop
  endfacet
  facet normal -0.827119 0 -0.562027
    outer loop
      vertex 53.3773 0 34.1433
      vertex 53.2361 2 34.3511
      vertex 53.3773 2 34.1433
    endloop
  endfacet
  facet normal -0.827119 -0 -0.562027
    outer loop
      vertex 53.2361 2 34.3511
      vertex 53.3773 0 34.1433
      vertex 53.2361 0 34.3511
    endloop
  endfacet
  facet normal -0.278976 0 0.960298
    outer loop
      vertex 50.9948 2 28.1257
      vertex 51.2361 0 28.1958
      vertex 51.2361 2 28.1958
    endloop
  endfacet
  facet normal -0.278976 0 0.960298
    outer loop
      vertex 51.2361 0 28.1958
      vertex 50.9948 2 28.1257
      vertex 50.9948 0 28.1257
    endloop
  endfacet
  facet normal 0.999506 0 -0.0314335
    outer loop
      vertex 46.0079 0 32.2512
      vertex 46 2 32
      vertex 46.0079 2 32.2512
    endloop
  endfacet
  facet normal 0.999506 0 -0.0314335
    outer loop
      vertex 46 2 32
      vertex 46.0079 0 32.2512
      vertex 46 0 32
    endloop
  endfacet
  facet normal 0.999506 -0 0.0314335
    outer loop
      vertex 46 0 32
      vertex 46.0079 2 31.7488
      vertex 46 2 32
    endloop
  endfacet
  facet normal 0.999506 0 0.0314335
    outer loop
      vertex 46.0079 2 31.7488
      vertex 46 0 32
      vertex 46.0079 0 31.7488
    endloop
  endfacet
  facet normal 0.860776 0 -0.508984
    outer loop
      vertex 46.6227 0 34.1433
      vertex 46.4948 2 33.927
      vertex 46.6227 2 34.1433
    endloop
  endfacet
  facet normal 0.860776 0 -0.508984
    outer loop
      vertex 46.4948 2 33.927
      vertex 46.6227 0 34.1433
      vertex 46.4948 0 33.927
    endloop
  endfacet
  facet normal 0.562027 0 0.827119
    outer loop
      vertex 47.6489 2 28.7639
      vertex 47.8567 0 28.6227
      vertex 47.8567 2 28.6227
    endloop
  endfacet
  facet normal 0.562027 0 0.827119
    outer loop
      vertex 47.8567 0 28.6227
      vertex 47.6489 2 28.7639
      vertex 47.6489 0 28.7639
    endloop
  endfacet
  facet normal 0.750082 -0 0.661345
    outer loop
      vertex 46.9179 0 29.4503
      vertex 47.0841 2 29.2618
      vertex 46.9179 2 29.4503
    endloop
  endfacet
  facet normal 0.750082 0 0.661345
    outer loop
      vertex 47.0841 2 29.2618
      vertex 46.9179 0 29.4503
      vertex 47.0841 0 29.2618
    endloop
  endfacet
  facet normal 0.338705 0 0.940892
    outer loop
      vertex 48.5275 2 28.2809
      vertex 48.7639 0 28.1958
      vertex 48.7639 2 28.1958
    endloop
  endfacet
  facet normal 0.338705 0 0.940892
    outer loop
      vertex 48.7639 0 28.1958
      vertex 48.5275 2 28.2809
      vertex 48.5275 0 28.2809
    endloop
  endfacet
  facet normal -0.0314335 0 0.999506
    outer loop
      vertex 50 2 28
      vertex 50.2512 0 28.0079
      vertex 50.2512 2 28.0079
    endloop
  endfacet
  facet normal -0.0314335 0 0.999506
    outer loop
      vertex 50.2512 0 28.0079
      vertex 50 2 28
      vertex 50 0 28
    endloop
  endfacet
  facet normal 0.612783 0 0.790251
    outer loop
      vertex 47.4503 2 28.9179
      vertex 47.6489 0 28.7639
      vertex 47.6489 2 28.7639
    endloop
  endfacet
  facet normal 0.612783 0 0.790251
    outer loop
      vertex 47.6489 0 28.7639
      vertex 47.4503 2 28.9179
      vertex 47.4503 0 28.9179
    endloop
  endfacet
  facet normal -0.707107 0 0.707107
    outer loop
      vertex 52.7382 0 29.0841
      vertex 52.9159 2 29.2618
      vertex 52.7382 2 29.0841
    endloop
  endfacet
  facet normal -0.707107 0 0.707107
    outer loop
      vertex 52.9159 2 29.2618
      vertex 52.7382 0 29.0841
      vertex 52.9159 0 29.2618
    endloop
  endfacet
  facet normal -0.790251 0 -0.612783
    outer loop
      vertex 53.2361 0 34.3511
      vertex 53.0821 2 34.5497
      vertex 53.2361 2 34.3511
    endloop
  endfacet
  facet normal -0.790251 -0 -0.612783
    outer loop
      vertex 53.0821 2 34.5497
      vertex 53.2361 0 34.3511
      vertex 53.0821 0 34.5497
    endloop
  endfacet
  facet normal -0.960298 0 0.278976
    outer loop
      vertex 53.8042 0 30.7639
      vertex 53.8743 2 31.0052
      vertex 53.8042 2 30.7639
    endloop
  endfacet
  facet normal -0.960298 0 0.278976
    outer loop
      vertex 53.8743 2 31.0052
      vertex 53.8042 0 30.7639
      vertex 53.8743 0 31.0052
    endloop
  endfacet
  facet normal -0.940892 0 -0.338705
    outer loop
      vertex 53.8042 0 33.2361
      vertex 53.7191 2 33.4725
      vertex 53.8042 2 33.2361
    endloop
  endfacet
  facet normal -0.940892 -0 -0.338705
    outer loop
      vertex 53.7191 2 33.4725
      vertex 53.8042 0 33.2361
      vertex 53.7191 0 33.4725
    endloop
  endfacet
  facet normal 0.987634 0 -0.15678
    outer loop
      vertex 46.0709 0 32.7495
      vertex 46.0315 2 32.5013
      vertex 46.0709 2 32.7495
    endloop
  endfacet
  facet normal 0.987634 0 -0.15678
    outer loop
      vertex 46.0315 2 32.5013
      vertex 46.0709 0 32.7495
      vertex 46.0315 0 32.5013
    endloop
  endfacet
  facet normal 0.707107 -0 0.707107
    outer loop
      vertex 47.0841 0 29.2618
      vertex 47.2618 2 29.0841
      vertex 47.0841 2 29.2618
    endloop
  endfacet
  facet normal 0.707107 0 0.707107
    outer loop
      vertex 47.2618 2 29.0841
      vertex 47.0841 0 29.2618
      vertex 47.2618 0 29.0841
    endloop
  endfacet
  facet normal -0.827119 0 0.562027
    outer loop
      vertex 53.2361 0 29.6489
      vertex 53.3773 2 29.8567
      vertex 53.2361 2 29.6489
    endloop
  endfacet
  facet normal -0.827119 0 0.562027
    outer loop
      vertex 53.3773 2 29.8567
      vertex 53.2361 0 29.6489
      vertex 53.3773 0 29.8567
    endloop
  endfacet
  facet normal 0.940892 -0 0.338705
    outer loop
      vertex 46.1958 0 30.7639
      vertex 46.2809 2 30.5275
      vertex 46.1958 2 30.7639
    endloop
  endfacet
  facet normal 0.940892 0 0.338705
    outer loop
      vertex 46.2809 2 30.5275
      vertex 46.1958 0 30.7639
      vertex 46.2809 0 30.5275
    endloop
  endfacet
  facet normal 0.454045 0 -0.890979
    outer loop
      vertex 48.073 0 35.5052
      vertex 48.2969 2 35.6193
      vertex 48.2969 0 35.6193
    endloop
  endfacet
  facet normal 0.454045 0 -0.890979
    outer loop
      vertex 48.2969 2 35.6193
      vertex 48.073 0 35.5052
      vertex 48.073 2 35.5052
    endloop
  endfacet
  facet normal 0.661345 0 0.750082
    outer loop
      vertex 47.2618 2 29.0841
      vertex 47.4503 0 28.9179
      vertex 47.4503 2 28.9179
    endloop
  endfacet
  facet normal 0.661345 0 0.750082
    outer loop
      vertex 47.4503 0 28.9179
      vertex 47.2618 2 29.0841
      vertex 47.2618 0 29.0841
    endloop
  endfacet
  facet normal 0.975943 -0 0.218026
    outer loop
      vertex 46.0709 0 31.2505
      vertex 46.1257 2 31.0052
      vertex 46.0709 2 31.2505
    endloop
  endfacet
  facet normal 0.975943 0 0.218026
    outer loop
      vertex 46.1257 2 31.0052
      vertex 46.0709 0 31.2505
      vertex 46.1257 0 31.0052
    endloop
  endfacet
  facet normal 0.0939449 0 -0.995577
    outer loop
      vertex 49.4987 0 35.9685
      vertex 49.7488 2 35.9921
      vertex 49.7488 0 35.9921
    endloop
  endfacet
  facet normal 0.0939449 0 -0.995577
    outer loop
      vertex 49.7488 2 35.9921
      vertex 49.4987 0 35.9685
      vertex 49.4987 2 35.9685
    endloop
  endfacet
  facet normal -0.612783 0 -0.790251
    outer loop
      vertex 52.3511 0 35.2361
      vertex 52.5497 2 35.0821
      vertex 52.5497 0 35.0821
    endloop
  endfacet
  facet normal -0.612783 0 -0.790251
    outer loop
      vertex 52.5497 2 35.0821
      vertex 52.3511 0 35.2361
      vertex 52.3511 2 35.2361
    endloop
  endfacet
  facet normal 0.960298 0 -0.278976
    outer loop
      vertex 46.1958 0 33.2361
      vertex 46.1257 2 32.9948
      vertex 46.1958 2 33.2361
    endloop
  endfacet
  facet normal 0.960298 0 -0.278976
    outer loop
      vertex 46.1257 2 32.9948
      vertex 46.1958 0 33.2361
      vertex 46.1257 0 32.9948
    endloop
  endfacet
  facet normal 0.750082 0 -0.661345
    outer loop
      vertex 47.0841 0 34.7382
      vertex 46.9179 2 34.5497
      vertex 47.0841 2 34.7382
    endloop
  endfacet
  facet normal 0.750082 0 -0.661345
    outer loop
      vertex 46.9179 2 34.5497
      vertex 47.0841 0 34.7382
      vertex 46.9179 0 34.5497
    endloop
  endfacet
  facet normal -0.15678 0 -0.987634
    outer loop
      vertex 50.5013 0 35.9685
      vertex 50.7495 2 35.9291
      vertex 50.7495 0 35.9291
    endloop
  endfacet
  facet normal -0.15678 0 -0.987634
    outer loop
      vertex 50.7495 2 35.9291
      vertex 50.5013 0 35.9685
      vertex 50.5013 2 35.9685
    endloop
  endfacet
  facet normal -0.562027 0 0.827119
    outer loop
      vertex 52.1433 2 28.6227
      vertex 52.3511 0 28.7639
      vertex 52.3511 2 28.7639
    endloop
  endfacet
  facet normal -0.562027 0 0.827119
    outer loop
      vertex 52.3511 0 28.7639
      vertex 52.1433 2 28.6227
      vertex 52.1433 0 28.6227
    endloop
  endfacet
  facet normal 0.454045 0 0.890979
    outer loop
      vertex 48.073 2 28.4948
      vertex 48.2969 0 28.3807
      vertex 48.2969 2 28.3807
    endloop
  endfacet
  facet normal 0.454045 0 0.890979
    outer loop
      vertex 48.2969 0 28.3807
      vertex 48.073 2 28.4948
      vertex 48.073 0 28.4948
    endloop
  endfacet
  facet normal 0.890979 0 -0.454045
    outer loop
      vertex 46.4948 0 33.927
      vertex 46.3807 2 33.7031
      vertex 46.4948 2 33.927
    endloop
  endfacet
  facet normal 0.890979 0 -0.454045
    outer loop
      vertex 46.3807 2 33.7031
      vertex 46.4948 0 33.927
      vertex 46.3807 0 33.7031
    endloop
  endfacet
  facet normal -0.454045 0 0.890979
    outer loop
      vertex 51.7031 2 28.3807
      vertex 51.927 0 28.4948
      vertex 51.927 2 28.4948
    endloop
  endfacet
  facet normal -0.454045 0 0.890979
    outer loop
      vertex 51.927 0 28.4948
      vertex 51.7031 2 28.3807
      vertex 51.7031 0 28.3807
    endloop
  endfacet
  facet normal 0.15678 0 0.987634
    outer loop
      vertex 49.2505 2 28.0709
      vertex 49.4987 0 28.0315
      vertex 49.4987 2 28.0315
    endloop
  endfacet
  facet normal 0.15678 0 0.987634
    outer loop
      vertex 49.4987 0 28.0315
      vertex 49.2505 2 28.0709
      vertex 49.2505 0 28.0709
    endloop
  endfacet
  facet normal -0.987634 0 -0.15678
    outer loop
      vertex 53.9685 0 32.5013
      vertex 53.9291 2 32.7495
      vertex 53.9685 2 32.5013
    endloop
  endfacet
  facet normal -0.987634 -0 -0.15678
    outer loop
      vertex 53.9291 2 32.7495
      vertex 53.9685 0 32.5013
      vertex 53.9291 0 32.7495
    endloop
  endfacet
  facet normal 0.987634 -0 0.15678
    outer loop
      vertex 46.0315 0 31.4987
      vertex 46.0709 2 31.2505
      vertex 46.0315 2 31.4987
    endloop
  endfacet
  facet normal 0.987634 0 0.15678
    outer loop
      vertex 46.0709 2 31.2505
      vertex 46.0315 0 31.4987
      vertex 46.0709 0 31.2505
    endloop
  endfacet
  facet normal 0.0939449 0 0.995577
    outer loop
      vertex 49.4987 2 28.0315
      vertex 49.7488 0 28.0079
      vertex 49.7488 2 28.0079
    endloop
  endfacet
  facet normal 0.0939449 0 0.995577
    outer loop
      vertex 49.7488 0 28.0079
      vertex 49.4987 2 28.0315
      vertex 49.4987 0 28.0315
    endloop
  endfacet
  facet normal 0.995577 0 -0.0939449
    outer loop
      vertex 46.0315 0 32.5013
      vertex 46.0079 2 32.2512
      vertex 46.0315 2 32.5013
    endloop
  endfacet
  facet normal 0.995577 0 -0.0939449
    outer loop
      vertex 46.0079 2 32.2512
      vertex 46.0315 0 32.5013
      vertex 46.0079 0 32.2512
    endloop
  endfacet
  facet normal -0.707107 0 -0.707107
    outer loop
      vertex 52.9159 0 34.7382
      vertex 52.7382 2 34.9159
      vertex 52.9159 2 34.7382
    endloop
  endfacet
  facet normal -0.707107 -0 -0.707107
    outer loop
      vertex 52.7382 2 34.9159
      vertex 52.9159 0 34.7382
      vertex 52.7382 0 34.9159
    endloop
  endfacet
  facet normal 0.218026 0 -0.975943
    outer loop
      vertex 49.0052 0 35.8743
      vertex 49.2505 2 35.9291
      vertex 49.2505 0 35.9291
    endloop
  endfacet
  facet normal 0.218026 0 -0.975943
    outer loop
      vertex 49.2505 2 35.9291
      vertex 49.0052 0 35.8743
      vertex 49.0052 2 35.8743
    endloop
  endfacet
  facet normal -0.397183 0 0.917739
    outer loop
      vertex 51.4725 2 28.2809
      vertex 51.7031 0 28.3807
      vertex 51.7031 2 28.3807
    endloop
  endfacet
  facet normal -0.397183 0 0.917739
    outer loop
      vertex 51.7031 0 28.3807
      vertex 51.4725 2 28.2809
      vertex 51.4725 0 28.2809
    endloop
  endfacet
  facet normal 0.827119 0 -0.562027
    outer loop
      vertex 46.7639 0 34.3511
      vertex 46.6227 2 34.1433
      vertex 46.7639 2 34.3511
    endloop
  endfacet
  facet normal 0.827119 0 -0.562027
    outer loop
      vertex 46.6227 2 34.1433
      vertex 46.7639 0 34.3511
      vertex 46.6227 0 34.1433
    endloop
  endfacet
  facet normal -0.508984 0 -0.860776
    outer loop
      vertex 51.927 0 35.5052
      vertex 52.1433 2 35.3773
      vertex 52.1433 0 35.3773
    endloop
  endfacet
  facet normal -0.508984 0 -0.860776
    outer loop
      vertex 52.1433 2 35.3773
      vertex 51.927 0 35.5052
      vertex 51.927 2 35.5052
    endloop
  endfacet
  facet normal -0.278976 0 -0.960298
    outer loop
      vertex 50.9948 0 35.8743
      vertex 51.2361 2 35.8042
      vertex 51.2361 0 35.8042
    endloop
  endfacet
  facet normal -0.278976 0 -0.960298
    outer loop
      vertex 51.2361 2 35.8042
      vertex 50.9948 0 35.8743
      vertex 50.9948 2 35.8743
    endloop
  endfacet
  facet normal -0.218026 0 -0.975943
    outer loop
      vertex 50.7495 0 35.9291
      vertex 50.9948 2 35.8743
      vertex 50.9948 0 35.8743
    endloop
  endfacet
  facet normal -0.218026 0 -0.975943
    outer loop
      vertex 50.9948 2 35.8743
      vertex 50.7495 0 35.9291
      vertex 50.7495 2 35.9291
    endloop
  endfacet
  facet normal -0.338705 0 -0.940892
    outer loop
      vertex 51.2361 0 35.8042
      vertex 51.4725 2 35.7191
      vertex 51.4725 0 35.7191
    endloop
  endfacet
  facet normal -0.338705 0 -0.940892
    outer loop
      vertex 51.4725 2 35.7191
      vertex 51.2361 0 35.8042
      vertex 51.2361 2 35.8042
    endloop
  endfacet
  facet normal -0.790251 0 0.612783
    outer loop
      vertex 53.0821 0 29.4503
      vertex 53.2361 2 29.6489
      vertex 53.0821 2 29.4503
    endloop
  endfacet
  facet normal -0.790251 0 0.612783
    outer loop
      vertex 53.2361 2 29.6489
      vertex 53.0821 0 29.4503
      vertex 53.2361 0 29.6489
    endloop
  endfacet
  facet normal 0.917739 -0 0.397183
    outer loop
      vertex 46.2809 0 30.5275
      vertex 46.3807 2 30.2969
      vertex 46.2809 2 30.5275
    endloop
  endfacet
  facet normal 0.917739 0 0.397183
    outer loop
      vertex 46.3807 2 30.2969
      vertex 46.2809 0 30.5275
      vertex 46.3807 0 30.2969
    endloop
  endfacet
  facet normal 0.661345 0 -0.750082
    outer loop
      vertex 47.2618 0 34.9159
      vertex 47.4503 2 35.0821
      vertex 47.4503 0 35.0821
    endloop
  endfacet
  facet normal 0.661345 0 -0.750082
    outer loop
      vertex 47.4503 2 35.0821
      vertex 47.2618 0 34.9159
      vertex 47.2618 2 34.9159
    endloop
  endfacet
  facet normal 0.562027 0 -0.827119
    outer loop
      vertex 47.6489 0 35.2361
      vertex 47.8567 2 35.3773
      vertex 47.8567 0 35.3773
    endloop
  endfacet
  facet normal 0.562027 0 -0.827119
    outer loop
      vertex 47.8567 2 35.3773
      vertex 47.6489 0 35.2361
      vertex 47.6489 2 35.2361
    endloop
  endfacet
  facet normal -0.750082 0 -0.661345
    outer loop
      vertex 53.0821 0 34.5497
      vertex 52.9159 2 34.7382
      vertex 53.0821 2 34.5497
    endloop
  endfacet
  facet normal -0.750082 -0 -0.661345
    outer loop
      vertex 52.9159 2 34.7382
      vertex 53.0821 0 34.5497
      vertex 52.9159 0 34.7382
    endloop
  endfacet
  facet normal -0.860776 0 -0.508984
    outer loop
      vertex 53.5052 0 33.927
      vertex 53.3773 2 34.1433
      vertex 53.5052 2 33.927
    endloop
  endfacet
  facet normal -0.860776 -0 -0.508984
    outer loop
      vertex 53.3773 2 34.1433
      vertex 53.5052 0 33.927
      vertex 53.3773 0 34.1433
    endloop
  endfacet
  facet normal 0.397183 0 -0.917739
    outer loop
      vertex 48.2969 0 35.6193
      vertex 48.5275 2 35.7191
      vertex 48.5275 0 35.7191
    endloop
  endfacet
  facet normal 0.397183 0 -0.917739
    outer loop
      vertex 48.5275 2 35.7191
      vertex 48.2969 0 35.6193
      vertex 48.2969 2 35.6193
    endloop
  endfacet
  facet normal 0.0314335 0 -0.999506
    outer loop
      vertex 49.7488 0 35.9921
      vertex 50 2 36
      vertex 50 0 36
    endloop
  endfacet
  facet normal 0.0314335 0 -0.999506
    outer loop
      vertex 50 2 36
      vertex 49.7488 0 35.9921
      vertex 49.7488 2 35.9921
    endloop
  endfacet
  facet normal 0.278976 0 -0.960298
    outer loop
      vertex 48.7639 0 35.8042
      vertex 49.0052 2 35.8743
      vertex 49.0052 0 35.8743
    endloop
  endfacet
  facet normal 0.278976 0 -0.960298
    outer loop
      vertex 49.0052 2 35.8743
      vertex 48.7639 0 35.8042
      vertex 48.7639 2 35.8042
    endloop
  endfacet
  facet normal 0.790251 0 -0.612783
    outer loop
      vertex 46.9179 0 34.5497
      vertex 46.7639 2 34.3511
      vertex 46.9179 2 34.5497
    endloop
  endfacet
  facet normal 0.790251 0 -0.612783
    outer loop
      vertex 46.7639 2 34.3511
      vertex 46.9179 0 34.5497
      vertex 46.7639 0 34.3511
    endloop
  endfacet
  facet normal 0.890979 -0 0.454045
    outer loop
      vertex 46.3807 0 30.2969
      vertex 46.4948 2 30.073
      vertex 46.3807 2 30.2969
    endloop
  endfacet
  facet normal 0.890979 0 0.454045
    outer loop
      vertex 46.4948 2 30.073
      vertex 46.3807 0 30.2969
      vertex 46.4948 0 30.073
    endloop
  endfacet
  facet normal 0.612783 0 -0.790251
    outer loop
      vertex 47.4503 0 35.0821
      vertex 47.6489 2 35.2361
      vertex 47.6489 0 35.2361
    endloop
  endfacet
  facet normal 0.612783 0 -0.790251
    outer loop
      vertex 47.6489 2 35.2361
      vertex 47.4503 0 35.0821
      vertex 47.4503 2 35.0821
    endloop
  endfacet
endsolid OpenSCAD_Model
