solid OpenSCAD_Model
  facet normal 0 1 0
    outer loop
      vertex 15.5778 33.62 19.3321
      vertex 16.025 33.62 19.2142
      vertex 16.025 33.62 16.3858
    endloop
  endfacet
  facet normal 0 1 0
    outer loop
      vertex 16.025 33.62 19.2142
      vertex 16.4722 33.62 19.0856
      vertex 16.4722 33.62 16.5144
    endloop
  endfacet
  facet normal 0 1 0
    outer loop
      vertex 16.025 33.62 19.2142
      vertex 16.4722 33.62 16.5144
      vertex 16.025 33.62 16.3858
    endloop
  endfacet
  facet normal 0 1 0
    outer loop
      vertex 16.4722 33.62 16.5144
      vertex 16.4722 33.62 19.0856
      vertex 16.9194 33.62 16.6529
    endloop
  endfacet
  facet normal 0 1 -0
    outer loop
      vertex 16.9194 33.62 16.6529
      vertex 16.4722 33.62 19.0856
      vertex 16.9194 33.62 18.9471
    endloop
  endfacet
  facet normal 0 1 0
    outer loop
      vertex 17.3667 33.62 16.8
      vertex 16.9194 33.62 16.6529
      vertex 16.9194 33.62 18.9471
    endloop
  endfacet
  facet normal 0 1 0
    outer loop
      vertex 17.8139 33.62 16.9548
      vertex 17.3667 33.62 16.8
      vertex 17.3667 33.62 18.8
    endloop
  endfacet
  facet normal 0 1 0
    outer loop
      vertex 17.8139 33.62 18.6452
      vertex 17.8139 33.62 16.9548
      vertex 17.3667 33.62 18.8
    endloop
  endfacet
  facet normal 0 1 0
    outer loop
      vertex 17.8139 33.62 18.6452
      vertex 18.2611 33.62 17.116
      vertex 17.8139 33.62 16.9548
    endloop
  endfacet
  facet normal 0 1 0
    outer loop
      vertex 17.8139 33.62 18.6452
      vertex 18.2611 33.62 18.484
      vertex 18.2611 33.62 17.116
    endloop
  endfacet
  facet normal 0 1 0
    outer loop
      vertex 18.2611 33.62 17.116
      vertex 18.2611 33.62 18.484
      vertex 18.7083 33.62 17.2824
    endloop
  endfacet
  facet normal 0 1 -0
    outer loop
      vertex 18.7083 33.62 17.2824
      vertex 18.2611 33.62 18.484
      vertex 18.7083 33.62 18.3176
    endloop
  endfacet
  facet normal 0 1 0
    outer loop
      vertex 19.1555 33.62 17.4527
      vertex 18.7083 33.62 17.2824
      vertex 18.7083 33.62 18.3176
    endloop
  endfacet
  facet normal 0 1 0
    outer loop
      vertex 19.1555 33.62 18.1473
      vertex 19.1555 33.62 17.4527
      vertex 18.7083 33.62 18.3176
    endloop
  endfacet
  facet normal 0 1 0
    outer loop
      vertex 19.1555 33.62 18.1473
      vertex 19.6028 33.62 17.6257
      vertex 19.1555 33.62 17.4527
    endloop
  endfacet
  facet normal 0 1 0
    outer loop
      vertex 19.1555 33.62 18.1473
      vertex 19.6028 33.62 17.9743
      vertex 19.6028 33.62 17.6257
    endloop
  endfacet
  facet normal 0 1 0
    outer loop
      vertex 19.6028 33.62 17.6257
      vertex 19.6028 33.62 17.9743
      vertex 20.05 33.62 17.8
    endloop
  endfacet
  facet normal 0 1 0
    outer loop
      vertex 17.3667 33.62 18.8
      vertex 17.3667 33.62 16.8
      vertex 16.9194 33.62 18.9471
    endloop
  endfacet
  facet normal 0 1 0
    outer loop
      vertex 15.5778 33.62 19.3321
      vertex 16.025 33.62 16.3858
      vertex 15.5778 33.62 16.2679
    endloop
  endfacet
  facet normal 0 1 0
    outer loop
      vertex 15.1306 33.62 19.4383
      vertex 15.5778 33.62 19.3321
      vertex 15.5778 33.62 16.2679
    endloop
  endfacet
  facet normal 0 1 0
    outer loop
      vertex 15.1306 33.62 16.1617
      vertex 15.1306 33.62 19.4383
      vertex 15.5778 33.62 16.2679
    endloop
  endfacet
  facet normal 0 1 -0
    outer loop
      vertex 15.1306 33.62 16.1617
      vertex 14.6833 33.62 19.532
      vertex 15.1306 33.62 19.4383
    endloop
  endfacet
  facet normal 0 1 0
    outer loop
      vertex 15.1306 33.62 16.1617
      vertex 14.6833 33.62 16.068
      vertex 14.6833 33.62 19.532
    endloop
  endfacet
  facet normal 0 1 0
    outer loop
      vertex 14.6833 33.62 19.532
      vertex 14.6833 33.62 16.068
      vertex 14.2361 33.62 19.6126
    endloop
  endfacet
  facet normal 0 1 0
    outer loop
      vertex 14.2361 33.62 19.6126
      vertex 14.6833 33.62 16.068
      vertex 14.2361 33.62 15.9874
    endloop
  endfacet
  facet normal 0 1 0
    outer loop
      vertex 13.7889 33.62 19.6794
      vertex 14.2361 33.62 19.6126
      vertex 14.2361 33.62 15.9874
    endloop
  endfacet
  facet normal 0 1 0
    outer loop
      vertex 13.7889 33.62 15.9206
      vertex 13.7889 33.62 19.6794
      vertex 14.2361 33.62 15.9874
    endloop
  endfacet
  facet normal 0 1 -0
    outer loop
      vertex 13.7889 33.62 15.9206
      vertex 13.3417 33.62 19.7318
      vertex 13.7889 33.62 19.6794
    endloop
  endfacet
  facet normal 0 1 0
    outer loop
      vertex 13.7889 33.62 15.9206
      vertex 13.3417 33.62 15.8682
      vertex 13.3417 33.62 19.7318
    endloop
  endfacet
  facet normal 0 1 0
    outer loop
      vertex 13.3417 33.62 19.7318
      vertex 13.3417 33.62 15.8682
      vertex 12.8944 33.62 19.7696
    endloop
  endfacet
  facet normal 0 1 0
    outer loop
      vertex 12.8944 33.62 19.7696
      vertex 13.3417 33.62 15.8682
      vertex 12.8944 33.62 15.8304
    endloop
  endfacet
  facet normal 0 1 0
    outer loop
      vertex 12.4472 33.62 19.7924
      vertex 12.8944 33.62 19.7696
      vertex 12.8944 33.62 15.8304
    endloop
  endfacet
  facet normal 0 1 0
    outer loop
      vertex 12.4472 33.62 15.8076
      vertex 12.4472 33.62 19.7924
      vertex 12.8944 33.62 15.8304
    endloop
  endfacet
  facet normal 0 1 -0
    outer loop
      vertex 12.4472 33.62 15.8076
      vertex 12 33.62 19.8
      vertex 12.4472 33.62 19.7924
    endloop
  endfacet
  facet normal 0 1 0
    outer loop
      vertex 12.4472 33.62 15.8076
      vertex 12 33.62 15.8
      vertex 12 33.62 19.8
    endloop
  endfacet
  facet normal 0 1 0
    outer loop
      vertex 12 33.62 19.8
      vertex 12 33.62 15.8
      vertex 11.5528 33.62 19.7924
    endloop
  endfacet
  facet normal 0 1 0
    outer loop
      vertex 11.5528 33.62 15.8076
      vertex 11.1056 33.62 15.8304
      vertex 11.1056 33.62 19.7696
    endloop
  endfacet
  facet normal 0 1 -0
    outer loop
      vertex 10.6583 33.62 15.8682
      vertex 10.2111 33.62 19.6794
      vertex 10.6583 33.62 19.7318
    endloop
  endfacet
  facet normal -0 1 0
    outer loop
      vertex 9.7639 33.62 15.9874
      vertex 9.7639 33.62 19.6126
      vertex 10.2111 33.62 15.9206
    endloop
  endfacet
  facet normal -0 1 0
    outer loop
      vertex 8.86945 33.62 19.4383
      vertex 9.31668 33.62 19.532
      vertex 9.31668 33.62 16.068
    endloop
  endfacet
  facet normal -0 1 0
    outer loop
      vertex 8.42223 33.62 19.3321
      vertex 8.86945 33.62 19.4383
      vertex 8.86945 33.62 16.1617
    endloop
  endfacet
  facet normal 0 1 0
    outer loop
      vertex 7.97501 33.62 19.2142
      vertex 8.42223 33.62 16.2679
      vertex 7.97501 33.62 16.3858
    endloop
  endfacet
  facet normal 0 1 0
    outer loop
      vertex 7.52779 33.62 19.0856
      vertex 7.97501 33.62 16.3858
      vertex 7.52779 33.62 16.5144
    endloop
  endfacet
  facet normal 0 1 0
    outer loop
      vertex 7.08057 33.62 18.9471
      vertex 7.52779 33.62 16.5144
      vertex 7.08057 33.62 16.6529
    endloop
  endfacet
  facet normal 0 1 0
    outer loop
      vertex 6.63335 33.62 18.8
      vertex 7.08057 33.62 16.6529
      vertex 6.63335 33.62 16.8
    endloop
  endfacet
  facet normal 0 1 0
    outer loop
      vertex 6.18611 33.62 18.6452
      vertex 6.63335 33.62 16.8
      vertex 6.18611 33.62 16.9548
    endloop
  endfacet
  facet normal -0 1 0
    outer loop
      vertex 5.73889 33.62 18.484
      vertex 6.18611 33.62 18.6452
      vertex 6.18611 33.62 16.9548
    endloop
  endfacet
  facet normal -0 1 0
    outer loop
      vertex 5.29167 33.62 18.3176
      vertex 5.73889 33.62 18.484
      vertex 5.73889 33.62 17.116
    endloop
  endfacet
  facet normal -0 1 0
    outer loop
      vertex 4.84445 33.62 18.1473
      vertex 5.29167 33.62 18.3176
      vertex 5.29167 33.62 17.2824
    endloop
  endfacet
  facet normal -0 1 0
    outer loop
      vertex 4.84445 33.62 17.4527
      vertex 4.84445 33.62 18.1473
      vertex 5.29167 33.62 17.2824
    endloop
  endfacet
  facet normal 0 1 -0
    outer loop
      vertex 4.84445 33.62 17.4527
      vertex 4.39723 33.62 17.9743
      vertex 4.84445 33.62 18.1473
    endloop
  endfacet
  facet normal 0 1 0
    outer loop
      vertex 4.84445 33.62 17.4527
      vertex 4.39723 33.62 17.6257
      vertex 4.39723 33.62 17.9743
    endloop
  endfacet
  facet normal 0 1 0
    outer loop
      vertex 4.39723 33.62 17.9743
      vertex 4.39723 33.62 17.6257
      vertex 3.95001 33.62 17.8
    endloop
  endfacet
  facet normal -0 1 0
    outer loop
      vertex 5.29167 33.62 17.2824
      vertex 5.29167 33.62 18.3176
      vertex 5.73889 33.62 17.116
    endloop
  endfacet
  facet normal -0 1 0
    outer loop
      vertex 5.73889 33.62 17.116
      vertex 5.73889 33.62 18.484
      vertex 6.18611 33.62 16.9548
    endloop
  endfacet
  facet normal -0 1 0
    outer loop
      vertex 6.18611 33.62 18.6452
      vertex 6.63335 33.62 18.8
      vertex 6.63335 33.62 16.8
    endloop
  endfacet
  facet normal -0 1 0
    outer loop
      vertex 6.63335 33.62 18.8
      vertex 7.08057 33.62 18.9471
      vertex 7.08057 33.62 16.6529
    endloop
  endfacet
  facet normal -0 1 0
    outer loop
      vertex 7.08057 33.62 18.9471
      vertex 7.52779 33.62 19.0856
      vertex 7.52779 33.62 16.5144
    endloop
  endfacet
  facet normal -0 1 0
    outer loop
      vertex 7.52779 33.62 19.0856
      vertex 7.97501 33.62 19.2142
      vertex 7.97501 33.62 16.3858
    endloop
  endfacet
  facet normal -0 1 0
    outer loop
      vertex 7.97501 33.62 19.2142
      vertex 8.42223 33.62 19.3321
      vertex 8.42223 33.62 16.2679
    endloop
  endfacet
  facet normal -0 1 0
    outer loop
      vertex 8.42223 33.62 16.2679
      vertex 8.42223 33.62 19.3321
      vertex 8.86945 33.62 16.1617
    endloop
  endfacet
  facet normal -0 1 0
    outer loop
      vertex 8.86945 33.62 16.1617
      vertex 8.86945 33.62 19.4383
      vertex 9.31668 33.62 16.068
    endloop
  endfacet
  facet normal -0 1 0
    outer loop
      vertex 9.31668 33.62 16.068
      vertex 9.31668 33.62 19.532
      vertex 9.7639 33.62 15.9874
    endloop
  endfacet
  facet normal 0 1 -0
    outer loop
      vertex 9.7639 33.62 15.9874
      vertex 9.31668 33.62 19.532
      vertex 9.7639 33.62 19.6126
    endloop
  endfacet
  facet normal 0 1 -0
    outer loop
      vertex 10.2111 33.62 15.9206
      vertex 9.7639 33.62 19.6126
      vertex 10.2111 33.62 19.6794
    endloop
  endfacet
  facet normal 0 1 0
    outer loop
      vertex 10.6583 33.62 15.8682
      vertex 10.2111 33.62 15.9206
      vertex 10.2111 33.62 19.6794
    endloop
  endfacet
  facet normal 0 1 0
    outer loop
      vertex 11.1056 33.62 15.8304
      vertex 10.6583 33.62 15.8682
      vertex 10.6583 33.62 19.7318
    endloop
  endfacet
  facet normal 0 1 0
    outer loop
      vertex 11.1056 33.62 19.7696
      vertex 11.1056 33.62 15.8304
      vertex 10.6583 33.62 19.7318
    endloop
  endfacet
  facet normal 0 1 0
    outer loop
      vertex 11.5528 33.62 19.7924
      vertex 11.5528 33.62 15.8076
      vertex 11.1056 33.62 19.7696
    endloop
  endfacet
  facet normal 0 1 0
    outer loop
      vertex 11.5528 33.62 19.7924
      vertex 12 33.62 15.8
      vertex 11.5528 33.62 15.8076
    endloop
  endfacet
  facet normal 0 -1 0
    outer loop
      vertex 16.025 32.82 16.3858
      vertex 16.025 32.82 19.2142
      vertex 15.5778 32.82 19.3321
    endloop
  endfacet
  facet normal 0 -1 0
    outer loop
      vertex 16.4722 32.82 16.5144
      vertex 16.4722 32.82 19.0856
      vertex 16.025 32.82 19.2142
    endloop
  endfacet
  facet normal 0 -1 0
    outer loop
      vertex 16.025 32.82 16.3858
      vertex 16.4722 32.82 16.5144
      vertex 16.025 32.82 19.2142
    endloop
  endfacet
  facet normal -0 -1 0
    outer loop
      vertex 16.9194 32.82 16.6529
      vertex 16.4722 32.82 19.0856
      vertex 16.4722 32.82 16.5144
    endloop
  endfacet
  facet normal -0 -1 -0
    outer loop
      vertex 16.9194 32.82 18.9471
      vertex 16.4722 32.82 19.0856
      vertex 16.9194 32.82 16.6529
    endloop
  endfacet
  facet normal 0 -1 0
    outer loop
      vertex 16.9194 32.82 18.9471
      vertex 16.9194 32.82 16.6529
      vertex 17.3667 32.82 16.8
    endloop
  endfacet
  facet normal 0 -1 0
    outer loop
      vertex 17.3667 32.82 18.8
      vertex 17.3667 32.82 16.8
      vertex 17.8139 32.82 16.9548
    endloop
  endfacet
  facet normal 0 -1 0
    outer loop
      vertex 17.3667 32.82 18.8
      vertex 17.8139 32.82 16.9548
      vertex 17.8139 32.82 18.6452
    endloop
  endfacet
  facet normal 0 -1 0
    outer loop
      vertex 17.8139 32.82 16.9548
      vertex 18.2611 32.82 17.116
      vertex 17.8139 32.82 18.6452
    endloop
  endfacet
  facet normal 0 -1 0
    outer loop
      vertex 18.2611 32.82 17.116
      vertex 18.2611 32.82 18.484
      vertex 17.8139 32.82 18.6452
    endloop
  endfacet
  facet normal -0 -1 0
    outer loop
      vertex 18.7083 32.82 17.2824
      vertex 18.2611 32.82 18.484
      vertex 18.2611 32.82 17.116
    endloop
  endfacet
  facet normal -0 -1 -0
    outer loop
      vertex 18.7083 32.82 18.3176
      vertex 18.2611 32.82 18.484
      vertex 18.7083 32.82 17.2824
    endloop
  endfacet
  facet normal 0 -1 0
    outer loop
      vertex 18.7083 32.82 18.3176
      vertex 18.7083 32.82 17.2824
      vertex 19.1555 32.82 17.4527
    endloop
  endfacet
  facet normal 0 -1 0
    outer loop
      vertex 18.7083 32.82 18.3176
      vertex 19.1555 32.82 17.4527
      vertex 19.1555 32.82 18.1473
    endloop
  endfacet
  facet normal 0 -1 0
    outer loop
      vertex 19.1555 32.82 17.4527
      vertex 19.6028 32.82 17.6257
      vertex 19.1555 32.82 18.1473
    endloop
  endfacet
  facet normal 0 -1 0
    outer loop
      vertex 19.6028 32.82 17.6257
      vertex 19.6028 32.82 17.9743
      vertex 19.1555 32.82 18.1473
    endloop
  endfacet
  facet normal -0 -1 0
    outer loop
      vertex 20.05 32.82 17.8
      vertex 19.6028 32.82 17.9743
      vertex 19.6028 32.82 17.6257
    endloop
  endfacet
  facet normal 0 -1 0
    outer loop
      vertex 16.9194 32.82 18.9471
      vertex 17.3667 32.82 16.8
      vertex 17.3667 32.82 18.8
    endloop
  endfacet
  facet normal 0 -1 0
    outer loop
      vertex 15.5778 32.82 16.2679
      vertex 16.025 32.82 16.3858
      vertex 15.5778 32.82 19.3321
    endloop
  endfacet
  facet normal 0 -1 0
    outer loop
      vertex 15.5778 32.82 16.2679
      vertex 15.5778 32.82 19.3321
      vertex 15.1306 32.82 19.4383
    endloop
  endfacet
  facet normal -0 -1 0
    outer loop
      vertex 15.5778 32.82 16.2679
      vertex 15.1306 32.82 19.4383
      vertex 15.1306 32.82 16.1617
    endloop
  endfacet
  facet normal -0 -1 -0
    outer loop
      vertex 15.1306 32.82 19.4383
      vertex 14.6833 32.82 19.532
      vertex 15.1306 32.82 16.1617
    endloop
  endfacet
  facet normal 0 -1 0
    outer loop
      vertex 14.6833 32.82 19.532
      vertex 14.6833 32.82 16.068
      vertex 15.1306 32.82 16.1617
    endloop
  endfacet
  facet normal 0 -1 0
    outer loop
      vertex 14.2361 32.82 19.6126
      vertex 14.6833 32.82 16.068
      vertex 14.6833 32.82 19.532
    endloop
  endfacet
  facet normal 0 -1 0
    outer loop
      vertex 14.2361 32.82 15.9874
      vertex 14.6833 32.82 16.068
      vertex 14.2361 32.82 19.6126
    endloop
  endfacet
  facet normal 0 -1 0
    outer loop
      vertex 14.2361 32.82 15.9874
      vertex 14.2361 32.82 19.6126
      vertex 13.7889 32.82 19.6794
    endloop
  endfacet
  facet normal -0 -1 0
    outer loop
      vertex 14.2361 32.82 15.9874
      vertex 13.7889 32.82 19.6794
      vertex 13.7889 32.82 15.9206
    endloop
  endfacet
  facet normal -0 -1 -0
    outer loop
      vertex 13.7889 32.82 19.6794
      vertex 13.3417 32.82 19.7318
      vertex 13.7889 32.82 15.9206
    endloop
  endfacet
  facet normal 0 -1 0
    outer loop
      vertex 13.3417 32.82 19.7318
      vertex 13.3417 32.82 15.8682
      vertex 13.7889 32.82 15.9206
    endloop
  endfacet
  facet normal 0 -1 0
    outer loop
      vertex 12.8944 32.82 19.7696
      vertex 13.3417 32.82 15.8682
      vertex 13.3417 32.82 19.7318
    endloop
  endfacet
  facet normal 0 -1 0
    outer loop
      vertex 12.8944 32.82 15.8304
      vertex 13.3417 32.82 15.8682
      vertex 12.8944 32.82 19.7696
    endloop
  endfacet
  facet normal 0 -1 0
    outer loop
      vertex 12.8944 32.82 15.8304
      vertex 12.8944 32.82 19.7696
      vertex 12.4472 32.82 19.7924
    endloop
  endfacet
  facet normal -0 -1 0
    outer loop
      vertex 12.8944 32.82 15.8304
      vertex 12.4472 32.82 19.7924
      vertex 12.4472 32.82 15.8076
    endloop
  endfacet
  facet normal -0 -1 -0
    outer loop
      vertex 12.4472 32.82 19.7924
      vertex 12 32.82 19.8
      vertex 12.4472 32.82 15.8076
    endloop
  endfacet
  facet normal 0 -1 0
    outer loop
      vertex 12 32.82 19.8
      vertex 12 32.82 15.8
      vertex 12.4472 32.82 15.8076
    endloop
  endfacet
  facet normal 0 -1 0
    outer loop
      vertex 11.5528 32.82 19.7924
      vertex 12 32.82 15.8
      vertex 12 32.82 19.8
    endloop
  endfacet
  facet normal 0 -1 0
    outer loop
      vertex 11.1056 32.82 19.7696
      vertex 11.1056 32.82 15.8304
      vertex 11.5528 32.82 15.8076
    endloop
  endfacet
  facet normal 0 -1 -0
    outer loop
      vertex 10.6583 32.82 19.7318
      vertex 10.2111 32.82 19.6794
      vertex 10.6583 32.82 15.8682
    endloop
  endfacet
  facet normal 0 -1 0
    outer loop
      vertex 10.2111 32.82 15.9206
      vertex 9.7639 32.82 19.6126
      vertex 9.7639 32.82 15.9874
    endloop
  endfacet
  facet normal 0 -1 0
    outer loop
      vertex 9.31668 32.82 16.068
      vertex 9.31668 32.82 19.532
      vertex 8.86945 32.82 19.4383
    endloop
  endfacet
  facet normal 0 -1 0
    outer loop
      vertex 8.86945 32.82 16.1617
      vertex 8.86945 32.82 19.4383
      vertex 8.42223 32.82 19.3321
    endloop
  endfacet
  facet normal 0 -1 0
    outer loop
      vertex 7.97501 32.82 16.3858
      vertex 8.42223 32.82 16.2679
      vertex 7.97501 32.82 19.2142
    endloop
  endfacet
  facet normal 0 -1 0
    outer loop
      vertex 7.52779 32.82 16.5144
      vertex 7.97501 32.82 16.3858
      vertex 7.52779 32.82 19.0856
    endloop
  endfacet
  facet normal 0 -1 0
    outer loop
      vertex 7.08057 32.82 16.6529
      vertex 7.52779 32.82 16.5144
      vertex 7.08057 32.82 18.9471
    endloop
  endfacet
  facet normal 0 -1 0
    outer loop
      vertex 6.63335 32.82 16.8
      vertex 7.08057 32.82 16.6529
      vertex 6.63335 32.82 18.8
    endloop
  endfacet
  facet normal 0 -1 0
    outer loop
      vertex 6.18611 32.82 16.9548
      vertex 6.63335 32.82 16.8
      vertex 6.18611 32.82 18.6452
    endloop
  endfacet
  facet normal 0 -1 0
    outer loop
      vertex 6.18611 32.82 16.9548
      vertex 6.18611 32.82 18.6452
      vertex 5.73889 32.82 18.484
    endloop
  endfacet
  facet normal 0 -1 0
    outer loop
      vertex 5.73889 32.82 17.116
      vertex 5.73889 32.82 18.484
      vertex 5.29167 32.82 18.3176
    endloop
  endfacet
  facet normal 0 -1 0
    outer loop
      vertex 5.29167 32.82 17.2824
      vertex 5.29167 32.82 18.3176
      vertex 4.84445 32.82 18.1473
    endloop
  endfacet
  facet normal 0 -1 0
    outer loop
      vertex 5.29167 32.82 17.2824
      vertex 4.84445 32.82 18.1473
      vertex 4.84445 32.82 17.4527
    endloop
  endfacet
  facet normal 0 -1 -0
    outer loop
      vertex 4.84445 32.82 18.1473
      vertex 4.39723 32.82 17.9743
      vertex 4.84445 32.82 17.4527
    endloop
  endfacet
  facet normal 0 -1 0
    outer loop
      vertex 4.39723 32.82 17.9743
      vertex 4.39723 32.82 17.6257
      vertex 4.84445 32.82 17.4527
    endloop
  endfacet
  facet normal 0 -1 0
    outer loop
      vertex 3.95001 32.82 17.8
      vertex 4.39723 32.82 17.6257
      vertex 4.39723 32.82 17.9743
    endloop
  endfacet
  facet normal 0 -1 0
    outer loop
      vertex 5.73889 32.82 17.116
      vertex 5.29167 32.82 18.3176
      vertex 5.29167 32.82 17.2824
    endloop
  endfacet
  facet normal 0 -1 0
    outer loop
      vertex 6.18611 32.82 16.9548
      vertex 5.73889 32.82 18.484
      vertex 5.73889 32.82 17.116
    endloop
  endfacet
  facet normal 0 -1 0
    outer loop
      vertex 6.63335 32.82 16.8
      vertex 6.63335 32.82 18.8
      vertex 6.18611 32.82 18.6452
    endloop
  endfacet
  facet normal 0 -1 0
    outer loop
      vertex 7.08057 32.82 16.6529
      vertex 7.08057 32.82 18.9471
      vertex 6.63335 32.82 18.8
    endloop
  endfacet
  facet normal 0 -1 0
    outer loop
      vertex 7.52779 32.82 16.5144
      vertex 7.52779 32.82 19.0856
      vertex 7.08057 32.82 18.9471
    endloop
  endfacet
  facet normal 0 -1 0
    outer loop
      vertex 7.97501 32.82 16.3858
      vertex 7.97501 32.82 19.2142
      vertex 7.52779 32.82 19.0856
    endloop
  endfacet
  facet normal 0 -1 0
    outer loop
      vertex 8.42223 32.82 16.2679
      vertex 8.42223 32.82 19.3321
      vertex 7.97501 32.82 19.2142
    endloop
  endfacet
  facet normal 0 -1 0
    outer loop
      vertex 8.86945 32.82 16.1617
      vertex 8.42223 32.82 19.3321
      vertex 8.42223 32.82 16.2679
    endloop
  endfacet
  facet normal 0 -1 0
    outer loop
      vertex 9.31668 32.82 16.068
      vertex 8.86945 32.82 19.4383
      vertex 8.86945 32.82 16.1617
    endloop
  endfacet
  facet normal 0 -1 0
    outer loop
      vertex 9.7639 32.82 15.9874
      vertex 9.31668 32.82 19.532
      vertex 9.31668 32.82 16.068
    endloop
  endfacet
  facet normal 0 -1 -0
    outer loop
      vertex 9.7639 32.82 19.6126
      vertex 9.31668 32.82 19.532
      vertex 9.7639 32.82 15.9874
    endloop
  endfacet
  facet normal 0 -1 -0
    outer loop
      vertex 10.2111 32.82 19.6794
      vertex 9.7639 32.82 19.6126
      vertex 10.2111 32.82 15.9206
    endloop
  endfacet
  facet normal 0 -1 0
    outer loop
      vertex 10.2111 32.82 19.6794
      vertex 10.2111 32.82 15.9206
      vertex 10.6583 32.82 15.8682
    endloop
  endfacet
  facet normal 0 -1 0
    outer loop
      vertex 10.6583 32.82 19.7318
      vertex 10.6583 32.82 15.8682
      vertex 11.1056 32.82 15.8304
    endloop
  endfacet
  facet normal 0 -1 0
    outer loop
      vertex 10.6583 32.82 19.7318
      vertex 11.1056 32.82 15.8304
      vertex 11.1056 32.82 19.7696
    endloop
  endfacet
  facet normal 0 -1 0
    outer loop
      vertex 11.1056 32.82 19.7696
      vertex 11.5528 32.82 15.8076
      vertex 11.5528 32.82 19.7924
    endloop
  endfacet
  facet normal 0 -1 0
    outer loop
      vertex 11.5528 32.82 15.8076
      vertex 12 32.82 15.8
      vertex 11.5528 32.82 19.7924
    endloop
  endfacet
  facet normal 0.0509178 0 -0.998703
    outer loop
      vertex 12.8944 33.62 15.8304
      vertex 12.4472 32.82 15.8076
      vertex 12.4472 33.62 15.8076
    endloop
  endfacet
  facet normal 0.0509178 0 -0.998703
    outer loop
      vertex 12.8944 33.62 15.8304
      vertex 12.8944 32.82 15.8304
      vertex 12.4472 32.82 15.8076
    endloop
  endfacet
  facet normal 0.0842069 0 -0.996448
    outer loop
      vertex 13.3417 33.62 15.8682
      vertex 12.8944 32.82 15.8304
      vertex 12.8944 33.62 15.8304
    endloop
  endfacet
  facet normal 0.0842069 0 -0.996448
    outer loop
      vertex 13.3417 33.62 15.8682
      vertex 13.3417 32.82 15.8682
      vertex 12.8944 32.82 15.8304
    endloop
  endfacet
  facet normal 0.116377 0 -0.993205
    outer loop
      vertex 13.7889 33.62 15.9206
      vertex 13.3417 32.82 15.8682
      vertex 13.3417 33.62 15.8682
    endloop
  endfacet
  facet normal 0.116377 0 -0.993205
    outer loop
      vertex 13.7889 33.62 15.9206
      vertex 13.7889 32.82 15.9206
      vertex 13.3417 32.82 15.8682
    endloop
  endfacet
  facet normal 0.147735 0 -0.989027
    outer loop
      vertex 14.2361 33.62 15.9874
      vertex 13.7889 32.82 15.9206
      vertex 13.7889 33.62 15.9206
    endloop
  endfacet
  facet normal 0.147735 0 -0.989027
    outer loop
      vertex 14.2361 33.62 15.9874
      vertex 14.2361 32.82 15.9874
      vertex 13.7889 32.82 15.9206
    endloop
  endfacet
  facet normal 0.177375 0 -0.984143
    outer loop
      vertex 14.6833 33.62 16.068
      vertex 14.2361 32.82 15.9874
      vertex 14.2361 33.62 15.9874
    endloop
  endfacet
  facet normal 0.177375 0 -0.984143
    outer loop
      vertex 14.6833 33.62 16.068
      vertex 14.6833 32.82 16.068
      vertex 14.2361 32.82 15.9874
    endloop
  endfacet
  facet normal 0.205029 0 -0.978756
    outer loop
      vertex 15.1306 33.62 16.1617
      vertex 14.6833 32.82 16.068
      vertex 14.6833 33.62 16.068
    endloop
  endfacet
  facet normal 0.205029 0 -0.978756
    outer loop
      vertex 15.1306 33.62 16.1617
      vertex 15.1306 32.82 16.1617
      vertex 14.6833 32.82 16.068
    endloop
  endfacet
  facet normal 0.231052 0 -0.972941
    outer loop
      vertex 15.5778 33.62 16.2679
      vertex 15.1306 32.82 16.1617
      vertex 15.1306 33.62 16.1617
    endloop
  endfacet
  facet normal 0.231052 0 -0.972941
    outer loop
      vertex 15.5778 33.62 16.2679
      vertex 15.5778 32.82 16.2679
      vertex 15.1306 32.82 16.1617
    endloop
  endfacet
  facet normal 0.25493 0 -0.96696
    outer loop
      vertex 16.025 33.62 16.3858
      vertex 15.5778 32.82 16.2679
      vertex 15.5778 33.62 16.2679
    endloop
  endfacet
  facet normal 0.25493 0 -0.96696
    outer loop
      vertex 16.025 33.62 16.3858
      vertex 16.025 32.82 16.3858
      vertex 15.5778 32.82 16.2679
    endloop
  endfacet
  facet normal 0.276367 0 -0.961052
    outer loop
      vertex 16.4722 33.62 16.5144
      vertex 16.025 32.82 16.3858
      vertex 16.025 33.62 16.3858
    endloop
  endfacet
  facet normal 0.276367 0 -0.961052
    outer loop
      vertex 16.4722 33.62 16.5144
      vertex 16.4722 32.82 16.5144
      vertex 16.025 32.82 16.3858
    endloop
  endfacet
  facet normal 0.295842 0 -0.955237
    outer loop
      vertex 16.9194 33.62 16.6529
      vertex 16.4722 32.82 16.5144
      vertex 16.4722 33.62 16.5144
    endloop
  endfacet
  facet normal 0.295842 0 -0.955237
    outer loop
      vertex 16.9194 33.62 16.6529
      vertex 16.9194 32.82 16.6529
      vertex 16.4722 32.82 16.5144
    endloop
  endfacet
  facet normal 0.312402 0 -0.94995
    outer loop
      vertex 17.3667 33.62 16.8
      vertex 16.9194 32.82 16.6529
      vertex 16.9194 33.62 16.6529
    endloop
  endfacet
  facet normal 0.312402 0 -0.94995
    outer loop
      vertex 17.3667 33.62 16.8
      vertex 17.3667 32.82 16.8
      vertex 16.9194 32.82 16.6529
    endloop
  endfacet
  facet normal 0.327111 0 -0.944986
    outer loop
      vertex 17.8139 33.62 16.9548
      vertex 17.3667 32.82 16.8
      vertex 17.3667 33.62 16.8
    endloop
  endfacet
  facet normal 0.327111 0 -0.944986
    outer loop
      vertex 17.8139 33.62 16.9548
      vertex 17.8139 32.82 16.9548
      vertex 17.3667 32.82 16.8
    endloop
  endfacet
  facet normal 0.339107 0 -0.940748
    outer loop
      vertex 18.2611 33.62 17.116
      vertex 17.8139 32.82 16.9548
      vertex 17.8139 33.62 16.9548
    endloop
  endfacet
  facet normal 0.339107 0 -0.940748
    outer loop
      vertex 18.2611 33.62 17.116
      vertex 18.2611 32.82 17.116
      vertex 17.8139 32.82 16.9548
    endloop
  endfacet
  facet normal 0.348734 0 -0.937222
    outer loop
      vertex 18.7083 33.62 17.2824
      vertex 18.2611 32.82 17.116
      vertex 18.2611 33.62 17.116
    endloop
  endfacet
  facet normal 0.348734 0 -0.937222
    outer loop
      vertex 18.7083 33.62 17.2824
      vertex 18.7083 32.82 17.2824
      vertex 18.2611 32.82 17.116
    endloop
  endfacet
  facet normal 0.355882 0 -0.934531
    outer loop
      vertex 19.1555 33.62 17.4527
      vertex 18.7083 32.82 17.2824
      vertex 18.7083 33.62 17.2824
    endloop
  endfacet
  facet normal 0.355882 0 -0.934531
    outer loop
      vertex 19.1555 33.62 17.4527
      vertex 19.1555 32.82 17.4527
      vertex 18.7083 32.82 17.2824
    endloop
  endfacet
  facet normal 0.360725 0 -0.932672
    outer loop
      vertex 19.6028 33.62 17.6257
      vertex 19.1555 32.82 17.4527
      vertex 19.1555 33.62 17.4527
    endloop
  endfacet
  facet normal 0.360725 0 -0.932672
    outer loop
      vertex 19.6028 33.62 17.6257
      vertex 19.6028 32.82 17.6257
      vertex 19.1555 32.82 17.4527
    endloop
  endfacet
  facet normal 0.36315 0 -0.931731
    outer loop
      vertex 20.05 33.62 17.8
      vertex 19.6028 32.82 17.6257
      vertex 19.6028 33.62 17.6257
    endloop
  endfacet
  facet normal 0.36315 0 -0.931731
    outer loop
      vertex 20.05 33.62 17.8
      vertex 20.05 32.82 17.8
      vertex 19.6028 32.82 17.6257
    endloop
  endfacet
  facet normal 0.36315 0 0.931731
    outer loop
      vertex 19.6028 33.62 17.9743
      vertex 20.05 32.82 17.8
      vertex 20.05 33.62 17.8
    endloop
  endfacet
  facet normal 0.36315 0 0.931731
    outer loop
      vertex 19.6028 33.62 17.9743
      vertex 19.6028 32.82 17.9743
      vertex 20.05 32.82 17.8
    endloop
  endfacet
  facet normal 0.360725 0 0.932672
    outer loop
      vertex 19.1555 33.62 18.1473
      vertex 19.6028 32.82 17.9743
      vertex 19.6028 33.62 17.9743
    endloop
  endfacet
  facet normal 0.360725 0 0.932672
    outer loop
      vertex 19.1555 33.62 18.1473
      vertex 19.1555 32.82 18.1473
      vertex 19.6028 32.82 17.9743
    endloop
  endfacet
  facet normal 0.355882 0 0.934531
    outer loop
      vertex 18.7083 33.62 18.3176
      vertex 19.1555 32.82 18.1473
      vertex 19.1555 33.62 18.1473
    endloop
  endfacet
  facet normal 0.355882 0 0.934531
    outer loop
      vertex 18.7083 33.62 18.3176
      vertex 18.7083 32.82 18.3176
      vertex 19.1555 32.82 18.1473
    endloop
  endfacet
  facet normal 0.348734 0 0.937222
    outer loop
      vertex 18.2611 33.62 18.484
      vertex 18.7083 32.82 18.3176
      vertex 18.7083 33.62 18.3176
    endloop
  endfacet
  facet normal 0.348734 0 0.937222
    outer loop
      vertex 18.2611 33.62 18.484
      vertex 18.2611 32.82 18.484
      vertex 18.7083 32.82 18.3176
    endloop
  endfacet
  facet normal 0.339107 0 0.940748
    outer loop
      vertex 17.8139 33.62 18.6452
      vertex 18.2611 32.82 18.484
      vertex 18.2611 33.62 18.484
    endloop
  endfacet
  facet normal 0.339107 0 0.940748
    outer loop
      vertex 17.8139 33.62 18.6452
      vertex 17.8139 32.82 18.6452
      vertex 18.2611 32.82 18.484
    endloop
  endfacet
  facet normal 0.327111 0 0.944986
    outer loop
      vertex 17.3667 33.62 18.8
      vertex 17.8139 32.82 18.6452
      vertex 17.8139 33.62 18.6452
    endloop
  endfacet
  facet normal 0.327111 0 0.944986
    outer loop
      vertex 17.3667 33.62 18.8
      vertex 17.3667 32.82 18.8
      vertex 17.8139 32.82 18.6452
    endloop
  endfacet
  facet normal 0.312402 0 0.94995
    outer loop
      vertex 16.9194 33.62 18.9471
      vertex 17.3667 32.82 18.8
      vertex 17.3667 33.62 18.8
    endloop
  endfacet
  facet normal 0.312402 0 0.94995
    outer loop
      vertex 16.9194 33.62 18.9471
      vertex 16.9194 32.82 18.9471
      vertex 17.3667 32.82 18.8
    endloop
  endfacet
  facet normal 0.295842 0 0.955237
    outer loop
      vertex 16.4722 33.62 19.0856
      vertex 16.9194 32.82 18.9471
      vertex 16.9194 33.62 18.9471
    endloop
  endfacet
  facet normal 0.295842 0 0.955237
    outer loop
      vertex 16.4722 33.62 19.0856
      vertex 16.4722 32.82 19.0856
      vertex 16.9194 32.82 18.9471
    endloop
  endfacet
  facet normal 0.276367 0 0.961052
    outer loop
      vertex 16.025 33.62 19.2142
      vertex 16.4722 32.82 19.0856
      vertex 16.4722 33.62 19.0856
    endloop
  endfacet
  facet normal 0.276367 0 0.961052
    outer loop
      vertex 16.025 33.62 19.2142
      vertex 16.025 32.82 19.2142
      vertex 16.4722 32.82 19.0856
    endloop
  endfacet
  facet normal 0.25493 0 0.96696
    outer loop
      vertex 15.5778 33.62 19.3321
      vertex 16.025 32.82 19.2142
      vertex 16.025 33.62 19.2142
    endloop
  endfacet
  facet normal 0.25493 0 0.96696
    outer loop
      vertex 15.5778 33.62 19.3321
      vertex 15.5778 32.82 19.3321
      vertex 16.025 32.82 19.2142
    endloop
  endfacet
  facet normal 0.231052 0 0.972941
    outer loop
      vertex 15.1306 33.62 19.4383
      vertex 15.5778 32.82 19.3321
      vertex 15.5778 33.62 19.3321
    endloop
  endfacet
  facet normal 0.231052 0 0.972941
    outer loop
      vertex 15.1306 33.62 19.4383
      vertex 15.1306 32.82 19.4383
      vertex 15.5778 32.82 19.3321
    endloop
  endfacet
  facet normal 0.205029 0 0.978756
    outer loop
      vertex 14.6833 33.62 19.532
      vertex 15.1306 32.82 19.4383
      vertex 15.1306 33.62 19.4383
    endloop
  endfacet
  facet normal 0.205029 0 0.978756
    outer loop
      vertex 14.6833 33.62 19.532
      vertex 14.6833 32.82 19.532
      vertex 15.1306 32.82 19.4383
    endloop
  endfacet
  facet normal 0.177375 0 0.984143
    outer loop
      vertex 14.2361 33.62 19.6126
      vertex 14.6833 32.82 19.532
      vertex 14.6833 33.62 19.532
    endloop
  endfacet
  facet normal 0.177375 0 0.984143
    outer loop
      vertex 14.2361 33.62 19.6126
      vertex 14.2361 32.82 19.6126
      vertex 14.6833 32.82 19.532
    endloop
  endfacet
  facet normal 0.147735 0 0.989027
    outer loop
      vertex 13.7889 33.62 19.6794
      vertex 14.2361 32.82 19.6126
      vertex 14.2361 33.62 19.6126
    endloop
  endfacet
  facet normal 0.147735 0 0.989027
    outer loop
      vertex 13.7889 33.62 19.6794
      vertex 13.7889 32.82 19.6794
      vertex 14.2361 32.82 19.6126
    endloop
  endfacet
  facet normal 0.116377 0 0.993205
    outer loop
      vertex 13.3417 33.62 19.7318
      vertex 13.7889 32.82 19.6794
      vertex 13.7889 33.62 19.6794
    endloop
  endfacet
  facet normal 0.116377 0 0.993205
    outer loop
      vertex 13.3417 33.62 19.7318
      vertex 13.3417 32.82 19.7318
      vertex 13.7889 32.82 19.6794
    endloop
  endfacet
  facet normal 0.0842069 0 0.996448
    outer loop
      vertex 12.8944 33.62 19.7696
      vertex 13.3417 32.82 19.7318
      vertex 13.3417 33.62 19.7318
    endloop
  endfacet
  facet normal 0.0842069 0 0.996448
    outer loop
      vertex 12.8944 33.62 19.7696
      vertex 12.8944 32.82 19.7696
      vertex 13.3417 32.82 19.7318
    endloop
  endfacet
  facet normal 0.0509178 0 0.998703
    outer loop
      vertex 12.4472 33.62 19.7924
      vertex 12.8944 32.82 19.7696
      vertex 12.8944 33.62 19.7696
    endloop
  endfacet
  facet normal 0.0509178 0 0.998703
    outer loop
      vertex 12.4472 33.62 19.7924
      vertex 12.4472 32.82 19.7924
      vertex 12.8944 32.82 19.7696
    endloop
  endfacet
  facet normal 0.0169922 0 0.999856
    outer loop
      vertex 12 33.62 19.8
      vertex 12.4472 32.82 19.7924
      vertex 12.4472 33.62 19.7924
    endloop
  endfacet
  facet normal 0.0169922 0 0.999856
    outer loop
      vertex 12 33.62 19.8
      vertex 12 32.82 19.8
      vertex 12.4472 32.82 19.7924
    endloop
  endfacet
  facet normal -0.0169922 0 0.999856
    outer loop
      vertex 11.5528 33.62 19.7924
      vertex 12 32.82 19.8
      vertex 12 33.62 19.8
    endloop
  endfacet
  facet normal -0.0169922 0 0.999856
    outer loop
      vertex 11.5528 33.62 19.7924
      vertex 11.5528 32.82 19.7924
      vertex 12 32.82 19.8
    endloop
  endfacet
  facet normal -0.0509178 0 0.998703
    outer loop
      vertex 11.1056 33.62 19.7696
      vertex 11.5528 32.82 19.7924
      vertex 11.5528 33.62 19.7924
    endloop
  endfacet
  facet normal -0.0509178 0 0.998703
    outer loop
      vertex 11.1056 33.62 19.7696
      vertex 11.1056 32.82 19.7696
      vertex 11.5528 32.82 19.7924
    endloop
  endfacet
  facet normal -0.0842069 0 0.996448
    outer loop
      vertex 10.6583 33.62 19.7318
      vertex 11.1056 32.82 19.7696
      vertex 11.1056 33.62 19.7696
    endloop
  endfacet
  facet normal -0.0842069 0 0.996448
    outer loop
      vertex 10.6583 33.62 19.7318
      vertex 10.6583 32.82 19.7318
      vertex 11.1056 32.82 19.7696
    endloop
  endfacet
  facet normal -0.116377 0 0.993205
    outer loop
      vertex 10.2111 33.62 19.6794
      vertex 10.6583 32.82 19.7318
      vertex 10.6583 33.62 19.7318
    endloop
  endfacet
  facet normal -0.116377 0 0.993205
    outer loop
      vertex 10.2111 33.62 19.6794
      vertex 10.2111 32.82 19.6794
      vertex 10.6583 32.82 19.7318
    endloop
  endfacet
  facet normal -0.147735 0 0.989027
    outer loop
      vertex 9.7639 33.62 19.6126
      vertex 10.2111 32.82 19.6794
      vertex 10.2111 33.62 19.6794
    endloop
  endfacet
  facet normal -0.147735 0 0.989027
    outer loop
      vertex 9.7639 33.62 19.6126
      vertex 9.7639 32.82 19.6126
      vertex 10.2111 32.82 19.6794
    endloop
  endfacet
  facet normal -0.177367 0 0.984145
    outer loop
      vertex 9.31668 33.62 19.532
      vertex 9.7639 32.82 19.6126
      vertex 9.7639 33.62 19.6126
    endloop
  endfacet
  facet normal -0.177367 0 0.984145
    outer loop
      vertex 9.31668 33.62 19.532
      vertex 9.31668 32.82 19.532
      vertex 9.7639 32.82 19.6126
    endloop
  endfacet
  facet normal -0.20506 0 0.978749
    outer loop
      vertex 8.86945 33.62 19.4383
      vertex 9.31668 32.82 19.532
      vertex 9.31668 33.62 19.532
    endloop
  endfacet
  facet normal -0.20506 0 0.978749
    outer loop
      vertex 8.86945 33.62 19.4383
      vertex 8.86945 32.82 19.4383
      vertex 9.31668 32.82 19.532
    endloop
  endfacet
  facet normal -0.231042 0 0.972944
    outer loop
      vertex 8.42223 33.62 19.3321
      vertex 8.86945 32.82 19.4383
      vertex 8.86945 33.62 19.4383
    endloop
  endfacet
  facet normal -0.231042 0 0.972944
    outer loop
      vertex 8.42223 33.62 19.3321
      vertex 8.42223 32.82 19.3321
      vertex 8.86945 32.82 19.4383
    endloop
  endfacet
  facet normal -0.254919 0 0.966962
    outer loop
      vertex 7.97501 33.62 19.2142
      vertex 8.42223 32.82 19.3321
      vertex 8.42223 33.62 19.3321
    endloop
  endfacet
  facet normal -0.254919 0 0.966962
    outer loop
      vertex 7.97501 33.62 19.2142
      vertex 7.97501 32.82 19.2142
      vertex 8.42223 32.82 19.3321
    endloop
  endfacet
  facet normal -0.276356 0 0.961055
    outer loop
      vertex 7.52779 33.62 19.0856
      vertex 7.97501 32.82 19.2142
      vertex 7.97501 33.62 19.2142
    endloop
  endfacet
  facet normal -0.276356 0 0.961055
    outer loop
      vertex 7.52779 33.62 19.0856
      vertex 7.52779 32.82 19.0856
      vertex 7.97501 32.82 19.2142
    endloop
  endfacet
  facet normal -0.295829 0 0.955241
    outer loop
      vertex 7.08057 33.62 18.9471
      vertex 7.52779 32.82 19.0856
      vertex 7.52779 33.62 19.0856
    endloop
  endfacet
  facet normal -0.295829 0 0.955241
    outer loop
      vertex 7.08057 33.62 18.9471
      vertex 7.08057 32.82 18.9471
      vertex 7.52779 32.82 19.0856
    endloop
  endfacet
  facet normal -0.312453 0 0.949933
    outer loop
      vertex 6.63335 33.62 18.8
      vertex 7.08057 32.82 18.9471
      vertex 7.08057 33.62 18.9471
    endloop
  endfacet
  facet normal -0.312453 0 0.949933
    outer loop
      vertex 6.63335 33.62 18.8
      vertex 6.63335 32.82 18.8
      vertex 7.08057 32.82 18.9471
    endloop
  endfacet
  facet normal -0.327084 0 0.944995
    outer loop
      vertex 6.18611 33.62 18.6452
      vertex 6.63335 32.82 18.8
      vertex 6.63335 33.62 18.8
    endloop
  endfacet
  facet normal -0.327084 0 0.944995
    outer loop
      vertex 6.18611 33.62 18.6452
      vertex 6.18611 32.82 18.6452
      vertex 6.63335 32.82 18.8
    endloop
  endfacet
  facet normal -0.339093 0 0.940753
    outer loop
      vertex 5.73889 33.62 18.484
      vertex 6.18611 32.82 18.6452
      vertex 6.18611 33.62 18.6452
    endloop
  endfacet
  facet normal -0.339093 0 0.940753
    outer loop
      vertex 5.73889 33.62 18.484
      vertex 5.73889 32.82 18.484
      vertex 6.18611 32.82 18.6452
    endloop
  endfacet
  facet normal -0.34872 0 0.937227
    outer loop
      vertex 5.29167 33.62 18.3176
      vertex 5.73889 32.82 18.484
      vertex 5.73889 33.62 18.484
    endloop
  endfacet
  facet normal -0.34872 0 0.937227
    outer loop
      vertex 5.29167 33.62 18.3176
      vertex 5.29167 32.82 18.3176
      vertex 5.73889 32.82 18.484
    endloop
  endfacet
  facet normal -0.355868 0 0.934536
    outer loop
      vertex 4.84445 33.62 18.1473
      vertex 5.29167 32.82 18.3176
      vertex 5.29167 33.62 18.3176
    endloop
  endfacet
  facet normal -0.355868 0 0.934536
    outer loop
      vertex 4.84445 33.62 18.1473
      vertex 4.84445 32.82 18.1473
      vertex 5.29167 32.82 18.3176
    endloop
  endfacet
  facet normal -0.360781 0 0.932651
    outer loop
      vertex 4.39723 33.62 17.9743
      vertex 4.84445 32.82 18.1473
      vertex 4.84445 33.62 18.1473
    endloop
  endfacet
  facet normal -0.360781 0 0.932651
    outer loop
      vertex 4.39723 33.62 17.9743
      vertex 4.39723 32.82 17.9743
      vertex 4.84445 32.82 18.1473
    endloop
  endfacet
  facet normal -0.363136 0 0.931736
    outer loop
      vertex 3.95001 33.62 17.8
      vertex 4.39723 32.82 17.9743
      vertex 4.39723 33.62 17.9743
    endloop
  endfacet
  facet normal -0.363136 0 0.931736
    outer loop
      vertex 3.95001 33.62 17.8
      vertex 3.95001 32.82 17.8
      vertex 4.39723 32.82 17.9743
    endloop
  endfacet
  facet normal -0.363136 0 -0.931736
    outer loop
      vertex 4.39723 33.62 17.6257
      vertex 3.95001 32.82 17.8
      vertex 3.95001 33.62 17.8
    endloop
  endfacet
  facet normal -0.363136 -0 -0.931736
    outer loop
      vertex 4.39723 33.62 17.6257
      vertex 4.39723 32.82 17.6257
      vertex 3.95001 32.82 17.8
    endloop
  endfacet
  facet normal -0.360781 0 -0.932651
    outer loop
      vertex 4.84445 33.62 17.4527
      vertex 4.39723 32.82 17.6257
      vertex 4.39723 33.62 17.6257
    endloop
  endfacet
  facet normal -0.360781 -0 -0.932651
    outer loop
      vertex 4.84445 33.62 17.4527
      vertex 4.84445 32.82 17.4527
      vertex 4.39723 32.82 17.6257
    endloop
  endfacet
  facet normal -0.355868 0 -0.934536
    outer loop
      vertex 5.29167 33.62 17.2824
      vertex 4.84445 32.82 17.4527
      vertex 4.84445 33.62 17.4527
    endloop
  endfacet
  facet normal -0.355868 -0 -0.934536
    outer loop
      vertex 5.29167 33.62 17.2824
      vertex 5.29167 32.82 17.2824
      vertex 4.84445 32.82 17.4527
    endloop
  endfacet
  facet normal -0.34872 0 -0.937227
    outer loop
      vertex 5.73889 33.62 17.116
      vertex 5.29167 32.82 17.2824
      vertex 5.29167 33.62 17.2824
    endloop
  endfacet
  facet normal -0.34872 -0 -0.937227
    outer loop
      vertex 5.73889 33.62 17.116
      vertex 5.73889 32.82 17.116
      vertex 5.29167 32.82 17.2824
    endloop
  endfacet
  facet normal -0.339093 0 -0.940753
    outer loop
      vertex 6.18611 33.62 16.9548
      vertex 5.73889 32.82 17.116
      vertex 5.73889 33.62 17.116
    endloop
  endfacet
  facet normal -0.339093 -0 -0.940753
    outer loop
      vertex 6.18611 33.62 16.9548
      vertex 6.18611 32.82 16.9548
      vertex 5.73889 32.82 17.116
    endloop
  endfacet
  facet normal -0.327084 0 -0.944995
    outer loop
      vertex 6.63335 33.62 16.8
      vertex 6.18611 32.82 16.9548
      vertex 6.18611 33.62 16.9548
    endloop
  endfacet
  facet normal -0.327084 -0 -0.944995
    outer loop
      vertex 6.63335 33.62 16.8
      vertex 6.63335 32.82 16.8
      vertex 6.18611 32.82 16.9548
    endloop
  endfacet
  facet normal -0.312453 0 -0.949933
    outer loop
      vertex 7.08057 33.62 16.6529
      vertex 6.63335 32.82 16.8
      vertex 6.63335 33.62 16.8
    endloop
  endfacet
  facet normal -0.312453 -0 -0.949933
    outer loop
      vertex 7.08057 33.62 16.6529
      vertex 7.08057 32.82 16.6529
      vertex 6.63335 32.82 16.8
    endloop
  endfacet
  facet normal -0.295829 0 -0.955241
    outer loop
      vertex 7.52779 33.62 16.5144
      vertex 7.08057 32.82 16.6529
      vertex 7.08057 33.62 16.6529
    endloop
  endfacet
  facet normal -0.295829 -0 -0.955241
    outer loop
      vertex 7.52779 33.62 16.5144
      vertex 7.52779 32.82 16.5144
      vertex 7.08057 32.82 16.6529
    endloop
  endfacet
  facet normal -0.276356 0 -0.961055
    outer loop
      vertex 7.97501 33.62 16.3858
      vertex 7.52779 32.82 16.5144
      vertex 7.52779 33.62 16.5144
    endloop
  endfacet
  facet normal -0.276356 -0 -0.961055
    outer loop
      vertex 7.97501 33.62 16.3858
      vertex 7.97501 32.82 16.3858
      vertex 7.52779 32.82 16.5144
    endloop
  endfacet
  facet normal -0.254919 0 -0.966962
    outer loop
      vertex 8.42223 33.62 16.2679
      vertex 7.97501 32.82 16.3858
      vertex 7.97501 33.62 16.3858
    endloop
  endfacet
  facet normal -0.254919 -0 -0.966962
    outer loop
      vertex 8.42223 33.62 16.2679
      vertex 8.42223 32.82 16.2679
      vertex 7.97501 32.82 16.3858
    endloop
  endfacet
  facet normal -0.231042 0 -0.972944
    outer loop
      vertex 8.86945 33.62 16.1617
      vertex 8.42223 32.82 16.2679
      vertex 8.42223 33.62 16.2679
    endloop
  endfacet
  facet normal -0.231042 -0 -0.972944
    outer loop
      vertex 8.86945 33.62 16.1617
      vertex 8.86945 32.82 16.1617
      vertex 8.42223 32.82 16.2679
    endloop
  endfacet
  facet normal -0.20506 0 -0.978749
    outer loop
      vertex 9.31668 33.62 16.068
      vertex 8.86945 32.82 16.1617
      vertex 8.86945 33.62 16.1617
    endloop
  endfacet
  facet normal -0.20506 -0 -0.978749
    outer loop
      vertex 9.31668 33.62 16.068
      vertex 9.31668 32.82 16.068
      vertex 8.86945 32.82 16.1617
    endloop
  endfacet
  facet normal -0.177367 0 -0.984145
    outer loop
      vertex 9.7639 33.62 15.9874
      vertex 9.31668 32.82 16.068
      vertex 9.31668 33.62 16.068
    endloop
  endfacet
  facet normal -0.177367 -0 -0.984145
    outer loop
      vertex 9.7639 33.62 15.9874
      vertex 9.7639 32.82 15.9874
      vertex 9.31668 32.82 16.068
    endloop
  endfacet
  facet normal -0.147735 0 -0.989027
    outer loop
      vertex 10.2111 33.62 15.9206
      vertex 9.7639 32.82 15.9874
      vertex 9.7639 33.62 15.9874
    endloop
  endfacet
  facet normal -0.147735 -0 -0.989027
    outer loop
      vertex 10.2111 33.62 15.9206
      vertex 10.2111 32.82 15.9206
      vertex 9.7639 32.82 15.9874
    endloop
  endfacet
  facet normal -0.116377 0 -0.993205
    outer loop
      vertex 10.6583 33.62 15.8682
      vertex 10.2111 32.82 15.9206
      vertex 10.2111 33.62 15.9206
    endloop
  endfacet
  facet normal -0.116377 -0 -0.993205
    outer loop
      vertex 10.6583 33.62 15.8682
      vertex 10.6583 32.82 15.8682
      vertex 10.2111 32.82 15.9206
    endloop
  endfacet
  facet normal -0.0842069 0 -0.996448
    outer loop
      vertex 11.1056 33.62 15.8304
      vertex 10.6583 32.82 15.8682
      vertex 10.6583 33.62 15.8682
    endloop
  endfacet
  facet normal -0.0842069 -0 -0.996448
    outer loop
      vertex 11.1056 33.62 15.8304
      vertex 11.1056 32.82 15.8304
      vertex 10.6583 32.82 15.8682
    endloop
  endfacet
  facet normal -0.0509178 0 -0.998703
    outer loop
      vertex 11.5528 33.62 15.8076
      vertex 11.1056 32.82 15.8304
      vertex 11.1056 33.62 15.8304
    endloop
  endfacet
  facet normal -0.0509178 -0 -0.998703
    outer loop
      vertex 11.5528 33.62 15.8076
      vertex 11.5528 32.82 15.8076
      vertex 11.1056 32.82 15.8304
    endloop
  endfacet
  facet normal -0.0169922 0 -0.999856
    outer loop
      vertex 12 33.62 15.8
      vertex 11.5528 32.82 15.8076
      vertex 11.5528 33.62 15.8076
    endloop
  endfacet
  facet normal -0.0169922 -0 -0.999856
    outer loop
      vertex 12 33.62 15.8
      vertex 12 32.82 15.8
      vertex 11.5528 32.82 15.8076
    endloop
  endfacet
  facet normal 0.0169922 0 -0.999856
    outer loop
      vertex 12.4472 33.62 15.8076
      vertex 12 32.82 15.8
      vertex 12 33.62 15.8
    endloop
  endfacet
  facet normal 0.0169922 0 -0.999856
    outer loop
      vertex 12.4472 33.62 15.8076
      vertex 12.4472 32.82 15.8076
      vertex 12 32.82 15.8
    endloop
  endfacet
endsolid OpenSCAD_Model
