solid OpenSCAD_Model
  facet normal 1 0 0
    outer loop
      vertex 60 35 2
      vertex 60 40 47
      vertex 60 35 47
    endloop
  endfacet
  facet normal 1 0 0
    outer loop
      vertex 60 40 47
      vertex 60 35 2
      vertex 60 40 0
    endloop
  endfacet
  facet normal 1 0 0
    outer loop
      vertex 60 -40 0
      vertex 60 35 2
      vertex 60 -40 2
    endloop
  endfacet
  facet normal 1 0 0
    outer loop
      vertex 60 35 2
      vertex 60 -40 0
      vertex 60 40 0
    endloop
  endfacet
  facet normal 0 0 1
    outer loop
      vertex 60 35 2
      vertex -7.5 12.5 2
      vertex 60 -40 2
    endloop
  endfacet
  facet normal -0 0 1
    outer loop
      vertex -60 35 2
      vertex -7.5 12.5 2
      vertex 60 35 2
    endloop
  endfacet
  facet normal 0 0 1
    outer loop
      vertex -60 -40 2
      vertex -32.5 12.5 2
      vertex -60 35 2
    endloop
  endfacet
  facet normal 0 0 1
    outer loop
      vertex -7.5 12.5 2
      vertex -60 35 2
      vertex -32.5 12.5 2
    endloop
  endfacet
  facet normal -0 0 1
    outer loop
      vertex -7.5 -22.5 2
      vertex 60 -40 2
      vertex -7.5 12.5 2
    endloop
  endfacet
  facet normal 0 0 1
    outer loop
      vertex -60 -40 2
      vertex -7.5 -22.5 2
      vertex -32.5 -22.5 2
    endloop
  endfacet
  facet normal 0 0 1
    outer loop
      vertex -7.5 -22.5 2
      vertex -60 -40 2
      vertex 60 -40 2
    endloop
  endfacet
  facet normal 0 0 1
    outer loop
      vertex -32.5 12.5 2
      vertex -60 -40 2
      vertex -32.5 -22.5 2
    endloop
  endfacet
  facet normal 0 0 -1
    outer loop
      vertex -7.5 12.5 0
      vertex 60 -40 0
      vertex -7.5 -22.5 0
    endloop
  endfacet
  facet normal 0 0 -1
    outer loop
      vertex -60 -40 0
      vertex -7.5 -22.5 0
      vertex 60 -40 0
    endloop
  endfacet
  facet normal -0 0 -1
    outer loop
      vertex -32.5 -22.5 0
      vertex -60 -40 0
      vertex -32.5 12.5 0
    endloop
  endfacet
  facet normal -0 0 -1
    outer loop
      vertex -7.5 -22.5 0
      vertex -60 -40 0
      vertex -32.5 -22.5 0
    endloop
  endfacet
  facet normal 0 0 -1
    outer loop
      vertex 60 -40 0
      vertex -7.5 12.5 0
      vertex 60 40 0
    endloop
  endfacet
  facet normal 0 0 -1
    outer loop
      vertex -60 40 0
      vertex -7.5 12.5 0
      vertex -32.5 12.5 0
    endloop
  endfacet
  facet normal 0 0 -1
    outer loop
      vertex -7.5 12.5 0
      vertex -60 40 0
      vertex 60 40 0
    endloop
  endfacet
  facet normal 0 0 -1
    outer loop
      vertex -60 40 0
      vertex -32.5 12.5 0
      vertex -60 -40 0
    endloop
  endfacet
  facet normal -1 0 0
    outer loop
      vertex -60 40 0
      vertex -60 35 2
      vertex -60 40 47
    endloop
  endfacet
  facet normal -1 0 0
    outer loop
      vertex -60 -40 0
      vertex -60 35 2
      vertex -60 40 0
    endloop
  endfacet
  facet normal -1 -0 0
    outer loop
      vertex -60 35 2
      vertex -60 -40 0
      vertex -60 -40 2
    endloop
  endfacet
  facet normal -1 -0 0
    outer loop
      vertex -60 40 47
      vertex -60 35 2
      vertex -60 35 47
    endloop
  endfacet
  facet normal 0 1 0
    outer loop
      vertex 60 40 47
      vertex 0 40 39
      vertex -60 40 47
    endloop
  endfacet
  facet normal 0 1 0
    outer loop
      vertex 60 40 47
      vertex 0.392295 40 38.9846
      vertex 0 40 39
    endloop
  endfacet
  facet normal 0 1 0
    outer loop
      vertex 60 40 47
      vertex 0.782172 40 38.9384
      vertex 0.392295 40 38.9846
    endloop
  endfacet
  facet normal 0 1 0
    outer loop
      vertex 60 40 47
      vertex 1.16723 40 38.8618
      vertex 0.782172 40 38.9384
    endloop
  endfacet
  facet normal 0 1 0
    outer loop
      vertex 60 40 47
      vertex 1.54508 40 38.7553
      vertex 1.16723 40 38.8618
    endloop
  endfacet
  facet normal 0 1 0
    outer loop
      vertex 60 40 47
      vertex 1.91342 40 38.6194
      vertex 1.54508 40 38.7553
    endloop
  endfacet
  facet normal 0 1 0
    outer loop
      vertex 60 40 47
      vertex 2.26995 40 38.455
      vertex 1.91342 40 38.6194
    endloop
  endfacet
  facet normal 0 1 0
    outer loop
      vertex 60 40 47
      vertex 2.61249 40 38.2632
      vertex 2.26995 40 38.455
    endloop
  endfacet
  facet normal 0 1 -0
    outer loop
      vertex 21 40 32
      vertex 2.61249 40 38.2632
      vertex 60 40 47
    endloop
  endfacet
  facet normal 0 1 0
    outer loop
      vertex 2.61249 40 38.2632
      vertex 21 40 32
      vertex 2.93893 40 38.0451
    endloop
  endfacet
  facet normal 0 1 0
    outer loop
      vertex 2.93893 40 38.0451
      vertex 21 40 32
      vertex 3.24724 40 37.802
    endloop
  endfacet
  facet normal 0 1 0
    outer loop
      vertex 3.24724 40 37.802
      vertex 21 40 32
      vertex 3.53553 40 37.5355
    endloop
  endfacet
  facet normal 0 1 0
    outer loop
      vertex 3.53553 40 37.5355
      vertex 21 40 32
      vertex 3.80203 40 37.2472
    endloop
  endfacet
  facet normal 0 1 0
    outer loop
      vertex 3.80203 40 37.2472
      vertex 21 40 32
      vertex 4.04508 40 36.9389
    endloop
  endfacet
  facet normal 0 1 0
    outer loop
      vertex 4.04508 40 36.9389
      vertex 21 40 32
      vertex 4.2632 40 36.6125
    endloop
  endfacet
  facet normal 0 1 -0
    outer loop
      vertex 9 40 32
      vertex 4.2632 40 36.6125
      vertex 21 40 32
    endloop
  endfacet
  facet normal 0 1 0
    outer loop
      vertex 4.2632 40 36.6125
      vertex 9 40 32
      vertex 4.45503 40 36.27
    endloop
  endfacet
  facet normal 0 1 0
    outer loop
      vertex 4.45503 40 36.27
      vertex 9 40 32
      vertex 4.6194 40 35.9134
    endloop
  endfacet
  facet normal 0 1 0
    outer loop
      vertex 4.6194 40 35.9134
      vertex 9 40 32
      vertex 4.75528 40 35.5451
    endloop
  endfacet
  facet normal 0 1 0
    outer loop
      vertex 4.75528 40 35.5451
      vertex 9 40 32
      vertex 4.86185 40 35.1672
    endloop
  endfacet
  facet normal 0 1 0
    outer loop
      vertex 4.86185 40 35.1672
      vertex 9 40 32
      vertex 4.93844 40 34.7822
    endloop
  endfacet
  facet normal 0 1 0
    outer loop
      vertex 4.93844 40 34.7822
      vertex 9 40 32
      vertex 4.98459 40 34.3923
    endloop
  endfacet
  facet normal 0 1 0
    outer loop
      vertex 4.98459 40 34.3923
      vertex 9 40 32
      vertex 5 40 34
    endloop
  endfacet
  facet normal 0 1 0
    outer loop
      vertex 5 40 34
      vertex 9 40 32
      vertex 4.98459 40 33.6077
    endloop
  endfacet
  facet normal 0 1 0
    outer loop
      vertex 4.98459 40 33.6077
      vertex 9 40 32
      vertex 4.93844 40 33.2178
    endloop
  endfacet
  facet normal 0 1 0
    outer loop
      vertex 4.86185 40 32.8328
      vertex 9 40 32
      vertex 4.75528 40 32.4549
    endloop
  endfacet
  facet normal 0 1 0
    outer loop
      vertex 4.93844 40 33.2178
      vertex 9 40 32
      vertex 4.86185 40 32.8328
    endloop
  endfacet
  facet normal 0 1 0
    outer loop
      vertex 60 40 47
      vertex 21 40 24
      vertex 21 40 32
    endloop
  endfacet
  facet normal 0 1 0
    outer loop
      vertex -16 40 5
      vertex 9 40 24
      vertex 21 40 24
    endloop
  endfacet
  facet normal 0 1 0
    outer loop
      vertex 9 40 24
      vertex -16 40 5
      vertex -16 40 17
    endloop
  endfacet
  facet normal 0 1 0
    outer loop
      vertex -60 40 0
      vertex -16 40 5
      vertex 60 40 0
    endloop
  endfacet
  facet normal 0 1 0
    outer loop
      vertex 21 40 24
      vertex 60 40 0
      vertex -16 40 5
    endloop
  endfacet
  facet normal 0 1 -0
    outer loop
      vertex 60 40 0
      vertex 21 40 24
      vertex 60 40 47
    endloop
  endfacet
  facet normal 0 1 -0
    outer loop
      vertex -0.392295 40 38.9846
      vertex -60 40 47
      vertex 0 40 39
    endloop
  endfacet
  facet normal 0 1 -0
    outer loop
      vertex -0.782172 40 38.9384
      vertex -60 40 47
      vertex -0.392295 40 38.9846
    endloop
  endfacet
  facet normal 0 1 -0
    outer loop
      vertex -1.16723 40 38.8618
      vertex -60 40 47
      vertex -0.782172 40 38.9384
    endloop
  endfacet
  facet normal 0 1 -0
    outer loop
      vertex -1.54508 40 38.7553
      vertex -60 40 47
      vertex -1.16723 40 38.8618
    endloop
  endfacet
  facet normal 0 1 -0
    outer loop
      vertex -1.91342 40 38.6194
      vertex -60 40 47
      vertex -1.54508 40 38.7553
    endloop
  endfacet
  facet normal 0 1 -0
    outer loop
      vertex -2.26995 40 38.455
      vertex -60 40 47
      vertex -1.91342 40 38.6194
    endloop
  endfacet
  facet normal 0 1 -0
    outer loop
      vertex -2.61249 40 38.2632
      vertex -60 40 47
      vertex -2.26995 40 38.455
    endloop
  endfacet
  facet normal 0 1 -0
    outer loop
      vertex -2.93893 40 38.0451
      vertex -60 40 47
      vertex -2.61249 40 38.2632
    endloop
  endfacet
  facet normal 0 1 -0
    outer loop
      vertex -3.24724 40 37.802
      vertex -60 40 47
      vertex -2.93893 40 38.0451
    endloop
  endfacet
  facet normal 0 1 -0
    outer loop
      vertex -3.53553 40 37.5355
      vertex -60 40 47
      vertex -3.24724 40 37.802
    endloop
  endfacet
  facet normal 0 1 -0
    outer loop
      vertex -3.80203 40 37.2472
      vertex -60 40 47
      vertex -3.53553 40 37.5355
    endloop
  endfacet
  facet normal 0 1 -0
    outer loop
      vertex -4.04508 40 36.9389
      vertex -60 40 47
      vertex -3.80203 40 37.2472
    endloop
  endfacet
  facet normal 0 1 -0
    outer loop
      vertex -4.2632 40 36.6125
      vertex -60 40 47
      vertex -4.04508 40 36.9389
    endloop
  endfacet
  facet normal 0 1 -0
    outer loop
      vertex -4.45503 40 36.27
      vertex -60 40 47
      vertex -4.2632 40 36.6125
    endloop
  endfacet
  facet normal 0 1 -0
    outer loop
      vertex -4.6194 40 35.9134
      vertex -60 40 47
      vertex -4.45503 40 36.27
    endloop
  endfacet
  facet normal 0 1 -0
    outer loop
      vertex -4.75528 40 35.5451
      vertex -60 40 47
      vertex -4.6194 40 35.9134
    endloop
  endfacet
  facet normal 0 1 0
    outer loop
      vertex -34 40 17
      vertex -4.75528 40 35.5451
      vertex -4.86185 40 35.1672
    endloop
  endfacet
  facet normal 0 1 0
    outer loop
      vertex -34 40 17
      vertex -4.86185 40 35.1672
      vertex -4.93844 40 34.7822
    endloop
  endfacet
  facet normal 0 1 0
    outer loop
      vertex -34 40 17
      vertex -4.93844 40 34.7822
      vertex -4.98459 40 34.3923
    endloop
  endfacet
  facet normal 0 1 0
    outer loop
      vertex -34 40 17
      vertex -4.98459 40 34.3923
      vertex -5 40 34
    endloop
  endfacet
  facet normal 0 1 0
    outer loop
      vertex -16 40 17
      vertex -5 40 34
      vertex -4.98459 40 33.6077
    endloop
  endfacet
  facet normal 0 1 0
    outer loop
      vertex -16 40 17
      vertex -4.98459 40 33.6077
      vertex -4.93844 40 33.2178
    endloop
  endfacet
  facet normal 0 1 0
    outer loop
      vertex -16 40 17
      vertex -4.93844 40 33.2178
      vertex -4.86185 40 32.8328
    endloop
  endfacet
  facet normal 0 1 0
    outer loop
      vertex -16 40 17
      vertex -4.86185 40 32.8328
      vertex -4.75528 40 32.4549
    endloop
  endfacet
  facet normal 0 1 0
    outer loop
      vertex -16 40 17
      vertex -4.75528 40 32.4549
      vertex -4.6194 40 32.0866
    endloop
  endfacet
  facet normal 0 1 0
    outer loop
      vertex -16 40 17
      vertex -4.6194 40 32.0866
      vertex -4.45503 40 31.73
    endloop
  endfacet
  facet normal 0 1 0
    outer loop
      vertex -16 40 17
      vertex -4.45503 40 31.73
      vertex -4.2632 40 31.3875
    endloop
  endfacet
  facet normal 0 1 0
    outer loop
      vertex -16 40 17
      vertex -4.2632 40 31.3875
      vertex -4.04508 40 31.0611
    endloop
  endfacet
  facet normal 0 1 0
    outer loop
      vertex -16 40 17
      vertex -4.04508 40 31.0611
      vertex -3.80203 40 30.7528
    endloop
  endfacet
  facet normal 0 1 0
    outer loop
      vertex -16 40 17
      vertex -3.80203 40 30.7528
      vertex -3.53553 40 30.4645
    endloop
  endfacet
  facet normal 0 1 0
    outer loop
      vertex -16 40 17
      vertex -3.53553 40 30.4645
      vertex -3.24724 40 30.198
    endloop
  endfacet
  facet normal 0 1 0
    outer loop
      vertex -16 40 17
      vertex -3.24724 40 30.198
      vertex -2.93893 40 29.9549
    endloop
  endfacet
  facet normal 0 1 0
    outer loop
      vertex -16 40 17
      vertex -2.93893 40 29.9549
      vertex -2.61249 40 29.7368
    endloop
  endfacet
  facet normal 0 1 0
    outer loop
      vertex -16 40 17
      vertex -2.61249 40 29.7368
      vertex -2.26995 40 29.545
    endloop
  endfacet
  facet normal 0 1 0
    outer loop
      vertex -16 40 17
      vertex -2.26995 40 29.545
      vertex -1.91342 40 29.3806
    endloop
  endfacet
  facet normal 0 1 0
    outer loop
      vertex -16 40 17
      vertex -1.91342 40 29.3806
      vertex -1.54508 40 29.2447
    endloop
  endfacet
  facet normal 0 1 0
    outer loop
      vertex 9 40 24
      vertex -0.392295 40 29.0154
      vertex 0 40 29
    endloop
  endfacet
  facet normal 0 1 0
    outer loop
      vertex -16 40 17
      vertex -0.392295 40 29.0154
      vertex 9 40 24
    endloop
  endfacet
  facet normal 0 1 0
    outer loop
      vertex -0.392295 40 29.0154
      vertex -16 40 17
      vertex -0.782172 40 29.0616
    endloop
  endfacet
  facet normal 0 1 0
    outer loop
      vertex -0.782172 40 29.0616
      vertex -16 40 17
      vertex -1.16723 40 29.1381
    endloop
  endfacet
  facet normal 0 1 0
    outer loop
      vertex -1.16723 40 29.1381
      vertex -16 40 17
      vertex -1.54508 40 29.2447
    endloop
  endfacet
  facet normal 0 1 0
    outer loop
      vertex -5 40 34
      vertex -16 40 17
      vertex -34 40 17
    endloop
  endfacet
  facet normal 0 1 0
    outer loop
      vertex -4.75528 40 35.5451
      vertex -34 40 17
      vertex -60 40 47
    endloop
  endfacet
  facet normal 0 1 0
    outer loop
      vertex -60 40 0
      vertex -34 40 17
      vertex -34 40 5
    endloop
  endfacet
  facet normal 0 1 0
    outer loop
      vertex -34 40 17
      vertex -60 40 0
      vertex -60 40 47
    endloop
  endfacet
  facet normal 0 1 0
    outer loop
      vertex -16 40 5
      vertex -60 40 0
      vertex -34 40 5
    endloop
  endfacet
  facet normal 0 1 0
    outer loop
      vertex 4.75528 40 32.4549
      vertex 9 40 32
      vertex 4.6194 40 32.0866
    endloop
  endfacet
  facet normal 0 1 0
    outer loop
      vertex 9 40 32
      vertex 4.45503 40 31.73
      vertex 4.6194 40 32.0866
    endloop
  endfacet
  facet normal 0 1 0
    outer loop
      vertex 9 40 32
      vertex 4.2632 40 31.3875
      vertex 4.45503 40 31.73
    endloop
  endfacet
  facet normal 0 1 0
    outer loop
      vertex 9 40 32
      vertex 4.04508 40 31.0611
      vertex 4.2632 40 31.3875
    endloop
  endfacet
  facet normal 0 1 0
    outer loop
      vertex 9 40 32
      vertex 3.80203 40 30.7528
      vertex 4.04508 40 31.0611
    endloop
  endfacet
  facet normal 0 1 -0
    outer loop
      vertex 9 40 24
      vertex 3.80203 40 30.7528
      vertex 9 40 32
    endloop
  endfacet
  facet normal 0 1 0
    outer loop
      vertex 3.80203 40 30.7528
      vertex 9 40 24
      vertex 3.53553 40 30.4645
    endloop
  endfacet
  facet normal 0 1 0
    outer loop
      vertex 3.53553 40 30.4645
      vertex 9 40 24
      vertex 3.24724 40 30.198
    endloop
  endfacet
  facet normal 0 1 0
    outer loop
      vertex 3.24724 40 30.198
      vertex 9 40 24
      vertex 2.93893 40 29.9549
    endloop
  endfacet
  facet normal 0 1 0
    outer loop
      vertex 2.93893 40 29.9549
      vertex 9 40 24
      vertex 2.61249 40 29.7368
    endloop
  endfacet
  facet normal 0 1 0
    outer loop
      vertex 2.61249 40 29.7368
      vertex 9 40 24
      vertex 2.26995 40 29.545
    endloop
  endfacet
  facet normal 0 1 0
    outer loop
      vertex 0.392295 40 29.0154
      vertex 9 40 24
      vertex 0 40 29
    endloop
  endfacet
  facet normal 0 1 0
    outer loop
      vertex 0.782172 40 29.0616
      vertex 9 40 24
      vertex 0.392295 40 29.0154
    endloop
  endfacet
  facet normal 0 1 0
    outer loop
      vertex 1.16723 40 29.1381
      vertex 9 40 24
      vertex 0.782172 40 29.0616
    endloop
  endfacet
  facet normal 0 1 0
    outer loop
      vertex 1.54508 40 29.2447
      vertex 9 40 24
      vertex 1.16723 40 29.1381
    endloop
  endfacet
  facet normal 0 1 0
    outer loop
      vertex 1.91342 40 29.3806
      vertex 9 40 24
      vertex 1.54508 40 29.2447
    endloop
  endfacet
  facet normal 0 1 0
    outer loop
      vertex 2.26995 40 29.545
      vertex 9 40 24
      vertex 1.91342 40 29.3806
    endloop
  endfacet
  facet normal 0 -1 0
    outer loop
      vertex -60 -40 0
      vertex 60 -40 2
      vertex -60 -40 2
    endloop
  endfacet
  facet normal 0 -1 -0
    outer loop
      vertex 60 -40 2
      vertex -60 -40 0
      vertex 60 -40 0
    endloop
  endfacet
  facet normal -0 0 1
    outer loop
      vertex -60 40 47
      vertex 60 35 47
      vertex 60 40 47
    endloop
  endfacet
  facet normal 0 0 1
    outer loop
      vertex 60 35 47
      vertex -60 40 47
      vertex -60 35 47
    endloop
  endfacet
  facet normal 0 -1 0
    outer loop
      vertex 4.45503 35 31.73
      vertex 9 35 32
      vertex 4.6194 35 32.0866
    endloop
  endfacet
  facet normal 0 -1 0
    outer loop
      vertex 4.2632 35 31.3875
      vertex 9 35 32
      vertex 4.45503 35 31.73
    endloop
  endfacet
  facet normal 0 -1 0
    outer loop
      vertex 4.04508 35 31.0611
      vertex 9 35 32
      vertex 4.2632 35 31.3875
    endloop
  endfacet
  facet normal 0 -1 0
    outer loop
      vertex 3.80203 35 30.7528
      vertex 9 35 32
      vertex 4.04508 35 31.0611
    endloop
  endfacet
  facet normal 0 -1 0
    outer loop
      vertex 9 35 24
      vertex 3.80203 35 30.7528
      vertex 3.53553 35 30.4645
    endloop
  endfacet
  facet normal 0 -1 0
    outer loop
      vertex 9 35 24
      vertex 3.53553 35 30.4645
      vertex 3.24724 35 30.198
    endloop
  endfacet
  facet normal 0 -1 0
    outer loop
      vertex 9 35 24
      vertex 3.24724 35 30.198
      vertex 2.93893 35 29.9549
    endloop
  endfacet
  facet normal 0 -1 0
    outer loop
      vertex 9 35 24
      vertex 2.93893 35 29.9549
      vertex 2.61249 35 29.7368
    endloop
  endfacet
  facet normal 0 -1 0
    outer loop
      vertex 9 35 24
      vertex 2.61249 35 29.7368
      vertex 2.26995 35 29.545
    endloop
  endfacet
  facet normal 0 -1 0
    outer loop
      vertex 9 35 24
      vertex 2.26995 35 29.545
      vertex 1.91342 35 29.3806
    endloop
  endfacet
  facet normal 0 -1 0
    outer loop
      vertex 3.80203 35 30.7528
      vertex 9 35 24
      vertex 9 35 32
    endloop
  endfacet
  facet normal 0 -1 0
    outer loop
      vertex 1.54508 35 29.2447
      vertex 9 35 24
      vertex 1.91342 35 29.3806
    endloop
  endfacet
  facet normal 0 -1 0
    outer loop
      vertex 1.16723 35 29.1381
      vertex 9 35 24
      vertex 1.54508 35 29.2447
    endloop
  endfacet
  facet normal 0 -1 0
    outer loop
      vertex 0.782172 35 29.0616
      vertex 9 35 24
      vertex 1.16723 35 29.1381
    endloop
  endfacet
  facet normal 0 -1 0
    outer loop
      vertex 0.392295 35 29.0154
      vertex 9 35 24
      vertex 0.782172 35 29.0616
    endloop
  endfacet
  facet normal 0 -1 0
    outer loop
      vertex 9 35 24
      vertex 0.392295 35 29.0154
      vertex 0 35 29
    endloop
  endfacet
  facet normal 0 -1 0
    outer loop
      vertex -60 35 47
      vertex 0 35 39
      vertex 60 35 47
    endloop
  endfacet
  facet normal 0 -1 0
    outer loop
      vertex -60 35 47
      vertex -0.392295 35 38.9846
      vertex 0 35 39
    endloop
  endfacet
  facet normal 0 -1 0
    outer loop
      vertex -60 35 47
      vertex -0.782172 35 38.9384
      vertex -0.392295 35 38.9846
    endloop
  endfacet
  facet normal 0 -1 0
    outer loop
      vertex -60 35 47
      vertex -1.16723 35 38.8618
      vertex -0.782172 35 38.9384
    endloop
  endfacet
  facet normal 0 -1 0
    outer loop
      vertex -60 35 47
      vertex -1.54508 35 38.7553
      vertex -1.16723 35 38.8618
    endloop
  endfacet
  facet normal 0 -1 0
    outer loop
      vertex -60 35 47
      vertex -1.91342 35 38.6194
      vertex -1.54508 35 38.7553
    endloop
  endfacet
  facet normal 0 -1 0
    outer loop
      vertex -60 35 47
      vertex -2.26995 35 38.455
      vertex -1.91342 35 38.6194
    endloop
  endfacet
  facet normal 0 -1 0
    outer loop
      vertex -60 35 47
      vertex -2.61249 35 38.2632
      vertex -2.26995 35 38.455
    endloop
  endfacet
  facet normal 0 -1 0
    outer loop
      vertex -60 35 47
      vertex -2.93893 35 38.0451
      vertex -2.61249 35 38.2632
    endloop
  endfacet
  facet normal 0 -1 0
    outer loop
      vertex -60 35 47
      vertex -3.24724 35 37.802
      vertex -2.93893 35 38.0451
    endloop
  endfacet
  facet normal 0 -1 0
    outer loop
      vertex -60 35 47
      vertex -3.53553 35 37.5355
      vertex -3.24724 35 37.802
    endloop
  endfacet
  facet normal 0 -1 0
    outer loop
      vertex -60 35 47
      vertex -3.80203 35 37.2472
      vertex -3.53553 35 37.5355
    endloop
  endfacet
  facet normal 0 -1 0
    outer loop
      vertex -60 35 47
      vertex -4.04508 35 36.9389
      vertex -3.80203 35 37.2472
    endloop
  endfacet
  facet normal 0 -1 0
    outer loop
      vertex -60 35 47
      vertex -4.2632 35 36.6125
      vertex -4.04508 35 36.9389
    endloop
  endfacet
  facet normal 0 -1 0
    outer loop
      vertex -60 35 47
      vertex -4.45503 35 36.27
      vertex -4.2632 35 36.6125
    endloop
  endfacet
  facet normal 0 -1 0
    outer loop
      vertex -60 35 47
      vertex -4.6194 35 35.9134
      vertex -4.45503 35 36.27
    endloop
  endfacet
  facet normal 0 -1 0
    outer loop
      vertex -60 35 47
      vertex -4.75528 35 35.5451
      vertex -4.6194 35 35.9134
    endloop
  endfacet
  facet normal 0 -1 0
    outer loop
      vertex -34 35 17
      vertex -4.75528 35 35.5451
      vertex -60 35 47
    endloop
  endfacet
  facet normal 0 -1 0
    outer loop
      vertex -4.75528 35 35.5451
      vertex -34 35 17
      vertex -4.86185 35 35.1672
    endloop
  endfacet
  facet normal 0 -1 0
    outer loop
      vertex -4.86185 35 35.1672
      vertex -34 35 17
      vertex -4.93844 35 34.7822
    endloop
  endfacet
  facet normal 0 -1 0
    outer loop
      vertex -4.93844 35 34.7822
      vertex -34 35 17
      vertex -4.98459 35 34.3923
    endloop
  endfacet
  facet normal 0 -1 0
    outer loop
      vertex -4.98459 35 34.3923
      vertex -34 35 17
      vertex -5 35 34
    endloop
  endfacet
  facet normal 0 -1 0
    outer loop
      vertex -16 35 17
      vertex -5 35 34
      vertex -34 35 17
    endloop
  endfacet
  facet normal 0 -1 -0
    outer loop
      vertex -5 35 34
      vertex -16 35 17
      vertex -4.98459 35 33.6077
    endloop
  endfacet
  facet normal 0 -1 -0
    outer loop
      vertex -4.98459 35 33.6077
      vertex -16 35 17
      vertex -4.93844 35 33.2178
    endloop
  endfacet
  facet normal 0 -1 -0
    outer loop
      vertex -4.93844 35 33.2178
      vertex -16 35 17
      vertex -4.86185 35 32.8328
    endloop
  endfacet
  facet normal 0 -1 -0
    outer loop
      vertex -4.86185 35 32.8328
      vertex -16 35 17
      vertex -4.75528 35 32.4549
    endloop
  endfacet
  facet normal 0 -1 -0
    outer loop
      vertex -4.75528 35 32.4549
      vertex -16 35 17
      vertex -4.6194 35 32.0866
    endloop
  endfacet
  facet normal 0 -1 -0
    outer loop
      vertex -4.6194 35 32.0866
      vertex -16 35 17
      vertex -4.45503 35 31.73
    endloop
  endfacet
  facet normal 0 -1 -0
    outer loop
      vertex -4.45503 35 31.73
      vertex -16 35 17
      vertex -4.2632 35 31.3875
    endloop
  endfacet
  facet normal 0 -1 -0
    outer loop
      vertex -4.2632 35 31.3875
      vertex -16 35 17
      vertex -4.04508 35 31.0611
    endloop
  endfacet
  facet normal 0 -1 -0
    outer loop
      vertex -4.04508 35 31.0611
      vertex -16 35 17
      vertex -3.80203 35 30.7528
    endloop
  endfacet
  facet normal 0 -1 -0
    outer loop
      vertex -3.80203 35 30.7528
      vertex -16 35 17
      vertex -3.53553 35 30.4645
    endloop
  endfacet
  facet normal 0 -1 -0
    outer loop
      vertex -3.53553 35 30.4645
      vertex -16 35 17
      vertex -3.24724 35 30.198
    endloop
  endfacet
  facet normal 0 -1 -0
    outer loop
      vertex -3.24724 35 30.198
      vertex -16 35 17
      vertex -2.93893 35 29.9549
    endloop
  endfacet
  facet normal 0 -1 -0
    outer loop
      vertex -2.93893 35 29.9549
      vertex -16 35 17
      vertex -2.61249 35 29.7368
    endloop
  endfacet
  facet normal 0 -1 -0
    outer loop
      vertex -2.61249 35 29.7368
      vertex -16 35 17
      vertex -2.26995 35 29.545
    endloop
  endfacet
  facet normal 0 -1 0
    outer loop
      vertex -0.392295 35 29.0154
      vertex 9 35 24
      vertex 0 35 29
    endloop
  endfacet
  facet normal 0 -1 0
    outer loop
      vertex -16 35 17
      vertex -0.392295 35 29.0154
      vertex -0.782172 35 29.0616
    endloop
  endfacet
  facet normal 0 -1 0
    outer loop
      vertex -16 35 17
      vertex -0.782172 35 29.0616
      vertex -1.16723 35 29.1381
    endloop
  endfacet
  facet normal 0 -1 0
    outer loop
      vertex -16 35 17
      vertex -1.16723 35 29.1381
      vertex -1.54508 35 29.2447
    endloop
  endfacet
  facet normal 0 -1 -0
    outer loop
      vertex -2.26995 35 29.545
      vertex -16 35 17
      vertex -1.91342 35 29.3806
    endloop
  endfacet
  facet normal 0 -1 -0
    outer loop
      vertex -0.392295 35 29.0154
      vertex -16 35 17
      vertex 9 35 24
    endloop
  endfacet
  facet normal 0 -1 -0
    outer loop
      vertex -1.91342 35 29.3806
      vertex -16 35 17
      vertex -1.54508 35 29.2447
    endloop
  endfacet
  facet normal 0 -1 0
    outer loop
      vertex -60 35 2
      vertex -34 35 17
      vertex -60 35 47
    endloop
  endfacet
  facet normal 0 -1 -0
    outer loop
      vertex -34 35 5
      vertex -60 35 2
      vertex -16 35 5
    endloop
  endfacet
  facet normal 0 -1 -0
    outer loop
      vertex -34 35 17
      vertex -60 35 2
      vertex -34 35 5
    endloop
  endfacet
  facet normal 0 -1 0
    outer loop
      vertex 0.392295 35 38.9846
      vertex 60 35 47
      vertex 0 35 39
    endloop
  endfacet
  facet normal 0 -1 0
    outer loop
      vertex 0.782172 35 38.9384
      vertex 60 35 47
      vertex 0.392295 35 38.9846
    endloop
  endfacet
  facet normal 0 -1 0
    outer loop
      vertex 1.16723 35 38.8618
      vertex 60 35 47
      vertex 0.782172 35 38.9384
    endloop
  endfacet
  facet normal 0 -1 0
    outer loop
      vertex 1.54508 35 38.7553
      vertex 60 35 47
      vertex 1.16723 35 38.8618
    endloop
  endfacet
  facet normal 0 -1 0
    outer loop
      vertex 1.91342 35 38.6194
      vertex 60 35 47
      vertex 1.54508 35 38.7553
    endloop
  endfacet
  facet normal 0 -1 0
    outer loop
      vertex 2.26995 35 38.455
      vertex 60 35 47
      vertex 1.91342 35 38.6194
    endloop
  endfacet
  facet normal 0 -1 0
    outer loop
      vertex 2.61249 35 38.2632
      vertex 60 35 47
      vertex 2.26995 35 38.455
    endloop
  endfacet
  facet normal 0 -1 0
    outer loop
      vertex 21 35 32
      vertex 2.61249 35 38.2632
      vertex 2.93893 35 38.0451
    endloop
  endfacet
  facet normal 0 -1 0
    outer loop
      vertex 21 35 32
      vertex 2.93893 35 38.0451
      vertex 3.24724 35 37.802
    endloop
  endfacet
  facet normal 0 -1 0
    outer loop
      vertex 21 35 32
      vertex 3.24724 35 37.802
      vertex 3.53553 35 37.5355
    endloop
  endfacet
  facet normal 0 -1 0
    outer loop
      vertex 21 35 32
      vertex 3.53553 35 37.5355
      vertex 3.80203 35 37.2472
    endloop
  endfacet
  facet normal 0 -1 0
    outer loop
      vertex 21 35 32
      vertex 3.80203 35 37.2472
      vertex 4.04508 35 36.9389
    endloop
  endfacet
  facet normal 0 -1 0
    outer loop
      vertex 21 35 32
      vertex 4.04508 35 36.9389
      vertex 4.2632 35 36.6125
    endloop
  endfacet
  facet normal 0 -1 0
    outer loop
      vertex 9 35 32
      vertex 4.2632 35 36.6125
      vertex 4.45503 35 36.27
    endloop
  endfacet
  facet normal 0 -1 0
    outer loop
      vertex 9 35 32
      vertex 4.45503 35 36.27
      vertex 4.6194 35 35.9134
    endloop
  endfacet
  facet normal 0 -1 0
    outer loop
      vertex 9 35 32
      vertex 4.6194 35 35.9134
      vertex 4.75528 35 35.5451
    endloop
  endfacet
  facet normal 0 -1 0
    outer loop
      vertex 9 35 32
      vertex 4.75528 35 35.5451
      vertex 4.86185 35 35.1672
    endloop
  endfacet
  facet normal 0 -1 0
    outer loop
      vertex 9 35 32
      vertex 4.86185 35 35.1672
      vertex 4.93844 35 34.7822
    endloop
  endfacet
  facet normal 0 -1 0
    outer loop
      vertex 9 35 32
      vertex 4.93844 35 34.7822
      vertex 4.98459 35 34.3923
    endloop
  endfacet
  facet normal 0 -1 0
    outer loop
      vertex 9 35 32
      vertex 4.98459 35 34.3923
      vertex 5 35 34
    endloop
  endfacet
  facet normal 0 -1 0
    outer loop
      vertex 9 35 32
      vertex 5 35 34
      vertex 4.98459 35 33.6077
    endloop
  endfacet
  facet normal 0 -1 0
    outer loop
      vertex 9 35 32
      vertex 4.98459 35 33.6077
      vertex 4.93844 35 33.2178
    endloop
  endfacet
  facet normal 0 -1 0
    outer loop
      vertex 9 35 32
      vertex 4.93844 35 33.2178
      vertex 4.86185 35 32.8328
    endloop
  endfacet
  facet normal 0 -1 0
    outer loop
      vertex 9 35 32
      vertex 4.86185 35 32.8328
      vertex 4.75528 35 32.4549
    endloop
  endfacet
  facet normal 0 -1 0
    outer loop
      vertex 9 35 32
      vertex 4.75528 35 32.4549
      vertex 4.6194 35 32.0866
    endloop
  endfacet
  facet normal 0 -1 0
    outer loop
      vertex 4.2632 35 36.6125
      vertex 9 35 32
      vertex 21 35 32
    endloop
  endfacet
  facet normal 0 -1 0
    outer loop
      vertex 2.61249 35 38.2632
      vertex 21 35 32
      vertex 60 35 47
    endloop
  endfacet
  facet normal 0 -1 0
    outer loop
      vertex 21 35 24
      vertex 60 35 47
      vertex 21 35 32
    endloop
  endfacet
  facet normal 0 -1 0
    outer loop
      vertex -16 35 5
      vertex 9 35 24
      vertex -16 35 17
    endloop
  endfacet
  facet normal 0 -1 -0
    outer loop
      vertex 9 35 24
      vertex -16 35 5
      vertex 21 35 24
    endloop
  endfacet
  facet normal 0 -1 0
    outer loop
      vertex 21 35 24
      vertex 60 35 2
      vertex 60 35 47
    endloop
  endfacet
  facet normal 0 -1 0
    outer loop
      vertex -16 35 5
      vertex 60 35 2
      vertex 21 35 24
    endloop
  endfacet
  facet normal 0 -1 0
    outer loop
      vertex 60 35 2
      vertex -16 35 5
      vertex -60 35 2
    endloop
  endfacet
  facet normal -1 0 0
    outer loop
      vertex -7.5 -22.5 0
      vertex -7.5 12.5 2
      vertex -7.5 12.5 0
    endloop
  endfacet
  facet normal -1 -0 0
    outer loop
      vertex -7.5 12.5 2
      vertex -7.5 -22.5 0
      vertex -7.5 -22.5 2
    endloop
  endfacet
  facet normal 1 -0 0
    outer loop
      vertex -32.5 -22.5 2
      vertex -32.5 12.5 0
      vertex -32.5 12.5 2
    endloop
  endfacet
  facet normal 1 0 0
    outer loop
      vertex -32.5 12.5 0
      vertex -32.5 -22.5 2
      vertex -32.5 -22.5 0
    endloop
  endfacet
  facet normal 0 -1 0
    outer loop
      vertex -32.5 12.5 0
      vertex -7.5 12.5 2
      vertex -32.5 12.5 2
    endloop
  endfacet
  facet normal 0 -1 -0
    outer loop
      vertex -7.5 12.5 2
      vertex -32.5 12.5 0
      vertex -7.5 12.5 0
    endloop
  endfacet
  facet normal 0 1 -0
    outer loop
      vertex -7.5 -22.5 0
      vertex -32.5 -22.5 2
      vertex -7.5 -22.5 2
    endloop
  endfacet
  facet normal 0 1 0
    outer loop
      vertex -32.5 -22.5 2
      vertex -7.5 -22.5 0
      vertex -32.5 -22.5 0
    endloop
  endfacet
  facet normal -1 0 0
    outer loop
      vertex -16 35 5
      vertex -16 40 17
      vertex -16 40 5
    endloop
  endfacet
  facet normal -1 -0 0
    outer loop
      vertex -16 40 17
      vertex -16 35 5
      vertex -16 35 17
    endloop
  endfacet
  facet normal 0 0 -1
    outer loop
      vertex -34 35 17
      vertex -16 40 17
      vertex -16 35 17
    endloop
  endfacet
  facet normal -0 0 -1
    outer loop
      vertex -16 40 17
      vertex -34 35 17
      vertex -34 40 17
    endloop
  endfacet
  facet normal -0 0 1
    outer loop
      vertex -34 40 5
      vertex -16 35 5
      vertex -16 40 5
    endloop
  endfacet
  facet normal 0 0 1
    outer loop
      vertex -16 35 5
      vertex -34 40 5
      vertex -34 35 5
    endloop
  endfacet
  facet normal 1 -0 0
    outer loop
      vertex -34 35 17
      vertex -34 40 5
      vertex -34 40 17
    endloop
  endfacet
  facet normal 1 0 0
    outer loop
      vertex -34 40 5
      vertex -34 35 17
      vertex -34 35 5
    endloop
  endfacet
  facet normal -1 0 0
    outer loop
      vertex 21 35 24
      vertex 21 40 32
      vertex 21 40 24
    endloop
  endfacet
  facet normal -1 -0 0
    outer loop
      vertex 21 40 32
      vertex 21 35 24
      vertex 21 35 32
    endloop
  endfacet
  facet normal 0 0 -1
    outer loop
      vertex 9 35 32
      vertex 21 40 32
      vertex 21 35 32
    endloop
  endfacet
  facet normal -0 0 -1
    outer loop
      vertex 21 40 32
      vertex 9 35 32
      vertex 9 40 32
    endloop
  endfacet
  facet normal -0 0 1
    outer loop
      vertex 9 40 24
      vertex 21 35 24
      vertex 21 40 24
    endloop
  endfacet
  facet normal 0 0 1
    outer loop
      vertex 21 35 24
      vertex 9 40 24
      vertex 9 35 24
    endloop
  endfacet
  facet normal 1 -0 0
    outer loop
      vertex 9 35 32
      vertex 9 40 24
      vertex 9 40 32
    endloop
  endfacet
  facet normal 1 0 0
    outer loop
      vertex 9 40 24
      vertex 9 35 32
      vertex 9 35 24
    endloop
  endfacet
  facet normal -0.980781 0 -0.195112
    outer loop
      vertex 4.93844 35 34.7822
      vertex 4.86185 40 35.1672
      vertex 4.93844 40 34.7822
    endloop
  endfacet
  facet normal -0.980781 -0 -0.195112
    outer loop
      vertex 4.86185 40 35.1672
      vertex 4.93844 35 34.7822
      vertex 4.86185 35 35.1672
    endloop
  endfacet
  facet normal -0.993068 0 -0.117543
    outer loop
      vertex 4.98459 35 34.3923
      vertex 4.93844 40 34.7822
      vertex 4.98459 40 34.3923
    endloop
  endfacet
  facet normal -0.993068 -0 -0.117543
    outer loop
      vertex 4.93844 40 34.7822
      vertex 4.98459 35 34.3923
      vertex 4.93844 35 34.7822
    endloop
  endfacet
  facet normal -0.999229 0 -0.0392509
    outer loop
      vertex 5 35 34
      vertex 4.98459 40 34.3923
      vertex 5 40 34
    endloop
  endfacet
  facet normal -0.999229 -0 -0.0392509
    outer loop
      vertex 4.98459 40 34.3923
      vertex 5 35 34
      vertex 4.98459 35 34.3923
    endloop
  endfacet
  facet normal 0.48856 0 -0.87253
    outer loop
      vertex -2.61249 35 38.2632
      vertex -2.26995 40 38.455
      vertex -2.26995 35 38.455
    endloop
  endfacet
  facet normal 0.48856 0 -0.87253
    outer loop
      vertex -2.26995 40 38.455
      vertex -2.61249 35 38.2632
      vertex -2.61249 40 38.2632
    endloop
  endfacet
  facet normal 0.619169 0 -0.785257
    outer loop
      vertex -3.24724 35 37.802
      vertex -2.93893 40 38.0451
      vertex -2.93893 35 38.0451
    endloop
  endfacet
  facet normal 0.619169 0 -0.785257
    outer loop
      vertex -2.93893 40 38.0451
      vertex -3.24724 35 37.802
      vertex -3.24724 40 37.802
    endloop
  endfacet
  facet normal -0.78531 0 -0.619103
    outer loop
      vertex 4.04508 35 36.9389
      vertex 3.80203 40 37.2472
      vertex 4.04508 40 36.9389
    endloop
  endfacet
  facet normal -0.78531 -0 -0.619103
    outer loop
      vertex 3.80203 40 37.2472
      vertex 4.04508 35 36.9389
      vertex 3.80203 35 37.2472
    endloop
  endfacet
  facet normal -0.48856 0 0.87253
    outer loop
      vertex 2.26995 40 29.545
      vertex 2.61249 35 29.7368
      vertex 2.61249 40 29.7368
    endloop
  endfacet
  facet normal -0.48856 0 0.87253
    outer loop
      vertex 2.61249 35 29.7368
      vertex 2.26995 40 29.545
      vertex 2.26995 35 29.545
    endloop
  endfacet
  facet normal 0.962461 0 -0.27142
    outer loop
      vertex -4.75528 35 35.5451
      vertex -4.86185 40 35.1672
      vertex -4.75528 40 35.5451
    endloop
  endfacet
  facet normal 0.962461 0 -0.27142
    outer loop
      vertex -4.86185 40 35.1672
      vertex -4.75528 35 35.5451
      vertex -4.86185 35 35.1672
    endloop
  endfacet
  facet normal 0.831438 0 -0.555617
    outer loop
      vertex -4.04508 35 36.9389
      vertex -4.2632 40 36.6125
      vertex -4.04508 40 36.9389
    endloop
  endfacet
  facet normal 0.831438 0 -0.555617
    outer loop
      vertex -4.2632 40 36.6125
      vertex -4.04508 35 36.9389
      vertex -4.2632 35 36.6125
    endloop
  endfacet
  facet normal -0.734325 0 0.678798
    outer loop
      vertex 3.53553 35 30.4645
      vertex 3.80203 40 30.7528
      vertex 3.53553 40 30.4645
    endloop
  endfacet
  facet normal -0.734325 0 0.678798
    outer loop
      vertex 3.80203 40 30.7528
      vertex 3.53553 35 30.4645
      vertex 3.80203 35 30.7528
    endloop
  endfacet
  facet normal 0.993068 0 -0.117543
    outer loop
      vertex -4.93844 35 34.7822
      vertex -4.98459 40 34.3923
      vertex -4.93844 40 34.7822
    endloop
  endfacet
  facet normal 0.993068 0 -0.117543
    outer loop
      vertex -4.98459 40 34.3923
      vertex -4.93844 35 34.7822
      vertex -4.98459 35 34.3923
    endloop
  endfacet
  facet normal -0.993068 0 0.117543
    outer loop
      vertex 4.93844 35 33.2178
      vertex 4.98459 40 33.6077
      vertex 4.93844 40 33.2178
    endloop
  endfacet
  facet normal -0.993068 0 0.117543
    outer loop
      vertex 4.98459 40 33.6077
      vertex 4.93844 35 33.2178
      vertex 4.98459 35 33.6077
    endloop
  endfacet
  facet normal -0.962461 0 -0.27142
    outer loop
      vertex 4.86185 35 35.1672
      vertex 4.75528 40 35.5451
      vertex 4.86185 40 35.1672
    endloop
  endfacet
  facet normal -0.962461 -0 -0.27142
    outer loop
      vertex 4.75528 40 35.5451
      vertex 4.86185 35 35.1672
      vertex 4.75528 35 35.5451
    endloop
  endfacet
  facet normal 0.678811 0 -0.734313
    outer loop
      vertex -3.53553 35 37.5355
      vertex -3.24724 40 37.802
      vertex -3.24724 35 37.802
    endloop
  endfacet
  facet normal 0.678811 0 -0.734313
    outer loop
      vertex -3.24724 40 37.802
      vertex -3.53553 35 37.5355
      vertex -3.53553 40 37.5355
    endloop
  endfacet
  facet normal 0.908167 -0 0.418608
    outer loop
      vertex -4.6194 35 32.0866
      vertex -4.45503 40 31.73
      vertex -4.6194 40 32.0866
    endloop
  endfacet
  facet normal 0.908167 0 0.418608
    outer loop
      vertex -4.45503 40 31.73
      vertex -4.6194 35 32.0866
      vertex -4.45503 35 31.73
    endloop
  endfacet
  facet normal -0.78531 0 0.619103
    outer loop
      vertex 3.80203 35 30.7528
      vertex 4.04508 40 31.0611
      vertex 3.80203 40 30.7528
    endloop
  endfacet
  facet normal -0.78531 0 0.619103
    outer loop
      vertex 4.04508 40 31.0611
      vertex 3.80203 35 30.7528
      vertex 4.04508 35 31.0611
    endloop
  endfacet
  facet normal -0.831438 0 -0.555617
    outer loop
      vertex 4.2632 35 36.6125
      vertex 4.04508 40 36.9389
      vertex 4.2632 40 36.6125
    endloop
  endfacet
  facet normal -0.831438 -0 -0.555617
    outer loop
      vertex 4.04508 40 36.9389
      vertex 4.2632 35 36.6125
      vertex 4.04508 35 36.9389
    endloop
  endfacet
  facet normal 0.980781 -0 0.195112
    outer loop
      vertex -4.93844 35 33.2178
      vertex -4.86185 40 32.8328
      vertex -4.93844 40 33.2178
    endloop
  endfacet
  facet normal 0.980781 0 0.195112
    outer loop
      vertex -4.86185 40 32.8328
      vertex -4.93844 35 33.2178
      vertex -4.86185 35 32.8328
    endloop
  endfacet
  facet normal -0.872473 0 -0.488662
    outer loop
      vertex 4.45503 35 36.27
      vertex 4.2632 40 36.6125
      vertex 4.45503 40 36.27
    endloop
  endfacet
  facet normal -0.872473 -0 -0.488662
    outer loop
      vertex 4.2632 40 36.6125
      vertex 4.45503 35 36.27
      vertex 4.2632 35 36.6125
    endloop
  endfacet
  facet normal 0.346144 0 0.938181
    outer loop
      vertex -1.91342 40 29.3806
      vertex -1.54508 35 29.2447
      vertex -1.54508 40 29.2447
    endloop
  endfacet
  facet normal 0.346144 0 0.938181
    outer loop
      vertex -1.54508 35 29.2447
      vertex -1.91342 40 29.3806
      vertex -1.91342 35 29.3806
    endloop
  endfacet
  facet normal 0.999229 0 -0.0392509
    outer loop
      vertex -4.98459 35 34.3923
      vertex -5 40 34
      vertex -4.98459 40 34.3923
    endloop
  endfacet
  facet normal 0.999229 0 -0.0392509
    outer loop
      vertex -5 40 34
      vertex -4.98459 35 34.3923
      vertex -5 35 34
    endloop
  endfacet
  facet normal -0.980781 0 0.195112
    outer loop
      vertex 4.86185 35 32.8328
      vertex 4.93844 40 33.2178
      vertex 4.86185 40 32.8328
    endloop
  endfacet
  facet normal -0.980781 0 0.195112
    outer loop
      vertex 4.93844 40 33.2178
      vertex 4.86185 35 32.8328
      vertex 4.93844 35 33.2178
    endloop
  endfacet
  facet normal -0.831438 0 0.555617
    outer loop
      vertex 4.04508 35 31.0611
      vertex 4.2632 40 31.3875
      vertex 4.04508 40 31.0611
    endloop
  endfacet
  facet normal -0.831438 0 0.555617
    outer loop
      vertex 4.2632 40 31.3875
      vertex 4.04508 35 31.0611
      vertex 4.2632 35 31.3875
    endloop
  endfacet
  facet normal -0.938186 0 -0.346133
    outer loop
      vertex 4.75528 35 35.5451
      vertex 4.6194 40 35.9134
      vertex 4.75528 40 35.5451
    endloop
  endfacet
  facet normal -0.938186 -0 -0.346133
    outer loop
      vertex 4.6194 40 35.9134
      vertex 4.75528 35 35.5451
      vertex 4.6194 35 35.9134
    endloop
  endfacet
  facet normal 0.872473 -0 0.488662
    outer loop
      vertex -4.45503 35 31.73
      vertex -4.2632 40 31.3875
      vertex -4.45503 40 31.73
    endloop
  endfacet
  facet normal 0.872473 0 0.488662
    outer loop
      vertex -4.2632 40 31.3875
      vertex -4.45503 35 31.73
      vertex -4.2632 35 31.3875
    endloop
  endfacet
  facet normal -0.555535 0 -0.831493
    outer loop
      vertex 2.61249 35 38.2632
      vertex 2.93893 40 38.0451
      vertex 2.93893 35 38.0451
    endloop
  endfacet
  facet normal -0.555535 0 -0.831493
    outer loop
      vertex 2.93893 40 38.0451
      vertex 2.61249 35 38.2632
      vertex 2.61249 40 38.2632
    endloop
  endfacet
  facet normal 0.938186 -0 0.346133
    outer loop
      vertex -4.75528 35 32.4549
      vertex -4.6194 40 32.0866
      vertex -4.75528 40 32.4549
    endloop
  endfacet
  facet normal 0.938186 0 0.346133
    outer loop
      vertex -4.6194 40 32.0866
      vertex -4.75528 35 32.4549
      vertex -4.6194 35 32.0866
    endloop
  endfacet
  facet normal -0.962461 0 0.27142
    outer loop
      vertex 4.75528 35 32.4549
      vertex 4.86185 40 32.8328
      vertex 4.75528 40 32.4549
    endloop
  endfacet
  facet normal -0.962461 0 0.27142
    outer loop
      vertex 4.86185 40 32.8328
      vertex 4.75528 35 32.4549
      vertex 4.86185 35 32.8328
    endloop
  endfacet
  facet normal -0.346144 0 -0.938181
    outer loop
      vertex 1.54508 35 38.7553
      vertex 1.91342 40 38.6194
      vertex 1.91342 35 38.6194
    endloop
  endfacet
  facet normal -0.346144 0 -0.938181
    outer loop
      vertex 1.91342 40 38.6194
      vertex 1.54508 35 38.7553
      vertex 1.54508 40 38.7553
    endloop
  endfacet
  facet normal -0.48856 0 -0.87253
    outer loop
      vertex 2.26995 35 38.455
      vertex 2.61249 40 38.2632
      vertex 2.61249 35 38.2632
    endloop
  endfacet
  facet normal -0.48856 0 -0.87253
    outer loop
      vertex 2.61249 40 38.2632
      vertex 2.26995 35 38.455
      vertex 2.26995 40 38.455
    endloop
  endfacet
  facet normal 0.78531 -0 0.619103
    outer loop
      vertex -4.04508 35 31.0611
      vertex -3.80203 40 30.7528
      vertex -4.04508 40 31.0611
    endloop
  endfacet
  facet normal 0.78531 0 0.619103
    outer loop
      vertex -3.80203 40 30.7528
      vertex -4.04508 35 31.0611
      vertex -3.80203 35 30.7528
    endloop
  endfacet
  facet normal 0.993068 -0 0.117543
    outer loop
      vertex -4.98459 35 33.6077
      vertex -4.93844 40 33.2178
      vertex -4.98459 40 33.6077
    endloop
  endfacet
  facet normal 0.993068 0 0.117543
    outer loop
      vertex -4.93844 40 33.2178
      vertex -4.98459 35 33.6077
      vertex -4.93844 35 33.2178
    endloop
  endfacet
  facet normal -0.619169 0 0.785257
    outer loop
      vertex 2.93893 40 29.9549
      vertex 3.24724 35 30.198
      vertex 3.24724 40 30.198
    endloop
  endfacet
  facet normal -0.619169 0 0.785257
    outer loop
      vertex 3.24724 35 30.198
      vertex 2.93893 40 29.9549
      vertex 2.93893 35 29.9549
    endloop
  endfacet
  facet normal 0.980781 0 -0.195112
    outer loop
      vertex -4.86185 35 35.1672
      vertex -4.93844 40 34.7822
      vertex -4.86185 40 35.1672
    endloop
  endfacet
  facet normal 0.980781 0 -0.195112
    outer loop
      vertex -4.93844 40 34.7822
      vertex -4.86185 35 35.1672
      vertex -4.93844 35 34.7822
    endloop
  endfacet
  facet normal 0.271524 0 0.962432
    outer loop
      vertex -1.54508 40 29.2447
      vertex -1.16723 35 29.1381
      vertex -1.16723 40 29.1381
    endloop
  endfacet
  facet normal 0.271524 0 0.962432
    outer loop
      vertex -1.16723 35 29.1381
      vertex -1.54508 40 29.2447
      vertex -1.54508 35 29.2447
    endloop
  endfacet
  facet normal -0.555535 0 0.831493
    outer loop
      vertex 2.61249 40 29.7368
      vertex 2.93893 35 29.9549
      vertex 2.93893 40 29.9549
    endloop
  endfacet
  facet normal -0.555535 0 0.831493
    outer loop
      vertex 2.93893 35 29.9549
      vertex 2.61249 40 29.7368
      vertex 2.61249 35 29.7368
    endloop
  endfacet
  facet normal 0.962461 -0 0.27142
    outer loop
      vertex -4.86185 35 32.8328
      vertex -4.75528 40 32.4549
      vertex -4.86185 40 32.8328
    endloop
  endfacet
  facet normal 0.962461 0 0.27142
    outer loop
      vertex -4.75528 40 32.4549
      vertex -4.86185 35 32.8328
      vertex -4.75528 35 32.4549
    endloop
  endfacet
  facet normal 0.346144 0 -0.938181
    outer loop
      vertex -1.91342 35 38.6194
      vertex -1.54508 40 38.7553
      vertex -1.54508 35 38.7553
    endloop
  endfacet
  facet normal 0.346144 0 -0.938181
    outer loop
      vertex -1.54508 40 38.7553
      vertex -1.91342 35 38.6194
      vertex -1.91342 40 38.6194
    endloop
  endfacet
  facet normal 0.195108 0 -0.980782
    outer loop
      vertex -1.16723 35 38.8618
      vertex -0.782172 40 38.9384
      vertex -0.782172 35 38.9384
    endloop
  endfacet
  facet normal 0.195108 0 -0.980782
    outer loop
      vertex -0.782172 40 38.9384
      vertex -1.16723 35 38.8618
      vertex -1.16723 40 38.8618
    endloop
  endfacet
  facet normal -0.195108 0 -0.980782
    outer loop
      vertex 0.782172 35 38.9384
      vertex 1.16723 40 38.8618
      vertex 1.16723 35 38.8618
    endloop
  endfacet
  facet normal -0.195108 0 -0.980782
    outer loop
      vertex 1.16723 40 38.8618
      vertex 0.782172 35 38.9384
      vertex 0.782172 40 38.9384
    endloop
  endfacet
  facet normal -0.619169 0 -0.785257
    outer loop
      vertex 2.93893 35 38.0451
      vertex 3.24724 40 37.802
      vertex 3.24724 35 37.802
    endloop
  endfacet
  facet normal -0.619169 0 -0.785257
    outer loop
      vertex 3.24724 40 37.802
      vertex 2.93893 35 38.0451
      vertex 2.93893 40 38.0451
    endloop
  endfacet
  facet normal -0.117676 0 0.993052
    outer loop
      vertex 0.392295 40 29.0154
      vertex 0.782172 35 29.0616
      vertex 0.782172 40 29.0616
    endloop
  endfacet
  facet normal -0.117676 0 0.993052
    outer loop
      vertex 0.782172 35 29.0616
      vertex 0.392295 40 29.0154
      vertex 0.392295 35 29.0154
    endloop
  endfacet
  facet normal 0.555535 0 0.831493
    outer loop
      vertex -2.93893 40 29.9549
      vertex -2.61249 35 29.7368
      vertex -2.61249 40 29.7368
    endloop
  endfacet
  facet normal 0.555535 0 0.831493
    outer loop
      vertex -2.61249 35 29.7368
      vertex -2.93893 40 29.9549
      vertex -2.93893 35 29.9549
    endloop
  endfacet
  facet normal 0.872473 0 -0.488662
    outer loop
      vertex -4.2632 35 36.6125
      vertex -4.45503 40 36.27
      vertex -4.2632 40 36.6125
    endloop
  endfacet
  facet normal 0.872473 0 -0.488662
    outer loop
      vertex -4.45503 40 36.27
      vertex -4.2632 35 36.6125
      vertex -4.45503 35 36.27
    endloop
  endfacet
  facet normal -0.872473 0 0.488662
    outer loop
      vertex 4.2632 35 31.3875
      vertex 4.45503 40 31.73
      vertex 4.2632 40 31.3875
    endloop
  endfacet
  facet normal -0.872473 0 0.488662
    outer loop
      vertex 4.45503 40 31.73
      vertex 4.2632 35 31.3875
      vertex 4.45503 35 31.73
    endloop
  endfacet
  facet normal 0.555535 0 -0.831493
    outer loop
      vertex -2.93893 35 38.0451
      vertex -2.61249 40 38.2632
      vertex -2.61249 35 38.2632
    endloop
  endfacet
  facet normal 0.555535 0 -0.831493
    outer loop
      vertex -2.61249 40 38.2632
      vertex -2.93893 35 38.0451
      vertex -2.93893 40 38.0451
    endloop
  endfacet
  facet normal -0.908167 0 -0.418608
    outer loop
      vertex 4.6194 35 35.9134
      vertex 4.45503 40 36.27
      vertex 4.6194 40 35.9134
    endloop
  endfacet
  facet normal -0.908167 -0 -0.418608
    outer loop
      vertex 4.45503 40 36.27
      vertex 4.6194 35 35.9134
      vertex 4.45503 35 36.27
    endloop
  endfacet
  facet normal -0.117676 0 -0.993052
    outer loop
      vertex 0.392295 35 38.9846
      vertex 0.782172 40 38.9384
      vertex 0.782172 35 38.9384
    endloop
  endfacet
  facet normal -0.117676 0 -0.993052
    outer loop
      vertex 0.782172 40 38.9384
      vertex 0.392295 35 38.9846
      vertex 0.392295 40 38.9846
    endloop
  endfacet
  facet normal -0.678811 0 -0.734313
    outer loop
      vertex 3.24724 35 37.802
      vertex 3.53553 40 37.5355
      vertex 3.53553 35 37.5355
    endloop
  endfacet
  facet normal -0.678811 0 -0.734313
    outer loop
      vertex 3.53553 40 37.5355
      vertex 3.24724 35 37.802
      vertex 3.24724 40 37.802
    endloop
  endfacet
  facet normal 0.999229 -0 0.0392509
    outer loop
      vertex -5 35 34
      vertex -4.98459 40 33.6077
      vertex -5 40 34
    endloop
  endfacet
  facet normal 0.999229 0 0.0392509
    outer loop
      vertex -4.98459 40 33.6077
      vertex -5 35 34
      vertex -4.98459 35 33.6077
    endloop
  endfacet
  facet normal 0.039226 0 0.99923
    outer loop
      vertex -0.392295 40 29.0154
      vertex 0 35 29
      vertex 0 40 29
    endloop
  endfacet
  facet normal 0.039226 0 0.99923
    outer loop
      vertex 0 35 29
      vertex -0.392295 40 29.0154
      vertex -0.392295 35 29.0154
    endloop
  endfacet
  facet normal 0.734325 0 -0.678798
    outer loop
      vertex -3.53553 35 37.5355
      vertex -3.80203 40 37.2472
      vertex -3.53553 40 37.5355
    endloop
  endfacet
  facet normal 0.734325 0 -0.678798
    outer loop
      vertex -3.80203 40 37.2472
      vertex -3.53553 35 37.5355
      vertex -3.80203 35 37.2472
    endloop
  endfacet
  facet normal -0.346144 0 0.938181
    outer loop
      vertex 1.54508 40 29.2447
      vertex 1.91342 35 29.3806
      vertex 1.91342 40 29.3806
    endloop
  endfacet
  facet normal -0.346144 0 0.938181
    outer loop
      vertex 1.91342 35 29.3806
      vertex 1.54508 40 29.2447
      vertex 1.54508 35 29.2447
    endloop
  endfacet
  facet normal 0.48856 0 0.87253
    outer loop
      vertex -2.61249 40 29.7368
      vertex -2.26995 35 29.545
      vertex -2.26995 40 29.545
    endloop
  endfacet
  facet normal 0.48856 0 0.87253
    outer loop
      vertex -2.26995 35 29.545
      vertex -2.61249 40 29.7368
      vertex -2.61249 35 29.7368
    endloop
  endfacet
  facet normal 0.039226 0 -0.99923
    outer loop
      vertex -0.392295 35 38.9846
      vertex 0 40 39
      vertex 0 35 39
    endloop
  endfacet
  facet normal 0.039226 0 -0.99923
    outer loop
      vertex 0 40 39
      vertex -0.392295 35 38.9846
      vertex -0.392295 40 38.9846
    endloop
  endfacet
  facet normal -0.039226 0 0.99923
    outer loop
      vertex 0 40 29
      vertex 0.392295 35 29.0154
      vertex 0.392295 40 29.0154
    endloop
  endfacet
  facet normal -0.039226 0 0.99923
    outer loop
      vertex 0.392295 35 29.0154
      vertex 0 40 29
      vertex 0 35 29
    endloop
  endfacet
  facet normal 0.418738 0 -0.908107
    outer loop
      vertex -2.26995 35 38.455
      vertex -1.91342 40 38.6194
      vertex -1.91342 35 38.6194
    endloop
  endfacet
  facet normal 0.418738 0 -0.908107
    outer loop
      vertex -1.91342 40 38.6194
      vertex -2.26995 35 38.455
      vertex -2.26995 40 38.455
    endloop
  endfacet
  facet normal 0.117676 0 -0.993052
    outer loop
      vertex -0.782172 35 38.9384
      vertex -0.392295 40 38.9846
      vertex -0.392295 35 38.9846
    endloop
  endfacet
  facet normal 0.117676 0 -0.993052
    outer loop
      vertex -0.392295 40 38.9846
      vertex -0.782172 35 38.9384
      vertex -0.782172 40 38.9384
    endloop
  endfacet
  facet normal 0.619169 0 0.785257
    outer loop
      vertex -3.24724 40 30.198
      vertex -2.93893 35 29.9549
      vertex -2.93893 40 29.9549
    endloop
  endfacet
  facet normal 0.619169 0 0.785257
    outer loop
      vertex -2.93893 35 29.9549
      vertex -3.24724 40 30.198
      vertex -3.24724 35 30.198
    endloop
  endfacet
  facet normal -0.418738 0 0.908107
    outer loop
      vertex 1.91342 40 29.3806
      vertex 2.26995 35 29.545
      vertex 2.26995 40 29.545
    endloop
  endfacet
  facet normal -0.418738 0 0.908107
    outer loop
      vertex 2.26995 35 29.545
      vertex 1.91342 40 29.3806
      vertex 1.91342 35 29.3806
    endloop
  endfacet
  facet normal 0.831438 -0 0.555617
    outer loop
      vertex -4.2632 35 31.3875
      vertex -4.04508 40 31.0611
      vertex -4.2632 40 31.3875
    endloop
  endfacet
  facet normal 0.831438 0 0.555617
    outer loop
      vertex -4.04508 40 31.0611
      vertex -4.2632 35 31.3875
      vertex -4.04508 35 31.0611
    endloop
  endfacet
  facet normal -0.418738 0 -0.908107
    outer loop
      vertex 1.91342 35 38.6194
      vertex 2.26995 40 38.455
      vertex 2.26995 35 38.455
    endloop
  endfacet
  facet normal -0.418738 0 -0.908107
    outer loop
      vertex 2.26995 40 38.455
      vertex 1.91342 35 38.6194
      vertex 1.91342 40 38.6194
    endloop
  endfacet
  facet normal 0.678811 0 0.734313
    outer loop
      vertex -3.53553 40 30.4645
      vertex -3.24724 35 30.198
      vertex -3.24724 40 30.198
    endloop
  endfacet
  facet normal 0.678811 0 0.734313
    outer loop
      vertex -3.24724 35 30.198
      vertex -3.53553 40 30.4645
      vertex -3.53553 35 30.4645
    endloop
  endfacet
  facet normal -0.678811 0 0.734313
    outer loop
      vertex 3.24724 40 30.198
      vertex 3.53553 35 30.4645
      vertex 3.53553 40 30.4645
    endloop
  endfacet
  facet normal -0.678811 0 0.734313
    outer loop
      vertex 3.53553 35 30.4645
      vertex 3.24724 40 30.198
      vertex 3.24724 35 30.198
    endloop
  endfacet
  facet normal 0.78531 0 -0.619103
    outer loop
      vertex -3.80203 35 37.2472
      vertex -4.04508 40 36.9389
      vertex -3.80203 40 37.2472
    endloop
  endfacet
  facet normal 0.78531 0 -0.619103
    outer loop
      vertex -4.04508 40 36.9389
      vertex -3.80203 35 37.2472
      vertex -4.04508 35 36.9389
    endloop
  endfacet
  facet normal -0.271288 0 -0.962498
    outer loop
      vertex 1.16723 35 38.8618
      vertex 1.54508 40 38.7553
      vertex 1.54508 35 38.7553
    endloop
  endfacet
  facet normal -0.271288 0 -0.962498
    outer loop
      vertex 1.54508 40 38.7553
      vertex 1.16723 35 38.8618
      vertex 1.16723 40 38.8618
    endloop
  endfacet
  facet normal -0.999229 0 0.0392509
    outer loop
      vertex 4.98459 35 33.6077
      vertex 5 40 34
      vertex 4.98459 40 33.6077
    endloop
  endfacet
  facet normal -0.999229 0 0.0392509
    outer loop
      vertex 5 40 34
      vertex 4.98459 35 33.6077
      vertex 5 35 34
    endloop
  endfacet
  facet normal 0.418738 0 0.908107
    outer loop
      vertex -2.26995 40 29.545
      vertex -1.91342 35 29.3806
      vertex -1.91342 40 29.3806
    endloop
  endfacet
  facet normal 0.418738 0 0.908107
    outer loop
      vertex -1.91342 35 29.3806
      vertex -2.26995 40 29.545
      vertex -2.26995 35 29.545
    endloop
  endfacet
  facet normal -0.734325 0 -0.678798
    outer loop
      vertex 3.80203 35 37.2472
      vertex 3.53553 40 37.5355
      vertex 3.80203 40 37.2472
    endloop
  endfacet
  facet normal -0.734325 -0 -0.678798
    outer loop
      vertex 3.53553 40 37.5355
      vertex 3.80203 35 37.2472
      vertex 3.53553 35 37.5355
    endloop
  endfacet
  facet normal 0.271288 0 -0.962498
    outer loop
      vertex -1.54508 35 38.7553
      vertex -1.16723 40 38.8618
      vertex -1.16723 35 38.8618
    endloop
  endfacet
  facet normal 0.271288 0 -0.962498
    outer loop
      vertex -1.16723 40 38.8618
      vertex -1.54508 35 38.7553
      vertex -1.54508 40 38.7553
    endloop
  endfacet
  facet normal 0.194863 0 0.98083
    outer loop
      vertex -1.16723 40 29.1381
      vertex -0.782172 35 29.0616
      vertex -0.782172 40 29.0616
    endloop
  endfacet
  facet normal 0.194863 0 0.98083
    outer loop
      vertex -0.782172 35 29.0616
      vertex -1.16723 40 29.1381
      vertex -1.16723 35 29.1381
    endloop
  endfacet
  facet normal -0.908167 0 0.418608
    outer loop
      vertex 4.45503 35 31.73
      vertex 4.6194 40 32.0866
      vertex 4.45503 40 31.73
    endloop
  endfacet
  facet normal -0.908167 0 0.418608
    outer loop
      vertex 4.6194 40 32.0866
      vertex 4.45503 35 31.73
      vertex 4.6194 35 32.0866
    endloop
  endfacet
  facet normal 0.117676 0 0.993052
    outer loop
      vertex -0.782172 40 29.0616
      vertex -0.392295 35 29.0154
      vertex -0.392295 40 29.0154
    endloop
  endfacet
  facet normal 0.117676 0 0.993052
    outer loop
      vertex -0.392295 35 29.0154
      vertex -0.782172 40 29.0616
      vertex -0.782172 35 29.0616
    endloop
  endfacet
  facet normal -0.271524 0 0.962432
    outer loop
      vertex 1.16723 40 29.1381
      vertex 1.54508 35 29.2447
      vertex 1.54508 40 29.2447
    endloop
  endfacet
  facet normal -0.271524 0 0.962432
    outer loop
      vertex 1.54508 35 29.2447
      vertex 1.16723 40 29.1381
      vertex 1.16723 35 29.1381
    endloop
  endfacet
  facet normal -0.194863 0 0.98083
    outer loop
      vertex 0.782172 40 29.0616
      vertex 1.16723 35 29.1381
      vertex 1.16723 40 29.1381
    endloop
  endfacet
  facet normal -0.194863 0 0.98083
    outer loop
      vertex 1.16723 35 29.1381
      vertex 0.782172 40 29.0616
      vertex 0.782172 35 29.0616
    endloop
  endfacet
  facet normal -0.039226 0 -0.99923
    outer loop
      vertex 0 35 39
      vertex 0.392295 40 38.9846
      vertex 0.392295 35 38.9846
    endloop
  endfacet
  facet normal -0.039226 0 -0.99923
    outer loop
      vertex 0.392295 40 38.9846
      vertex 0 35 39
      vertex 0 40 39
    endloop
  endfacet
  facet normal -0.938186 0 0.346133
    outer loop
      vertex 4.6194 35 32.0866
      vertex 4.75528 40 32.4549
      vertex 4.6194 40 32.0866
    endloop
  endfacet
  facet normal -0.938186 0 0.346133
    outer loop
      vertex 4.75528 40 32.4549
      vertex 4.6194 35 32.0866
      vertex 4.75528 35 32.4549
    endloop
  endfacet
  facet normal 0.734325 -0 0.678798
    outer loop
      vertex -3.80203 35 30.7528
      vertex -3.53553 40 30.4645
      vertex -3.80203 40 30.7528
    endloop
  endfacet
  facet normal 0.734325 0 0.678798
    outer loop
      vertex -3.53553 40 30.4645
      vertex -3.80203 35 30.7528
      vertex -3.53553 35 30.4645
    endloop
  endfacet
  facet normal 0.938186 0 -0.346133
    outer loop
      vertex -4.6194 35 35.9134
      vertex -4.75528 40 35.5451
      vertex -4.6194 40 35.9134
    endloop
  endfacet
  facet normal 0.938186 0 -0.346133
    outer loop
      vertex -4.75528 40 35.5451
      vertex -4.6194 35 35.9134
      vertex -4.75528 35 35.5451
    endloop
  endfacet
  facet normal 0.908167 0 -0.418608
    outer loop
      vertex -4.45503 35 36.27
      vertex -4.6194 40 35.9134
      vertex -4.45503 40 36.27
    endloop
  endfacet
  facet normal 0.908167 0 -0.418608
    outer loop
      vertex -4.6194 40 35.9134
      vertex -4.45503 35 36.27
      vertex -4.6194 35 35.9134
    endloop
  endfacet
endsolid OpenSCAD_Model
