solid OpenSCAD_Model
  facet normal 1 -0 0
    outer loop
      vertex 8 40 8
      vertex 8 80 3
      vertex 8 80 8
    endloop
  endfacet
  facet normal 1 0 0
    outer loop
      vertex 8 80 3
      vertex 8 40 8
      vertex 8 40 3
    endloop
  endfacet
  facet normal 1 -0 0
    outer loop
      vertex 8 30 8
      vertex 8 32 3
      vertex 8 32 8
    endloop
  endfacet
  facet normal 1 0 0
    outer loop
      vertex 8 32 3
      vertex 8 30 8
      vertex 8 30 3
    endloop
  endfacet
  facet normal 1 0 0
    outer loop
      vertex 8 38.8246 8
      vertex 8 38.6458 7.58581
      vertex 8 38.7716 7.85195
    endloop
  endfacet
  facet normal 1 0 0
    outer loop
      vertex 8 38.8246 8
      vertex 8 38.4944 7.33329
      vertex 8 38.6458 7.58581
    endloop
  endfacet
  facet normal 1 0 0
    outer loop
      vertex 8 38.8246 8
      vertex 8 38.319 7.09682
      vertex 8 38.4944 7.33329
    endloop
  endfacet
  facet normal 1 0 0
    outer loop
      vertex 8 38.8246 8
      vertex 8 38.1213 6.87868
      vertex 8 38.319 7.09682
    endloop
  endfacet
  facet normal 1 0 0
    outer loop
      vertex 8 38.8246 8
      vertex 8 37.9032 6.68097
      vertex 8 38.1213 6.87868
    endloop
  endfacet
  facet normal 1 0 0
    outer loop
      vertex 8 38.8246 8
      vertex 8 37.6667 6.50559
      vertex 8 37.9032 6.68097
    endloop
  endfacet
  facet normal 1 0 0
    outer loop
      vertex 8 38.8246 8
      vertex 8 37.4142 6.35424
      vertex 8 37.6667 6.50559
    endloop
  endfacet
  facet normal 1 0 0
    outer loop
      vertex 8 38.8246 8
      vertex 8 37.148 6.22836
      vertex 8 37.4142 6.35424
    endloop
  endfacet
  facet normal 1 0 0
    outer loop
      vertex 8 38.8246 8
      vertex 8 36.8709 6.12918
      vertex 8 37.148 6.22836
    endloop
  endfacet
  facet normal 1 0 0
    outer loop
      vertex 8 38.8246 8
      vertex 8 36.5853 6.05764
      vertex 8 36.8709 6.12918
    endloop
  endfacet
  facet normal 1 0 0
    outer loop
      vertex 8 38.8246 8
      vertex 8 36.2941 6.01445
      vertex 8 36.5853 6.05764
    endloop
  endfacet
  facet normal 1 0 0
    outer loop
      vertex 8 38.8246 8
      vertex 8 36 6
      vertex 8 36.2941 6.01445
    endloop
  endfacet
  facet normal 1 0 0
    outer loop
      vertex 8 38.8246 8
      vertex 8 35.7059 6.01445
      vertex 8 36 6
    endloop
  endfacet
  facet normal 1 0 0
    outer loop
      vertex 8 38.8246 8
      vertex 8 35.4147 6.05764
      vertex 8 35.7059 6.01445
    endloop
  endfacet
  facet normal 1 0 0
    outer loop
      vertex 8 38.8246 8
      vertex 8 35.1291 6.12918
      vertex 8 35.4147 6.05764
    endloop
  endfacet
  facet normal 1 0 0
    outer loop
      vertex 8 38.8246 8
      vertex 8 34.852 6.22836
      vertex 8 35.1291 6.12918
    endloop
  endfacet
  facet normal 1 0 0
    outer loop
      vertex 8 38.8246 8
      vertex 8 34.5858 6.35424
      vertex 8 34.852 6.22836
    endloop
  endfacet
  facet normal 1 0 0
    outer loop
      vertex 8 38.8246 8
      vertex 8 34.3333 6.50559
      vertex 8 34.5858 6.35424
    endloop
  endfacet
  facet normal 1 0 0
    outer loop
      vertex 8 38.8246 8
      vertex 8 34.0968 6.68097
      vertex 8 34.3333 6.50559
    endloop
  endfacet
  facet normal 1 0 0
    outer loop
      vertex 8 38.8246 8
      vertex 8 33.8787 6.87868
      vertex 8 34.0968 6.68097
    endloop
  endfacet
  facet normal 1 0 0
    outer loop
      vertex 8 38.8246 8
      vertex 8 33.681 7.09682
      vertex 8 33.8787 6.87868
    endloop
  endfacet
  facet normal 1 0 0
    outer loop
      vertex 8 38.8246 8
      vertex 8 33.5056 7.33329
      vertex 8 33.681 7.09682
    endloop
  endfacet
  facet normal 1 0 0
    outer loop
      vertex 8 38.8246 8
      vertex 8 33.3542 7.58581
      vertex 8 33.5056 7.33329
    endloop
  endfacet
  facet normal 1 -0 0
    outer loop
      vertex 8 33.1754 8
      vertex 8 33.3542 7.58581
      vertex 8 38.8246 8
    endloop
  endfacet
  facet normal 1 0 0
    outer loop
      vertex 8 33.3542 7.58581
      vertex 8 33.1754 8
      vertex 8 33.2284 7.85195
    endloop
  endfacet
  facet normal -0 0 1
    outer loop
      vertex 0 80 8
      vertex 8 40 8
      vertex 8 80 8
    endloop
  endfacet
  facet normal 0 0 1
    outer loop
      vertex 8 40 8
      vertex 0 80 8
      vertex 0 40 8
    endloop
  endfacet
  facet normal -0 0 1
    outer loop
      vertex 0 32 8
      vertex 8 30 8
      vertex 8 32 8
    endloop
  endfacet
  facet normal 0 0 1
    outer loop
      vertex 8 30 8
      vertex 0 32 8
      vertex 0 30 8
    endloop
  endfacet
  facet normal -0 0 1
    outer loop
      vertex 0 38.8246 8
      vertex 8 33.1754 8
      vertex 8 38.8246 8
    endloop
  endfacet
  facet normal 0 0 1
    outer loop
      vertex 8 33.1754 8
      vertex 0 38.8246 8
      vertex 0 33.1754 8
    endloop
  endfacet
  facet normal -0 0 1
    outer loop
      vertex 8 80 3
      vertex 10 40 3
      vertex 10 80 3
    endloop
  endfacet
  facet normal 0 0 1
    outer loop
      vertex 10 40 3
      vertex 8 80 3
      vertex 8 40 3
    endloop
  endfacet
  facet normal 0 0 1
    outer loop
      vertex 10 32 3
      vertex 8 32 3
      vertex 10 30 3
    endloop
  endfacet
  facet normal 0 0 1
    outer loop
      vertex 35 30 3
      vertex 10 30 3
      vertex 35 25 3
    endloop
  endfacet
  facet normal 0 0 1
    outer loop
      vertex 92 32 3
      vertex 90 32 3
      vertex 92 30 3
    endloop
  endfacet
  facet normal -0 0 1
    outer loop
      vertex 92 30 3
      vertex 100 0 3
      vertex 100 30 3
    endloop
  endfacet
  facet normal 0 0 1
    outer loop
      vertex 90 30 3
      vertex 92 30 3
      vertex 90 32 3
    endloop
  endfacet
  facet normal 0 0 1
    outer loop
      vertex 92 30 3
      vertex 90 30 3
      vertex 100 0 3
    endloop
  endfacet
  facet normal 0 0 1
    outer loop
      vertex 65 25 3
      vertex 90 30 3
      vertex 65 30 3
    endloop
  endfacet
  facet normal 0 0 1
    outer loop
      vertex 90 30 3
      vertex 65 25 3
      vertex 100 0 3
    endloop
  endfacet
  facet normal -0 0 1
    outer loop
      vertex 35 25 3
      vertex 100 0 3
      vertex 65 25 3
    endloop
  endfacet
  facet normal 0 0 1
    outer loop
      vertex 0 0 3
      vertex 35 25 3
      vertex 10 30 3
    endloop
  endfacet
  facet normal 0 0 1
    outer loop
      vertex 8 30 3
      vertex 10 30 3
      vertex 8 32 3
    endloop
  endfacet
  facet normal 0 0 1
    outer loop
      vertex 0 0 3
      vertex 10 30 3
      vertex 8 30 3
    endloop
  endfacet
  facet normal 0 0 1
    outer loop
      vertex 0 0 3
      vertex 8 30 3
      vertex 0 30 3
    endloop
  endfacet
  facet normal 0 0 1
    outer loop
      vertex 35 25 3
      vertex 0 0 3
      vertex 100 0 3
    endloop
  endfacet
  facet normal -0 0 1
    outer loop
      vertex 90 80 3
      vertex 92 40 3
      vertex 92 80 3
    endloop
  endfacet
  facet normal 0 0 1
    outer loop
      vertex 92 40 3
      vertex 90 80 3
      vertex 90 40 3
    endloop
  endfacet
  facet normal -1 0 0
    outer loop
      vertex 0 80 0
      vertex 0 40 8
      vertex 0 80 8
    endloop
  endfacet
  facet normal -1 0 0
    outer loop
      vertex 0 38.9856 9.29405
      vertex 0 40 8
      vertex 0 39 9
    endloop
  endfacet
  facet normal -1 0 0
    outer loop
      vertex 0 40 8
      vertex 0 38.9856 8.70595
      vertex 0 39 9
    endloop
  endfacet
  facet normal -1 0 0
    outer loop
      vertex 0 40 8
      vertex 0 38.9424 8.41473
      vertex 0 38.9856 8.70595
    endloop
  endfacet
  facet normal -1 0 0
    outer loop
      vertex 0 40 8
      vertex 0 38.8708 8.12915
      vertex 0 38.9424 8.41473
    endloop
  endfacet
  facet normal -1 0 0
    outer loop
      vertex 0 30 3
      vertex 0 40 8
      vertex 0 80 0
    endloop
  endfacet
  facet normal -1 0 0
    outer loop
      vertex 0 40 8
      vertex 0 38.8246 8
      vertex 0 38.8708 8.12915
    endloop
  endfacet
  facet normal -1 -0 0
    outer loop
      vertex 0 40 8
      vertex 0 30 3
      vertex 0 38.8246 8
    endloop
  endfacet
  facet normal -1 -0 0
    outer loop
      vertex 0 33.0144 8.70595
      vertex 0 32 8
      vertex 0 33 9
    endloop
  endfacet
  facet normal -1 -0 0
    outer loop
      vertex 0 33.0576 8.41473
      vertex 0 32 8
      vertex 0 33.0144 8.70595
    endloop
  endfacet
  facet normal -1 -0 0
    outer loop
      vertex 0 33.1292 8.12915
      vertex 0 32 8
      vertex 0 33.0576 8.41473
    endloop
  endfacet
  facet normal -1 0 0
    outer loop
      vertex 0 33.1754 8
      vertex 0 32 8
      vertex 0 33.1292 8.12915
    endloop
  endfacet
  facet normal -1 -0 0
    outer loop
      vertex 0 38.8246 8
      vertex 0 30 3
      vertex 0 33.1754 8
    endloop
  endfacet
  facet normal -1 -0 0
    outer loop
      vertex 0 33.1754 8
      vertex 0 30 3
      vertex 0 32 8
    endloop
  endfacet
  facet normal -1 0 0
    outer loop
      vertex 0 0 0
      vertex 0 30 3
      vertex 0 80 0
    endloop
  endfacet
  facet normal -1 -0 0
    outer loop
      vertex 0 30 3
      vertex 0 0 0
      vertex 0 0 3
    endloop
  endfacet
  facet normal -1 0 0
    outer loop
      vertex 0 38.9424 9.58527
      vertex 0 40 8
      vertex 0 38.9856 9.29405
    endloop
  endfacet
  facet normal -1 0 0
    outer loop
      vertex 0 38.8708 9.87085
      vertex 0 40 8
      vertex 0 38.9424 9.58527
    endloop
  endfacet
  facet normal -1 0 0
    outer loop
      vertex 0 40 8
      vertex 0 38.8708 9.87085
      vertex 0 40 15
    endloop
  endfacet
  facet normal -1 0 0
    outer loop
      vertex 0 38.7716 10.148
      vertex 0 40 15
      vertex 0 38.8708 9.87085
    endloop
  endfacet
  facet normal -1 0 0
    outer loop
      vertex 0 38.6458 10.4142
      vertex 0 40 15
      vertex 0 38.7716 10.148
    endloop
  endfacet
  facet normal -1 0 0
    outer loop
      vertex 0 38.4944 10.6667
      vertex 0 40 15
      vertex 0 38.6458 10.4142
    endloop
  endfacet
  facet normal -1 0 0
    outer loop
      vertex 0 38.319 10.9032
      vertex 0 40 15
      vertex 0 38.4944 10.6667
    endloop
  endfacet
  facet normal -1 0 0
    outer loop
      vertex 0 38.1213 11.1213
      vertex 0 40 15
      vertex 0 38.319 10.9032
    endloop
  endfacet
  facet normal -1 0 0
    outer loop
      vertex 0 37.9032 11.319
      vertex 0 40 15
      vertex 0 38.1213 11.1213
    endloop
  endfacet
  facet normal -1 0 0
    outer loop
      vertex 0 37.6667 11.4944
      vertex 0 40 15
      vertex 0 37.9032 11.319
    endloop
  endfacet
  facet normal -1 0 0
    outer loop
      vertex 0 37.4142 11.6458
      vertex 0 40 15
      vertex 0 37.6667 11.4944
    endloop
  endfacet
  facet normal -1 0 0
    outer loop
      vertex 0 37.148 11.7716
      vertex 0 40 15
      vertex 0 37.4142 11.6458
    endloop
  endfacet
  facet normal -1 0 0
    outer loop
      vertex 0 36.8709 11.8708
      vertex 0 40 15
      vertex 0 37.148 11.7716
    endloop
  endfacet
  facet normal -1 0 0
    outer loop
      vertex 0 36.5853 11.9424
      vertex 0 40 15
      vertex 0 36.8709 11.8708
    endloop
  endfacet
  facet normal -1 0 0
    outer loop
      vertex 0 36.2941 11.9856
      vertex 0 40 15
      vertex 0 36.5853 11.9424
    endloop
  endfacet
  facet normal -1 0 0
    outer loop
      vertex 0 36 12
      vertex 0 40 15
      vertex 0 36.2941 11.9856
    endloop
  endfacet
  facet normal -1 0 0
    outer loop
      vertex 0 32 15
      vertex 0 36 12
      vertex 0 35.7059 11.9856
    endloop
  endfacet
  facet normal -1 0 0
    outer loop
      vertex 0 32 15
      vertex 0 35.7059 11.9856
      vertex 0 35.4147 11.9424
    endloop
  endfacet
  facet normal -1 0 0
    outer loop
      vertex 0 32 15
      vertex 0 35.4147 11.9424
      vertex 0 35.1291 11.8708
    endloop
  endfacet
  facet normal -1 0 0
    outer loop
      vertex 0 32 15
      vertex 0 35.1291 11.8708
      vertex 0 34.852 11.7716
    endloop
  endfacet
  facet normal -1 0 0
    outer loop
      vertex 0 32 15
      vertex 0 34.852 11.7716
      vertex 0 34.5858 11.6458
    endloop
  endfacet
  facet normal -1 0 0
    outer loop
      vertex 0 32 15
      vertex 0 34.5858 11.6458
      vertex 0 34.3333 11.4944
    endloop
  endfacet
  facet normal -1 0 0
    outer loop
      vertex 0 32 8
      vertex 0 33.0144 9.29405
      vertex 0 33 9
    endloop
  endfacet
  facet normal -1 0 0
    outer loop
      vertex 0 32 8
      vertex 0 33.0576 9.58527
      vertex 0 33.0144 9.29405
    endloop
  endfacet
  facet normal -1 0 0
    outer loop
      vertex 0 32 8
      vertex 0 33.1292 9.87085
      vertex 0 33.0576 9.58527
    endloop
  endfacet
  facet normal -1 0 0
    outer loop
      vertex 0 32 15
      vertex 0 33.1292 9.87085
      vertex 0 32 8
    endloop
  endfacet
  facet normal -1 0 0
    outer loop
      vertex 0 33.1292 9.87085
      vertex 0 32 15
      vertex 0 33.2284 10.148
    endloop
  endfacet
  facet normal -1 0 0
    outer loop
      vertex 0 36 12
      vertex 0 32 15
      vertex 0 40 15
    endloop
  endfacet
  facet normal -1 0 0
    outer loop
      vertex 0 34.0968 11.319
      vertex 0 32 15
      vertex 0 34.3333 11.4944
    endloop
  endfacet
  facet normal -1 0 0
    outer loop
      vertex 0 33.8787 11.1213
      vertex 0 32 15
      vertex 0 34.0968 11.319
    endloop
  endfacet
  facet normal -1 0 0
    outer loop
      vertex 0 33.681 10.9032
      vertex 0 32 15
      vertex 0 33.8787 11.1213
    endloop
  endfacet
  facet normal -1 0 0
    outer loop
      vertex 0 33.5056 10.6667
      vertex 0 32 15
      vertex 0 33.681 10.9032
    endloop
  endfacet
  facet normal -1 0 0
    outer loop
      vertex 0 33.3542 10.4142
      vertex 0 32 15
      vertex 0 33.5056 10.6667
    endloop
  endfacet
  facet normal -1 0 0
    outer loop
      vertex 0 33.2284 10.148
      vertex 0 32 15
      vertex 0 33.3542 10.4142
    endloop
  endfacet
  facet normal -1 -0 0
    outer loop
      vertex 0 32 8
      vertex 0 30 3
      vertex 0 30 8
    endloop
  endfacet
  facet normal 0 1 0
    outer loop
      vertex 100 80 8
      vertex 92 80 3
      vertex 92 80 8
    endloop
  endfacet
  facet normal 0 1 0
    outer loop
      vertex 100 80 0
      vertex 90 80 3
      vertex 92 80 3
    endloop
  endfacet
  facet normal 0 1 0
    outer loop
      vertex 90 80 3
      vertex 100 80 0
      vertex 10 80 3
    endloop
  endfacet
  facet normal 0 1 0
    outer loop
      vertex 0 80 0
      vertex 10 80 3
      vertex 100 80 0
    endloop
  endfacet
  facet normal 0 1 -0
    outer loop
      vertex 100 80 0
      vertex 92 80 3
      vertex 100 80 8
    endloop
  endfacet
  facet normal 0 1 -0
    outer loop
      vertex 90 80 3
      vertex 10 80 18
      vertex 90 80 18
    endloop
  endfacet
  facet normal 0 1 0
    outer loop
      vertex 10 80 18
      vertex 90 80 3
      vertex 10 80 3
    endloop
  endfacet
  facet normal 0 1 -0
    outer loop
      vertex 8 80 3
      vertex 0 80 8
      vertex 8 80 8
    endloop
  endfacet
  facet normal 0 1 0
    outer loop
      vertex 8 80 3
      vertex 0 80 0
      vertex 0 80 8
    endloop
  endfacet
  facet normal 0 1 0
    outer loop
      vertex 10 80 3
      vertex 0 80 0
      vertex 8 80 3
    endloop
  endfacet
  facet normal 0 -1 0
    outer loop
      vertex 0 30 3
      vertex 8 30 8
      vertex 0 30 8
    endloop
  endfacet
  facet normal 0 -1 -0
    outer loop
      vertex 8 30 8
      vertex 0 30 3
      vertex 8 30 3
    endloop
  endfacet
  facet normal 1 -0 0
    outer loop
      vertex 100 38.8708 9.87085
      vertex 100 40 8
      vertex 100 40 15
    endloop
  endfacet
  facet normal 1 0 0
    outer loop
      vertex 100 40 8
      vertex 100 38.9856 9.29405
      vertex 100 39 9
    endloop
  endfacet
  facet normal 1 0 0
    outer loop
      vertex 100 40 8
      vertex 100 38.9424 9.58527
      vertex 100 38.9856 9.29405
    endloop
  endfacet
  facet normal 1 0 0
    outer loop
      vertex 100 40 8
      vertex 100 38.8708 9.87085
      vertex 100 38.9424 9.58527
    endloop
  endfacet
  facet normal 1 0 0
    outer loop
      vertex 100 40 15
      vertex 100 38.7716 10.148
      vertex 100 38.8708 9.87085
    endloop
  endfacet
  facet normal 1 0 0
    outer loop
      vertex 100 40 15
      vertex 100 38.6458 10.4142
      vertex 100 38.7716 10.148
    endloop
  endfacet
  facet normal 1 0 0
    outer loop
      vertex 100 40 15
      vertex 100 38.4944 10.6667
      vertex 100 38.6458 10.4142
    endloop
  endfacet
  facet normal 1 0 0
    outer loop
      vertex 100 40 15
      vertex 100 38.319 10.9032
      vertex 100 38.4944 10.6667
    endloop
  endfacet
  facet normal 1 0 0
    outer loop
      vertex 100 40 15
      vertex 100 38.1213 11.1213
      vertex 100 38.319 10.9032
    endloop
  endfacet
  facet normal 1 0 0
    outer loop
      vertex 100 40 15
      vertex 100 37.9032 11.319
      vertex 100 38.1213 11.1213
    endloop
  endfacet
  facet normal 1 0 0
    outer loop
      vertex 100 40 15
      vertex 100 37.6667 11.4944
      vertex 100 37.9032 11.319
    endloop
  endfacet
  facet normal 1 0 0
    outer loop
      vertex 100 40 15
      vertex 100 37.4142 11.6458
      vertex 100 37.6667 11.4944
    endloop
  endfacet
  facet normal 1 0 0
    outer loop
      vertex 100 40 15
      vertex 100 37.148 11.7716
      vertex 100 37.4142 11.6458
    endloop
  endfacet
  facet normal 1 0 0
    outer loop
      vertex 100 40 15
      vertex 100 36.8709 11.8708
      vertex 100 37.148 11.7716
    endloop
  endfacet
  facet normal 1 0 0
    outer loop
      vertex 100 40 15
      vertex 100 36.5853 11.9424
      vertex 100 36.8709 11.8708
    endloop
  endfacet
  facet normal 1 0 0
    outer loop
      vertex 100 40 15
      vertex 100 36.2941 11.9856
      vertex 100 36.5853 11.9424
    endloop
  endfacet
  facet normal 1 0 0
    outer loop
      vertex 100 40 15
      vertex 100 36 12
      vertex 100 36.2941 11.9856
    endloop
  endfacet
  facet normal 1 -0 0
    outer loop
      vertex 100 32 15
      vertex 100 36 12
      vertex 100 40 15
    endloop
  endfacet
  facet normal 1 0 0
    outer loop
      vertex 100 36 12
      vertex 100 32 15
      vertex 100 35.7059 11.9856
    endloop
  endfacet
  facet normal 1 0 0
    outer loop
      vertex 100 35.7059 11.9856
      vertex 100 32 15
      vertex 100 35.4147 11.9424
    endloop
  endfacet
  facet normal 1 0 0
    outer loop
      vertex 100 35.4147 11.9424
      vertex 100 32 15
      vertex 100 35.1291 11.8708
    endloop
  endfacet
  facet normal 1 0 0
    outer loop
      vertex 100 35.1291 11.8708
      vertex 100 32 15
      vertex 100 34.852 11.7716
    endloop
  endfacet
  facet normal 1 0 0
    outer loop
      vertex 100 34.852 11.7716
      vertex 100 32 15
      vertex 100 34.5858 11.6458
    endloop
  endfacet
  facet normal 1 0 0
    outer loop
      vertex 100 33.0576 9.58527
      vertex 100 32 8
      vertex 100 33.0144 9.29405
    endloop
  endfacet
  facet normal 1 0 0
    outer loop
      vertex 100 33.1292 9.87085
      vertex 100 32 8
      vertex 100 33.0576 9.58527
    endloop
  endfacet
  facet normal 1 0 0
    outer loop
      vertex 100 32 8
      vertex 100 33.1292 9.87085
      vertex 100 32 15
    endloop
  endfacet
  facet normal 1 0 0
    outer loop
      vertex 100 33.2284 10.148
      vertex 100 32 15
      vertex 100 33.1292 9.87085
    endloop
  endfacet
  facet normal 1 0 0
    outer loop
      vertex 100 33.3542 10.4142
      vertex 100 32 15
      vertex 100 33.2284 10.148
    endloop
  endfacet
  facet normal 1 0 0
    outer loop
      vertex 100 33.5056 10.6667
      vertex 100 32 15
      vertex 100 33.3542 10.4142
    endloop
  endfacet
  facet normal 1 0 0
    outer loop
      vertex 100 33.681 10.9032
      vertex 100 32 15
      vertex 100 33.5056 10.6667
    endloop
  endfacet
  facet normal 1 0 0
    outer loop
      vertex 100 33.8787 11.1213
      vertex 100 32 15
      vertex 100 33.681 10.9032
    endloop
  endfacet
  facet normal 1 0 0
    outer loop
      vertex 100 34.0968 11.319
      vertex 100 32 15
      vertex 100 33.8787 11.1213
    endloop
  endfacet
  facet normal 1 0 0
    outer loop
      vertex 100 34.3333 11.4944
      vertex 100 32 15
      vertex 100 34.0968 11.319
    endloop
  endfacet
  facet normal 1 0 0
    outer loop
      vertex 100 34.5858 11.6458
      vertex 100 32 15
      vertex 100 34.3333 11.4944
    endloop
  endfacet
  facet normal 1 -0 0
    outer loop
      vertex 100 40 8
      vertex 100 80 0
      vertex 100 80 8
    endloop
  endfacet
  facet normal 1 -0 0
    outer loop
      vertex 100 38.9856 8.70595
      vertex 100 40 8
      vertex 100 39 9
    endloop
  endfacet
  facet normal 1 -0 0
    outer loop
      vertex 100 38.9424 8.41473
      vertex 100 40 8
      vertex 100 38.9856 8.70595
    endloop
  endfacet
  facet normal 1 -0 0
    outer loop
      vertex 100 38.8708 8.12915
      vertex 100 40 8
      vertex 100 38.9424 8.41473
    endloop
  endfacet
  facet normal 1 0 0
    outer loop
      vertex 100 38.8246 8
      vertex 100 40 8
      vertex 100 38.8708 8.12915
    endloop
  endfacet
  facet normal 1 0 0
    outer loop
      vertex 100 30 3
      vertex 100 40 8
      vertex 100 38.8246 8
    endloop
  endfacet
  facet normal 1 0 0
    outer loop
      vertex 100 30 3
      vertex 100 38.8246 8
      vertex 100 33.1754 8
    endloop
  endfacet
  facet normal 1 0 0
    outer loop
      vertex 100 33.0144 9.29405
      vertex 100 32 8
      vertex 100 33 9
    endloop
  endfacet
  facet normal 1 0 0
    outer loop
      vertex 100 33 9
      vertex 100 32 8
      vertex 100 33.0144 8.70595
    endloop
  endfacet
  facet normal 1 0 0
    outer loop
      vertex 100 33.0144 8.70595
      vertex 100 32 8
      vertex 100 33.0576 8.41473
    endloop
  endfacet
  facet normal 1 0 0
    outer loop
      vertex 100 32 8
      vertex 100 33.1292 8.12915
      vertex 100 33.0576 8.41473
    endloop
  endfacet
  facet normal 1 0 0
    outer loop
      vertex 100 32 8
      vertex 100 33.1754 8
      vertex 100 33.1292 8.12915
    endloop
  endfacet
  facet normal 1 0 0
    outer loop
      vertex 100 30 3
      vertex 100 33.1754 8
      vertex 100 32 8
    endloop
  endfacet
  facet normal 1 0 0
    outer loop
      vertex 100 30 3
      vertex 100 32 8
      vertex 100 30 8
    endloop
  endfacet
  facet normal 1 0 0
    outer loop
      vertex 100 40 8
      vertex 100 30 3
      vertex 100 80 0
    endloop
  endfacet
  facet normal 1 0 0
    outer loop
      vertex 100 0 0
      vertex 100 30 3
      vertex 100 0 3
    endloop
  endfacet
  facet normal 1 0 0
    outer loop
      vertex 100 30 3
      vertex 100 0 0
      vertex 100 80 0
    endloop
  endfacet
  facet normal -0 0 1
    outer loop
      vertex 92 80 8
      vertex 100 40 8
      vertex 100 80 8
    endloop
  endfacet
  facet normal 0 0 1
    outer loop
      vertex 100 40 8
      vertex 92 80 8
      vertex 92 40 8
    endloop
  endfacet
  facet normal -0 0 1
    outer loop
      vertex 92 32 8
      vertex 100 30 8
      vertex 100 32 8
    endloop
  endfacet
  facet normal 0 0 1
    outer loop
      vertex 100 30 8
      vertex 92 32 8
      vertex 92 30 8
    endloop
  endfacet
  facet normal -0 0 1
    outer loop
      vertex 92 38.8246 8
      vertex 100 33.1754 8
      vertex 100 38.8246 8
    endloop
  endfacet
  facet normal 0 0 1
    outer loop
      vertex 100 33.1754 8
      vertex 92 38.8246 8
      vertex 92 33.1754 8
    endloop
  endfacet
  facet normal -1 0 0
    outer loop
      vertex 92 40 3
      vertex 92 80 8
      vertex 92 80 3
    endloop
  endfacet
  facet normal -1 -0 0
    outer loop
      vertex 92 80 8
      vertex 92 40 3
      vertex 92 40 8
    endloop
  endfacet
  facet normal -1 0 0
    outer loop
      vertex 92 30 3
      vertex 92 32 8
      vertex 92 32 3
    endloop
  endfacet
  facet normal -1 -0 0
    outer loop
      vertex 92 32 8
      vertex 92 30 3
      vertex 92 30 8
    endloop
  endfacet
  facet normal -1 0 0
    outer loop
      vertex 92 38.6458 7.58581
      vertex 92 38.8246 8
      vertex 92 38.7716 7.85195
    endloop
  endfacet
  facet normal -1 0 0
    outer loop
      vertex 92 38.4944 7.33329
      vertex 92 38.8246 8
      vertex 92 38.6458 7.58581
    endloop
  endfacet
  facet normal -1 0 0
    outer loop
      vertex 92 38.319 7.09682
      vertex 92 38.8246 8
      vertex 92 38.4944 7.33329
    endloop
  endfacet
  facet normal -1 0 0
    outer loop
      vertex 92 38.1213 6.87868
      vertex 92 38.8246 8
      vertex 92 38.319 7.09682
    endloop
  endfacet
  facet normal -1 0 0
    outer loop
      vertex 92 37.9032 6.68097
      vertex 92 38.8246 8
      vertex 92 38.1213 6.87868
    endloop
  endfacet
  facet normal -1 0 0
    outer loop
      vertex 92 37.6667 6.50559
      vertex 92 38.8246 8
      vertex 92 37.9032 6.68097
    endloop
  endfacet
  facet normal -1 0 0
    outer loop
      vertex 92 37.4142 6.35424
      vertex 92 38.8246 8
      vertex 92 37.6667 6.50559
    endloop
  endfacet
  facet normal -1 0 0
    outer loop
      vertex 92 37.148 6.22836
      vertex 92 38.8246 8
      vertex 92 37.4142 6.35424
    endloop
  endfacet
  facet normal -1 0 0
    outer loop
      vertex 92 36.8709 6.12918
      vertex 92 38.8246 8
      vertex 92 37.148 6.22836
    endloop
  endfacet
  facet normal -1 0 0
    outer loop
      vertex 92 36.5853 6.05764
      vertex 92 38.8246 8
      vertex 92 36.8709 6.12918
    endloop
  endfacet
  facet normal -1 0 0
    outer loop
      vertex 92 36.2941 6.01445
      vertex 92 38.8246 8
      vertex 92 36.5853 6.05764
    endloop
  endfacet
  facet normal -1 0 0
    outer loop
      vertex 92 36 6
      vertex 92 38.8246 8
      vertex 92 36.2941 6.01445
    endloop
  endfacet
  facet normal -1 0 0
    outer loop
      vertex 92 35.7059 6.01445
      vertex 92 38.8246 8
      vertex 92 36 6
    endloop
  endfacet
  facet normal -1 0 0
    outer loop
      vertex 92 35.4147 6.05764
      vertex 92 38.8246 8
      vertex 92 35.7059 6.01445
    endloop
  endfacet
  facet normal -1 0 0
    outer loop
      vertex 92 35.1291 6.12918
      vertex 92 38.8246 8
      vertex 92 35.4147 6.05764
    endloop
  endfacet
  facet normal -1 0 0
    outer loop
      vertex 92 34.852 6.22836
      vertex 92 38.8246 8
      vertex 92 35.1291 6.12918
    endloop
  endfacet
  facet normal -1 0 0
    outer loop
      vertex 92 34.5858 6.35424
      vertex 92 38.8246 8
      vertex 92 34.852 6.22836
    endloop
  endfacet
  facet normal -1 0 0
    outer loop
      vertex 92 34.3333 6.50559
      vertex 92 38.8246 8
      vertex 92 34.5858 6.35424
    endloop
  endfacet
  facet normal -1 0 0
    outer loop
      vertex 92 34.0968 6.68097
      vertex 92 38.8246 8
      vertex 92 34.3333 6.50559
    endloop
  endfacet
  facet normal -1 0 0
    outer loop
      vertex 92 33.8787 6.87868
      vertex 92 38.8246 8
      vertex 92 34.0968 6.68097
    endloop
  endfacet
  facet normal -1 0 0
    outer loop
      vertex 92 33.681 7.09682
      vertex 92 38.8246 8
      vertex 92 33.8787 6.87868
    endloop
  endfacet
  facet normal -1 0 0
    outer loop
      vertex 92 33.5056 7.33329
      vertex 92 38.8246 8
      vertex 92 33.681 7.09682
    endloop
  endfacet
  facet normal -1 0 0
    outer loop
      vertex 92 33.3542 7.58581
      vertex 92 38.8246 8
      vertex 92 33.5056 7.33329
    endloop
  endfacet
  facet normal -1 0 0
    outer loop
      vertex 92 33.1754 8
      vertex 92 33.3542 7.58581
      vertex 92 33.2284 7.85195
    endloop
  endfacet
  facet normal -1 0 0
    outer loop
      vertex 92 33.3542 7.58581
      vertex 92 33.1754 8
      vertex 92 38.8246 8
    endloop
  endfacet
  facet normal 0 -1 0
    outer loop
      vertex 92 30 3
      vertex 100 30 8
      vertex 92 30 8
    endloop
  endfacet
  facet normal 0 -1 -0
    outer loop
      vertex 100 30 8
      vertex 92 30 3
      vertex 100 30 3
    endloop
  endfacet
  facet normal -0 0 1
    outer loop
      vertex 0 40 15
      vertex 10 32 15
      vertex 10 40 15
    endloop
  endfacet
  facet normal 0 0 1
    outer loop
      vertex 10 32 15
      vertex 0 40 15
      vertex 0 32 15
    endloop
  endfacet
  facet normal -0 0 1
    outer loop
      vertex 90 40 15
      vertex 100 32 15
      vertex 100 40 15
    endloop
  endfacet
  facet normal 0 0 1
    outer loop
      vertex 100 32 15
      vertex 90 40 15
      vertex 90 32 15
    endloop
  endfacet
  facet normal 0 1 0
    outer loop
      vertex 10 40 15
      vertex 8 40 8
      vertex 0 40 15
    endloop
  endfacet
  facet normal 0 1 -0
    outer loop
      vertex 10 40 3
      vertex 8 40 8
      vertex 10 40 15
    endloop
  endfacet
  facet normal 0 1 0
    outer loop
      vertex 8 40 8
      vertex 10 40 3
      vertex 8 40 3
    endloop
  endfacet
  facet normal 0 1 0
    outer loop
      vertex 0 40 15
      vertex 8 40 8
      vertex 0 40 8
    endloop
  endfacet
  facet normal 0 1 0
    outer loop
      vertex 92 40 8
      vertex 100 40 15
      vertex 100 40 8
    endloop
  endfacet
  facet normal 0 1 0
    outer loop
      vertex 100 40 15
      vertex 92 40 8
      vertex 90 40 15
    endloop
  endfacet
  facet normal 0 1 0
    outer loop
      vertex 90 40 3
      vertex 92 40 8
      vertex 92 40 3
    endloop
  endfacet
  facet normal 0 1 0
    outer loop
      vertex 92 40 8
      vertex 90 40 3
      vertex 90 40 15
    endloop
  endfacet
  facet normal 0 -1 0
    outer loop
      vertex 8 32 8
      vertex 0 32 15
      vertex 0 32 8
    endloop
  endfacet
  facet normal 0 -1 0
    outer loop
      vertex 0 32 15
      vertex 8 32 8
      vertex 10 32 15
    endloop
  endfacet
  facet normal 0 -1 0
    outer loop
      vertex 10 32 3
      vertex 8 32 8
      vertex 8 32 3
    endloop
  endfacet
  facet normal 0 -1 0
    outer loop
      vertex 8 32 8
      vertex 10 32 3
      vertex 10 32 15
    endloop
  endfacet
  facet normal 0 -1 0
    outer loop
      vertex 90 32 15
      vertex 92 32 8
      vertex 100 32 15
    endloop
  endfacet
  facet normal 0 -1 0
    outer loop
      vertex 90 32 3
      vertex 92 32 8
      vertex 90 32 15
    endloop
  endfacet
  facet normal 0 -1 -0
    outer loop
      vertex 92 32 8
      vertex 90 32 3
      vertex 92 32 3
    endloop
  endfacet
  facet normal 0 -1 -0
    outer loop
      vertex 100 32 15
      vertex 92 32 8
      vertex 100 32 8
    endloop
  endfacet
  facet normal 0 -0.242983 0.970031
    outer loop
      vertex 8 36.8709 6.12918
      vertex 10 36.5853 6.05764
      vertex 10 36.8709 6.12918
    endloop
  endfacet
  facet normal 0 -0.242983 0.970031
    outer loop
      vertex 10 36.5853 6.05764
      vertex 8 36.8709 6.12918
      vertex 8 36.5853 6.05764
    endloop
  endfacet
  facet normal 0 -0.242983 0.970031
    outer loop
      vertex 90 36.8709 6.12918
      vertex 92 36.5853 6.05764
      vertex 92 36.8709 6.12918
    endloop
  endfacet
  facet normal 0 -0.242983 0.970031
    outer loop
      vertex 92 36.5853 6.05764
      vertex 90 36.8709 6.12918
      vertex 90 36.5853 6.05764
    endloop
  endfacet
  facet normal 0 -0.514246 -0.857643
    outer loop
      vertex 0 37.4142 11.6458
      vertex 10 37.6667 11.4944
      vertex 10 37.4142 11.6458
    endloop
  endfacet
  facet normal -0 -0.514246 -0.857643
    outer loop
      vertex 10 37.6667 11.4944
      vertex 0 37.4142 11.6458
      vertex 0 37.6667 11.4944
    endloop
  endfacet
  facet normal 0 -0.514246 -0.857643
    outer loop
      vertex 90 37.4142 11.6458
      vertex 100 37.6667 11.4944
      vertex 100 37.4142 11.6458
    endloop
  endfacet
  facet normal -0 -0.514246 -0.857643
    outer loop
      vertex 100 37.6667 11.4944
      vertex 90 37.4142 11.6458
      vertex 90 37.6667 11.4944
    endloop
  endfacet
  facet normal 0 -0.243175 -0.969982
    outer loop
      vertex 0 36.5853 11.9424
      vertex 10 36.8709 11.8708
      vertex 10 36.5853 11.9424
    endloop
  endfacet
  facet normal -0 -0.243175 -0.969982
    outer loop
      vertex 10 36.8709 11.8708
      vertex 0 36.5853 11.9424
      vertex 0 36.8709 11.8708
    endloop
  endfacet
  facet normal 0 -0.243175 -0.969982
    outer loop
      vertex 90 36.5853 11.9424
      vertex 100 36.8709 11.8708
      vertex 100 36.5853 11.9424
    endloop
  endfacet
  facet normal -0 -0.243175 -0.969982
    outer loop
      vertex 100 36.8709 11.8708
      vertex 90 36.5853 11.9424
      vertex 90 36.8709 11.8708
    endloop
  endfacet
  facet normal -0 0.146712 0.989179
    outer loop
      vertex 8 35.7059 6.01445
      vertex 10 35.4147 6.05764
      vertex 10 35.7059 6.01445
    endloop
  endfacet
  facet normal 0 0.146712 0.989179
    outer loop
      vertex 10 35.4147 6.05764
      vertex 8 35.7059 6.01445
      vertex 8 35.4147 6.05764
    endloop
  endfacet
  facet normal -0 0.146712 0.989179
    outer loop
      vertex 90 35.7059 6.01445
      vertex 92 35.4147 6.05764
      vertex 92 35.7059 6.01445
    endloop
  endfacet
  facet normal 0 0.146712 0.989179
    outer loop
      vertex 92 35.4147 6.05764
      vertex 90 35.7059 6.01445
      vertex 90 35.4147 6.05764
    endloop
  endfacet
  facet normal -0 0.336986 0.94151
    outer loop
      vertex 8 35.1291 6.12918
      vertex 10 34.852 6.22836
      vertex 10 35.1291 6.12918
    endloop
  endfacet
  facet normal 0 0.336986 0.94151
    outer loop
      vertex 10 34.852 6.22836
      vertex 8 35.1291 6.12918
      vertex 8 34.852 6.22836
    endloop
  endfacet
  facet normal -0 0.336986 0.94151
    outer loop
      vertex 90 35.1291 6.12918
      vertex 92 34.852 6.22836
      vertex 92 35.1291 6.12918
    endloop
  endfacet
  facet normal 0 0.336986 0.94151
    outer loop
      vertex 92 34.852 6.22836
      vertex 90 35.1291 6.12918
      vertex 90 34.852 6.22836
    endloop
  endfacet
  facet normal 0 0.941569 0.336821
    outer loop
      vertex 10 33.1292 8.12915
      vertex 8 33.1754 8
      vertex 0 33.1292 8.12915
    endloop
  endfacet
  facet normal -8.55933e-06 0.941527 0.336939
    outer loop
      vertex 10 33.2284 7.85195
      vertex 8 33.1754 8
      vertex 10 33.1292 8.12915
    endloop
  endfacet
  facet normal 0 0.94149 0.337041
    outer loop
      vertex 8 33.1754 8
      vertex 10 33.2284 7.85195
      vertex 8 33.2284 7.85195
    endloop
  endfacet
  facet normal 0 0.941569 0.336821
    outer loop
      vertex 0 33.1292 8.12915
      vertex 8 33.1754 8
      vertex 0 33.1754 8
    endloop
  endfacet
  facet normal -0 0.941569 0.336821
    outer loop
      vertex 92 33.1754 8
      vertex 100 33.1292 8.12915
      vertex 100 33.1754 8
    endloop
  endfacet
  facet normal 0 0.941569 0.336821
    outer loop
      vertex 100 33.1292 8.12915
      vertex 92 33.1754 8
      vertex 90 33.1292 8.12915
    endloop
  endfacet
  facet normal -0 0.94149 0.337041
    outer loop
      vertex 90 33.2284 7.85195
      vertex 92 33.1754 8
      vertex 92 33.2284 7.85195
    endloop
  endfacet
  facet normal 8.55933e-06 0.941527 0.336939
    outer loop
      vertex 92 33.1754 8
      vertex 90 33.2284 7.85195
      vertex 90 33.1292 8.12915
    endloop
  endfacet
  facet normal 0 -0.514121 0.857718
    outer loop
      vertex 8 37.6667 6.50559
      vertex 10 37.4142 6.35424
      vertex 10 37.6667 6.50559
    endloop
  endfacet
  facet normal 0 -0.514121 0.857718
    outer loop
      vertex 10 37.4142 6.35424
      vertex 8 37.6667 6.50559
      vertex 8 37.4142 6.35424
    endloop
  endfacet
  facet normal 0 -0.514121 0.857718
    outer loop
      vertex 90 37.6667 6.50559
      vertex 92 37.4142 6.35424
      vertex 92 37.6667 6.50559
    endloop
  endfacet
  facet normal 0 -0.514121 0.857718
    outer loop
      vertex 92 37.4142 6.35424
      vertex 90 37.6667 6.50559
      vertex 90 37.4142 6.35424
    endloop
  endfacet
  facet normal 0 -0.671607 -0.740908
    outer loop
      vertex 0 37.9032 11.319
      vertex 10 38.1213 11.1213
      vertex 10 37.9032 11.319
    endloop
  endfacet
  facet normal -0 -0.671607 -0.740908
    outer loop
      vertex 10 38.1213 11.1213
      vertex 0 37.9032 11.319
      vertex 0 38.1213 11.1213
    endloop
  endfacet
  facet normal 0 -0.671607 -0.740908
    outer loop
      vertex 90 37.9032 11.319
      vertex 100 38.1213 11.1213
      vertex 100 37.9032 11.319
    endloop
  endfacet
  facet normal -0 -0.671607 -0.740908
    outer loop
      vertex 100 38.1213 11.1213
      vertex 90 37.9032 11.319
      vertex 90 38.1213 11.1213
    endloop
  endfacet
  facet normal 0 -0.0490738 0.998795
    outer loop
      vertex 8 36.2941 6.01445
      vertex 10 36 6
      vertex 10 36.2941 6.01445
    endloop
  endfacet
  facet normal 0 -0.0490738 0.998795
    outer loop
      vertex 10 36 6
      vertex 8 36.2941 6.01445
      vertex 8 36 6
    endloop
  endfacet
  facet normal 0 -0.0490738 0.998795
    outer loop
      vertex 90 36.2941 6.01445
      vertex 92 36 6
      vertex 92 36.2941 6.01445
    endloop
  endfacet
  facet normal 0 -0.0490738 0.998795
    outer loop
      vertex 92 36 6
      vertex 90 36.2941 6.01445
      vertex 90 36 6
    endloop
  endfacet
  facet normal -0 0.514121 0.857718
    outer loop
      vertex 8 34.5858 6.35424
      vertex 10 34.3333 6.50559
      vertex 10 34.5858 6.35424
    endloop
  endfacet
  facet normal 0 0.514121 0.857718
    outer loop
      vertex 10 34.3333 6.50559
      vertex 8 34.5858 6.35424
      vertex 8 34.3333 6.50559
    endloop
  endfacet
  facet normal -0 0.514121 0.857718
    outer loop
      vertex 90 34.5858 6.35424
      vertex 92 34.3333 6.50559
      vertex 92 34.5858 6.35424
    endloop
  endfacet
  facet normal 0 0.514121 0.857718
    outer loop
      vertex 92 34.3333 6.50559
      vertex 90 34.5858 6.35424
      vertex 90 34.3333 6.50559
    endloop
  endfacet
  facet normal 0 0.989176 0.146736
    outer loop
      vertex 10 33.0576 8.41473
      vertex 0 33.0144 8.70595
      vertex 10 33.0144 8.70595
    endloop
  endfacet
  facet normal 0 0.989176 0.146736
    outer loop
      vertex 0 33.0144 8.70595
      vertex 10 33.0576 8.41473
      vertex 0 33.0576 8.41473
    endloop
  endfacet
  facet normal 0 0.989176 0.146736
    outer loop
      vertex 100 33.0576 8.41473
      vertex 90 33.0144 8.70595
      vertex 100 33.0144 8.70595
    endloop
  endfacet
  facet normal 0 0.989176 0.146736
    outer loop
      vertex 90 33.0144 8.70595
      vertex 100 33.0576 8.41473
      vertex 90 33.0576 8.41473
    endloop
  endfacet
  facet normal 0 0.998803 -0.0489126
    outer loop
      vertex 10 33 9
      vertex 0 33.0144 9.29405
      vertex 10 33.0144 9.29405
    endloop
  endfacet
  facet normal 0 0.998803 -0.0489126
    outer loop
      vertex 0 33.0144 9.29405
      vertex 10 33 9
      vertex 0 33 9
    endloop
  endfacet
  facet normal 0 0.998803 -0.0489126
    outer loop
      vertex 100 33 9
      vertex 90 33.0144 9.29405
      vertex 100 33.0144 9.29405
    endloop
  endfacet
  facet normal 0 0.998803 -0.0489126
    outer loop
      vertex 90 33.0144 9.29405
      vertex 100 33 9
      vertex 90 33 9
    endloop
  endfacet
  facet normal 0 0.514246 -0.857643
    outer loop
      vertex 0 34.3333 11.4944
      vertex 10 34.5858 11.6458
      vertex 10 34.3333 11.4944
    endloop
  endfacet
  facet normal 0 0.514246 -0.857643
    outer loop
      vertex 10 34.5858 11.6458
      vertex 0 34.3333 11.4944
      vertex 0 34.5858 11.6458
    endloop
  endfacet
  facet normal 0 0.514246 -0.857643
    outer loop
      vertex 90 34.3333 11.4944
      vertex 100 34.5858 11.6458
      vertex 100 34.3333 11.4944
    endloop
  endfacet
  facet normal 0 0.514246 -0.857643
    outer loop
      vertex 100 34.5858 11.6458
      vertex 90 34.3333 11.4944
      vertex 90 34.5858 11.6458
    endloop
  endfacet
  facet normal -0 0.0490738 0.998795
    outer loop
      vertex 8 36 6
      vertex 10 35.7059 6.01445
      vertex 10 36 6
    endloop
  endfacet
  facet normal 0 0.0490738 0.998795
    outer loop
      vertex 10 35.7059 6.01445
      vertex 8 36 6
      vertex 8 35.7059 6.01445
    endloop
  endfacet
  facet normal -0 0.0490738 0.998795
    outer loop
      vertex 90 36 6
      vertex 92 35.7059 6.01445
      vertex 92 36 6
    endloop
  endfacet
  facet normal 0 0.0490738 0.998795
    outer loop
      vertex 92 35.7059 6.01445
      vertex 90 36 6
      vertex 90 35.7059 6.01445
    endloop
  endfacet
  facet normal 0 0.740908 -0.671607
    outer loop
      vertex 10 33.681 10.9032
      vertex 0 33.8787 11.1213
      vertex 10 33.8787 11.1213
    endloop
  endfacet
  facet normal 0 0.740908 -0.671607
    outer loop
      vertex 0 33.8787 11.1213
      vertex 10 33.681 10.9032
      vertex 0 33.681 10.9032
    endloop
  endfacet
  facet normal 0 0.740908 -0.671607
    outer loop
      vertex 100 33.681 10.9032
      vertex 90 33.8787 11.1213
      vertex 100 33.8787 11.1213
    endloop
  endfacet
  facet normal 0 0.740908 -0.671607
    outer loop
      vertex 90 33.8787 11.1213
      vertex 100 33.681 10.9032
      vertex 90 33.681 10.9032
    endloop
  endfacet
  facet normal 0 -0.671625 0.740891
    outer loop
      vertex 8 38.1213 6.87868
      vertex 10 37.9032 6.68097
      vertex 10 38.1213 6.87868
    endloop
  endfacet
  facet normal 0 -0.671625 0.740891
    outer loop
      vertex 10 37.9032 6.68097
      vertex 8 38.1213 6.87868
      vertex 8 37.9032 6.68097
    endloop
  endfacet
  facet normal 0 -0.671625 0.740891
    outer loop
      vertex 90 38.1213 6.87868
      vertex 92 37.9032 6.68097
      vertex 92 38.1213 6.87868
    endloop
  endfacet
  facet normal 0 -0.671625 0.740891
    outer loop
      vertex 92 37.9032 6.68097
      vertex 90 38.1213 6.87868
      vertex 90 37.9032 6.68097
    endloop
  endfacet
  facet normal 0 0.969978 -0.243191
    outer loop
      vertex 10 33.0576 9.58527
      vertex 0 33.1292 9.87085
      vertex 10 33.1292 9.87085
    endloop
  endfacet
  facet normal 0 0.969978 -0.243191
    outer loop
      vertex 0 33.1292 9.87085
      vertex 10 33.0576 9.58527
      vertex 0 33.0576 9.58527
    endloop
  endfacet
  facet normal 0 0.969978 -0.243191
    outer loop
      vertex 100 33.0576 9.58527
      vertex 90 33.1292 9.87085
      vertex 100 33.1292 9.87085
    endloop
  endfacet
  facet normal 0 0.969978 -0.243191
    outer loop
      vertex 90 33.1292 9.87085
      vertex 100 33.0576 9.58527
      vertex 90 33.0576 9.58527
    endloop
  endfacet
  facet normal -0 0.427491 0.90402
    outer loop
      vertex 8 34.852 6.22836
      vertex 10 34.5858 6.35424
      vertex 10 34.852 6.22836
    endloop
  endfacet
  facet normal 0 0.427491 0.90402
    outer loop
      vertex 10 34.5858 6.35424
      vertex 8 34.852 6.22836
      vertex 8 34.5858 6.35424
    endloop
  endfacet
  facet normal -0 0.427491 0.90402
    outer loop
      vertex 90 34.852 6.22836
      vertex 92 34.5858 6.35424
      vertex 92 34.852 6.22836
    endloop
  endfacet
  facet normal 0 0.427491 0.90402
    outer loop
      vertex 92 34.5858 6.35424
      vertex 90 34.852 6.22836
      vertex 90 34.5858 6.35424
    endloop
  endfacet
  facet normal -0 0.242983 0.970031
    outer loop
      vertex 8 35.4147 6.05764
      vertex 10 35.1291 6.12918
      vertex 10 35.4147 6.05764
    endloop
  endfacet
  facet normal 0 0.242983 0.970031
    outer loop
      vertex 10 35.1291 6.12918
      vertex 8 35.4147 6.05764
      vertex 8 35.1291 6.12918
    endloop
  endfacet
  facet normal -0 0.242983 0.970031
    outer loop
      vertex 90 35.4147 6.05764
      vertex 92 35.1291 6.12918
      vertex 92 35.4147 6.05764
    endloop
  endfacet
  facet normal 0 0.242983 0.970031
    outer loop
      vertex 92 35.1291 6.12918
      vertex 90 35.4147 6.05764
      vertex 90 35.1291 6.12918
    endloop
  endfacet
  facet normal 0 -0.427491 0.90402
    outer loop
      vertex 8 37.4142 6.35424
      vertex 10 37.148 6.22836
      vertex 10 37.4142 6.35424
    endloop
  endfacet
  facet normal 0 -0.427491 0.90402
    outer loop
      vertex 10 37.148 6.22836
      vertex 8 37.4142 6.35424
      vertex 8 37.148 6.22836
    endloop
  endfacet
  facet normal 0 -0.427491 0.90402
    outer loop
      vertex 90 37.4142 6.35424
      vertex 92 37.148 6.22836
      vertex 92 37.4142 6.35424
    endloop
  endfacet
  facet normal 0 -0.427491 0.90402
    outer loop
      vertex 92 37.148 6.22836
      vertex 90 37.4142 6.35424
      vertex 90 37.148 6.22836
    endloop
  endfacet
  facet normal 0 -0.595699 -0.803208
    outer loop
      vertex 0 37.6667 11.4944
      vertex 10 37.9032 11.319
      vertex 10 37.6667 11.4944
    endloop
  endfacet
  facet normal -0 -0.595699 -0.803208
    outer loop
      vertex 10 37.9032 11.319
      vertex 0 37.6667 11.4944
      vertex 0 37.9032 11.319
    endloop
  endfacet
  facet normal 0 -0.595699 -0.803208
    outer loop
      vertex 90 37.6667 11.4944
      vertex 100 37.9032 11.319
      vertex 100 37.6667 11.4944
    endloop
  endfacet
  facet normal -0 -0.595699 -0.803208
    outer loop
      vertex 100 37.9032 11.319
      vertex 90 37.6667 11.4944
      vertex 90 37.9032 11.319
    endloop
  endfacet
  facet normal 0 0.857643 -0.514246
    outer loop
      vertex 10 33.3542 10.4142
      vertex 0 33.5056 10.6667
      vertex 10 33.5056 10.6667
    endloop
  endfacet
  facet normal 0 0.857643 -0.514246
    outer loop
      vertex 0 33.5056 10.6667
      vertex 10 33.3542 10.4142
      vertex 0 33.3542 10.4142
    endloop
  endfacet
  facet normal 0 0.857643 -0.514246
    outer loop
      vertex 100 33.3542 10.4142
      vertex 90 33.5056 10.6667
      vertex 100 33.5056 10.6667
    endloop
  endfacet
  facet normal 0 0.857643 -0.514246
    outer loop
      vertex 90 33.5056 10.6667
      vertex 100 33.3542 10.4142
      vertex 90 33.3542 10.4142
    endloop
  endfacet
  facet normal 0 -0.740969 0.671539
    outer loop
      vertex 8 38.1213 6.87868
      vertex 10 38.319 7.09682
      vertex 8 38.319 7.09682
    endloop
  endfacet
  facet normal 0 -0.740969 0.671539
    outer loop
      vertex 10 38.319 7.09682
      vertex 8 38.1213 6.87868
      vertex 10 38.1213 6.87868
    endloop
  endfacet
  facet normal 0 -0.740969 0.671539
    outer loop
      vertex 90 38.1213 6.87868
      vertex 92 38.319 7.09682
      vertex 90 38.319 7.09682
    endloop
  endfacet
  facet normal 0 -0.740969 0.671539
    outer loop
      vertex 92 38.319 7.09682
      vertex 90 38.1213 6.87868
      vertex 92 38.1213 6.87868
    endloop
  endfacet
  facet normal 0 -0.941507 -0.336993
    outer loop
      vertex 0 38.8708 9.87085
      vertex 10 38.7716 10.148
      vertex 0 38.7716 10.148
    endloop
  endfacet
  facet normal 0 -0.941507 -0.336993
    outer loop
      vertex 10 38.7716 10.148
      vertex 0 38.8708 9.87085
      vertex 10 38.8708 9.87085
    endloop
  endfacet
  facet normal 0 -0.941507 -0.336993
    outer loop
      vertex 90 38.8708 9.87085
      vertex 100 38.7716 10.148
      vertex 90 38.7716 10.148
    endloop
  endfacet
  facet normal 0 -0.941507 -0.336993
    outer loop
      vertex 100 38.7716 10.148
      vertex 90 38.8708 9.87085
      vertex 100 38.8708 9.87085
    endloop
  endfacet
  facet normal 0 -0.146712 0.989179
    outer loop
      vertex 8 36.5853 6.05764
      vertex 10 36.2941 6.01445
      vertex 10 36.5853 6.05764
    endloop
  endfacet
  facet normal 0 -0.146712 0.989179
    outer loop
      vertex 10 36.2941 6.01445
      vertex 8 36.5853 6.05764
      vertex 8 36.2941 6.01445
    endloop
  endfacet
  facet normal 0 -0.146712 0.989179
    outer loop
      vertex 90 36.5853 6.05764
      vertex 92 36.2941 6.01445
      vertex 92 36.5853 6.05764
    endloop
  endfacet
  facet normal 0 -0.146712 0.989179
    outer loop
      vertex 92 36.2941 6.01445
      vertex 90 36.5853 6.05764
      vertex 90 36.2941 6.01445
    endloop
  endfacet
  facet normal 0 -0.989176 0.146736
    outer loop
      vertex 0 38.9424 8.41473
      vertex 10 38.9856 8.70595
      vertex 0 38.9856 8.70595
    endloop
  endfacet
  facet normal 0 -0.989176 0.146736
    outer loop
      vertex 10 38.9856 8.70595
      vertex 0 38.9424 8.41473
      vertex 10 38.9424 8.41473
    endloop
  endfacet
  facet normal 0 -0.989176 0.146736
    outer loop
      vertex 90 38.9424 8.41473
      vertex 100 38.9856 8.70595
      vertex 90 38.9856 8.70595
    endloop
  endfacet
  facet normal 0 -0.989176 0.146736
    outer loop
      vertex 100 38.9856 8.70595
      vertex 90 38.9424 8.41473
      vertex 100 38.9424 8.41473
    endloop
  endfacet
  facet normal 0 -0.803208 -0.595699
    outer loop
      vertex 0 38.4944 10.6667
      vertex 10 38.319 10.9032
      vertex 0 38.319 10.9032
    endloop
  endfacet
  facet normal 0 -0.803208 -0.595699
    outer loop
      vertex 10 38.319 10.9032
      vertex 0 38.4944 10.6667
      vertex 10 38.4944 10.6667
    endloop
  endfacet
  facet normal 0 -0.803208 -0.595699
    outer loop
      vertex 90 38.4944 10.6667
      vertex 100 38.319 10.9032
      vertex 90 38.319 10.9032
    endloop
  endfacet
  facet normal 0 -0.803208 -0.595699
    outer loop
      vertex 100 38.319 10.9032
      vertex 90 38.4944 10.6667
      vertex 100 38.4944 10.6667
    endloop
  endfacet
  facet normal 0 -0.740908 -0.671607
    outer loop
      vertex 0 38.319 10.9032
      vertex 10 38.1213 11.1213
      vertex 0 38.1213 11.1213
    endloop
  endfacet
  facet normal 0 -0.740908 -0.671607
    outer loop
      vertex 10 38.1213 11.1213
      vertex 0 38.319 10.9032
      vertex 10 38.319 10.9032
    endloop
  endfacet
  facet normal 0 -0.740908 -0.671607
    outer loop
      vertex 90 38.319 10.9032
      vertex 100 38.1213 11.1213
      vertex 90 38.1213 11.1213
    endloop
  endfacet
  facet normal 0 -0.740908 -0.671607
    outer loop
      vertex 100 38.1213 11.1213
      vertex 90 38.319 10.9032
      vertex 100 38.319 10.9032
    endloop
  endfacet
  facet normal 0 -0.336986 0.94151
    outer loop
      vertex 8 37.148 6.22836
      vertex 10 36.8709 6.12918
      vertex 10 37.148 6.22836
    endloop
  endfacet
  facet normal 0 -0.336986 0.94151
    outer loop
      vertex 10 36.8709 6.12918
      vertex 8 37.148 6.22836
      vertex 8 36.8709 6.12918
    endloop
  endfacet
  facet normal 0 -0.336986 0.94151
    outer loop
      vertex 90 37.148 6.22836
      vertex 92 36.8709 6.12918
      vertex 92 37.148 6.22836
    endloop
  endfacet
  facet normal 0 -0.336986 0.94151
    outer loop
      vertex 92 36.8709 6.12918
      vertex 90 37.148 6.22836
      vertex 90 36.8709 6.12918
    endloop
  endfacet
  facet normal 0 0.243175 -0.969982
    outer loop
      vertex 0 35.1291 11.8708
      vertex 10 35.4147 11.9424
      vertex 10 35.1291 11.8708
    endloop
  endfacet
  facet normal 0 0.243175 -0.969982
    outer loop
      vertex 10 35.4147 11.9424
      vertex 0 35.1291 11.8708
      vertex 0 35.4147 11.9424
    endloop
  endfacet
  facet normal 0 0.243175 -0.969982
    outer loop
      vertex 90 35.1291 11.8708
      vertex 100 35.4147 11.9424
      vertex 100 35.1291 11.8708
    endloop
  endfacet
  facet normal 0 0.243175 -0.969982
    outer loop
      vertex 100 35.4147 11.9424
      vertex 90 35.1291 11.8708
      vertex 90 35.4147 11.9424
    endloop
  endfacet
  facet normal 0 0.146746 -0.989174
    outer loop
      vertex 0 35.4147 11.9424
      vertex 10 35.7059 11.9856
      vertex 10 35.4147 11.9424
    endloop
  endfacet
  facet normal 0 0.146746 -0.989174
    outer loop
      vertex 10 35.7059 11.9856
      vertex 0 35.4147 11.9424
      vertex 0 35.7059 11.9856
    endloop
  endfacet
  facet normal 0 0.146746 -0.989174
    outer loop
      vertex 90 35.4147 11.9424
      vertex 100 35.7059 11.9856
      vertex 100 35.4147 11.9424
    endloop
  endfacet
  facet normal 0 0.146746 -0.989174
    outer loop
      vertex 100 35.7059 11.9856
      vertex 90 35.4147 11.9424
      vertex 90 35.7059 11.9856
    endloop
  endfacet
  facet normal 0 -0.857661 0.514216
    outer loop
      vertex 8 38.4944 7.33329
      vertex 10 38.6458 7.58581
      vertex 8 38.6458 7.58581
    endloop
  endfacet
  facet normal 0 -0.857661 0.514216
    outer loop
      vertex 10 38.6458 7.58581
      vertex 8 38.4944 7.33329
      vertex 10 38.4944 7.33329
    endloop
  endfacet
  facet normal 0 -0.857661 0.514216
    outer loop
      vertex 90 38.4944 7.33329
      vertex 92 38.6458 7.58581
      vertex 90 38.6458 7.58581
    endloop
  endfacet
  facet normal 0 -0.857661 0.514216
    outer loop
      vertex 92 38.6458 7.58581
      vertex 90 38.4944 7.33329
      vertex 92 38.4944 7.33329
    endloop
  endfacet
  facet normal -0 0.595655 0.803241
    outer loop
      vertex 8 34.3333 6.50559
      vertex 10 34.0968 6.68097
      vertex 10 34.3333 6.50559
    endloop
  endfacet
  facet normal 0 0.595655 0.803241
    outer loop
      vertex 10 34.0968 6.68097
      vertex 8 34.3333 6.50559
      vertex 8 34.0968 6.68097
    endloop
  endfacet
  facet normal -0 0.595655 0.803241
    outer loop
      vertex 90 34.3333 6.50559
      vertex 92 34.0968 6.68097
      vertex 92 34.3333 6.50559
    endloop
  endfacet
  facet normal 0 0.595655 0.803241
    outer loop
      vertex 92 34.0968 6.68097
      vertex 90 34.3333 6.50559
      vertex 90 34.0968 6.68097
    endloop
  endfacet
  facet normal 0 0.0489044 -0.998803
    outer loop
      vertex 0 35.7059 11.9856
      vertex 10 36 12
      vertex 10 35.7059 11.9856
    endloop
  endfacet
  facet normal 0 0.0489044 -0.998803
    outer loop
      vertex 10 36 12
      vertex 0 35.7059 11.9856
      vertex 0 36 12
    endloop
  endfacet
  facet normal 0 0.0489044 -0.998803
    outer loop
      vertex 90 35.7059 11.9856
      vertex 100 36 12
      vertex 100 35.7059 11.9856
    endloop
  endfacet
  facet normal 0 0.0489044 -0.998803
    outer loop
      vertex 100 36 12
      vertex 90 35.7059 11.9856
      vertex 90 36 12
    endloop
  endfacet
  facet normal 0 0.904088 0.427347
    outer loop
      vertex 10 33.3542 7.58581
      vertex 8 33.2284 7.85195
      vertex 10 33.2284 7.85195
    endloop
  endfacet
  facet normal 0 0.904088 0.427347
    outer loop
      vertex 8 33.2284 7.85195
      vertex 10 33.3542 7.58581
      vertex 8 33.3542 7.58581
    endloop
  endfacet
  facet normal 0 0.904088 0.427347
    outer loop
      vertex 92 33.3542 7.58581
      vertex 90 33.2284 7.85195
      vertex 92 33.2284 7.85195
    endloop
  endfacet
  facet normal 0 0.904088 0.427347
    outer loop
      vertex 90 33.2284 7.85195
      vertex 92 33.3542 7.58581
      vertex 90 33.3542 7.58581
    endloop
  endfacet
  facet normal 0 -0.337047 -0.941488
    outer loop
      vertex 0 36.8709 11.8708
      vertex 10 37.148 11.7716
      vertex 10 36.8709 11.8708
    endloop
  endfacet
  facet normal -0 -0.337047 -0.941488
    outer loop
      vertex 10 37.148 11.7716
      vertex 0 36.8709 11.8708
      vertex 0 37.148 11.7716
    endloop
  endfacet
  facet normal 0 -0.337047 -0.941488
    outer loop
      vertex 90 36.8709 11.8708
      vertex 100 37.148 11.7716
      vertex 100 36.8709 11.8708
    endloop
  endfacet
  facet normal -0 -0.337047 -0.941488
    outer loop
      vertex 100 37.148 11.7716
      vertex 90 36.8709 11.8708
      vertex 90 37.148 11.7716
    endloop
  endfacet
  facet normal 0 0.427269 -0.904125
    outer loop
      vertex 0 34.5858 11.6458
      vertex 10 34.852 11.7716
      vertex 10 34.5858 11.6458
    endloop
  endfacet
  facet normal 0 0.427269 -0.904125
    outer loop
      vertex 10 34.852 11.7716
      vertex 0 34.5858 11.6458
      vertex 0 34.852 11.7716
    endloop
  endfacet
  facet normal 0 0.427269 -0.904125
    outer loop
      vertex 90 34.5858 11.6458
      vertex 100 34.852 11.7716
      vertex 100 34.5858 11.6458
    endloop
  endfacet
  facet normal 0 0.427269 -0.904125
    outer loop
      vertex 100 34.852 11.7716
      vertex 90 34.5858 11.6458
      vertex 90 34.852 11.7716
    endloop
  endfacet
  facet normal 0 -0.904088 0.427347
    outer loop
      vertex 8 38.6458 7.58581
      vertex 10 38.7716 7.85195
      vertex 8 38.7716 7.85195
    endloop
  endfacet
  facet normal 0 -0.904088 0.427347
    outer loop
      vertex 10 38.7716 7.85195
      vertex 8 38.6458 7.58581
      vertex 10 38.6458 7.58581
    endloop
  endfacet
  facet normal 0 -0.904088 0.427347
    outer loop
      vertex 90 38.6458 7.58581
      vertex 92 38.7716 7.85195
      vertex 90 38.7716 7.85195
    endloop
  endfacet
  facet normal 0 -0.904088 0.427347
    outer loop
      vertex 92 38.7716 7.85195
      vertex 90 38.6458 7.58581
      vertex 92 38.6458 7.58581
    endloop
  endfacet
  facet normal 0 -0.146746 -0.989174
    outer loop
      vertex 0 36.2941 11.9856
      vertex 10 36.5853 11.9424
      vertex 10 36.2941 11.9856
    endloop
  endfacet
  facet normal -0 -0.146746 -0.989174
    outer loop
      vertex 10 36.5853 11.9424
      vertex 0 36.2941 11.9856
      vertex 0 36.5853 11.9424
    endloop
  endfacet
  facet normal 0 -0.146746 -0.989174
    outer loop
      vertex 90 36.2941 11.9856
      vertex 100 36.5853 11.9424
      vertex 100 36.2941 11.9856
    endloop
  endfacet
  facet normal -0 -0.146746 -0.989174
    outer loop
      vertex 100 36.5853 11.9424
      vertex 90 36.2941 11.9856
      vertex 90 36.5853 11.9424
    endloop
  endfacet
  facet normal 0 0.337047 -0.941488
    outer loop
      vertex 0 34.852 11.7716
      vertex 10 35.1291 11.8708
      vertex 10 34.852 11.7716
    endloop
  endfacet
  facet normal 0 0.337047 -0.941488
    outer loop
      vertex 10 35.1291 11.8708
      vertex 0 34.852 11.7716
      vertex 0 35.1291 11.8708
    endloop
  endfacet
  facet normal 0 0.337047 -0.941488
    outer loop
      vertex 90 34.852 11.7716
      vertex 100 35.1291 11.8708
      vertex 100 34.852 11.7716
    endloop
  endfacet
  facet normal 0 0.337047 -0.941488
    outer loop
      vertex 100 35.1291 11.8708
      vertex 90 34.852 11.7716
      vertex 90 35.1291 11.8708
    endloop
  endfacet
  facet normal 0 -0.595655 0.803241
    outer loop
      vertex 8 37.9032 6.68097
      vertex 10 37.6667 6.50559
      vertex 10 37.9032 6.68097
    endloop
  endfacet
  facet normal 0 -0.595655 0.803241
    outer loop
      vertex 10 37.6667 6.50559
      vertex 8 37.9032 6.68097
      vertex 8 37.6667 6.50559
    endloop
  endfacet
  facet normal 0 -0.595655 0.803241
    outer loop
      vertex 90 37.9032 6.68097
      vertex 92 37.6667 6.50559
      vertex 92 37.9032 6.68097
    endloop
  endfacet
  facet normal 0 -0.595655 0.803241
    outer loop
      vertex 92 37.6667 6.50559
      vertex 90 37.9032 6.68097
      vertex 90 37.6667 6.50559
    endloop
  endfacet
  facet normal 0 -0.803172 0.595747
    outer loop
      vertex 8 38.319 7.09682
      vertex 10 38.4944 7.33329
      vertex 8 38.4944 7.33329
    endloop
  endfacet
  facet normal 0 -0.803172 0.595747
    outer loop
      vertex 10 38.4944 7.33329
      vertex 8 38.319 7.09682
      vertex 10 38.319 7.09682
    endloop
  endfacet
  facet normal 0 -0.803172 0.595747
    outer loop
      vertex 90 38.319 7.09682
      vertex 92 38.4944 7.33329
      vertex 90 38.4944 7.33329
    endloop
  endfacet
  facet normal 0 -0.803172 0.595747
    outer loop
      vertex 92 38.4944 7.33329
      vertex 90 38.319 7.09682
      vertex 92 38.319 7.09682
    endloop
  endfacet
  facet normal 0 0.904125 -0.427269
    outer loop
      vertex 10 33.2284 10.148
      vertex 0 33.3542 10.4142
      vertex 10 33.3542 10.4142
    endloop
  endfacet
  facet normal 0 0.904125 -0.427269
    outer loop
      vertex 0 33.3542 10.4142
      vertex 10 33.2284 10.148
      vertex 0 33.2284 10.148
    endloop
  endfacet
  facet normal 0 0.904125 -0.427269
    outer loop
      vertex 100 33.2284 10.148
      vertex 90 33.3542 10.4142
      vertex 100 33.3542 10.4142
    endloop
  endfacet
  facet normal 0 0.904125 -0.427269
    outer loop
      vertex 90 33.3542 10.4142
      vertex 100 33.2284 10.148
      vertex 90 33.2284 10.148
    endloop
  endfacet
  facet normal 0 0.671607 -0.740908
    outer loop
      vertex 0 33.8787 11.1213
      vertex 10 34.0968 11.319
      vertex 10 33.8787 11.1213
    endloop
  endfacet
  facet normal 0 0.671607 -0.740908
    outer loop
      vertex 10 34.0968 11.319
      vertex 0 33.8787 11.1213
      vertex 0 34.0968 11.319
    endloop
  endfacet
  facet normal 0 0.671607 -0.740908
    outer loop
      vertex 90 33.8787 11.1213
      vertex 100 34.0968 11.319
      vertex 100 33.8787 11.1213
    endloop
  endfacet
  facet normal 0 0.671607 -0.740908
    outer loop
      vertex 100 34.0968 11.319
      vertex 90 33.8787 11.1213
      vertex 90 34.0968 11.319
    endloop
  endfacet
  facet normal 0 0.803172 0.595747
    outer loop
      vertex 10 33.681 7.09682
      vertex 8 33.5056 7.33329
      vertex 10 33.5056 7.33329
    endloop
  endfacet
  facet normal 0 0.803172 0.595747
    outer loop
      vertex 8 33.5056 7.33329
      vertex 10 33.681 7.09682
      vertex 8 33.681 7.09682
    endloop
  endfacet
  facet normal 0 0.803172 0.595747
    outer loop
      vertex 92 33.681 7.09682
      vertex 90 33.5056 7.33329
      vertex 92 33.5056 7.33329
    endloop
  endfacet
  facet normal 0 0.803172 0.595747
    outer loop
      vertex 90 33.5056 7.33329
      vertex 92 33.681 7.09682
      vertex 90 33.681 7.09682
    endloop
  endfacet
  facet normal 0 -0.989176 -0.146736
    outer loop
      vertex 0 38.9856 9.29405
      vertex 10 38.9424 9.58527
      vertex 0 38.9424 9.58527
    endloop
  endfacet
  facet normal 0 -0.989176 -0.146736
    outer loop
      vertex 10 38.9424 9.58527
      vertex 0 38.9856 9.29405
      vertex 10 38.9856 9.29405
    endloop
  endfacet
  facet normal 0 -0.989176 -0.146736
    outer loop
      vertex 90 38.9856 9.29405
      vertex 100 38.9424 9.58527
      vertex 90 38.9424 9.58527
    endloop
  endfacet
  facet normal 0 -0.989176 -0.146736
    outer loop
      vertex 100 38.9424 9.58527
      vertex 90 38.9856 9.29405
      vertex 100 38.9856 9.29405
    endloop
  endfacet
  facet normal 0 0.740969 0.671539
    outer loop
      vertex 10 33.8787 6.87868
      vertex 8 33.681 7.09682
      vertex 10 33.681 7.09682
    endloop
  endfacet
  facet normal 0 0.740969 0.671539
    outer loop
      vertex 8 33.681 7.09682
      vertex 10 33.8787 6.87868
      vertex 8 33.8787 6.87868
    endloop
  endfacet
  facet normal 0 0.740969 0.671539
    outer loop
      vertex 92 33.8787 6.87868
      vertex 90 33.681 7.09682
      vertex 92 33.681 7.09682
    endloop
  endfacet
  facet normal 0 0.740969 0.671539
    outer loop
      vertex 90 33.681 7.09682
      vertex 92 33.8787 6.87868
      vertex 90 33.8787 6.87868
    endloop
  endfacet
  facet normal 0 -0.998803 -0.0489126
    outer loop
      vertex 0 39 9
      vertex 10 38.9856 9.29405
      vertex 0 38.9856 9.29405
    endloop
  endfacet
  facet normal 0 -0.998803 -0.0489126
    outer loop
      vertex 10 38.9856 9.29405
      vertex 0 39 9
      vertex 10 39 9
    endloop
  endfacet
  facet normal 0 -0.998803 -0.0489126
    outer loop
      vertex 90 39 9
      vertex 100 38.9856 9.29405
      vertex 90 38.9856 9.29405
    endloop
  endfacet
  facet normal 0 -0.998803 -0.0489126
    outer loop
      vertex 100 38.9856 9.29405
      vertex 90 39 9
      vertex 100 39 9
    endloop
  endfacet
  facet normal 0 -0.969978 -0.243191
    outer loop
      vertex 0 38.9424 9.58527
      vertex 10 38.8708 9.87085
      vertex 0 38.8708 9.87085
    endloop
  endfacet
  facet normal 0 -0.969978 -0.243191
    outer loop
      vertex 10 38.8708 9.87085
      vertex 0 38.9424 9.58527
      vertex 10 38.9424 9.58527
    endloop
  endfacet
  facet normal 0 -0.969978 -0.243191
    outer loop
      vertex 90 38.9424 9.58527
      vertex 100 38.8708 9.87085
      vertex 90 38.8708 9.87085
    endloop
  endfacet
  facet normal 0 -0.969978 -0.243191
    outer loop
      vertex 100 38.8708 9.87085
      vertex 90 38.9424 9.58527
      vertex 100 38.9424 9.58527
    endloop
  endfacet
  facet normal 0 0.989176 -0.146736
    outer loop
      vertex 10 33.0144 9.29405
      vertex 0 33.0576 9.58527
      vertex 10 33.0576 9.58527
    endloop
  endfacet
  facet normal 0 0.989176 -0.146736
    outer loop
      vertex 0 33.0576 9.58527
      vertex 10 33.0144 9.29405
      vertex 0 33.0144 9.29405
    endloop
  endfacet
  facet normal 0 0.989176 -0.146736
    outer loop
      vertex 100 33.0144 9.29405
      vertex 90 33.0576 9.58527
      vertex 100 33.0576 9.58527
    endloop
  endfacet
  facet normal 0 0.989176 -0.146736
    outer loop
      vertex 90 33.0576 9.58527
      vertex 100 33.0144 9.29405
      vertex 90 33.0144 9.29405
    endloop
  endfacet
  facet normal 0 -0.857643 -0.514246
    outer loop
      vertex 0 38.6458 10.4142
      vertex 10 38.4944 10.6667
      vertex 0 38.4944 10.6667
    endloop
  endfacet
  facet normal 0 -0.857643 -0.514246
    outer loop
      vertex 10 38.4944 10.6667
      vertex 0 38.6458 10.4142
      vertex 10 38.6458 10.4142
    endloop
  endfacet
  facet normal 0 -0.857643 -0.514246
    outer loop
      vertex 90 38.6458 10.4142
      vertex 100 38.4944 10.6667
      vertex 90 38.4944 10.6667
    endloop
  endfacet
  facet normal 0 -0.857643 -0.514246
    outer loop
      vertex 100 38.4944 10.6667
      vertex 90 38.6458 10.4142
      vertex 100 38.6458 10.4142
    endloop
  endfacet
  facet normal 0 0.998803 0.0489126
    outer loop
      vertex 10 33.0144 8.70595
      vertex 0 33 9
      vertex 10 33 9
    endloop
  endfacet
  facet normal 0 0.998803 0.0489126
    outer loop
      vertex 0 33 9
      vertex 10 33.0144 8.70595
      vertex 0 33.0144 8.70595
    endloop
  endfacet
  facet normal 0 0.998803 0.0489126
    outer loop
      vertex 100 33.0144 8.70595
      vertex 90 33 9
      vertex 100 33 9
    endloop
  endfacet
  facet normal 0 0.998803 0.0489126
    outer loop
      vertex 90 33 9
      vertex 100 33.0144 8.70595
      vertex 90 33.0144 8.70595
    endloop
  endfacet
  facet normal 0 0.969978 0.243191
    outer loop
      vertex 10 33.1292 8.12915
      vertex 0 33.0576 8.41473
      vertex 10 33.0576 8.41473
    endloop
  endfacet
  facet normal 0 0.969978 0.243191
    outer loop
      vertex 0 33.0576 8.41473
      vertex 10 33.1292 8.12915
      vertex 0 33.1292 8.12915
    endloop
  endfacet
  facet normal 0 0.969978 0.243191
    outer loop
      vertex 100 33.1292 8.12915
      vertex 90 33.0576 8.41473
      vertex 100 33.0576 8.41473
    endloop
  endfacet
  facet normal 0 0.969978 0.243191
    outer loop
      vertex 90 33.0576 8.41473
      vertex 100 33.1292 8.12915
      vertex 90 33.1292 8.12915
    endloop
  endfacet
  facet normal 0 0.595699 -0.803208
    outer loop
      vertex 0 34.0968 11.319
      vertex 10 34.3333 11.4944
      vertex 10 34.0968 11.319
    endloop
  endfacet
  facet normal 0 0.595699 -0.803208
    outer loop
      vertex 10 34.3333 11.4944
      vertex 0 34.0968 11.319
      vertex 0 34.3333 11.4944
    endloop
  endfacet
  facet normal 0 0.595699 -0.803208
    outer loop
      vertex 90 34.0968 11.319
      vertex 100 34.3333 11.4944
      vertex 100 34.0968 11.319
    endloop
  endfacet
  facet normal 0 0.595699 -0.803208
    outer loop
      vertex 100 34.3333 11.4944
      vertex 90 34.0968 11.319
      vertex 90 34.3333 11.4944
    endloop
  endfacet
  facet normal 0 -0.904125 -0.427269
    outer loop
      vertex 0 38.7716 10.148
      vertex 10 38.6458 10.4142
      vertex 0 38.6458 10.4142
    endloop
  endfacet
  facet normal 0 -0.904125 -0.427269
    outer loop
      vertex 10 38.6458 10.4142
      vertex 0 38.7716 10.148
      vertex 10 38.7716 10.148
    endloop
  endfacet
  facet normal 0 -0.904125 -0.427269
    outer loop
      vertex 90 38.7716 10.148
      vertex 100 38.6458 10.4142
      vertex 90 38.6458 10.4142
    endloop
  endfacet
  facet normal 0 -0.904125 -0.427269
    outer loop
      vertex 100 38.6458 10.4142
      vertex 90 38.7716 10.148
      vertex 100 38.7716 10.148
    endloop
  endfacet
  facet normal 0 -0.998803 0.0489126
    outer loop
      vertex 0 38.9856 8.70595
      vertex 10 39 9
      vertex 0 39 9
    endloop
  endfacet
  facet normal 0 -0.998803 0.0489126
    outer loop
      vertex 10 39 9
      vertex 0 38.9856 8.70595
      vertex 10 38.9856 8.70595
    endloop
  endfacet
  facet normal 0 -0.998803 0.0489126
    outer loop
      vertex 90 38.9856 8.70595
      vertex 100 39 9
      vertex 90 39 9
    endloop
  endfacet
  facet normal 0 -0.998803 0.0489126
    outer loop
      vertex 100 39 9
      vertex 90 38.9856 8.70595
      vertex 100 38.9856 8.70595
    endloop
  endfacet
  facet normal 0 0.857661 0.514216
    outer loop
      vertex 10 33.5056 7.33329
      vertex 8 33.3542 7.58581
      vertex 10 33.3542 7.58581
    endloop
  endfacet
  facet normal 0 0.857661 0.514216
    outer loop
      vertex 8 33.3542 7.58581
      vertex 10 33.5056 7.33329
      vertex 8 33.5056 7.33329
    endloop
  endfacet
  facet normal 0 0.857661 0.514216
    outer loop
      vertex 92 33.5056 7.33329
      vertex 90 33.3542 7.58581
      vertex 92 33.3542 7.58581
    endloop
  endfacet
  facet normal 0 0.857661 0.514216
    outer loop
      vertex 90 33.3542 7.58581
      vertex 92 33.5056 7.33329
      vertex 90 33.5056 7.33329
    endloop
  endfacet
  facet normal 0 0.803208 -0.595699
    outer loop
      vertex 10 33.5056 10.6667
      vertex 0 33.681 10.9032
      vertex 10 33.681 10.9032
    endloop
  endfacet
  facet normal 0 0.803208 -0.595699
    outer loop
      vertex 0 33.681 10.9032
      vertex 10 33.5056 10.6667
      vertex 0 33.5056 10.6667
    endloop
  endfacet
  facet normal 0 0.803208 -0.595699
    outer loop
      vertex 100 33.5056 10.6667
      vertex 90 33.681 10.9032
      vertex 100 33.681 10.9032
    endloop
  endfacet
  facet normal 0 0.803208 -0.595699
    outer loop
      vertex 90 33.681 10.9032
      vertex 100 33.5056 10.6667
      vertex 90 33.5056 10.6667
    endloop
  endfacet
  facet normal 0 0.941507 -0.336993
    outer loop
      vertex 10 33.1292 9.87085
      vertex 0 33.2284 10.148
      vertex 10 33.2284 10.148
    endloop
  endfacet
  facet normal 0 0.941507 -0.336993
    outer loop
      vertex 0 33.2284 10.148
      vertex 10 33.1292 9.87085
      vertex 0 33.1292 9.87085
    endloop
  endfacet
  facet normal 0 0.941507 -0.336993
    outer loop
      vertex 100 33.1292 9.87085
      vertex 90 33.2284 10.148
      vertex 100 33.2284 10.148
    endloop
  endfacet
  facet normal 0 0.941507 -0.336993
    outer loop
      vertex 90 33.2284 10.148
      vertex 100 33.1292 9.87085
      vertex 90 33.1292 9.87085
    endloop
  endfacet
  facet normal -0 0.671625 0.740891
    outer loop
      vertex 8 34.0968 6.68097
      vertex 10 33.8787 6.87868
      vertex 10 34.0968 6.68097
    endloop
  endfacet
  facet normal 0 0.671625 0.740891
    outer loop
      vertex 10 33.8787 6.87868
      vertex 8 34.0968 6.68097
      vertex 8 33.8787 6.87868
    endloop
  endfacet
  facet normal -0 0.671625 0.740891
    outer loop
      vertex 90 34.0968 6.68097
      vertex 92 33.8787 6.87868
      vertex 92 34.0968 6.68097
    endloop
  endfacet
  facet normal 0 0.671625 0.740891
    outer loop
      vertex 92 33.8787 6.87868
      vertex 90 34.0968 6.68097
      vertex 90 33.8787 6.87868
    endloop
  endfacet
  facet normal 0 -0.941569 0.336821
    outer loop
      vertex 8 38.8246 8
      vertex 0 38.8708 8.12915
      vertex 0 38.8246 8
    endloop
  endfacet
  facet normal 0 -0.941569 0.336821
    outer loop
      vertex 0 38.8708 8.12915
      vertex 8 38.8246 8
      vertex 10 38.8708 8.12915
    endloop
  endfacet
  facet normal 0 -0.94149 0.337041
    outer loop
      vertex 10 38.7716 7.85195
      vertex 8 38.8246 8
      vertex 8 38.7716 7.85195
    endloop
  endfacet
  facet normal -8.55933e-06 -0.941527 0.336939
    outer loop
      vertex 8 38.8246 8
      vertex 10 38.7716 7.85195
      vertex 10 38.8708 8.12915
    endloop
  endfacet
  facet normal 0 -0.941569 0.336821
    outer loop
      vertex 90 38.8708 8.12915
      vertex 92 38.8246 8
      vertex 100 38.8708 8.12915
    endloop
  endfacet
  facet normal 8.55933e-06 -0.941527 0.336939
    outer loop
      vertex 90 38.7716 7.85195
      vertex 92 38.8246 8
      vertex 90 38.8708 8.12915
    endloop
  endfacet
  facet normal 0 -0.94149 0.337041
    outer loop
      vertex 92 38.8246 8
      vertex 90 38.7716 7.85195
      vertex 92 38.7716 7.85195
    endloop
  endfacet
  facet normal 0 -0.941569 0.336821
    outer loop
      vertex 100 38.8708 8.12915
      vertex 92 38.8246 8
      vertex 100 38.8246 8
    endloop
  endfacet
  facet normal 0 -0.0489044 -0.998803
    outer loop
      vertex 0 36 12
      vertex 10 36.2941 11.9856
      vertex 10 36 12
    endloop
  endfacet
  facet normal -0 -0.0489044 -0.998803
    outer loop
      vertex 10 36.2941 11.9856
      vertex 0 36 12
      vertex 0 36.2941 11.9856
    endloop
  endfacet
  facet normal 0 -0.0489044 -0.998803
    outer loop
      vertex 90 36 12
      vertex 100 36.2941 11.9856
      vertex 100 36 12
    endloop
  endfacet
  facet normal -0 -0.0489044 -0.998803
    outer loop
      vertex 100 36.2941 11.9856
      vertex 90 36 12
      vertex 90 36.2941 11.9856
    endloop
  endfacet
  facet normal 0 -0.427269 -0.904125
    outer loop
      vertex 0 37.148 11.7716
      vertex 10 37.4142 11.6458
      vertex 10 37.148 11.7716
    endloop
  endfacet
  facet normal -0 -0.427269 -0.904125
    outer loop
      vertex 10 37.4142 11.6458
      vertex 0 37.148 11.7716
      vertex 0 37.4142 11.6458
    endloop
  endfacet
  facet normal 0 -0.427269 -0.904125
    outer loop
      vertex 90 37.148 11.7716
      vertex 100 37.4142 11.6458
      vertex 100 37.148 11.7716
    endloop
  endfacet
  facet normal -0 -0.427269 -0.904125
    outer loop
      vertex 100 37.4142 11.6458
      vertex 90 37.148 11.7716
      vertex 90 37.4142 11.6458
    endloop
  endfacet
  facet normal 0 -0.969978 0.243191
    outer loop
      vertex 0 38.8708 8.12915
      vertex 10 38.9424 8.41473
      vertex 0 38.9424 8.41473
    endloop
  endfacet
  facet normal 0 -0.969978 0.243191
    outer loop
      vertex 10 38.9424 8.41473
      vertex 0 38.8708 8.12915
      vertex 10 38.8708 8.12915
    endloop
  endfacet
  facet normal 0 -0.969978 0.243191
    outer loop
      vertex 90 38.8708 8.12915
      vertex 100 38.9424 8.41473
      vertex 90 38.9424 8.41473
    endloop
  endfacet
  facet normal 0 -0.969978 0.243191
    outer loop
      vertex 100 38.9424 8.41473
      vertex 90 38.8708 8.12915
      vertex 100 38.8708 8.12915
    endloop
  endfacet
  facet normal 1 -0 0
    outer loop
      vertex 65 25 7
      vertex 65 30 3
      vertex 65 30 7
    endloop
  endfacet
  facet normal 1 0 0
    outer loop
      vertex 65 30 3
      vertex 65 25 7
      vertex 65 25 3
    endloop
  endfacet
  facet normal 1 -0 0
    outer loop
      vertex 65 25 0
      vertex 65 40 -8
      vertex 65 40 0
    endloop
  endfacet
  facet normal 1 0 0
    outer loop
      vertex 65 40 -8
      vertex 65 25 0
      vertex 65 25 -8
    endloop
  endfacet
  facet normal -0 0 1
    outer loop
      vertex 35 30 7
      vertex 65 25 7
      vertex 65 30 7
    endloop
  endfacet
  facet normal 0 0 1
    outer loop
      vertex 65 25 7
      vertex 35 30 7
      vertex 35 25 7
    endloop
  endfacet
  facet normal -1 0 0
    outer loop
      vertex 35 25 3
      vertex 35 30 7
      vertex 35 30 3
    endloop
  endfacet
  facet normal -1 -0 0
    outer loop
      vertex 35 30 7
      vertex 35 25 3
      vertex 35 25 7
    endloop
  endfacet
  facet normal -1 0 0
    outer loop
      vertex 35 25 -8
      vertex 35 40 0
      vertex 35 40 -8
    endloop
  endfacet
  facet normal -1 -0 0
    outer loop
      vertex 35 40 0
      vertex 35 25 -8
      vertex 35 25 0
    endloop
  endfacet
  facet normal 0 1 -0
    outer loop
      vertex 65 40 -8
      vertex 35 40 0
      vertex 65 40 0
    endloop
  endfacet
  facet normal 0 1 0
    outer loop
      vertex 35 40 0
      vertex 65 40 -8
      vertex 35 40 -8
    endloop
  endfacet
  facet normal 0 -1 0
    outer loop
      vertex 35 25 3
      vertex 65 25 7
      vertex 35 25 7
    endloop
  endfacet
  facet normal 0 -1 -0
    outer loop
      vertex 65 25 7
      vertex 35 25 3
      vertex 65 25 3
    endloop
  endfacet
  facet normal 0 -1 0
    outer loop
      vertex 35 25 -8
      vertex 65 25 0
      vertex 35 25 0
    endloop
  endfacet
  facet normal 0 -1 -0
    outer loop
      vertex 65 25 0
      vertex 35 25 -8
      vertex 65 25 -8
    endloop
  endfacet
  facet normal 0 0 -1
    outer loop
      vertex 35 25 -8
      vertex 65 40 -8
      vertex 65 25 -8
    endloop
  endfacet
  facet normal -0 0 -1
    outer loop
      vertex 65 40 -8
      vertex 35 25 -8
      vertex 35 40 -8
    endloop
  endfacet
  facet normal 0 0 -1
    outer loop
      vertex 65 40 0
      vertex 100 0 0
      vertex 65 25 0
    endloop
  endfacet
  facet normal 0 0 -1
    outer loop
      vertex 100 0 0
      vertex 35 25 0
      vertex 65 25 0
    endloop
  endfacet
  facet normal -0 0 -1
    outer loop
      vertex 35 25 0
      vertex 0 0 0
      vertex 35 40 0
    endloop
  endfacet
  facet normal 0 0 -1
    outer loop
      vertex 0 0 0
      vertex 35 25 0
      vertex 100 0 0
    endloop
  endfacet
  facet normal 0 0 -1
    outer loop
      vertex 100 0 0
      vertex 65 40 0
      vertex 100 80 0
    endloop
  endfacet
  facet normal 0 0 -1
    outer loop
      vertex 35 40 0
      vertex 100 80 0
      vertex 65 40 0
    endloop
  endfacet
  facet normal 0 0 -1
    outer loop
      vertex 35 40 0
      vertex 0 80 0
      vertex 100 80 0
    endloop
  endfacet
  facet normal 0 0 -1
    outer loop
      vertex 0 80 0
      vertex 35 40 0
      vertex 0 0 0
    endloop
  endfacet
  facet normal 0 -1 0
    outer loop
      vertex 0 0 0
      vertex 100 0 3
      vertex 0 0 3
    endloop
  endfacet
  facet normal 0 -1 -0
    outer loop
      vertex 100 0 3
      vertex 0 0 0
      vertex 100 0 0
    endloop
  endfacet
  facet normal 1 0 0
    outer loop
      vertex 90 80 18
      vertex 90 40 15
      vertex 90 80 3
    endloop
  endfacet
  facet normal 1 -0 0
    outer loop
      vertex 90 30 18
      vertex 90 40 15
      vertex 90 80 18
    endloop
  endfacet
  facet normal 1 0 0
    outer loop
      vertex 90 40 15
      vertex 90 30 18
      vertex 90 32 15
    endloop
  endfacet
  facet normal 1 0 0
    outer loop
      vertex 90 30 3
      vertex 90 32 15
      vertex 90 30 18
    endloop
  endfacet
  facet normal 1 0 0
    outer loop
      vertex 90 32 15
      vertex 90 30 3
      vertex 90 32 3
    endloop
  endfacet
  facet normal 1 0 0
    outer loop
      vertex 90 80 3
      vertex 90 40 15
      vertex 90 40 3
    endloop
  endfacet
  facet normal 1 0 0
    outer loop
      vertex 90 38.9856 9.29405
      vertex 90 38.9856 8.70595
      vertex 90 39 9
    endloop
  endfacet
  facet normal 1 0 0
    outer loop
      vertex 90 38.9424 9.58527
      vertex 90 38.9856 8.70595
      vertex 90 38.9856 9.29405
    endloop
  endfacet
  facet normal 1 0 0
    outer loop
      vertex 90 38.9424 9.58527
      vertex 90 38.9424 8.41473
      vertex 90 38.9856 8.70595
    endloop
  endfacet
  facet normal 1 0 0
    outer loop
      vertex 90 38.8708 9.87085
      vertex 90 38.9424 8.41473
      vertex 90 38.9424 9.58527
    endloop
  endfacet
  facet normal 1 0 0
    outer loop
      vertex 90 38.8708 9.87085
      vertex 90 38.8708 8.12915
      vertex 90 38.9424 8.41473
    endloop
  endfacet
  facet normal 1 0 0
    outer loop
      vertex 90 38.7716 10.148
      vertex 90 38.8708 8.12915
      vertex 90 38.8708 9.87085
    endloop
  endfacet
  facet normal 1 0 0
    outer loop
      vertex 90 38.7716 10.148
      vertex 90 38.7716 7.85195
      vertex 90 38.8708 8.12915
    endloop
  endfacet
  facet normal 1 0 0
    outer loop
      vertex 90 38.6458 10.4142
      vertex 90 38.7716 7.85195
      vertex 90 38.7716 10.148
    endloop
  endfacet
  facet normal 1 0 0
    outer loop
      vertex 90 38.6458 10.4142
      vertex 90 38.6458 7.58581
      vertex 90 38.7716 7.85195
    endloop
  endfacet
  facet normal 1 0 0
    outer loop
      vertex 90 38.4944 10.6667
      vertex 90 38.6458 7.58581
      vertex 90 38.6458 10.4142
    endloop
  endfacet
  facet normal 1 0 0
    outer loop
      vertex 90 38.4944 10.6667
      vertex 90 38.4944 7.33329
      vertex 90 38.6458 7.58581
    endloop
  endfacet
  facet normal 1 0 0
    outer loop
      vertex 90 38.319 10.9032
      vertex 90 38.4944 7.33329
      vertex 90 38.4944 10.6667
    endloop
  endfacet
  facet normal 1 0 0
    outer loop
      vertex 90 38.319 10.9032
      vertex 90 38.319 7.09682
      vertex 90 38.4944 7.33329
    endloop
  endfacet
  facet normal 1 0 0
    outer loop
      vertex 90 38.1213 11.1213
      vertex 90 38.319 7.09682
      vertex 90 38.319 10.9032
    endloop
  endfacet
  facet normal 1 0 0
    outer loop
      vertex 90 38.1213 11.1213
      vertex 90 38.1213 6.87868
      vertex 90 38.319 7.09682
    endloop
  endfacet
  facet normal 1 0 0
    outer loop
      vertex 90 37.9032 11.319
      vertex 90 38.1213 6.87868
      vertex 90 38.1213 11.1213
    endloop
  endfacet
  facet normal 1 0 0
    outer loop
      vertex 90 37.9032 11.319
      vertex 90 37.9032 6.68097
      vertex 90 38.1213 6.87868
    endloop
  endfacet
  facet normal 1 0 0
    outer loop
      vertex 90 37.6667 11.4944
      vertex 90 37.9032 6.68097
      vertex 90 37.9032 11.319
    endloop
  endfacet
  facet normal 1 0 0
    outer loop
      vertex 90 37.6667 11.4944
      vertex 90 37.6667 6.50559
      vertex 90 37.9032 6.68097
    endloop
  endfacet
  facet normal 1 0 0
    outer loop
      vertex 90 37.4142 11.6458
      vertex 90 37.6667 6.50559
      vertex 90 37.6667 11.4944
    endloop
  endfacet
  facet normal 1 0 0
    outer loop
      vertex 90 37.4142 11.6458
      vertex 90 37.4142 6.35424
      vertex 90 37.6667 6.50559
    endloop
  endfacet
  facet normal 1 0 0
    outer loop
      vertex 90 37.148 11.7716
      vertex 90 37.4142 6.35424
      vertex 90 37.4142 11.6458
    endloop
  endfacet
  facet normal 1 0 0
    outer loop
      vertex 90 37.148 11.7716
      vertex 90 37.148 6.22836
      vertex 90 37.4142 6.35424
    endloop
  endfacet
  facet normal 1 0 0
    outer loop
      vertex 90 36.8709 11.8708
      vertex 90 37.148 6.22836
      vertex 90 37.148 11.7716
    endloop
  endfacet
  facet normal 1 0 0
    outer loop
      vertex 90 36.8709 11.8708
      vertex 90 36.8709 6.12918
      vertex 90 37.148 6.22836
    endloop
  endfacet
  facet normal 1 0 0
    outer loop
      vertex 90 36.5853 11.9424
      vertex 90 36.8709 6.12918
      vertex 90 36.8709 11.8708
    endloop
  endfacet
  facet normal 1 0 0
    outer loop
      vertex 90 36.5853 11.9424
      vertex 90 36.5853 6.05764
      vertex 90 36.8709 6.12918
    endloop
  endfacet
  facet normal 1 0 0
    outer loop
      vertex 90 36.2941 11.9856
      vertex 90 36.5853 6.05764
      vertex 90 36.5853 11.9424
    endloop
  endfacet
  facet normal 1 0 0
    outer loop
      vertex 90 36.2941 11.9856
      vertex 90 36.2941 6.01445
      vertex 90 36.5853 6.05764
    endloop
  endfacet
  facet normal 1 0 0
    outer loop
      vertex 90 36 12
      vertex 90 36.2941 6.01445
      vertex 90 36.2941 11.9856
    endloop
  endfacet
  facet normal 1 0 0
    outer loop
      vertex 90 36 12
      vertex 90 36 6
      vertex 90 36.2941 6.01445
    endloop
  endfacet
  facet normal 1 -0 0
    outer loop
      vertex 90 35.7059 11.9856
      vertex 90 36 6
      vertex 90 36 12
    endloop
  endfacet
  facet normal 1 0 0
    outer loop
      vertex 90 35.7059 11.9856
      vertex 90 35.7059 6.01445
      vertex 90 36 6
    endloop
  endfacet
  facet normal 1 -0 0
    outer loop
      vertex 90 35.4147 11.9424
      vertex 90 35.7059 6.01445
      vertex 90 35.7059 11.9856
    endloop
  endfacet
  facet normal 1 0 0
    outer loop
      vertex 90 35.4147 11.9424
      vertex 90 35.4147 6.05764
      vertex 90 35.7059 6.01445
    endloop
  endfacet
  facet normal 1 -0 0
    outer loop
      vertex 90 35.1291 11.8708
      vertex 90 35.4147 6.05764
      vertex 90 35.4147 11.9424
    endloop
  endfacet
  facet normal 1 0 0
    outer loop
      vertex 90 35.1291 11.8708
      vertex 90 35.1291 6.12918
      vertex 90 35.4147 6.05764
    endloop
  endfacet
  facet normal 1 -0 0
    outer loop
      vertex 90 34.852 11.7716
      vertex 90 35.1291 6.12918
      vertex 90 35.1291 11.8708
    endloop
  endfacet
  facet normal 1 0 0
    outer loop
      vertex 90 34.852 11.7716
      vertex 90 34.852 6.22836
      vertex 90 35.1291 6.12918
    endloop
  endfacet
  facet normal 1 -0 0
    outer loop
      vertex 90 34.5858 11.6458
      vertex 90 34.852 6.22836
      vertex 90 34.852 11.7716
    endloop
  endfacet
  facet normal 1 0 0
    outer loop
      vertex 90 34.5858 11.6458
      vertex 90 34.5858 6.35424
      vertex 90 34.852 6.22836
    endloop
  endfacet
  facet normal 1 -0 0
    outer loop
      vertex 90 34.3333 11.4944
      vertex 90 34.5858 6.35424
      vertex 90 34.5858 11.6458
    endloop
  endfacet
  facet normal 1 0 0
    outer loop
      vertex 90 34.3333 11.4944
      vertex 90 34.3333 6.50559
      vertex 90 34.5858 6.35424
    endloop
  endfacet
  facet normal 1 -0 0
    outer loop
      vertex 90 34.0968 11.319
      vertex 90 34.3333 6.50559
      vertex 90 34.3333 11.4944
    endloop
  endfacet
  facet normal 1 0 0
    outer loop
      vertex 90 34.0968 11.319
      vertex 90 34.0968 6.68097
      vertex 90 34.3333 6.50559
    endloop
  endfacet
  facet normal 1 -0 0
    outer loop
      vertex 90 33.8787 11.1213
      vertex 90 34.0968 6.68097
      vertex 90 34.0968 11.319
    endloop
  endfacet
  facet normal 1 0 0
    outer loop
      vertex 90 33.8787 11.1213
      vertex 90 33.8787 6.87868
      vertex 90 34.0968 6.68097
    endloop
  endfacet
  facet normal 1 -0 0
    outer loop
      vertex 90 33.681 10.9032
      vertex 90 33.8787 6.87868
      vertex 90 33.8787 11.1213
    endloop
  endfacet
  facet normal 1 0 0
    outer loop
      vertex 90 33.681 10.9032
      vertex 90 33.681 7.09682
      vertex 90 33.8787 6.87868
    endloop
  endfacet
  facet normal 1 -0 0
    outer loop
      vertex 90 33.5056 10.6667
      vertex 90 33.681 7.09682
      vertex 90 33.681 10.9032
    endloop
  endfacet
  facet normal 1 0 0
    outer loop
      vertex 90 33.5056 10.6667
      vertex 90 33.5056 7.33329
      vertex 90 33.681 7.09682
    endloop
  endfacet
  facet normal 1 -0 0
    outer loop
      vertex 90 33.3542 10.4142
      vertex 90 33.5056 7.33329
      vertex 90 33.5056 10.6667
    endloop
  endfacet
  facet normal 1 0 0
    outer loop
      vertex 90 33.3542 10.4142
      vertex 90 33.3542 7.58581
      vertex 90 33.5056 7.33329
    endloop
  endfacet
  facet normal 1 -0 0
    outer loop
      vertex 90 33.2284 10.148
      vertex 90 33.3542 7.58581
      vertex 90 33.3542 10.4142
    endloop
  endfacet
  facet normal 1 0 0
    outer loop
      vertex 90 33.2284 10.148
      vertex 90 33.2284 7.85195
      vertex 90 33.3542 7.58581
    endloop
  endfacet
  facet normal 1 -0 0
    outer loop
      vertex 90 33.1292 9.87085
      vertex 90 33.2284 7.85195
      vertex 90 33.2284 10.148
    endloop
  endfacet
  facet normal 1 0 0
    outer loop
      vertex 90 33.1292 9.87085
      vertex 90 33.1292 8.12915
      vertex 90 33.2284 7.85195
    endloop
  endfacet
  facet normal 1 -0 0
    outer loop
      vertex 90 33.0576 9.58527
      vertex 90 33.1292 8.12915
      vertex 90 33.1292 9.87085
    endloop
  endfacet
  facet normal 1 0 0
    outer loop
      vertex 90 33.0576 9.58527
      vertex 90 33.0576 8.41473
      vertex 90 33.1292 8.12915
    endloop
  endfacet
  facet normal 1 -0 0
    outer loop
      vertex 90 33.0144 9.29405
      vertex 90 33.0576 8.41473
      vertex 90 33.0576 9.58527
    endloop
  endfacet
  facet normal 1 0 0
    outer loop
      vertex 90 33.0144 9.29405
      vertex 90 33.0144 8.70595
      vertex 90 33.0576 8.41473
    endloop
  endfacet
  facet normal 1 0 -0
    outer loop
      vertex 90 33.0144 8.70595
      vertex 90 33.0144 9.29405
      vertex 90 33 9
    endloop
  endfacet
  facet normal -0 0 1
    outer loop
      vertex 10 80 18
      vertex 90 30 18
      vertex 90 80 18
    endloop
  endfacet
  facet normal 0 0 1
    outer loop
      vertex 90 30 18
      vertex 10 80 18
      vertex 10 30 18
    endloop
  endfacet
  facet normal -1 0 0
    outer loop
      vertex 10 32 3
      vertex 10 30 3
      vertex 10 32 15
    endloop
  endfacet
  facet normal -1 0 0
    outer loop
      vertex 10 40 15
      vertex 10 80 3
      vertex 10 40 3
    endloop
  endfacet
  facet normal -1 0 0
    outer loop
      vertex 10 80 3
      vertex 10 40 15
      vertex 10 80 18
    endloop
  endfacet
  facet normal -1 0 0
    outer loop
      vertex 10 30 18
      vertex 10 40 15
      vertex 10 32 15
    endloop
  endfacet
  facet normal -1 0 0
    outer loop
      vertex 10 40 15
      vertex 10 30 18
      vertex 10 80 18
    endloop
  endfacet
  facet normal -1 0 0
    outer loop
      vertex 10 30 18
      vertex 10 32 15
      vertex 10 30 3
    endloop
  endfacet
  facet normal -1 0 0
    outer loop
      vertex 10 38.9856 8.70595
      vertex 10 38.9856 9.29405
      vertex 10 39 9
    endloop
  endfacet
  facet normal -1 0 0
    outer loop
      vertex 10 38.9424 8.41473
      vertex 10 38.9856 9.29405
      vertex 10 38.9856 8.70595
    endloop
  endfacet
  facet normal -1 0 0
    outer loop
      vertex 10 38.9424 8.41473
      vertex 10 38.9424 9.58527
      vertex 10 38.9856 9.29405
    endloop
  endfacet
  facet normal -1 0 0
    outer loop
      vertex 10 38.8708 8.12915
      vertex 10 38.9424 9.58527
      vertex 10 38.9424 8.41473
    endloop
  endfacet
  facet normal -1 0 0
    outer loop
      vertex 10 38.8708 8.12915
      vertex 10 38.8708 9.87085
      vertex 10 38.9424 9.58527
    endloop
  endfacet
  facet normal -1 0 0
    outer loop
      vertex 10 38.7716 7.85195
      vertex 10 38.8708 9.87085
      vertex 10 38.8708 8.12915
    endloop
  endfacet
  facet normal -1 0 0
    outer loop
      vertex 10 38.7716 7.85195
      vertex 10 38.7716 10.148
      vertex 10 38.8708 9.87085
    endloop
  endfacet
  facet normal -1 0 0
    outer loop
      vertex 10 38.6458 7.58581
      vertex 10 38.7716 10.148
      vertex 10 38.7716 7.85195
    endloop
  endfacet
  facet normal -1 0 0
    outer loop
      vertex 10 38.6458 7.58581
      vertex 10 38.6458 10.4142
      vertex 10 38.7716 10.148
    endloop
  endfacet
  facet normal -1 0 0
    outer loop
      vertex 10 38.4944 7.33329
      vertex 10 38.6458 10.4142
      vertex 10 38.6458 7.58581
    endloop
  endfacet
  facet normal -1 0 0
    outer loop
      vertex 10 38.4944 7.33329
      vertex 10 38.4944 10.6667
      vertex 10 38.6458 10.4142
    endloop
  endfacet
  facet normal -1 0 0
    outer loop
      vertex 10 38.319 7.09682
      vertex 10 38.4944 10.6667
      vertex 10 38.4944 7.33329
    endloop
  endfacet
  facet normal -1 0 0
    outer loop
      vertex 10 38.319 7.09682
      vertex 10 38.319 10.9032
      vertex 10 38.4944 10.6667
    endloop
  endfacet
  facet normal -1 0 0
    outer loop
      vertex 10 38.1213 6.87868
      vertex 10 38.319 10.9032
      vertex 10 38.319 7.09682
    endloop
  endfacet
  facet normal -1 0 0
    outer loop
      vertex 10 38.1213 6.87868
      vertex 10 38.1213 11.1213
      vertex 10 38.319 10.9032
    endloop
  endfacet
  facet normal -1 0 0
    outer loop
      vertex 10 37.9032 6.68097
      vertex 10 38.1213 11.1213
      vertex 10 38.1213 6.87868
    endloop
  endfacet
  facet normal -1 0 0
    outer loop
      vertex 10 37.9032 6.68097
      vertex 10 37.9032 11.319
      vertex 10 38.1213 11.1213
    endloop
  endfacet
  facet normal -1 0 0
    outer loop
      vertex 10 37.6667 6.50559
      vertex 10 37.9032 11.319
      vertex 10 37.9032 6.68097
    endloop
  endfacet
  facet normal -1 0 0
    outer loop
      vertex 10 37.6667 6.50559
      vertex 10 37.6667 11.4944
      vertex 10 37.9032 11.319
    endloop
  endfacet
  facet normal -1 0 0
    outer loop
      vertex 10 37.4142 6.35424
      vertex 10 37.6667 11.4944
      vertex 10 37.6667 6.50559
    endloop
  endfacet
  facet normal -1 0 0
    outer loop
      vertex 10 37.4142 6.35424
      vertex 10 37.4142 11.6458
      vertex 10 37.6667 11.4944
    endloop
  endfacet
  facet normal -1 0 0
    outer loop
      vertex 10 37.148 6.22836
      vertex 10 37.4142 11.6458
      vertex 10 37.4142 6.35424
    endloop
  endfacet
  facet normal -1 0 0
    outer loop
      vertex 10 37.148 6.22836
      vertex 10 37.148 11.7716
      vertex 10 37.4142 11.6458
    endloop
  endfacet
  facet normal -1 0 0
    outer loop
      vertex 10 36.8709 6.12918
      vertex 10 37.148 11.7716
      vertex 10 37.148 6.22836
    endloop
  endfacet
  facet normal -1 0 0
    outer loop
      vertex 10 36.8709 6.12918
      vertex 10 36.8709 11.8708
      vertex 10 37.148 11.7716
    endloop
  endfacet
  facet normal -1 0 0
    outer loop
      vertex 10 36.5853 6.05764
      vertex 10 36.8709 11.8708
      vertex 10 36.8709 6.12918
    endloop
  endfacet
  facet normal -1 0 0
    outer loop
      vertex 10 36.5853 6.05764
      vertex 10 36.5853 11.9424
      vertex 10 36.8709 11.8708
    endloop
  endfacet
  facet normal -1 0 0
    outer loop
      vertex 10 36.2941 6.01445
      vertex 10 36.5853 11.9424
      vertex 10 36.5853 6.05764
    endloop
  endfacet
  facet normal -1 0 0
    outer loop
      vertex 10 36.2941 6.01445
      vertex 10 36.2941 11.9856
      vertex 10 36.5853 11.9424
    endloop
  endfacet
  facet normal -1 0 0
    outer loop
      vertex 10 36 6
      vertex 10 36.2941 11.9856
      vertex 10 36.2941 6.01445
    endloop
  endfacet
  facet normal -1 0 0
    outer loop
      vertex 10 36 6
      vertex 10 36 12
      vertex 10 36.2941 11.9856
    endloop
  endfacet
  facet normal -1 0 0
    outer loop
      vertex 10 35.7059 6.01445
      vertex 10 36 12
      vertex 10 36 6
    endloop
  endfacet
  facet normal -1 0 0
    outer loop
      vertex 10 35.7059 6.01445
      vertex 10 35.7059 11.9856
      vertex 10 36 12
    endloop
  endfacet
  facet normal -1 0 0
    outer loop
      vertex 10 35.4147 6.05764
      vertex 10 35.7059 11.9856
      vertex 10 35.7059 6.01445
    endloop
  endfacet
  facet normal -1 0 0
    outer loop
      vertex 10 35.4147 6.05764
      vertex 10 35.4147 11.9424
      vertex 10 35.7059 11.9856
    endloop
  endfacet
  facet normal -1 0 0
    outer loop
      vertex 10 35.1291 6.12918
      vertex 10 35.4147 11.9424
      vertex 10 35.4147 6.05764
    endloop
  endfacet
  facet normal -1 0 0
    outer loop
      vertex 10 35.1291 6.12918
      vertex 10 35.1291 11.8708
      vertex 10 35.4147 11.9424
    endloop
  endfacet
  facet normal -1 0 0
    outer loop
      vertex 10 34.852 6.22836
      vertex 10 35.1291 11.8708
      vertex 10 35.1291 6.12918
    endloop
  endfacet
  facet normal -1 0 0
    outer loop
      vertex 10 34.852 6.22836
      vertex 10 34.852 11.7716
      vertex 10 35.1291 11.8708
    endloop
  endfacet
  facet normal -1 0 0
    outer loop
      vertex 10 34.5858 6.35424
      vertex 10 34.852 11.7716
      vertex 10 34.852 6.22836
    endloop
  endfacet
  facet normal -1 0 0
    outer loop
      vertex 10 34.5858 6.35424
      vertex 10 34.5858 11.6458
      vertex 10 34.852 11.7716
    endloop
  endfacet
  facet normal -1 0 0
    outer loop
      vertex 10 34.3333 6.50559
      vertex 10 34.5858 11.6458
      vertex 10 34.5858 6.35424
    endloop
  endfacet
  facet normal -1 0 0
    outer loop
      vertex 10 34.3333 6.50559
      vertex 10 34.3333 11.4944
      vertex 10 34.5858 11.6458
    endloop
  endfacet
  facet normal -1 0 0
    outer loop
      vertex 10 34.0968 6.68097
      vertex 10 34.3333 11.4944
      vertex 10 34.3333 6.50559
    endloop
  endfacet
  facet normal -1 0 0
    outer loop
      vertex 10 34.0968 6.68097
      vertex 10 34.0968 11.319
      vertex 10 34.3333 11.4944
    endloop
  endfacet
  facet normal -1 0 0
    outer loop
      vertex 10 33.8787 6.87868
      vertex 10 34.0968 11.319
      vertex 10 34.0968 6.68097
    endloop
  endfacet
  facet normal -1 0 0
    outer loop
      vertex 10 33.8787 6.87868
      vertex 10 33.8787 11.1213
      vertex 10 34.0968 11.319
    endloop
  endfacet
  facet normal -1 0 0
    outer loop
      vertex 10 33.681 7.09682
      vertex 10 33.8787 11.1213
      vertex 10 33.8787 6.87868
    endloop
  endfacet
  facet normal -1 0 0
    outer loop
      vertex 10 33.681 7.09682
      vertex 10 33.681 10.9032
      vertex 10 33.8787 11.1213
    endloop
  endfacet
  facet normal -1 0 0
    outer loop
      vertex 10 33.5056 7.33329
      vertex 10 33.681 10.9032
      vertex 10 33.681 7.09682
    endloop
  endfacet
  facet normal -1 0 0
    outer loop
      vertex 10 33.5056 7.33329
      vertex 10 33.5056 10.6667
      vertex 10 33.681 10.9032
    endloop
  endfacet
  facet normal -1 0 0
    outer loop
      vertex 10 33.3542 7.58581
      vertex 10 33.5056 10.6667
      vertex 10 33.5056 7.33329
    endloop
  endfacet
  facet normal -1 0 0
    outer loop
      vertex 10 33.3542 7.58581
      vertex 10 33.3542 10.4142
      vertex 10 33.5056 10.6667
    endloop
  endfacet
  facet normal -1 0 0
    outer loop
      vertex 10 33.2284 7.85195
      vertex 10 33.3542 10.4142
      vertex 10 33.3542 7.58581
    endloop
  endfacet
  facet normal -1 0 0
    outer loop
      vertex 10 33.2284 7.85195
      vertex 10 33.2284 10.148
      vertex 10 33.3542 10.4142
    endloop
  endfacet
  facet normal -1 0 0
    outer loop
      vertex 10 33.1292 8.12915
      vertex 10 33.2284 10.148
      vertex 10 33.2284 7.85195
    endloop
  endfacet
  facet normal -1 0 0
    outer loop
      vertex 10 33.1292 8.12915
      vertex 10 33.1292 9.87085
      vertex 10 33.2284 10.148
    endloop
  endfacet
  facet normal -1 0 0
    outer loop
      vertex 10 33.0576 8.41473
      vertex 10 33.1292 9.87085
      vertex 10 33.1292 8.12915
    endloop
  endfacet
  facet normal -1 0 0
    outer loop
      vertex 10 33.0576 8.41473
      vertex 10 33.0576 9.58527
      vertex 10 33.1292 9.87085
    endloop
  endfacet
  facet normal -1 0 0
    outer loop
      vertex 10 33.0144 8.70595
      vertex 10 33.0576 9.58527
      vertex 10 33.0576 8.41473
    endloop
  endfacet
  facet normal -1 0 0
    outer loop
      vertex 10 33.0144 8.70595
      vertex 10 33.0144 9.29405
      vertex 10 33.0576 9.58527
    endloop
  endfacet
  facet normal -1 0 -0
    outer loop
      vertex 10 33.0144 9.29405
      vertex 10 33.0144 8.70595
      vertex 10 33 9
    endloop
  endfacet
  facet normal 0 -1 0
    outer loop
      vertex 10 30 18
      vertex 35 30 7
      vertex 90 30 18
    endloop
  endfacet
  facet normal 0 -1 0
    outer loop
      vertex 10 30 3
      vertex 35 30 7
      vertex 10 30 18
    endloop
  endfacet
  facet normal 0 -1 -0
    outer loop
      vertex 35 30 7
      vertex 10 30 3
      vertex 35 30 3
    endloop
  endfacet
  facet normal 0 -1 0
    outer loop
      vertex 65 30 7
      vertex 90 30 18
      vertex 35 30 7
    endloop
  endfacet
  facet normal 0 -1 0
    outer loop
      vertex 90 30 3
      vertex 65 30 7
      vertex 65 30 3
    endloop
  endfacet
  facet normal 0 -1 0
    outer loop
      vertex 65 30 7
      vertex 90 30 3
      vertex 90 30 18
    endloop
  endfacet
endsolid OpenSCAD_Model
