solid OpenSCAD_Model
  facet normal -1 0 0
    outer loop
      vertex 0 55 -8
      vertex 0 35 -8
      vertex 0 55 0
    endloop
  endfacet
  facet normal -1 0 0
    outer loop
      vertex 0 55 0
      vertex 0 80 20
      vertex 0 80 0
    endloop
  endfacet
  facet normal -1 0 0
    outer loop
      vertex 0 35 0
      vertex 0 55 0
      vertex 0 35 -8
    endloop
  endfacet
  facet normal -1 0 0
    outer loop
      vertex 0 35 4
      vertex 0 55 0
      vertex 0 35 0
    endloop
  endfacet
  facet normal -1 0 0
    outer loop
      vertex 0 35 20
      vertex 0 55 0
      vertex 0 35 4
    endloop
  endfacet
  facet normal -1 0 0
    outer loop
      vertex 0 55 0
      vertex 0 35 20
      vertex 0 80 20
    endloop
  endfacet
  facet normal -1 0 0
    outer loop
      vertex 0 35 0
      vertex 0 17 4
      vertex 0 35 4
    endloop
  endfacet
  facet normal -1 0 0
    outer loop
      vertex 0 17 4
      vertex 0 15 4
      vertex 0 17 14
    endloop
  endfacet
  facet normal -1 0 0
    outer loop
      vertex 0 0 0
      vertex 0 17 4
      vertex 0 35 0
    endloop
  endfacet
  facet normal -1 -0 0
    outer loop
      vertex 0 17 4
      vertex 0 0 0
      vertex 0 15 4
    endloop
  endfacet
  facet normal -1 -0 0
    outer loop
      vertex 0 15 4
      vertex 0 0 0
      vertex 0 0 4
    endloop
  endfacet
  facet normal -1 -0 0
    outer loop
      vertex 0 17 14
      vertex 0 15 4
      vertex 0 15 14
    endloop
  endfacet
  facet normal -0 0 1
    outer loop
      vertex 6 80 16
      vertex 94 35 16
      vertex 94 80 16
    endloop
  endfacet
  facet normal 0 0 1
    outer loop
      vertex 94 35 16
      vertex 6 80 16
      vertex 6 35 16
    endloop
  endfacet
  facet normal 1 0 0
    outer loop
      vertex 100 17 14
      vertex 100 15 14
      vertex 100 17 4
    endloop
  endfacet
  facet normal 1 -0 0
    outer loop
      vertex 100 17 4
      vertex 100 35 0
      vertex 100 35 4
    endloop
  endfacet
  facet normal 1 0 0
    outer loop
      vertex 100 15 4
      vertex 100 17 4
      vertex 100 15 14
    endloop
  endfacet
  facet normal 1 0 0
    outer loop
      vertex 100 0 0
      vertex 100 17 4
      vertex 100 15 4
    endloop
  endfacet
  facet normal 1 0 0
    outer loop
      vertex 100 0 0
      vertex 100 15 4
      vertex 100 0 4
    endloop
  endfacet
  facet normal 1 0 0
    outer loop
      vertex 100 17 4
      vertex 100 0 0
      vertex 100 35 0
    endloop
  endfacet
  facet normal 1 0 0
    outer loop
      vertex 100 80 20
      vertex 100 55 0
      vertex 100 80 0
    endloop
  endfacet
  facet normal 1 -0 0
    outer loop
      vertex 100 35 20
      vertex 100 55 0
      vertex 100 80 20
    endloop
  endfacet
  facet normal 1 -0 0
    outer loop
      vertex 100 35 4
      vertex 100 55 0
      vertex 100 35 20
    endloop
  endfacet
  facet normal 1 0 0
    outer loop
      vertex 100 35 0
      vertex 100 55 0
      vertex 100 35 4
    endloop
  endfacet
  facet normal 1 0 0
    outer loop
      vertex 100 55 0
      vertex 100 35 0
      vertex 100 55 -8
    endloop
  endfacet
  facet normal 1 0 0
    outer loop
      vertex 100 55 -8
      vertex 100 35 0
      vertex 100 35 -8
    endloop
  endfacet
  facet normal 0 1 0
    outer loop
      vertex 100 80 20
      vertex 94 80 16
      vertex 94 80 20
    endloop
  endfacet
  facet normal 0 1 0
    outer loop
      vertex 94 80 16
      vertex 100 80 0
      vertex 6 80 16
    endloop
  endfacet
  facet normal 0 1 -0
    outer loop
      vertex 100 80 0
      vertex 94 80 16
      vertex 100 80 20
    endloop
  endfacet
  facet normal 0 1 -0
    outer loop
      vertex 6 80 16
      vertex 0 80 20
      vertex 6 80 20
    endloop
  endfacet
  facet normal 0 1 0
    outer loop
      vertex 6 80 16
      vertex 0 80 0
      vertex 0 80 20
    endloop
  endfacet
  facet normal 0 1 0
    outer loop
      vertex 0 80 0
      vertex 6 80 16
      vertex 100 80 0
    endloop
  endfacet
  facet normal 0 0 1
    outer loop
      vertex 100 35 4
      vertex 94 17 4
      vertex 100 17 4
    endloop
  endfacet
  facet normal 0 0 1
    outer loop
      vertex 94 17 4
      vertex 6 17 4
      vertex 94 15 4
    endloop
  endfacet
  facet normal 0 0 1
    outer loop
      vertex 100 35 4
      vertex 6 17 4
      vertex 94 17 4
    endloop
  endfacet
  facet normal -0 0 1
    outer loop
      vertex 0 35 4
      vertex 6 17 4
      vertex 100 35 4
    endloop
  endfacet
  facet normal 0 0 1
    outer loop
      vertex 6 17 4
      vertex 0 35 4
      vertex 0 17 4
    endloop
  endfacet
  facet normal -0 0 1
    outer loop
      vertex 94 15 4
      vertex 100 0 4
      vertex 100 15 4
    endloop
  endfacet
  facet normal 0 0 1
    outer loop
      vertex 6 15 4
      vertex 94 15 4
      vertex 6 17 4
    endloop
  endfacet
  facet normal 0 0 1
    outer loop
      vertex 94 15 4
      vertex 6 15 4
      vertex 100 0 4
    endloop
  endfacet
  facet normal 0 0 1
    outer loop
      vertex 0 0 4
      vertex 6 15 4
      vertex 0 15 4
    endloop
  endfacet
  facet normal 0 0 1
    outer loop
      vertex 6 15 4
      vertex 0 0 4
      vertex 100 0 4
    endloop
  endfacet
  facet normal 0 -1 0
    outer loop
      vertex 0 35 20
      vertex 6 35 16
      vertex 6 35 20
    endloop
  endfacet
  facet normal 0 -1 -0
    outer loop
      vertex 6 35 16
      vertex 0 35 4
      vertex 94 35 16
    endloop
  endfacet
  facet normal 0 -1 0
    outer loop
      vertex 0 35 4
      vertex 6 35 16
      vertex 0 35 20
    endloop
  endfacet
  facet normal 0 -1 0
    outer loop
      vertex 94 35 16
      vertex 100 35 20
      vertex 94 35 20
    endloop
  endfacet
  facet normal 0 -1 0
    outer loop
      vertex 94 35 16
      vertex 100 35 4
      vertex 100 35 20
    endloop
  endfacet
  facet normal 0 -1 0
    outer loop
      vertex 100 35 4
      vertex 94 35 16
      vertex 0 35 4
    endloop
  endfacet
  facet normal -0 0 1
    outer loop
      vertex 0 80 20
      vertex 6 35 20
      vertex 6 80 20
    endloop
  endfacet
  facet normal 0 0 1
    outer loop
      vertex 6 35 20
      vertex 0 80 20
      vertex 0 35 20
    endloop
  endfacet
  facet normal 1 -0 0
    outer loop
      vertex 6 35 20
      vertex 6 80 16
      vertex 6 80 20
    endloop
  endfacet
  facet normal 1 0 0
    outer loop
      vertex 6 80 16
      vertex 6 35 20
      vertex 6 35 16
    endloop
  endfacet
  facet normal -1 0 0
    outer loop
      vertex 94 35 16
      vertex 94 80 20
      vertex 94 80 16
    endloop
  endfacet
  facet normal -1 -0 0
    outer loop
      vertex 94 80 20
      vertex 94 35 16
      vertex 94 35 20
    endloop
  endfacet
  facet normal -0 0 1
    outer loop
      vertex 94 80 20
      vertex 100 35 20
      vertex 100 80 20
    endloop
  endfacet
  facet normal 0 0 1
    outer loop
      vertex 100 35 20
      vertex 94 80 20
      vertex 94 35 20
    endloop
  endfacet
  facet normal 0 0 -1
    outer loop
      vertex 6 15 10
      vertex 94 17 10
      vertex 94 15 10
    endloop
  endfacet
  facet normal -0 0 -1
    outer loop
      vertex 94 17 10
      vertex 6 15 10
      vertex 6 17 10
    endloop
  endfacet
  facet normal 1 -0 0
    outer loop
      vertex 6 15 10
      vertex 6 17 4
      vertex 6 17 10
    endloop
  endfacet
  facet normal 1 0 0
    outer loop
      vertex 6 17 4
      vertex 6 15 10
      vertex 6 15 4
    endloop
  endfacet
  facet normal 0 -1 0
    outer loop
      vertex 0 15 14
      vertex 6 15 10
      vertex 100 15 14
    endloop
  endfacet
  facet normal 0 -1 0
    outer loop
      vertex 0 15 4
      vertex 6 15 10
      vertex 0 15 14
    endloop
  endfacet
  facet normal 0 -1 -0
    outer loop
      vertex 6 15 10
      vertex 0 15 4
      vertex 6 15 4
    endloop
  endfacet
  facet normal 0 -1 0
    outer loop
      vertex 94 15 10
      vertex 100 15 14
      vertex 6 15 10
    endloop
  endfacet
  facet normal 0 -1 0
    outer loop
      vertex 100 15 4
      vertex 94 15 10
      vertex 94 15 4
    endloop
  endfacet
  facet normal 0 -1 0
    outer loop
      vertex 94 15 10
      vertex 100 15 4
      vertex 100 15 14
    endloop
  endfacet
  facet normal 0 1 0
    outer loop
      vertex 100 17 14
      vertex 94 17 10
      vertex 0 17 14
    endloop
  endfacet
  facet normal 0 1 -0
    outer loop
      vertex 100 17 4
      vertex 94 17 10
      vertex 100 17 14
    endloop
  endfacet
  facet normal 0 1 0
    outer loop
      vertex 94 17 10
      vertex 100 17 4
      vertex 94 17 4
    endloop
  endfacet
  facet normal 0 1 -0
    outer loop
      vertex 6 17 10
      vertex 0 17 14
      vertex 94 17 10
    endloop
  endfacet
  facet normal 0 1 0
    outer loop
      vertex 0 17 4
      vertex 6 17 10
      vertex 6 17 4
    endloop
  endfacet
  facet normal 0 1 0
    outer loop
      vertex 6 17 10
      vertex 0 17 4
      vertex 0 17 14
    endloop
  endfacet
  facet normal -1 0 0
    outer loop
      vertex 94 15 4
      vertex 94 17 10
      vertex 94 17 4
    endloop
  endfacet
  facet normal -1 -0 0
    outer loop
      vertex 94 17 10
      vertex 94 15 4
      vertex 94 15 10
    endloop
  endfacet
  facet normal -0 0 1
    outer loop
      vertex 0 17 14
      vertex 100 15 14
      vertex 100 17 14
    endloop
  endfacet
  facet normal 0 0 1
    outer loop
      vertex 100 15 14
      vertex 0 17 14
      vertex 0 15 14
    endloop
  endfacet
  facet normal 0 0 -1
    outer loop
      vertex 0 0 0
      vertex 100 35 0
      vertex 100 0 0
    endloop
  endfacet
  facet normal -0 0 -1
    outer loop
      vertex 100 35 0
      vertex 0 0 0
      vertex 0 35 0
    endloop
  endfacet
  facet normal 0 0 -1
    outer loop
      vertex 0 55 0
      vertex 100 80 0
      vertex 100 55 0
    endloop
  endfacet
  facet normal -0 0 -1
    outer loop
      vertex 100 80 0
      vertex 0 55 0
      vertex 0 80 0
    endloop
  endfacet
  facet normal 0 -1 0
    outer loop
      vertex 0 0 0
      vertex 100 0 4
      vertex 0 0 4
    endloop
  endfacet
  facet normal 0 -1 -0
    outer loop
      vertex 100 0 4
      vertex 0 0 0
      vertex 100 0 0
    endloop
  endfacet
  facet normal 0 1 -0
    outer loop
      vertex 100 55 -8
      vertex 0 55 0
      vertex 100 55 0
    endloop
  endfacet
  facet normal 0 1 0
    outer loop
      vertex 0 55 0
      vertex 100 55 -8
      vertex 0 55 -8
    endloop
  endfacet
  facet normal 0 0 -1
    outer loop
      vertex 0 35 -8
      vertex 100 55 -8
      vertex 100 35 -8
    endloop
  endfacet
  facet normal -0 0 -1
    outer loop
      vertex 100 55 -8
      vertex 0 35 -8
      vertex 0 55 -8
    endloop
  endfacet
  facet normal 0 -1 0
    outer loop
      vertex 0 35 -8
      vertex 100 35 0
      vertex 0 35 0
    endloop
  endfacet
  facet normal 0 -1 -0
    outer loop
      vertex 100 35 0
      vertex 0 35 -8
      vertex 100 35 -8
    endloop
  endfacet
endsolid OpenSCAD_Model
