solid OpenSCAD_Model
  facet normal 1 -0 0
    outer loop
      vertex 5 42 9
      vertex 5 70 6
      vertex 5 70 9
    endloop
  endfacet
  facet normal 1 0 0
    outer loop
      vertex 5 70 6
      vertex 5 42 9
      vertex 5 42 6
    endloop
  endfacet
  facet normal 1 -0 0
    outer loop
      vertex 5 15 9
      vertex 5 37 6
      vertex 5 37 9
    endloop
  endfacet
  facet normal 1 0 0
    outer loop
      vertex 5 37 6
      vertex 5 15 9
      vertex 5 15 6
    endloop
  endfacet
  facet normal -0 0 1
    outer loop
      vertex 0 70 9
      vertex 5 42 9
      vertex 5 70 9
    endloop
  endfacet
  facet normal 0 0 1
    outer loop
      vertex 5 42 9
      vertex 0 70 9
      vertex 0 42 9
    endloop
  endfacet
  facet normal -0 0 1
    outer loop
      vertex 0 37 9
      vertex 5 15 9
      vertex 5 37 9
    endloop
  endfacet
  facet normal 0 0 1
    outer loop
      vertex 5 15 9
      vertex 0 37 9
      vertex 0 15 9
    endloop
  endfacet
  facet normal 0 0 1
    outer loop
      vertex 95 70 6
      vertex 84 42 6
      vertex 95 42 6
    endloop
  endfacet
  facet normal 0 0 1
    outer loop
      vertex 84 42 6
      vertex 16 42 6
      vertex 84 37 6
    endloop
  endfacet
  facet normal 0 0 1
    outer loop
      vertex 95 70 6
      vertex 16 42 6
      vertex 84 42 6
    endloop
  endfacet
  facet normal -0 0 1
    outer loop
      vertex 5 70 6
      vertex 16 42 6
      vertex 95 70 6
    endloop
  endfacet
  facet normal 0 0 1
    outer loop
      vertex 16 42 6
      vertex 5 70 6
      vertex 5 42 6
    endloop
  endfacet
  facet normal -0 0 1
    outer loop
      vertex 84 37 6
      vertex 95 15 6
      vertex 95 37 6
    endloop
  endfacet
  facet normal 0 0 1
    outer loop
      vertex 16 37 6
      vertex 84 37 6
      vertex 16 42 6
    endloop
  endfacet
  facet normal 0 0 1
    outer loop
      vertex 84 37 6
      vertex 16 37 6
      vertex 95 15 6
    endloop
  endfacet
  facet normal 0 0 1
    outer loop
      vertex 5 15 6
      vertex 16 37 6
      vertex 5 37 6
    endloop
  endfacet
  facet normal 0 0 1
    outer loop
      vertex 16 37 6
      vertex 5 15 6
      vertex 95 15 6
    endloop
  endfacet
  facet normal -1 0 0
    outer loop
      vertex 0 0 0
      vertex 0 15 2
      vertex 0 15 0
    endloop
  endfacet
  facet normal -1 -0 0
    outer loop
      vertex 0 15 2
      vertex 0 0 0
      vertex 0 0 2
    endloop
  endfacet
  facet normal -1 0 0
    outer loop
      vertex 0 15 0
      vertex 0 39 0
      vertex 0 39 -3
    endloop
  endfacet
  facet normal -1 0 0
    outer loop
      vertex 0 15 0
      vertex 0 39 -3
      vertex 0 15 -3
    endloop
  endfacet
  facet normal -1 0 0
    outer loop
      vertex 0 39 0
      vertex 0 15 0
      vertex 0 15 2
    endloop
  endfacet
  facet normal -1 0 0
    outer loop
      vertex 0 39 0
      vertex 0 15 2
      vertex 0 37 9
    endloop
  endfacet
  facet normal -1 -0 0
    outer loop
      vertex 0 37 9
      vertex 0 15 2
      vertex 0 15 9
    endloop
  endfacet
  facet normal -1 0 0
    outer loop
      vertex 0 70 0
      vertex 0 42 9
      vertex 0 70 9
    endloop
  endfacet
  facet normal -1 0 0
    outer loop
      vertex 0 39 0
      vertex 0 42 9
      vertex 0 70 0
    endloop
  endfacet
  facet normal -1 0 0
    outer loop
      vertex 0 37 9
      vertex 0 42 9
      vertex 0 39 0
    endloop
  endfacet
  facet normal -1 0 0
    outer loop
      vertex 0 42 9
      vertex 0 37 9
      vertex 0 42 10
    endloop
  endfacet
  facet normal -1 -0 0
    outer loop
      vertex 0 42 10
      vertex 0 37 9
      vertex 0 37 10
    endloop
  endfacet
  facet normal 0 1 0
    outer loop
      vertex 100 70 9
      vertex 95 70 6
      vertex 95 70 9
    endloop
  endfacet
  facet normal 0 1 0
    outer loop
      vertex 95 70 6
      vertex 100 70 0
      vertex 5 70 6
    endloop
  endfacet
  facet normal 0 1 -0
    outer loop
      vertex 100 70 0
      vertex 95 70 6
      vertex 100 70 9
    endloop
  endfacet
  facet normal 0 1 -0
    outer loop
      vertex 5 70 6
      vertex 0 70 9
      vertex 5 70 9
    endloop
  endfacet
  facet normal 0 1 0
    outer loop
      vertex 5 70 6
      vertex 0 70 0
      vertex 0 70 9
    endloop
  endfacet
  facet normal 0 1 0
    outer loop
      vertex 0 70 0
      vertex 5 70 6
      vertex 100 70 0
    endloop
  endfacet
  facet normal 0 -1 0
    outer loop
      vertex 0 15 9
      vertex 5 15 6
      vertex 5 15 9
    endloop
  endfacet
  facet normal 0 -1 -0
    outer loop
      vertex 5 15 6
      vertex 0 15 2
      vertex 95 15 6
    endloop
  endfacet
  facet normal 0 -1 0
    outer loop
      vertex 0 15 2
      vertex 5 15 6
      vertex 0 15 9
    endloop
  endfacet
  facet normal 0 -1 0
    outer loop
      vertex 95 15 6
      vertex 100 15 9
      vertex 95 15 9
    endloop
  endfacet
  facet normal 0 -1 0
    outer loop
      vertex 95 15 6
      vertex 100 15 2
      vertex 100 15 9
    endloop
  endfacet
  facet normal 0 -1 0
    outer loop
      vertex 100 15 2
      vertex 95 15 6
      vertex 0 15 2
    endloop
  endfacet
  facet normal 1 -0 0
    outer loop
      vertex 100 0 2
      vertex 100 15 0
      vertex 100 15 2
    endloop
  endfacet
  facet normal 1 0 0
    outer loop
      vertex 100 15 0
      vertex 100 0 2
      vertex 100 0 0
    endloop
  endfacet
  facet normal 1 0 0
    outer loop
      vertex 100 37 9
      vertex 100 42 9
      vertex 100 42 10
    endloop
  endfacet
  facet normal 1 0 0
    outer loop
      vertex 100 37 9
      vertex 100 42 10
      vertex 100 37 10
    endloop
  endfacet
  facet normal 1 0 0
    outer loop
      vertex 100 42 9
      vertex 100 37 9
      vertex 100 39 0
    endloop
  endfacet
  facet normal 1 -0 0
    outer loop
      vertex 100 15 2
      vertex 100 39 0
      vertex 100 37 9
    endloop
  endfacet
  facet normal 1 0 0
    outer loop
      vertex 100 15 2
      vertex 100 37 9
      vertex 100 15 9
    endloop
  endfacet
  facet normal 1 0 0
    outer loop
      vertex 100 15 0
      vertex 100 39 0
      vertex 100 15 2
    endloop
  endfacet
  facet normal 1 0 0
    outer loop
      vertex 100 39 0
      vertex 100 15 0
      vertex 100 39 -3
    endloop
  endfacet
  facet normal 1 0 0
    outer loop
      vertex 100 39 -3
      vertex 100 15 0
      vertex 100 15 -3
    endloop
  endfacet
  facet normal 1 -0 0
    outer loop
      vertex 100 42 9
      vertex 100 70 0
      vertex 100 70 9
    endloop
  endfacet
  facet normal 1 0 0
    outer loop
      vertex 100 70 0
      vertex 100 42 9
      vertex 100 39 0
    endloop
  endfacet
  facet normal -0 0 1
    outer loop
      vertex 95 70 9
      vertex 100 42 9
      vertex 100 70 9
    endloop
  endfacet
  facet normal 0 0 1
    outer loop
      vertex 100 42 9
      vertex 95 70 9
      vertex 95 42 9
    endloop
  endfacet
  facet normal -0 0 1
    outer loop
      vertex 95 37 9
      vertex 100 15 9
      vertex 100 37 9
    endloop
  endfacet
  facet normal 0 0 1
    outer loop
      vertex 100 15 9
      vertex 95 37 9
      vertex 95 15 9
    endloop
  endfacet
  facet normal -1 0 0
    outer loop
      vertex 95 42 6
      vertex 95 70 9
      vertex 95 70 6
    endloop
  endfacet
  facet normal -1 -0 0
    outer loop
      vertex 95 70 9
      vertex 95 42 6
      vertex 95 42 9
    endloop
  endfacet
  facet normal -1 0 0
    outer loop
      vertex 95 15 6
      vertex 95 37 9
      vertex 95 37 6
    endloop
  endfacet
  facet normal -1 -0 0
    outer loop
      vertex 95 37 9
      vertex 95 15 6
      vertex 95 15 9
    endloop
  endfacet
  facet normal -0 0 1
    outer loop
      vertex 0 42 10
      vertex 100 37 10
      vertex 100 42 10
    endloop
  endfacet
  facet normal 0 0 1
    outer loop
      vertex 100 37 10
      vertex 0 42 10
      vertex 0 37 10
    endloop
  endfacet
  facet normal 0 1 -0
    outer loop
      vertex 16 42 7.75
      vertex 0 42 10
      vertex 84 42 7.75
    endloop
  endfacet
  facet normal 0 1 -0
    outer loop
      vertex 95 42 6
      vertex 84 42 7.75
      vertex 95 42 9
    endloop
  endfacet
  facet normal 0 1 0
    outer loop
      vertex 84 42 7.75
      vertex 95 42 6
      vertex 84 42 6
    endloop
  endfacet
  facet normal 0 1 0
    outer loop
      vertex 95 42 9
      vertex 100 42 10
      vertex 100 42 9
    endloop
  endfacet
  facet normal 0 1 0
    outer loop
      vertex 84 42 7.75
      vertex 100 42 10
      vertex 95 42 9
    endloop
  endfacet
  facet normal 0 1 0
    outer loop
      vertex 100 42 10
      vertex 84 42 7.75
      vertex 0 42 10
    endloop
  endfacet
  facet normal 0 1 0
    outer loop
      vertex 0 42 10
      vertex 5 42 9
      vertex 0 42 9
    endloop
  endfacet
  facet normal 0 1 0
    outer loop
      vertex 0 42 10
      vertex 16 42 7.75
      vertex 5 42 9
    endloop
  endfacet
  facet normal 0 1 0
    outer loop
      vertex 5 42 6
      vertex 16 42 7.75
      vertex 16 42 6
    endloop
  endfacet
  facet normal 0 1 0
    outer loop
      vertex 16 42 7.75
      vertex 5 42 6
      vertex 5 42 9
    endloop
  endfacet
  facet normal 0 -1 0
    outer loop
      vertex 84 37 7.75
      vertex 100 37 10
      vertex 16 37 7.75
    endloop
  endfacet
  facet normal 0 -1 0
    outer loop
      vertex 5 37 6
      vertex 16 37 7.75
      vertex 5 37 9
    endloop
  endfacet
  facet normal 0 -1 -0
    outer loop
      vertex 16 37 7.75
      vertex 5 37 6
      vertex 16 37 6
    endloop
  endfacet
  facet normal 0 -1 0
    outer loop
      vertex 5 37 9
      vertex 0 37 10
      vertex 0 37 9
    endloop
  endfacet
  facet normal 0 -1 0
    outer loop
      vertex 16 37 7.75
      vertex 0 37 10
      vertex 5 37 9
    endloop
  endfacet
  facet normal 0 -1 0
    outer loop
      vertex 0 37 10
      vertex 16 37 7.75
      vertex 100 37 10
    endloop
  endfacet
  facet normal 0 -1 -0
    outer loop
      vertex 100 37 10
      vertex 95 37 9
      vertex 100 37 9
    endloop
  endfacet
  facet normal 0 -1 0
    outer loop
      vertex 100 37 10
      vertex 84 37 7.75
      vertex 95 37 9
    endloop
  endfacet
  facet normal 0 -1 0
    outer loop
      vertex 95 37 6
      vertex 84 37 7.75
      vertex 84 37 6
    endloop
  endfacet
  facet normal 0 -1 0
    outer loop
      vertex 84 37 7.75
      vertex 95 37 6
      vertex 95 37 9
    endloop
  endfacet
  facet normal -1 0 0
    outer loop
      vertex 84 37 6
      vertex 84 42 7.75
      vertex 84 42 6
    endloop
  endfacet
  facet normal -1 -0 0
    outer loop
      vertex 84 42 7.75
      vertex 84 37 6
      vertex 84 37 7.75
    endloop
  endfacet
  facet normal 0 0 -1
    outer loop
      vertex 16 37 7.75
      vertex 84 42 7.75
      vertex 84 37 7.75
    endloop
  endfacet
  facet normal -0 0 -1
    outer loop
      vertex 84 42 7.75
      vertex 16 37 7.75
      vertex 16 42 7.75
    endloop
  endfacet
  facet normal 1 -0 0
    outer loop
      vertex 16 37 7.75
      vertex 16 42 6
      vertex 16 42 7.75
    endloop
  endfacet
  facet normal 1 0 0
    outer loop
      vertex 16 42 6
      vertex 16 37 7.75
      vertex 16 37 6
    endloop
  endfacet
  facet normal -0 0 1
    outer loop
      vertex 0 15 2
      vertex 100 0 2
      vertex 100 15 2
    endloop
  endfacet
  facet normal 0 0 1
    outer loop
      vertex 100 0 2
      vertex 0 15 2
      vertex 0 0 2
    endloop
  endfacet
  facet normal 0 0 -1
    outer loop
      vertex 0 39 0
      vertex 100 70 0
      vertex 100 39 0
    endloop
  endfacet
  facet normal -0 0 -1
    outer loop
      vertex 100 70 0
      vertex 0 39 0
      vertex 0 70 0
    endloop
  endfacet
  facet normal 0 0 -1
    outer loop
      vertex 0 0 0
      vertex 100 15 0
      vertex 100 0 0
    endloop
  endfacet
  facet normal -0 0 -1
    outer loop
      vertex 100 15 0
      vertex 0 0 0
      vertex 0 15 0
    endloop
  endfacet
  facet normal 0 -1 0
    outer loop
      vertex 0 0 0
      vertex 100 0 2
      vertex 0 0 2
    endloop
  endfacet
  facet normal 0 -1 -0
    outer loop
      vertex 100 0 2
      vertex 0 0 0
      vertex 100 0 0
    endloop
  endfacet
  facet normal 0 0 -1
    outer loop
      vertex 0 15 -3
      vertex 100 39 -3
      vertex 100 15 -3
    endloop
  endfacet
  facet normal -0 0 -1
    outer loop
      vertex 100 39 -3
      vertex 0 15 -3
      vertex 0 39 -3
    endloop
  endfacet
  facet normal 0 1 -0
    outer loop
      vertex 100 39 -3
      vertex 0 39 0
      vertex 100 39 0
    endloop
  endfacet
  facet normal 0 1 0
    outer loop
      vertex 0 39 0
      vertex 100 39 -3
      vertex 0 39 -3
    endloop
  endfacet
  facet normal 0 -1 0
    outer loop
      vertex 0 15 -3
      vertex 100 15 0
      vertex 0 15 0
    endloop
  endfacet
  facet normal 0 -1 -0
    outer loop
      vertex 100 15 0
      vertex 0 15 -3
      vertex 100 15 -3
    endloop
  endfacet
endsolid OpenSCAD_Model
