solid OpenSCAD_Model
  facet normal -1 0 0
    outer loop
      vertex 0 0.333545 0.0871925
      vertex 0 0.444699 0.111891
      vertex 0 0.444699 0
    endloop
  endfacet
  facet normal -1 0 0
    outer loop
      vertex 0 0.444699 0.111891
      vertex 0 0.337907 0.103474
      vertex 0 0.337999 0.106299
    endloop
  endfacet
  facet normal -1 0 0
    outer loop
      vertex 0 0.444699 0.111891
      vertex 0 0.33763 0.10066
      vertex 0 0.337907 0.103474
    endloop
  endfacet
  facet normal -1 0 0
    outer loop
      vertex 0 0.444699 0.111891
      vertex 0 0.33717 0.0978718
      vertex 0 0.33763 0.10066
    endloop
  endfacet
  facet normal -1 0 0
    outer loop
      vertex 0 0.444699 0.111891
      vertex 0 0.336528 0.0951185
      vertex 0 0.33717 0.0978718
    endloop
  endfacet
  facet normal -1 0 0
    outer loop
      vertex 0 0.444699 0.111891
      vertex 0 0.335707 0.0924129
      vertex 0 0.336528 0.0951185
    endloop
  endfacet
  facet normal -1 0 0
    outer loop
      vertex 0 0.444699 0.111891
      vertex 0 0.334711 0.0897675
      vertex 0 0.335707 0.0924129
    endloop
  endfacet
  facet normal -1 0 0
    outer loop
      vertex 0 0.444699 0.111891
      vertex 0 0.333545 0.0871925
      vertex 0 0.334711 0.0897675
    endloop
  endfacet
  facet normal -1 0 0
    outer loop
      vertex 0 0.444699 0
      vertex 0 0.332211 0.0846996
      vertex 0 0.333545 0.0871925
    endloop
  endfacet
  facet normal -1 0 0
    outer loop
      vertex 0 0.444699 0
      vertex 0 0.330719 0.0822992
      vertex 0 0.332211 0.0846996
    endloop
  endfacet
  facet normal -1 0 0
    outer loop
      vertex 0 0.444699 0
      vertex 0 0.329072 0.0800009
      vertex 0 0.330719 0.0822992
    endloop
  endfacet
  facet normal -1 0 0
    outer loop
      vertex 0 0.444699 0
      vertex 0 0.327279 0.077816
      vertex 0 0.329072 0.0800009
    endloop
  endfacet
  facet normal -1 0 0
    outer loop
      vertex 0 0.444699 0
      vertex 0 0.325347 0.0757523
      vertex 0 0.327279 0.077816
    endloop
  endfacet
  facet normal -1 0 0
    outer loop
      vertex 0 0.444699 0
      vertex 0 0.323283 0.0738201
      vertex 0 0.325347 0.0757523
    endloop
  endfacet
  facet normal -1 0 0
    outer loop
      vertex 0 0.444699 0
      vertex 0 0.321098 0.0720263
      vertex 0 0.323283 0.0738201
    endloop
  endfacet
  facet normal -1 0 0
    outer loop
      vertex 0 0.444699 0
      vertex 0 0.3188 0.0703802
      vertex 0 0.321098 0.0720263
    endloop
  endfacet
  facet normal -1 0 0
    outer loop
      vertex 0 0.444699 0
      vertex 0 0.3164 0.0688868
      vertex 0 0.3188 0.0703802
    endloop
  endfacet
  facet normal -1 0 0
    outer loop
      vertex 0 0.444699 0
      vertex 0 0.313907 0.0675545
      vertex 0 0.3164 0.0688868
    endloop
  endfacet
  facet normal -1 0 0
    outer loop
      vertex 0 0.444699 0
      vertex 0 0.311332 0.0663881
      vertex 0 0.313907 0.0675545
    endloop
  endfacet
  facet normal -1 0 0
    outer loop
      vertex 0 0.444699 0
      vertex 0 0.308685 0.0653925
      vertex 0 0.311332 0.0663881
    endloop
  endfacet
  facet normal -1 0 0
    outer loop
      vertex 0 0.444699 0
      vertex 0 0.305981 0.0645714
      vertex 0 0.308685 0.0653925
    endloop
  endfacet
  facet normal -1 0 0
    outer loop
      vertex 0 0.444699 0
      vertex 0 0.303227 0.0639296
      vertex 0 0.305981 0.0645714
    endloop
  endfacet
  facet normal -1 0 0
    outer loop
      vertex 0 0.444699 0
      vertex 0 0.300438 0.0634689
      vertex 0 0.303227 0.0639296
    endloop
  endfacet
  facet normal -1 0 0
    outer loop
      vertex 0 0.444699 0
      vertex 0 0.297625 0.0631924
      vertex 0 0.300438 0.0634689
    endloop
  endfacet
  facet normal -1 0 0
    outer loop
      vertex 0 0.444699 0
      vertex 0 0.2948 0.0630999
      vertex 0 0.297625 0.0631924
    endloop
  endfacet
  facet normal -1 0 0
    outer loop
      vertex 0 0.444699 0
      vertex 0 0.291974 0.0631924
      vertex 0 0.2948 0.0630999
    endloop
  endfacet
  facet normal -1 0 0
    outer loop
      vertex 0 0.444699 0
      vertex 0 0.289161 0.0634689
      vertex 0 0.291974 0.0631924
    endloop
  endfacet
  facet normal -1 0 0
    outer loop
      vertex 0 0.444699 0
      vertex 0 0.286371 0.0639296
      vertex 0 0.289161 0.0634689
    endloop
  endfacet
  facet normal -1 0 0
    outer loop
      vertex 0 0 0
      vertex 0 0.286371 0.0639296
      vertex 0 0.444699 0
    endloop
  endfacet
  facet normal -1 -0 0
    outer loop
      vertex 0 0.286371 0.0639296
      vertex 0 0 0
      vertex 0 0.283619 0.0645714
    endloop
  endfacet
  facet normal -1 -0 0
    outer loop
      vertex 0 0.283619 0.0645714
      vertex 0 0 0
      vertex 0 0.280913 0.0653925
    endloop
  endfacet
  facet normal -1 -0 0
    outer loop
      vertex 0 0.251692 0.103474
      vertex 0 0.134521 0.0991993
      vertex 0 0.251599 0.106299
    endloop
  endfacet
  facet normal -1 -0 0
    outer loop
      vertex 0 0.251969 0.10066
      vertex 0 0.134521 0.0991993
      vertex 0 0.251692 0.103474
    endloop
  endfacet
  facet normal -1 0 0
    outer loop
      vertex 0 0.25243 0.0978718
      vertex 0 0.134521 0.0991993
      vertex 0 0.251969 0.10066
    endloop
  endfacet
  facet normal -1 0 0
    outer loop
      vertex 0 0.253072 0.0951185
      vertex 0 0.134521 0.0991993
      vertex 0 0.25243 0.0978718
    endloop
  endfacet
  facet normal -1 0 0
    outer loop
      vertex 0 0.253892 0.0924129
      vertex 0 0.134521 0.0991993
      vertex 0 0.253072 0.0951185
    endloop
  endfacet
  facet normal -1 0 0
    outer loop
      vertex 0 0.254888 0.0897675
      vertex 0 0.134521 0.0991993
      vertex 0 0.253892 0.0924129
    endloop
  endfacet
  facet normal -1 0 0
    outer loop
      vertex 0 0.256055 0.0871925
      vertex 0 0.134521 0.0991993
      vertex 0 0.254888 0.0897675
    endloop
  endfacet
  facet normal -1 0 0
    outer loop
      vertex 0 0.257387 0.0846996
      vertex 0 0.134521 0.0991993
      vertex 0 0.256055 0.0871925
    endloop
  endfacet
  facet normal -1 0 0
    outer loop
      vertex 0 0.25888 0.0822992
      vertex 0 0.134521 0.0991993
      vertex 0 0.257387 0.0846996
    endloop
  endfacet
  facet normal -1 0 0
    outer loop
      vertex 0 0.260527 0.0800009
      vertex 0 0.134521 0.0991993
      vertex 0 0.25888 0.0822992
    endloop
  endfacet
  facet normal -1 0 0
    outer loop
      vertex 0 0.262321 0.077816
      vertex 0 0.134521 0.0991993
      vertex 0 0.260527 0.0800009
    endloop
  endfacet
  facet normal -1 0 0
    outer loop
      vertex 0 0.264253 0.0757523
      vertex 0 0.134521 0.0991993
      vertex 0 0.262321 0.077816
    endloop
  endfacet
  facet normal -1 0 0
    outer loop
      vertex 0 0.266315 0.0738201
      vertex 0 0.134521 0.0991993
      vertex 0 0.264253 0.0757523
    endloop
  endfacet
  facet normal -1 0 0
    outer loop
      vertex 0 0.268501 0.0720263
      vertex 0 0.134521 0.0991993
      vertex 0 0.266315 0.0738201
    endloop
  endfacet
  facet normal -1 0 0
    outer loop
      vertex 0 0.270799 0.0703802
      vertex 0 0.134521 0.0991993
      vertex 0 0.268501 0.0720263
    endloop
  endfacet
  facet normal -1 0 0
    outer loop
      vertex 0 0 0
      vertex 0 0.270799 0.0703802
      vertex 0 0.273199 0.0688868
    endloop
  endfacet
  facet normal -1 0 0
    outer loop
      vertex 0 0 0
      vertex 0 0.273199 0.0688868
      vertex 0 0.275693 0.0675545
    endloop
  endfacet
  facet normal -1 0 0
    outer loop
      vertex 0 0 0
      vertex 0 0.275693 0.0675545
      vertex 0 0.278268 0.0663881
    endloop
  endfacet
  facet normal -1 -0 0
    outer loop
      vertex 0 0.280913 0.0653925
      vertex 0 0 0
      vertex 0 0.278268 0.0663881
    endloop
  endfacet
  facet normal -1 -0 0
    outer loop
      vertex 0 0.270799 0.0703802
      vertex 0 0 0
      vertex 0 0.134521 0.0991993
    endloop
  endfacet
  facet normal -1 0 0
    outer loop
      vertex 0 0 0.1938
      vertex 0 0.0909996 0.0991993
      vertex 0 0 0
    endloop
  endfacet
  facet normal -1 -0 0
    outer loop
      vertex 0 0.134521 0.0991993
      vertex 0 0 0
      vertex 0 0.0909996 0.0991993
    endloop
  endfacet
  facet normal -1 0 0
    outer loop
      vertex 0 0.525803 0.111891
      vertex 0 0.625 0
      vertex 0 0.525803 0
    endloop
  endfacet
  facet normal -1 0 0
    outer loop
      vertex 0 0.625 0
      vertex 0 0.525803 0.111891
      vertex 0 0.625 0.1938
    endloop
  endfacet
  facet normal -1 0 0
    outer loop
      vertex 0 0.444699 0.111891
      vertex 0 0.625 0.1938
      vertex 0 0.525803 0.111891
    endloop
  endfacet
  facet normal -1 0 0
    outer loop
      vertex 0 0.337907 0.109125
      vertex 0 0.444699 0.111891
      vertex 0 0.337999 0.106299
    endloop
  endfacet
  facet normal -1 0 0
    outer loop
      vertex 0 0.33763 0.111938
      vertex 0 0.444699 0.111891
      vertex 0 0.337907 0.109125
    endloop
  endfacet
  facet normal -1 0 0
    outer loop
      vertex 0 0.33717 0.114727
      vertex 0 0.444699 0.111891
      vertex 0 0.33763 0.111938
    endloop
  endfacet
  facet normal -1 0 0
    outer loop
      vertex 0 0.336528 0.11748
      vertex 0 0.444699 0.111891
      vertex 0 0.33717 0.114727
    endloop
  endfacet
  facet normal -1 0 0
    outer loop
      vertex 0 0.335707 0.120186
      vertex 0 0.444699 0.111891
      vertex 0 0.336528 0.11748
    endloop
  endfacet
  facet normal -1 0 0
    outer loop
      vertex 0 0.334711 0.122831
      vertex 0 0.444699 0.111891
      vertex 0 0.335707 0.120186
    endloop
  endfacet
  facet normal -1 0 0
    outer loop
      vertex 0 0.333545 0.125406
      vertex 0 0.444699 0.111891
      vertex 0 0.334711 0.122831
    endloop
  endfacet
  facet normal -1 0 0
    outer loop
      vertex 0 0.332211 0.127899
      vertex 0 0.444699 0.111891
      vertex 0 0.333545 0.125406
    endloop
  endfacet
  facet normal -1 0 0
    outer loop
      vertex 0 0.330719 0.130301
      vertex 0 0.444699 0.111891
      vertex 0 0.332211 0.127899
    endloop
  endfacet
  facet normal -1 0 0
    outer loop
      vertex 0 0.329072 0.132598
      vertex 0 0.444699 0.111891
      vertex 0 0.330719 0.130301
    endloop
  endfacet
  facet normal -1 0 0
    outer loop
      vertex 0 0.327279 0.134783
      vertex 0 0.444699 0.111891
      vertex 0 0.329072 0.132598
    endloop
  endfacet
  facet normal -1 0 0
    outer loop
      vertex 0 0.325347 0.136847
      vertex 0 0.444699 0.111891
      vertex 0 0.327279 0.134783
    endloop
  endfacet
  facet normal -1 0 0
    outer loop
      vertex 0 0.323283 0.138779
      vertex 0 0.444699 0.111891
      vertex 0 0.325347 0.136847
    endloop
  endfacet
  facet normal -1 0 0
    outer loop
      vertex 0 0.321098 0.140573
      vertex 0 0.444699 0.111891
      vertex 0 0.323283 0.138779
    endloop
  endfacet
  facet normal -1 0 0
    outer loop
      vertex 0 0.3188 0.142219
      vertex 0 0.444699 0.111891
      vertex 0 0.321098 0.140573
    endloop
  endfacet
  facet normal -1 0 0
    outer loop
      vertex 0 0.3164 0.143712
      vertex 0 0.444699 0.111891
      vertex 0 0.3188 0.142219
    endloop
  endfacet
  facet normal -1 0 0
    outer loop
      vertex 0 0.444699 0.111891
      vertex 0 0.3164 0.143712
      vertex 0 0.625 0.1938
    endloop
  endfacet
  facet normal -1 0 0
    outer loop
      vertex 0 0.313907 0.145044
      vertex 0 0.625 0.1938
      vertex 0 0.3164 0.143712
    endloop
  endfacet
  facet normal -1 0 0
    outer loop
      vertex 0 0.311332 0.146211
      vertex 0 0.625 0.1938
      vertex 0 0.313907 0.145044
    endloop
  endfacet
  facet normal -1 0 0
    outer loop
      vertex 0 0.308685 0.147207
      vertex 0 0.625 0.1938
      vertex 0 0.311332 0.146211
    endloop
  endfacet
  facet normal -1 0 0
    outer loop
      vertex 0 0.305981 0.148027
      vertex 0 0.625 0.1938
      vertex 0 0.308685 0.147207
    endloop
  endfacet
  facet normal -1 0 0
    outer loop
      vertex 0 0.303227 0.148669
      vertex 0 0.625 0.1938
      vertex 0 0.305981 0.148027
    endloop
  endfacet
  facet normal -1 0 0
    outer loop
      vertex 0 0.300438 0.14913
      vertex 0 0.625 0.1938
      vertex 0 0.303227 0.148669
    endloop
  endfacet
  facet normal -1 0 0
    outer loop
      vertex 0 0.297625 0.149407
      vertex 0 0.625 0.1938
      vertex 0 0.300438 0.14913
    endloop
  endfacet
  facet normal -1 0 0
    outer loop
      vertex 0 0.2948 0.1495
      vertex 0 0.625 0.1938
      vertex 0 0.297625 0.149407
    endloop
  endfacet
  facet normal -1 0 0
    outer loop
      vertex 0 0 0.1938
      vertex 0 0.2948 0.1495
      vertex 0 0.291974 0.149407
    endloop
  endfacet
  facet normal -1 0 0
    outer loop
      vertex 0 0 0.1938
      vertex 0 0.291974 0.149407
      vertex 0 0.289161 0.14913
    endloop
  endfacet
  facet normal -1 0 0
    outer loop
      vertex 0 0.134521 0.0991993
      vertex 0 0.251692 0.109125
      vertex 0 0.251599 0.106299
    endloop
  endfacet
  facet normal -1 0 0
    outer loop
      vertex 0 0.134521 0.0991993
      vertex 0 0.251969 0.111938
      vertex 0 0.251692 0.109125
    endloop
  endfacet
  facet normal -1 0 0
    outer loop
      vertex 0 0.134521 0.143308
      vertex 0 0.251969 0.111938
      vertex 0 0.134521 0.0991993
    endloop
  endfacet
  facet normal -1 0 0
    outer loop
      vertex 0 0.251969 0.111938
      vertex 0 0.134521 0.143308
      vertex 0 0.25243 0.114727
    endloop
  endfacet
  facet normal -1 0 0
    outer loop
      vertex 0 0.25243 0.114727
      vertex 0 0.134521 0.143308
      vertex 0 0.253072 0.11748
    endloop
  endfacet
  facet normal -1 0 0
    outer loop
      vertex 0 0.253072 0.11748
      vertex 0 0.134521 0.143308
      vertex 0 0.253892 0.120186
    endloop
  endfacet
  facet normal -1 0 0
    outer loop
      vertex 0 0.253892 0.120186
      vertex 0 0.134521 0.143308
      vertex 0 0.254888 0.122831
    endloop
  endfacet
  facet normal -1 0 0
    outer loop
      vertex 0 0.254888 0.122831
      vertex 0 0.134521 0.143308
      vertex 0 0.256055 0.125406
    endloop
  endfacet
  facet normal -1 0 0
    outer loop
      vertex 0 0.256055 0.125406
      vertex 0 0.134521 0.143308
      vertex 0 0.257387 0.127899
    endloop
  endfacet
  facet normal -1 0 0
    outer loop
      vertex 0 0.257387 0.127899
      vertex 0 0.134521 0.143308
      vertex 0 0.25888 0.130301
    endloop
  endfacet
  facet normal -1 0 0
    outer loop
      vertex 0 0.25888 0.130301
      vertex 0 0.134521 0.143308
      vertex 0 0.260527 0.132598
    endloop
  endfacet
  facet normal -1 0 0
    outer loop
      vertex 0 0.260527 0.132598
      vertex 0 0.134521 0.143308
      vertex 0 0.262321 0.134783
    endloop
  endfacet
  facet normal -1 0 0
    outer loop
      vertex 0 0.262321 0.134783
      vertex 0 0.134521 0.143308
      vertex 0 0.264253 0.136847
    endloop
  endfacet
  facet normal -1 0 0
    outer loop
      vertex 0 0.264253 0.136847
      vertex 0 0.134521 0.143308
      vertex 0 0.266315 0.138779
    endloop
  endfacet
  facet normal -1 0 0
    outer loop
      vertex 0 0.266315 0.138779
      vertex 0 0.134521 0.143308
      vertex 0 0.268501 0.140573
    endloop
  endfacet
  facet normal -1 0 0
    outer loop
      vertex 0 0.268501 0.140573
      vertex 0 0.134521 0.143308
      vertex 0 0.270799 0.142219
    endloop
  endfacet
  facet normal -1 0 0
    outer loop
      vertex 0 0.270799 0.142219
      vertex 0 0.134521 0.143308
      vertex 0 0.273199 0.143712
    endloop
  endfacet
  facet normal -1 -0 0
    outer loop
      vertex 0 0.273199 0.143712
      vertex 0 0.134521 0.143308
      vertex 0 0.275693 0.145044
    endloop
  endfacet
  facet normal -1 -0 0
    outer loop
      vertex 0 0.275693 0.145044
      vertex 0 0.134521 0.143308
      vertex 0 0.278268 0.146211
    endloop
  endfacet
  facet normal -1 -0 0
    outer loop
      vertex 0 0.278268 0.146211
      vertex 0 0.134521 0.143308
      vertex 0 0.280913 0.147207
    endloop
  endfacet
  facet normal -1 0 0
    outer loop
      vertex 0 0.134521 0.143308
      vertex 0 0.283619 0.148027
      vertex 0 0.280913 0.147207
    endloop
  endfacet
  facet normal -1 0 0
    outer loop
      vertex 0 0.134521 0.143308
      vertex 0 0.286371 0.148669
      vertex 0 0.283619 0.148027
    endloop
  endfacet
  facet normal -1 0 0
    outer loop
      vertex 0 0 0.1938
      vertex 0 0.286371 0.148669
      vertex 0 0.134521 0.143308
    endloop
  endfacet
  facet normal -1 0 0
    outer loop
      vertex 0 0.286371 0.148669
      vertex 0 0 0.1938
      vertex 0 0.289161 0.14913
    endloop
  endfacet
  facet normal -1 0 0
    outer loop
      vertex 0 0 0.1938
      vertex 0 0.134521 0.143308
      vertex 0 0.0909996 0.143308
    endloop
  endfacet
  facet normal -1 0 0
    outer loop
      vertex 0 0.2948 0.1495
      vertex 0 0 0.1938
      vertex 0 0.625 0.1938
    endloop
  endfacet
  facet normal -1 0 0
    outer loop
      vertex 0 0.0909996 0.0991993
      vertex 0 0 0.1938
      vertex 0 0.0909996 0.143308
    endloop
  endfacet
  facet normal 0 0 1
    outer loop
      vertex 0.577168 0.207299 0.00624943
      vertex 0.75 0.625 0.00624943
      vertex 0.577168 0.613549 0.00624943
    endloop
  endfacet
  facet normal 0 0 1
    outer loop
      vertex 0.75 0.625 0.00624943
      vertex 0.3125 0.613549 0.00624943
      vertex 0.577168 0.613549 0.00624943
    endloop
  endfacet
  facet normal 0 0 1
    outer loop
      vertex 0.00634956 0.444699 0.00624943
      vertex 0.3125 0.613549 0.00624943
      vertex 0.00634956 0.525803 0.00624943
    endloop
  endfacet
  facet normal -0 0 1
    outer loop
      vertex 0.00629997 0.625 0.00624943
      vertex 0.3125 0.613549 0.00624943
      vertex 0.75 0.625 0.00624943
    endloop
  endfacet
  facet normal 0 0 1
    outer loop
      vertex 0.00629997 0.625 0.00624943
      vertex 0.00634956 0.525803 0.00624943
      vertex 0.3125 0.613549 0.00624943
    endloop
  endfacet
  facet normal 0 0 1
    outer loop
      vertex 0.00634956 0.525803 0.00624943
      vertex 0.00629997 0.625 0.00624943
      vertex 0.00629997 0.525803 0.00624943
    endloop
  endfacet
  facet normal 0 0 1
    outer loop
      vertex 0.75 0.625 0.00624943
      vertex 0.577168 0.207299 0.00624943
      vertex 0.75 0 0.00624943
    endloop
  endfacet
  facet normal -0 0 1
    outer loop
      vertex 0.3125 0.207299 0.00624943
      vertex 0.75 0 0.00624943
      vertex 0.577168 0.207299 0.00624943
    endloop
  endfacet
  facet normal 0 0 1
    outer loop
      vertex 0.3125 0.613549 0.00624943
      vertex 0.00634956 0.444699 0.00624943
      vertex 0.3125 0.207299 0.00624943
    endloop
  endfacet
  facet normal 0 0 1
    outer loop
      vertex 0.00629997 0 0.00624943
      vertex 0.00634956 0.444699 0.00624943
      vertex 0.00629997 0.444699 0.00624943
    endloop
  endfacet
  facet normal 0 0 1
    outer loop
      vertex 0.3125 0.207299 0.00624943
      vertex 0.00629997 0 0.00624943
      vertex 0.75 0 0.00624943
    endloop
  endfacet
  facet normal 0 0 1
    outer loop
      vertex 0.00634956 0.444699 0.00624943
      vertex 0.00629997 0 0.00624943
      vertex 0.3125 0.207299 0.00624943
    endloop
  endfacet
  facet normal 1 -0 0
    outer loop
      vertex 0.75 0 0.00624943
      vertex 0.75 0.625 0
      vertex 0.75 0.625 0.00624943
    endloop
  endfacet
  facet normal 1 0 0
    outer loop
      vertex 0.75 0.625 0
      vertex 0.75 0 0.00624943
      vertex 0.75 0 0
    endloop
  endfacet
  facet normal 0 1 0
    outer loop
      vertex 0.75 0.625 0.00624943
      vertex 0.75 0.625 0
      vertex 0.00629997 0.625 0.00624943
    endloop
  endfacet
  facet normal 0 1 -0
    outer loop
      vertex 0.00629997 0.625 0.00624943
      vertex 0 0.625 0.1938
      vertex 0.00629997 0.625 0.1938
    endloop
  endfacet
  facet normal 0 1 0
    outer loop
      vertex 0.00629997 0.625 0.00624943
      vertex 0 0.625 0
      vertex 0 0.625 0.1938
    endloop
  endfacet
  facet normal 0 1 0
    outer loop
      vertex 0 0.625 0
      vertex 0.00629997 0.625 0.00624943
      vertex 0.75 0.625 0
    endloop
  endfacet
  facet normal 0 0 -1
    outer loop
      vertex 0.75 0 0
      vertex 0.577168 0.207299 0
      vertex 0.75 0.625 0
    endloop
  endfacet
  facet normal 0 0 -1
    outer loop
      vertex 0.75 0 0
      vertex 0.3125 0.207299 0
      vertex 0.577168 0.207299 0
    endloop
  endfacet
  facet normal 0 0 -1
    outer loop
      vertex 0.3125 0.207299 0
      vertex 0.00634956 0.444699 0
      vertex 0.3125 0.613549 0
    endloop
  endfacet
  facet normal 0 0 -1
    outer loop
      vertex 0 0 0
      vertex 0.3125 0.207299 0
      vertex 0.75 0 0
    endloop
  endfacet
  facet normal 0 0 -1
    outer loop
      vertex 0 0 0
      vertex 0.00634956 0.444699 0
      vertex 0.3125 0.207299 0
    endloop
  endfacet
  facet normal -0 0 -1
    outer loop
      vertex 0.00634956 0.444699 0
      vertex 0 0 0
      vertex 0 0.444699 0
    endloop
  endfacet
  facet normal 0 0 -1
    outer loop
      vertex 0.577168 0.613549 0
      vertex 0.75 0.625 0
      vertex 0.577168 0.207299 0
    endloop
  endfacet
  facet normal 0 0 -1
    outer loop
      vertex 0.3125 0.613549 0
      vertex 0.75 0.625 0
      vertex 0.577168 0.613549 0
    endloop
  endfacet
  facet normal 0 0 -1
    outer loop
      vertex 0.00634956 0.525803 0
      vertex 0.3125 0.613549 0
      vertex 0.00634956 0.444699 0
    endloop
  endfacet
  facet normal 0 0 -1
    outer loop
      vertex 0 0.625 0
      vertex 0.00634956 0.525803 0
      vertex 0 0.525803 0
    endloop
  endfacet
  facet normal 0 0 -1
    outer loop
      vertex 0.3125 0.613549 0
      vertex 0 0.625 0
      vertex 0.75 0.625 0
    endloop
  endfacet
  facet normal 0 0 -1
    outer loop
      vertex 0.00634956 0.525803 0
      vertex 0 0.625 0
      vertex 0.3125 0.613549 0
    endloop
  endfacet
  facet normal 0 -1 0
    outer loop
      vertex 0 0 0.1938
      vertex 0.00629997 0 0.00624943
      vertex 0.00629997 0 0.1938
    endloop
  endfacet
  facet normal 0 -1 0
    outer loop
      vertex 0 0 0
      vertex 0.00629997 0 0.00624943
      vertex 0 0 0.1938
    endloop
  endfacet
  facet normal 0 -1 0
    outer loop
      vertex 0.75 0 0
      vertex 0.00629997 0 0.00624943
      vertex 0 0 0
    endloop
  endfacet
  facet normal 0 -1 0
    outer loop
      vertex 0.00629997 0 0.00624943
      vertex 0.75 0 0
      vertex 0.75 0 0.00624943
    endloop
  endfacet
  facet normal -0 0 1
    outer loop
      vertex 0 0.625 0.1938
      vertex 0.00629997 0 0.1938
      vertex 0.00629997 0.625 0.1938
    endloop
  endfacet
  facet normal 0 0 1
    outer loop
      vertex 0.00629997 0 0.1938
      vertex 0 0.625 0.1938
      vertex 0 0 0.1938
    endloop
  endfacet
  facet normal 1 0 0
    outer loop
      vertex 0.00629997 0.625 0.1938
      vertex 0.00629997 0.525803 0.111891
      vertex 0.00629997 0.625 0.00624943
    endloop
  endfacet
  facet normal 1 0 0
    outer loop
      vertex 0.00629997 0.625 0.1938
      vertex 0.00629997 0.444699 0.111891
      vertex 0.00629997 0.525803 0.111891
    endloop
  endfacet
  facet normal 1 0 0
    outer loop
      vertex 0.00629997 0.337907 0.103474
      vertex 0.00629997 0.444699 0.111891
      vertex 0.00629997 0.337999 0.106299
    endloop
  endfacet
  facet normal 1 -0 0
    outer loop
      vertex 0.00629997 0.3164 0.143712
      vertex 0.00629997 0.444699 0.111891
      vertex 0.00629997 0.625 0.1938
    endloop
  endfacet
  facet normal 1 0 0
    outer loop
      vertex 0.00629997 0.444699 0.111891
      vertex 0.00629997 0.337907 0.109125
      vertex 0.00629997 0.337999 0.106299
    endloop
  endfacet
  facet normal 1 0 0
    outer loop
      vertex 0.00629997 0.444699 0.111891
      vertex 0.00629997 0.33763 0.111938
      vertex 0.00629997 0.337907 0.109125
    endloop
  endfacet
  facet normal 1 0 0
    outer loop
      vertex 0.00629997 0.444699 0.111891
      vertex 0.00629997 0.33717 0.114727
      vertex 0.00629997 0.33763 0.111938
    endloop
  endfacet
  facet normal 1 0 0
    outer loop
      vertex 0.00629997 0.444699 0.111891
      vertex 0.00629997 0.336528 0.11748
      vertex 0.00629997 0.33717 0.114727
    endloop
  endfacet
  facet normal 1 0 0
    outer loop
      vertex 0.00629997 0.444699 0.111891
      vertex 0.00629997 0.335707 0.120186
      vertex 0.00629997 0.336528 0.11748
    endloop
  endfacet
  facet normal 1 0 0
    outer loop
      vertex 0.00629997 0.444699 0.111891
      vertex 0.00629997 0.334711 0.122831
      vertex 0.00629997 0.335707 0.120186
    endloop
  endfacet
  facet normal 1 0 0
    outer loop
      vertex 0.00629997 0.444699 0.111891
      vertex 0.00629997 0.333545 0.125406
      vertex 0.00629997 0.334711 0.122831
    endloop
  endfacet
  facet normal 1 0 0
    outer loop
      vertex 0.00629997 0.444699 0.111891
      vertex 0.00629997 0.332211 0.127899
      vertex 0.00629997 0.333545 0.125406
    endloop
  endfacet
  facet normal 1 0 0
    outer loop
      vertex 0.00629997 0.444699 0.111891
      vertex 0.00629997 0.330719 0.130301
      vertex 0.00629997 0.332211 0.127899
    endloop
  endfacet
  facet normal 1 0 0
    outer loop
      vertex 0.00629997 0.444699 0.111891
      vertex 0.00629997 0.329072 0.132598
      vertex 0.00629997 0.330719 0.130301
    endloop
  endfacet
  facet normal 1 0 0
    outer loop
      vertex 0.00629997 0.444699 0.111891
      vertex 0.00629997 0.327279 0.134783
      vertex 0.00629997 0.329072 0.132598
    endloop
  endfacet
  facet normal 1 0 0
    outer loop
      vertex 0.00629997 0.444699 0.111891
      vertex 0.00629997 0.325347 0.136847
      vertex 0.00629997 0.327279 0.134783
    endloop
  endfacet
  facet normal 1 0 0
    outer loop
      vertex 0.00629997 0.444699 0.111891
      vertex 0.00629997 0.323283 0.138779
      vertex 0.00629997 0.325347 0.136847
    endloop
  endfacet
  facet normal 1 0 0
    outer loop
      vertex 0.00629997 0.444699 0.111891
      vertex 0.00629997 0.321098 0.140573
      vertex 0.00629997 0.323283 0.138779
    endloop
  endfacet
  facet normal 1 0 0
    outer loop
      vertex 0.00629997 0.444699 0.111891
      vertex 0.00629997 0.3188 0.142219
      vertex 0.00629997 0.321098 0.140573
    endloop
  endfacet
  facet normal 1 0 0
    outer loop
      vertex 0.00629997 0.444699 0.111891
      vertex 0.00629997 0.3164 0.143712
      vertex 0.00629997 0.3188 0.142219
    endloop
  endfacet
  facet normal 1 0 0
    outer loop
      vertex 0.00629997 0.625 0.1938
      vertex 0.00629997 0.313907 0.145044
      vertex 0.00629997 0.3164 0.143712
    endloop
  endfacet
  facet normal 1 0 0
    outer loop
      vertex 0.00629997 0.625 0.1938
      vertex 0.00629997 0.311332 0.146211
      vertex 0.00629997 0.313907 0.145044
    endloop
  endfacet
  facet normal 1 0 0
    outer loop
      vertex 0.00629997 0.625 0.1938
      vertex 0.00629997 0.308685 0.147207
      vertex 0.00629997 0.311332 0.146211
    endloop
  endfacet
  facet normal 1 0 0
    outer loop
      vertex 0.00629997 0.625 0.1938
      vertex 0.00629997 0.305981 0.148027
      vertex 0.00629997 0.308685 0.147207
    endloop
  endfacet
  facet normal 1 0 0
    outer loop
      vertex 0.00629997 0.625 0.1938
      vertex 0.00629997 0.303227 0.148669
      vertex 0.00629997 0.305981 0.148027
    endloop
  endfacet
  facet normal 1 0 0
    outer loop
      vertex 0.00629997 0.625 0.1938
      vertex 0.00629997 0.300438 0.14913
      vertex 0.00629997 0.303227 0.148669
    endloop
  endfacet
  facet normal 1 0 0
    outer loop
      vertex 0.00629997 0.625 0.1938
      vertex 0.00629997 0.297625 0.149407
      vertex 0.00629997 0.300438 0.14913
    endloop
  endfacet
  facet normal 1 0 0
    outer loop
      vertex 0.00629997 0.625 0.1938
      vertex 0.00629997 0.2948 0.1495
      vertex 0.00629997 0.297625 0.149407
    endloop
  endfacet
  facet normal 1 -0 0
    outer loop
      vertex 0.00629997 0 0.1938
      vertex 0.00629997 0.2948 0.1495
      vertex 0.00629997 0.625 0.1938
    endloop
  endfacet
  facet normal 1 0 0
    outer loop
      vertex 0.00629997 0.2948 0.1495
      vertex 0.00629997 0 0.1938
      vertex 0.00629997 0.291974 0.149407
    endloop
  endfacet
  facet normal 1 0 0
    outer loop
      vertex 0.00629997 0.251969 0.111938
      vertex 0.00629997 0.134521 0.0991993
      vertex 0.00629997 0.251692 0.109125
    endloop
  endfacet
  facet normal 1 0 0
    outer loop
      vertex 0.00629997 0.134521 0.0991993
      vertex 0.00629997 0.251969 0.111938
      vertex 0.00629997 0.134521 0.143308
    endloop
  endfacet
  facet normal 1 0 0
    outer loop
      vertex 0.00629997 0.25243 0.114727
      vertex 0.00629997 0.134521 0.143308
      vertex 0.00629997 0.251969 0.111938
    endloop
  endfacet
  facet normal 1 0 0
    outer loop
      vertex 0.00629997 0.253072 0.11748
      vertex 0.00629997 0.134521 0.143308
      vertex 0.00629997 0.25243 0.114727
    endloop
  endfacet
  facet normal 1 0 0
    outer loop
      vertex 0.00629997 0.253892 0.120186
      vertex 0.00629997 0.134521 0.143308
      vertex 0.00629997 0.253072 0.11748
    endloop
  endfacet
  facet normal 1 0 0
    outer loop
      vertex 0.00629997 0.254888 0.122831
      vertex 0.00629997 0.134521 0.143308
      vertex 0.00629997 0.253892 0.120186
    endloop
  endfacet
  facet normal 1 0 0
    outer loop
      vertex 0.00629997 0.256055 0.125406
      vertex 0.00629997 0.134521 0.143308
      vertex 0.00629997 0.254888 0.122831
    endloop
  endfacet
  facet normal 1 0 0
    outer loop
      vertex 0.00629997 0.257387 0.127899
      vertex 0.00629997 0.134521 0.143308
      vertex 0.00629997 0.256055 0.125406
    endloop
  endfacet
  facet normal 1 0 0
    outer loop
      vertex 0.00629997 0.25888 0.130301
      vertex 0.00629997 0.134521 0.143308
      vertex 0.00629997 0.257387 0.127899
    endloop
  endfacet
  facet normal 1 0 0
    outer loop
      vertex 0.00629997 0.260527 0.132598
      vertex 0.00629997 0.134521 0.143308
      vertex 0.00629997 0.25888 0.130301
    endloop
  endfacet
  facet normal 1 0 0
    outer loop
      vertex 0.00629997 0.262321 0.134783
      vertex 0.00629997 0.134521 0.143308
      vertex 0.00629997 0.260527 0.132598
    endloop
  endfacet
  facet normal 1 0 0
    outer loop
      vertex 0.00629997 0.264253 0.136847
      vertex 0.00629997 0.134521 0.143308
      vertex 0.00629997 0.262321 0.134783
    endloop
  endfacet
  facet normal 1 0 0
    outer loop
      vertex 0.00629997 0.266315 0.138779
      vertex 0.00629997 0.134521 0.143308
      vertex 0.00629997 0.264253 0.136847
    endloop
  endfacet
  facet normal 1 0 0
    outer loop
      vertex 0.00629997 0.268501 0.140573
      vertex 0.00629997 0.134521 0.143308
      vertex 0.00629997 0.266315 0.138779
    endloop
  endfacet
  facet normal 1 0 0
    outer loop
      vertex 0.00629997 0.270799 0.142219
      vertex 0.00629997 0.134521 0.143308
      vertex 0.00629997 0.268501 0.140573
    endloop
  endfacet
  facet normal 1 0 0
    outer loop
      vertex 0.00629997 0.273199 0.143712
      vertex 0.00629997 0.134521 0.143308
      vertex 0.00629997 0.270799 0.142219
    endloop
  endfacet
  facet normal 1 0 0
    outer loop
      vertex 0.00629997 0.275693 0.145044
      vertex 0.00629997 0.134521 0.143308
      vertex 0.00629997 0.273199 0.143712
    endloop
  endfacet
  facet normal 1 0 0
    outer loop
      vertex 0.00629997 0.278268 0.146211
      vertex 0.00629997 0.134521 0.143308
      vertex 0.00629997 0.275693 0.145044
    endloop
  endfacet
  facet normal 1 0 0
    outer loop
      vertex 0.00629997 0.280913 0.147207
      vertex 0.00629997 0.134521 0.143308
      vertex 0.00629997 0.278268 0.146211
    endloop
  endfacet
  facet normal 1 0 0
    outer loop
      vertex 0.00629997 0.283619 0.148027
      vertex 0.00629997 0.134521 0.143308
      vertex 0.00629997 0.280913 0.147207
    endloop
  endfacet
  facet normal 1 0 0
    outer loop
      vertex 0.00629997 0.286371 0.148669
      vertex 0.00629997 0.134521 0.143308
      vertex 0.00629997 0.283619 0.148027
    endloop
  endfacet
  facet normal 1 0 0
    outer loop
      vertex 0.00629997 0 0.1938
      vertex 0.00629997 0.286371 0.148669
      vertex 0.00629997 0.289161 0.14913
    endloop
  endfacet
  facet normal 1 0 0
    outer loop
      vertex 0.00629997 0.291974 0.149407
      vertex 0.00629997 0 0.1938
      vertex 0.00629997 0.289161 0.14913
    endloop
  endfacet
  facet normal 1 0 0
    outer loop
      vertex 0.00629997 0.286371 0.148669
      vertex 0.00629997 0 0.1938
      vertex 0.00629997 0.134521 0.143308
    endloop
  endfacet
  facet normal 1 0 0
    outer loop
      vertex 0.00629997 0.0909996 0.143308
      vertex 0.00629997 0 0.1938
      vertex 0.00629997 0.0909996 0.0991993
    endloop
  endfacet
  facet normal 1 0 0
    outer loop
      vertex 0.00629997 0.134521 0.143308
      vertex 0.00629997 0 0.1938
      vertex 0.00629997 0.0909996 0.143308
    endloop
  endfacet
  facet normal 1 0 0
    outer loop
      vertex 0.00629997 0.625 0.00624943
      vertex 0.00629997 0.525803 0.111891
      vertex 0.00629997 0.525803 0.00624943
    endloop
  endfacet
  facet normal 1 0 0
    outer loop
      vertex 0.00629997 0.33763 0.10066
      vertex 0.00629997 0.444699 0.111891
      vertex 0.00629997 0.337907 0.103474
    endloop
  endfacet
  facet normal 1 0 0
    outer loop
      vertex 0.00629997 0.33717 0.0978718
      vertex 0.00629997 0.444699 0.111891
      vertex 0.00629997 0.33763 0.10066
    endloop
  endfacet
  facet normal 1 0 0
    outer loop
      vertex 0.00629997 0.336528 0.0951185
      vertex 0.00629997 0.444699 0.111891
      vertex 0.00629997 0.33717 0.0978718
    endloop
  endfacet
  facet normal 1 0 0
    outer loop
      vertex 0.00629997 0.335707 0.0924129
      vertex 0.00629997 0.444699 0.111891
      vertex 0.00629997 0.336528 0.0951185
    endloop
  endfacet
  facet normal 1 0 0
    outer loop
      vertex 0.00629997 0.334711 0.0897675
      vertex 0.00629997 0.444699 0.111891
      vertex 0.00629997 0.335707 0.0924129
    endloop
  endfacet
  facet normal 1 0 0
    outer loop
      vertex 0.00629997 0.444699 0.111891
      vertex 0.00629997 0.334711 0.0897675
      vertex 0.00629997 0.444699 0.00624943
    endloop
  endfacet
  facet normal 1 -0 0
    outer loop
      vertex 0.00629997 0.333545 0.0871925
      vertex 0.00629997 0.444699 0.00624943
      vertex 0.00629997 0.334711 0.0897675
    endloop
  endfacet
  facet normal 1 -0 0
    outer loop
      vertex 0.00629997 0.332211 0.0846996
      vertex 0.00629997 0.444699 0.00624943
      vertex 0.00629997 0.333545 0.0871925
    endloop
  endfacet
  facet normal 1 -0 0
    outer loop
      vertex 0.00629997 0.330719 0.0822992
      vertex 0.00629997 0.444699 0.00624943
      vertex 0.00629997 0.332211 0.0846996
    endloop
  endfacet
  facet normal 1 -0 0
    outer loop
      vertex 0.00629997 0.329072 0.0800009
      vertex 0.00629997 0.444699 0.00624943
      vertex 0.00629997 0.330719 0.0822992
    endloop
  endfacet
  facet normal 1 -0 0
    outer loop
      vertex 0.00629997 0.327279 0.077816
      vertex 0.00629997 0.444699 0.00624943
      vertex 0.00629997 0.329072 0.0800009
    endloop
  endfacet
  facet normal 1 -0 0
    outer loop
      vertex 0.00629997 0.325347 0.0757523
      vertex 0.00629997 0.444699 0.00624943
      vertex 0.00629997 0.327279 0.077816
    endloop
  endfacet
  facet normal 1 -0 0
    outer loop
      vertex 0.00629997 0.323283 0.0738201
      vertex 0.00629997 0.444699 0.00624943
      vertex 0.00629997 0.325347 0.0757523
    endloop
  endfacet
  facet normal 1 -0 0
    outer loop
      vertex 0.00629997 0.321098 0.0720263
      vertex 0.00629997 0.444699 0.00624943
      vertex 0.00629997 0.323283 0.0738201
    endloop
  endfacet
  facet normal 1 -0 0
    outer loop
      vertex 0.00629997 0.3188 0.0703802
      vertex 0.00629997 0.444699 0.00624943
      vertex 0.00629997 0.321098 0.0720263
    endloop
  endfacet
  facet normal 1 -0 0
    outer loop
      vertex 0.00629997 0.3164 0.0688868
      vertex 0.00629997 0.444699 0.00624943
      vertex 0.00629997 0.3188 0.0703802
    endloop
  endfacet
  facet normal 1 -0 0
    outer loop
      vertex 0.00629997 0.313907 0.0675545
      vertex 0.00629997 0.444699 0.00624943
      vertex 0.00629997 0.3164 0.0688868
    endloop
  endfacet
  facet normal 1 -0 0
    outer loop
      vertex 0.00629997 0.311332 0.0663881
      vertex 0.00629997 0.444699 0.00624943
      vertex 0.00629997 0.313907 0.0675545
    endloop
  endfacet
  facet normal 1 -0 0
    outer loop
      vertex 0.00629997 0.308685 0.0653925
      vertex 0.00629997 0.444699 0.00624943
      vertex 0.00629997 0.311332 0.0663881
    endloop
  endfacet
  facet normal 1 -0 0
    outer loop
      vertex 0.00629997 0.305981 0.0645714
      vertex 0.00629997 0.444699 0.00624943
      vertex 0.00629997 0.308685 0.0653925
    endloop
  endfacet
  facet normal 1 -0 0
    outer loop
      vertex 0.00629997 0.303227 0.0639296
      vertex 0.00629997 0.444699 0.00624943
      vertex 0.00629997 0.305981 0.0645714
    endloop
  endfacet
  facet normal 1 -0 0
    outer loop
      vertex 0.00629997 0.300438 0.0634689
      vertex 0.00629997 0.444699 0.00624943
      vertex 0.00629997 0.303227 0.0639296
    endloop
  endfacet
  facet normal 1 -0 0
    outer loop
      vertex 0.00629997 0.297625 0.0631924
      vertex 0.00629997 0.444699 0.00624943
      vertex 0.00629997 0.300438 0.0634689
    endloop
  endfacet
  facet normal 1 -0 0
    outer loop
      vertex 0.00629997 0.2948 0.0630999
      vertex 0.00629997 0.444699 0.00624943
      vertex 0.00629997 0.297625 0.0631924
    endloop
  endfacet
  facet normal 1 0 0
    outer loop
      vertex 0.00629997 0.291974 0.0631924
      vertex 0.00629997 0.444699 0.00624943
      vertex 0.00629997 0.2948 0.0630999
    endloop
  endfacet
  facet normal 1 0 0
    outer loop
      vertex 0.00629997 0.289161 0.0634689
      vertex 0.00629997 0.444699 0.00624943
      vertex 0.00629997 0.291974 0.0631924
    endloop
  endfacet
  facet normal 1 0 0
    outer loop
      vertex 0.00629997 0.286371 0.0639296
      vertex 0.00629997 0.444699 0.00624943
      vertex 0.00629997 0.289161 0.0634689
    endloop
  endfacet
  facet normal 1 0 0
    outer loop
      vertex 0.00629997 0 0.00624943
      vertex 0.00629997 0.286371 0.0639296
      vertex 0.00629997 0.283619 0.0645714
    endloop
  endfacet
  facet normal 1 0 0
    outer loop
      vertex 0.00629997 0 0.00624943
      vertex 0.00629997 0.283619 0.0645714
      vertex 0.00629997 0.280913 0.0653925
    endloop
  endfacet
  facet normal 1 0 0
    outer loop
      vertex 0.00629997 0.251692 0.109125
      vertex 0.00629997 0.134521 0.0991993
      vertex 0.00629997 0.251599 0.106299
    endloop
  endfacet
  facet normal 1 0 0
    outer loop
      vertex 0.00629997 0.251599 0.106299
      vertex 0.00629997 0.134521 0.0991993
      vertex 0.00629997 0.251692 0.103474
    endloop
  endfacet
  facet normal 1 0 0
    outer loop
      vertex 0.00629997 0.251692 0.103474
      vertex 0.00629997 0.134521 0.0991993
      vertex 0.00629997 0.251969 0.10066
    endloop
  endfacet
  facet normal 1 0 0
    outer loop
      vertex 0.00629997 0.251969 0.10066
      vertex 0.00629997 0.134521 0.0991993
      vertex 0.00629997 0.25243 0.0978718
    endloop
  endfacet
  facet normal 1 0 0
    outer loop
      vertex 0.00629997 0.25243 0.0978718
      vertex 0.00629997 0.134521 0.0991993
      vertex 0.00629997 0.253072 0.0951185
    endloop
  endfacet
  facet normal 1 0 0
    outer loop
      vertex 0.00629997 0.253072 0.0951185
      vertex 0.00629997 0.134521 0.0991993
      vertex 0.00629997 0.253892 0.0924129
    endloop
  endfacet
  facet normal 1 0 0
    outer loop
      vertex 0.00629997 0.253892 0.0924129
      vertex 0.00629997 0.134521 0.0991993
      vertex 0.00629997 0.254888 0.0897675
    endloop
  endfacet
  facet normal 1 0 0
    outer loop
      vertex 0.00629997 0.254888 0.0897675
      vertex 0.00629997 0.134521 0.0991993
      vertex 0.00629997 0.256055 0.0871925
    endloop
  endfacet
  facet normal 1 0 0
    outer loop
      vertex 0.00629997 0.256055 0.0871925
      vertex 0.00629997 0.134521 0.0991993
      vertex 0.00629997 0.257387 0.0846996
    endloop
  endfacet
  facet normal 1 0 0
    outer loop
      vertex 0.00629997 0.257387 0.0846996
      vertex 0.00629997 0.134521 0.0991993
      vertex 0.00629997 0.25888 0.0822992
    endloop
  endfacet
  facet normal 1 0 0
    outer loop
      vertex 0.00629997 0.25888 0.0822992
      vertex 0.00629997 0.134521 0.0991993
      vertex 0.00629997 0.260527 0.0800009
    endloop
  endfacet
  facet normal 1 0 0
    outer loop
      vertex 0.00629997 0.260527 0.0800009
      vertex 0.00629997 0.134521 0.0991993
      vertex 0.00629997 0.262321 0.077816
    endloop
  endfacet
  facet normal 1 0 0
    outer loop
      vertex 0.00629997 0.262321 0.077816
      vertex 0.00629997 0.134521 0.0991993
      vertex 0.00629997 0.264253 0.0757523
    endloop
  endfacet
  facet normal 1 0 0
    outer loop
      vertex 0.00629997 0.264253 0.0757523
      vertex 0.00629997 0.134521 0.0991993
      vertex 0.00629997 0.266315 0.0738201
    endloop
  endfacet
  facet normal 1 0 0
    outer loop
      vertex 0.00629997 0.266315 0.0738201
      vertex 0.00629997 0.134521 0.0991993
      vertex 0.00629997 0.268501 0.0720263
    endloop
  endfacet
  facet normal 1 0 0
    outer loop
      vertex 0.00629997 0.268501 0.0720263
      vertex 0.00629997 0.134521 0.0991993
      vertex 0.00629997 0.270799 0.0703802
    endloop
  endfacet
  facet normal 1 0 0
    outer loop
      vertex 0.00629997 0 0.00624943
      vertex 0.00629997 0.270799 0.0703802
      vertex 0.00629997 0.134521 0.0991993
    endloop
  endfacet
  facet normal 1 0 0
    outer loop
      vertex 0.00629997 0.270799 0.0703802
      vertex 0.00629997 0 0.00624943
      vertex 0.00629997 0.273199 0.0688868
    endloop
  endfacet
  facet normal 1 0 0
    outer loop
      vertex 0.00629997 0.273199 0.0688868
      vertex 0.00629997 0 0.00624943
      vertex 0.00629997 0.275693 0.0675545
    endloop
  endfacet
  facet normal 1 0 0
    outer loop
      vertex 0.00629997 0.275693 0.0675545
      vertex 0.00629997 0 0.00624943
      vertex 0.00629997 0.278268 0.0663881
    endloop
  endfacet
  facet normal 1 0 0
    outer loop
      vertex 0.00629997 0.278268 0.0663881
      vertex 0.00629997 0 0.00624943
      vertex 0.00629997 0.280913 0.0653925
    endloop
  endfacet
  facet normal 1 0 0
    outer loop
      vertex 0.00629997 0 0.00624943
      vertex 0.00629997 0.134521 0.0991993
      vertex 0.00629997 0.0909996 0.0991993
    endloop
  endfacet
  facet normal 1 0 0
    outer loop
      vertex 0.00629997 0.286371 0.0639296
      vertex 0.00629997 0 0.00624943
      vertex 0.00629997 0.444699 0.00624943
    endloop
  endfacet
  facet normal 1 0 0
    outer loop
      vertex 0.00629997 0 0.00624943
      vertex 0.00629997 0.0909996 0.0991993
      vertex 0.00629997 0 0.1938
    endloop
  endfacet
  facet normal 1 -0 0
    outer loop
      vertex 0.3125 0.207299 0.00624943
      vertex 0.3125 0.613549 0
      vertex 0.3125 0.613549 0.00624943
    endloop
  endfacet
  facet normal 1 0 0
    outer loop
      vertex 0.3125 0.613549 0
      vertex 0.3125 0.207299 0.00624943
      vertex 0.3125 0.207299 0
    endloop
  endfacet
  facet normal -1 0 0
    outer loop
      vertex 0.577168 0.207299 0
      vertex 0.577168 0.613549 0.00624943
      vertex 0.577168 0.613549 0
    endloop
  endfacet
  facet normal -1 -0 0
    outer loop
      vertex 0.577168 0.613549 0.00624943
      vertex 0.577168 0.207299 0
      vertex 0.577168 0.207299 0.00624943
    endloop
  endfacet
  facet normal 0 -1 0
    outer loop
      vertex 0.3125 0.613549 0
      vertex 0.577168 0.613549 0.00624943
      vertex 0.3125 0.613549 0.00624943
    endloop
  endfacet
  facet normal 0 -1 -0
    outer loop
      vertex 0.577168 0.613549 0.00624943
      vertex 0.3125 0.613549 0
      vertex 0.577168 0.613549 0
    endloop
  endfacet
  facet normal 0 1 -0
    outer loop
      vertex 0.577168 0.207299 0
      vertex 0.3125 0.207299 0.00624943
      vertex 0.577168 0.207299 0.00624943
    endloop
  endfacet
  facet normal 0 1 0
    outer loop
      vertex 0.3125 0.207299 0.00624943
      vertex 0.577168 0.207299 0
      vertex 0.3125 0.207299 0
    endloop
  endfacet
  facet normal 0 0 -1
    outer loop
      vertex 0 0.444699 0.111891
      vertex 0.00629997 0.525803 0.111891
      vertex 0.00629997 0.444699 0.111891
    endloop
  endfacet
  facet normal -0 0 -1
    outer loop
      vertex 0.00629997 0.525803 0.111891
      vertex 0 0.444699 0.111891
      vertex 0 0.525803 0.111891
    endloop
  endfacet
  facet normal -1 0 0
    outer loop
      vertex 0.00634956 0.444699 0
      vertex 0.00634956 0.525803 0.00624943
      vertex 0.00634956 0.525803 0
    endloop
  endfacet
  facet normal -1 -0 0
    outer loop
      vertex 0.00634956 0.525803 0.00624943
      vertex 0.00634956 0.444699 0
      vertex 0.00634956 0.444699 0.00624943
    endloop
  endfacet
  facet normal 0 -1 0
    outer loop
      vertex 0 0.525803 0.111891
      vertex 0.00629997 0.525803 0.00624943
      vertex 0.00629997 0.525803 0.111891
    endloop
  endfacet
  facet normal 0 -1 0
    outer loop
      vertex 0 0.525803 0
      vertex 0.00629997 0.525803 0.00624943
      vertex 0 0.525803 0.111891
    endloop
  endfacet
  facet normal 0 -1 0
    outer loop
      vertex 0.00634956 0.525803 0
      vertex 0.00629997 0.525803 0.00624943
      vertex 0 0.525803 0
    endloop
  endfacet
  facet normal 0 -1 0
    outer loop
      vertex 0.00629997 0.525803 0.00624943
      vertex 0.00634956 0.525803 0
      vertex 0.00634956 0.525803 0.00624943
    endloop
  endfacet
  facet normal 0 1 0
    outer loop
      vertex 0.00634956 0.444699 0.00624943
      vertex 0.00634956 0.444699 0
      vertex 0.00629997 0.444699 0.00624943
    endloop
  endfacet
  facet normal 0 1 -0
    outer loop
      vertex 0.00629997 0.444699 0.00624943
      vertex 0 0.444699 0.111891
      vertex 0.00629997 0.444699 0.111891
    endloop
  endfacet
  facet normal 0 1 0
    outer loop
      vertex 0 0.444699 0
      vertex 0.00629997 0.444699 0.00624943
      vertex 0.00634956 0.444699 0
    endloop
  endfacet
  facet normal 0 1 0
    outer loop
      vertex 0.00629997 0.444699 0.00624943
      vertex 0 0.444699 0
      vertex 0 0.444699 0.111891
    endloop
  endfacet
  facet normal 0 -0.0327258 0.999464
    outer loop
      vertex 0 0.297625 0.0631924
      vertex 0.00629997 0.2948 0.0630999
      vertex 0.00629997 0.297625 0.0631924
    endloop
  endfacet
  facet normal 0 -0.0327258 0.999464
    outer loop
      vertex 0.00629997 0.2948 0.0630999
      vertex 0 0.297625 0.0631924
      vertex 0 0.2948 0.0630999
    endloop
  endfacet
  facet normal 0 0.0328909 -0.999459
    outer loop
      vertex 0 0.291974 0.149407
      vertex 0.00629997 0.2948 0.1495
      vertex 0.00629997 0.291974 0.149407
    endloop
  endfacet
  facet normal 0 0.0328909 -0.999459
    outer loop
      vertex 0.00629997 0.2948 0.1495
      vertex 0 0.291974 0.149407
      vertex 0 0.2948 0.1495
    endloop
  endfacet
  facet normal 0 -0.999471 -0.0325376
    outer loop
      vertex 0 0.337999 0.106299
      vertex 0.00629997 0.337907 0.109125
      vertex 0 0.337907 0.109125
    endloop
  endfacet
  facet normal 0 -0.999471 -0.0325376
    outer loop
      vertex 0.00629997 0.337907 0.109125
      vertex 0 0.337999 0.106299
      vertex 0.00629997 0.337999 0.106299
    endloop
  endfacet
  facet normal 0 0.999459 0.0329025
    outer loop
      vertex 0.00629997 0.251692 0.103474
      vertex 0 0.251599 0.106299
      vertex 0.00629997 0.251599 0.106299
    endloop
  endfacet
  facet normal 0 0.999459 0.0329025
    outer loop
      vertex 0 0.251599 0.106299
      vertex 0.00629997 0.251692 0.103474
      vertex 0 0.251692 0.103474
    endloop
  endfacet
  facet normal 0 0.730066 -0.683376
    outer loop
      vertex 0.00629997 0.262321 0.134783
      vertex 0 0.264253 0.136847
      vertex 0.00629997 0.264253 0.136847
    endloop
  endfacet
  facet normal 0 0.730066 -0.683376
    outer loop
      vertex 0 0.264253 0.136847
      vertex 0.00629997 0.262321 0.134783
      vertex 0 0.262321 0.134783
    endloop
  endfacet
  facet normal 0 -0.683376 -0.730066
    outer loop
      vertex 0 0.323283 0.138779
      vertex 0.00629997 0.325347 0.136847
      vertex 0.00629997 0.323283 0.138779
    endloop
  endfacet
  facet normal -0 -0.683376 -0.730066
    outer loop
      vertex 0.00629997 0.325347 0.136847
      vertex 0 0.323283 0.138779
      vertex 0 0.325347 0.136847
    endloop
  endfacet
  facet normal 0 -0.910959 -0.412496
    outer loop
      vertex 0 0.334711 0.122831
      vertex 0.00629997 0.333545 0.125406
      vertex 0 0.333545 0.125406
    endloop
  endfacet
  facet normal 0 -0.910959 -0.412496
    outer loop
      vertex 0.00629997 0.333545 0.125406
      vertex 0 0.334711 0.122831
      vertex 0.00629997 0.334711 0.122831
    endloop
  endfacet
  facet normal 0 0.41279 -0.910826
    outer loop
      vertex 0 0.275693 0.145044
      vertex 0.00629997 0.278268 0.146211
      vertex 0.00629997 0.275693 0.145044
    endloop
  endfacet
  facet normal 0 0.41279 -0.910826
    outer loop
      vertex 0.00629997 0.278268 0.146211
      vertex 0 0.275693 0.145044
      vertex 0 0.278268 0.146211
    endloop
  endfacet
  facet normal 0 -0.935866 0.352356
    outer loop
      vertex 0 0.334711 0.0897675
      vertex 0.00629997 0.335707 0.0924129
      vertex 0 0.335707 0.0924129
    endloop
  endfacet
  facet normal 0 -0.935866 0.352356
    outer loop
      vertex 0.00629997 0.335707 0.0924129
      vertex 0 0.334711 0.0897675
      vertex 0.00629997 0.334711 0.0897675
    endloop
  endfacet
  facet normal 0 -0.352169 -0.935936
    outer loop
      vertex 0 0.308685 0.147207
      vertex 0.00629997 0.311332 0.146211
      vertex 0.00629997 0.308685 0.147207
    endloop
  endfacet
  facet normal -0 -0.352169 -0.935936
    outer loop
      vertex 0.00629997 0.311332 0.146211
      vertex 0 0.308685 0.147207
      vertex 0 0.311332 0.146211
    endloop
  endfacet
  facet normal 0 -0.97387 -0.227107
    outer loop
      vertex 0 0.33717 0.114727
      vertex 0.00629997 0.336528 0.11748
      vertex 0 0.336528 0.11748
    endloop
  endfacet
  facet normal 0 -0.97387 -0.227107
    outer loop
      vertex 0.00629997 0.336528 0.11748
      vertex 0 0.33717 0.114727
      vertex 0.00629997 0.33717 0.114727
    endloop
  endfacet
  facet normal 0 0.935848 -0.352403
    outer loop
      vertex 0.00629997 0.253892 0.120186
      vertex 0 0.254888 0.122831
      vertex 0.00629997 0.254888 0.122831
    endloop
  endfacet
  facet normal 0 0.935848 -0.352403
    outer loop
      vertex 0 0.254888 0.122831
      vertex 0.00629997 0.253892 0.120186
      vertex 0 0.253892 0.120186
    endloop
  endfacet
  facet normal 0 0.227185 -0.973852
    outer loop
      vertex 0 0.283619 0.148027
      vertex 0.00629997 0.286371 0.148669
      vertex 0.00629997 0.283619 0.148027
    endloop
  endfacet
  facet normal 0 0.227185 -0.973852
    outer loop
      vertex 0.00629997 0.286371 0.148669
      vertex 0 0.283619 0.148027
      vertex 0 0.286371 0.148669
    endloop
  endfacet
  facet normal 0 -0.0978222 0.995204
    outer loop
      vertex 0 0.300438 0.0634689
      vertex 0.00629997 0.297625 0.0631924
      vertex 0.00629997 0.300438 0.0634689
    endloop
  endfacet
  facet normal 0 -0.0978222 0.995204
    outer loop
      vertex 0.00629997 0.297625 0.0631924
      vertex 0 0.300438 0.0634689
      vertex 0 0.297625 0.0631924
    endloop
  endfacet
  facet normal 0 -0.471332 0.881956
    outer loop
      vertex 0 0.3164 0.0688868
      vertex 0.00629997 0.313907 0.0675545
      vertex 0.00629997 0.3164 0.0688868
    endloop
  endfacet
  facet normal 0 -0.471332 0.881956
    outer loop
      vertex 0.00629997 0.313907 0.0675545
      vertex 0 0.3164 0.0688868
      vertex 0 0.313907 0.0675545
    endloop
  endfacet
  facet normal 0 -0.956914 0.290371
    outer loop
      vertex 0 0.335707 0.0924129
      vertex 0.00629997 0.336528 0.0951185
      vertex 0 0.336528 0.0951185
    endloop
  endfacet
  facet normal 0 -0.956914 0.290371
    outer loop
      vertex 0.00629997 0.336528 0.0951185
      vertex 0 0.335707 0.0924129
      vertex 0.00629997 0.335707 0.0924129
    endloop
  endfacet
  facet normal 0 -0.881698 0.471814
    outer loop
      vertex 0 0.332211 0.0846996
      vertex 0.00629997 0.333545 0.0871925
      vertex 0 0.333545 0.0871925
    endloop
  endfacet
  facet normal 0 -0.881698 0.471814
    outer loop
      vertex 0.00629997 0.333545 0.0871925
      vertex 0 0.332211 0.0846996
      vertex 0.00629997 0.332211 0.0846996
    endloop
  endfacet
  facet normal 0 -0.163079 -0.986613
    outer loop
      vertex 0 0.300438 0.14913
      vertex 0.00629997 0.303227 0.148669
      vertex 0.00629997 0.300438 0.14913
    endloop
  endfacet
  facet normal -0 -0.163079 -0.986613
    outer loop
      vertex 0.00629997 0.303227 0.148669
      vertex 0 0.300438 0.14913
      vertex 0 0.303227 0.148669
    endloop
  endfacet
  facet normal 0 -0.528217 -0.849109
    outer loop
      vertex 0 0.3164 0.143712
      vertex 0.00629997 0.3188 0.142219
      vertex 0.00629997 0.3164 0.143712
    endloop
  endfacet
  facet normal -0 -0.528217 -0.849109
    outer loop
      vertex 0.00629997 0.3188 0.142219
      vertex 0 0.3164 0.143712
      vertex 0 0.3188 0.142219
    endloop
  endfacet
  facet normal 0 -0.634566 -0.772869
    outer loop
      vertex 0 0.321098 0.140573
      vertex 0.00629997 0.323283 0.138779
      vertex 0.00629997 0.321098 0.140573
    endloop
  endfacet
  facet normal -0 -0.634566 -0.772869
    outer loop
      vertex 0.00629997 0.323283 0.138779
      vertex 0 0.321098 0.140573
      vertex 0 0.323283 0.138779
    endloop
  endfacet
  facet normal 0 -0.471249 -0.882
    outer loop
      vertex 0 0.313907 0.145044
      vertex 0.00629997 0.3164 0.143712
      vertex 0.00629997 0.313907 0.145044
    endloop
  endfacet
  facet normal -0 -0.471249 -0.882
    outer loop
      vertex 0.00629997 0.3164 0.143712
      vertex 0 0.313907 0.145044
      vertex 0 0.3164 0.143712
    endloop
  endfacet
  facet normal 0 -0.290204 -0.956965
    outer loop
      vertex 0 0.305981 0.148027
      vertex 0.00629997 0.308685 0.147207
      vertex 0.00629997 0.305981 0.148027
    endloop
  endfacet
  facet normal -0 -0.290204 -0.956965
    outer loop
      vertex 0.00629997 0.308685 0.147207
      vertex 0 0.305981 0.148027
      vertex 0 0.308685 0.147207
    endloop
  endfacet
  facet normal 0 -0.0979974 -0.995187
    outer loop
      vertex 0 0.297625 0.149407
      vertex 0.00629997 0.300438 0.14913
      vertex 0.00629997 0.297625 0.149407
    endloop
  endfacet
  facet normal -0 -0.0979974 -0.995187
    outer loop
      vertex 0.00629997 0.300438 0.14913
      vertex 0 0.297625 0.149407
      vertex 0 0.300438 0.14913
    endloop
  endfacet
  facet normal 0 -0.81268 -0.58271
    outer loop
      vertex 0 0.330719 0.130301
      vertex 0.00629997 0.329072 0.132598
      vertex 0 0.329072 0.132598
    endloop
  endfacet
  facet normal 0 -0.81268 -0.58271
    outer loop
      vertex 0.00629997 0.329072 0.132598
      vertex 0 0.330719 0.130301
      vertex 0.00629997 0.330719 0.130301
    endloop
  endfacet
  facet normal 0 -0.995187 -0.0979974
    outer loop
      vertex 0 0.337907 0.109125
      vertex 0.00629997 0.33763 0.111938
      vertex 0 0.33763 0.111938
    endloop
  endfacet
  facet normal 0 -0.995187 -0.0979974
    outer loop
      vertex 0.00629997 0.33763 0.111938
      vertex 0 0.337907 0.109125
      vertex 0.00629997 0.337907 0.109125
    endloop
  endfacet
  facet normal 0 0.99519 0.0979629
    outer loop
      vertex 0.00629997 0.251969 0.10066
      vertex 0 0.251692 0.103474
      vertex 0.00629997 0.251692 0.103474
    endloop
  endfacet
  facet normal 0 0.99519 0.0979629
    outer loop
      vertex 0 0.251692 0.103474
      vertex 0.00629997 0.251969 0.10066
      vertex 0 0.251969 0.10066
    endloop
  endfacet
  facet normal -0 0.63435 0.773046
    outer loop
      vertex 0 0.268501 0.0720263
      vertex 0.00629997 0.266315 0.0738201
      vertex 0.00629997 0.268501 0.0720263
    endloop
  endfacet
  facet normal 0 0.63435 0.773046
    outer loop
      vertex 0.00629997 0.266315 0.0738201
      vertex 0 0.268501 0.0720263
      vertex 0 0.266315 0.0738201
    endloop
  endfacet
  facet normal -0 0.290364 0.956916
    outer loop
      vertex 0 0.283619 0.0645714
      vertex 0.00629997 0.280913 0.0653925
      vertex 0.00629997 0.283619 0.0645714
    endloop
  endfacet
  facet normal 0 0.290364 0.956916
    outer loop
      vertex 0.00629997 0.280913 0.0653925
      vertex 0 0.283619 0.0645714
      vertex 0 0.280913 0.0653925
    endloop
  endfacet
  facet normal -0 0.0978222 0.995204
    outer loop
      vertex 0 0.291974 0.0631924
      vertex 0.00629997 0.289161 0.0634689
      vertex 0.00629997 0.291974 0.0631924
    endloop
  endfacet
  facet normal 0 0.0978222 0.995204
    outer loop
      vertex 0.00629997 0.289161 0.0634689
      vertex 0 0.291974 0.0631924
      vertex 0 0.289161 0.0634689
    endloop
  endfacet
  facet normal 0 0.986613 -0.163079
    outer loop
      vertex 0.00629997 0.251969 0.111938
      vertex 0 0.25243 0.114727
      vertex 0.00629997 0.25243 0.114727
    endloop
  endfacet
  facet normal 0 0.986613 -0.163079
    outer loop
      vertex 0 0.25243 0.114727
      vertex 0.00629997 0.251969 0.111938
      vertex 0 0.251969 0.111938
    endloop
  endfacet
  facet normal 0 0.849307 -0.5279
    outer loop
      vertex 0.00629997 0.257387 0.127899
      vertex 0 0.25888 0.130301
      vertex 0.00629997 0.25888 0.130301
    endloop
  endfacet
  facet normal 0 0.849307 -0.5279
    outer loop
      vertex 0 0.25888 0.130301
      vertex 0.00629997 0.257387 0.127899
      vertex 0 0.257387 0.127899
    endloop
  endfacet
  facet normal 0 0.957024 -0.290007
    outer loop
      vertex 0.00629997 0.253072 0.11748
      vertex 0 0.253892 0.120186
      vertex 0.00629997 0.253892 0.120186
    endloop
  endfacet
  facet normal 0 0.957024 -0.290007
    outer loop
      vertex 0 0.253892 0.120186
      vertex 0.00629997 0.253072 0.11748
      vertex 0 0.253072 0.11748
    endloop
  endfacet
  facet normal 0 0.995187 -0.0979974
    outer loop
      vertex 0.00629997 0.251692 0.109125
      vertex 0 0.251969 0.111938
      vertex 0.00629997 0.251969 0.111938
    endloop
  endfacet
  facet normal 0 0.995187 -0.0979974
    outer loop
      vertex 0 0.251969 0.111938
      vertex 0.00629997 0.251692 0.109125
      vertex 0 0.251692 0.109125
    endloop
  endfacet
  facet normal 0 0.582309 -0.812968
    outer loop
      vertex 0 0.268501 0.140573
      vertex 0.00629997 0.270799 0.142219
      vertex 0.00629997 0.268501 0.140573
    endloop
  endfacet
  facet normal 0 0.582309 -0.812968
    outer loop
      vertex 0.00629997 0.270799 0.142219
      vertex 0 0.268501 0.140573
      vertex 0 0.270799 0.142219
    endloop
  endfacet
  facet normal 0 0.471102 -0.882079
    outer loop
      vertex 0 0.273199 0.143712
      vertex 0.00629997 0.275693 0.145044
      vertex 0.00629997 0.273199 0.143712
    endloop
  endfacet
  facet normal 0 0.471102 -0.882079
    outer loop
      vertex 0.00629997 0.275693 0.145044
      vertex 0 0.273199 0.143712
      vertex 0 0.275693 0.145044
    endloop
  endfacet
  facet normal 0 0.163023 -0.986622
    outer loop
      vertex 0 0.286371 0.148669
      vertex 0.00629997 0.289161 0.14913
      vertex 0.00629997 0.286371 0.148669
    endloop
  endfacet
  facet normal 0 0.163023 -0.986622
    outer loop
      vertex 0.00629997 0.289161 0.14913
      vertex 0 0.286371 0.148669
      vertex 0 0.289161 0.14913
    endloop
  endfacet
  facet normal 0 -0.162976 0.98663
    outer loop
      vertex 0 0.303227 0.0639296
      vertex 0.00629997 0.300438 0.0634689
      vertex 0.00629997 0.303227 0.0639296
    endloop
  endfacet
  facet normal 0 -0.162976 0.98663
    outer loop
      vertex 0.00629997 0.300438 0.0634689
      vertex 0 0.303227 0.0639296
      vertex 0 0.300438 0.0634689
    endloop
  endfacet
  facet normal 0 -0.412614 0.910906
    outer loop
      vertex 0 0.313907 0.0675545
      vertex 0.00629997 0.311332 0.0663881
      vertex 0.00629997 0.313907 0.0675545
    endloop
  endfacet
  facet normal 0 -0.412614 0.910906
    outer loop
      vertex 0.00629997 0.311332 0.0663881
      vertex 0 0.313907 0.0675545
      vertex 0 0.311332 0.0663881
    endloop
  endfacet
  facet normal 0 -0.29056 0.956857
    outer loop
      vertex 0 0.308685 0.0653925
      vertex 0.00629997 0.305981 0.0645714
      vertex 0.00629997 0.308685 0.0653925
    endloop
  endfacet
  facet normal 0 -0.29056 0.956857
    outer loop
      vertex 0.00629997 0.305981 0.0645714
      vertex 0 0.308685 0.0653925
      vertex 0 0.305981 0.0645714
    endloop
  endfacet
  facet normal 0 -0.683414 0.730031
    outer loop
      vertex 0 0.325347 0.0757523
      vertex 0.00629997 0.323283 0.0738201
      vertex 0.00629997 0.325347 0.0757523
    endloop
  endfacet
  facet normal 0 -0.683414 0.730031
    outer loop
      vertex 0.00629997 0.323283 0.0738201
      vertex 0 0.325347 0.0757523
      vertex 0 0.323283 0.0738201
    endloop
  endfacet
  facet normal 0 -0.634524 0.772903
    outer loop
      vertex 0 0.323283 0.0738201
      vertex 0.00629997 0.321098 0.0720263
      vertex 0.00629997 0.323283 0.0738201
    endloop
  endfacet
  facet normal 0 -0.634524 0.772903
    outer loop
      vertex 0.00629997 0.321098 0.0720263
      vertex 0 0.323283 0.0738201
      vertex 0 0.321098 0.0720263
    endloop
  endfacet
  facet normal 0 -0.730017 0.683429
    outer loop
      vertex 0 0.325347 0.0757523
      vertex 0.00629997 0.327279 0.077816
      vertex 0 0.327279 0.077816
    endloop
  endfacet
  facet normal 0 -0.730017 0.683429
    outer loop
      vertex 0.00629997 0.327279 0.077816
      vertex 0 0.325347 0.0757523
      vertex 0.00629997 0.325347 0.0757523
    endloop
  endfacet
  facet normal 0 -0.528319 0.849046
    outer loop
      vertex 0 0.3188 0.0703802
      vertex 0.00629997 0.3164 0.0688868
      vertex 0.00629997 0.3188 0.0703802
    endloop
  endfacet
  facet normal 0 -0.528319 0.849046
    outer loop
      vertex 0.00629997 0.3164 0.0688868
      vertex 0 0.3188 0.0703802
      vertex 0 0.3164 0.0688868
    endloop
  endfacet
  facet normal 0 -0.582332 0.812951
    outer loop
      vertex 0 0.321098 0.0720263
      vertex 0.00629997 0.3188 0.0703802
      vertex 0.00629997 0.321098 0.0720263
    endloop
  endfacet
  facet normal 0 -0.582332 0.812951
    outer loop
      vertex 0.00629997 0.3188 0.0703802
      vertex 0 0.321098 0.0720263
      vertex 0 0.3188 0.0703802
    endloop
  endfacet
  facet normal 0 -0.973875 0.227083
    outer loop
      vertex 0 0.336528 0.0951185
      vertex 0.00629997 0.33717 0.0978718
      vertex 0 0.33717 0.0978718
    endloop
  endfacet
  facet normal 0 -0.973875 0.227083
    outer loop
      vertex 0.00629997 0.33717 0.0978718
      vertex 0 0.336528 0.0951185
      vertex 0.00629997 0.336528 0.0951185
    endloop
  endfacet
  facet normal 0 -0.99947 0.0325491
    outer loop
      vertex 0 0.337907 0.103474
      vertex 0.00629997 0.337999 0.106299
      vertex 0 0.337999 0.106299
    endloop
  endfacet
  facet normal 0 -0.99947 0.0325491
    outer loop
      vertex 0.00629997 0.337999 0.106299
      vertex 0 0.337907 0.103474
      vertex 0.00629997 0.337907 0.103474
    endloop
  endfacet
  facet normal 0 -0.99519 0.0979629
    outer loop
      vertex 0 0.33763 0.10066
      vertex 0.00629997 0.337907 0.103474
      vertex 0 0.337907 0.103474
    endloop
  endfacet
  facet normal 0 -0.99519 0.0979629
    outer loop
      vertex 0.00629997 0.337907 0.103474
      vertex 0 0.33763 0.10066
      vertex 0.00629997 0.33763 0.10066
    endloop
  endfacet
  facet normal 0 -0.910959 0.412496
    outer loop
      vertex 0 0.333545 0.0871925
      vertex 0.00629997 0.334711 0.0897675
      vertex 0 0.334711 0.0897675
    endloop
  endfacet
  facet normal 0 -0.910959 0.412496
    outer loop
      vertex 0.00629997 0.334711 0.0897675
      vertex 0 0.333545 0.0871925
      vertex 0.00629997 0.333545 0.0871925
    endloop
  endfacet
  facet normal 0 -0.849308 0.527898
    outer loop
      vertex 0 0.330719 0.0822992
      vertex 0.00629997 0.332211 0.0846996
      vertex 0 0.332211 0.0846996
    endloop
  endfacet
  facet normal 0 -0.849308 0.527898
    outer loop
      vertex 0.00629997 0.332211 0.0846996
      vertex 0 0.330719 0.0822992
      vertex 0.00629997 0.330719 0.0822992
    endloop
  endfacet
  facet normal 0 -0.773028 0.634372
    outer loop
      vertex 0 0.327279 0.077816
      vertex 0.00629997 0.329072 0.0800009
      vertex 0 0.329072 0.0800009
    endloop
  endfacet
  facet normal 0 -0.773028 0.634372
    outer loop
      vertex 0.00629997 0.329072 0.0800009
      vertex 0 0.327279 0.077816
      vertex 0.00629997 0.327279 0.077816
    endloop
  endfacet
  facet normal 0 -0.582309 -0.812968
    outer loop
      vertex 0 0.3188 0.142219
      vertex 0.00629997 0.321098 0.140573
      vertex 0.00629997 0.3188 0.142219
    endloop
  endfacet
  facet normal -0 -0.582309 -0.812968
    outer loop
      vertex 0.00629997 0.321098 0.140573
      vertex 0 0.3188 0.142219
      vertex 0 0.321098 0.140573
    endloop
  endfacet
  facet normal 0 -0.41279 -0.910826
    outer loop
      vertex 0 0.311332 0.146211
      vertex 0.00629997 0.313907 0.145044
      vertex 0.00629997 0.311332 0.146211
    endloop
  endfacet
  facet normal -0 -0.41279 -0.910826
    outer loop
      vertex 0.00629997 0.313907 0.145044
      vertex 0 0.311332 0.146211
      vertex 0 0.313907 0.145044
    endloop
  endfacet
  facet normal 0 -0.227028 -0.973888
    outer loop
      vertex 0 0.303227 0.148669
      vertex 0.00629997 0.305981 0.148027
      vertex 0.00629997 0.303227 0.148669
    endloop
  endfacet
  facet normal -0 -0.227028 -0.973888
    outer loop
      vertex 0.00629997 0.305981 0.148027
      vertex 0 0.303227 0.148669
      vertex 0 0.305981 0.148027
    endloop
  endfacet
  facet normal 0 -0.0329025 -0.999459
    outer loop
      vertex 0 0.2948 0.1495
      vertex 0.00629997 0.297625 0.149407
      vertex 0.00629997 0.2948 0.1495
    endloop
  endfacet
  facet normal -0 -0.0329025 -0.999459
    outer loop
      vertex 0.00629997 0.297625 0.149407
      vertex 0 0.2948 0.1495
      vertex 0 0.297625 0.149407
    endloop
  endfacet
  facet normal 0 -0.849465 -0.527645
    outer loop
      vertex 0 0.332211 0.127899
      vertex 0.00629997 0.330719 0.130301
      vertex 0 0.330719 0.130301
    endloop
  endfacet
  facet normal 0 -0.849465 -0.527645
    outer loop
      vertex 0.00629997 0.330719 0.130301
      vertex 0 0.332211 0.127899
      vertex 0.00629997 0.332211 0.127899
    endloop
  endfacet
  facet normal 0 -0.881706 -0.471799
    outer loop
      vertex 0 0.333545 0.125406
      vertex 0.00629997 0.332211 0.127899
      vertex 0 0.332211 0.127899
    endloop
  endfacet
  facet normal 0 -0.881706 -0.471799
    outer loop
      vertex 0.00629997 0.332211 0.127899
      vertex 0 0.333545 0.125406
      vertex 0.00629997 0.333545 0.125406
    endloop
  endfacet
  facet normal 0 -0.730066 -0.683376
    outer loop
      vertex 0 0.327279 0.134783
      vertex 0.00629997 0.325347 0.136847
      vertex 0 0.325347 0.136847
    endloop
  endfacet
  facet normal 0 -0.730066 -0.683376
    outer loop
      vertex 0.00629997 0.325347 0.136847
      vertex 0 0.327279 0.134783
      vertex 0.00629997 0.327279 0.134783
    endloop
  endfacet
  facet normal 0 -0.956926 -0.290331
    outer loop
      vertex 0 0.336528 0.11748
      vertex 0.00629997 0.335707 0.120186
      vertex 0 0.335707 0.120186
    endloop
  endfacet
  facet normal 0 -0.956926 -0.290331
    outer loop
      vertex 0.00629997 0.335707 0.120186
      vertex 0 0.336528 0.11748
      vertex 0.00629997 0.336528 0.11748
    endloop
  endfacet
  facet normal 0 -0.935848 -0.352403
    outer loop
      vertex 0 0.335707 0.120186
      vertex 0.00629997 0.334711 0.122831
      vertex 0 0.334711 0.122831
    endloop
  endfacet
  facet normal 0 -0.935848 -0.352403
    outer loop
      vertex 0.00629997 0.334711 0.122831
      vertex 0 0.335707 0.120186
      vertex 0.00629997 0.335707 0.120186
    endloop
  endfacet
  facet normal 0 -0.98667 -0.162735
    outer loop
      vertex 0 0.33763 0.111938
      vertex 0.00629997 0.33717 0.114727
      vertex 0 0.33717 0.114727
    endloop
  endfacet
  facet normal 0 -0.98667 -0.162735
    outer loop
      vertex 0.00629997 0.33717 0.114727
      vertex 0 0.33763 0.111938
      vertex 0.00629997 0.33763 0.111938
    endloop
  endfacet
  facet normal -0 0.0327143 0.999465
    outer loop
      vertex 0 0.2948 0.0630999
      vertex 0.00629997 0.291974 0.0631924
      vertex 0.00629997 0.2948 0.0630999
    endloop
  endfacet
  facet normal 0 0.0327143 0.999465
    outer loop
      vertex 0.00629997 0.291974 0.0631924
      vertex 0 0.2948 0.0630999
      vertex 0 0.291974 0.0631924
    endloop
  endfacet
  facet normal 0 0.986605 0.163125
    outer loop
      vertex 0.00629997 0.25243 0.0978718
      vertex 0 0.251969 0.10066
      vertex 0.00629997 0.251969 0.10066
    endloop
  endfacet
  facet normal 0 0.986605 0.163125
    outer loop
      vertex 0 0.251969 0.10066
      vertex 0.00629997 0.25243 0.0978718
      vertex 0 0.25243 0.0978718
    endloop
  endfacet
  facet normal 0 0.935866 0.352356
    outer loop
      vertex 0.00629997 0.254888 0.0897675
      vertex 0 0.253892 0.0924129
      vertex 0.00629997 0.253892 0.0924129
    endloop
  endfacet
  facet normal 0 0.935866 0.352356
    outer loop
      vertex 0 0.253892 0.0924129
      vertex 0.00629997 0.254888 0.0897675
      vertex 0 0.254888 0.0897675
    endloop
  endfacet
  facet normal 0 0.910826 0.41279
    outer loop
      vertex 0.00629997 0.256055 0.0871925
      vertex 0 0.254888 0.0897675
      vertex 0.00629997 0.254888 0.0897675
    endloop
  endfacet
  facet normal 0 0.910826 0.41279
    outer loop
      vertex 0 0.254888 0.0897675
      vertex 0.00629997 0.256055 0.0871925
      vertex 0 0.256055 0.0871925
    endloop
  endfacet
  facet normal 0 0.957013 0.290047
    outer loop
      vertex 0.00629997 0.253892 0.0924129
      vertex 0 0.253072 0.0951185
      vertex 0.00629997 0.253072 0.0951185
    endloop
  endfacet
  facet normal 0 0.957013 0.290047
    outer loop
      vertex 0 0.253072 0.0951185
      vertex 0.00629997 0.253892 0.0924129
      vertex 0 0.253892 0.0924129
    endloop
  endfacet
  facet normal 0 0.730017 0.683429
    outer loop
      vertex 0.00629997 0.264253 0.0757523
      vertex 0 0.262321 0.077816
      vertex 0.00629997 0.262321 0.077816
    endloop
  endfacet
  facet normal 0 0.730017 0.683429
    outer loop
      vertex 0 0.262321 0.077816
      vertex 0.00629997 0.264253 0.0757523
      vertex 0 0.264253 0.0757523
    endloop
  endfacet
  facet normal 0 0.772855 0.634583
    outer loop
      vertex 0.00629997 0.262321 0.077816
      vertex 0 0.260527 0.0800009
      vertex 0.00629997 0.260527 0.0800009
    endloop
  endfacet
  facet normal 0 0.772855 0.634583
    outer loop
      vertex 0 0.260527 0.0800009
      vertex 0.00629997 0.262321 0.077816
      vertex 0 0.262321 0.077816
    endloop
  endfacet
  facet normal -0 0.683767 0.729701
    outer loop
      vertex 0 0.266315 0.0738201
      vertex 0.00629997 0.264253 0.0757523
      vertex 0.00629997 0.266315 0.0738201
    endloop
  endfacet
  facet normal 0 0.683767 0.729701
    outer loop
      vertex 0.00629997 0.264253 0.0757523
      vertex 0 0.266315 0.0738201
      vertex 0 0.264253 0.0757523
    endloop
  endfacet
  facet normal 0 0.812836 0.582492
    outer loop
      vertex 0.00629997 0.260527 0.0800009
      vertex 0 0.25888 0.0822992
      vertex 0.00629997 0.25888 0.0822992
    endloop
  endfacet
  facet normal 0 0.812836 0.582492
    outer loop
      vertex 0 0.25888 0.0822992
      vertex 0.00629997 0.260527 0.0800009
      vertex 0 0.260527 0.0800009
    endloop
  endfacet
  facet normal 0 0.881992 0.471264
    outer loop
      vertex 0.00629997 0.257387 0.0846996
      vertex 0 0.256055 0.0871925
      vertex 0.00629997 0.256055 0.0871925
    endloop
  endfacet
  facet normal 0 0.881992 0.471264
    outer loop
      vertex 0 0.256055 0.0871925
      vertex 0.00629997 0.257387 0.0846996
      vertex 0 0.257387 0.0846996
    endloop
  endfacet
  facet normal -0 0.582332 0.812951
    outer loop
      vertex 0 0.270799 0.0703802
      vertex 0.00629997 0.268501 0.0720263
      vertex 0.00629997 0.270799 0.0703802
    endloop
  endfacet
  facet normal 0 0.582332 0.812951
    outer loop
      vertex 0.00629997 0.268501 0.0720263
      vertex 0 0.270799 0.0703802
      vertex 0 0.268501 0.0720263
    endloop
  endfacet
  facet normal -0 0.412614 0.910906
    outer loop
      vertex 0 0.278268 0.0663881
      vertex 0.00629997 0.275693 0.0675545
      vertex 0.00629997 0.278268 0.0663881
    endloop
  endfacet
  facet normal 0 0.412614 0.910906
    outer loop
      vertex 0.00629997 0.275693 0.0675545
      vertex 0 0.278268 0.0663881
      vertex 0 0.275693 0.0675545
    endloop
  endfacet
  facet normal -0 0.352279 0.935895
    outer loop
      vertex 0 0.280913 0.0653925
      vertex 0.00629997 0.278268 0.0663881
      vertex 0.00629997 0.280913 0.0653925
    endloop
  endfacet
  facet normal 0 0.352279 0.935895
    outer loop
      vertex 0.00629997 0.278268 0.0663881
      vertex 0 0.280913 0.0653925
      vertex 0 0.278268 0.0663881
    endloop
  endfacet
  facet normal -0 0.471185 0.882035
    outer loop
      vertex 0 0.275693 0.0675545
      vertex 0.00629997 0.273199 0.0688868
      vertex 0.00629997 0.275693 0.0675545
    endloop
  endfacet
  facet normal 0 0.471185 0.882035
    outer loop
      vertex 0.00629997 0.273199 0.0688868
      vertex 0 0.275693 0.0675545
      vertex 0 0.273199 0.0688868
    endloop
  endfacet
  facet normal -0 0.227118 0.973867
    outer loop
      vertex 0 0.286371 0.0639296
      vertex 0.00629997 0.283619 0.0645714
      vertex 0.00629997 0.286371 0.0639296
    endloop
  endfacet
  facet normal 0 0.227118 0.973867
    outer loop
      vertex 0.00629997 0.283619 0.0645714
      vertex 0 0.286371 0.0639296
      vertex 0 0.283619 0.0645714
    endloop
  endfacet
  facet normal 0 0.81268 -0.58271
    outer loop
      vertex 0.00629997 0.25888 0.130301
      vertex 0 0.260527 0.132598
      vertex 0.00629997 0.260527 0.132598
    endloop
  endfacet
  facet normal 0 0.81268 -0.58271
    outer loop
      vertex 0 0.260527 0.132598
      vertex 0.00629997 0.25888 0.130301
      vertex 0 0.25888 0.130301
    endloop
  endfacet
  facet normal 0 0.772869 -0.634566
    outer loop
      vertex 0.00629997 0.260527 0.132598
      vertex 0 0.262321 0.134783
      vertex 0.00629997 0.262321 0.134783
    endloop
  endfacet
  facet normal 0 0.772869 -0.634566
    outer loop
      vertex 0 0.262321 0.134783
      vertex 0.00629997 0.260527 0.132598
      vertex 0 0.260527 0.132598
    endloop
  endfacet
  facet normal 0 0.882 -0.471249
    outer loop
      vertex 0.00629997 0.256055 0.125406
      vertex 0 0.257387 0.127899
      vertex 0.00629997 0.257387 0.127899
    endloop
  endfacet
  facet normal 0 0.882 -0.471249
    outer loop
      vertex 0 0.257387 0.127899
      vertex 0.00629997 0.256055 0.125406
      vertex 0 0.256055 0.125406
    endloop
  endfacet
  facet normal 0 0.910826 -0.41279
    outer loop
      vertex 0.00629997 0.254888 0.122831
      vertex 0 0.256055 0.125406
      vertex 0.00629997 0.256055 0.125406
    endloop
  endfacet
  facet normal 0 0.910826 -0.41279
    outer loop
      vertex 0 0.256055 0.125406
      vertex 0.00629997 0.254888 0.122831
      vertex 0 0.254888 0.122831
    endloop
  endfacet
  facet normal 0 0.97387 -0.227107
    outer loop
      vertex 0.00629997 0.25243 0.114727
      vertex 0 0.253072 0.11748
      vertex 0.00629997 0.253072 0.11748
    endloop
  endfacet
  facet normal 0 0.97387 -0.227107
    outer loop
      vertex 0 0.253072 0.11748
      vertex 0.00629997 0.25243 0.114727
      vertex 0 0.25243 0.114727
    endloop
  endfacet
  facet normal 0 0.999459 -0.0328909
    outer loop
      vertex 0.00629997 0.251599 0.106299
      vertex 0 0.251692 0.109125
      vertex 0.00629997 0.251692 0.109125
    endloop
  endfacet
  facet normal 0 0.999459 -0.0328909
    outer loop
      vertex 0 0.251692 0.109125
      vertex 0.00629997 0.251599 0.106299
      vertex 0 0.251599 0.106299
    endloop
  endfacet
  facet normal 0 0.528217 -0.849109
    outer loop
      vertex 0 0.270799 0.142219
      vertex 0.00629997 0.273199 0.143712
      vertex 0.00629997 0.270799 0.142219
    endloop
  endfacet
  facet normal 0 0.528217 -0.849109
    outer loop
      vertex 0.00629997 0.273199 0.143712
      vertex 0 0.270799 0.142219
      vertex 0 0.273199 0.143712
    endloop
  endfacet
  facet normal 0 0.634392 -0.773011
    outer loop
      vertex 0 0.266315 0.138779
      vertex 0.00629997 0.268501 0.140573
      vertex 0.00629997 0.266315 0.138779
    endloop
  endfacet
  facet normal 0 0.634392 -0.773011
    outer loop
      vertex 0.00629997 0.268501 0.140573
      vertex 0 0.266315 0.138779
      vertex 0 0.268501 0.140573
    endloop
  endfacet
  facet normal 0 0.683729 -0.729736
    outer loop
      vertex 0 0.264253 0.136847
      vertex 0.00629997 0.266315 0.138779
      vertex 0.00629997 0.264253 0.136847
    endloop
  endfacet
  facet normal 0 0.683729 -0.729736
    outer loop
      vertex 0.00629997 0.266315 0.138779
      vertex 0 0.264253 0.136847
      vertex 0 0.266315 0.138779
    endloop
  endfacet
  facet normal 0 0.290007 -0.957024
    outer loop
      vertex 0 0.280913 0.147207
      vertex 0.00629997 0.283619 0.148027
      vertex 0.00629997 0.280913 0.147207
    endloop
  endfacet
  facet normal 0 0.290007 -0.957024
    outer loop
      vertex 0.00629997 0.283619 0.148027
      vertex 0 0.280913 0.147207
      vertex 0 0.283619 0.148027
    endloop
  endfacet
  facet normal 0 0.0979974 -0.995187
    outer loop
      vertex 0 0.289161 0.14913
      vertex 0.00629997 0.291974 0.149407
      vertex 0.00629997 0.289161 0.14913
    endloop
  endfacet
  facet normal 0 0.0979974 -0.995187
    outer loop
      vertex 0.00629997 0.291974 0.149407
      vertex 0 0.289161 0.14913
      vertex 0 0.291974 0.149407
    endloop
  endfacet
  facet normal 0 -0.226961 0.973904
    outer loop
      vertex 0 0.305981 0.0645714
      vertex 0.00629997 0.303227 0.0639296
      vertex 0.00629997 0.305981 0.0645714
    endloop
  endfacet
  facet normal 0 -0.226961 0.973904
    outer loop
      vertex 0.00629997 0.303227 0.0639296
      vertex 0 0.305981 0.0645714
      vertex 0 0.303227 0.0639296
    endloop
  endfacet
  facet normal 0 -0.352046 0.935983
    outer loop
      vertex 0 0.311332 0.0663881
      vertex 0.00629997 0.308685 0.0653925
      vertex 0.00629997 0.311332 0.0663881
    endloop
  endfacet
  facet normal 0 -0.352046 0.935983
    outer loop
      vertex 0.00629997 0.308685 0.0653925
      vertex 0 0.311332 0.0663881
      vertex 0 0.308685 0.0653925
    endloop
  endfacet
  facet normal 0 -0.986662 0.162781
    outer loop
      vertex 0 0.33717 0.0978718
      vertex 0.00629997 0.33763 0.10066
      vertex 0 0.33763 0.10066
    endloop
  endfacet
  facet normal 0 -0.986662 0.162781
    outer loop
      vertex 0.00629997 0.33763 0.10066
      vertex 0 0.33717 0.0978718
      vertex 0.00629997 0.33717 0.0978718
    endloop
  endfacet
  facet normal 0 -0.812836 0.582492
    outer loop
      vertex 0 0.329072 0.0800009
      vertex 0.00629997 0.330719 0.0822992
      vertex 0 0.330719 0.0822992
    endloop
  endfacet
  facet normal 0 -0.812836 0.582492
    outer loop
      vertex 0.00629997 0.330719 0.0822992
      vertex 0 0.329072 0.0800009
      vertex 0.00629997 0.329072 0.0800009
    endloop
  endfacet
  facet normal 0 -0.773042 -0.634355
    outer loop
      vertex 0 0.329072 0.132598
      vertex 0.00629997 0.327279 0.134783
      vertex 0 0.327279 0.134783
    endloop
  endfacet
  facet normal 0 -0.773042 -0.634355
    outer loop
      vertex 0.00629997 0.327279 0.134783
      vertex 0 0.329072 0.132598
      vertex 0.00629997 0.329072 0.132598
    endloop
  endfacet
  facet normal 0 0.973875 0.227083
    outer loop
      vertex 0.00629997 0.253072 0.0951185
      vertex 0 0.25243 0.0978718
      vertex 0.00629997 0.25243 0.0978718
    endloop
  endfacet
  facet normal 0 0.973875 0.227083
    outer loop
      vertex 0 0.25243 0.0978718
      vertex 0.00629997 0.253072 0.0951185
      vertex 0 0.253072 0.0951185
    endloop
  endfacet
  facet normal 0 0.849149 0.528153
    outer loop
      vertex 0.00629997 0.25888 0.0822992
      vertex 0 0.257387 0.0846996
      vertex 0.00629997 0.257387 0.0846996
    endloop
  endfacet
  facet normal 0 0.849149 0.528153
    outer loop
      vertex 0 0.257387 0.0846996
      vertex 0.00629997 0.25888 0.0822992
      vertex 0 0.25888 0.0822992
    endloop
  endfacet
  facet normal -0 0.528319 0.849046
    outer loop
      vertex 0 0.273199 0.0688868
      vertex 0.00629997 0.270799 0.0703802
      vertex 0.00629997 0.273199 0.0688868
    endloop
  endfacet
  facet normal 0 0.528319 0.849046
    outer loop
      vertex 0.00629997 0.270799 0.0703802
      vertex 0 0.273199 0.0688868
      vertex 0 0.270799 0.0703802
    endloop
  endfacet
  facet normal -0 0.162919 0.986639
    outer loop
      vertex 0 0.289161 0.0634689
      vertex 0.00629997 0.286371 0.0639296
      vertex 0.00629997 0.289161 0.0634689
    endloop
  endfacet
  facet normal 0 0.162919 0.986639
    outer loop
      vertex 0.00629997 0.286371 0.0639296
      vertex 0 0.289161 0.0634689
      vertex 0 0.286371 0.0639296
    endloop
  endfacet
  facet normal 0 0.352403 -0.935848
    outer loop
      vertex 0 0.278268 0.146211
      vertex 0.00629997 0.280913 0.147207
      vertex 0.00629997 0.278268 0.146211
    endloop
  endfacet
  facet normal 0 0.352403 -0.935848
    outer loop
      vertex 0.00629997 0.280913 0.147207
      vertex 0 0.278268 0.146211
      vertex 0 0.280913 0.147207
    endloop
  endfacet
  facet normal 0 0 -1
    outer loop
      vertex 0 0.0909996 0.143308
      vertex 0.00629997 0.134521 0.143308
      vertex 0.00629997 0.0909996 0.143308
    endloop
  endfacet
  facet normal -0 0 -1
    outer loop
      vertex 0.00629997 0.134521 0.143308
      vertex 0 0.0909996 0.143308
      vertex 0 0.134521 0.143308
    endloop
  endfacet
  facet normal -0 0 1
    outer loop
      vertex 0 0.134521 0.0991993
      vertex 0.00629997 0.0909996 0.0991993
      vertex 0.00629997 0.134521 0.0991993
    endloop
  endfacet
  facet normal 0 0 1
    outer loop
      vertex 0.00629997 0.0909996 0.0991993
      vertex 0 0.134521 0.0991993
      vertex 0 0.0909996 0.0991993
    endloop
  endfacet
  facet normal 0 1 -0
    outer loop
      vertex 0.00629997 0.0909996 0.0991993
      vertex 0 0.0909996 0.143308
      vertex 0.00629997 0.0909996 0.143308
    endloop
  endfacet
  facet normal 0 1 0
    outer loop
      vertex 0 0.0909996 0.143308
      vertex 0.00629997 0.0909996 0.0991993
      vertex 0 0.0909996 0.0991993
    endloop
  endfacet
  facet normal 0 -1 0
    outer loop
      vertex 0 0.134521 0.0991993
      vertex 0.00629997 0.134521 0.143308
      vertex 0 0.134521 0.143308
    endloop
  endfacet
  facet normal 0 -1 -0
    outer loop
      vertex 0.00629997 0.134521 0.143308
      vertex 0 0.134521 0.0991993
      vertex 0.00629997 0.134521 0.0991993
    endloop
  endfacet
endsolid OpenSCAD_Model
