solid OpenSCAD_Model
  facet normal -1 0 0
    outer loop
      vertex -45 -35 -10
      vertex -45 -20 0
      vertex -45 -20 -10
    endloop
  endfacet
  facet normal -1 -0 0
    outer loop
      vertex -45 -20 0
      vertex -45 -35 -10
      vertex -45 -35 0
    endloop
  endfacet
  facet normal 0 0 -1
    outer loop
      vertex -45 -20 0
      vertex -25 20 0
      vertex -25 -20 0
    endloop
  endfacet
  facet normal -0 0 -1
    outer loop
      vertex -25 20 0
      vertex -45 -20 0
      vertex -45 20 0
    endloop
  endfacet
  facet normal 0 0 -1
    outer loop
      vertex 25 -20 0
      vertex 45 20 0
      vertex 45 -20 0
    endloop
  endfacet
  facet normal -0 0 -1
    outer loop
      vertex 45 20 0
      vertex 25 -20 0
      vertex 25 20 0
    endloop
  endfacet
  facet normal 0 0 -1
    outer loop
      vertex 45 -20 0
      vertex 50 -40 0
      vertex 45 -35 0
    endloop
  endfacet
  facet normal 0 0 -1
    outer loop
      vertex 50 -40 0
      vertex 25 -35 0
      vertex 45 -35 0
    endloop
  endfacet
  facet normal 0 0 -1
    outer loop
      vertex -25 -20 0
      vertex 25 -20 0
      vertex 25 -35 0
    endloop
  endfacet
  facet normal 0 0 -1
    outer loop
      vertex 25 -20 0
      vertex -25 -20 0
      vertex 25 20 0
    endloop
  endfacet
  facet normal 0 0 -1
    outer loop
      vertex -25 -20 0
      vertex 25 -35 0
      vertex -25 -35 0
    endloop
  endfacet
  facet normal 0 0 -1
    outer loop
      vertex 50 -40 0
      vertex -25 -35 0
      vertex 25 -35 0
    endloop
  endfacet
  facet normal 0 0 -1
    outer loop
      vertex -50 -40 0
      vertex -25 -35 0
      vertex 50 -40 0
    endloop
  endfacet
  facet normal 0 0 -1
    outer loop
      vertex -50 -40 0
      vertex -45 -20 0
      vertex -45 -35 0
    endloop
  endfacet
  facet normal -0 0 -1
    outer loop
      vertex -45 -20 0
      vertex -50 -40 0
      vertex -45 20 0
    endloop
  endfacet
  facet normal 0 0 -1
    outer loop
      vertex -50 40 0
      vertex -45 20 0
      vertex -50 -40 0
    endloop
  endfacet
  facet normal -0 0 -1
    outer loop
      vertex -25 -35 0
      vertex -50 -40 0
      vertex -45 -35 0
    endloop
  endfacet
  facet normal 0 0 -1
    outer loop
      vertex 50 -40 0
      vertex 45 -20 0
      vertex 50 40 0
    endloop
  endfacet
  facet normal 0 0 -1
    outer loop
      vertex 45 20 0
      vertex 50 40 0
      vertex 45 -20 0
    endloop
  endfacet
  facet normal 0 0 -1
    outer loop
      vertex 45 35 0
      vertex 50 40 0
      vertex 45 20 0
    endloop
  endfacet
  facet normal 0 0 -1
    outer loop
      vertex 25 35 0
      vertex 50 40 0
      vertex 45 35 0
    endloop
  endfacet
  facet normal 0 0 -1
    outer loop
      vertex -25 20 0
      vertex 25 20 0
      vertex -25 -20 0
    endloop
  endfacet
  facet normal 0 0 -1
    outer loop
      vertex 25 20 0
      vertex -25 20 0
      vertex 25 35 0
    endloop
  endfacet
  facet normal 0 0 -1
    outer loop
      vertex -25 35 0
      vertex 25 35 0
      vertex -25 20 0
    endloop
  endfacet
  facet normal 0 0 -1
    outer loop
      vertex -25 35 0
      vertex 50 40 0
      vertex 25 35 0
    endloop
  endfacet
  facet normal 0 0 -1
    outer loop
      vertex -50 40 0
      vertex -25 35 0
      vertex -45 35 0
    endloop
  endfacet
  facet normal 0 0 -1
    outer loop
      vertex -25 35 0
      vertex -50 40 0
      vertex 50 40 0
    endloop
  endfacet
  facet normal 0 0 -1
    outer loop
      vertex -45 20 0
      vertex -50 40 0
      vertex -45 35 0
    endloop
  endfacet
  facet normal 1 -0 0
    outer loop
      vertex -25 -35 0
      vertex -25 -20 -2
      vertex -25 -20 0
    endloop
  endfacet
  facet normal 1 0 0
    outer loop
      vertex -25 -20 -2
      vertex -25 -35 0
      vertex -25 -35 -2
    endloop
  endfacet
  facet normal 0 1 0
    outer loop
      vertex -35 -20 -2
      vertex -25 -20 0
      vertex -25 -20 -2
    endloop
  endfacet
  facet normal 0 1 0
    outer loop
      vertex -25 -20 0
      vertex -35 -20 -2
      vertex -45 -20 0
    endloop
  endfacet
  facet normal 0 1 0
    outer loop
      vertex -45 -20 -10
      vertex -35 -20 -2
      vertex -35 -20 -10
    endloop
  endfacet
  facet normal 0 1 0
    outer loop
      vertex -35 -20 -2
      vertex -45 -20 -10
      vertex -45 -20 0
    endloop
  endfacet
  facet normal 0 0 -1
    outer loop
      vertex -35 -35 -2
      vertex -25 -20 -2
      vertex -25 -35 -2
    endloop
  endfacet
  facet normal -0 0 -1
    outer loop
      vertex -25 -20 -2
      vertex -35 -35 -2
      vertex -35 -20 -2
    endloop
  endfacet
  facet normal 0 -1 0
    outer loop
      vertex -45 -35 0
      vertex -35 -35 -2
      vertex -25 -35 0
    endloop
  endfacet
  facet normal 0 -1 0
    outer loop
      vertex -45 -35 -10
      vertex -35 -35 -2
      vertex -45 -35 0
    endloop
  endfacet
  facet normal 0 -1 -0
    outer loop
      vertex -35 -35 -2
      vertex -45 -35 -10
      vertex -35 -35 -10
    endloop
  endfacet
  facet normal 0 -1 -0
    outer loop
      vertex -25 -35 0
      vertex -35 -35 -2
      vertex -25 -35 -2
    endloop
  endfacet
  facet normal 1 -0 0
    outer loop
      vertex -35 -35 -2
      vertex -35 -20 -10
      vertex -35 -20 -2
    endloop
  endfacet
  facet normal 1 0 0
    outer loop
      vertex -35 -20 -10
      vertex -35 -35 -2
      vertex -35 -35 -10
    endloop
  endfacet
  facet normal 0 0 -1
    outer loop
      vertex -45 -35 -10
      vertex -35 -20 -10
      vertex -35 -35 -10
    endloop
  endfacet
  facet normal -0 0 -1
    outer loop
      vertex -35 -20 -10
      vertex -45 -35 -10
      vertex -45 -20 -10
    endloop
  endfacet
  facet normal -1 0 0
    outer loop
      vertex 25 -35 -2
      vertex 25 -20 0
      vertex 25 -20 -2
    endloop
  endfacet
  facet normal -1 -0 0
    outer loop
      vertex 25 -20 0
      vertex 25 -35 -2
      vertex 25 -35 0
    endloop
  endfacet
  facet normal 1 -0 0
    outer loop
      vertex 45 -35 0
      vertex 45 -20 -10
      vertex 45 -20 0
    endloop
  endfacet
  facet normal 1 0 0
    outer loop
      vertex 45 -20 -10
      vertex 45 -35 0
      vertex 45 -35 -10
    endloop
  endfacet
  facet normal 0 1 0
    outer loop
      vertex 45 -20 0
      vertex 35 -20 -2
      vertex 25 -20 0
    endloop
  endfacet
  facet normal 0 1 -0
    outer loop
      vertex 45 -20 -10
      vertex 35 -20 -2
      vertex 45 -20 0
    endloop
  endfacet
  facet normal 0 1 0
    outer loop
      vertex 35 -20 -2
      vertex 45 -20 -10
      vertex 35 -20 -10
    endloop
  endfacet
  facet normal 0 1 0
    outer loop
      vertex 25 -20 0
      vertex 35 -20 -2
      vertex 25 -20 -2
    endloop
  endfacet
  facet normal 0 0 -1
    outer loop
      vertex 25 -35 -2
      vertex 35 -20 -2
      vertex 35 -35 -2
    endloop
  endfacet
  facet normal -0 0 -1
    outer loop
      vertex 35 -20 -2
      vertex 25 -35 -2
      vertex 25 -20 -2
    endloop
  endfacet
  facet normal 0 -1 0
    outer loop
      vertex 35 -35 -2
      vertex 25 -35 0
      vertex 25 -35 -2
    endloop
  endfacet
  facet normal 0 -1 0
    outer loop
      vertex 25 -35 0
      vertex 35 -35 -2
      vertex 45 -35 0
    endloop
  endfacet
  facet normal 0 -1 0
    outer loop
      vertex 45 -35 -10
      vertex 35 -35 -2
      vertex 35 -35 -10
    endloop
  endfacet
  facet normal 0 -1 0
    outer loop
      vertex 35 -35 -2
      vertex 45 -35 -10
      vertex 45 -35 0
    endloop
  endfacet
  facet normal -1 0 0
    outer loop
      vertex 35 -35 -10
      vertex 35 -20 -2
      vertex 35 -20 -10
    endloop
  endfacet
  facet normal -1 -0 0
    outer loop
      vertex 35 -20 -2
      vertex 35 -35 -10
      vertex 35 -35 -2
    endloop
  endfacet
  facet normal 0 0 -1
    outer loop
      vertex 35 -35 -10
      vertex 45 -20 -10
      vertex 45 -35 -10
    endloop
  endfacet
  facet normal -0 0 -1
    outer loop
      vertex 45 -20 -10
      vertex 35 -35 -10
      vertex 35 -20 -10
    endloop
  endfacet
  facet normal -1 0 0
    outer loop
      vertex -45 20 -10
      vertex -45 35 0
      vertex -45 35 -10
    endloop
  endfacet
  facet normal -1 -0 0
    outer loop
      vertex -45 35 0
      vertex -45 20 -10
      vertex -45 20 0
    endloop
  endfacet
  facet normal 1 -0 0
    outer loop
      vertex -25 20 0
      vertex -25 35 -2
      vertex -25 35 0
    endloop
  endfacet
  facet normal 1 0 0
    outer loop
      vertex -25 35 -2
      vertex -25 20 0
      vertex -25 20 -2
    endloop
  endfacet
  facet normal 0 1 0
    outer loop
      vertex -35 35 -2
      vertex -25 35 0
      vertex -25 35 -2
    endloop
  endfacet
  facet normal 0 1 0
    outer loop
      vertex -25 35 0
      vertex -35 35 -2
      vertex -45 35 0
    endloop
  endfacet
  facet normal 0 1 0
    outer loop
      vertex -45 35 -10
      vertex -35 35 -2
      vertex -35 35 -10
    endloop
  endfacet
  facet normal 0 1 0
    outer loop
      vertex -35 35 -2
      vertex -45 35 -10
      vertex -45 35 0
    endloop
  endfacet
  facet normal 0 0 -1
    outer loop
      vertex -35 20 -2
      vertex -25 35 -2
      vertex -25 20 -2
    endloop
  endfacet
  facet normal -0 0 -1
    outer loop
      vertex -25 35 -2
      vertex -35 20 -2
      vertex -35 35 -2
    endloop
  endfacet
  facet normal 0 -1 0
    outer loop
      vertex -45 20 0
      vertex -35 20 -2
      vertex -25 20 0
    endloop
  endfacet
  facet normal 0 -1 0
    outer loop
      vertex -45 20 -10
      vertex -35 20 -2
      vertex -45 20 0
    endloop
  endfacet
  facet normal 0 -1 -0
    outer loop
      vertex -35 20 -2
      vertex -45 20 -10
      vertex -35 20 -10
    endloop
  endfacet
  facet normal 0 -1 -0
    outer loop
      vertex -25 20 0
      vertex -35 20 -2
      vertex -25 20 -2
    endloop
  endfacet
  facet normal 1 -0 0
    outer loop
      vertex -35 20 -2
      vertex -35 35 -10
      vertex -35 35 -2
    endloop
  endfacet
  facet normal 1 0 0
    outer loop
      vertex -35 35 -10
      vertex -35 20 -2
      vertex -35 20 -10
    endloop
  endfacet
  facet normal 0 0 -1
    outer loop
      vertex -45 20 -10
      vertex -35 35 -10
      vertex -35 20 -10
    endloop
  endfacet
  facet normal -0 0 -1
    outer loop
      vertex -35 35 -10
      vertex -45 20 -10
      vertex -45 35 -10
    endloop
  endfacet
  facet normal -1 0 0
    outer loop
      vertex 25 20 -2
      vertex 25 35 0
      vertex 25 35 -2
    endloop
  endfacet
  facet normal -1 -0 0
    outer loop
      vertex 25 35 0
      vertex 25 20 -2
      vertex 25 20 0
    endloop
  endfacet
  facet normal 1 -0 0
    outer loop
      vertex 45 20 0
      vertex 45 35 -10
      vertex 45 35 0
    endloop
  endfacet
  facet normal 1 0 0
    outer loop
      vertex 45 35 -10
      vertex 45 20 0
      vertex 45 20 -10
    endloop
  endfacet
  facet normal 0 1 0
    outer loop
      vertex 45 35 0
      vertex 35 35 -2
      vertex 25 35 0
    endloop
  endfacet
  facet normal 0 1 -0
    outer loop
      vertex 45 35 -10
      vertex 35 35 -2
      vertex 45 35 0
    endloop
  endfacet
  facet normal 0 1 0
    outer loop
      vertex 35 35 -2
      vertex 45 35 -10
      vertex 35 35 -10
    endloop
  endfacet
  facet normal 0 1 0
    outer loop
      vertex 25 35 0
      vertex 35 35 -2
      vertex 25 35 -2
    endloop
  endfacet
  facet normal 0 0 -1
    outer loop
      vertex 25 20 -2
      vertex 35 35 -2
      vertex 35 20 -2
    endloop
  endfacet
  facet normal -0 0 -1
    outer loop
      vertex 35 35 -2
      vertex 25 20 -2
      vertex 25 35 -2
    endloop
  endfacet
  facet normal 0 -1 0
    outer loop
      vertex 35 20 -2
      vertex 25 20 0
      vertex 25 20 -2
    endloop
  endfacet
  facet normal 0 -1 0
    outer loop
      vertex 25 20 0
      vertex 35 20 -2
      vertex 45 20 0
    endloop
  endfacet
  facet normal 0 -1 0
    outer loop
      vertex 45 20 -10
      vertex 35 20 -2
      vertex 35 20 -10
    endloop
  endfacet
  facet normal 0 -1 0
    outer loop
      vertex 35 20 -2
      vertex 45 20 -10
      vertex 45 20 0
    endloop
  endfacet
  facet normal -1 0 0
    outer loop
      vertex 35 20 -10
      vertex 35 35 -2
      vertex 35 35 -10
    endloop
  endfacet
  facet normal -1 -0 0
    outer loop
      vertex 35 35 -2
      vertex 35 20 -10
      vertex 35 20 -2
    endloop
  endfacet
  facet normal 0 0 -1
    outer loop
      vertex 35 20 -10
      vertex 45 35 -10
      vertex 45 20 -10
    endloop
  endfacet
  facet normal -0 0 -1
    outer loop
      vertex 45 35 -10
      vertex 35 20 -10
      vertex 35 35 -10
    endloop
  endfacet
  facet normal -1 0 0
    outer loop
      vertex -50 -40 0
      vertex -50 40 5
      vertex -50 40 0
    endloop
  endfacet
  facet normal -1 -0 0
    outer loop
      vertex -50 40 5
      vertex -50 -40 0
      vertex -50 -40 5
    endloop
  endfacet
  facet normal -0 0 1
    outer loop
      vertex -50 40 5
      vertex 50 -40 5
      vertex 50 40 5
    endloop
  endfacet
  facet normal 0 0 1
    outer loop
      vertex 50 -40 5
      vertex -50 40 5
      vertex -50 -40 5
    endloop
  endfacet
  facet normal 1 -0 0
    outer loop
      vertex 50 -40 5
      vertex 50 40 0
      vertex 50 40 5
    endloop
  endfacet
  facet normal 1 0 0
    outer loop
      vertex 50 40 0
      vertex 50 -40 5
      vertex 50 -40 0
    endloop
  endfacet
  facet normal 0 1 -0
    outer loop
      vertex 50 40 0
      vertex -50 40 5
      vertex 50 40 5
    endloop
  endfacet
  facet normal 0 1 0
    outer loop
      vertex -50 40 5
      vertex 50 40 0
      vertex -50 40 0
    endloop
  endfacet
  facet normal 0 -1 0
    outer loop
      vertex -50 -40 0
      vertex 50 -40 5
      vertex -50 -40 5
    endloop
  endfacet
  facet normal 0 -1 -0
    outer loop
      vertex 50 -40 5
      vertex -50 -40 0
      vertex 50 -40 0
    endloop
  endfacet
endsolid OpenSCAD_Model
