solid OpenSCAD_Model
  facet normal -1 0 0
    outer loop
      vertex 0 0.5 -0.200032
      vertex 0 0.25 0.0166664
      vertex 0 0.5 0
    endloop
  endfacet
  facet normal -1 0 0
    outer loop
      vertex 0 0 -0.200032
      vertex 0 0.25 0.0166664
      vertex 0 0.5 -0.200032
    endloop
  endfacet
  facet normal -1 -0 0
    outer loop
      vertex 0 0.25 0.0166664
      vertex 0 0 -0.200032
      vertex 0 0 0.0166664
    endloop
  endfacet
  facet normal -1 0 0
    outer loop
      vertex 0 0.5 0
      vertex 0 0.75 0.233399
      vertex 0 0.75 0
    endloop
  endfacet
  facet normal -1 0 0
    outer loop
      vertex 0 0.25 0.233399
      vertex 0 0.5 0
      vertex 0 0.25 0.0166664
    endloop
  endfacet
  facet normal -1 0 0
    outer loop
      vertex 0 0.5 0
      vertex 0 0.25 0.233399
      vertex 0 0.75 0.233399
    endloop
  endfacet
  facet normal 0 1 -0
    outer loop
      vertex 0.5 0.75 0
      vertex 0 0.75 0.233399
      vertex 0.5 0.75 0.233399
    endloop
  endfacet
  facet normal 0 1 0
    outer loop
      vertex 0 0.75 0.233399
      vertex 0.5 0.75 0
      vertex 0 0.75 0
    endloop
  endfacet
  facet normal -0 0 1
    outer loop
      vertex 0 0.25 0.0166664
      vertex 0.5 0 0.0166664
      vertex 0.5 0.25 0.0166664
    endloop
  endfacet
  facet normal 0 0 1
    outer loop
      vertex 0.5 0 0.0166664
      vertex 0 0.25 0.0166664
      vertex 0 0 0.0166664
    endloop
  endfacet
  facet normal 0 -1 0
    outer loop
      vertex 0 0.25 0.0166664
      vertex 0.5 0.25 0.233399
      vertex 0 0.25 0.233399
    endloop
  endfacet
  facet normal 0 -1 -0
    outer loop
      vertex 0.5 0.25 0.233399
      vertex 0 0.25 0.0166664
      vertex 0.5 0.25 0.0166664
    endloop
  endfacet
  facet normal 1 0 0
    outer loop
      vertex 0.5 0.25 0.0166664
      vertex 0.5 0.75 0.233399
      vertex 0.5 0.25 0.233399
    endloop
  endfacet
  facet normal 1 0 0
    outer loop
      vertex 0.5 0.75 0.233399
      vertex 0.5 0.25 0.0166664
      vertex 0.5 0.75 0
    endloop
  endfacet
  facet normal 1 0 0
    outer loop
      vertex 0.5 0 0
      vertex 0.5 0.25 0.0166664
      vertex 0.5 0 0.0166664
    endloop
  endfacet
  facet normal 1 0 0
    outer loop
      vertex 0.5 0.25 0.0166664
      vertex 0.5 0 0
      vertex 0.5 0.75 0
    endloop
  endfacet
  facet normal 1 -0 0
    outer loop
      vertex 0.179999 0 0
      vertex 0.179999 0.5 -0.0833321
      vertex 0.179999 0.5 0
    endloop
  endfacet
  facet normal 1 0 0
    outer loop
      vertex 0.179999 0.5 -0.0833321
      vertex 0.179999 0 0
      vertex 0.179999 0 -0.0833321
    endloop
  endfacet
  facet normal 0 0 -1
    outer loop
      vertex 0.139999 0 -0.0833321
      vertex 0.179999 0.5 -0.0833321
      vertex 0.179999 0 -0.0833321
    endloop
  endfacet
  facet normal -0 0 -1
    outer loop
      vertex 0.179999 0.5 -0.0833321
      vertex 0.139999 0 -0.0833321
      vertex 0.139999 0.5 -0.0833321
    endloop
  endfacet
  facet normal 0 -1 0
    outer loop
      vertex 0 0 0.0166664
      vertex 0.179999 0 0
      vertex 0.5 0 0.0166664
    endloop
  endfacet
  facet normal 0 -1 0
    outer loop
      vertex 0 0 0.0166664
      vertex 0.139999 0 -0.0833321
      vertex 0.179999 0 0
    endloop
  endfacet
  facet normal 0 -1 0
    outer loop
      vertex 0 0 -0.200032
      vertex 0.139999 0 -0.0833321
      vertex 0 0 0.0166664
    endloop
  endfacet
  facet normal 0 -1 -0
    outer loop
      vertex 0.139999 0 -0.0833321
      vertex 0 0 -0.200032
      vertex 0.139999 0 -0.200032
    endloop
  endfacet
  facet normal 0 -1 -0
    outer loop
      vertex 0.5 0 0.0166664
      vertex 0.179999 0 0
      vertex 0.5 0 0
    endloop
  endfacet
  facet normal 0 -1 -0
    outer loop
      vertex 0.179999 0 0
      vertex 0.139999 0 -0.0833321
      vertex 0.179999 0 -0.0833321
    endloop
  endfacet
  facet normal 0 1 0
    outer loop
      vertex 0.139999 0.5 -0.0833321
      vertex 0.179999 0.5 0
      vertex 0.179999 0.5 -0.0833321
    endloop
  endfacet
  facet normal 0 1 0
    outer loop
      vertex 0.179999 0.5 0
      vertex 0.139999 0.5 -0.0833321
      vertex 0 0.5 0
    endloop
  endfacet
  facet normal 0 1 0
    outer loop
      vertex 0 0.5 -0.200032
      vertex 0.139999 0.5 -0.0833321
      vertex 0.139999 0.5 -0.200032
    endloop
  endfacet
  facet normal 0 1 0
    outer loop
      vertex 0.139999 0.5 -0.0833321
      vertex 0 0.5 -0.200032
      vertex 0 0.5 0
    endloop
  endfacet
  facet normal 1 -0 0
    outer loop
      vertex 0.139999 0 -0.0833321
      vertex 0.139999 0.5 -0.200032
      vertex 0.139999 0.5 -0.0833321
    endloop
  endfacet
  facet normal 1 0 0
    outer loop
      vertex 0.139999 0.5 -0.200032
      vertex 0.139999 0 -0.0833321
      vertex 0.139999 0 -0.200032
    endloop
  endfacet
  facet normal 0 0 -1
    outer loop
      vertex 0 0 -0.200032
      vertex 0.139999 0.5 -0.200032
      vertex 0.139999 0 -0.200032
    endloop
  endfacet
  facet normal -0 0 -1
    outer loop
      vertex 0.139999 0.5 -0.200032
      vertex 0 0 -0.200032
      vertex 0 0.5 -0.200032
    endloop
  endfacet
  facet normal 0 0 -1
    outer loop
      vertex 0.2839 0.491296 0
      vertex 0.5 0.75 0
      vertex 0.5 0 0
    endloop
  endfacet
  facet normal 0 0 -1
    outer loop
      vertex 0.5 0.75 0
      vertex 0.28493 0.497802 0
      vertex 0.285 0.5 0
    endloop
  endfacet
  facet normal 0 0 -1
    outer loop
      vertex 0.5 0.75 0
      vertex 0.284723 0.495613 0
      vertex 0.28493 0.497802 0
    endloop
  endfacet
  facet normal 0 0 -1
    outer loop
      vertex 0.5 0.75 0
      vertex 0.28438 0.493442 0
      vertex 0.284723 0.495613 0
    endloop
  endfacet
  facet normal 0 0 -1
    outer loop
      vertex 0.5 0.75 0
      vertex 0.2839 0.491296 0
      vertex 0.28438 0.493442 0
    endloop
  endfacet
  facet normal 0 0 -1
    outer loop
      vertex 0.5 0 0
      vertex 0.283286 0.489184 0
      vertex 0.2839 0.491296 0
    endloop
  endfacet
  facet normal 0 0 -1
    outer loop
      vertex 0.5 0 0
      vertex 0.282541 0.487115 0
      vertex 0.283286 0.489184 0
    endloop
  endfacet
  facet normal 0 0 -1
    outer loop
      vertex 0.5 0 0
      vertex 0.281669 0.485097 0
      vertex 0.282541 0.487115 0
    endloop
  endfacet
  facet normal 0 0 -1
    outer loop
      vertex 0.5 0 0
      vertex 0.28067 0.483138 0
      vertex 0.281669 0.485097 0
    endloop
  endfacet
  facet normal 0 0 -1
    outer loop
      vertex 0.5 0 0
      vertex 0.279551 0.481246 0
      vertex 0.28067 0.483138 0
    endloop
  endfacet
  facet normal 0 0 -1
    outer loop
      vertex 0.5 0 0
      vertex 0.278316 0.479427 0
      vertex 0.279551 0.481246 0
    endloop
  endfacet
  facet normal 0 0 -1
    outer loop
      vertex 0.5 0 0
      vertex 0.276967 0.47769 0
      vertex 0.278316 0.479427 0
    endloop
  endfacet
  facet normal 0 0 -1
    outer loop
      vertex 0.5 0 0
      vertex 0.275514 0.476041 0
      vertex 0.276967 0.47769 0
    endloop
  endfacet
  facet normal 0 0 -1
    outer loop
      vertex 0.5 0 0
      vertex 0.273958 0.474485 0
      vertex 0.275514 0.476041 0
    endloop
  endfacet
  facet normal 0 0 -1
    outer loop
      vertex 0.5 0 0
      vertex 0.272309 0.473032 0
      vertex 0.273958 0.474485 0
    endloop
  endfacet
  facet normal 0 0 -1
    outer loop
      vertex 0.5 0 0
      vertex 0.270572 0.471684 0
      vertex 0.272309 0.473032 0
    endloop
  endfacet
  facet normal 0 0 -1
    outer loop
      vertex 0.5 0 0
      vertex 0.268753 0.470448 0
      vertex 0.270572 0.471684 0
    endloop
  endfacet
  facet normal 0 0 -1
    outer loop
      vertex 0.5 0 0
      vertex 0.266861 0.469329 0
      vertex 0.268753 0.470448 0
    endloop
  endfacet
  facet normal 0 0 -1
    outer loop
      vertex 0.5 0 0
      vertex 0.264902 0.46833 0
      vertex 0.266861 0.469329 0
    endloop
  endfacet
  facet normal 0 0 -1
    outer loop
      vertex 0.5 0 0
      vertex 0.262884 0.467458 0
      vertex 0.264902 0.46833 0
    endloop
  endfacet
  facet normal 0 0 -1
    outer loop
      vertex 0.5 0 0
      vertex 0.260815 0.466713 0
      vertex 0.262884 0.467458 0
    endloop
  endfacet
  facet normal 0 0 -1
    outer loop
      vertex 0.179999 0 0
      vertex 0.260815 0.466713 0
      vertex 0.5 0 0
    endloop
  endfacet
  facet normal 0 0 -1
    outer loop
      vertex 0.260815 0.466713 0
      vertex 0.179999 0 0
      vertex 0.258703 0.466099 0
    endloop
  endfacet
  facet normal 0 0 -1
    outer loop
      vertex 0.258703 0.466099 0
      vertex 0.179999 0 0
      vertex 0.256557 0.465619 0
    endloop
  endfacet
  facet normal 0 0 -1
    outer loop
      vertex 0.256557 0.465619 0
      vertex 0.179999 0 0
      vertex 0.254386 0.465276 0
    endloop
  endfacet
  facet normal 0 0 -1
    outer loop
      vertex 0.254386 0.465276 0
      vertex 0.179999 0 0
      vertex 0.252197 0.465069 0
    endloop
  endfacet
  facet normal 0 0 -1
    outer loop
      vertex 0.252197 0.465069 0
      vertex 0.179999 0 0
      vertex 0.25 0.464999 0
    endloop
  endfacet
  facet normal -0 0 -1
    outer loop
      vertex 0.25 0.464999 0
      vertex 0.179999 0 0
      vertex 0.247802 0.465069 0
    endloop
  endfacet
  facet normal -0 0 -1
    outer loop
      vertex 0.247802 0.465069 0
      vertex 0.179999 0 0
      vertex 0.245613 0.465276 0
    endloop
  endfacet
  facet normal -0 0 -1
    outer loop
      vertex 0.245613 0.465276 0
      vertex 0.179999 0 0
      vertex 0.243442 0.465619 0
    endloop
  endfacet
  facet normal -0 0 -1
    outer loop
      vertex 0.243442 0.465619 0
      vertex 0.179999 0 0
      vertex 0.241296 0.466099 0
    endloop
  endfacet
  facet normal -0 0 -1
    outer loop
      vertex 0.241296 0.466099 0
      vertex 0.179999 0 0
      vertex 0.239184 0.466713 0
    endloop
  endfacet
  facet normal -0 0 -1
    outer loop
      vertex 0.239184 0.466713 0
      vertex 0.179999 0 0
      vertex 0.237115 0.467458 0
    endloop
  endfacet
  facet normal -0 0 -1
    outer loop
      vertex 0.237115 0.467458 0
      vertex 0.179999 0 0
      vertex 0.235097 0.46833 0
    endloop
  endfacet
  facet normal -0 0 -1
    outer loop
      vertex 0.235097 0.46833 0
      vertex 0.179999 0 0
      vertex 0.233138 0.469329 0
    endloop
  endfacet
  facet normal -0 0 -1
    outer loop
      vertex 0.233138 0.469329 0
      vertex 0.179999 0 0
      vertex 0.231246 0.470448 0
    endloop
  endfacet
  facet normal -0 0 -1
    outer loop
      vertex 0.231246 0.470448 0
      vertex 0.179999 0 0
      vertex 0.229427 0.471684 0
    endloop
  endfacet
  facet normal 0 0 -1
    outer loop
      vertex 0.179999 0.5 0
      vertex 0.229427 0.471684 0
      vertex 0.179999 0 0
    endloop
  endfacet
  facet normal 0 0 -1
    outer loop
      vertex 0.229427 0.471684 0
      vertex 0.179999 0.5 0
      vertex 0.22769 0.473032 0
    endloop
  endfacet
  facet normal 0 0 -1
    outer loop
      vertex 0.22769 0.473032 0
      vertex 0.179999 0.5 0
      vertex 0.226041 0.474485 0
    endloop
  endfacet
  facet normal 0 0 -1
    outer loop
      vertex 0.226041 0.474485 0
      vertex 0.179999 0.5 0
      vertex 0.224485 0.476041 0
    endloop
  endfacet
  facet normal 0 0 -1
    outer loop
      vertex 0.224485 0.476041 0
      vertex 0.179999 0.5 0
      vertex 0.223032 0.47769 0
    endloop
  endfacet
  facet normal 0 0 -1
    outer loop
      vertex 0.223032 0.47769 0
      vertex 0.179999 0.5 0
      vertex 0.221684 0.479427 0
    endloop
  endfacet
  facet normal 0 0 -1
    outer loop
      vertex 0.215276 0.495613 0
      vertex 0.179999 0.5 0
      vertex 0.215069 0.497802 0
    endloop
  endfacet
  facet normal 0 0 -1
    outer loop
      vertex 0.215619 0.493442 0
      vertex 0.179999 0.5 0
      vertex 0.215276 0.495613 0
    endloop
  endfacet
  facet normal 0 0 -1
    outer loop
      vertex 0.216099 0.491296 0
      vertex 0.179999 0.5 0
      vertex 0.215619 0.493442 0
    endloop
  endfacet
  facet normal 0 0 -1
    outer loop
      vertex 0.216713 0.489184 0
      vertex 0.179999 0.5 0
      vertex 0.216099 0.491296 0
    endloop
  endfacet
  facet normal 0 0 -1
    outer loop
      vertex 0.217458 0.487115 0
      vertex 0.179999 0.5 0
      vertex 0.216713 0.489184 0
    endloop
  endfacet
  facet normal 0 0 -1
    outer loop
      vertex 0.21833 0.485097 0
      vertex 0.179999 0.5 0
      vertex 0.217458 0.487115 0
    endloop
  endfacet
  facet normal 0 0 -1
    outer loop
      vertex 0.219329 0.483138 0
      vertex 0.179999 0.5 0
      vertex 0.21833 0.485097 0
    endloop
  endfacet
  facet normal 0 0 -1
    outer loop
      vertex 0.220448 0.481246 0
      vertex 0.179999 0.5 0
      vertex 0.219329 0.483138 0
    endloop
  endfacet
  facet normal 0 0 -1
    outer loop
      vertex 0.221684 0.479427 0
      vertex 0.179999 0.5 0
      vertex 0.220448 0.481246 0
    endloop
  endfacet
  facet normal 0 0 -1
    outer loop
      vertex 0.28493 0.502197 0
      vertex 0.5 0.75 0
      vertex 0.285 0.5 0
    endloop
  endfacet
  facet normal 0 0 -1
    outer loop
      vertex 0.284723 0.504386 0
      vertex 0.5 0.75 0
      vertex 0.28493 0.502197 0
    endloop
  endfacet
  facet normal 0 0 -1
    outer loop
      vertex 0.28438 0.506557 0
      vertex 0.5 0.75 0
      vertex 0.284723 0.504386 0
    endloop
  endfacet
  facet normal 0 0 -1
    outer loop
      vertex 0.2839 0.508703 0
      vertex 0.5 0.75 0
      vertex 0.28438 0.506557 0
    endloop
  endfacet
  facet normal 0 0 -1
    outer loop
      vertex 0.283286 0.510815 0
      vertex 0.5 0.75 0
      vertex 0.2839 0.508703 0
    endloop
  endfacet
  facet normal 0 0 -1
    outer loop
      vertex 0.282541 0.512884 0
      vertex 0.5 0.75 0
      vertex 0.283286 0.510815 0
    endloop
  endfacet
  facet normal 0 0 -1
    outer loop
      vertex 0.281669 0.514902 0
      vertex 0.5 0.75 0
      vertex 0.282541 0.512884 0
    endloop
  endfacet
  facet normal 0 0 -1
    outer loop
      vertex 0.28067 0.516861 0
      vertex 0.5 0.75 0
      vertex 0.281669 0.514902 0
    endloop
  endfacet
  facet normal 0 0 -1
    outer loop
      vertex 0.279551 0.518753 0
      vertex 0.5 0.75 0
      vertex 0.28067 0.516861 0
    endloop
  endfacet
  facet normal 0 0 -1
    outer loop
      vertex 0.278316 0.520572 0
      vertex 0.5 0.75 0
      vertex 0.279551 0.518753 0
    endloop
  endfacet
  facet normal 0 0 -1
    outer loop
      vertex 0.276967 0.522309 0
      vertex 0.5 0.75 0
      vertex 0.278316 0.520572 0
    endloop
  endfacet
  facet normal 0 0 -1
    outer loop
      vertex 0.275514 0.523958 0
      vertex 0.5 0.75 0
      vertex 0.276967 0.522309 0
    endloop
  endfacet
  facet normal 0 0 -1
    outer loop
      vertex 0.273958 0.525514 0
      vertex 0.5 0.75 0
      vertex 0.275514 0.523958 0
    endloop
  endfacet
  facet normal 0 0 -1
    outer loop
      vertex 0.272309 0.526967 0
      vertex 0.5 0.75 0
      vertex 0.273958 0.525514 0
    endloop
  endfacet
  facet normal 0 0 -1
    outer loop
      vertex 0.270572 0.528316 0
      vertex 0.5 0.75 0
      vertex 0.272309 0.526967 0
    endloop
  endfacet
  facet normal 0 0 -1
    outer loop
      vertex 0.268753 0.529551 0
      vertex 0.5 0.75 0
      vertex 0.270572 0.528316 0
    endloop
  endfacet
  facet normal 0 0 -1
    outer loop
      vertex 0.266861 0.53067 0
      vertex 0.5 0.75 0
      vertex 0.268753 0.529551 0
    endloop
  endfacet
  facet normal 0 0 -1
    outer loop
      vertex 0.264902 0.531669 0
      vertex 0.5 0.75 0
      vertex 0.266861 0.53067 0
    endloop
  endfacet
  facet normal 0 0 -1
    outer loop
      vertex 0.262884 0.532541 0
      vertex 0.5 0.75 0
      vertex 0.264902 0.531669 0
    endloop
  endfacet
  facet normal 0 0 -1
    outer loop
      vertex 0.260815 0.533286 0
      vertex 0.5 0.75 0
      vertex 0.262884 0.532541 0
    endloop
  endfacet
  facet normal 0 0 -1
    outer loop
      vertex 0.258703 0.5339 0
      vertex 0.5 0.75 0
      vertex 0.260815 0.533286 0
    endloop
  endfacet
  facet normal 0 0 -1
    outer loop
      vertex 0.256557 0.53438 0
      vertex 0.5 0.75 0
      vertex 0.258703 0.5339 0
    endloop
  endfacet
  facet normal 0 0 -1
    outer loop
      vertex 0.254386 0.534723 0
      vertex 0.5 0.75 0
      vertex 0.256557 0.53438 0
    endloop
  endfacet
  facet normal 0 0 -1
    outer loop
      vertex 0.252197 0.53493 0
      vertex 0.5 0.75 0
      vertex 0.254386 0.534723 0
    endloop
  endfacet
  facet normal 0 0 -1
    outer loop
      vertex 0.25 0.535 0
      vertex 0.5 0.75 0
      vertex 0.252197 0.53493 0
    endloop
  endfacet
  facet normal 0 0 -1
    outer loop
      vertex 0 0.75 0
      vertex 0.25 0.535 0
      vertex 0.247802 0.53493 0
    endloop
  endfacet
  facet normal 0 0 -1
    outer loop
      vertex 0 0.75 0
      vertex 0.247802 0.53493 0
      vertex 0.245613 0.534723 0
    endloop
  endfacet
  facet normal 0 0 -1
    outer loop
      vertex 0 0.75 0
      vertex 0.245613 0.534723 0
      vertex 0.243442 0.53438 0
    endloop
  endfacet
  facet normal 0 0 -1
    outer loop
      vertex 0 0.75 0
      vertex 0.243442 0.53438 0
      vertex 0.241296 0.5339 0
    endloop
  endfacet
  facet normal 0 0 -1
    outer loop
      vertex 0 0.75 0
      vertex 0.241296 0.5339 0
      vertex 0.239184 0.533286 0
    endloop
  endfacet
  facet normal 0 0 -1
    outer loop
      vertex 0 0.75 0
      vertex 0.239184 0.533286 0
      vertex 0.237115 0.532541 0
    endloop
  endfacet
  facet normal 0 0 -1
    outer loop
      vertex 0 0.75 0
      vertex 0.237115 0.532541 0
      vertex 0.235097 0.531669 0
    endloop
  endfacet
  facet normal 0 0 -1
    outer loop
      vertex 0 0.75 0
      vertex 0.235097 0.531669 0
      vertex 0.233138 0.53067 0
    endloop
  endfacet
  facet normal 0 0 -1
    outer loop
      vertex 0 0.75 0
      vertex 0.233138 0.53067 0
      vertex 0.231246 0.529551 0
    endloop
  endfacet
  facet normal 0 0 -1
    outer loop
      vertex 0 0.75 0
      vertex 0.231246 0.529551 0
      vertex 0.229427 0.528316 0
    endloop
  endfacet
  facet normal 0 0 -1
    outer loop
      vertex 0 0.75 0
      vertex 0.229427 0.528316 0
      vertex 0.22769 0.526967 0
    endloop
  endfacet
  facet normal 0 0 -1
    outer loop
      vertex 0.215069 0.497802 0
      vertex 0.179999 0.5 0
      vertex 0.214999 0.5 0
    endloop
  endfacet
  facet normal 0 0 -1
    outer loop
      vertex 0.214999 0.5 0
      vertex 0.179999 0.5 0
      vertex 0.215069 0.502197 0
    endloop
  endfacet
  facet normal 0 0 -1
    outer loop
      vertex 0.179999 0.5 0
      vertex 0.215276 0.504386 0
      vertex 0.215069 0.502197 0
    endloop
  endfacet
  facet normal 0 0 -1
    outer loop
      vertex 0.179999 0.5 0
      vertex 0.215619 0.506557 0
      vertex 0.215276 0.504386 0
    endloop
  endfacet
  facet normal 0 0 -1
    outer loop
      vertex 0.179999 0.5 0
      vertex 0.216099 0.508703 0
      vertex 0.215619 0.506557 0
    endloop
  endfacet
  facet normal 0 0 -1
    outer loop
      vertex 0.179999 0.5 0
      vertex 0.216713 0.510815 0
      vertex 0.216099 0.508703 0
    endloop
  endfacet
  facet normal 0 0 -1
    outer loop
      vertex 0.179999 0.5 0
      vertex 0.217458 0.512884 0
      vertex 0.216713 0.510815 0
    endloop
  endfacet
  facet normal 0 0 -1
    outer loop
      vertex 0.179999 0.5 0
      vertex 0.21833 0.514902 0
      vertex 0.217458 0.512884 0
    endloop
  endfacet
  facet normal 0 0 -1
    outer loop
      vertex 0.179999 0.5 0
      vertex 0.219329 0.516861 0
      vertex 0.21833 0.514902 0
    endloop
  endfacet
  facet normal 0 0 -1
    outer loop
      vertex 0.179999 0.5 0
      vertex 0.220448 0.518753 0
      vertex 0.219329 0.516861 0
    endloop
  endfacet
  facet normal 0 0 -1
    outer loop
      vertex 0.179999 0.5 0
      vertex 0.221684 0.520572 0
      vertex 0.220448 0.518753 0
    endloop
  endfacet
  facet normal 0 0 -1
    outer loop
      vertex 0.179999 0.5 0
      vertex 0.223032 0.522309 0
      vertex 0.221684 0.520572 0
    endloop
  endfacet
  facet normal 0 0 -1
    outer loop
      vertex 0.179999 0.5 0
      vertex 0.224485 0.523958 0
      vertex 0.223032 0.522309 0
    endloop
  endfacet
  facet normal 0 0 -1
    outer loop
      vertex 0.179999 0.5 0
      vertex 0.226041 0.525514 0
      vertex 0.224485 0.523958 0
    endloop
  endfacet
  facet normal 0 0 -1
    outer loop
      vertex 0.179999 0.5 0
      vertex 0.22769 0.526967 0
      vertex 0.226041 0.525514 0
    endloop
  endfacet
  facet normal 0 0 -1
    outer loop
      vertex 0 0.75 0
      vertex 0.22769 0.526967 0
      vertex 0.179999 0.5 0
    endloop
  endfacet
  facet normal 0 0 -1
    outer loop
      vertex 0 0.75 0
      vertex 0.179999 0.5 0
      vertex 0 0.5 0
    endloop
  endfacet
  facet normal 0 0 -1
    outer loop
      vertex 0.25 0.535 0
      vertex 0 0.75 0
      vertex 0.5 0.75 0
    endloop
  endfacet
  facet normal -0 0 1
    outer loop
      vertex 0 0.75 0.233399
      vertex 0.5 0.25 0.233399
      vertex 0.5 0.75 0.233399
    endloop
  endfacet
  facet normal 0 0 1
    outer loop
      vertex 0.5 0.25 0.233399
      vertex 0 0.75 0.233399
      vertex 0 0.25 0.233399
    endloop
  endfacet
  facet normal -1 0 0
    outer loop
      vertex 0 0.24922 0.333164
      vertex 0 0.500038 0.335264
      vertex 0 0.500038 0.333164
    endloop
  endfacet
  facet normal -1 -0 0
    outer loop
      vertex 0 0.500038 0.335264
      vertex 0 0.24922 0.333164
      vertex 0 0.24922 0.335264
    endloop
  endfacet
  facet normal -0 0 1
    outer loop
      vertex 0 0.500038 0.335264
      vertex 0.5 0.24922 0.335264
      vertex 0.5 0.500038 0.335264
    endloop
  endfacet
  facet normal 0 0 1
    outer loop
      vertex 0.5 0.24922 0.335264
      vertex 0 0.500038 0.335264
      vertex 0 0.24922 0.335264
    endloop
  endfacet
  facet normal 1 -0 0
    outer loop
      vertex 0.5 0.24922 0.335264
      vertex 0.5 0.500038 0.333164
      vertex 0.5 0.500038 0.335264
    endloop
  endfacet
  facet normal 1 0 0
    outer loop
      vertex 0.5 0.500038 0.333164
      vertex 0.5 0.24922 0.335264
      vertex 0.5 0.24922 0.333164
    endloop
  endfacet
  facet normal 0 1 -0
    outer loop
      vertex 0.5 0.500038 0.333164
      vertex 0 0.500038 0.335264
      vertex 0.5 0.500038 0.335264
    endloop
  endfacet
  facet normal 0 1 0
    outer loop
      vertex 0 0.500038 0.335264
      vertex 0.5 0.500038 0.333164
      vertex 0 0.500038 0.333164
    endloop
  endfacet
  facet normal 0 0 -1
    outer loop
      vertex 0 0.24922 0.333164
      vertex 0.5 0.500038 0.333164
      vertex 0.5 0.24922 0.333164
    endloop
  endfacet
  facet normal -0 0 -1
    outer loop
      vertex 0.5 0.500038 0.333164
      vertex 0 0.24922 0.333164
      vertex 0 0.500038 0.333164
    endloop
  endfacet
  facet normal 0 -1 0
    outer loop
      vertex 0 0.24922 0.333164
      vertex 0.5 0.24922 0.335264
      vertex 0 0.24922 0.335264
    endloop
  endfacet
  facet normal 0 -1 -0
    outer loop
      vertex 0.5 0.24922 0.335264
      vertex 0 0.24922 0.333164
      vertex 0.5 0.24922 0.333164
    endloop
  endfacet
  facet normal -0.999493 -0.0318455 0
    outer loop
      vertex 0.285 0.5 0
      vertex 0.28493 0.502197 0.125033
      vertex 0.28493 0.502197 0
    endloop
  endfacet
  facet normal -0.999493 -0.0318455 0
    outer loop
      vertex 0.28493 0.502197 0.125033
      vertex 0.285 0.5 0
      vertex 0.285 0.5 0.125033
    endloop
  endfacet
  facet normal 0.031831 -0.999493 0
    outer loop
      vertex 0.247802 0.53493 0
      vertex 0.25 0.535 0.125033
      vertex 0.247802 0.53493 0.125033
    endloop
  endfacet
  facet normal 0.031831 -0.999493 0
    outer loop
      vertex 0.25 0.535 0.125033
      vertex 0.247802 0.53493 0
      vertex 0.25 0.535 0
    endloop
  endfacet
  facet normal -0.0318455 0.999493 0
    outer loop
      vertex 0.252197 0.465069 0
      vertex 0.25 0.464999 0.125033
      vertex 0.252197 0.465069 0.125033
    endloop
  endfacet
  facet normal -0.0318455 0.999493 0
    outer loop
      vertex 0.25 0.464999 0.125033
      vertex 0.252197 0.465069 0
      vertex 0.25 0.464999 0
    endloop
  endfacet
  facet normal -0.707107 -0.707107 0
    outer loop
      vertex 0.275514 0.523958 0
      vertex 0.273958 0.525514 0.125033
      vertex 0.273958 0.525514 0
    endloop
  endfacet
  facet normal -0.707107 -0.707107 0
    outer loop
      vertex 0.273958 0.525514 0.125033
      vertex 0.275514 0.523958 0
      vertex 0.275514 0.523958 0.125033
    endloop
  endfacet
  facet normal 0.707107 -0.707107 0
    outer loop
      vertex 0.224485 0.523958 0.125033
      vertex 0.226041 0.525514 0
      vertex 0.226041 0.525514 0.125033
    endloop
  endfacet
  facet normal 0.707107 -0.707107 0
    outer loop
      vertex 0.226041 0.525514 0
      vertex 0.224485 0.523958 0.125033
      vertex 0.224485 0.523958 0
    endloop
  endfacet
  facet normal 0.396663 -0.917964 0
    outer loop
      vertex 0.235097 0.531669 0
      vertex 0.237115 0.532541 0.125033
      vertex 0.235097 0.531669 0.125033
    endloop
  endfacet
  facet normal 0.396663 -0.917964 0
    outer loop
      vertex 0.237115 0.532541 0.125033
      vertex 0.235097 0.531669 0
      vertex 0.237115 0.532541 0
    endloop
  endfacet
  facet normal -0.917964 -0.396663 0
    outer loop
      vertex 0.282541 0.512884 0
      vertex 0.281669 0.514902 0.125033
      vertex 0.281669 0.514902 0
    endloop
  endfacet
  facet normal -0.917964 -0.396663 0
    outer loop
      vertex 0.281669 0.514902 0.125033
      vertex 0.282541 0.512884 0
      vertex 0.282541 0.512884 0.125033
    endloop
  endfacet
  facet normal -0.396663 -0.917964 0
    outer loop
      vertex 0.262884 0.532541 0
      vertex 0.264902 0.531669 0.125033
      vertex 0.262884 0.532541 0.125033
    endloop
  endfacet
  facet normal -0.396663 -0.917964 -0
    outer loop
      vertex 0.264902 0.531669 0.125033
      vertex 0.262884 0.532541 0
      vertex 0.264902 0.531669 0
    endloop
  endfacet
  facet normal -0.561713 -0.827332 0
    outer loop
      vertex 0.268753 0.529551 0
      vertex 0.270572 0.528316 0.125033
      vertex 0.268753 0.529551 0.125033
    endloop
  endfacet
  facet normal -0.561713 -0.827332 -0
    outer loop
      vertex 0.270572 0.528316 0.125033
      vertex 0.268753 0.529551 0
      vertex 0.270572 0.528316 0
    endloop
  endfacet
  facet normal 0.860727 -0.509066 0
    outer loop
      vertex 0.219329 0.516861 0.125033
      vertex 0.220448 0.518753 0
      vertex 0.220448 0.518753 0.125033
    endloop
  endfacet
  facet normal 0.860727 -0.509066 0
    outer loop
      vertex 0.220448 0.518753 0
      vertex 0.219329 0.516861 0.125033
      vertex 0.219329 0.516861 0
    endloop
  endfacet
  facet normal 0.827121 -0.562024 0
    outer loop
      vertex 0.220448 0.518753 0.125033
      vertex 0.221684 0.520572 0
      vertex 0.221684 0.520572 0.125033
    endloop
  endfacet
  facet normal 0.827121 -0.562024 0
    outer loop
      vertex 0.221684 0.520572 0
      vertex 0.220448 0.518753 0.125033
      vertex 0.220448 0.518753 0
    endloop
  endfacet
  facet normal 0.218278 -0.975887 0
    outer loop
      vertex 0.241296 0.5339 0
      vertex 0.243442 0.53438 0.125033
      vertex 0.241296 0.5339 0.125033
    endloop
  endfacet
  facet normal 0.218278 -0.975887 0
    outer loop
      vertex 0.243442 0.53438 0.125033
      vertex 0.241296 0.5339 0
      vertex 0.243442 0.53438 0
    endloop
  endfacet
  facet normal -0.975887 -0.218278 0
    outer loop
      vertex 0.28438 0.506557 0
      vertex 0.2839 0.508703 0.125033
      vertex 0.2839 0.508703 0
    endloop
  endfacet
  facet normal -0.975887 -0.218278 0
    outer loop
      vertex 0.2839 0.508703 0.125033
      vertex 0.28438 0.506557 0
      vertex 0.28438 0.506557 0.125033
    endloop
  endfacet
  facet normal -0.860727 -0.509066 0
    outer loop
      vertex 0.28067 0.516861 0
      vertex 0.279551 0.518753 0.125033
      vertex 0.279551 0.518753 0
    endloop
  endfacet
  facet normal -0.860727 -0.509066 0
    outer loop
      vertex 0.279551 0.518753 0.125033
      vertex 0.28067 0.516861 0
      vertex 0.28067 0.516861 0.125033
    endloop
  endfacet
  facet normal -0.218278 -0.975887 0
    outer loop
      vertex 0.256557 0.53438 0
      vertex 0.258703 0.5339 0.125033
      vertex 0.256557 0.53438 0.125033
    endloop
  endfacet
  facet normal -0.218278 -0.975887 -0
    outer loop
      vertex 0.258703 0.5339 0.125033
      vertex 0.256557 0.53438 0
      vertex 0.258703 0.5339 0
    endloop
  endfacet
  facet normal -0.613374 -0.789793 0
    outer loop
      vertex 0.270572 0.528316 0
      vertex 0.272309 0.526967 0.125033
      vertex 0.270572 0.528316 0.125033
    endloop
  endfacet
  facet normal -0.613374 -0.789793 -0
    outer loop
      vertex 0.272309 0.526967 0.125033
      vertex 0.270572 0.528316 0
      vertex 0.272309 0.526967 0
    endloop
  endfacet
  facet normal 0.975887 -0.218278 0
    outer loop
      vertex 0.215619 0.506557 0.125033
      vertex 0.216099 0.508703 0
      vertex 0.216099 0.508703 0.125033
    endloop
  endfacet
  facet normal 0.975887 -0.218278 0
    outer loop
      vertex 0.216099 0.508703 0
      vertex 0.215619 0.506557 0.125033
      vertex 0.215619 0.506557 0
    endloop
  endfacet
  facet normal 0.917964 -0.396663 0
    outer loop
      vertex 0.217458 0.512884 0.125033
      vertex 0.21833 0.514902 0
      vertex 0.21833 0.514902 0.125033
    endloop
  endfacet
  facet normal 0.917964 -0.396663 0
    outer loop
      vertex 0.21833 0.514902 0
      vertex 0.217458 0.512884 0.125033
      vertex 0.217458 0.512884 0
    endloop
  endfacet
  facet normal 0.561713 -0.827332 0
    outer loop
      vertex 0.229427 0.528316 0
      vertex 0.231246 0.529551 0.125033
      vertex 0.229427 0.528316 0.125033
    endloop
  endfacet
  facet normal 0.561713 -0.827332 0
    outer loop
      vertex 0.231246 0.529551 0.125033
      vertex 0.229427 0.528316 0
      vertex 0.231246 0.529551 0
    endloop
  endfacet
  facet normal 0.454294 -0.890852 0
    outer loop
      vertex 0.233138 0.53067 0
      vertex 0.235097 0.531669 0.125033
      vertex 0.233138 0.53067 0.125033
    endloop
  endfacet
  facet normal 0.454294 -0.890852 0
    outer loop
      vertex 0.235097 0.531669 0.125033
      vertex 0.233138 0.53067 0
      vertex 0.235097 0.531669 0
    endloop
  endfacet
  facet normal 0.66111 -0.750289 0
    outer loop
      vertex 0.226041 0.525514 0
      vertex 0.22769 0.526967 0.125033
      vertex 0.226041 0.525514 0.125033
    endloop
  endfacet
  facet normal 0.66111 -0.750289 0
    outer loop
      vertex 0.22769 0.526967 0.125033
      vertex 0.226041 0.525514 0
      vertex 0.22769 0.526967 0
    endloop
  endfacet
  facet normal 0.156056 -0.987748 0
    outer loop
      vertex 0.243442 0.53438 0
      vertex 0.245613 0.534723 0.125033
      vertex 0.243442 0.53438 0.125033
    endloop
  endfacet
  facet normal 0.156056 -0.987748 0
    outer loop
      vertex 0.245613 0.534723 0.125033
      vertex 0.243442 0.53438 0
      vertex 0.245613 0.534723 0
    endloop
  endfacet
  facet normal -0.707107 0.707107 0
    outer loop
      vertex 0.273958 0.474485 0
      vertex 0.275514 0.476041 0.125033
      vertex 0.275514 0.476041 0
    endloop
  endfacet
  facet normal -0.707107 0.707107 0
    outer loop
      vertex 0.275514 0.476041 0.125033
      vertex 0.273958 0.474485 0
      vertex 0.273958 0.474485 0.125033
    endloop
  endfacet
  facet normal 0.790013 0.61309 0
    outer loop
      vertex 0.223032 0.47769 0.125033
      vertex 0.221684 0.479427 0
      vertex 0.221684 0.479427 0.125033
    endloop
  endfacet
  facet normal 0.790013 0.61309 0
    outer loop
      vertex 0.221684 0.479427 0
      vertex 0.223032 0.47769 0.125033
      vertex 0.223032 0.47769 0
    endloop
  endfacet
  facet normal -0.338784 0.940864 0
    outer loop
      vertex 0.262884 0.467458 0
      vertex 0.260815 0.466713 0.125033
      vertex 0.262884 0.467458 0.125033
    endloop
  endfacet
  facet normal -0.338784 0.940864 0
    outer loop
      vertex 0.260815 0.466713 0.125033
      vertex 0.262884 0.467458 0
      vertex 0.260815 0.466713 0
    endloop
  endfacet
  facet normal -0.987748 -0.156056 0
    outer loop
      vertex 0.284723 0.504386 0
      vertex 0.28438 0.506557 0.125033
      vertex 0.28438 0.506557 0
    endloop
  endfacet
  facet normal -0.987748 -0.156056 0
    outer loop
      vertex 0.28438 0.506557 0.125033
      vertex 0.284723 0.504386 0
      vertex 0.284723 0.504386 0.125033
    endloop
  endfacet
  facet normal -0.995559 -0.0941437 0
    outer loop
      vertex 0.28493 0.502197 0
      vertex 0.284723 0.504386 0.125033
      vertex 0.284723 0.504386 0
    endloop
  endfacet
  facet normal -0.995559 -0.0941437 0
    outer loop
      vertex 0.284723 0.504386 0.125033
      vertex 0.28493 0.502197 0
      vertex 0.28493 0.502197 0.125033
    endloop
  endfacet
  facet normal -0.960244 -0.279162 0
    outer loop
      vertex 0.2839 0.508703 0
      vertex 0.283286 0.510815 0.125033
      vertex 0.283286 0.510815 0
    endloop
  endfacet
  facet normal -0.960244 -0.279162 0
    outer loop
      vertex 0.283286 0.510815 0.125033
      vertex 0.2839 0.508703 0
      vertex 0.2839 0.508703 0.125033
    endloop
  endfacet
  facet normal -0.940864 -0.338784 0
    outer loop
      vertex 0.283286 0.510815 0
      vertex 0.282541 0.512884 0.125033
      vertex 0.282541 0.512884 0
    endloop
  endfacet
  facet normal -0.940864 -0.338784 0
    outer loop
      vertex 0.282541 0.512884 0.125033
      vertex 0.283286 0.510815 0
      vertex 0.283286 0.510815 0.125033
    endloop
  endfacet
  facet normal -0.750289 -0.66111 0
    outer loop
      vertex 0.276967 0.522309 0
      vertex 0.275514 0.523958 0.125033
      vertex 0.275514 0.523958 0
    endloop
  endfacet
  facet normal -0.750289 -0.66111 0
    outer loop
      vertex 0.275514 0.523958 0.125033
      vertex 0.276967 0.522309 0
      vertex 0.276967 0.522309 0.125033
    endloop
  endfacet
  facet normal -0.827332 -0.561713 0
    outer loop
      vertex 0.279551 0.518753 0
      vertex 0.278316 0.520572 0.125033
      vertex 0.278316 0.520572 0
    endloop
  endfacet
  facet normal -0.827332 -0.561713 0
    outer loop
      vertex 0.278316 0.520572 0.125033
      vertex 0.279551 0.518753 0
      vertex 0.279551 0.518753 0.125033
    endloop
  endfacet
  facet normal -0.890852 -0.454294 0
    outer loop
      vertex 0.281669 0.514902 0
      vertex 0.28067 0.516861 0.125033
      vertex 0.28067 0.516861 0
    endloop
  endfacet
  facet normal -0.890852 -0.454294 0
    outer loop
      vertex 0.28067 0.516861 0.125033
      vertex 0.281669 0.514902 0
      vertex 0.281669 0.514902 0.125033
    endloop
  endfacet
  facet normal -0.0941437 -0.995559 0
    outer loop
      vertex 0.252197 0.53493 0
      vertex 0.254386 0.534723 0.125033
      vertex 0.252197 0.53493 0.125033
    endloop
  endfacet
  facet normal -0.0941437 -0.995559 -0
    outer loop
      vertex 0.254386 0.534723 0.125033
      vertex 0.252197 0.53493 0
      vertex 0.254386 0.534723 0
    endloop
  endfacet
  facet normal -0.338784 -0.940864 0
    outer loop
      vertex 0.260815 0.533286 0
      vertex 0.262884 0.532541 0.125033
      vertex 0.260815 0.533286 0.125033
    endloop
  endfacet
  facet normal -0.338784 -0.940864 -0
    outer loop
      vertex 0.262884 0.532541 0.125033
      vertex 0.260815 0.533286 0
      vertex 0.262884 0.532541 0
    endloop
  endfacet
  facet normal -0.279162 -0.960244 0
    outer loop
      vertex 0.258703 0.5339 0
      vertex 0.260815 0.533286 0.125033
      vertex 0.258703 0.5339 0.125033
    endloop
  endfacet
  facet normal -0.279162 -0.960244 -0
    outer loop
      vertex 0.260815 0.533286 0.125033
      vertex 0.258703 0.5339 0
      vertex 0.260815 0.533286 0
    endloop
  endfacet
  facet normal -0.156056 -0.987748 0
    outer loop
      vertex 0.254386 0.534723 0
      vertex 0.256557 0.53438 0.125033
      vertex 0.254386 0.534723 0.125033
    endloop
  endfacet
  facet normal -0.156056 -0.987748 -0
    outer loop
      vertex 0.256557 0.53438 0.125033
      vertex 0.254386 0.534723 0
      vertex 0.256557 0.53438 0
    endloop
  endfacet
  facet normal -0.0318455 -0.999493 0
    outer loop
      vertex 0.25 0.535 0
      vertex 0.252197 0.53493 0.125033
      vertex 0.25 0.535 0.125033
    endloop
  endfacet
  facet normal -0.0318455 -0.999493 -0
    outer loop
      vertex 0.252197 0.53493 0.125033
      vertex 0.25 0.535 0
      vertex 0.252197 0.53493 0
    endloop
  endfacet
  facet normal -0.509066 -0.860727 0
    outer loop
      vertex 0.266861 0.53067 0
      vertex 0.268753 0.529551 0.125033
      vertex 0.266861 0.53067 0.125033
    endloop
  endfacet
  facet normal -0.509066 -0.860727 -0
    outer loop
      vertex 0.268753 0.529551 0.125033
      vertex 0.266861 0.53067 0
      vertex 0.268753 0.529551 0
    endloop
  endfacet
  facet normal -0.454294 -0.890852 0
    outer loop
      vertex 0.264902 0.531669 0
      vertex 0.266861 0.53067 0.125033
      vertex 0.264902 0.531669 0.125033
    endloop
  endfacet
  facet normal -0.454294 -0.890852 -0
    outer loop
      vertex 0.266861 0.53067 0.125033
      vertex 0.264902 0.531669 0
      vertex 0.266861 0.53067 0
    endloop
  endfacet
  facet normal -0.66111 -0.750289 0
    outer loop
      vertex 0.272309 0.526967 0
      vertex 0.273958 0.525514 0.125033
      vertex 0.272309 0.526967 0.125033
    endloop
  endfacet
  facet normal -0.66111 -0.750289 -0
    outer loop
      vertex 0.273958 0.525514 0.125033
      vertex 0.272309 0.526967 0
      vertex 0.273958 0.525514 0
    endloop
  endfacet
  facet normal 0.995559 -0.0941437 0
    outer loop
      vertex 0.215069 0.502197 0.125033
      vertex 0.215276 0.504386 0
      vertex 0.215276 0.504386 0.125033
    endloop
  endfacet
  facet normal 0.995559 -0.0941437 0
    outer loop
      vertex 0.215276 0.504386 0
      vertex 0.215069 0.502197 0.125033
      vertex 0.215069 0.502197 0
    endloop
  endfacet
  facet normal 0.750289 -0.66111 0
    outer loop
      vertex 0.223032 0.522309 0.125033
      vertex 0.224485 0.523958 0
      vertex 0.224485 0.523958 0.125033
    endloop
  endfacet
  facet normal 0.750289 -0.66111 0
    outer loop
      vertex 0.224485 0.523958 0
      vertex 0.223032 0.522309 0.125033
      vertex 0.223032 0.522309 0
    endloop
  endfacet
  facet normal 0.790013 -0.61309 0
    outer loop
      vertex 0.221684 0.520572 0.125033
      vertex 0.223032 0.522309 0
      vertex 0.223032 0.522309 0.125033
    endloop
  endfacet
  facet normal 0.790013 -0.61309 0
    outer loop
      vertex 0.223032 0.522309 0
      vertex 0.221684 0.520572 0.125033
      vertex 0.221684 0.520572 0
    endloop
  endfacet
  facet normal 0.890852 -0.454294 0
    outer loop
      vertex 0.21833 0.514902 0.125033
      vertex 0.219329 0.516861 0
      vertex 0.219329 0.516861 0.125033
    endloop
  endfacet
  facet normal 0.890852 -0.454294 0
    outer loop
      vertex 0.219329 0.516861 0
      vertex 0.21833 0.514902 0.125033
      vertex 0.21833 0.514902 0
    endloop
  endfacet
  facet normal 0.940864 -0.338784 0
    outer loop
      vertex 0.216713 0.510815 0.125033
      vertex 0.217458 0.512884 0
      vertex 0.217458 0.512884 0.125033
    endloop
  endfacet
  facet normal 0.940864 -0.338784 0
    outer loop
      vertex 0.217458 0.512884 0
      vertex 0.216713 0.510815 0.125033
      vertex 0.216713 0.510815 0
    endloop
  endfacet
  facet normal 0.960244 -0.279162 0
    outer loop
      vertex 0.216099 0.508703 0.125033
      vertex 0.216713 0.510815 0
      vertex 0.216713 0.510815 0.125033
    endloop
  endfacet
  facet normal 0.960244 -0.279162 0
    outer loop
      vertex 0.216713 0.510815 0
      vertex 0.216099 0.508703 0.125033
      vertex 0.216099 0.508703 0
    endloop
  endfacet
  facet normal 0.987748 -0.156056 0
    outer loop
      vertex 0.215276 0.504386 0.125033
      vertex 0.215619 0.506557 0
      vertex 0.215619 0.506557 0.125033
    endloop
  endfacet
  facet normal 0.987748 -0.156056 0
    outer loop
      vertex 0.215619 0.506557 0
      vertex 0.215276 0.504386 0.125033
      vertex 0.215276 0.504386 0
    endloop
  endfacet
  facet normal 0.999493 -0.0318455 0
    outer loop
      vertex 0.214999 0.5 0.125033
      vertex 0.215069 0.502197 0
      vertex 0.215069 0.502197 0.125033
    endloop
  endfacet
  facet normal 0.999493 -0.0318455 0
    outer loop
      vertex 0.215069 0.502197 0
      vertex 0.214999 0.5 0.125033
      vertex 0.214999 0.5 0
    endloop
  endfacet
  facet normal 0 0 -1
    outer loop
      vertex 0.28493 0.497802 0.125033
      vertex 0.28493 0.502197 0.125033
      vertex 0.285 0.5 0.125033
    endloop
  endfacet
  facet normal 0 0 -1
    outer loop
      vertex 0.284723 0.495613 0.125033
      vertex 0.28493 0.502197 0.125033
      vertex 0.28493 0.497802 0.125033
    endloop
  endfacet
  facet normal 0 0 -1
    outer loop
      vertex 0.284723 0.495613 0.125033
      vertex 0.284723 0.504386 0.125033
      vertex 0.28493 0.502197 0.125033
    endloop
  endfacet
  facet normal 0 0 -1
    outer loop
      vertex 0.28438 0.493442 0.125033
      vertex 0.284723 0.504386 0.125033
      vertex 0.284723 0.495613 0.125033
    endloop
  endfacet
  facet normal 0 0 -1
    outer loop
      vertex 0.28438 0.493442 0.125033
      vertex 0.28438 0.506557 0.125033
      vertex 0.284723 0.504386 0.125033
    endloop
  endfacet
  facet normal 0 0 -1
    outer loop
      vertex 0.2839 0.491296 0.125033
      vertex 0.28438 0.506557 0.125033
      vertex 0.28438 0.493442 0.125033
    endloop
  endfacet
  facet normal 0 0 -1
    outer loop
      vertex 0.2839 0.491296 0.125033
      vertex 0.2839 0.508703 0.125033
      vertex 0.28438 0.506557 0.125033
    endloop
  endfacet
  facet normal 0 0 -1
    outer loop
      vertex 0.283286 0.489184 0.125033
      vertex 0.2839 0.508703 0.125033
      vertex 0.2839 0.491296 0.125033
    endloop
  endfacet
  facet normal 0 0 -1
    outer loop
      vertex 0.283286 0.489184 0.125033
      vertex 0.283286 0.510815 0.125033
      vertex 0.2839 0.508703 0.125033
    endloop
  endfacet
  facet normal 0 0 -1
    outer loop
      vertex 0.282541 0.487115 0.125033
      vertex 0.283286 0.510815 0.125033
      vertex 0.283286 0.489184 0.125033
    endloop
  endfacet
  facet normal 0 0 -1
    outer loop
      vertex 0.282541 0.487115 0.125033
      vertex 0.282541 0.512884 0.125033
      vertex 0.283286 0.510815 0.125033
    endloop
  endfacet
  facet normal 0 0 -1
    outer loop
      vertex 0.281669 0.485097 0.125033
      vertex 0.282541 0.512884 0.125033
      vertex 0.282541 0.487115 0.125033
    endloop
  endfacet
  facet normal 0 0 -1
    outer loop
      vertex 0.281669 0.485097 0.125033
      vertex 0.281669 0.514902 0.125033
      vertex 0.282541 0.512884 0.125033
    endloop
  endfacet
  facet normal 0 0 -1
    outer loop
      vertex 0.28067 0.483138 0.125033
      vertex 0.281669 0.514902 0.125033
      vertex 0.281669 0.485097 0.125033
    endloop
  endfacet
  facet normal 0 0 -1
    outer loop
      vertex 0.28067 0.483138 0.125033
      vertex 0.28067 0.516861 0.125033
      vertex 0.281669 0.514902 0.125033
    endloop
  endfacet
  facet normal 0 0 -1
    outer loop
      vertex 0.279551 0.481246 0.125033
      vertex 0.28067 0.516861 0.125033
      vertex 0.28067 0.483138 0.125033
    endloop
  endfacet
  facet normal 0 0 -1
    outer loop
      vertex 0.279551 0.481246 0.125033
      vertex 0.279551 0.518753 0.125033
      vertex 0.28067 0.516861 0.125033
    endloop
  endfacet
  facet normal 0 0 -1
    outer loop
      vertex 0.278316 0.479427 0.125033
      vertex 0.279551 0.518753 0.125033
      vertex 0.279551 0.481246 0.125033
    endloop
  endfacet
  facet normal 0 0 -1
    outer loop
      vertex 0.278316 0.479427 0.125033
      vertex 0.278316 0.520572 0.125033
      vertex 0.279551 0.518753 0.125033
    endloop
  endfacet
  facet normal 0 0 -1
    outer loop
      vertex 0.276967 0.47769 0.125033
      vertex 0.278316 0.520572 0.125033
      vertex 0.278316 0.479427 0.125033
    endloop
  endfacet
  facet normal 0 0 -1
    outer loop
      vertex 0.276967 0.47769 0.125033
      vertex 0.276967 0.522309 0.125033
      vertex 0.278316 0.520572 0.125033
    endloop
  endfacet
  facet normal 0 0 -1
    outer loop
      vertex 0.275514 0.476041 0.125033
      vertex 0.276967 0.522309 0.125033
      vertex 0.276967 0.47769 0.125033
    endloop
  endfacet
  facet normal 0 0 -1
    outer loop
      vertex 0.275514 0.476041 0.125033
      vertex 0.275514 0.523958 0.125033
      vertex 0.276967 0.522309 0.125033
    endloop
  endfacet
  facet normal 0 0 -1
    outer loop
      vertex 0.273958 0.474485 0.125033
      vertex 0.275514 0.523958 0.125033
      vertex 0.275514 0.476041 0.125033
    endloop
  endfacet
  facet normal 0 0 -1
    outer loop
      vertex 0.273958 0.474485 0.125033
      vertex 0.273958 0.525514 0.125033
      vertex 0.275514 0.523958 0.125033
    endloop
  endfacet
  facet normal 0 0 -1
    outer loop
      vertex 0.272309 0.473032 0.125033
      vertex 0.273958 0.525514 0.125033
      vertex 0.273958 0.474485 0.125033
    endloop
  endfacet
  facet normal 0 0 -1
    outer loop
      vertex 0.272309 0.473032 0.125033
      vertex 0.272309 0.526967 0.125033
      vertex 0.273958 0.525514 0.125033
    endloop
  endfacet
  facet normal 0 0 -1
    outer loop
      vertex 0.270572 0.471684 0.125033
      vertex 0.272309 0.526967 0.125033
      vertex 0.272309 0.473032 0.125033
    endloop
  endfacet
  facet normal 0 0 -1
    outer loop
      vertex 0.270572 0.471684 0.125033
      vertex 0.270572 0.528316 0.125033
      vertex 0.272309 0.526967 0.125033
    endloop
  endfacet
  facet normal 0 0 -1
    outer loop
      vertex 0.268753 0.470448 0.125033
      vertex 0.270572 0.528316 0.125033
      vertex 0.270572 0.471684 0.125033
    endloop
  endfacet
  facet normal 0 0 -1
    outer loop
      vertex 0.268753 0.470448 0.125033
      vertex 0.268753 0.529551 0.125033
      vertex 0.270572 0.528316 0.125033
    endloop
  endfacet
  facet normal 0 0 -1
    outer loop
      vertex 0.266861 0.469329 0.125033
      vertex 0.268753 0.529551 0.125033
      vertex 0.268753 0.470448 0.125033
    endloop
  endfacet
  facet normal 0 0 -1
    outer loop
      vertex 0.266861 0.469329 0.125033
      vertex 0.266861 0.53067 0.125033
      vertex 0.268753 0.529551 0.125033
    endloop
  endfacet
  facet normal 0 0 -1
    outer loop
      vertex 0.264902 0.46833 0.125033
      vertex 0.266861 0.53067 0.125033
      vertex 0.266861 0.469329 0.125033
    endloop
  endfacet
  facet normal 0 0 -1
    outer loop
      vertex 0.264902 0.46833 0.125033
      vertex 0.264902 0.531669 0.125033
      vertex 0.266861 0.53067 0.125033
    endloop
  endfacet
  facet normal 0 0 -1
    outer loop
      vertex 0.262884 0.467458 0.125033
      vertex 0.264902 0.531669 0.125033
      vertex 0.264902 0.46833 0.125033
    endloop
  endfacet
  facet normal 0 0 -1
    outer loop
      vertex 0.262884 0.467458 0.125033
      vertex 0.262884 0.532541 0.125033
      vertex 0.264902 0.531669 0.125033
    endloop
  endfacet
  facet normal 0 0 -1
    outer loop
      vertex 0.260815 0.466713 0.125033
      vertex 0.262884 0.532541 0.125033
      vertex 0.262884 0.467458 0.125033
    endloop
  endfacet
  facet normal 0 0 -1
    outer loop
      vertex 0.260815 0.466713 0.125033
      vertex 0.260815 0.533286 0.125033
      vertex 0.262884 0.532541 0.125033
    endloop
  endfacet
  facet normal 0 0 -1
    outer loop
      vertex 0.258703 0.466099 0.125033
      vertex 0.260815 0.533286 0.125033
      vertex 0.260815 0.466713 0.125033
    endloop
  endfacet
  facet normal 0 0 -1
    outer loop
      vertex 0.258703 0.466099 0.125033
      vertex 0.258703 0.5339 0.125033
      vertex 0.260815 0.533286 0.125033
    endloop
  endfacet
  facet normal 0 0 -1
    outer loop
      vertex 0.256557 0.465619 0.125033
      vertex 0.258703 0.5339 0.125033
      vertex 0.258703 0.466099 0.125033
    endloop
  endfacet
  facet normal 0 0 -1
    outer loop
      vertex 0.256557 0.465619 0.125033
      vertex 0.256557 0.53438 0.125033
      vertex 0.258703 0.5339 0.125033
    endloop
  endfacet
  facet normal 0 0 -1
    outer loop
      vertex 0.254386 0.465276 0.125033
      vertex 0.256557 0.53438 0.125033
      vertex 0.256557 0.465619 0.125033
    endloop
  endfacet
  facet normal 0 0 -1
    outer loop
      vertex 0.254386 0.465276 0.125033
      vertex 0.254386 0.534723 0.125033
      vertex 0.256557 0.53438 0.125033
    endloop
  endfacet
  facet normal 0 0 -1
    outer loop
      vertex 0.252197 0.465069 0.125033
      vertex 0.254386 0.534723 0.125033
      vertex 0.254386 0.465276 0.125033
    endloop
  endfacet
  facet normal 0 0 -1
    outer loop
      vertex 0.252197 0.465069 0.125033
      vertex 0.252197 0.53493 0.125033
      vertex 0.254386 0.534723 0.125033
    endloop
  endfacet
  facet normal 0 0 -1
    outer loop
      vertex 0.25 0.464999 0.125033
      vertex 0.252197 0.53493 0.125033
      vertex 0.252197 0.465069 0.125033
    endloop
  endfacet
  facet normal 0 0 -1
    outer loop
      vertex 0.25 0.464999 0.125033
      vertex 0.25 0.535 0.125033
      vertex 0.252197 0.53493 0.125033
    endloop
  endfacet
  facet normal 0 0 -1
    outer loop
      vertex 0.247802 0.465069 0.125033
      vertex 0.25 0.535 0.125033
      vertex 0.25 0.464999 0.125033
    endloop
  endfacet
  facet normal 0 0 -1
    outer loop
      vertex 0.247802 0.465069 0.125033
      vertex 0.247802 0.53493 0.125033
      vertex 0.25 0.535 0.125033
    endloop
  endfacet
  facet normal 0 0 -1
    outer loop
      vertex 0.245613 0.465276 0.125033
      vertex 0.247802 0.53493 0.125033
      vertex 0.247802 0.465069 0.125033
    endloop
  endfacet
  facet normal 0 0 -1
    outer loop
      vertex 0.245613 0.465276 0.125033
      vertex 0.245613 0.534723 0.125033
      vertex 0.247802 0.53493 0.125033
    endloop
  endfacet
  facet normal 0 0 -1
    outer loop
      vertex 0.243442 0.465619 0.125033
      vertex 0.245613 0.534723 0.125033
      vertex 0.245613 0.465276 0.125033
    endloop
  endfacet
  facet normal 0 0 -1
    outer loop
      vertex 0.243442 0.465619 0.125033
      vertex 0.243442 0.53438 0.125033
      vertex 0.245613 0.534723 0.125033
    endloop
  endfacet
  facet normal 0 0 -1
    outer loop
      vertex 0.241296 0.466099 0.125033
      vertex 0.243442 0.53438 0.125033
      vertex 0.243442 0.465619 0.125033
    endloop
  endfacet
  facet normal 0 0 -1
    outer loop
      vertex 0.241296 0.466099 0.125033
      vertex 0.241296 0.5339 0.125033
      vertex 0.243442 0.53438 0.125033
    endloop
  endfacet
  facet normal 0 0 -1
    outer loop
      vertex 0.239184 0.466713 0.125033
      vertex 0.241296 0.5339 0.125033
      vertex 0.241296 0.466099 0.125033
    endloop
  endfacet
  facet normal 0 0 -1
    outer loop
      vertex 0.239184 0.466713 0.125033
      vertex 0.239184 0.533286 0.125033
      vertex 0.241296 0.5339 0.125033
    endloop
  endfacet
  facet normal 0 0 -1
    outer loop
      vertex 0.237115 0.467458 0.125033
      vertex 0.239184 0.533286 0.125033
      vertex 0.239184 0.466713 0.125033
    endloop
  endfacet
  facet normal 0 0 -1
    outer loop
      vertex 0.237115 0.467458 0.125033
      vertex 0.237115 0.532541 0.125033
      vertex 0.239184 0.533286 0.125033
    endloop
  endfacet
  facet normal 0 0 -1
    outer loop
      vertex 0.235097 0.46833 0.125033
      vertex 0.237115 0.532541 0.125033
      vertex 0.237115 0.467458 0.125033
    endloop
  endfacet
  facet normal 0 0 -1
    outer loop
      vertex 0.235097 0.46833 0.125033
      vertex 0.235097 0.531669 0.125033
      vertex 0.237115 0.532541 0.125033
    endloop
  endfacet
  facet normal 0 0 -1
    outer loop
      vertex 0.233138 0.469329 0.125033
      vertex 0.235097 0.531669 0.125033
      vertex 0.235097 0.46833 0.125033
    endloop
  endfacet
  facet normal 0 0 -1
    outer loop
      vertex 0.233138 0.469329 0.125033
      vertex 0.233138 0.53067 0.125033
      vertex 0.235097 0.531669 0.125033
    endloop
  endfacet
  facet normal 0 0 -1
    outer loop
      vertex 0.231246 0.470448 0.125033
      vertex 0.233138 0.53067 0.125033
      vertex 0.233138 0.469329 0.125033
    endloop
  endfacet
  facet normal 0 0 -1
    outer loop
      vertex 0.231246 0.470448 0.125033
      vertex 0.231246 0.529551 0.125033
      vertex 0.233138 0.53067 0.125033
    endloop
  endfacet
  facet normal 0 0 -1
    outer loop
      vertex 0.229427 0.471684 0.125033
      vertex 0.231246 0.529551 0.125033
      vertex 0.231246 0.470448 0.125033
    endloop
  endfacet
  facet normal 0 0 -1
    outer loop
      vertex 0.229427 0.471684 0.125033
      vertex 0.229427 0.528316 0.125033
      vertex 0.231246 0.529551 0.125033
    endloop
  endfacet
  facet normal 0 0 -1
    outer loop
      vertex 0.22769 0.473032 0.125033
      vertex 0.229427 0.528316 0.125033
      vertex 0.229427 0.471684 0.125033
    endloop
  endfacet
  facet normal 0 0 -1
    outer loop
      vertex 0.22769 0.473032 0.125033
      vertex 0.22769 0.526967 0.125033
      vertex 0.229427 0.528316 0.125033
    endloop
  endfacet
  facet normal 0 0 -1
    outer loop
      vertex 0.226041 0.474485 0.125033
      vertex 0.22769 0.526967 0.125033
      vertex 0.22769 0.473032 0.125033
    endloop
  endfacet
  facet normal 0 0 -1
    outer loop
      vertex 0.226041 0.474485 0.125033
      vertex 0.226041 0.525514 0.125033
      vertex 0.22769 0.526967 0.125033
    endloop
  endfacet
  facet normal 0 0 -1
    outer loop
      vertex 0.224485 0.476041 0.125033
      vertex 0.226041 0.525514 0.125033
      vertex 0.226041 0.474485 0.125033
    endloop
  endfacet
  facet normal 0 0 -1
    outer loop
      vertex 0.224485 0.476041 0.125033
      vertex 0.224485 0.523958 0.125033
      vertex 0.226041 0.525514 0.125033
    endloop
  endfacet
  facet normal 0 0 -1
    outer loop
      vertex 0.223032 0.47769 0.125033
      vertex 0.224485 0.523958 0.125033
      vertex 0.224485 0.476041 0.125033
    endloop
  endfacet
  facet normal 0 0 -1
    outer loop
      vertex 0.223032 0.47769 0.125033
      vertex 0.223032 0.522309 0.125033
      vertex 0.224485 0.523958 0.125033
    endloop
  endfacet
  facet normal 0 0 -1
    outer loop
      vertex 0.221684 0.479427 0.125033
      vertex 0.223032 0.522309 0.125033
      vertex 0.223032 0.47769 0.125033
    endloop
  endfacet
  facet normal 0 0 -1
    outer loop
      vertex 0.221684 0.479427 0.125033
      vertex 0.221684 0.520572 0.125033
      vertex 0.223032 0.522309 0.125033
    endloop
  endfacet
  facet normal 0 0 -1
    outer loop
      vertex 0.220448 0.481246 0.125033
      vertex 0.221684 0.520572 0.125033
      vertex 0.221684 0.479427 0.125033
    endloop
  endfacet
  facet normal 0 0 -1
    outer loop
      vertex 0.220448 0.481246 0.125033
      vertex 0.220448 0.518753 0.125033
      vertex 0.221684 0.520572 0.125033
    endloop
  endfacet
  facet normal 0 0 -1
    outer loop
      vertex 0.219329 0.483138 0.125033
      vertex 0.220448 0.518753 0.125033
      vertex 0.220448 0.481246 0.125033
    endloop
  endfacet
  facet normal 0 0 -1
    outer loop
      vertex 0.219329 0.483138 0.125033
      vertex 0.219329 0.516861 0.125033
      vertex 0.220448 0.518753 0.125033
    endloop
  endfacet
  facet normal 0 0 -1
    outer loop
      vertex 0.21833 0.485097 0.125033
      vertex 0.219329 0.516861 0.125033
      vertex 0.219329 0.483138 0.125033
    endloop
  endfacet
  facet normal 0 0 -1
    outer loop
      vertex 0.21833 0.485097 0.125033
      vertex 0.21833 0.514902 0.125033
      vertex 0.219329 0.516861 0.125033
    endloop
  endfacet
  facet normal 0 0 -1
    outer loop
      vertex 0.217458 0.487115 0.125033
      vertex 0.21833 0.514902 0.125033
      vertex 0.21833 0.485097 0.125033
    endloop
  endfacet
  facet normal 0 0 -1
    outer loop
      vertex 0.217458 0.487115 0.125033
      vertex 0.217458 0.512884 0.125033
      vertex 0.21833 0.514902 0.125033
    endloop
  endfacet
  facet normal 0 0 -1
    outer loop
      vertex 0.216713 0.489184 0.125033
      vertex 0.217458 0.512884 0.125033
      vertex 0.217458 0.487115 0.125033
    endloop
  endfacet
  facet normal 0 0 -1
    outer loop
      vertex 0.216713 0.489184 0.125033
      vertex 0.216713 0.510815 0.125033
      vertex 0.217458 0.512884 0.125033
    endloop
  endfacet
  facet normal 0 0 -1
    outer loop
      vertex 0.216099 0.491296 0.125033
      vertex 0.216713 0.510815 0.125033
      vertex 0.216713 0.489184 0.125033
    endloop
  endfacet
  facet normal 0 0 -1
    outer loop
      vertex 0.216099 0.491296 0.125033
      vertex 0.216099 0.508703 0.125033
      vertex 0.216713 0.510815 0.125033
    endloop
  endfacet
  facet normal 0 0 -1
    outer loop
      vertex 0.215619 0.493442 0.125033
      vertex 0.216099 0.508703 0.125033
      vertex 0.216099 0.491296 0.125033
    endloop
  endfacet
  facet normal 0 0 -1
    outer loop
      vertex 0.215619 0.493442 0.125033
      vertex 0.215619 0.506557 0.125033
      vertex 0.216099 0.508703 0.125033
    endloop
  endfacet
  facet normal 0 0 -1
    outer loop
      vertex 0.215276 0.495613 0.125033
      vertex 0.215619 0.506557 0.125033
      vertex 0.215619 0.493442 0.125033
    endloop
  endfacet
  facet normal 0 0 -1
    outer loop
      vertex 0.215276 0.495613 0.125033
      vertex 0.215276 0.504386 0.125033
      vertex 0.215619 0.506557 0.125033
    endloop
  endfacet
  facet normal 0 0 -1
    outer loop
      vertex 0.215069 0.497802 0.125033
      vertex 0.215276 0.504386 0.125033
      vertex 0.215276 0.495613 0.125033
    endloop
  endfacet
  facet normal 0 0 -1
    outer loop
      vertex 0.215069 0.497802 0.125033
      vertex 0.215069 0.502197 0.125033
      vertex 0.215276 0.504386 0.125033
    endloop
  endfacet
  facet normal 0 -0 -1
    outer loop
      vertex 0.215069 0.502197 0.125033
      vertex 0.215069 0.497802 0.125033
      vertex 0.214999 0.5 0.125033
    endloop
  endfacet
  facet normal 0.509066 -0.860727 0
    outer loop
      vertex 0.231246 0.529551 0
      vertex 0.233138 0.53067 0.125033
      vertex 0.231246 0.529551 0.125033
    endloop
  endfacet
  facet normal 0.509066 -0.860727 0
    outer loop
      vertex 0.233138 0.53067 0.125033
      vertex 0.231246 0.529551 0
      vertex 0.233138 0.53067 0
    endloop
  endfacet
  facet normal 0.613374 -0.789793 0
    outer loop
      vertex 0.22769 0.526967 0
      vertex 0.229427 0.528316 0.125033
      vertex 0.22769 0.526967 0.125033
    endloop
  endfacet
  facet normal 0.613374 -0.789793 0
    outer loop
      vertex 0.229427 0.528316 0.125033
      vertex 0.22769 0.526967 0
      vertex 0.229427 0.528316 0
    endloop
  endfacet
  facet normal 0.279162 -0.960244 0
    outer loop
      vertex 0.239184 0.533286 0
      vertex 0.241296 0.5339 0.125033
      vertex 0.239184 0.533286 0.125033
    endloop
  endfacet
  facet normal 0.279162 -0.960244 0
    outer loop
      vertex 0.241296 0.5339 0.125033
      vertex 0.239184 0.533286 0
      vertex 0.241296 0.5339 0
    endloop
  endfacet
  facet normal 0.338784 -0.940864 0
    outer loop
      vertex 0.237115 0.532541 0
      vertex 0.239184 0.533286 0.125033
      vertex 0.237115 0.532541 0.125033
    endloop
  endfacet
  facet normal 0.338784 -0.940864 0
    outer loop
      vertex 0.239184 0.533286 0.125033
      vertex 0.237115 0.532541 0
      vertex 0.239184 0.533286 0
    endloop
  endfacet
  facet normal 0.0941437 -0.995559 0
    outer loop
      vertex 0.245613 0.534723 0
      vertex 0.247802 0.53493 0.125033
      vertex 0.245613 0.534723 0.125033
    endloop
  endfacet
  facet normal 0.0941437 -0.995559 0
    outer loop
      vertex 0.247802 0.53493 0.125033
      vertex 0.245613 0.534723 0
      vertex 0.247802 0.53493 0
    endloop
  endfacet
  facet normal -0.999493 0.031831 0
    outer loop
      vertex 0.28493 0.497802 0
      vertex 0.285 0.5 0.125033
      vertex 0.285 0.5 0
    endloop
  endfacet
  facet normal -0.999493 0.031831 0
    outer loop
      vertex 0.285 0.5 0.125033
      vertex 0.28493 0.497802 0
      vertex 0.28493 0.497802 0.125033
    endloop
  endfacet
  facet normal -0.750289 0.66111 0
    outer loop
      vertex 0.275514 0.476041 0
      vertex 0.276967 0.47769 0.125033
      vertex 0.276967 0.47769 0
    endloop
  endfacet
  facet normal -0.750289 0.66111 0
    outer loop
      vertex 0.276967 0.47769 0.125033
      vertex 0.275514 0.476041 0
      vertex 0.275514 0.476041 0.125033
    endloop
  endfacet
  facet normal -0.454294 0.890852 0
    outer loop
      vertex 0.266861 0.469329 0
      vertex 0.264902 0.46833 0.125033
      vertex 0.266861 0.469329 0.125033
    endloop
  endfacet
  facet normal -0.454294 0.890852 0
    outer loop
      vertex 0.264902 0.46833 0.125033
      vertex 0.266861 0.469329 0
      vertex 0.264902 0.46833 0
    endloop
  endfacet
  facet normal -0.975887 0.218278 0
    outer loop
      vertex 0.2839 0.491296 0
      vertex 0.28438 0.493442 0.125033
      vertex 0.28438 0.493442 0
    endloop
  endfacet
  facet normal -0.975887 0.218278 0
    outer loop
      vertex 0.28438 0.493442 0.125033
      vertex 0.2839 0.491296 0
      vertex 0.2839 0.491296 0.125033
    endloop
  endfacet
  facet normal 0.66111 0.750289 -0
    outer loop
      vertex 0.22769 0.473032 0
      vertex 0.226041 0.474485 0.125033
      vertex 0.22769 0.473032 0.125033
    endloop
  endfacet
  facet normal 0.66111 0.750289 0
    outer loop
      vertex 0.226041 0.474485 0.125033
      vertex 0.22769 0.473032 0
      vertex 0.226041 0.474485 0
    endloop
  endfacet
  facet normal 0.707107 0.707107 0
    outer loop
      vertex 0.226041 0.474485 0.125033
      vertex 0.224485 0.476041 0
      vertex 0.224485 0.476041 0.125033
    endloop
  endfacet
  facet normal 0.707107 0.707107 0
    outer loop
      vertex 0.224485 0.476041 0
      vertex 0.226041 0.474485 0.125033
      vertex 0.226041 0.474485 0
    endloop
  endfacet
  facet normal 0.890852 0.454294 0
    outer loop
      vertex 0.219329 0.483138 0.125033
      vertex 0.21833 0.485097 0
      vertex 0.21833 0.485097 0.125033
    endloop
  endfacet
  facet normal 0.890852 0.454294 0
    outer loop
      vertex 0.21833 0.485097 0
      vertex 0.219329 0.483138 0.125033
      vertex 0.219329 0.483138 0
    endloop
  endfacet
  facet normal 0.960244 0.279162 0
    outer loop
      vertex 0.216713 0.489184 0.125033
      vertex 0.216099 0.491296 0
      vertex 0.216099 0.491296 0.125033
    endloop
  endfacet
  facet normal 0.960244 0.279162 0
    outer loop
      vertex 0.216099 0.491296 0
      vertex 0.216713 0.489184 0.125033
      vertex 0.216713 0.489184 0
    endloop
  endfacet
  facet normal 0.917964 0.396663 0
    outer loop
      vertex 0.21833 0.485097 0.125033
      vertex 0.217458 0.487115 0
      vertex 0.217458 0.487115 0.125033
    endloop
  endfacet
  facet normal 0.917964 0.396663 0
    outer loop
      vertex 0.217458 0.487115 0
      vertex 0.21833 0.485097 0.125033
      vertex 0.21833 0.485097 0
    endloop
  endfacet
  facet normal -0.0941437 0.995559 0
    outer loop
      vertex 0.254386 0.465276 0
      vertex 0.252197 0.465069 0.125033
      vertex 0.254386 0.465276 0.125033
    endloop
  endfacet
  facet normal -0.0941437 0.995559 0
    outer loop
      vertex 0.252197 0.465069 0.125033
      vertex 0.254386 0.465276 0
      vertex 0.252197 0.465069 0
    endloop
  endfacet
  facet normal -0.789793 -0.613374 0
    outer loop
      vertex 0.278316 0.520572 0
      vertex 0.276967 0.522309 0.125033
      vertex 0.276967 0.522309 0
    endloop
  endfacet
  facet normal -0.789793 -0.613374 0
    outer loop
      vertex 0.276967 0.522309 0.125033
      vertex 0.278316 0.520572 0
      vertex 0.278316 0.520572 0.125033
    endloop
  endfacet
  facet normal 0.999493 0.031831 0
    outer loop
      vertex 0.215069 0.497802 0.125033
      vertex 0.214999 0.5 0
      vertex 0.214999 0.5 0.125033
    endloop
  endfacet
  facet normal 0.999493 0.031831 0
    outer loop
      vertex 0.214999 0.5 0
      vertex 0.215069 0.497802 0.125033
      vertex 0.215069 0.497802 0
    endloop
  endfacet
  facet normal -0.987748 0.156056 0
    outer loop
      vertex 0.28438 0.493442 0
      vertex 0.284723 0.495613 0.125033
      vertex 0.284723 0.495613 0
    endloop
  endfacet
  facet normal -0.987748 0.156056 0
    outer loop
      vertex 0.284723 0.495613 0.125033
      vertex 0.28438 0.493442 0
      vertex 0.28438 0.493442 0.125033
    endloop
  endfacet
  facet normal -0.61309 0.790013 0
    outer loop
      vertex 0.272309 0.473032 0
      vertex 0.270572 0.471684 0.125033
      vertex 0.272309 0.473032 0.125033
    endloop
  endfacet
  facet normal -0.61309 0.790013 0
    outer loop
      vertex 0.270572 0.471684 0.125033
      vertex 0.272309 0.473032 0
      vertex 0.270572 0.471684 0
    endloop
  endfacet
  facet normal -0.917964 0.396663 0
    outer loop
      vertex 0.281669 0.485097 0
      vertex 0.282541 0.487115 0.125033
      vertex 0.282541 0.487115 0
    endloop
  endfacet
  facet normal -0.917964 0.396663 0
    outer loop
      vertex 0.282541 0.487115 0.125033
      vertex 0.281669 0.485097 0
      vertex 0.281669 0.485097 0.125033
    endloop
  endfacet
  facet normal -0.860727 0.509066 0
    outer loop
      vertex 0.279551 0.481246 0
      vertex 0.28067 0.483138 0.125033
      vertex 0.28067 0.483138 0
    endloop
  endfacet
  facet normal -0.860727 0.509066 0
    outer loop
      vertex 0.28067 0.483138 0.125033
      vertex 0.279551 0.481246 0
      vertex 0.279551 0.481246 0.125033
    endloop
  endfacet
  facet normal -0.960244 0.279162 0
    outer loop
      vertex 0.283286 0.489184 0
      vertex 0.2839 0.491296 0.125033
      vertex 0.2839 0.491296 0
    endloop
  endfacet
  facet normal -0.960244 0.279162 0
    outer loop
      vertex 0.2839 0.491296 0.125033
      vertex 0.283286 0.489184 0
      vertex 0.283286 0.489184 0.125033
    endloop
  endfacet
  facet normal 0.860727 0.509066 0
    outer loop
      vertex 0.220448 0.481246 0.125033
      vertex 0.219329 0.483138 0
      vertex 0.219329 0.483138 0.125033
    endloop
  endfacet
  facet normal 0.860727 0.509066 0
    outer loop
      vertex 0.219329 0.483138 0
      vertex 0.220448 0.481246 0.125033
      vertex 0.220448 0.481246 0
    endloop
  endfacet
  facet normal 0.827121 0.562024 0
    outer loop
      vertex 0.221684 0.479427 0.125033
      vertex 0.220448 0.481246 0
      vertex 0.220448 0.481246 0.125033
    endloop
  endfacet
  facet normal 0.827121 0.562024 0
    outer loop
      vertex 0.220448 0.481246 0
      vertex 0.221684 0.479427 0.125033
      vertex 0.221684 0.479427 0
    endloop
  endfacet
  facet normal 0.975887 0.218278 0
    outer loop
      vertex 0.216099 0.491296 0.125033
      vertex 0.215619 0.493442 0
      vertex 0.215619 0.493442 0.125033
    endloop
  endfacet
  facet normal 0.975887 0.218278 0
    outer loop
      vertex 0.215619 0.493442 0
      vertex 0.216099 0.491296 0.125033
      vertex 0.216099 0.491296 0
    endloop
  endfacet
  facet normal -0.396663 0.917964 0
    outer loop
      vertex 0.264902 0.46833 0
      vertex 0.262884 0.467458 0.125033
      vertex 0.264902 0.46833 0.125033
    endloop
  endfacet
  facet normal -0.396663 0.917964 0
    outer loop
      vertex 0.262884 0.467458 0.125033
      vertex 0.264902 0.46833 0
      vertex 0.262884 0.467458 0
    endloop
  endfacet
  facet normal -0.218278 0.975887 0
    outer loop
      vertex 0.258703 0.466099 0
      vertex 0.256557 0.465619 0.125033
      vertex 0.258703 0.466099 0.125033
    endloop
  endfacet
  facet normal -0.218278 0.975887 0
    outer loop
      vertex 0.256557 0.465619 0.125033
      vertex 0.258703 0.466099 0
      vertex 0.256557 0.465619 0
    endloop
  endfacet
  facet normal -0.279162 0.960244 0
    outer loop
      vertex 0.260815 0.466713 0
      vertex 0.258703 0.466099 0.125033
      vertex 0.260815 0.466713 0.125033
    endloop
  endfacet
  facet normal -0.279162 0.960244 0
    outer loop
      vertex 0.258703 0.466099 0.125033
      vertex 0.260815 0.466713 0
      vertex 0.258703 0.466099 0
    endloop
  endfacet
  facet normal -0.156056 0.987748 0
    outer loop
      vertex 0.256557 0.465619 0
      vertex 0.254386 0.465276 0.125033
      vertex 0.256557 0.465619 0.125033
    endloop
  endfacet
  facet normal -0.156056 0.987748 0
    outer loop
      vertex 0.254386 0.465276 0.125033
      vertex 0.256557 0.465619 0
      vertex 0.254386 0.465276 0
    endloop
  endfacet
  facet normal -0.995559 0.0941437 0
    outer loop
      vertex 0.284723 0.495613 0
      vertex 0.28493 0.497802 0.125033
      vertex 0.28493 0.497802 0
    endloop
  endfacet
  facet normal -0.995559 0.0941437 0
    outer loop
      vertex 0.28493 0.497802 0.125033
      vertex 0.284723 0.495613 0
      vertex 0.284723 0.495613 0.125033
    endloop
  endfacet
  facet normal -0.827332 0.561713 0
    outer loop
      vertex 0.278316 0.479427 0
      vertex 0.279551 0.481246 0.125033
      vertex 0.279551 0.481246 0
    endloop
  endfacet
  facet normal -0.827332 0.561713 0
    outer loop
      vertex 0.279551 0.481246 0.125033
      vertex 0.278316 0.479427 0
      vertex 0.278316 0.479427 0.125033
    endloop
  endfacet
  facet normal -0.789793 0.613374 0
    outer loop
      vertex 0.276967 0.47769 0
      vertex 0.278316 0.479427 0.125033
      vertex 0.278316 0.479427 0
    endloop
  endfacet
  facet normal -0.789793 0.613374 0
    outer loop
      vertex 0.278316 0.479427 0.125033
      vertex 0.276967 0.47769 0
      vertex 0.276967 0.47769 0.125033
    endloop
  endfacet
  facet normal -0.66111 0.750289 0
    outer loop
      vertex 0.273958 0.474485 0
      vertex 0.272309 0.473032 0.125033
      vertex 0.273958 0.474485 0.125033
    endloop
  endfacet
  facet normal -0.66111 0.750289 0
    outer loop
      vertex 0.272309 0.473032 0.125033
      vertex 0.273958 0.474485 0
      vertex 0.272309 0.473032 0
    endloop
  endfacet
  facet normal -0.940864 0.338784 0
    outer loop
      vertex 0.282541 0.487115 0
      vertex 0.283286 0.489184 0.125033
      vertex 0.283286 0.489184 0
    endloop
  endfacet
  facet normal -0.940864 0.338784 0
    outer loop
      vertex 0.283286 0.489184 0.125033
      vertex 0.282541 0.487115 0
      vertex 0.282541 0.487115 0.125033
    endloop
  endfacet
  facet normal -0.890852 0.454294 0
    outer loop
      vertex 0.28067 0.483138 0
      vertex 0.281669 0.485097 0.125033
      vertex 0.281669 0.485097 0
    endloop
  endfacet
  facet normal -0.890852 0.454294 0
    outer loop
      vertex 0.281669 0.485097 0.125033
      vertex 0.28067 0.483138 0
      vertex 0.28067 0.483138 0.125033
    endloop
  endfacet
  facet normal 0.031831 0.999493 -0
    outer loop
      vertex 0.25 0.464999 0
      vertex 0.247802 0.465069 0.125033
      vertex 0.25 0.464999 0.125033
    endloop
  endfacet
  facet normal 0.031831 0.999493 0
    outer loop
      vertex 0.247802 0.465069 0.125033
      vertex 0.25 0.464999 0
      vertex 0.247802 0.465069 0
    endloop
  endfacet
  facet normal 0.338784 0.940864 -0
    outer loop
      vertex 0.239184 0.466713 0
      vertex 0.237115 0.467458 0.125033
      vertex 0.239184 0.466713 0.125033
    endloop
  endfacet
  facet normal 0.338784 0.940864 0
    outer loop
      vertex 0.237115 0.467458 0.125033
      vertex 0.239184 0.466713 0
      vertex 0.237115 0.467458 0
    endloop
  endfacet
  facet normal 0.218278 0.975887 -0
    outer loop
      vertex 0.243442 0.465619 0
      vertex 0.241296 0.466099 0.125033
      vertex 0.243442 0.465619 0.125033
    endloop
  endfacet
  facet normal 0.218278 0.975887 0
    outer loop
      vertex 0.241296 0.466099 0.125033
      vertex 0.243442 0.465619 0
      vertex 0.241296 0.466099 0
    endloop
  endfacet
  facet normal 0.509066 0.860727 -0
    outer loop
      vertex 0.233138 0.469329 0
      vertex 0.231246 0.470448 0.125033
      vertex 0.233138 0.469329 0.125033
    endloop
  endfacet
  facet normal 0.509066 0.860727 0
    outer loop
      vertex 0.231246 0.470448 0.125033
      vertex 0.233138 0.469329 0
      vertex 0.231246 0.470448 0
    endloop
  endfacet
  facet normal 0.396663 0.917964 -0
    outer loop
      vertex 0.237115 0.467458 0
      vertex 0.235097 0.46833 0.125033
      vertex 0.237115 0.467458 0.125033
    endloop
  endfacet
  facet normal 0.396663 0.917964 0
    outer loop
      vertex 0.235097 0.46833 0.125033
      vertex 0.237115 0.467458 0
      vertex 0.235097 0.46833 0
    endloop
  endfacet
  facet normal 0.562024 0.827121 -0
    outer loop
      vertex 0.231246 0.470448 0
      vertex 0.229427 0.471684 0.125033
      vertex 0.231246 0.470448 0.125033
    endloop
  endfacet
  facet normal 0.562024 0.827121 0
    outer loop
      vertex 0.229427 0.471684 0.125033
      vertex 0.231246 0.470448 0
      vertex 0.229427 0.471684 0
    endloop
  endfacet
  facet normal 0.750289 0.66111 0
    outer loop
      vertex 0.224485 0.476041 0.125033
      vertex 0.223032 0.47769 0
      vertex 0.223032 0.47769 0.125033
    endloop
  endfacet
  facet normal 0.750289 0.66111 0
    outer loop
      vertex 0.223032 0.47769 0
      vertex 0.224485 0.476041 0.125033
      vertex 0.224485 0.476041 0
    endloop
  endfacet
  facet normal 0.940864 0.338784 0
    outer loop
      vertex 0.217458 0.487115 0.125033
      vertex 0.216713 0.489184 0
      vertex 0.216713 0.489184 0.125033
    endloop
  endfacet
  facet normal 0.940864 0.338784 0
    outer loop
      vertex 0.216713 0.489184 0
      vertex 0.217458 0.487115 0.125033
      vertex 0.217458 0.487115 0
    endloop
  endfacet
  facet normal 0.987748 0.156056 0
    outer loop
      vertex 0.215619 0.493442 0.125033
      vertex 0.215276 0.495613 0
      vertex 0.215276 0.495613 0.125033
    endloop
  endfacet
  facet normal 0.987748 0.156056 0
    outer loop
      vertex 0.215276 0.495613 0
      vertex 0.215619 0.493442 0.125033
      vertex 0.215619 0.493442 0
    endloop
  endfacet
  facet normal 0.995559 0.0941437 0
    outer loop
      vertex 0.215276 0.495613 0.125033
      vertex 0.215069 0.497802 0
      vertex 0.215069 0.497802 0.125033
    endloop
  endfacet
  facet normal 0.995559 0.0941437 0
    outer loop
      vertex 0.215069 0.497802 0
      vertex 0.215276 0.495613 0.125033
      vertex 0.215276 0.495613 0
    endloop
  endfacet
  facet normal -0.562024 0.827121 0
    outer loop
      vertex 0.270572 0.471684 0
      vertex 0.268753 0.470448 0.125033
      vertex 0.270572 0.471684 0.125033
    endloop
  endfacet
  facet normal -0.562024 0.827121 0
    outer loop
      vertex 0.268753 0.470448 0.125033
      vertex 0.270572 0.471684 0
      vertex 0.268753 0.470448 0
    endloop
  endfacet
  facet normal -0.509066 0.860727 0
    outer loop
      vertex 0.268753 0.470448 0
      vertex 0.266861 0.469329 0.125033
      vertex 0.268753 0.470448 0.125033
    endloop
  endfacet
  facet normal -0.509066 0.860727 0
    outer loop
      vertex 0.266861 0.469329 0.125033
      vertex 0.268753 0.470448 0
      vertex 0.266861 0.469329 0
    endloop
  endfacet
  facet normal 0.279162 0.960244 -0
    outer loop
      vertex 0.241296 0.466099 0
      vertex 0.239184 0.466713 0.125033
      vertex 0.241296 0.466099 0.125033
    endloop
  endfacet
  facet normal 0.279162 0.960244 0
    outer loop
      vertex 0.239184 0.466713 0.125033
      vertex 0.241296 0.466099 0
      vertex 0.239184 0.466713 0
    endloop
  endfacet
  facet normal 0.0941437 0.995559 -0
    outer loop
      vertex 0.247802 0.465069 0
      vertex 0.245613 0.465276 0.125033
      vertex 0.247802 0.465069 0.125033
    endloop
  endfacet
  facet normal 0.0941437 0.995559 0
    outer loop
      vertex 0.245613 0.465276 0.125033
      vertex 0.247802 0.465069 0
      vertex 0.245613 0.465276 0
    endloop
  endfacet
  facet normal 0.156056 0.987748 -0
    outer loop
      vertex 0.245613 0.465276 0
      vertex 0.243442 0.465619 0.125033
      vertex 0.245613 0.465276 0.125033
    endloop
  endfacet
  facet normal 0.156056 0.987748 0
    outer loop
      vertex 0.243442 0.465619 0.125033
      vertex 0.245613 0.465276 0
      vertex 0.243442 0.465619 0
    endloop
  endfacet
  facet normal 0.454294 0.890852 -0
    outer loop
      vertex 0.235097 0.46833 0
      vertex 0.233138 0.469329 0.125033
      vertex 0.235097 0.46833 0.125033
    endloop
  endfacet
  facet normal 0.454294 0.890852 0
    outer loop
      vertex 0.233138 0.469329 0.125033
      vertex 0.235097 0.46833 0
      vertex 0.233138 0.469329 0
    endloop
  endfacet
  facet normal 0.61309 0.790013 -0
    outer loop
      vertex 0.229427 0.471684 0
      vertex 0.22769 0.473032 0.125033
      vertex 0.229427 0.471684 0.125033
    endloop
  endfacet
  facet normal 0.61309 0.790013 0
    outer loop
      vertex 0.22769 0.473032 0.125033
      vertex 0.229427 0.471684 0
      vertex 0.22769 0.473032 0
    endloop
  endfacet
endsolid OpenSCAD_Model
