solid OpenSCAD_Model
  facet normal -1 0 0
    outer loop
      vertex 0 0 0
      vertex 0 0.714286 0.25
      vertex 0 0.714286 0
    endloop
  endfacet
  facet normal -1 -0 0
    outer loop
      vertex 0 0.714286 0.25
      vertex 0 0 0
      vertex 0 0 0.25
    endloop
  endfacet
  facet normal 0 0 1
    outer loop
      vertex 0.464124 0.530092 0.25
      vertex 0.75 0.714286 0.25
      vertex 0.464299 0.5357 0.25
    endloop
  endfacet
  facet normal 0 0 1
    outer loop
      vertex 0.75 0.714286 0.25
      vertex 0.464124 0.541306 0.25
      vertex 0.464299 0.5357 0.25
    endloop
  endfacet
  facet normal 0 0 1
    outer loop
      vertex 0.75 0.714286 0.25
      vertex 0.463595 0.546892 0.25
      vertex 0.464124 0.541306 0.25
    endloop
  endfacet
  facet normal 0 0 1
    outer loop
      vertex 0.75 0.714286 0.25
      vertex 0.462718 0.552433 0.25
      vertex 0.463595 0.546892 0.25
    endloop
  endfacet
  facet normal 0 0 1
    outer loop
      vertex 0.75 0.714286 0.25
      vertex 0.461494 0.557907 0.25
      vertex 0.462718 0.552433 0.25
    endloop
  endfacet
  facet normal 0 0 1
    outer loop
      vertex 0.75 0.714286 0.25
      vertex 0.459929 0.563294 0.25
      vertex 0.461494 0.557907 0.25
    endloop
  endfacet
  facet normal 0 0 1
    outer loop
      vertex 0.75 0.714286 0.25
      vertex 0.458029 0.568573 0.25
      vertex 0.459929 0.563294 0.25
    endloop
  endfacet
  facet normal 0 0 1
    outer loop
      vertex 0.75 0.714286 0.25
      vertex 0.455801 0.573722 0.25
      vertex 0.458029 0.568573 0.25
    endloop
  endfacet
  facet normal 0 0 1
    outer loop
      vertex 0.75 0.714286 0.25
      vertex 0.453254 0.57872 0.25
      vertex 0.455801 0.573722 0.25
    endloop
  endfacet
  facet normal 0 0 1
    outer loop
      vertex 0.75 0.714286 0.25
      vertex 0.450398 0.583549 0.25
      vertex 0.453254 0.57872 0.25
    endloop
  endfacet
  facet normal 0 0 1
    outer loop
      vertex 0.75 0.714286 0.25
      vertex 0.447245 0.588189 0.25
      vertex 0.450398 0.583549 0.25
    endloop
  endfacet
  facet normal 0 0 1
    outer loop
      vertex 0.75 0.714286 0.25
      vertex 0.443807 0.592622 0.25
      vertex 0.447245 0.588189 0.25
    endloop
  endfacet
  facet normal 0 0 1
    outer loop
      vertex 0.75 0.714286 0.25
      vertex 0.440097 0.596829 0.25
      vertex 0.443807 0.592622 0.25
    endloop
  endfacet
  facet normal 0 0 1
    outer loop
      vertex 0.75 0.714286 0.25
      vertex 0.43613 0.600797 0.25
      vertex 0.440097 0.596829 0.25
    endloop
  endfacet
  facet normal 0 0 1
    outer loop
      vertex 0.75 0.714286 0.25
      vertex 0.431922 0.604506 0.25
      vertex 0.43613 0.600797 0.25
    endloop
  endfacet
  facet normal 0 0 1
    outer loop
      vertex 0.75 0.714286 0.25
      vertex 0.427488 0.607944 0.25
      vertex 0.431922 0.604506 0.25
    endloop
  endfacet
  facet normal 0 0 1
    outer loop
      vertex 0.75 0.714286 0.25
      vertex 0.422849 0.611098 0.25
      vertex 0.427488 0.607944 0.25
    endloop
  endfacet
  facet normal 0 0 1
    outer loop
      vertex 0.75 0.714286 0.25
      vertex 0.41802 0.613954 0.25
      vertex 0.422849 0.611098 0.25
    endloop
  endfacet
  facet normal 0 0 1
    outer loop
      vertex 0.75 0.714286 0.25
      vertex 0.413022 0.616501 0.25
      vertex 0.41802 0.613954 0.25
    endloop
  endfacet
  facet normal 0 0 1
    outer loop
      vertex 0.75 0.714286 0.25
      vertex 0.407873 0.618729 0.25
      vertex 0.413022 0.616501 0.25
    endloop
  endfacet
  facet normal 0 0 1
    outer loop
      vertex 0.75 0.714286 0.25
      vertex 0.402595 0.620629 0.25
      vertex 0.407873 0.618729 0.25
    endloop
  endfacet
  facet normal 0 0 1
    outer loop
      vertex 0.75 0.714286 0.25
      vertex 0.397207 0.622194 0.25
      vertex 0.402595 0.620629 0.25
    endloop
  endfacet
  facet normal 0 0 1
    outer loop
      vertex 0.75 0.714286 0.25
      vertex 0.391732 0.623418 0.25
      vertex 0.397207 0.622194 0.25
    endloop
  endfacet
  facet normal 0 0 1
    outer loop
      vertex 0.75 0.714286 0.25
      vertex 0.386191 0.624295 0.25
      vertex 0.391732 0.623418 0.25
    endloop
  endfacet
  facet normal 0 0 1
    outer loop
      vertex 0.75 0.714286 0.25
      vertex 0.380607 0.624824 0.25
      vertex 0.386191 0.624295 0.25
    endloop
  endfacet
  facet normal 0 0 1
    outer loop
      vertex 0.75 0.714286 0.25
      vertex 0.375 0.625 0.25
      vertex 0.380607 0.624824 0.25
    endloop
  endfacet
  facet normal -0 0 1
    outer loop
      vertex 0 0.714286 0.25
      vertex 0.375 0.625 0.25
      vertex 0.75 0.714286 0.25
    endloop
  endfacet
  facet normal 0 0 1
    outer loop
      vertex 0.375 0.625 0.25
      vertex 0 0.714286 0.25
      vertex 0.369392 0.624824 0.25
    endloop
  endfacet
  facet normal 0 0 1
    outer loop
      vertex 0.369392 0.624824 0.25
      vertex 0 0.714286 0.25
      vertex 0.363808 0.624295 0.25
    endloop
  endfacet
  facet normal 0 0 1
    outer loop
      vertex 0.363808 0.624295 0.25
      vertex 0 0.714286 0.25
      vertex 0.358267 0.623418 0.25
    endloop
  endfacet
  facet normal 0 0 1
    outer loop
      vertex 0.285875 0.541306 0.25
      vertex 0 0.714286 0.25
      vertex 0.2857 0.5357 0.25
    endloop
  endfacet
  facet normal 0 0 1
    outer loop
      vertex 0.286404 0.546892 0.25
      vertex 0 0.714286 0.25
      vertex 0.285875 0.541306 0.25
    endloop
  endfacet
  facet normal 0 0 1
    outer loop
      vertex 0.287281 0.552433 0.25
      vertex 0 0.714286 0.25
      vertex 0.286404 0.546892 0.25
    endloop
  endfacet
  facet normal 0 0 1
    outer loop
      vertex 0.288505 0.557907 0.25
      vertex 0 0.714286 0.25
      vertex 0.287281 0.552433 0.25
    endloop
  endfacet
  facet normal 0 0 1
    outer loop
      vertex 0.290071 0.563294 0.25
      vertex 0 0.714286 0.25
      vertex 0.288505 0.557907 0.25
    endloop
  endfacet
  facet normal 0 0 1
    outer loop
      vertex 0.29197 0.568573 0.25
      vertex 0 0.714286 0.25
      vertex 0.290071 0.563294 0.25
    endloop
  endfacet
  facet normal 0 0 1
    outer loop
      vertex 0.294198 0.573722 0.25
      vertex 0 0.714286 0.25
      vertex 0.29197 0.568573 0.25
    endloop
  endfacet
  facet normal 0 0 1
    outer loop
      vertex 0.296745 0.57872 0.25
      vertex 0 0.714286 0.25
      vertex 0.294198 0.573722 0.25
    endloop
  endfacet
  facet normal 0 0 1
    outer loop
      vertex 0.299601 0.583549 0.25
      vertex 0 0.714286 0.25
      vertex 0.296745 0.57872 0.25
    endloop
  endfacet
  facet normal 0 0 1
    outer loop
      vertex 0.302754 0.588189 0.25
      vertex 0 0.714286 0.25
      vertex 0.299601 0.583549 0.25
    endloop
  endfacet
  facet normal 0 0 1
    outer loop
      vertex 0.306192 0.592622 0.25
      vertex 0 0.714286 0.25
      vertex 0.302754 0.588189 0.25
    endloop
  endfacet
  facet normal 0 0 1
    outer loop
      vertex 0.309902 0.596829 0.25
      vertex 0 0.714286 0.25
      vertex 0.306192 0.592622 0.25
    endloop
  endfacet
  facet normal 0 0 1
    outer loop
      vertex 0.313869 0.600797 0.25
      vertex 0 0.714286 0.25
      vertex 0.309902 0.596829 0.25
    endloop
  endfacet
  facet normal 0 0 1
    outer loop
      vertex 0.318077 0.604506 0.25
      vertex 0 0.714286 0.25
      vertex 0.313869 0.600797 0.25
    endloop
  endfacet
  facet normal 0 0 1
    outer loop
      vertex 0.322511 0.607944 0.25
      vertex 0 0.714286 0.25
      vertex 0.318077 0.604506 0.25
    endloop
  endfacet
  facet normal 0 0 1
    outer loop
      vertex 0.32715 0.611098 0.25
      vertex 0 0.714286 0.25
      vertex 0.322511 0.607944 0.25
    endloop
  endfacet
  facet normal 0 0 1
    outer loop
      vertex 0.331979 0.613954 0.25
      vertex 0 0.714286 0.25
      vertex 0.32715 0.611098 0.25
    endloop
  endfacet
  facet normal 0 0 1
    outer loop
      vertex 0.336977 0.616501 0.25
      vertex 0 0.714286 0.25
      vertex 0.331979 0.613954 0.25
    endloop
  endfacet
  facet normal 0 0 1
    outer loop
      vertex 0.342126 0.618729 0.25
      vertex 0 0.714286 0.25
      vertex 0.336977 0.616501 0.25
    endloop
  endfacet
  facet normal 0 0 1
    outer loop
      vertex 0.347404 0.620629 0.25
      vertex 0 0.714286 0.25
      vertex 0.342126 0.618729 0.25
    endloop
  endfacet
  facet normal 0 0 1
    outer loop
      vertex 0.352792 0.622194 0.25
      vertex 0 0.714286 0.25
      vertex 0.347404 0.620629 0.25
    endloop
  endfacet
  facet normal 0 0 1
    outer loop
      vertex 0.358267 0.623418 0.25
      vertex 0 0.714286 0.25
      vertex 0.352792 0.622194 0.25
    endloop
  endfacet
  facet normal 0 0 1
    outer loop
      vertex 0.463595 0.524508 0.25
      vertex 0.75 0.714286 0.25
      vertex 0.464124 0.530092 0.25
    endloop
  endfacet
  facet normal 0 0 1
    outer loop
      vertex 0.462718 0.518967 0.25
      vertex 0.75 0.714286 0.25
      vertex 0.463595 0.524508 0.25
    endloop
  endfacet
  facet normal 0 0 1
    outer loop
      vertex 0.461494 0.513492 0.25
      vertex 0.75 0.714286 0.25
      vertex 0.462718 0.518967 0.25
    endloop
  endfacet
  facet normal 0 0 1
    outer loop
      vertex 0.459929 0.508104 0.25
      vertex 0.75 0.714286 0.25
      vertex 0.461494 0.513492 0.25
    endloop
  endfacet
  facet normal 0 0 1
    outer loop
      vertex 0.458029 0.502826 0.25
      vertex 0.75 0.714286 0.25
      vertex 0.459929 0.508104 0.25
    endloop
  endfacet
  facet normal 0 0 1
    outer loop
      vertex 0.75 0.714286 0.25
      vertex 0.458029 0.502826 0.25
      vertex 0.75 0 0.25
    endloop
  endfacet
  facet normal -0 0 1
    outer loop
      vertex 0.455801 0.497678 0.25
      vertex 0.75 0 0.25
      vertex 0.458029 0.502826 0.25
    endloop
  endfacet
  facet normal -0 0 1
    outer loop
      vertex 0.453254 0.492679 0.25
      vertex 0.75 0 0.25
      vertex 0.455801 0.497678 0.25
    endloop
  endfacet
  facet normal -0 0 1
    outer loop
      vertex 0.450398 0.48785 0.25
      vertex 0.75 0 0.25
      vertex 0.453254 0.492679 0.25
    endloop
  endfacet
  facet normal -0 0 1
    outer loop
      vertex 0.447245 0.483211 0.25
      vertex 0.75 0 0.25
      vertex 0.450398 0.48785 0.25
    endloop
  endfacet
  facet normal -0 0 1
    outer loop
      vertex 0.443807 0.478778 0.25
      vertex 0.75 0 0.25
      vertex 0.447245 0.483211 0.25
    endloop
  endfacet
  facet normal -0 0 1
    outer loop
      vertex 0.440097 0.474569 0.25
      vertex 0.75 0 0.25
      vertex 0.443807 0.478778 0.25
    endloop
  endfacet
  facet normal -0 0 1
    outer loop
      vertex 0.43613 0.470603 0.25
      vertex 0.75 0 0.25
      vertex 0.440097 0.474569 0.25
    endloop
  endfacet
  facet normal -0 0 1
    outer loop
      vertex 0.431922 0.466892 0.25
      vertex 0.75 0 0.25
      vertex 0.43613 0.470603 0.25
    endloop
  endfacet
  facet normal -0 0 1
    outer loop
      vertex 0.427488 0.463454 0.25
      vertex 0.75 0 0.25
      vertex 0.431922 0.466892 0.25
    endloop
  endfacet
  facet normal -0 0 1
    outer loop
      vertex 0.422849 0.460301 0.25
      vertex 0.75 0 0.25
      vertex 0.427488 0.463454 0.25
    endloop
  endfacet
  facet normal -0 0 1
    outer loop
      vertex 0.41802 0.457445 0.25
      vertex 0.75 0 0.25
      vertex 0.422849 0.460301 0.25
    endloop
  endfacet
  facet normal -0 0 1
    outer loop
      vertex 0.413022 0.454899 0.25
      vertex 0.75 0 0.25
      vertex 0.41802 0.457445 0.25
    endloop
  endfacet
  facet normal -0 0 1
    outer loop
      vertex 0.407873 0.45267 0.25
      vertex 0.75 0 0.25
      vertex 0.413022 0.454899 0.25
    endloop
  endfacet
  facet normal -0 0 1
    outer loop
      vertex 0.402595 0.45077 0.25
      vertex 0.75 0 0.25
      vertex 0.407873 0.45267 0.25
    endloop
  endfacet
  facet normal -0 0 1
    outer loop
      vertex 0.397207 0.449205 0.25
      vertex 0.75 0 0.25
      vertex 0.402595 0.45077 0.25
    endloop
  endfacet
  facet normal -0 0 1
    outer loop
      vertex 0.391732 0.447981 0.25
      vertex 0.75 0 0.25
      vertex 0.397207 0.449205 0.25
    endloop
  endfacet
  facet normal -0 0 1
    outer loop
      vertex 0.386191 0.447104 0.25
      vertex 0.75 0 0.25
      vertex 0.391732 0.447981 0.25
    endloop
  endfacet
  facet normal -0 0 1
    outer loop
      vertex 0.380607 0.446576 0.25
      vertex 0.75 0 0.25
      vertex 0.386191 0.447104 0.25
    endloop
  endfacet
  facet normal -0 0 1
    outer loop
      vertex 0.375 0.4464 0.25
      vertex 0.75 0 0.25
      vertex 0.380607 0.446576 0.25
    endloop
  endfacet
  facet normal 0 0 1
    outer loop
      vertex 0 0 0.25
      vertex 0.375 0.4464 0.25
      vertex 0.369392 0.446576 0.25
    endloop
  endfacet
  facet normal 0 0 1
    outer loop
      vertex 0 0 0.25
      vertex 0.369392 0.446576 0.25
      vertex 0.363808 0.447104 0.25
    endloop
  endfacet
  facet normal 0 0 1
    outer loop
      vertex 0 0 0.25
      vertex 0.363808 0.447104 0.25
      vertex 0.358267 0.447981 0.25
    endloop
  endfacet
  facet normal 0 0 1
    outer loop
      vertex 0 0 0.25
      vertex 0.358267 0.447981 0.25
      vertex 0.352792 0.449205 0.25
    endloop
  endfacet
  facet normal 0 0 1
    outer loop
      vertex 0 0 0.25
      vertex 0.352792 0.449205 0.25
      vertex 0.347404 0.45077 0.25
    endloop
  endfacet
  facet normal 0 0 1
    outer loop
      vertex 0 0 0.25
      vertex 0.347404 0.45077 0.25
      vertex 0.342126 0.45267 0.25
    endloop
  endfacet
  facet normal 0 0 1
    outer loop
      vertex 0 0 0.25
      vertex 0.342126 0.45267 0.25
      vertex 0.336977 0.454899 0.25
    endloop
  endfacet
  facet normal 0 0 1
    outer loop
      vertex 0 0 0.25
      vertex 0.336977 0.454899 0.25
      vertex 0.331979 0.457445 0.25
    endloop
  endfacet
  facet normal 0 0 1
    outer loop
      vertex 0 0 0.25
      vertex 0.331979 0.457445 0.25
      vertex 0.32715 0.460301 0.25
    endloop
  endfacet
  facet normal 0 0 1
    outer loop
      vertex 0 0 0.25
      vertex 0.32715 0.460301 0.25
      vertex 0.322511 0.463454 0.25
    endloop
  endfacet
  facet normal 0 0 1
    outer loop
      vertex 0 0 0.25
      vertex 0.322511 0.463454 0.25
      vertex 0.318077 0.466892 0.25
    endloop
  endfacet
  facet normal 0 0 1
    outer loop
      vertex 0 0 0.25
      vertex 0.318077 0.466892 0.25
      vertex 0.313869 0.470603 0.25
    endloop
  endfacet
  facet normal 0 0 1
    outer loop
      vertex 0 0 0.25
      vertex 0.313869 0.470603 0.25
      vertex 0.309902 0.474569 0.25
    endloop
  endfacet
  facet normal 0 0 1
    outer loop
      vertex 0 0.714286 0.25
      vertex 0.285875 0.530092 0.25
      vertex 0.2857 0.5357 0.25
    endloop
  endfacet
  facet normal 0 0 1
    outer loop
      vertex 0 0.714286 0.25
      vertex 0.286404 0.524508 0.25
      vertex 0.285875 0.530092 0.25
    endloop
  endfacet
  facet normal 0 0 1
    outer loop
      vertex 0 0.714286 0.25
      vertex 0.287281 0.518967 0.25
      vertex 0.286404 0.524508 0.25
    endloop
  endfacet
  facet normal 0 0 1
    outer loop
      vertex 0 0.714286 0.25
      vertex 0.288505 0.513492 0.25
      vertex 0.287281 0.518967 0.25
    endloop
  endfacet
  facet normal 0 0 1
    outer loop
      vertex 0 0.714286 0.25
      vertex 0.290071 0.508104 0.25
      vertex 0.288505 0.513492 0.25
    endloop
  endfacet
  facet normal 0 0 1
    outer loop
      vertex 0 0.714286 0.25
      vertex 0.29197 0.502826 0.25
      vertex 0.290071 0.508104 0.25
    endloop
  endfacet
  facet normal 0 0 1
    outer loop
      vertex 0 0.714286 0.25
      vertex 0.294198 0.497678 0.25
      vertex 0.29197 0.502826 0.25
    endloop
  endfacet
  facet normal 0 0 1
    outer loop
      vertex 0 0 0.25
      vertex 0.294198 0.497678 0.25
      vertex 0 0.714286 0.25
    endloop
  endfacet
  facet normal 0 0 1
    outer loop
      vertex 0.294198 0.497678 0.25
      vertex 0 0 0.25
      vertex 0.296745 0.492679 0.25
    endloop
  endfacet
  facet normal 0 0 1
    outer loop
      vertex 0.296745 0.492679 0.25
      vertex 0 0 0.25
      vertex 0.299601 0.48785 0.25
    endloop
  endfacet
  facet normal 0 0 1
    outer loop
      vertex 0.299601 0.48785 0.25
      vertex 0 0 0.25
      vertex 0.302754 0.483211 0.25
    endloop
  endfacet
  facet normal 0 0 1
    outer loop
      vertex 0.302754 0.483211 0.25
      vertex 0 0 0.25
      vertex 0.306192 0.478778 0.25
    endloop
  endfacet
  facet normal 0 0 1
    outer loop
      vertex 0.306192 0.478778 0.25
      vertex 0 0 0.25
      vertex 0.309902 0.474569 0.25
    endloop
  endfacet
  facet normal 0 0 1
    outer loop
      vertex 0.375 0.4464 0.25
      vertex 0 0 0.25
      vertex 0.75 0 0.25
    endloop
  endfacet
  facet normal 1 -0 0
    outer loop
      vertex 0.75 0 0.25
      vertex 0.75 0.714286 0
      vertex 0.75 0.714286 0.25
    endloop
  endfacet
  facet normal 1 0 0
    outer loop
      vertex 0.75 0.714286 0
      vertex 0.75 0 0.25
      vertex 0.75 0 0
    endloop
  endfacet
  facet normal 0 1 -0
    outer loop
      vertex 0.75 0.714286 0
      vertex 0 0.714286 0.25
      vertex 0.75 0.714286 0.25
    endloop
  endfacet
  facet normal 0 1 0
    outer loop
      vertex 0 0.714286 0.25
      vertex 0.75 0.714286 0
      vertex 0 0.714286 0
    endloop
  endfacet
  facet normal 0 0 -1
    outer loop
      vertex 0.458029 0.502826 0
      vertex 0.75 0.714286 0
      vertex 0.75 0 0
    endloop
  endfacet
  facet normal 0 0 -1
    outer loop
      vertex 0.75 0.714286 0
      vertex 0.464124 0.530092 0
      vertex 0.464299 0.5357 0
    endloop
  endfacet
  facet normal 0 0 -1
    outer loop
      vertex 0.75 0.714286 0
      vertex 0.463595 0.524508 0
      vertex 0.464124 0.530092 0
    endloop
  endfacet
  facet normal 0 0 -1
    outer loop
      vertex 0.75 0.714286 0
      vertex 0.462718 0.518967 0
      vertex 0.463595 0.524508 0
    endloop
  endfacet
  facet normal 0 0 -1
    outer loop
      vertex 0.75 0.714286 0
      vertex 0.461494 0.513492 0
      vertex 0.462718 0.518967 0
    endloop
  endfacet
  facet normal 0 0 -1
    outer loop
      vertex 0.75 0.714286 0
      vertex 0.459929 0.508104 0
      vertex 0.461494 0.513492 0
    endloop
  endfacet
  facet normal 0 0 -1
    outer loop
      vertex 0.75 0.714286 0
      vertex 0.458029 0.502826 0
      vertex 0.459929 0.508104 0
    endloop
  endfacet
  facet normal 0 0 -1
    outer loop
      vertex 0.75 0 0
      vertex 0.455801 0.497678 0
      vertex 0.458029 0.502826 0
    endloop
  endfacet
  facet normal 0 0 -1
    outer loop
      vertex 0.75 0 0
      vertex 0.453254 0.492679 0
      vertex 0.455801 0.497678 0
    endloop
  endfacet
  facet normal 0 0 -1
    outer loop
      vertex 0.75 0 0
      vertex 0.450398 0.48785 0
      vertex 0.453254 0.492679 0
    endloop
  endfacet
  facet normal 0 0 -1
    outer loop
      vertex 0.75 0 0
      vertex 0.447245 0.483211 0
      vertex 0.450398 0.48785 0
    endloop
  endfacet
  facet normal 0 0 -1
    outer loop
      vertex 0.75 0 0
      vertex 0.443807 0.478778 0
      vertex 0.447245 0.483211 0
    endloop
  endfacet
  facet normal 0 0 -1
    outer loop
      vertex 0.75 0 0
      vertex 0.440097 0.474569 0
      vertex 0.443807 0.478778 0
    endloop
  endfacet
  facet normal 0 0 -1
    outer loop
      vertex 0.75 0 0
      vertex 0.43613 0.470603 0
      vertex 0.440097 0.474569 0
    endloop
  endfacet
  facet normal 0 0 -1
    outer loop
      vertex 0.75 0 0
      vertex 0.431922 0.466892 0
      vertex 0.43613 0.470603 0
    endloop
  endfacet
  facet normal 0 0 -1
    outer loop
      vertex 0.75 0 0
      vertex 0.427488 0.463454 0
      vertex 0.431922 0.466892 0
    endloop
  endfacet
  facet normal 0 0 -1
    outer loop
      vertex 0.75 0 0
      vertex 0.422849 0.460301 0
      vertex 0.427488 0.463454 0
    endloop
  endfacet
  facet normal 0 0 -1
    outer loop
      vertex 0.75 0 0
      vertex 0.41802 0.457445 0
      vertex 0.422849 0.460301 0
    endloop
  endfacet
  facet normal 0 0 -1
    outer loop
      vertex 0.75 0 0
      vertex 0.413022 0.454899 0
      vertex 0.41802 0.457445 0
    endloop
  endfacet
  facet normal 0 0 -1
    outer loop
      vertex 0.75 0 0
      vertex 0.407873 0.45267 0
      vertex 0.413022 0.454899 0
    endloop
  endfacet
  facet normal 0 0 -1
    outer loop
      vertex 0.75 0 0
      vertex 0.402595 0.45077 0
      vertex 0.407873 0.45267 0
    endloop
  endfacet
  facet normal 0 0 -1
    outer loop
      vertex 0.75 0 0
      vertex 0.397207 0.449205 0
      vertex 0.402595 0.45077 0
    endloop
  endfacet
  facet normal 0 0 -1
    outer loop
      vertex 0.75 0 0
      vertex 0.391732 0.447981 0
      vertex 0.397207 0.449205 0
    endloop
  endfacet
  facet normal 0 0 -1
    outer loop
      vertex 0.75 0 0
      vertex 0.386191 0.447104 0
      vertex 0.391732 0.447981 0
    endloop
  endfacet
  facet normal 0 0 -1
    outer loop
      vertex 0.75 0 0
      vertex 0.380607 0.446576 0
      vertex 0.386191 0.447104 0
    endloop
  endfacet
  facet normal 0 0 -1
    outer loop
      vertex 0.75 0 0
      vertex 0.375 0.4464 0
      vertex 0.380607 0.446576 0
    endloop
  endfacet
  facet normal 0 0 -1
    outer loop
      vertex 0 0 0
      vertex 0.375 0.4464 0
      vertex 0.75 0 0
    endloop
  endfacet
  facet normal -0 0 -1
    outer loop
      vertex 0.375 0.4464 0
      vertex 0 0 0
      vertex 0.369392 0.446576 0
    endloop
  endfacet
  facet normal -0 0 -1
    outer loop
      vertex 0.369392 0.446576 0
      vertex 0 0 0
      vertex 0.363808 0.447104 0
    endloop
  endfacet
  facet normal -0 0 -1
    outer loop
      vertex 0.363808 0.447104 0
      vertex 0 0 0
      vertex 0.358267 0.447981 0
    endloop
  endfacet
  facet normal -0 0 -1
    outer loop
      vertex 0.358267 0.447981 0
      vertex 0 0 0
      vertex 0.352792 0.449205 0
    endloop
  endfacet
  facet normal -0 0 -1
    outer loop
      vertex 0.352792 0.449205 0
      vertex 0 0 0
      vertex 0.347404 0.45077 0
    endloop
  endfacet
  facet normal -0 0 -1
    outer loop
      vertex 0.347404 0.45077 0
      vertex 0 0 0
      vertex 0.342126 0.45267 0
    endloop
  endfacet
  facet normal -0 0 -1
    outer loop
      vertex 0.342126 0.45267 0
      vertex 0 0 0
      vertex 0.336977 0.454899 0
    endloop
  endfacet
  facet normal -0 0 -1
    outer loop
      vertex 0.336977 0.454899 0
      vertex 0 0 0
      vertex 0.331979 0.457445 0
    endloop
  endfacet
  facet normal -0 0 -1
    outer loop
      vertex 0.331979 0.457445 0
      vertex 0 0 0
      vertex 0.32715 0.460301 0
    endloop
  endfacet
  facet normal -0 0 -1
    outer loop
      vertex 0.32715 0.460301 0
      vertex 0 0 0
      vertex 0.322511 0.463454 0
    endloop
  endfacet
  facet normal -0 0 -1
    outer loop
      vertex 0.322511 0.463454 0
      vertex 0 0 0
      vertex 0.318077 0.466892 0
    endloop
  endfacet
  facet normal -0 0 -1
    outer loop
      vertex 0.318077 0.466892 0
      vertex 0 0 0
      vertex 0.313869 0.470603 0
    endloop
  endfacet
  facet normal 0 0 -1
    outer loop
      vertex 0.286404 0.524508 0
      vertex 0 0.714286 0
      vertex 0.285875 0.530092 0
    endloop
  endfacet
  facet normal 0 0 -1
    outer loop
      vertex 0.287281 0.518967 0
      vertex 0 0.714286 0
      vertex 0.286404 0.524508 0
    endloop
  endfacet
  facet normal 0 0 -1
    outer loop
      vertex 0.288505 0.513492 0
      vertex 0 0.714286 0
      vertex 0.287281 0.518967 0
    endloop
  endfacet
  facet normal 0 0 -1
    outer loop
      vertex 0.290071 0.508104 0
      vertex 0 0.714286 0
      vertex 0.288505 0.513492 0
    endloop
  endfacet
  facet normal 0 0 -1
    outer loop
      vertex 0.29197 0.502826 0
      vertex 0 0.714286 0
      vertex 0.290071 0.508104 0
    endloop
  endfacet
  facet normal 0 0 -1
    outer loop
      vertex 0 0.714286 0
      vertex 0.29197 0.502826 0
      vertex 0 0 0
    endloop
  endfacet
  facet normal -0 0 -1
    outer loop
      vertex 0.294198 0.497678 0
      vertex 0 0 0
      vertex 0.29197 0.502826 0
    endloop
  endfacet
  facet normal -0 0 -1
    outer loop
      vertex 0.296745 0.492679 0
      vertex 0 0 0
      vertex 0.294198 0.497678 0
    endloop
  endfacet
  facet normal -0 0 -1
    outer loop
      vertex 0.299601 0.48785 0
      vertex 0 0 0
      vertex 0.296745 0.492679 0
    endloop
  endfacet
  facet normal -0 0 -1
    outer loop
      vertex 0.302754 0.483211 0
      vertex 0 0 0
      vertex 0.299601 0.48785 0
    endloop
  endfacet
  facet normal -0 0 -1
    outer loop
      vertex 0.306192 0.478778 0
      vertex 0 0 0
      vertex 0.302754 0.483211 0
    endloop
  endfacet
  facet normal -0 0 -1
    outer loop
      vertex 0.309902 0.474569 0
      vertex 0 0 0
      vertex 0.306192 0.478778 0
    endloop
  endfacet
  facet normal -0 0 -1
    outer loop
      vertex 0.313869 0.470603 0
      vertex 0 0 0
      vertex 0.309902 0.474569 0
    endloop
  endfacet
  facet normal 0 0 -1
    outer loop
      vertex 0.464124 0.541306 0
      vertex 0.75 0.714286 0
      vertex 0.464299 0.5357 0
    endloop
  endfacet
  facet normal 0 0 -1
    outer loop
      vertex 0.463595 0.546892 0
      vertex 0.75 0.714286 0
      vertex 0.464124 0.541306 0
    endloop
  endfacet
  facet normal 0 0 -1
    outer loop
      vertex 0.462718 0.552433 0
      vertex 0.75 0.714286 0
      vertex 0.463595 0.546892 0
    endloop
  endfacet
  facet normal 0 0 -1
    outer loop
      vertex 0.461494 0.557907 0
      vertex 0.75 0.714286 0
      vertex 0.462718 0.552433 0
    endloop
  endfacet
  facet normal 0 0 -1
    outer loop
      vertex 0.459929 0.563294 0
      vertex 0.75 0.714286 0
      vertex 0.461494 0.557907 0
    endloop
  endfacet
  facet normal 0 0 -1
    outer loop
      vertex 0.458029 0.568573 0
      vertex 0.75 0.714286 0
      vertex 0.459929 0.563294 0
    endloop
  endfacet
  facet normal 0 0 -1
    outer loop
      vertex 0.455801 0.573722 0
      vertex 0.75 0.714286 0
      vertex 0.458029 0.568573 0
    endloop
  endfacet
  facet normal 0 0 -1
    outer loop
      vertex 0.453254 0.57872 0
      vertex 0.75 0.714286 0
      vertex 0.455801 0.573722 0
    endloop
  endfacet
  facet normal 0 0 -1
    outer loop
      vertex 0.450398 0.583549 0
      vertex 0.75 0.714286 0
      vertex 0.453254 0.57872 0
    endloop
  endfacet
  facet normal 0 0 -1
    outer loop
      vertex 0.447245 0.588189 0
      vertex 0.75 0.714286 0
      vertex 0.450398 0.583549 0
    endloop
  endfacet
  facet normal 0 0 -1
    outer loop
      vertex 0.443807 0.592622 0
      vertex 0.75 0.714286 0
      vertex 0.447245 0.588189 0
    endloop
  endfacet
  facet normal 0 0 -1
    outer loop
      vertex 0.440097 0.596829 0
      vertex 0.75 0.714286 0
      vertex 0.443807 0.592622 0
    endloop
  endfacet
  facet normal 0 0 -1
    outer loop
      vertex 0.43613 0.600797 0
      vertex 0.75 0.714286 0
      vertex 0.440097 0.596829 0
    endloop
  endfacet
  facet normal 0 0 -1
    outer loop
      vertex 0.431922 0.604506 0
      vertex 0.75 0.714286 0
      vertex 0.43613 0.600797 0
    endloop
  endfacet
  facet normal 0 0 -1
    outer loop
      vertex 0.427488 0.607944 0
      vertex 0.75 0.714286 0
      vertex 0.431922 0.604506 0
    endloop
  endfacet
  facet normal 0 0 -1
    outer loop
      vertex 0.422849 0.611098 0
      vertex 0.75 0.714286 0
      vertex 0.427488 0.607944 0
    endloop
  endfacet
  facet normal 0 0 -1
    outer loop
      vertex 0.41802 0.613954 0
      vertex 0.75 0.714286 0
      vertex 0.422849 0.611098 0
    endloop
  endfacet
  facet normal 0 0 -1
    outer loop
      vertex 0.413022 0.616501 0
      vertex 0.75 0.714286 0
      vertex 0.41802 0.613954 0
    endloop
  endfacet
  facet normal 0 0 -1
    outer loop
      vertex 0.407873 0.618729 0
      vertex 0.75 0.714286 0
      vertex 0.413022 0.616501 0
    endloop
  endfacet
  facet normal 0 0 -1
    outer loop
      vertex 0.402595 0.620629 0
      vertex 0.75 0.714286 0
      vertex 0.407873 0.618729 0
    endloop
  endfacet
  facet normal 0 0 -1
    outer loop
      vertex 0.397207 0.622194 0
      vertex 0.75 0.714286 0
      vertex 0.402595 0.620629 0
    endloop
  endfacet
  facet normal 0 0 -1
    outer loop
      vertex 0.391732 0.623418 0
      vertex 0.75 0.714286 0
      vertex 0.397207 0.622194 0
    endloop
  endfacet
  facet normal 0 0 -1
    outer loop
      vertex 0.386191 0.624295 0
      vertex 0.75 0.714286 0
      vertex 0.391732 0.623418 0
    endloop
  endfacet
  facet normal 0 0 -1
    outer loop
      vertex 0.380607 0.624824 0
      vertex 0.75 0.714286 0
      vertex 0.386191 0.624295 0
    endloop
  endfacet
  facet normal 0 0 -1
    outer loop
      vertex 0.375 0.625 0
      vertex 0.75 0.714286 0
      vertex 0.380607 0.624824 0
    endloop
  endfacet
  facet normal 0 0 -1
    outer loop
      vertex 0 0.714286 0
      vertex 0.375 0.625 0
      vertex 0.369392 0.624824 0
    endloop
  endfacet
  facet normal 0 0 -1
    outer loop
      vertex 0 0.714286 0
      vertex 0.369392 0.624824 0
      vertex 0.363808 0.624295 0
    endloop
  endfacet
  facet normal 0 0 -1
    outer loop
      vertex 0 0.714286 0
      vertex 0.363808 0.624295 0
      vertex 0.358267 0.623418 0
    endloop
  endfacet
  facet normal 0 0 -1
    outer loop
      vertex 0 0.714286 0
      vertex 0.358267 0.623418 0
      vertex 0.352792 0.622194 0
    endloop
  endfacet
  facet normal 0 0 -1
    outer loop
      vertex 0.285875 0.530092 0
      vertex 0 0.714286 0
      vertex 0.2857 0.5357 0
    endloop
  endfacet
  facet normal 0 0 -1
    outer loop
      vertex 0.2857 0.5357 0
      vertex 0 0.714286 0
      vertex 0.285875 0.541306 0
    endloop
  endfacet
  facet normal 0 0 -1
    outer loop
      vertex 0.285875 0.541306 0
      vertex 0 0.714286 0
      vertex 0.286404 0.546892 0
    endloop
  endfacet
  facet normal 0 0 -1
    outer loop
      vertex 0.286404 0.546892 0
      vertex 0 0.714286 0
      vertex 0.287281 0.552433 0
    endloop
  endfacet
  facet normal 0 0 -1
    outer loop
      vertex 0.287281 0.552433 0
      vertex 0 0.714286 0
      vertex 0.288505 0.557907 0
    endloop
  endfacet
  facet normal 0 0 -1
    outer loop
      vertex 0.288505 0.557907 0
      vertex 0 0.714286 0
      vertex 0.290071 0.563294 0
    endloop
  endfacet
  facet normal 0 0 -1
    outer loop
      vertex 0.290071 0.563294 0
      vertex 0 0.714286 0
      vertex 0.29197 0.568573 0
    endloop
  endfacet
  facet normal 0 0 -1
    outer loop
      vertex 0.29197 0.568573 0
      vertex 0 0.714286 0
      vertex 0.294198 0.573722 0
    endloop
  endfacet
  facet normal 0 0 -1
    outer loop
      vertex 0.375 0.625 0
      vertex 0 0.714286 0
      vertex 0.75 0.714286 0
    endloop
  endfacet
  facet normal 0 0 -1
    outer loop
      vertex 0.347404 0.620629 0
      vertex 0 0.714286 0
      vertex 0.352792 0.622194 0
    endloop
  endfacet
  facet normal 0 0 -1
    outer loop
      vertex 0.342126 0.618729 0
      vertex 0 0.714286 0
      vertex 0.347404 0.620629 0
    endloop
  endfacet
  facet normal 0 0 -1
    outer loop
      vertex 0.336977 0.616501 0
      vertex 0 0.714286 0
      vertex 0.342126 0.618729 0
    endloop
  endfacet
  facet normal 0 0 -1
    outer loop
      vertex 0.331979 0.613954 0
      vertex 0 0.714286 0
      vertex 0.336977 0.616501 0
    endloop
  endfacet
  facet normal 0 0 -1
    outer loop
      vertex 0.32715 0.611098 0
      vertex 0 0.714286 0
      vertex 0.331979 0.613954 0
    endloop
  endfacet
  facet normal 0 0 -1
    outer loop
      vertex 0.322511 0.607944 0
      vertex 0 0.714286 0
      vertex 0.32715 0.611098 0
    endloop
  endfacet
  facet normal 0 0 -1
    outer loop
      vertex 0.318077 0.604506 0
      vertex 0 0.714286 0
      vertex 0.322511 0.607944 0
    endloop
  endfacet
  facet normal 0 0 -1
    outer loop
      vertex 0.313869 0.600797 0
      vertex 0 0.714286 0
      vertex 0.318077 0.604506 0
    endloop
  endfacet
  facet normal 0 0 -1
    outer loop
      vertex 0.309902 0.596829 0
      vertex 0 0.714286 0
      vertex 0.313869 0.600797 0
    endloop
  endfacet
  facet normal 0 0 -1
    outer loop
      vertex 0.306192 0.592622 0
      vertex 0 0.714286 0
      vertex 0.309902 0.596829 0
    endloop
  endfacet
  facet normal 0 0 -1
    outer loop
      vertex 0.302754 0.588189 0
      vertex 0 0.714286 0
      vertex 0.306192 0.592622 0
    endloop
  endfacet
  facet normal 0 0 -1
    outer loop
      vertex 0.299601 0.583549 0
      vertex 0 0.714286 0
      vertex 0.302754 0.588189 0
    endloop
  endfacet
  facet normal 0 0 -1
    outer loop
      vertex 0.296745 0.57872 0
      vertex 0 0.714286 0
      vertex 0.299601 0.583549 0
    endloop
  endfacet
  facet normal 0 0 -1
    outer loop
      vertex 0.294198 0.573722 0
      vertex 0 0.714286 0
      vertex 0.296745 0.57872 0
    endloop
  endfacet
  facet normal 0 -1 0
    outer loop
      vertex 0 0 0
      vertex 0.75 0 0.25
      vertex 0 0 0.25
    endloop
  endfacet
  facet normal 0 -1 -0
    outer loop
      vertex 0.75 0 0.25
      vertex 0 0 0
      vertex 0.75 0 0
    endloop
  endfacet
  facet normal -0.999513 -0.0312014 0
    outer loop
      vertex 0.464299 0.5357 0
      vertex 0.464124 0.541306 0.25
      vertex 0.464124 0.541306 0
    endloop
  endfacet
  facet normal -0.999513 -0.0312014 0
    outer loop
      vertex 0.464124 0.541306 0.25
      vertex 0.464299 0.5357 0
      vertex 0.464299 0.5357 0.25
    endloop
  endfacet
  facet normal 0.0313683 -0.999508 0
    outer loop
      vertex 0.369392 0.624824 0
      vertex 0.375 0.625 0.25
      vertex 0.369392 0.624824 0.25
    endloop
  endfacet
  facet normal 0.0313683 -0.999508 0
    outer loop
      vertex 0.375 0.625 0.25
      vertex 0.369392 0.624824 0
      vertex 0.375 0.625 0
    endloop
  endfacet
  facet normal -0.0313739 0.999508 0
    outer loop
      vertex 0.380607 0.446576 0
      vertex 0.375 0.4464 0.25
      vertex 0.380607 0.446576 0.25
    endloop
  endfacet
  facet normal -0.0313739 0.999508 0
    outer loop
      vertex 0.375 0.4464 0.25
      vertex 0.380607 0.446576 0
      vertex 0.375 0.4464 0
    endloop
  endfacet
  facet normal -0.661226 -0.750186 0
    outer loop
      vertex 0.431922 0.604506 0
      vertex 0.43613 0.600797 0.25
      vertex 0.431922 0.604506 0.25
    endloop
  endfacet
  facet normal -0.661226 -0.750186 -0
    outer loop
      vertex 0.43613 0.600797 0.25
      vertex 0.431922 0.604506 0
      vertex 0.43613 0.600797 0
    endloop
  endfacet
  facet normal 0.75002 -0.661415 0
    outer loop
      vertex 0.306192 0.592622 0.25
      vertex 0.309902 0.596829 0
      vertex 0.309902 0.596829 0.25
    endloop
  endfacet
  facet normal 0.75002 -0.661415 0
    outer loop
      vertex 0.309902 0.596829 0
      vertex 0.306192 0.592622 0.25
      vertex 0.306192 0.592622 0
    endloop
  endfacet
  facet normal 0.397122 -0.917766 0
    outer loop
      vertex 0.336977 0.616501 0
      vertex 0.342126 0.618729 0.25
      vertex 0.336977 0.616501 0.25
    endloop
  endfacet
  facet normal 0.397122 -0.917766 0
    outer loop
      vertex 0.342126 0.618729 0.25
      vertex 0.336977 0.616501 0
      vertex 0.342126 0.618729 0
    endloop
  endfacet
  facet normal -0.917766 -0.397122 0
    outer loop
      vertex 0.458029 0.568573 0
      vertex 0.455801 0.573722 0.25
      vertex 0.455801 0.573722 0
    endloop
  endfacet
  facet normal -0.917766 -0.397122 0
    outer loop
      vertex 0.455801 0.573722 0.25
      vertex 0.458029 0.568573 0
      vertex 0.458029 0.568573 0.25
    endloop
  endfacet
  facet normal -0.338707 -0.940892 0
    outer loop
      vertex 0.402595 0.620629 0
      vertex 0.407873 0.618729 0.25
      vertex 0.402595 0.620629 0.25
    endloop
  endfacet
  facet normal -0.338707 -0.940892 -0
    outer loop
      vertex 0.407873 0.618729 0.25
      vertex 0.402595 0.620629 0
      vertex 0.407873 0.618729 0
    endloop
  endfacet
  facet normal -0.50906 -0.860731 0
    outer loop
      vertex 0.41802 0.613954 0
      vertex 0.422849 0.611098 0.25
      vertex 0.41802 0.613954 0.25
    endloop
  endfacet
  facet normal -0.50906 -0.860731 -0
    outer loop
      vertex 0.422849 0.611098 0.25
      vertex 0.41802 0.613954 0
      vertex 0.422849 0.611098 0
    endloop
  endfacet
  facet normal 0.940969 -0.338492 0
    outer loop
      vertex 0.290071 0.563294 0.25
      vertex 0.29197 0.568573 0
      vertex 0.29197 0.568573 0.25
    endloop
  endfacet
  facet normal 0.940969 -0.338492 0
    outer loop
      vertex 0.29197 0.568573 0
      vertex 0.290071 0.563294 0.25
      vertex 0.290071 0.563294 0
    endloop
  endfacet
  facet normal 0.827109 -0.562042 0
    outer loop
      vertex 0.299601 0.583549 0.25
      vertex 0.302754 0.588189 0
      vertex 0.302754 0.588189 0.25
    endloop
  endfacet
  facet normal 0.827109 -0.562042 0
    outer loop
      vertex 0.302754 0.588189 0
      vertex 0.299601 0.583549 0.25
      vertex 0.299601 0.583549 0
    endloop
  endfacet
  facet normal 0.218176 -0.975909 0
    outer loop
      vertex 0.352792 0.622194 0
      vertex 0.358267 0.623418 0.25
      vertex 0.352792 0.622194 0.25
    endloop
  endfacet
  facet normal 0.218176 -0.975909 0
    outer loop
      vertex 0.358267 0.623418 0.25
      vertex 0.352792 0.622194 0
      vertex 0.358267 0.623418 0
    endloop
  endfacet
  facet normal -0.218176 0.975909 0
    outer loop
      vertex 0.397207 0.449205 0
      vertex 0.391732 0.447981 0.25
      vertex 0.397207 0.449205 0.25
    endloop
  endfacet
  facet normal -0.218176 0.975909 0
    outer loop
      vertex 0.391732 0.447981 0.25
      vertex 0.397207 0.449205 0
      vertex 0.391732 0.447981 0
    endloop
  endfacet
  facet normal -0.975901 -0.218214 0
    outer loop
      vertex 0.462718 0.552433 0
      vertex 0.461494 0.557907 0.25
      vertex 0.461494 0.557907 0
    endloop
  endfacet
  facet normal -0.975901 -0.218214 0
    outer loop
      vertex 0.461494 0.557907 0.25
      vertex 0.462718 0.552433 0
      vertex 0.462718 0.552433 0.25
    endloop
  endfacet
  facet normal -0.790206 -0.612842 0
    outer loop
      vertex 0.447245 0.588189 0
      vertex 0.443807 0.592622 0.25
      vertex 0.443807 0.592622 0
    endloop
  endfacet
  facet normal -0.790206 -0.612842 0
    outer loop
      vertex 0.443807 0.592622 0.25
      vertex 0.447245 0.588189 0
      vertex 0.447245 0.588189 0.25
    endloop
  endfacet
  facet normal -0.75002 -0.661415 0
    outer loop
      vertex 0.443807 0.592622 0
      vertex 0.440097 0.596829 0.25
      vertex 0.440097 0.596829 0
    endloop
  endfacet
  facet normal -0.75002 -0.661415 0
    outer loop
      vertex 0.440097 0.596829 0.25
      vertex 0.443807 0.592622 0
      vertex 0.443807 0.592622 0.25
    endloop
  endfacet
  facet normal -0.860731 -0.50906 0
    outer loop
      vertex 0.453254 0.57872 0
      vertex 0.450398 0.583549 0.25
      vertex 0.450398 0.583549 0
    endloop
  endfacet
  facet normal -0.860731 -0.50906 0
    outer loop
      vertex 0.450398 0.583549 0.25
      vertex 0.453254 0.57872 0
      vertex 0.453254 0.57872 0.25
    endloop
  endfacet
  facet normal -0.156329 -0.987705 0
    outer loop
      vertex 0.386191 0.624295 0
      vertex 0.391732 0.623418 0.25
      vertex 0.386191 0.624295 0.25
    endloop
  endfacet
  facet normal -0.156329 -0.987705 -0
    outer loop
      vertex 0.391732 0.623418 0.25
      vertex 0.386191 0.624295 0
      vertex 0.391732 0.623418 0
    endloop
  endfacet
  facet normal -0.278932 -0.960311 0
    outer loop
      vertex 0.397207 0.622194 0
      vertex 0.402595 0.620629 0.25
      vertex 0.397207 0.622194 0.25
    endloop
  endfacet
  facet normal -0.278932 -0.960311 -0
    outer loop
      vertex 0.402595 0.620629 0.25
      vertex 0.397207 0.622194 0
      vertex 0.402595 0.620629 0
    endloop
  endfacet
  facet normal -0.454046 -0.890978 0
    outer loop
      vertex 0.413022 0.616501 0
      vertex 0.41802 0.613954 0.25
      vertex 0.413022 0.616501 0.25
    endloop
  endfacet
  facet normal -0.454046 -0.890978 -0
    outer loop
      vertex 0.41802 0.613954 0.25
      vertex 0.413022 0.616501 0
      vertex 0.41802 0.613954 0
    endloop
  endfacet
  facet normal -0.562247 -0.82697 0
    outer loop
      vertex 0.422849 0.611098 0
      vertex 0.427488 0.607944 0.25
      vertex 0.422849 0.611098 0.25
    endloop
  endfacet
  facet normal -0.562247 -0.82697 -0
    outer loop
      vertex 0.427488 0.607944 0.25
      vertex 0.422849 0.611098 0
      vertex 0.427488 0.607944 0
    endloop
  endfacet
  facet normal 0.975901 -0.218214 0
    outer loop
      vertex 0.287281 0.552433 0.25
      vertex 0.288505 0.557907 0
      vertex 0.288505 0.557907 0.25
    endloop
  endfacet
  facet normal 0.975901 -0.218214 0
    outer loop
      vertex 0.288505 0.557907 0
      vertex 0.287281 0.552433 0.25
      vertex 0.287281 0.552433 0
    endloop
  endfacet
  facet normal 0.860731 -0.50906 0
    outer loop
      vertex 0.296745 0.57872 0.25
      vertex 0.299601 0.583549 0
      vertex 0.299601 0.583549 0.25
    endloop
  endfacet
  facet normal 0.860731 -0.50906 0
    outer loop
      vertex 0.299601 0.583549 0
      vertex 0.296745 0.57872 0.25
      vertex 0.296745 0.57872 0
    endloop
  endfacet
  facet normal 0.890978 -0.454046 0
    outer loop
      vertex 0.294198 0.573722 0.25
      vertex 0.296745 0.57872 0
      vertex 0.296745 0.57872 0.25
    endloop
  endfacet
  facet normal 0.890978 -0.454046 0
    outer loop
      vertex 0.296745 0.57872 0
      vertex 0.294198 0.573722 0.25
      vertex 0.294198 0.573722 0
    endloop
  endfacet
  facet normal 0.960249 -0.279144 0
    outer loop
      vertex 0.288505 0.557907 0.25
      vertex 0.290071 0.563294 0
      vertex 0.290071 0.563294 0.25
    endloop
  endfacet
  facet normal 0.960249 -0.279144 0
    outer loop
      vertex 0.290071 0.563294 0
      vertex 0.288505 0.557907 0.25
      vertex 0.288505 0.557907 0
    endloop
  endfacet
  facet normal 0.995546 -0.0942792 0
    outer loop
      vertex 0.285875 0.541306 0.25
      vertex 0.286404 0.546892 0
      vertex 0.286404 0.546892 0.25
    endloop
  endfacet
  facet normal 0.995546 -0.0942792 0
    outer loop
      vertex 0.286404 0.546892 0
      vertex 0.285875 0.541306 0.25
      vertex 0.285875 0.541306 0
    endloop
  endfacet
  facet normal 0.562247 -0.82697 0
    outer loop
      vertex 0.322511 0.607944 0
      vertex 0.32715 0.611098 0.25
      vertex 0.322511 0.607944 0.25
    endloop
  endfacet
  facet normal 0.562247 -0.82697 0
    outer loop
      vertex 0.32715 0.611098 0.25
      vertex 0.322511 0.607944 0
      vertex 0.32715 0.611098 0
    endloop
  endfacet
  facet normal 0.50906 -0.860731 0
    outer loop
      vertex 0.32715 0.611098 0
      vertex 0.331979 0.613954 0.25
      vertex 0.32715 0.611098 0.25
    endloop
  endfacet
  facet normal 0.50906 -0.860731 0
    outer loop
      vertex 0.331979 0.613954 0.25
      vertex 0.32715 0.611098 0
      vertex 0.331979 0.613954 0
    endloop
  endfacet
  facet normal 0.661226 -0.750186 0
    outer loop
      vertex 0.313869 0.600797 0
      vertex 0.318077 0.604506 0.25
      vertex 0.313869 0.600797 0.25
    endloop
  endfacet
  facet normal 0.661226 -0.750186 0
    outer loop
      vertex 0.318077 0.604506 0.25
      vertex 0.313869 0.600797 0
      vertex 0.318077 0.604506 0
    endloop
  endfacet
  facet normal 0.278932 -0.960311 0
    outer loop
      vertex 0.347404 0.620629 0
      vertex 0.352792 0.622194 0.25
      vertex 0.347404 0.620629 0.25
    endloop
  endfacet
  facet normal 0.278932 -0.960311 0
    outer loop
      vertex 0.352792 0.622194 0.25
      vertex 0.347404 0.620629 0
      vertex 0.352792 0.622194 0
    endloop
  endfacet
  facet normal 0.156329 -0.987705 0
    outer loop
      vertex 0.358267 0.623418 0
      vertex 0.363808 0.624295 0.25
      vertex 0.358267 0.623418 0.25
    endloop
  endfacet
  facet normal 0.156329 -0.987705 0
    outer loop
      vertex 0.363808 0.624295 0.25
      vertex 0.358267 0.623418 0
      vertex 0.363808 0.624295 0
    endloop
  endfacet
  facet normal -0.453904 0.89105 0
    outer loop
      vertex 0.41802 0.457445 0
      vertex 0.413022 0.454899 0.25
      vertex 0.41802 0.457445 0.25
    endloop
  endfacet
  facet normal -0.453904 0.89105 0
    outer loop
      vertex 0.413022 0.454899 0.25
      vertex 0.41802 0.457445 0
      vertex 0.413022 0.454899 0
    endloop
  endfacet
  facet normal -0.397272 0.917701 0
    outer loop
      vertex 0.413022 0.454899 0
      vertex 0.407873 0.45267 0.25
      vertex 0.413022 0.454899 0.25
    endloop
  endfacet
  facet normal -0.397272 0.917701 0
    outer loop
      vertex 0.407873 0.45267 0.25
      vertex 0.413022 0.454899 0
      vertex 0.407873 0.45267 0
    endloop
  endfacet
  facet normal -0.940892 0.338707 0
    outer loop
      vertex 0.458029 0.502826 0
      vertex 0.459929 0.508104 0.25
      vertex 0.459929 0.508104 0
    endloop
  endfacet
  facet normal -0.940892 0.338707 0
    outer loop
      vertex 0.459929 0.508104 0.25
      vertex 0.458029 0.502826 0
      vertex 0.458029 0.502826 0.25
    endloop
  endfacet
  facet normal -0.987705 -0.156329 0
    outer loop
      vertex 0.463595 0.546892 0
      vertex 0.462718 0.552433 0.25
      vertex 0.462718 0.552433 0
    endloop
  endfacet
  facet normal -0.987705 -0.156329 0
    outer loop
      vertex 0.462718 0.552433 0.25
      vertex 0.463595 0.546892 0
      vertex 0.463595 0.546892 0.25
    endloop
  endfacet
  facet normal -0.995546 -0.0942792 0
    outer loop
      vertex 0.464124 0.541306 0
      vertex 0.463595 0.546892 0.25
      vertex 0.463595 0.546892 0
    endloop
  endfacet
  facet normal -0.995546 -0.0942792 0
    outer loop
      vertex 0.463595 0.546892 0.25
      vertex 0.464124 0.541306 0
      vertex 0.464124 0.541306 0.25
    endloop
  endfacet
  facet normal -0.940912 -0.33865 0
    outer loop
      vertex 0.459929 0.563294 0
      vertex 0.458029 0.568573 0.25
      vertex 0.458029 0.568573 0
    endloop
  endfacet
  facet normal -0.940912 -0.33865 0
    outer loop
      vertex 0.458029 0.568573 0.25
      vertex 0.459929 0.563294 0
      vertex 0.459929 0.563294 0.25
    endloop
  endfacet
  facet normal -0.960297 -0.27898 0
    outer loop
      vertex 0.461494 0.557907 0
      vertex 0.459929 0.563294 0.25
      vertex 0.459929 0.563294 0
    endloop
  endfacet
  facet normal -0.960297 -0.27898 0
    outer loop
      vertex 0.459929 0.563294 0.25
      vertex 0.461494 0.557907 0
      vertex 0.461494 0.557907 0.25
    endloop
  endfacet
  facet normal -0.707196 -0.707018 0
    outer loop
      vertex 0.440097 0.596829 0
      vertex 0.43613 0.600797 0.25
      vertex 0.43613 0.600797 0
    endloop
  endfacet
  facet normal -0.707196 -0.707018 0
    outer loop
      vertex 0.43613 0.600797 0.25
      vertex 0.440097 0.596829 0
      vertex 0.440097 0.596829 0.25
    endloop
  endfacet
  facet normal -0.827109 -0.562042 0
    outer loop
      vertex 0.450398 0.583549 0
      vertex 0.447245 0.588189 0.25
      vertex 0.447245 0.588189 0
    endloop
  endfacet
  facet normal -0.827109 -0.562042 0
    outer loop
      vertex 0.447245 0.588189 0.25
      vertex 0.450398 0.583549 0
      vertex 0.450398 0.583549 0.25
    endloop
  endfacet
  facet normal -0.890978 -0.454046 0
    outer loop
      vertex 0.455801 0.573722 0
      vertex 0.453254 0.57872 0.25
      vertex 0.453254 0.57872 0
    endloop
  endfacet
  facet normal -0.890978 -0.454046 0
    outer loop
      vertex 0.453254 0.57872 0.25
      vertex 0.455801 0.573722 0
      vertex 0.455801 0.573722 0.25
    endloop
  endfacet
  facet normal -0.218176 -0.975909 0
    outer loop
      vertex 0.391732 0.623418 0
      vertex 0.397207 0.622194 0.25
      vertex 0.391732 0.623418 0.25
    endloop
  endfacet
  facet normal -0.218176 -0.975909 -0
    outer loop
      vertex 0.397207 0.622194 0.25
      vertex 0.391732 0.623418 0
      vertex 0.397207 0.622194 0
    endloop
  endfacet
  facet normal -0.0943127 -0.995543 0
    outer loop
      vertex 0.380607 0.624824 0
      vertex 0.386191 0.624295 0.25
      vertex 0.380607 0.624824 0.25
    endloop
  endfacet
  facet normal -0.0943127 -0.995543 -0
    outer loop
      vertex 0.386191 0.624295 0.25
      vertex 0.380607 0.624824 0
      vertex 0.386191 0.624295 0
    endloop
  endfacet
  facet normal -0.0313739 -0.999508 0
    outer loop
      vertex 0.375 0.625 0
      vertex 0.380607 0.624824 0.25
      vertex 0.375 0.625 0.25
    endloop
  endfacet
  facet normal -0.0313739 -0.999508 -0
    outer loop
      vertex 0.380607 0.624824 0.25
      vertex 0.375 0.625 0
      vertex 0.380607 0.624824 0
    endloop
  endfacet
  facet normal -0.397122 -0.917766 0
    outer loop
      vertex 0.407873 0.618729 0
      vertex 0.413022 0.616501 0.25
      vertex 0.407873 0.618729 0.25
    endloop
  endfacet
  facet normal -0.397122 -0.917766 -0
    outer loop
      vertex 0.413022 0.616501 0.25
      vertex 0.407873 0.618729 0
      vertex 0.413022 0.616501 0
    endloop
  endfacet
  facet normal -0.612755 -0.790273 0
    outer loop
      vertex 0.427488 0.607944 0
      vertex 0.431922 0.604506 0.25
      vertex 0.427488 0.607944 0.25
    endloop
  endfacet
  facet normal -0.612755 -0.790273 -0
    outer loop
      vertex 0.431922 0.604506 0.25
      vertex 0.427488 0.607944 0
      vertex 0.431922 0.604506 0
    endloop
  endfacet
  facet normal 0.987705 -0.156329 0
    outer loop
      vertex 0.286404 0.546892 0.25
      vertex 0.287281 0.552433 0
      vertex 0.287281 0.552433 0.25
    endloop
  endfacet
  facet normal 0.987705 -0.156329 0
    outer loop
      vertex 0.287281 0.552433 0
      vertex 0.286404 0.546892 0.25
      vertex 0.286404 0.546892 0
    endloop
  endfacet
  facet normal 0.999513 -0.0312014 0
    outer loop
      vertex 0.2857 0.5357 0.25
      vertex 0.285875 0.541306 0
      vertex 0.285875 0.541306 0.25
    endloop
  endfacet
  facet normal 0.999513 -0.0312014 0
    outer loop
      vertex 0.285875 0.541306 0
      vertex 0.2857 0.5357 0.25
      vertex 0.2857 0.5357 0
    endloop
  endfacet
  facet normal 0.612755 -0.790273 0
    outer loop
      vertex 0.318077 0.604506 0
      vertex 0.322511 0.607944 0.25
      vertex 0.318077 0.604506 0.25
    endloop
  endfacet
  facet normal 0.612755 -0.790273 0
    outer loop
      vertex 0.322511 0.607944 0.25
      vertex 0.318077 0.604506 0
      vertex 0.322511 0.607944 0
    endloop
  endfacet
  facet normal 0.0943127 -0.995543 0
    outer loop
      vertex 0.363808 0.624295 0
      vertex 0.369392 0.624824 0.25
      vertex 0.363808 0.624295 0.25
    endloop
  endfacet
  facet normal 0.0943127 -0.995543 0
    outer loop
      vertex 0.369392 0.624824 0.25
      vertex 0.363808 0.624295 0
      vertex 0.369392 0.624824 0
    endloop
  endfacet
  facet normal -0.999513 0.0311902 0
    outer loop
      vertex 0.464124 0.530092 0
      vertex 0.464299 0.5357 0.25
      vertex 0.464299 0.5357 0
    endloop
  endfacet
  facet normal -0.999513 0.0311902 0
    outer loop
      vertex 0.464299 0.5357 0.25
      vertex 0.464124 0.530092 0
      vertex 0.464124 0.530092 0.25
    endloop
  endfacet
  facet normal -0.612755 0.790273 0
    outer loop
      vertex 0.431922 0.466892 0
      vertex 0.427488 0.463454 0.25
      vertex 0.431922 0.466892 0.25
    endloop
  endfacet
  facet normal -0.612755 0.790273 0
    outer loop
      vertex 0.427488 0.463454 0.25
      vertex 0.431922 0.466892 0
      vertex 0.427488 0.463454 0
    endloop
  endfacet
  facet normal -0.338707 0.940892 0
    outer loop
      vertex 0.407873 0.45267 0
      vertex 0.402595 0.45077 0.25
      vertex 0.407873 0.45267 0.25
    endloop
  endfacet
  facet normal -0.338707 0.940892 0
    outer loop
      vertex 0.402595 0.45077 0.25
      vertex 0.407873 0.45267 0
      vertex 0.402595 0.45077 0
    endloop
  endfacet
  facet normal -0.750176 0.661238 0
    outer loop
      vertex 0.440097 0.474569 0
      vertex 0.443807 0.478778 0.25
      vertex 0.443807 0.478778 0
    endloop
  endfacet
  facet normal -0.750176 0.661238 0
    outer loop
      vertex 0.443807 0.478778 0.25
      vertex 0.440097 0.474569 0
      vertex 0.440097 0.474569 0.25
    endloop
  endfacet
  facet normal -0.917738 0.397187 0
    outer loop
      vertex 0.455801 0.497678 0
      vertex 0.458029 0.502826 0.25
      vertex 0.458029 0.502826 0
    endloop
  endfacet
  facet normal -0.917738 0.397187 0
    outer loop
      vertex 0.458029 0.502826 0.25
      vertex 0.455801 0.497678 0
      vertex 0.455801 0.497678 0.25
    endloop
  endfacet
  facet normal -0.975909 0.218176 0
    outer loop
      vertex 0.461494 0.513492 0
      vertex 0.462718 0.518967 0.25
      vertex 0.462718 0.518967 0
    endloop
  endfacet
  facet normal -0.975909 0.218176 0
    outer loop
      vertex 0.462718 0.518967 0.25
      vertex 0.461494 0.513492 0
      vertex 0.461494 0.513492 0.25
    endloop
  endfacet
  facet normal -0.960311 0.278932 0
    outer loop
      vertex 0.459929 0.508104 0
      vertex 0.461494 0.513492 0.25
      vertex 0.461494 0.513492 0
    endloop
  endfacet
  facet normal -0.960311 0.278932 0
    outer loop
      vertex 0.461494 0.513492 0.25
      vertex 0.459929 0.508104 0
      vertex 0.459929 0.508104 0.25
    endloop
  endfacet
  facet normal 0.790206 -0.612842 0
    outer loop
      vertex 0.302754 0.588189 0.25
      vertex 0.306192 0.592622 0
      vertex 0.306192 0.592622 0.25
    endloop
  endfacet
  facet normal 0.790206 -0.612842 0
    outer loop
      vertex 0.306192 0.592622 0
      vertex 0.302754 0.588189 0.25
      vertex 0.302754 0.588189 0
    endloop
  endfacet
  facet normal 0.917766 -0.397122 0
    outer loop
      vertex 0.29197 0.568573 0.25
      vertex 0.294198 0.573722 0
      vertex 0.294198 0.573722 0.25
    endloop
  endfacet
  facet normal 0.917766 -0.397122 0
    outer loop
      vertex 0.294198 0.573722 0
      vertex 0.29197 0.568573 0.25
      vertex 0.29197 0.568573 0
    endloop
  endfacet
  facet normal 0.999513 0.0311902 0
    outer loop
      vertex 0.285875 0.530092 0.25
      vertex 0.2857 0.5357 0
      vertex 0.2857 0.5357 0.25
    endloop
  endfacet
  facet normal 0.999513 0.0311902 0
    outer loop
      vertex 0.2857 0.5357 0
      vertex 0.285875 0.530092 0.25
      vertex 0.285875 0.530092 0
    endloop
  endfacet
  facet normal 0.454046 -0.890978 0
    outer loop
      vertex 0.331979 0.613954 0
      vertex 0.336977 0.616501 0.25
      vertex 0.331979 0.613954 0.25
    endloop
  endfacet
  facet normal 0.454046 -0.890978 0
    outer loop
      vertex 0.336977 0.616501 0.25
      vertex 0.331979 0.613954 0
      vertex 0.336977 0.616501 0
    endloop
  endfacet
  facet normal 0.707196 -0.707018 0
    outer loop
      vertex 0.309902 0.596829 0.25
      vertex 0.313869 0.600797 0
      vertex 0.313869 0.600797 0.25
    endloop
  endfacet
  facet normal 0.707196 -0.707018 0
    outer loop
      vertex 0.313869 0.600797 0
      vertex 0.309902 0.596829 0.25
      vertex 0.309902 0.596829 0
    endloop
  endfacet
  facet normal 0.338707 -0.940892 0
    outer loop
      vertex 0.342126 0.618729 0
      vertex 0.347404 0.620629 0.25
      vertex 0.342126 0.618729 0.25
    endloop
  endfacet
  facet normal 0.338707 -0.940892 0
    outer loop
      vertex 0.347404 0.620629 0.25
      vertex 0.342126 0.618729 0
      vertex 0.347404 0.620629 0
    endloop
  endfacet
  facet normal 0.612755 0.790273 -0
    outer loop
      vertex 0.322511 0.463454 0
      vertex 0.318077 0.466892 0.25
      vertex 0.322511 0.463454 0.25
    endloop
  endfacet
  facet normal 0.612755 0.790273 0
    outer loop
      vertex 0.318077 0.466892 0.25
      vertex 0.322511 0.463454 0
      vertex 0.318077 0.466892 0
    endloop
  endfacet
  facet normal 0.156329 0.987705 -0
    outer loop
      vertex 0.363808 0.447104 0
      vertex 0.358267 0.447981 0.25
      vertex 0.363808 0.447104 0.25
    endloop
  endfacet
  facet normal 0.156329 0.987705 0
    outer loop
      vertex 0.358267 0.447981 0.25
      vertex 0.363808 0.447104 0
      vertex 0.358267 0.447981 0
    endloop
  endfacet
  facet normal 0.790206 0.612842 0
    outer loop
      vertex 0.306192 0.478778 0.25
      vertex 0.302754 0.483211 0
      vertex 0.302754 0.483211 0.25
    endloop
  endfacet
  facet normal 0.790206 0.612842 0
    outer loop
      vertex 0.302754 0.483211 0
      vertex 0.306192 0.478778 0.25
      vertex 0.306192 0.478778 0
    endloop
  endfacet
  facet normal 0.917738 0.397187 0
    outer loop
      vertex 0.294198 0.497678 0.25
      vertex 0.29197 0.502826 0
      vertex 0.29197 0.502826 0.25
    endloop
  endfacet
  facet normal 0.917738 0.397187 0
    outer loop
      vertex 0.29197 0.502826 0
      vertex 0.294198 0.497678 0.25
      vertex 0.294198 0.497678 0
    endloop
  endfacet
  facet normal 0.975909 0.218176 0
    outer loop
      vertex 0.288505 0.513492 0.25
      vertex 0.287281 0.518967 0
      vertex 0.287281 0.518967 0.25
    endloop
  endfacet
  facet normal 0.975909 0.218176 0
    outer loop
      vertex 0.287281 0.518967 0
      vertex 0.288505 0.513492 0.25
      vertex 0.288505 0.513492 0
    endloop
  endfacet
  facet normal -0.50906 0.860731 0
    outer loop
      vertex 0.422849 0.460301 0
      vertex 0.41802 0.457445 0.25
      vertex 0.422849 0.460301 0.25
    endloop
  endfacet
  facet normal -0.50906 0.860731 0
    outer loop
      vertex 0.41802 0.457445 0.25
      vertex 0.422849 0.460301 0
      vertex 0.41802 0.457445 0
    endloop
  endfacet
  facet normal -0.156329 0.987705 0
    outer loop
      vertex 0.391732 0.447981 0
      vertex 0.386191 0.447104 0.25
      vertex 0.391732 0.447981 0.25
    endloop
  endfacet
  facet normal -0.156329 0.987705 0
    outer loop
      vertex 0.386191 0.447104 0.25
      vertex 0.391732 0.447981 0
      vertex 0.386191 0.447104 0
    endloop
  endfacet
  facet normal -0.094136 0.995559 0
    outer loop
      vertex 0.386191 0.447104 0
      vertex 0.380607 0.446576 0.25
      vertex 0.386191 0.447104 0.25
    endloop
  endfacet
  facet normal -0.094136 0.995559 0
    outer loop
      vertex 0.380607 0.446576 0.25
      vertex 0.386191 0.447104 0
      vertex 0.380607 0.446576 0
    endloop
  endfacet
  facet normal -0.661427 0.750009 0
    outer loop
      vertex 0.43613 0.470603 0
      vertex 0.431922 0.466892 0.25
      vertex 0.43613 0.470603 0.25
    endloop
  endfacet
  facet normal -0.661427 0.750009 0
    outer loop
      vertex 0.431922 0.466892 0.25
      vertex 0.43613 0.470603 0
      vertex 0.431922 0.466892 0
    endloop
  endfacet
  facet normal -0.707018 0.707196 0
    outer loop
      vertex 0.440097 0.474569 0
      vertex 0.43613 0.470603 0.25
      vertex 0.440097 0.474569 0.25
    endloop
  endfacet
  facet normal -0.707018 0.707196 0
    outer loop
      vertex 0.43613 0.470603 0.25
      vertex 0.440097 0.474569 0
      vertex 0.43613 0.470603 0
    endloop
  endfacet
  facet normal -0.860731 0.50906 0
    outer loop
      vertex 0.450398 0.48785 0
      vertex 0.453254 0.492679 0.25
      vertex 0.453254 0.492679 0
    endloop
  endfacet
  facet normal -0.860731 0.50906 0
    outer loop
      vertex 0.453254 0.492679 0.25
      vertex 0.450398 0.48785 0
      vertex 0.450398 0.48785 0.25
    endloop
  endfacet
  facet normal -0.790206 0.612842 0
    outer loop
      vertex 0.443807 0.478778 0
      vertex 0.447245 0.483211 0.25
      vertex 0.447245 0.483211 0
    endloop
  endfacet
  facet normal -0.790206 0.612842 0
    outer loop
      vertex 0.447245 0.483211 0.25
      vertex 0.443807 0.478778 0
      vertex 0.443807 0.478778 0.25
    endloop
  endfacet
  facet normal -0.987705 0.156329 0
    outer loop
      vertex 0.462718 0.518967 0
      vertex 0.463595 0.524508 0.25
      vertex 0.463595 0.524508 0
    endloop
  endfacet
  facet normal -0.987705 0.156329 0
    outer loop
      vertex 0.463595 0.524508 0.25
      vertex 0.462718 0.518967 0
      vertex 0.462718 0.518967 0.25
    endloop
  endfacet
  facet normal -0.995543 0.0943127 0
    outer loop
      vertex 0.463595 0.524508 0
      vertex 0.464124 0.530092 0.25
      vertex 0.464124 0.530092 0
    endloop
  endfacet
  facet normal -0.995543 0.0943127 0
    outer loop
      vertex 0.464124 0.530092 0.25
      vertex 0.463595 0.524508 0
      vertex 0.463595 0.524508 0.25
    endloop
  endfacet
  facet normal 0.453904 0.89105 -0
    outer loop
      vertex 0.336977 0.454899 0
      vertex 0.331979 0.457445 0.25
      vertex 0.336977 0.454899 0.25
    endloop
  endfacet
  facet normal 0.453904 0.89105 0
    outer loop
      vertex 0.331979 0.457445 0.25
      vertex 0.336977 0.454899 0
      vertex 0.331979 0.457445 0
    endloop
  endfacet
  facet normal 0.278932 0.960311 -0
    outer loop
      vertex 0.352792 0.449205 0
      vertex 0.347404 0.45077 0.25
      vertex 0.352792 0.449205 0.25
    endloop
  endfacet
  facet normal 0.278932 0.960311 0
    outer loop
      vertex 0.347404 0.45077 0.25
      vertex 0.352792 0.449205 0
      vertex 0.347404 0.45077 0
    endloop
  endfacet
  facet normal 0.094136 0.995559 -0
    outer loop
      vertex 0.369392 0.446576 0
      vertex 0.363808 0.447104 0.25
      vertex 0.369392 0.446576 0.25
    endloop
  endfacet
  facet normal 0.094136 0.995559 0
    outer loop
      vertex 0.363808 0.447104 0.25
      vertex 0.369392 0.446576 0
      vertex 0.363808 0.447104 0
    endloop
  endfacet
  facet normal 0.891015 0.453974 0
    outer loop
      vertex 0.296745 0.492679 0.25
      vertex 0.294198 0.497678 0
      vertex 0.294198 0.497678 0.25
    endloop
  endfacet
  facet normal 0.891015 0.453974 0
    outer loop
      vertex 0.294198 0.497678 0
      vertex 0.296745 0.492679 0.25
      vertex 0.296745 0.492679 0
    endloop
  endfacet
  facet normal 0.661427 0.750009 -0
    outer loop
      vertex 0.318077 0.466892 0
      vertex 0.313869 0.470603 0.25
      vertex 0.318077 0.466892 0.25
    endloop
  endfacet
  facet normal 0.661427 0.750009 0
    outer loop
      vertex 0.313869 0.470603 0.25
      vertex 0.318077 0.466892 0
      vertex 0.313869 0.470603 0
    endloop
  endfacet
  facet normal 0.707018 0.707196 -0
    outer loop
      vertex 0.313869 0.470603 0
      vertex 0.309902 0.474569 0.25
      vertex 0.313869 0.470603 0.25
    endloop
  endfacet
  facet normal 0.707018 0.707196 0
    outer loop
      vertex 0.309902 0.474569 0.25
      vertex 0.313869 0.470603 0
      vertex 0.309902 0.474569 0
    endloop
  endfacet
  facet normal 0.750176 0.661238 0
    outer loop
      vertex 0.309902 0.474569 0.25
      vertex 0.306192 0.478778 0
      vertex 0.306192 0.478778 0.25
    endloop
  endfacet
  facet normal 0.750176 0.661238 0
    outer loop
      vertex 0.306192 0.478778 0
      vertex 0.309902 0.474569 0.25
      vertex 0.309902 0.474569 0
    endloop
  endfacet
  facet normal 0.940949 0.338549 0
    outer loop
      vertex 0.29197 0.502826 0.25
      vertex 0.290071 0.508104 0
      vertex 0.290071 0.508104 0.25
    endloop
  endfacet
  facet normal 0.940949 0.338549 0
    outer loop
      vertex 0.290071 0.508104 0
      vertex 0.29197 0.502826 0.25
      vertex 0.29197 0.502826 0
    endloop
  endfacet
  facet normal 0.960263 0.279097 0
    outer loop
      vertex 0.290071 0.508104 0.25
      vertex 0.288505 0.513492 0
      vertex 0.288505 0.513492 0.25
    endloop
  endfacet
  facet normal 0.960263 0.279097 0
    outer loop
      vertex 0.288505 0.513492 0
      vertex 0.290071 0.508104 0.25
      vertex 0.290071 0.508104 0
    endloop
  endfacet
  facet normal 0.987705 0.156329 0
    outer loop
      vertex 0.287281 0.518967 0.25
      vertex 0.286404 0.524508 0
      vertex 0.286404 0.524508 0.25
    endloop
  endfacet
  facet normal 0.987705 0.156329 0
    outer loop
      vertex 0.286404 0.524508 0
      vertex 0.287281 0.518967 0.25
      vertex 0.287281 0.518967 0
    endloop
  endfacet
  facet normal 0.995543 0.0943127 0
    outer loop
      vertex 0.286404 0.524508 0.25
      vertex 0.285875 0.530092 0
      vertex 0.285875 0.530092 0.25
    endloop
  endfacet
  facet normal 0.995543 0.0943127 0
    outer loop
      vertex 0.285875 0.530092 0
      vertex 0.286404 0.524508 0.25
      vertex 0.286404 0.524508 0
    endloop
  endfacet
  facet normal -0.562125 0.827052 0
    outer loop
      vertex 0.427488 0.463454 0
      vertex 0.422849 0.460301 0.25
      vertex 0.427488 0.463454 0.25
    endloop
  endfacet
  facet normal -0.562125 0.827052 0
    outer loop
      vertex 0.422849 0.460301 0.25
      vertex 0.427488 0.463454 0
      vertex 0.422849 0.460301 0
    endloop
  endfacet
  facet normal -0.278932 0.960311 0
    outer loop
      vertex 0.402595 0.45077 0
      vertex 0.397207 0.449205 0.25
      vertex 0.402595 0.45077 0.25
    endloop
  endfacet
  facet normal -0.278932 0.960311 0
    outer loop
      vertex 0.397207 0.449205 0.25
      vertex 0.402595 0.45077 0
      vertex 0.397207 0.449205 0
    endloop
  endfacet
  facet normal -0.827052 0.562125 0
    outer loop
      vertex 0.447245 0.483211 0
      vertex 0.450398 0.48785 0.25
      vertex 0.450398 0.48785 0
    endloop
  endfacet
  facet normal -0.827052 0.562125 0
    outer loop
      vertex 0.450398 0.48785 0.25
      vertex 0.447245 0.483211 0
      vertex 0.447245 0.483211 0.25
    endloop
  endfacet
  facet normal -0.891015 0.453974 0
    outer loop
      vertex 0.453254 0.492679 0
      vertex 0.455801 0.497678 0.25
      vertex 0.455801 0.497678 0
    endloop
  endfacet
  facet normal -0.891015 0.453974 0
    outer loop
      vertex 0.455801 0.497678 0.25
      vertex 0.453254 0.492679 0
      vertex 0.453254 0.492679 0.25
    endloop
  endfacet
  facet normal 0.562125 0.827052 -0
    outer loop
      vertex 0.32715 0.460301 0
      vertex 0.322511 0.463454 0.25
      vertex 0.32715 0.460301 0.25
    endloop
  endfacet
  facet normal 0.562125 0.827052 0
    outer loop
      vertex 0.322511 0.463454 0.25
      vertex 0.32715 0.460301 0
      vertex 0.322511 0.463454 0
    endloop
  endfacet
  facet normal 0.338707 0.940892 -0
    outer loop
      vertex 0.347404 0.45077 0
      vertex 0.342126 0.45267 0.25
      vertex 0.347404 0.45077 0.25
    endloop
  endfacet
  facet normal 0.338707 0.940892 0
    outer loop
      vertex 0.342126 0.45267 0.25
      vertex 0.347404 0.45077 0
      vertex 0.342126 0.45267 0
    endloop
  endfacet
  facet normal 0.0313683 0.999508 -0
    outer loop
      vertex 0.375 0.4464 0
      vertex 0.369392 0.446576 0.25
      vertex 0.375 0.4464 0.25
    endloop
  endfacet
  facet normal 0.0313683 0.999508 0
    outer loop
      vertex 0.369392 0.446576 0.25
      vertex 0.375 0.4464 0
      vertex 0.369392 0.446576 0
    endloop
  endfacet
  facet normal 0.827052 0.562125 0
    outer loop
      vertex 0.302754 0.483211 0.25
      vertex 0.299601 0.48785 0
      vertex 0.299601 0.48785 0.25
    endloop
  endfacet
  facet normal 0.827052 0.562125 0
    outer loop
      vertex 0.299601 0.48785 0
      vertex 0.302754 0.483211 0.25
      vertex 0.302754 0.483211 0
    endloop
  endfacet
  facet normal 0.218176 0.975909 -0
    outer loop
      vertex 0.358267 0.447981 0
      vertex 0.352792 0.449205 0.25
      vertex 0.358267 0.447981 0.25
    endloop
  endfacet
  facet normal 0.218176 0.975909 0
    outer loop
      vertex 0.352792 0.449205 0.25
      vertex 0.358267 0.447981 0
      vertex 0.352792 0.449205 0
    endloop
  endfacet
  facet normal 0.860731 0.50906 0
    outer loop
      vertex 0.299601 0.48785 0.25
      vertex 0.296745 0.492679 0
      vertex 0.296745 0.492679 0.25
    endloop
  endfacet
  facet normal 0.860731 0.50906 0
    outer loop
      vertex 0.296745 0.492679 0
      vertex 0.299601 0.48785 0.25
      vertex 0.299601 0.48785 0
    endloop
  endfacet
  facet normal 0.50906 0.860731 -0
    outer loop
      vertex 0.331979 0.457445 0
      vertex 0.32715 0.460301 0.25
      vertex 0.331979 0.457445 0.25
    endloop
  endfacet
  facet normal 0.50906 0.860731 0
    outer loop
      vertex 0.32715 0.460301 0.25
      vertex 0.331979 0.457445 0
      vertex 0.32715 0.460301 0
    endloop
  endfacet
  facet normal 0.397272 0.917701 -0
    outer loop
      vertex 0.342126 0.45267 0
      vertex 0.336977 0.454899 0.25
      vertex 0.342126 0.45267 0.25
    endloop
  endfacet
  facet normal 0.397272 0.917701 0
    outer loop
      vertex 0.336977 0.454899 0.25
      vertex 0.342126 0.45267 0
      vertex 0.336977 0.454899 0
    endloop
  endfacet
endsolid OpenSCAD_Model
