solid OpenSCAD_Model
  facet normal -1 0 0
    outer loop
      vertex 0 0.75 0
      vertex 0 0.500038 0.241699
      vertex 0 0.75 0.241699
    endloop
  endfacet
  facet normal -1 0 0
    outer loop
      vertex 0 0.25 0.233399
      vertex 0 0.500038 0.241699
      vertex 0 0.25 0.0166664
    endloop
  endfacet
  facet normal -1 0 0
    outer loop
      vertex 0 0.75 0
      vertex 0 0.25 0.0166664
      vertex 0 0.500038 0.241699
    endloop
  endfacet
  facet normal -1 0 0
    outer loop
      vertex 0 0 0
      vertex 0 0.25 0.0166664
      vertex 0 0.75 0
    endloop
  endfacet
  facet normal -1 -0 0
    outer loop
      vertex 0 0.25 0.0166664
      vertex 0 0 0
      vertex 0 0 0.0166664
    endloop
  endfacet
  facet normal -1 0 0
    outer loop
      vertex 0 0.24922 0.4501
      vertex 0 0.500038 0.241699
      vertex 0 0.25 0.233399
    endloop
  endfacet
  facet normal -1 0 0
    outer loop
      vertex 0 0.24922 0.4501
      vertex 0 0.25 0.233399
      vertex 0 0.24922 0.233399
    endloop
  endfacet
  facet normal -1 0 0
    outer loop
      vertex 0 0.500038 0.241699
      vertex 0 0.24922 0.4501
      vertex 0 0.500038 0.4501
    endloop
  endfacet
  facet normal -0 0 1
    outer loop
      vertex 0 0.75 0.241699
      vertex 0.00829983 0.500038 0.241699
      vertex 0.00829983 0.75 0.241699
    endloop
  endfacet
  facet normal 0 0 1
    outer loop
      vertex 0.00829983 0.500038 0.241699
      vertex 0 0.75 0.241699
      vertex 0 0.500038 0.241699
    endloop
  endfacet
  facet normal 1 -0 0
    outer loop
      vertex 0.00829983 0.25752 0.4501
      vertex 0.00829983 0.491738 0.233399
      vertex 0.00829983 0.491738 0.4501
    endloop
  endfacet
  facet normal 1 0 0
    outer loop
      vertex 0.00829983 0.491738 0.233399
      vertex 0.00829983 0.25752 0.4501
      vertex 0.00829983 0.25752 0.233399
    endloop
  endfacet
  facet normal 1 -0 0
    outer loop
      vertex 0.00829983 0.500038 0.241699
      vertex 0.00829983 0.75 0.233399
      vertex 0.00829983 0.75 0.241699
    endloop
  endfacet
  facet normal 1 0 0
    outer loop
      vertex 0.00829983 0.75 0.233399
      vertex 0.00829983 0.500038 0.241699
      vertex 0.00829983 0.500038 0.233399
    endloop
  endfacet
  facet normal 0 1 0
    outer loop
      vertex 0.5 0.75 0.241699
      vertex 0.491699 0.75 0.233399
      vertex 0.491699 0.75 0.241699
    endloop
  endfacet
  facet normal 0 1 0
    outer loop
      vertex 0.491699 0.75 0.233399
      vertex 0.5 0.75 0
      vertex 0.00829983 0.75 0.233399
    endloop
  endfacet
  facet normal 0 1 -0
    outer loop
      vertex 0.5 0.75 0
      vertex 0.491699 0.75 0.233399
      vertex 0.5 0.75 0.241699
    endloop
  endfacet
  facet normal 0 1 -0
    outer loop
      vertex 0.00829983 0.75 0.233399
      vertex 0 0.75 0.241699
      vertex 0.00829983 0.75 0.241699
    endloop
  endfacet
  facet normal 0 1 0
    outer loop
      vertex 0.00829983 0.75 0.233399
      vertex 0 0.75 0
      vertex 0 0.75 0.241699
    endloop
  endfacet
  facet normal 0 1 0
    outer loop
      vertex 0 0.75 0
      vertex 0.00829983 0.75 0.233399
      vertex 0.5 0.75 0
    endloop
  endfacet
  facet normal 0 0 -1
    outer loop
      vertex 0 0.24922 0.233399
      vertex 0.5 0.25 0.233399
      vertex 0.5 0.24922 0.233399
    endloop
  endfacet
  facet normal -0 0 -1
    outer loop
      vertex 0.5 0.25 0.233399
      vertex 0 0.24922 0.233399
      vertex 0 0.25 0.233399
    endloop
  endfacet
  facet normal -0 0 1
    outer loop
      vertex 0.00829983 0.491738 0.233399
      vertex 0.491699 0.25752 0.233399
      vertex 0.491699 0.491738 0.233399
    endloop
  endfacet
  facet normal 0 0 1
    outer loop
      vertex 0.491699 0.25752 0.233399
      vertex 0.00829983 0.491738 0.233399
      vertex 0.00829983 0.25752 0.233399
    endloop
  endfacet
  facet normal -0 0 1
    outer loop
      vertex 0.00829983 0.75 0.233399
      vertex 0.491699 0.500038 0.233399
      vertex 0.491699 0.75 0.233399
    endloop
  endfacet
  facet normal 0 0 1
    outer loop
      vertex 0.491699 0.500038 0.233399
      vertex 0.00829983 0.75 0.233399
      vertex 0.00829983 0.500038 0.233399
    endloop
  endfacet
  facet normal -1 0 0
    outer loop
      vertex 0.491699 0.25752 0.233399
      vertex 0.491699 0.491738 0.333164
      vertex 0.491699 0.491738 0.233399
    endloop
  endfacet
  facet normal -1 -0 0
    outer loop
      vertex 0.491699 0.491738 0.333164
      vertex 0.491699 0.25752 0.233399
      vertex 0.491699 0.25752 0.333164
    endloop
  endfacet
  facet normal -1 0 0
    outer loop
      vertex 0.491699 0.500038 0.233399
      vertex 0.491699 0.75 0.241699
      vertex 0.491699 0.75 0.233399
    endloop
  endfacet
  facet normal -1 -0 0
    outer loop
      vertex 0.491699 0.75 0.241699
      vertex 0.491699 0.500038 0.233399
      vertex 0.491699 0.500038 0.241699
    endloop
  endfacet
  facet normal -0 0 1
    outer loop
      vertex 0.491699 0.75 0.241699
      vertex 0.5 0.500038 0.241699
      vertex 0.5 0.75 0.241699
    endloop
  endfacet
  facet normal 0 0 1
    outer loop
      vertex 0.5 0.500038 0.241699
      vertex 0.491699 0.75 0.241699
      vertex 0.491699 0.500038 0.241699
    endloop
  endfacet
  facet normal 1 -0 0
    outer loop
      vertex 0.5 0.24922 0.4501
      vertex 0.5 0.25752 0.335264
      vertex 0.5 0.25752 0.4501
    endloop
  endfacet
  facet normal 1 0 0
    outer loop
      vertex 0.5 0.24922 0.233399
      vertex 0.5 0.25752 0.335264
      vertex 0.5 0.24922 0.4501
    endloop
  endfacet
  facet normal 1 0 0
    outer loop
      vertex 0.5 0.25752 0.335264
      vertex 0.5 0.24922 0.233399
      vertex 0.5 0.25 0.233399
    endloop
  endfacet
  facet normal 1 0 0
    outer loop
      vertex 0.5 0.491738 0.335264
      vertex 0.5 0.500038 0.4501
      vertex 0.5 0.491738 0.4501
    endloop
  endfacet
  facet normal 1 -0 0
    outer loop
      vertex 0.5 0.500038 0.241699
      vertex 0.5 0.75 0
      vertex 0.5 0.75 0.241699
    endloop
  endfacet
  facet normal 1 0 0
    outer loop
      vertex 0.5 0.500038 0.4501
      vertex 0.5 0.491738 0.335264
      vertex 0.5 0.500038 0.241699
    endloop
  endfacet
  facet normal 1 -0 0
    outer loop
      vertex 0.5 0.25752 0.335264
      vertex 0.5 0.500038 0.241699
      vertex 0.5 0.491738 0.335264
    endloop
  endfacet
  facet normal 1 0 0
    outer loop
      vertex 0.5 0.25 0.233399
      vertex 0.5 0.500038 0.241699
      vertex 0.5 0.25752 0.335264
    endloop
  endfacet
  facet normal 1 0 0
    outer loop
      vertex 0.5 0.25 0.0166664
      vertex 0.5 0.500038 0.241699
      vertex 0.5 0.25 0.233399
    endloop
  endfacet
  facet normal 1 0 0
    outer loop
      vertex 0.5 0.500038 0.241699
      vertex 0.5 0.25 0.0166664
      vertex 0.5 0.75 0
    endloop
  endfacet
  facet normal 1 0 0
    outer loop
      vertex 0.5 0 0
      vertex 0.5 0.25 0.0166664
      vertex 0.5 0 0.0166664
    endloop
  endfacet
  facet normal 1 0 0
    outer loop
      vertex 0.5 0.25 0.0166664
      vertex 0.5 0 0
      vertex 0.5 0.75 0
    endloop
  endfacet
  facet normal 0 -1 0
    outer loop
      vertex 0 0.24922 0.233399
      vertex 0.5 0.24922 0.4501
      vertex 0 0.24922 0.4501
    endloop
  endfacet
  facet normal 0 -1 -0
    outer loop
      vertex 0.5 0.24922 0.4501
      vertex 0 0.24922 0.233399
      vertex 0.5 0.24922 0.233399
    endloop
  endfacet
  facet normal 0 1 -0
    outer loop
      vertex 0.491699 0.500038 0.233399
      vertex 0.00829983 0.500038 0.241699
      vertex 0.491699 0.500038 0.241699
    endloop
  endfacet
  facet normal 0 1 0
    outer loop
      vertex 0.00829983 0.500038 0.241699
      vertex 0.491699 0.500038 0.233399
      vertex 0.00829983 0.500038 0.233399
    endloop
  endfacet
  facet normal 0 1 0
    outer loop
      vertex 0.491699 0.500038 0.241699
      vertex 0.5 0.500038 0.4501
      vertex 0.5 0.500038 0.241699
    endloop
  endfacet
  facet normal 0 1 0
    outer loop
      vertex 0.5 0.500038 0.4501
      vertex 0.491699 0.500038 0.241699
      vertex 0 0.500038 0.4501
    endloop
  endfacet
  facet normal 0 1 -0
    outer loop
      vertex 0.00829983 0.500038 0.241699
      vertex 0 0.500038 0.4501
      vertex 0.491699 0.500038 0.241699
    endloop
  endfacet
  facet normal 0 1 0
    outer loop
      vertex 0 0.500038 0.4501
      vertex 0.00829983 0.500038 0.241699
      vertex 0 0.500038 0.241699
    endloop
  endfacet
  facet normal 0 0 1
    outer loop
      vertex 0.5 0.500038 0.4501
      vertex 0.00829983 0.491738 0.4501
      vertex 0.5 0.491738 0.4501
    endloop
  endfacet
  facet normal 0 0 1
    outer loop
      vertex 0.00829983 0.491738 0.4501
      vertex 0 0.500038 0.4501
      vertex 0.00829983 0.25752 0.4501
    endloop
  endfacet
  facet normal -0 0 1
    outer loop
      vertex 0 0.500038 0.4501
      vertex 0.00829983 0.491738 0.4501
      vertex 0.5 0.500038 0.4501
    endloop
  endfacet
  facet normal -0 0 1
    outer loop
      vertex 0.00829983 0.25752 0.4501
      vertex 0.5 0.24922 0.4501
      vertex 0.5 0.25752 0.4501
    endloop
  endfacet
  facet normal 0 0 1
    outer loop
      vertex 0.00829983 0.25752 0.4501
      vertex 0 0.24922 0.4501
      vertex 0.5 0.24922 0.4501
    endloop
  endfacet
  facet normal 0 0 1
    outer loop
      vertex 0 0.24922 0.4501
      vertex 0.00829983 0.25752 0.4501
      vertex 0 0.500038 0.4501
    endloop
  endfacet
  facet normal 0 1 0
    outer loop
      vertex 0.491699 0.25752 0.335264
      vertex 0.5 0.25752 0.4501
      vertex 0.5 0.25752 0.335264
    endloop
  endfacet
  facet normal 0 1 0
    outer loop
      vertex 0.5 0.25752 0.4501
      vertex 0.491699 0.25752 0.335264
      vertex 0.00829983 0.25752 0.4501
    endloop
  endfacet
  facet normal 0 1 0
    outer loop
      vertex 0.00829983 0.25752 0.233399
      vertex 0.491699 0.25752 0.335264
      vertex 0.491699 0.25752 0.333164
    endloop
  endfacet
  facet normal 0 1 0
    outer loop
      vertex 0.00829983 0.25752 0.233399
      vertex 0.491699 0.25752 0.333164
      vertex 0.491699 0.25752 0.233399
    endloop
  endfacet
  facet normal 0 1 0
    outer loop
      vertex 0.491699 0.25752 0.335264
      vertex 0.00829983 0.25752 0.233399
      vertex 0.00829983 0.25752 0.4501
    endloop
  endfacet
  facet normal 0 -1 0
    outer loop
      vertex 0.00829983 0.491738 0.4501
      vertex 0.491699 0.491738 0.335264
      vertex 0.5 0.491738 0.4501
    endloop
  endfacet
  facet normal 0 -1 0
    outer loop
      vertex 0.00829983 0.491738 0.233399
      vertex 0.491699 0.491738 0.335264
      vertex 0.00829983 0.491738 0.4501
    endloop
  endfacet
  facet normal 0 -1 -0
    outer loop
      vertex 0.491699 0.491738 0.335264
      vertex 0.00829983 0.491738 0.233399
      vertex 0.491699 0.491738 0.333164
    endloop
  endfacet
  facet normal 0 -1 -0
    outer loop
      vertex 0.491699 0.491738 0.333164
      vertex 0.00829983 0.491738 0.233399
      vertex 0.491699 0.491738 0.233399
    endloop
  endfacet
  facet normal 0 -1 -0
    outer loop
      vertex 0.5 0.491738 0.4501
      vertex 0.491699 0.491738 0.335264
      vertex 0.5 0.491738 0.335264
    endloop
  endfacet
  facet normal -0 0 1
    outer loop
      vertex 0.491699 0.491738 0.335264
      vertex 0.5 0.25752 0.335264
      vertex 0.5 0.491738 0.335264
    endloop
  endfacet
  facet normal 0 0 1
    outer loop
      vertex 0.5 0.25752 0.335264
      vertex 0.491699 0.491738 0.335264
      vertex 0.491699 0.25752 0.335264
    endloop
  endfacet
  facet normal -1 0 0
    outer loop
      vertex 0.491699 0.25752 0.333164
      vertex 0.491699 0.491738 0.335264
      vertex 0.491699 0.491738 0.333164
    endloop
  endfacet
  facet normal -1 -0 0
    outer loop
      vertex 0.491699 0.491738 0.335264
      vertex 0.491699 0.25752 0.333164
      vertex 0.491699 0.25752 0.335264
    endloop
  endfacet
  facet normal -0 0 1
    outer loop
      vertex 0 0.25 0.0166664
      vertex 0.5 0 0.0166664
      vertex 0.5 0.25 0.0166664
    endloop
  endfacet
  facet normal 0 0 1
    outer loop
      vertex 0.5 0 0.0166664
      vertex 0 0.25 0.0166664
      vertex 0 0 0.0166664
    endloop
  endfacet
  facet normal 0 0 -1
    outer loop
      vertex 0 0 0
      vertex 0.5 0.75 0
      vertex 0.5 0 0
    endloop
  endfacet
  facet normal -0 0 -1
    outer loop
      vertex 0.5 0.75 0
      vertex 0 0 0
      vertex 0 0.75 0
    endloop
  endfacet
  facet normal 0 -1 0
    outer loop
      vertex 0 0 0
      vertex 0.5 0 0.0166664
      vertex 0 0 0.0166664
    endloop
  endfacet
  facet normal 0 -1 -0
    outer loop
      vertex 0.5 0 0.0166664
      vertex 0 0 0
      vertex 0.5 0 0
    endloop
  endfacet
  facet normal 0 -1 0
    outer loop
      vertex 0 0.25 0.0166664
      vertex 0.5 0.25 0.233399
      vertex 0 0.25 0.233399
    endloop
  endfacet
  facet normal 0 -1 -0
    outer loop
      vertex 0.5 0.25 0.233399
      vertex 0 0.25 0.0166664
      vertex 0.5 0.25 0.0166664
    endloop
  endfacet
endsolid OpenSCAD_Model
