solid OpenSCAD_Model
  facet normal -1 0 0
    outer loop
      vertex 0.2 0.163651 0.26828
      vertex 0.2 0.224999 0.299999
      vertex 0.2 0.224999 0.0999994
    endloop
  endfacet
  facet normal -1 -0 0
    outer loop
      vertex 0.2 0.224999 0.299999
      vertex 0.2 0.174759 0.295098
      vertex 0.2 0.174999 0.299999
    endloop
  endfacet
  facet normal -1 0 0
    outer loop
      vertex 0.2 0.224999 0.299999
      vertex 0.2 0.174039 0.290245
      vertex 0.2 0.174759 0.295098
    endloop
  endfacet
  facet normal -1 0 0
    outer loop
      vertex 0.2 0.224999 0.299999
      vertex 0.2 0.172847 0.285485
      vertex 0.2 0.174039 0.290245
    endloop
  endfacet
  facet normal -1 0 0
    outer loop
      vertex 0.2 0.224999 0.299999
      vertex 0.2 0.171193 0.280866
      vertex 0.2 0.172847 0.285485
    endloop
  endfacet
  facet normal -1 0 0
    outer loop
      vertex 0.2 0.224999 0.299999
      vertex 0.2 0.169096 0.27643
      vertex 0.2 0.171193 0.280866
    endloop
  endfacet
  facet normal -1 0 0
    outer loop
      vertex 0.2 0.224999 0.299999
      vertex 0.2 0.166573 0.272221
      vertex 0.2 0.169096 0.27643
    endloop
  endfacet
  facet normal -1 0 0
    outer loop
      vertex 0.2 0.224999 0.299999
      vertex 0.2 0.163651 0.26828
      vertex 0.2 0.166573 0.272221
    endloop
  endfacet
  facet normal -1 0 0
    outer loop
      vertex 0.2 0.224999 0.0999994
      vertex 0.2 0.160355 0.264645
      vertex 0.2 0.163651 0.26828
    endloop
  endfacet
  facet normal -1 0 0
    outer loop
      vertex 0.2 0.224999 0.0999994
      vertex 0.2 0.156719 0.261349
      vertex 0.2 0.160355 0.264645
    endloop
  endfacet
  facet normal -1 0 0
    outer loop
      vertex 0.2 0.224999 0.0999994
      vertex 0.2 0.152778 0.258426
      vertex 0.2 0.156719 0.261349
    endloop
  endfacet
  facet normal -1 0 0
    outer loop
      vertex 0.2 0.224999 0.0999994
      vertex 0.2 0.148569 0.255903
      vertex 0.2 0.152778 0.258426
    endloop
  endfacet
  facet normal -1 0 0
    outer loop
      vertex 0.2 0.224999 0.0999994
      vertex 0.2 0.144134 0.253805
      vertex 0.2 0.148569 0.255903
    endloop
  endfacet
  facet normal -1 0 0
    outer loop
      vertex 0.2 0.224999 0.0999994
      vertex 0.2 0.139514 0.252152
      vertex 0.2 0.144134 0.253805
    endloop
  endfacet
  facet normal -1 0 0
    outer loop
      vertex 0.2 0.224999 0.0999994
      vertex 0.2 0.134754 0.25096
      vertex 0.2 0.139514 0.252152
    endloop
  endfacet
  facet normal -1 0 0
    outer loop
      vertex 0.2 0.224999 0.0999994
      vertex 0.2 0.1299 0.25024
      vertex 0.2 0.134754 0.25096
    endloop
  endfacet
  facet normal -1 0 0
    outer loop
      vertex 0.2 0.224999 0.0999994
      vertex 0.2 0.125 0.25
      vertex 0.2 0.1299 0.25024
    endloop
  endfacet
  facet normal -1 0 0
    outer loop
      vertex 0.2 0.0249996 0.0999994
      vertex 0.2 0.125 0.25
      vertex 0.2 0.224999 0.0999994
    endloop
  endfacet
  facet normal -1 -0 0
    outer loop
      vertex 0.2 0.125 0.25
      vertex 0.2 0.0249996 0.0999994
      vertex 0.2 0.120099 0.25024
    endloop
  endfacet
  facet normal -1 -0 0
    outer loop
      vertex 0.2 0.120099 0.25024
      vertex 0.2 0.0249996 0.0999994
      vertex 0.2 0.115245 0.25096
    endloop
  endfacet
  facet normal -1 -0 0
    outer loop
      vertex 0.2 0.115245 0.25096
      vertex 0.2 0.0249996 0.0999994
      vertex 0.2 0.110485 0.252152
    endloop
  endfacet
  facet normal -1 -0 0
    outer loop
      vertex 0.2 0.110485 0.252152
      vertex 0.2 0.0249996 0.0999994
      vertex 0.2 0.105865 0.253805
    endloop
  endfacet
  facet normal -1 -0 0
    outer loop
      vertex 0.2 0.105865 0.253805
      vertex 0.2 0.0249996 0.0999994
      vertex 0.2 0.10143 0.255903
    endloop
  endfacet
  facet normal -1 -0 0
    outer loop
      vertex 0.2 0.10143 0.255903
      vertex 0.2 0.0249996 0.0999994
      vertex 0.2 0.0972214 0.258426
    endloop
  endfacet
  facet normal -1 -0 0
    outer loop
      vertex 0.2 0.0972214 0.258426
      vertex 0.2 0.0249996 0.0999994
      vertex 0.2 0.0932798 0.261349
    endloop
  endfacet
  facet normal -1 -0 0
    outer loop
      vertex 0.2 0.0932798 0.261349
      vertex 0.2 0.0249996 0.0999994
      vertex 0.2 0.0896444 0.264645
    endloop
  endfacet
  facet normal -1 -0 0
    outer loop
      vertex 0.2 0.0896444 0.264645
      vertex 0.2 0.0249996 0.0999994
      vertex 0.2 0.0863485 0.26828
    endloop
  endfacet
  facet normal -1 0 0
    outer loop
      vertex 0.2 0.0249996 0.299999
      vertex 0.2 0.0863485 0.26828
      vertex 0.2 0.0249996 0.0999994
    endloop
  endfacet
  facet normal -1 0 0
    outer loop
      vertex 0.2 0.0863485 0.26828
      vertex 0.2 0.0249996 0.299999
      vertex 0.2 0.0834265 0.272221
    endloop
  endfacet
  facet normal -1 0 0
    outer loop
      vertex 0.2 0.0834265 0.272221
      vertex 0.2 0.0249996 0.299999
      vertex 0.2 0.0809031 0.27643
    endloop
  endfacet
  facet normal -1 0 0
    outer loop
      vertex 0.2 0.0809031 0.27643
      vertex 0.2 0.0249996 0.299999
      vertex 0.2 0.0788059 0.280866
    endloop
  endfacet
  facet normal -1 0 0
    outer loop
      vertex 0.2 0.0788059 0.280866
      vertex 0.2 0.0249996 0.299999
      vertex 0.2 0.0771523 0.285485
    endloop
  endfacet
  facet normal -1 0 0
    outer loop
      vertex 0.2 0.0771523 0.285485
      vertex 0.2 0.0249996 0.299999
      vertex 0.2 0.0759602 0.290245
    endloop
  endfacet
  facet normal -1 0 0
    outer loop
      vertex 0.2 0.0759602 0.290245
      vertex 0.2 0.0249996 0.299999
      vertex 0.2 0.0752401 0.295098
    endloop
  endfacet
  facet normal -1 0 0
    outer loop
      vertex 0.2 0.0752401 0.295098
      vertex 0.2 0.0249996 0.299999
      vertex 0.2 0.0749998 0.299999
    endloop
  endfacet
  facet normal 0 0 1
    outer loop
      vertex 0.254999 0.0749998 0.299999
      vertex 0.2 0.0749998 0.299999
      vertex 0.254999 0.0404119 0.299999
    endloop
  endfacet
  facet normal 0 0 1
    outer loop
      vertex 0.495 0.0404119 0.299999
      vertex 0.549999 0.0749998 0.299999
      vertex 0.495 0.0749998 0.299999
    endloop
  endfacet
  facet normal 0 0 1
    outer loop
      vertex 0.549999 0.0749998 0.299999
      vertex 0.495 0.0404119 0.299999
      vertex 0.549999 0.0249996 0.299999
    endloop
  endfacet
  facet normal -0 0 1
    outer loop
      vertex 0.254999 0.0404119 0.299999
      vertex 0.549999 0.0249996 0.299999
      vertex 0.495 0.0404119 0.299999
    endloop
  endfacet
  facet normal 0 0 1
    outer loop
      vertex 0.254999 0.0404119 0.299999
      vertex 0.2 0.0249996 0.299999
      vertex 0.549999 0.0249996 0.299999
    endloop
  endfacet
  facet normal 0 0 1
    outer loop
      vertex 0.2 0.0249996 0.299999
      vertex 0.254999 0.0404119 0.299999
      vertex 0.2 0.0749998 0.299999
    endloop
  endfacet
  facet normal -0 0 1
    outer loop
      vertex 0.495 0.224999 0.299999
      vertex 0.549999 0.174999 0.299999
      vertex 0.549999 0.224999 0.299999
    endloop
  endfacet
  facet normal 0 0 1
    outer loop
      vertex 0.549999 0.174999 0.299999
      vertex 0.495 0.224999 0.299999
      vertex 0.495 0.174999 0.299999
    endloop
  endfacet
  facet normal -0 0 1
    outer loop
      vertex 0.2 0.224999 0.299999
      vertex 0.254999 0.174999 0.299999
      vertex 0.254999 0.224999 0.299999
    endloop
  endfacet
  facet normal 0 0 1
    outer loop
      vertex 0.254999 0.174999 0.299999
      vertex 0.2 0.224999 0.299999
      vertex 0.2 0.174999 0.299999
    endloop
  endfacet
  facet normal 1 0 0
    outer loop
      vertex 0.549999 0.174759 0.295098
      vertex 0.549999 0.224999 0.299999
      vertex 0.549999 0.174999 0.299999
    endloop
  endfacet
  facet normal 1 0 0
    outer loop
      vertex 0.549999 0.174039 0.290245
      vertex 0.549999 0.224999 0.299999
      vertex 0.549999 0.174759 0.295098
    endloop
  endfacet
  facet normal 1 0 0
    outer loop
      vertex 0.549999 0.172847 0.285485
      vertex 0.549999 0.224999 0.299999
      vertex 0.549999 0.174039 0.290245
    endloop
  endfacet
  facet normal 1 0 0
    outer loop
      vertex 0.549999 0.171193 0.280866
      vertex 0.549999 0.224999 0.299999
      vertex 0.549999 0.172847 0.285485
    endloop
  endfacet
  facet normal 1 0 0
    outer loop
      vertex 0.549999 0.169096 0.27643
      vertex 0.549999 0.224999 0.299999
      vertex 0.549999 0.171193 0.280866
    endloop
  endfacet
  facet normal 1 0 0
    outer loop
      vertex 0.549999 0.166573 0.272221
      vertex 0.549999 0.224999 0.299999
      vertex 0.549999 0.169096 0.27643
    endloop
  endfacet
  facet normal 1 0 0
    outer loop
      vertex 0.549999 0.163651 0.26828
      vertex 0.549999 0.224999 0.299999
      vertex 0.549999 0.166573 0.272221
    endloop
  endfacet
  facet normal 1 0 0
    outer loop
      vertex 0.549999 0.224999 0.299999
      vertex 0.549999 0.163651 0.26828
      vertex 0.549999 0.224999 0.0999994
    endloop
  endfacet
  facet normal 1 -0 0
    outer loop
      vertex 0.549999 0.160355 0.264645
      vertex 0.549999 0.224999 0.0999994
      vertex 0.549999 0.163651 0.26828
    endloop
  endfacet
  facet normal 1 -0 0
    outer loop
      vertex 0.549999 0.156719 0.261349
      vertex 0.549999 0.224999 0.0999994
      vertex 0.549999 0.160355 0.264645
    endloop
  endfacet
  facet normal 1 -0 0
    outer loop
      vertex 0.549999 0.152778 0.258426
      vertex 0.549999 0.224999 0.0999994
      vertex 0.549999 0.156719 0.261349
    endloop
  endfacet
  facet normal 1 -0 0
    outer loop
      vertex 0.549999 0.148569 0.255903
      vertex 0.549999 0.224999 0.0999994
      vertex 0.549999 0.152778 0.258426
    endloop
  endfacet
  facet normal 1 -0 0
    outer loop
      vertex 0.549999 0.144134 0.253805
      vertex 0.549999 0.224999 0.0999994
      vertex 0.549999 0.148569 0.255903
    endloop
  endfacet
  facet normal 1 -0 0
    outer loop
      vertex 0.549999 0.139514 0.252152
      vertex 0.549999 0.224999 0.0999994
      vertex 0.549999 0.144134 0.253805
    endloop
  endfacet
  facet normal 1 -0 0
    outer loop
      vertex 0.549999 0.134754 0.25096
      vertex 0.549999 0.224999 0.0999994
      vertex 0.549999 0.139514 0.252152
    endloop
  endfacet
  facet normal 1 -0 0
    outer loop
      vertex 0.549999 0.1299 0.25024
      vertex 0.549999 0.224999 0.0999994
      vertex 0.549999 0.134754 0.25096
    endloop
  endfacet
  facet normal 1 -0 0
    outer loop
      vertex 0.549999 0.125 0.25
      vertex 0.549999 0.224999 0.0999994
      vertex 0.549999 0.1299 0.25024
    endloop
  endfacet
  facet normal 1 0 0
    outer loop
      vertex 0.549999 0.0249996 0.0999994
      vertex 0.549999 0.125 0.25
      vertex 0.549999 0.120099 0.25024
    endloop
  endfacet
  facet normal 1 0 0
    outer loop
      vertex 0.549999 0.0249996 0.0999994
      vertex 0.549999 0.120099 0.25024
      vertex 0.549999 0.115245 0.25096
    endloop
  endfacet
  facet normal 1 0 0
    outer loop
      vertex 0.549999 0.0249996 0.0999994
      vertex 0.549999 0.115245 0.25096
      vertex 0.549999 0.110485 0.252152
    endloop
  endfacet
  facet normal 1 0 0
    outer loop
      vertex 0.549999 0.0249996 0.0999994
      vertex 0.549999 0.110485 0.252152
      vertex 0.549999 0.105865 0.253805
    endloop
  endfacet
  facet normal 1 0 0
    outer loop
      vertex 0.549999 0.0249996 0.0999994
      vertex 0.549999 0.105865 0.253805
      vertex 0.549999 0.10143 0.255903
    endloop
  endfacet
  facet normal 1 0 0
    outer loop
      vertex 0.549999 0.0249996 0.0999994
      vertex 0.549999 0.10143 0.255903
      vertex 0.549999 0.0972214 0.258426
    endloop
  endfacet
  facet normal 1 0 0
    outer loop
      vertex 0.549999 0.0249996 0.0999994
      vertex 0.549999 0.0972214 0.258426
      vertex 0.549999 0.0932798 0.261349
    endloop
  endfacet
  facet normal 1 0 0
    outer loop
      vertex 0.549999 0.0249996 0.0999994
      vertex 0.549999 0.0932798 0.261349
      vertex 0.549999 0.0896444 0.264645
    endloop
  endfacet
  facet normal 1 0 0
    outer loop
      vertex 0.549999 0.0249996 0.0999994
      vertex 0.549999 0.0896444 0.264645
      vertex 0.549999 0.0863485 0.26828
    endloop
  endfacet
  facet normal 1 -0 0
    outer loop
      vertex 0.549999 0.0249996 0.299999
      vertex 0.549999 0.0752401 0.295098
      vertex 0.549999 0.0749998 0.299999
    endloop
  endfacet
  facet normal 1 0 0
    outer loop
      vertex 0.549999 0.0249996 0.299999
      vertex 0.549999 0.0759602 0.290245
      vertex 0.549999 0.0752401 0.295098
    endloop
  endfacet
  facet normal 1 0 0
    outer loop
      vertex 0.549999 0.0249996 0.299999
      vertex 0.549999 0.0771523 0.285485
      vertex 0.549999 0.0759602 0.290245
    endloop
  endfacet
  facet normal 1 0 0
    outer loop
      vertex 0.549999 0.0249996 0.299999
      vertex 0.549999 0.0788059 0.280866
      vertex 0.549999 0.0771523 0.285485
    endloop
  endfacet
  facet normal 1 0 0
    outer loop
      vertex 0.549999 0.0249996 0.299999
      vertex 0.549999 0.0809031 0.27643
      vertex 0.549999 0.0788059 0.280866
    endloop
  endfacet
  facet normal 1 0 0
    outer loop
      vertex 0.549999 0.0249996 0.299999
      vertex 0.549999 0.0834265 0.272221
      vertex 0.549999 0.0809031 0.27643
    endloop
  endfacet
  facet normal 1 0 0
    outer loop
      vertex 0.549999 0.0249996 0.299999
      vertex 0.549999 0.0863485 0.26828
      vertex 0.549999 0.0834265 0.272221
    endloop
  endfacet
  facet normal 1 0 0
    outer loop
      vertex 0.549999 0.0249996 0.0999994
      vertex 0.549999 0.0863485 0.26828
      vertex 0.549999 0.0249996 0.299999
    endloop
  endfacet
  facet normal 1 0 0
    outer loop
      vertex 0.549999 0.125 0.25
      vertex 0.549999 0.0249996 0.0999994
      vertex 0.549999 0.224999 0.0999994
    endloop
  endfacet
  facet normal 0 1 0
    outer loop
      vertex 0.549999 0.224999 0.299999
      vertex 0.495 0.224999 0.18986
      vertex 0.495 0.224999 0.299999
    endloop
  endfacet
  facet normal 0 1 0
    outer loop
      vertex 0.495 0.224999 0.18986
      vertex 0.549999 0.224999 0.0999994
      vertex 0.254999 0.224999 0.18986
    endloop
  endfacet
  facet normal 0 1 -0
    outer loop
      vertex 0.549999 0.224999 0.0999994
      vertex 0.495 0.224999 0.18986
      vertex 0.549999 0.224999 0.299999
    endloop
  endfacet
  facet normal 0 1 -0
    outer loop
      vertex 0.254999 0.224999 0.18986
      vertex 0.2 0.224999 0.299999
      vertex 0.254999 0.224999 0.299999
    endloop
  endfacet
  facet normal 0 1 0
    outer loop
      vertex 0.254999 0.224999 0.18986
      vertex 0.2 0.224999 0.0999994
      vertex 0.2 0.224999 0.299999
    endloop
  endfacet
  facet normal 0 1 0
    outer loop
      vertex 0.2 0.224999 0.0999994
      vertex 0.254999 0.224999 0.18986
      vertex 0.549999 0.224999 0.0999994
    endloop
  endfacet
  facet normal 0 0 -1
    outer loop
      vertex 0.2 0.0249996 0.0999994
      vertex 0.549999 0.224999 0.0999994
      vertex 0.549999 0.0249996 0.0999994
    endloop
  endfacet
  facet normal -0 0 -1
    outer loop
      vertex 0.549999 0.224999 0.0999994
      vertex 0.2 0.0249996 0.0999994
      vertex 0.2 0.224999 0.0999994
    endloop
  endfacet
  facet normal 0 -1 0
    outer loop
      vertex 0.2 0.0249996 0.0999994
      vertex 0.549999 0.0249996 0.299999
      vertex 0.2 0.0249996 0.299999
    endloop
  endfacet
  facet normal 0 -1 -0
    outer loop
      vertex 0.549999 0.0249996 0.299999
      vertex 0.2 0.0249996 0.0999994
      vertex 0.549999 0.0249996 0.0999994
    endloop
  endfacet
  facet normal 0 -0.0489209 0.998803
    outer loop
      vertex 0.2 0.1299 0.25024
      vertex 0.254999 0.125 0.25
      vertex 0.254999 0.1299 0.25024
    endloop
  endfacet
  facet normal 0 -0.0489209 0.998803
    outer loop
      vertex 0.254999 0.125 0.25
      vertex 0.2 0.1299 0.25024
      vertex 0.2 0.125 0.25
    endloop
  endfacet
  facet normal 0 -0.0489209 0.998803
    outer loop
      vertex 0.495 0.1299 0.25024
      vertex 0.549999 0.125 0.25
      vertex 0.549999 0.1299 0.25024
    endloop
  endfacet
  facet normal 0 -0.0489209 0.998803
    outer loop
      vertex 0.549999 0.125 0.25
      vertex 0.495 0.1299 0.25024
      vertex 0.495 0.125 0.25
    endloop
  endfacet
  facet normal 0 -0.94146 0.337124
    outer loop
      vertex 0.2 0.171193 0.280866
      vertex 0.254999 0.172847 0.285485
      vertex 0.2 0.172847 0.285485
    endloop
  endfacet
  facet normal 0 -0.94146 0.337124
    outer loop
      vertex 0.254999 0.172847 0.285485
      vertex 0.2 0.171193 0.280866
      vertex 0.254999 0.171193 0.280866
    endloop
  endfacet
  facet normal 0 -0.94146 0.337124
    outer loop
      vertex 0.495 0.171193 0.280866
      vertex 0.549999 0.172847 0.285485
      vertex 0.495 0.172847 0.285485
    endloop
  endfacet
  facet normal 0 -0.94146 0.337124
    outer loop
      vertex 0.549999 0.172847 0.285485
      vertex 0.495 0.171193 0.280866
      vertex 0.549999 0.171193 0.280866
    endloop
  endfacet
  facet normal 0 -0.146726 0.989177
    outer loop
      vertex 0.2 0.134754 0.25096
      vertex 0.254999 0.1299 0.25024
      vertex 0.254999 0.134754 0.25096
    endloop
  endfacet
  facet normal 0 -0.146726 0.989177
    outer loop
      vertex 0.254999 0.1299 0.25024
      vertex 0.2 0.134754 0.25096
      vertex 0.2 0.1299 0.25024
    endloop
  endfacet
  facet normal 0 -0.146726 0.989177
    outer loop
      vertex 0.495 0.134754 0.25096
      vertex 0.549999 0.1299 0.25024
      vertex 0.549999 0.134754 0.25096
    endloop
  endfacet
  facet normal 0 -0.146726 0.989177
    outer loop
      vertex 0.549999 0.1299 0.25024
      vertex 0.495 0.134754 0.25096
      vertex 0.495 0.1299 0.25024
    endloop
  endfacet
  facet normal 0 -0.336879 0.941548
    outer loop
      vertex 0.2 0.144134 0.253805
      vertex 0.254999 0.139514 0.252152
      vertex 0.254999 0.144134 0.253805
    endloop
  endfacet
  facet normal 0 -0.336879 0.941548
    outer loop
      vertex 0.254999 0.139514 0.252152
      vertex 0.2 0.144134 0.253805
      vertex 0.2 0.139514 0.252152
    endloop
  endfacet
  facet normal 0 -0.336879 0.941548
    outer loop
      vertex 0.495 0.144134 0.253805
      vertex 0.549999 0.139514 0.252152
      vertex 0.549999 0.144134 0.253805
    endloop
  endfacet
  facet normal 0 -0.336879 0.941548
    outer loop
      vertex 0.549999 0.139514 0.252152
      vertex 0.495 0.144134 0.253805
      vertex 0.495 0.139514 0.252152
    endloop
  endfacet
  facet normal 0 -0.671617 0.740898
    outer loop
      vertex 0.2 0.160355 0.264645
      vertex 0.254999 0.156719 0.261349
      vertex 0.254999 0.160355 0.264645
    endloop
  endfacet
  facet normal 0 -0.671617 0.740898
    outer loop
      vertex 0.254999 0.156719 0.261349
      vertex 0.2 0.160355 0.264645
      vertex 0.2 0.156719 0.261349
    endloop
  endfacet
  facet normal 0 -0.671617 0.740898
    outer loop
      vertex 0.495 0.160355 0.264645
      vertex 0.549999 0.156719 0.261349
      vertex 0.549999 0.160355 0.264645
    endloop
  endfacet
  facet normal 0 -0.671617 0.740898
    outer loop
      vertex 0.549999 0.156719 0.261349
      vertex 0.495 0.160355 0.264645
      vertex 0.495 0.156719 0.261349
    endloop
  endfacet
  facet normal 0 -0.514136 0.857709
    outer loop
      vertex 0.2 0.152778 0.258426
      vertex 0.254999 0.148569 0.255903
      vertex 0.254999 0.152778 0.258426
    endloop
  endfacet
  facet normal 0 -0.514136 0.857709
    outer loop
      vertex 0.254999 0.148569 0.255903
      vertex 0.2 0.152778 0.258426
      vertex 0.2 0.148569 0.255903
    endloop
  endfacet
  facet normal 0 -0.514136 0.857709
    outer loop
      vertex 0.495 0.152778 0.258426
      vertex 0.549999 0.148569 0.255903
      vertex 0.549999 0.152778 0.258426
    endloop
  endfacet
  facet normal 0 -0.514136 0.857709
    outer loop
      vertex 0.549999 0.148569 0.255903
      vertex 0.495 0.152778 0.258426
      vertex 0.495 0.148569 0.255903
    endloop
  endfacet
  facet normal 0 -0.970047 0.242919
    outer loop
      vertex 0.2 0.172847 0.285485
      vertex 0.254999 0.174039 0.290245
      vertex 0.2 0.174039 0.290245
    endloop
  endfacet
  facet normal 0 -0.970047 0.242919
    outer loop
      vertex 0.254999 0.174039 0.290245
      vertex 0.2 0.172847 0.285485
      vertex 0.254999 0.172847 0.285485
    endloop
  endfacet
  facet normal 0 -0.970047 0.242919
    outer loop
      vertex 0.495 0.172847 0.285485
      vertex 0.549999 0.174039 0.290245
      vertex 0.495 0.174039 0.290245
    endloop
  endfacet
  facet normal 0 -0.970047 0.242919
    outer loop
      vertex 0.549999 0.174039 0.290245
      vertex 0.495 0.172847 0.285485
      vertex 0.549999 0.172847 0.285485
    endloop
  endfacet
  facet normal 0 -0.998803 0.048911
    outer loop
      vertex 0.2 0.174759 0.295098
      vertex 0.254999 0.174999 0.299999
      vertex 0.2 0.174999 0.299999
    endloop
  endfacet
  facet normal 0 -0.998803 0.048911
    outer loop
      vertex 0.254999 0.174999 0.299999
      vertex 0.2 0.174759 0.295098
      vertex 0.254999 0.174759 0.295098
    endloop
  endfacet
  facet normal 0 -0.998803 0.048911
    outer loop
      vertex 0.495 0.174759 0.295098
      vertex 0.549999 0.174999 0.299999
      vertex 0.495 0.174999 0.299999
    endloop
  endfacet
  facet normal 0 -0.998803 0.048911
    outer loop
      vertex 0.549999 0.174999 0.299999
      vertex 0.495 0.174759 0.295098
      vertex 0.549999 0.174759 0.295098
    endloop
  endfacet
  facet normal 0 -0.904074 0.427377
    outer loop
      vertex 0.2 0.169096 0.27643
      vertex 0.254999 0.171193 0.280866
      vertex 0.2 0.171193 0.280866
    endloop
  endfacet
  facet normal 0 -0.904074 0.427377
    outer loop
      vertex 0.254999 0.171193 0.280866
      vertex 0.2 0.169096 0.27643
      vertex 0.254999 0.169096 0.27643
    endloop
  endfacet
  facet normal 0 -0.904074 0.427377
    outer loop
      vertex 0.495 0.169096 0.27643
      vertex 0.549999 0.171193 0.280866
      vertex 0.495 0.171193 0.280866
    endloop
  endfacet
  facet normal 0 -0.904074 0.427377
    outer loop
      vertex 0.549999 0.171193 0.280866
      vertex 0.495 0.169096 0.27643
      vertex 0.549999 0.169096 0.27643
    endloop
  endfacet
  facet normal 0 -0.80329 0.595588
    outer loop
      vertex 0.2 0.163651 0.26828
      vertex 0.254999 0.166573 0.272221
      vertex 0.2 0.166573 0.272221
    endloop
  endfacet
  facet normal 0 -0.80329 0.595588
    outer loop
      vertex 0.254999 0.166573 0.272221
      vertex 0.2 0.163651 0.26828
      vertex 0.254999 0.163651 0.26828
    endloop
  endfacet
  facet normal 0 -0.80329 0.595588
    outer loop
      vertex 0.495 0.163651 0.26828
      vertex 0.549999 0.166573 0.272221
      vertex 0.495 0.166573 0.272221
    endloop
  endfacet
  facet normal 0 -0.80329 0.595588
    outer loop
      vertex 0.549999 0.166573 0.272221
      vertex 0.495 0.163651 0.26828
      vertex 0.549999 0.163651 0.26828
    endloop
  endfacet
  facet normal -0 0.048911 0.998803
    outer loop
      vertex 0.2 0.125 0.25
      vertex 0.254999 0.120099 0.25024
      vertex 0.254999 0.125 0.25
    endloop
  endfacet
  facet normal 0 0.048911 0.998803
    outer loop
      vertex 0.254999 0.120099 0.25024
      vertex 0.2 0.125 0.25
      vertex 0.2 0.120099 0.25024
    endloop
  endfacet
  facet normal -0 0.048911 0.998803
    outer loop
      vertex 0.495 0.125 0.25
      vertex 0.549999 0.120099 0.25024
      vertex 0.549999 0.125 0.25
    endloop
  endfacet
  facet normal 0 0.048911 0.998803
    outer loop
      vertex 0.549999 0.120099 0.25024
      vertex 0.495 0.125 0.25
      vertex 0.495 0.120099 0.25024
    endloop
  endfacet
  facet normal 0 0.98917 0.146775
    outer loop
      vertex 0.254999 0.0759602 0.290245
      vertex 0.2 0.0752401 0.295098
      vertex 0.254999 0.0752401 0.295098
    endloop
  endfacet
  facet normal 0 0.98917 0.146775
    outer loop
      vertex 0.2 0.0752401 0.295098
      vertex 0.254999 0.0759602 0.290245
      vertex 0.2 0.0759602 0.290245
    endloop
  endfacet
  facet normal 0 0.98917 0.146775
    outer loop
      vertex 0.549999 0.0759602 0.290245
      vertex 0.495 0.0752401 0.295098
      vertex 0.549999 0.0752401 0.295098
    endloop
  endfacet
  facet normal 0 0.98917 0.146775
    outer loop
      vertex 0.495 0.0752401 0.295098
      vertex 0.549999 0.0759602 0.290245
      vertex 0.495 0.0759602 0.290245
    endloop
  endfacet
  facet normal 0 0.941486 0.337052
    outer loop
      vertex 0.254999 0.0788059 0.280866
      vertex 0.2 0.0771523 0.285485
      vertex 0.254999 0.0771523 0.285485
    endloop
  endfacet
  facet normal 0 0.941486 0.337052
    outer loop
      vertex 0.2 0.0771523 0.285485
      vertex 0.254999 0.0788059 0.280866
      vertex 0.2 0.0788059 0.280866
    endloop
  endfacet
  facet normal 0 0.941486 0.337052
    outer loop
      vertex 0.549999 0.0788059 0.280866
      vertex 0.495 0.0771523 0.285485
      vertex 0.549999 0.0771523 0.285485
    endloop
  endfacet
  facet normal 0 0.941486 0.337052
    outer loop
      vertex 0.495 0.0771523 0.285485
      vertex 0.549999 0.0788059 0.280866
      vertex 0.495 0.0788059 0.280866
    endloop
  endfacet
  facet normal 0 0.740816 0.671708
    outer loop
      vertex 0.254999 0.0896444 0.264645
      vertex 0.2 0.0863485 0.26828
      vertex 0.254999 0.0863485 0.26828
    endloop
  endfacet
  facet normal 0 0.740816 0.671708
    outer loop
      vertex 0.2 0.0863485 0.26828
      vertex 0.254999 0.0896444 0.264645
      vertex 0.2 0.0896444 0.264645
    endloop
  endfacet
  facet normal 0 0.740816 0.671708
    outer loop
      vertex 0.549999 0.0896444 0.264645
      vertex 0.495 0.0863485 0.26828
      vertex 0.549999 0.0863485 0.26828
    endloop
  endfacet
  facet normal 0 0.740816 0.671708
    outer loop
      vertex 0.495 0.0863485 0.26828
      vertex 0.549999 0.0896444 0.264645
      vertex 0.495 0.0896444 0.264645
    endloop
  endfacet
  facet normal 0 0.857673 0.514196
    outer loop
      vertex 0.254999 0.0834265 0.272221
      vertex 0.2 0.0809031 0.27643
      vertex 0.254999 0.0809031 0.27643
    endloop
  endfacet
  facet normal 0 0.857673 0.514196
    outer loop
      vertex 0.2 0.0809031 0.27643
      vertex 0.254999 0.0834265 0.272221
      vertex 0.2 0.0834265 0.272221
    endloop
  endfacet
  facet normal 0 0.857673 0.514196
    outer loop
      vertex 0.549999 0.0834265 0.272221
      vertex 0.495 0.0809031 0.27643
      vertex 0.549999 0.0809031 0.27643
    endloop
  endfacet
  facet normal 0 0.857673 0.514196
    outer loop
      vertex 0.495 0.0809031 0.27643
      vertex 0.549999 0.0834265 0.272221
      vertex 0.495 0.0834265 0.272221
    endloop
  endfacet
  facet normal -0 0.595661 0.803236
    outer loop
      vertex 0.2 0.0972214 0.258426
      vertex 0.254999 0.0932798 0.261349
      vertex 0.254999 0.0972214 0.258426
    endloop
  endfacet
  facet normal 0 0.595661 0.803236
    outer loop
      vertex 0.254999 0.0932798 0.261349
      vertex 0.2 0.0972214 0.258426
      vertex 0.2 0.0932798 0.261349
    endloop
  endfacet
  facet normal -0 0.595661 0.803236
    outer loop
      vertex 0.495 0.0972214 0.258426
      vertex 0.549999 0.0932798 0.261349
      vertex 0.549999 0.0972214 0.258426
    endloop
  endfacet
  facet normal 0 0.595661 0.803236
    outer loop
      vertex 0.549999 0.0932798 0.261349
      vertex 0.495 0.0972214 0.258426
      vertex 0.495 0.0932798 0.261349
    endloop
  endfacet
  facet normal -0 0.427622 0.903958
    outer loop
      vertex 0.2 0.105865 0.253805
      vertex 0.254999 0.10143 0.255903
      vertex 0.254999 0.105865 0.253805
    endloop
  endfacet
  facet normal 0 0.427622 0.903958
    outer loop
      vertex 0.254999 0.10143 0.255903
      vertex 0.2 0.105865 0.253805
      vertex 0.2 0.10143 0.255903
    endloop
  endfacet
  facet normal -0 0.427622 0.903958
    outer loop
      vertex 0.495 0.105865 0.253805
      vertex 0.549999 0.10143 0.255903
      vertex 0.549999 0.105865 0.253805
    endloop
  endfacet
  facet normal 0 0.427622 0.903958
    outer loop
      vertex 0.549999 0.10143 0.255903
      vertex 0.495 0.105865 0.253805
      vertex 0.495 0.10143 0.255903
    endloop
  endfacet
  facet normal -0 0.242919 0.970047
    outer loop
      vertex 0.2 0.115245 0.25096
      vertex 0.254999 0.110485 0.252152
      vertex 0.254999 0.115245 0.25096
    endloop
  endfacet
  facet normal 0 0.242919 0.970047
    outer loop
      vertex 0.254999 0.110485 0.252152
      vertex 0.2 0.115245 0.25096
      vertex 0.2 0.110485 0.252152
    endloop
  endfacet
  facet normal -0 0.242919 0.970047
    outer loop
      vertex 0.495 0.115245 0.25096
      vertex 0.549999 0.110485 0.252152
      vertex 0.549999 0.115245 0.25096
    endloop
  endfacet
  facet normal 0 0.242919 0.970047
    outer loop
      vertex 0.549999 0.110485 0.252152
      vertex 0.495 0.115245 0.25096
      vertex 0.495 0.110485 0.252152
    endloop
  endfacet
  facet normal 0 -0.242919 0.970047
    outer loop
      vertex 0.2 0.139514 0.252152
      vertex 0.254999 0.134754 0.25096
      vertex 0.254999 0.139514 0.252152
    endloop
  endfacet
  facet normal 0 -0.242919 0.970047
    outer loop
      vertex 0.254999 0.134754 0.25096
      vertex 0.2 0.139514 0.252152
      vertex 0.2 0.134754 0.25096
    endloop
  endfacet
  facet normal 0 -0.242919 0.970047
    outer loop
      vertex 0.495 0.139514 0.252152
      vertex 0.549999 0.134754 0.25096
      vertex 0.549999 0.139514 0.252152
    endloop
  endfacet
  facet normal 0 -0.242919 0.970047
    outer loop
      vertex 0.549999 0.134754 0.25096
      vertex 0.495 0.139514 0.252152
      vertex 0.495 0.134754 0.25096
    endloop
  endfacet
  facet normal 0 -0.427622 0.903958
    outer loop
      vertex 0.2 0.148569 0.255903
      vertex 0.254999 0.144134 0.253805
      vertex 0.254999 0.148569 0.255903
    endloop
  endfacet
  facet normal 0 -0.427622 0.903958
    outer loop
      vertex 0.254999 0.144134 0.253805
      vertex 0.2 0.148569 0.255903
      vertex 0.2 0.144134 0.253805
    endloop
  endfacet
  facet normal 0 -0.427622 0.903958
    outer loop
      vertex 0.495 0.148569 0.255903
      vertex 0.549999 0.144134 0.253805
      vertex 0.549999 0.148569 0.255903
    endloop
  endfacet
  facet normal 0 -0.427622 0.903958
    outer loop
      vertex 0.549999 0.144134 0.253805
      vertex 0.495 0.148569 0.255903
      vertex 0.495 0.144134 0.253805
    endloop
  endfacet
  facet normal 0 -0.740806 0.671719
    outer loop
      vertex 0.2 0.160355 0.264645
      vertex 0.254999 0.163651 0.26828
      vertex 0.2 0.163651 0.26828
    endloop
  endfacet
  facet normal 0 -0.740806 0.671719
    outer loop
      vertex 0.254999 0.163651 0.26828
      vertex 0.2 0.160355 0.264645
      vertex 0.254999 0.160355 0.264645
    endloop
  endfacet
  facet normal 0 -0.740806 0.671719
    outer loop
      vertex 0.495 0.160355 0.264645
      vertex 0.549999 0.163651 0.26828
      vertex 0.495 0.163651 0.26828
    endloop
  endfacet
  facet normal 0 -0.740806 0.671719
    outer loop
      vertex 0.549999 0.163651 0.26828
      vertex 0.495 0.160355 0.264645
      vertex 0.549999 0.160355 0.264645
    endloop
  endfacet
  facet normal 0 -0.59572 0.803192
    outer loop
      vertex 0.2 0.156719 0.261349
      vertex 0.254999 0.152778 0.258426
      vertex 0.254999 0.156719 0.261349
    endloop
  endfacet
  facet normal 0 -0.59572 0.803192
    outer loop
      vertex 0.254999 0.152778 0.258426
      vertex 0.2 0.156719 0.261349
      vertex 0.2 0.152778 0.258426
    endloop
  endfacet
  facet normal 0 -0.59572 0.803192
    outer loop
      vertex 0.495 0.156719 0.261349
      vertex 0.549999 0.152778 0.258426
      vertex 0.549999 0.156719 0.261349
    endloop
  endfacet
  facet normal 0 -0.59572 0.803192
    outer loop
      vertex 0.549999 0.152778 0.258426
      vertex 0.495 0.156719 0.261349
      vertex 0.495 0.152778 0.258426
    endloop
  endfacet
  facet normal 0 -0.989173 0.146755
    outer loop
      vertex 0.2 0.174039 0.290245
      vertex 0.254999 0.174759 0.295098
      vertex 0.2 0.174759 0.295098
    endloop
  endfacet
  facet normal 0 -0.989173 0.146755
    outer loop
      vertex 0.254999 0.174759 0.295098
      vertex 0.2 0.174039 0.290245
      vertex 0.254999 0.174039 0.290245
    endloop
  endfacet
  facet normal 0 -0.989173 0.146755
    outer loop
      vertex 0.495 0.174039 0.290245
      vertex 0.549999 0.174759 0.295098
      vertex 0.495 0.174759 0.295098
    endloop
  endfacet
  facet normal 0 -0.989173 0.146755
    outer loop
      vertex 0.549999 0.174759 0.295098
      vertex 0.495 0.174039 0.290245
      vertex 0.549999 0.174039 0.290245
    endloop
  endfacet
  facet normal 0 -0.857709 0.514136
    outer loop
      vertex 0.2 0.166573 0.272221
      vertex 0.254999 0.169096 0.27643
      vertex 0.2 0.169096 0.27643
    endloop
  endfacet
  facet normal 0 -0.857709 0.514136
    outer loop
      vertex 0.254999 0.169096 0.27643
      vertex 0.2 0.166573 0.272221
      vertex 0.254999 0.166573 0.272221
    endloop
  endfacet
  facet normal 0 -0.857709 0.514136
    outer loop
      vertex 0.495 0.166573 0.272221
      vertex 0.549999 0.169096 0.27643
      vertex 0.495 0.169096 0.27643
    endloop
  endfacet
  facet normal 0 -0.857709 0.514136
    outer loop
      vertex 0.549999 0.169096 0.27643
      vertex 0.495 0.166573 0.272221
      vertex 0.549999 0.166573 0.272221
    endloop
  endfacet
  facet normal 0 0.970042 0.242938
    outer loop
      vertex 0.254999 0.0771523 0.285485
      vertex 0.2 0.0759602 0.290245
      vertex 0.254999 0.0759602 0.290245
    endloop
  endfacet
  facet normal 0 0.970042 0.242938
    outer loop
      vertex 0.2 0.0759602 0.290245
      vertex 0.254999 0.0771523 0.285485
      vertex 0.2 0.0771523 0.285485
    endloop
  endfacet
  facet normal 0 0.970042 0.242938
    outer loop
      vertex 0.549999 0.0771523 0.285485
      vertex 0.495 0.0759602 0.290245
      vertex 0.549999 0.0759602 0.290245
    endloop
  endfacet
  facet normal 0 0.970042 0.242938
    outer loop
      vertex 0.495 0.0759602 0.290245
      vertex 0.549999 0.0771523 0.285485
      vertex 0.495 0.0771523 0.285485
    endloop
  endfacet
  facet normal 0 0.904058 0.42741
    outer loop
      vertex 0.254999 0.0809031 0.27643
      vertex 0.2 0.0788059 0.280866
      vertex 0.254999 0.0788059 0.280866
    endloop
  endfacet
  facet normal 0 0.904058 0.42741
    outer loop
      vertex 0.2 0.0788059 0.280866
      vertex 0.254999 0.0809031 0.27643
      vertex 0.2 0.0809031 0.27643
    endloop
  endfacet
  facet normal 0 0.904058 0.42741
    outer loop
      vertex 0.549999 0.0809031 0.27643
      vertex 0.495 0.0788059 0.280866
      vertex 0.549999 0.0788059 0.280866
    endloop
  endfacet
  facet normal 0 0.904058 0.42741
    outer loop
      vertex 0.495 0.0788059 0.280866
      vertex 0.549999 0.0809031 0.27643
      vertex 0.495 0.0809031 0.27643
    endloop
  endfacet
  facet normal -0 0.671678 0.740843
    outer loop
      vertex 0.2 0.0932798 0.261349
      vertex 0.254999 0.0896444 0.264645
      vertex 0.254999 0.0932798 0.261349
    endloop
  endfacet
  facet normal 0 0.671678 0.740843
    outer loop
      vertex 0.254999 0.0896444 0.264645
      vertex 0.2 0.0932798 0.261349
      vertex 0.2 0.0896444 0.264645
    endloop
  endfacet
  facet normal -0 0.671678 0.740843
    outer loop
      vertex 0.495 0.0932798 0.261349
      vertex 0.549999 0.0896444 0.264645
      vertex 0.549999 0.0932798 0.261349
    endloop
  endfacet
  facet normal 0 0.671678 0.740843
    outer loop
      vertex 0.549999 0.0896444 0.264645
      vertex 0.495 0.0932798 0.261349
      vertex 0.495 0.0896444 0.264645
    endloop
  endfacet
  facet normal 0 0.80329 0.595588
    outer loop
      vertex 0.254999 0.0863485 0.26828
      vertex 0.2 0.0834265 0.272221
      vertex 0.254999 0.0834265 0.272221
    endloop
  endfacet
  facet normal 0 0.80329 0.595588
    outer loop
      vertex 0.2 0.0834265 0.272221
      vertex 0.254999 0.0863485 0.26828
      vertex 0.2 0.0863485 0.26828
    endloop
  endfacet
  facet normal 0 0.80329 0.595588
    outer loop
      vertex 0.549999 0.0863485 0.26828
      vertex 0.495 0.0834265 0.272221
      vertex 0.549999 0.0834265 0.272221
    endloop
  endfacet
  facet normal 0 0.80329 0.595588
    outer loop
      vertex 0.495 0.0834265 0.272221
      vertex 0.549999 0.0863485 0.26828
      vertex 0.495 0.0863485 0.26828
    endloop
  endfacet
  facet normal -0 0.514172 0.857687
    outer loop
      vertex 0.2 0.10143 0.255903
      vertex 0.254999 0.0972214 0.258426
      vertex 0.254999 0.10143 0.255903
    endloop
  endfacet
  facet normal 0 0.514172 0.857687
    outer loop
      vertex 0.254999 0.0972214 0.258426
      vertex 0.2 0.10143 0.255903
      vertex 0.2 0.0972214 0.258426
    endloop
  endfacet
  facet normal -0 0.514172 0.857687
    outer loop
      vertex 0.495 0.10143 0.255903
      vertex 0.549999 0.0972214 0.258426
      vertex 0.549999 0.10143 0.255903
    endloop
  endfacet
  facet normal 0 0.514172 0.857687
    outer loop
      vertex 0.549999 0.0972214 0.258426
      vertex 0.495 0.10143 0.255903
      vertex 0.495 0.0972214 0.258426
    endloop
  endfacet
  facet normal -0 0.336879 0.941548
    outer loop
      vertex 0.2 0.110485 0.252152
      vertex 0.254999 0.105865 0.253805
      vertex 0.254999 0.110485 0.252152
    endloop
  endfacet
  facet normal 0 0.336879 0.941548
    outer loop
      vertex 0.254999 0.105865 0.253805
      vertex 0.2 0.110485 0.252152
      vertex 0.2 0.105865 0.253805
    endloop
  endfacet
  facet normal -0 0.336879 0.941548
    outer loop
      vertex 0.495 0.110485 0.252152
      vertex 0.549999 0.105865 0.253805
      vertex 0.549999 0.110485 0.252152
    endloop
  endfacet
  facet normal 0 0.336879 0.941548
    outer loop
      vertex 0.549999 0.105865 0.253805
      vertex 0.495 0.110485 0.252152
      vertex 0.495 0.105865 0.253805
    endloop
  endfacet
  facet normal -0 0.146726 0.989177
    outer loop
      vertex 0.2 0.120099 0.25024
      vertex 0.254999 0.115245 0.25096
      vertex 0.254999 0.120099 0.25024
    endloop
  endfacet
  facet normal 0 0.146726 0.989177
    outer loop
      vertex 0.254999 0.115245 0.25096
      vertex 0.2 0.120099 0.25024
      vertex 0.2 0.115245 0.25096
    endloop
  endfacet
  facet normal -0 0.146726 0.989177
    outer loop
      vertex 0.495 0.120099 0.25024
      vertex 0.549999 0.115245 0.25096
      vertex 0.549999 0.120099 0.25024
    endloop
  endfacet
  facet normal 0 0.146726 0.989177
    outer loop
      vertex 0.549999 0.115245 0.25096
      vertex 0.495 0.120099 0.25024
      vertex 0.495 0.115245 0.25096
    endloop
  endfacet
  facet normal 0 0.9988 0.048972
    outer loop
      vertex 0.254999 0.0752401 0.295098
      vertex 0.2 0.0749998 0.299999
      vertex 0.254999 0.0749998 0.299999
    endloop
  endfacet
  facet normal 0 0.9988 0.048972
    outer loop
      vertex 0.2 0.0749998 0.299999
      vertex 0.254999 0.0752401 0.295098
      vertex 0.2 0.0752401 0.295098
    endloop
  endfacet
  facet normal 0 0.9988 0.048972
    outer loop
      vertex 0.549999 0.0752401 0.295098
      vertex 0.495 0.0749998 0.299999
      vertex 0.549999 0.0749998 0.299999
    endloop
  endfacet
  facet normal 0 0.9988 0.048972
    outer loop
      vertex 0.495 0.0749998 0.299999
      vertex 0.549999 0.0752401 0.295098
      vertex 0.495 0.0752401 0.295098
    endloop
  endfacet
  facet normal 0 -0.0491395 0.998792
    outer loop
      vertex 0.254999 0.187732 0.18065
      vertex 0.495 0.1745 0.179999
      vertex 0.495 0.187732 0.18065
    endloop
  endfacet
  facet normal 0 -0.0491395 0.998792
    outer loop
      vertex 0.495 0.1745 0.179999
      vertex 0.254999 0.187732 0.18065
      vertex 0.254999 0.1745 0.179999
    endloop
  endfacet
  facet normal 1 -0 0
    outer loop
      vertex 0.254999 0.166573 0.272221
      vertex 0.254999 0.224999 0.18986
      vertex 0.254999 0.224999 0.299999
    endloop
  endfacet
  facet normal 1 -0 0
    outer loop
      vertex 0.254999 0.163651 0.26828
      vertex 0.254999 0.224999 0.18986
      vertex 0.254999 0.166573 0.272221
    endloop
  endfacet
  facet normal 1 0 0
    outer loop
      vertex 0.254999 0.224999 0.18986
      vertex 0.254999 0.163651 0.26828
      vertex 0.254999 0.213688 0.185813
    endloop
  endfacet
  facet normal 1 0 0
    outer loop
      vertex 0.254999 0.174759 0.295098
      vertex 0.254999 0.224999 0.299999
      vertex 0.254999 0.174999 0.299999
    endloop
  endfacet
  facet normal 1 0 0
    outer loop
      vertex 0.254999 0.174039 0.290245
      vertex 0.254999 0.224999 0.299999
      vertex 0.254999 0.174759 0.295098
    endloop
  endfacet
  facet normal 1 0 0
    outer loop
      vertex 0.254999 0.172847 0.285485
      vertex 0.254999 0.224999 0.299999
      vertex 0.254999 0.174039 0.290245
    endloop
  endfacet
  facet normal 1 0 0
    outer loop
      vertex 0.254999 0.171193 0.280866
      vertex 0.254999 0.224999 0.299999
      vertex 0.254999 0.172847 0.285485
    endloop
  endfacet
  facet normal 1 0 0
    outer loop
      vertex 0.254999 0.169096 0.27643
      vertex 0.254999 0.224999 0.299999
      vertex 0.254999 0.171193 0.280866
    endloop
  endfacet
  facet normal 1 0 0
    outer loop
      vertex 0.254999 0.166573 0.272221
      vertex 0.254999 0.224999 0.299999
      vertex 0.254999 0.169096 0.27643
    endloop
  endfacet
  facet normal 1 -0 0
    outer loop
      vertex 0.254999 0.160355 0.264645
      vertex 0.254999 0.213688 0.185813
      vertex 0.254999 0.163651 0.26828
    endloop
  endfacet
  facet normal 1 0 0
    outer loop
      vertex 0.254999 0.213688 0.185813
      vertex 0.254999 0.160355 0.264645
      vertex 0.254999 0.200837 0.182593
    endloop
  endfacet
  facet normal 1 -0 0
    outer loop
      vertex 0.254999 0.156719 0.261349
      vertex 0.254999 0.200837 0.182593
      vertex 0.254999 0.160355 0.264645
    endloop
  endfacet
  facet normal 1 0 0
    outer loop
      vertex 0.254999 0.200837 0.182593
      vertex 0.254999 0.156719 0.261349
      vertex 0.254999 0.187732 0.18065
    endloop
  endfacet
  facet normal 1 -0 0
    outer loop
      vertex 0.254999 0.152778 0.258426
      vertex 0.254999 0.187732 0.18065
      vertex 0.254999 0.156719 0.261349
    endloop
  endfacet
  facet normal 1 0 0
    outer loop
      vertex 0.254999 0.187732 0.18065
      vertex 0.254999 0.152778 0.258426
      vertex 0.254999 0.1745 0.179999
    endloop
  endfacet
  facet normal 1 -0 0
    outer loop
      vertex 0.254999 0.148569 0.255903
      vertex 0.254999 0.1745 0.179999
      vertex 0.254999 0.152778 0.258426
    endloop
  endfacet
  facet normal 1 0 0
    outer loop
      vertex 0.254999 0.1745 0.179999
      vertex 0.254999 0.148569 0.255903
      vertex 0.254999 0.161267 0.18065
    endloop
  endfacet
  facet normal 1 -0 0
    outer loop
      vertex 0.254999 0.144134 0.253805
      vertex 0.254999 0.161267 0.18065
      vertex 0.254999 0.148569 0.255903
    endloop
  endfacet
  facet normal 1 0 0
    outer loop
      vertex 0.254999 0.161267 0.18065
      vertex 0.254999 0.144134 0.253805
      vertex 0.254999 0.148162 0.182593
    endloop
  endfacet
  facet normal 1 -0 0
    outer loop
      vertex 0.254999 0.139514 0.252152
      vertex 0.254999 0.148162 0.182593
      vertex 0.254999 0.144134 0.253805
    endloop
  endfacet
  facet normal 1 0 0
    outer loop
      vertex 0.254999 0.139514 0.252152
      vertex 0.254999 0.135311 0.185813
      vertex 0.254999 0.148162 0.182593
    endloop
  endfacet
  facet normal 1 -0 0
    outer loop
      vertex 0.254999 0.134754 0.25096
      vertex 0.254999 0.135311 0.185813
      vertex 0.254999 0.139514 0.252152
    endloop
  endfacet
  facet normal 1 0 0
    outer loop
      vertex 0.254999 0.122837 0.190276
      vertex 0.254999 0.134754 0.25096
      vertex 0.254999 0.1299 0.25024
    endloop
  endfacet
  facet normal 1 0 0
    outer loop
      vertex 0.254999 0.110861 0.19594
      vertex 0.254999 0.1299 0.25024
      vertex 0.254999 0.125 0.25
    endloop
  endfacet
  facet normal 1 0 0
    outer loop
      vertex 0.254999 0.134754 0.25096
      vertex 0.254999 0.122837 0.190276
      vertex 0.254999 0.135311 0.185813
    endloop
  endfacet
  facet normal 1 0 0
    outer loop
      vertex 0.254999 0.110861 0.19594
      vertex 0.254999 0.125 0.25
      vertex 0.254999 0.120099 0.25024
    endloop
  endfacet
  facet normal 1 0 0
    outer loop
      vertex 0.254999 0.0994978 0.202751
      vertex 0.254999 0.120099 0.25024
      vertex 0.254999 0.115245 0.25096
    endloop
  endfacet
  facet normal 1 0 0
    outer loop
      vertex 0.254999 0.1299 0.25024
      vertex 0.254999 0.110861 0.19594
      vertex 0.254999 0.122837 0.190276
    endloop
  endfacet
  facet normal 1 0 0
    outer loop
      vertex 0.254999 0.0888567 0.210643
      vertex 0.254999 0.115245 0.25096
      vertex 0.254999 0.110485 0.252152
    endloop
  endfacet
  facet normal 1 0 0
    outer loop
      vertex 0.254999 0.0888567 0.210643
      vertex 0.254999 0.110485 0.252152
      vertex 0.254999 0.105865 0.253805
    endloop
  endfacet
  facet normal 1 0 0
    outer loop
      vertex 0.254999 0.0790405 0.21954
      vertex 0.254999 0.105865 0.253805
      vertex 0.254999 0.10143 0.255903
    endloop
  endfacet
  facet normal 1 0 0
    outer loop
      vertex 0.254999 0.120099 0.25024
      vertex 0.254999 0.0994978 0.202751
      vertex 0.254999 0.110861 0.19594
    endloop
  endfacet
  facet normal 1 0 0
    outer loop
      vertex 0.254999 0.0701427 0.229357
      vertex 0.254999 0.10143 0.255903
      vertex 0.254999 0.0972214 0.258426
    endloop
  endfacet
  facet normal 1 0 0
    outer loop
      vertex 0.254999 0.0701427 0.229357
      vertex 0.254999 0.0972214 0.258426
      vertex 0.254999 0.0932798 0.261349
    endloop
  endfacet
  facet normal 1 0 0
    outer loop
      vertex 0.254999 0.0622511 0.239998
      vertex 0.254999 0.0932798 0.261349
      vertex 0.254999 0.0896444 0.264645
    endloop
  endfacet
  facet normal 1 0 0
    outer loop
      vertex 0.254999 0.115245 0.25096
      vertex 0.254999 0.0888567 0.210643
      vertex 0.254999 0.0994978 0.202751
    endloop
  endfacet
  facet normal 1 0 0
    outer loop
      vertex 0.254999 0.0622511 0.239998
      vertex 0.254999 0.0896444 0.264645
      vertex 0.254999 0.0863485 0.26828
    endloop
  endfacet
  facet normal 1 0 0
    outer loop
      vertex 0.254999 0.0554399 0.251361
      vertex 0.254999 0.0863485 0.26828
      vertex 0.254999 0.0834265 0.272221
    endloop
  endfacet
  facet normal 1 0 0
    outer loop
      vertex 0.254999 0.0497761 0.263337
      vertex 0.254999 0.0834265 0.272221
      vertex 0.254999 0.0809031 0.27643
    endloop
  endfacet
  facet normal 1 0 0
    outer loop
      vertex 0.254999 0.105865 0.253805
      vertex 0.254999 0.0790405 0.21954
      vertex 0.254999 0.0888567 0.210643
    endloop
  endfacet
  facet normal 1 0 0
    outer loop
      vertex 0.254999 0.0497761 0.263337
      vertex 0.254999 0.0809031 0.27643
      vertex 0.254999 0.0788059 0.280866
    endloop
  endfacet
  facet normal 1 0 0
    outer loop
      vertex 0.254999 0.0453129 0.275811
      vertex 0.254999 0.0788059 0.280866
      vertex 0.254999 0.0771523 0.285485
    endloop
  endfacet
  facet normal 1 0 0
    outer loop
      vertex 0.254999 0.0453129 0.275811
      vertex 0.254999 0.0771523 0.285485
      vertex 0.254999 0.0759602 0.290245
    endloop
  endfacet
  facet normal 1 0 0
    outer loop
      vertex 0.254999 0.0420933 0.288662
      vertex 0.254999 0.0759602 0.290245
      vertex 0.254999 0.0752401 0.295098
    endloop
  endfacet
  facet normal 1 0 0
    outer loop
      vertex 0.254999 0.10143 0.255903
      vertex 0.254999 0.0701427 0.229357
      vertex 0.254999 0.0790405 0.21954
    endloop
  endfacet
  facet normal 1 0 0
    outer loop
      vertex 0.254999 0.0420933 0.288662
      vertex 0.254999 0.0752401 0.295098
      vertex 0.254999 0.0749998 0.299999
    endloop
  endfacet
  facet normal 1 0 0
    outer loop
      vertex 0.254999 0.0932798 0.261349
      vertex 0.254999 0.0622511 0.239998
      vertex 0.254999 0.0701427 0.229357
    endloop
  endfacet
  facet normal 1 0 0
    outer loop
      vertex 0.254999 0.0863485 0.26828
      vertex 0.254999 0.0554399 0.251361
      vertex 0.254999 0.0622511 0.239998
    endloop
  endfacet
  facet normal 1 0 0
    outer loop
      vertex 0.254999 0.0834265 0.272221
      vertex 0.254999 0.0497761 0.263337
      vertex 0.254999 0.0554399 0.251361
    endloop
  endfacet
  facet normal 1 0 0
    outer loop
      vertex 0.254999 0.0788059 0.280866
      vertex 0.254999 0.0453129 0.275811
      vertex 0.254999 0.0497761 0.263337
    endloop
  endfacet
  facet normal 1 0 0
    outer loop
      vertex 0.254999 0.0759602 0.290245
      vertex 0.254999 0.0420933 0.288662
      vertex 0.254999 0.0453129 0.275811
    endloop
  endfacet
  facet normal 1 0 -0
    outer loop
      vertex 0.254999 0.0420933 0.288662
      vertex 0.254999 0.0749998 0.299999
      vertex 0.254999 0.0404119 0.299999
    endloop
  endfacet
  facet normal 0 -0.146661 0.989187
    outer loop
      vertex 0.254999 0.200837 0.182593
      vertex 0.495 0.187732 0.18065
      vertex 0.495 0.200837 0.182593
    endloop
  endfacet
  facet normal 0 -0.146661 0.989187
    outer loop
      vertex 0.495 0.187732 0.18065
      vertex 0.254999 0.200837 0.182593
      vertex 0.254999 0.187732 0.18065
    endloop
  endfacet
  facet normal 0 -0.336879 0.941548
    outer loop
      vertex 0.254999 0.224999 0.18986
      vertex 0.495 0.213688 0.185813
      vertex 0.495 0.224999 0.18986
    endloop
  endfacet
  facet normal 0 -0.336879 0.941548
    outer loop
      vertex 0.495 0.213688 0.185813
      vertex 0.254999 0.224999 0.18986
      vertex 0.254999 0.213688 0.185813
    endloop
  endfacet
  facet normal 0 0.970021 0.243022
    outer loop
      vertex 0.495 0.0453129 0.275811
      vertex 0.254999 0.0420933 0.288662
      vertex 0.495 0.0420933 0.288662
    endloop
  endfacet
  facet normal 0 0.970021 0.243022
    outer loop
      vertex 0.254999 0.0420933 0.288662
      vertex 0.495 0.0453129 0.275811
      vertex 0.254999 0.0453129 0.275811
    endloop
  endfacet
  facet normal 0 0.803218 0.595685
    outer loop
      vertex 0.495 0.0701427 0.229357
      vertex 0.254999 0.0622511 0.239998
      vertex 0.495 0.0622511 0.239998
    endloop
  endfacet
  facet normal 0 0.803218 0.595685
    outer loop
      vertex 0.254999 0.0622511 0.239998
      vertex 0.495 0.0701427 0.229357
      vertex 0.254999 0.0701427 0.229357
    endloop
  endfacet
  facet normal 0 0.904002 0.427529
    outer loop
      vertex 0.495 0.0554399 0.251361
      vertex 0.254999 0.0497761 0.263337
      vertex 0.495 0.0497761 0.263337
    endloop
  endfacet
  facet normal 0 0.904002 0.427529
    outer loop
      vertex 0.254999 0.0497761 0.263337
      vertex 0.495 0.0554399 0.251361
      vertex 0.254999 0.0554399 0.251361
    endloop
  endfacet
  facet normal -0 0.671564 0.740947
    outer loop
      vertex 0.254999 0.0888567 0.210643
      vertex 0.495 0.0790405 0.21954
      vertex 0.495 0.0888567 0.210643
    endloop
  endfacet
  facet normal 0 0.671564 0.740947
    outer loop
      vertex 0.495 0.0790405 0.21954
      vertex 0.254999 0.0888567 0.210643
      vertex 0.254999 0.0790405 0.21954
    endloop
  endfacet
  facet normal -0 0.514112 0.857723
    outer loop
      vertex 0.254999 0.110861 0.19594
      vertex 0.495 0.0994978 0.202751
      vertex 0.495 0.110861 0.19594
    endloop
  endfacet
  facet normal 0 0.514112 0.857723
    outer loop
      vertex 0.495 0.0994978 0.202751
      vertex 0.254999 0.110861 0.19594
      vertex 0.254999 0.0994978 0.202751
    endloop
  endfacet
  facet normal -1 0 0
    outer loop
      vertex 0.495 0.163651 0.26828
      vertex 0.495 0.224999 0.18986
      vertex 0.495 0.213688 0.185813
    endloop
  endfacet
  facet normal -1 0 0
    outer loop
      vertex 0.495 0.160355 0.264645
      vertex 0.495 0.213688 0.185813
      vertex 0.495 0.200837 0.182593
    endloop
  endfacet
  facet normal -1 0 0
    outer loop
      vertex 0.495 0.156719 0.261349
      vertex 0.495 0.200837 0.182593
      vertex 0.495 0.187732 0.18065
    endloop
  endfacet
  facet normal -1 0 0
    outer loop
      vertex 0.495 0.224999 0.18986
      vertex 0.495 0.166573 0.272221
      vertex 0.495 0.224999 0.299999
    endloop
  endfacet
  facet normal -1 -0 0
    outer loop
      vertex 0.495 0.224999 0.299999
      vertex 0.495 0.174759 0.295098
      vertex 0.495 0.174999 0.299999
    endloop
  endfacet
  facet normal -1 0 0
    outer loop
      vertex 0.495 0.152778 0.258426
      vertex 0.495 0.187732 0.18065
      vertex 0.495 0.1745 0.179999
    endloop
  endfacet
  facet normal -1 0 0
    outer loop
      vertex 0.495 0.224999 0.299999
      vertex 0.495 0.174039 0.290245
      vertex 0.495 0.174759 0.295098
    endloop
  endfacet
  facet normal -1 0 0
    outer loop
      vertex 0.495 0.224999 0.299999
      vertex 0.495 0.172847 0.285485
      vertex 0.495 0.174039 0.290245
    endloop
  endfacet
  facet normal -1 0 0
    outer loop
      vertex 0.495 0.224999 0.299999
      vertex 0.495 0.171193 0.280866
      vertex 0.495 0.172847 0.285485
    endloop
  endfacet
  facet normal -1 0 0
    outer loop
      vertex 0.495 0.224999 0.299999
      vertex 0.495 0.169096 0.27643
      vertex 0.495 0.171193 0.280866
    endloop
  endfacet
  facet normal -1 0 0
    outer loop
      vertex 0.495 0.224999 0.299999
      vertex 0.495 0.166573 0.272221
      vertex 0.495 0.169096 0.27643
    endloop
  endfacet
  facet normal -1 0 0
    outer loop
      vertex 0.495 0.224999 0.18986
      vertex 0.495 0.163651 0.26828
      vertex 0.495 0.166573 0.272221
    endloop
  endfacet
  facet normal -1 0 0
    outer loop
      vertex 0.495 0.148569 0.255903
      vertex 0.495 0.1745 0.179999
      vertex 0.495 0.161267 0.18065
    endloop
  endfacet
  facet normal -1 0 0
    outer loop
      vertex 0.495 0.213688 0.185813
      vertex 0.495 0.160355 0.264645
      vertex 0.495 0.163651 0.26828
    endloop
  endfacet
  facet normal -1 0 0
    outer loop
      vertex 0.495 0.200837 0.182593
      vertex 0.495 0.156719 0.261349
      vertex 0.495 0.160355 0.264645
    endloop
  endfacet
  facet normal -1 0 0
    outer loop
      vertex 0.495 0.187732 0.18065
      vertex 0.495 0.152778 0.258426
      vertex 0.495 0.156719 0.261349
    endloop
  endfacet
  facet normal -1 0 0
    outer loop
      vertex 0.495 0.1745 0.179999
      vertex 0.495 0.148569 0.255903
      vertex 0.495 0.152778 0.258426
    endloop
  endfacet
  facet normal -1 0 0
    outer loop
      vertex 0.495 0.144134 0.253805
      vertex 0.495 0.161267 0.18065
      vertex 0.495 0.148162 0.182593
    endloop
  endfacet
  facet normal -1 0 0
    outer loop
      vertex 0.495 0.161267 0.18065
      vertex 0.495 0.144134 0.253805
      vertex 0.495 0.148569 0.255903
    endloop
  endfacet
  facet normal -1 0 0
    outer loop
      vertex 0.495 0.148162 0.182593
      vertex 0.495 0.139514 0.252152
      vertex 0.495 0.144134 0.253805
    endloop
  endfacet
  facet normal -1 0 0
    outer loop
      vertex 0.495 0.135311 0.185813
      vertex 0.495 0.139514 0.252152
      vertex 0.495 0.148162 0.182593
    endloop
  endfacet
  facet normal -1 0 0
    outer loop
      vertex 0.495 0.135311 0.185813
      vertex 0.495 0.134754 0.25096
      vertex 0.495 0.139514 0.252152
    endloop
  endfacet
  facet normal -1 0 0
    outer loop
      vertex 0.495 0.122837 0.190276
      vertex 0.495 0.134754 0.25096
      vertex 0.495 0.135311 0.185813
    endloop
  endfacet
  facet normal -1 0 0
    outer loop
      vertex 0.495 0.134754 0.25096
      vertex 0.495 0.122837 0.190276
      vertex 0.495 0.1299 0.25024
    endloop
  endfacet
  facet normal -1 0 0
    outer loop
      vertex 0.495 0.110861 0.19594
      vertex 0.495 0.1299 0.25024
      vertex 0.495 0.122837 0.190276
    endloop
  endfacet
  facet normal -1 0 0
    outer loop
      vertex 0.495 0.1299 0.25024
      vertex 0.495 0.110861 0.19594
      vertex 0.495 0.125 0.25
    endloop
  endfacet
  facet normal -1 -0 0
    outer loop
      vertex 0.495 0.125 0.25
      vertex 0.495 0.110861 0.19594
      vertex 0.495 0.120099 0.25024
    endloop
  endfacet
  facet normal -1 0 0
    outer loop
      vertex 0.495 0.0994978 0.202751
      vertex 0.495 0.120099 0.25024
      vertex 0.495 0.110861 0.19594
    endloop
  endfacet
  facet normal -1 -0 0
    outer loop
      vertex 0.495 0.120099 0.25024
      vertex 0.495 0.0994978 0.202751
      vertex 0.495 0.115245 0.25096
    endloop
  endfacet
  facet normal -1 0 0
    outer loop
      vertex 0.495 0.0888567 0.210643
      vertex 0.495 0.115245 0.25096
      vertex 0.495 0.0994978 0.202751
    endloop
  endfacet
  facet normal -1 -0 0
    outer loop
      vertex 0.495 0.115245 0.25096
      vertex 0.495 0.0888567 0.210643
      vertex 0.495 0.110485 0.252152
    endloop
  endfacet
  facet normal -1 -0 0
    outer loop
      vertex 0.495 0.110485 0.252152
      vertex 0.495 0.0888567 0.210643
      vertex 0.495 0.105865 0.253805
    endloop
  endfacet
  facet normal -1 0 0
    outer loop
      vertex 0.495 0.0790405 0.21954
      vertex 0.495 0.105865 0.253805
      vertex 0.495 0.0888567 0.210643
    endloop
  endfacet
  facet normal -1 -0 0
    outer loop
      vertex 0.495 0.105865 0.253805
      vertex 0.495 0.0790405 0.21954
      vertex 0.495 0.10143 0.255903
    endloop
  endfacet
  facet normal -1 0 0
    outer loop
      vertex 0.495 0.0701427 0.229357
      vertex 0.495 0.10143 0.255903
      vertex 0.495 0.0790405 0.21954
    endloop
  endfacet
  facet normal -1 -0 0
    outer loop
      vertex 0.495 0.10143 0.255903
      vertex 0.495 0.0701427 0.229357
      vertex 0.495 0.0972214 0.258426
    endloop
  endfacet
  facet normal -1 -0 0
    outer loop
      vertex 0.495 0.0972214 0.258426
      vertex 0.495 0.0701427 0.229357
      vertex 0.495 0.0932798 0.261349
    endloop
  endfacet
  facet normal -1 0 0
    outer loop
      vertex 0.495 0.0622511 0.239998
      vertex 0.495 0.0932798 0.261349
      vertex 0.495 0.0701427 0.229357
    endloop
  endfacet
  facet normal -1 -0 0
    outer loop
      vertex 0.495 0.0932798 0.261349
      vertex 0.495 0.0622511 0.239998
      vertex 0.495 0.0896444 0.264645
    endloop
  endfacet
  facet normal -1 -0 0
    outer loop
      vertex 0.495 0.0896444 0.264645
      vertex 0.495 0.0622511 0.239998
      vertex 0.495 0.0863485 0.26828
    endloop
  endfacet
  facet normal -1 0 0
    outer loop
      vertex 0.495 0.0554399 0.251361
      vertex 0.495 0.0863485 0.26828
      vertex 0.495 0.0622511 0.239998
    endloop
  endfacet
  facet normal -1 -0 0
    outer loop
      vertex 0.495 0.0863485 0.26828
      vertex 0.495 0.0554399 0.251361
      vertex 0.495 0.0834265 0.272221
    endloop
  endfacet
  facet normal -1 0 0
    outer loop
      vertex 0.495 0.0497761 0.263337
      vertex 0.495 0.0834265 0.272221
      vertex 0.495 0.0554399 0.251361
    endloop
  endfacet
  facet normal -1 -0 0
    outer loop
      vertex 0.495 0.0834265 0.272221
      vertex 0.495 0.0497761 0.263337
      vertex 0.495 0.0809031 0.27643
    endloop
  endfacet
  facet normal -1 -0 0
    outer loop
      vertex 0.495 0.0809031 0.27643
      vertex 0.495 0.0497761 0.263337
      vertex 0.495 0.0788059 0.280866
    endloop
  endfacet
  facet normal -1 0 0
    outer loop
      vertex 0.495 0.0453129 0.275811
      vertex 0.495 0.0788059 0.280866
      vertex 0.495 0.0497761 0.263337
    endloop
  endfacet
  facet normal -1 -0 0
    outer loop
      vertex 0.495 0.0788059 0.280866
      vertex 0.495 0.0453129 0.275811
      vertex 0.495 0.0771523 0.285485
    endloop
  endfacet
  facet normal -1 -0 0
    outer loop
      vertex 0.495 0.0771523 0.285485
      vertex 0.495 0.0453129 0.275811
      vertex 0.495 0.0759602 0.290245
    endloop
  endfacet
  facet normal -1 0 0
    outer loop
      vertex 0.495 0.0420933 0.288662
      vertex 0.495 0.0759602 0.290245
      vertex 0.495 0.0453129 0.275811
    endloop
  endfacet
  facet normal -1 -0 0
    outer loop
      vertex 0.495 0.0759602 0.290245
      vertex 0.495 0.0420933 0.288662
      vertex 0.495 0.0752401 0.295098
    endloop
  endfacet
  facet normal -1 -0 0
    outer loop
      vertex 0.495 0.0752401 0.295098
      vertex 0.495 0.0420933 0.288662
      vertex 0.495 0.0749998 0.299999
    endloop
  endfacet
  facet normal -1 -0 0
    outer loop
      vertex 0.495 0.0749998 0.299999
      vertex 0.495 0.0420933 0.288662
      vertex 0.495 0.0404119 0.299999
    endloop
  endfacet
  facet normal 0 -0.243051 0.970014
    outer loop
      vertex 0.254999 0.213688 0.185813
      vertex 0.495 0.200837 0.182593
      vertex 0.495 0.213688 0.185813
    endloop
  endfacet
  facet normal 0 -0.243051 0.970014
    outer loop
      vertex 0.495 0.200837 0.182593
      vertex 0.254999 0.213688 0.185813
      vertex 0.254999 0.200837 0.182593
    endloop
  endfacet
  facet normal -0 0.0491358 0.998792
    outer loop
      vertex 0.254999 0.1745 0.179999
      vertex 0.495 0.161267 0.18065
      vertex 0.495 0.1745 0.179999
    endloop
  endfacet
  facet normal 0 0.0491358 0.998792
    outer loop
      vertex 0.495 0.161267 0.18065
      vertex 0.254999 0.1745 0.179999
      vertex 0.254999 0.161267 0.18065
    endloop
  endfacet
  facet normal 0 0.98918 0.146706
    outer loop
      vertex 0.495 0.0420933 0.288662
      vertex 0.254999 0.0404119 0.299999
      vertex 0.495 0.0404119 0.299999
    endloop
  endfacet
  facet normal 0 0.98918 0.146706
    outer loop
      vertex 0.254999 0.0404119 0.299999
      vertex 0.495 0.0420933 0.288662
      vertex 0.254999 0.0420933 0.288662
    endloop
  endfacet
  facet normal 0 0.941546 0.336885
    outer loop
      vertex 0.495 0.0497761 0.263337
      vertex 0.254999 0.0453129 0.275811
      vertex 0.495 0.0453129 0.275811
    endloop
  endfacet
  facet normal 0 0.941546 0.336885
    outer loop
      vertex 0.254999 0.0453129 0.275811
      vertex 0.495 0.0497761 0.263337
      vertex 0.254999 0.0497761 0.263337
    endloop
  endfacet
  facet normal 0 0.740944 0.671567
    outer loop
      vertex 0.495 0.0790405 0.21954
      vertex 0.254999 0.0701427 0.229357
      vertex 0.495 0.0701427 0.229357
    endloop
  endfacet
  facet normal 0 0.740944 0.671567
    outer loop
      vertex 0.254999 0.0701427 0.229357
      vertex 0.495 0.0790405 0.21954
      vertex 0.254999 0.0790405 0.21954
    endloop
  endfacet
  facet normal 0 0.857713 0.514129
    outer loop
      vertex 0.495 0.0622511 0.239998
      vertex 0.254999 0.0554399 0.251361
      vertex 0.495 0.0554399 0.251361
    endloop
  endfacet
  facet normal 0 0.857713 0.514129
    outer loop
      vertex 0.254999 0.0554399 0.251361
      vertex 0.495 0.0622511 0.239998
      vertex 0.254999 0.0622511 0.239998
    endloop
  endfacet
  facet normal -0 0.5957 0.803207
    outer loop
      vertex 0.254999 0.0994978 0.202751
      vertex 0.495 0.0888567 0.210643
      vertex 0.495 0.0994978 0.202751
    endloop
  endfacet
  facet normal 0 0.5957 0.803207
    outer loop
      vertex 0.495 0.0888567 0.210643
      vertex 0.254999 0.0994978 0.202751
      vertex 0.254999 0.0888567 0.210643
    endloop
  endfacet
  facet normal -0 0.427541 0.903996
    outer loop
      vertex 0.254999 0.122837 0.190276
      vertex 0.495 0.110861 0.19594
      vertex 0.495 0.122837 0.190276
    endloop
  endfacet
  facet normal 0 0.427541 0.903996
    outer loop
      vertex 0.495 0.110861 0.19594
      vertex 0.254999 0.122837 0.190276
      vertex 0.254999 0.110861 0.19594
    endloop
  endfacet
  facet normal -0 0.243051 0.970014
    outer loop
      vertex 0.254999 0.148162 0.182593
      vertex 0.495 0.135311 0.185813
      vertex 0.495 0.148162 0.182593
    endloop
  endfacet
  facet normal 0 0.243051 0.970014
    outer loop
      vertex 0.495 0.135311 0.185813
      vertex 0.254999 0.148162 0.182593
      vertex 0.254999 0.135311 0.185813
    endloop
  endfacet
  facet normal -0 0.336872 0.94155
    outer loop
      vertex 0.254999 0.135311 0.185813
      vertex 0.495 0.122837 0.190276
      vertex 0.495 0.135311 0.185813
    endloop
  endfacet
  facet normal 0 0.336872 0.94155
    outer loop
      vertex 0.495 0.122837 0.190276
      vertex 0.254999 0.135311 0.185813
      vertex 0.254999 0.122837 0.190276
    endloop
  endfacet
  facet normal -0 0.146661 0.989187
    outer loop
      vertex 0.254999 0.161267 0.18065
      vertex 0.495 0.148162 0.182593
      vertex 0.495 0.161267 0.18065
    endloop
  endfacet
  facet normal 0 0.146661 0.989187
    outer loop
      vertex 0.495 0.148162 0.182593
      vertex 0.254999 0.161267 0.18065
      vertex 0.254999 0.148162 0.182593
    endloop
  endfacet
endsolid OpenSCAD_Model
