solid OpenSCAD_Model
  facet normal -1 0 0
    outer loop
      vertex 0.5351 0.108999 -0.150999
      vertex 0.5351 0.199326 0
      vertex 0.5351 0.199326 -0.150999
    endloop
  endfacet
  facet normal -1 -0 0
    outer loop
      vertex 0.5351 0.199326 0
      vertex 0.5351 0.108999 -0.150999
      vertex 0.5351 0.108999 0
    endloop
  endfacet
  facet normal 0 0 -1
    outer loop
      vertex 0.75 0 0
      vertex 0.722899 0.5131 0
      vertex 0.75 0.669426 0
    endloop
  endfacet
  facet normal 0 0 -1
    outer loop
      vertex 0.6915 0.199326 0
      vertex 0.75 0 0
      vertex 0.6915 0.108999 0
    endloop
  endfacet
  facet normal 0 0 -1
    outer loop
      vertex 0.75 0 0
      vertex 0.5351 0.108999 0
      vertex 0.6915 0.108999 0
    endloop
  endfacet
  facet normal 0 0 -1
    outer loop
      vertex 0.2597 0.157825 0
      vertex 0.5351 0.199326 0
      vertex 0.5351 0.108999 0
    endloop
  endfacet
  facet normal 0 0 -1
    outer loop
      vertex 0.324599 0.624725 0
      vertex 0.515699 0.5131 0
      vertex 0.324599 0.5088 0
    endloop
  endfacet
  facet normal 0 -0 -1
    outer loop
      vertex 0.324599 0.5088 0
      vertex 0.5351 0.199326 0
      vertex 0.2597 0.157825 0
    endloop
  endfacet
  facet normal 0 0 -1
    outer loop
      vertex 0.2597 0.157825 0
      vertex 0.5351 0.108999 0
      vertex 0.2597 0.0293999 0
    endloop
  endfacet
  facet normal 0 0 -1
    outer loop
      vertex 0.75 0 0
      vertex 0.2597 0.0293999 0
      vertex 0.5351 0.108999 0
    endloop
  endfacet
  facet normal 0 0 -1
    outer loop
      vertex 0 0 0
      vertex 0.2597 0.0293999 0
      vertex 0.75 0 0
    endloop
  endfacet
  facet normal -0 0 -1
    outer loop
      vertex 0.0567999 0.0293999 0
      vertex 0 0 0
      vertex 0.0567999 0.157825 0
    endloop
  endfacet
  facet normal -0 0 -1
    outer loop
      vertex 0.2597 0.0293999 0
      vertex 0 0 0
      vertex 0.0567999 0.0293999 0
    endloop
  endfacet
  facet normal 0 0 -1
    outer loop
      vertex 0.722899 0.624226 0
      vertex 0.75 0.669426 0
      vertex 0.722899 0.5131 0
    endloop
  endfacet
  facet normal 0 0 -1
    outer loop
      vertex 0.515699 0.624226 0
      vertex 0.75 0.669426 0
      vertex 0.722899 0.624226 0
    endloop
  endfacet
  facet normal 0 0 -1
    outer loop
      vertex 0.515699 0.5131 0
      vertex 0.324599 0.624725 0
      vertex 0.515699 0.624226 0
    endloop
  endfacet
  facet normal 0 0 -1
    outer loop
      vertex 0.324599 0.624725 0
      vertex 0.75 0.669426 0
      vertex 0.515699 0.624226 0
    endloop
  endfacet
  facet normal 0 0 -1
    outer loop
      vertex 0 0.669426 0
      vertex 0.324599 0.624725 0
      vertex 0.0892992 0.624725 0
    endloop
  endfacet
  facet normal 0 0 -1
    outer loop
      vertex 0.0567999 0.157825 0
      vertex 0 0.669426 0
      vertex 0.0892992 0.5088 0
    endloop
  endfacet
  facet normal 0 0 -1
    outer loop
      vertex 0.324599 0.624725 0
      vertex 0 0.669426 0
      vertex 0.75 0.669426 0
    endloop
  endfacet
  facet normal 0 0 -1
    outer loop
      vertex 0.0892992 0.5088 0
      vertex 0 0.669426 0
      vertex 0.0892992 0.624725 0
    endloop
  endfacet
  facet normal 0 0 -1
    outer loop
      vertex 0.75 0 0
      vertex 0.6915 0.199326 0
      vertex 0.722899 0.5131 0
    endloop
  endfacet
  facet normal 0 0 -1
    outer loop
      vertex 0.515699 0.5131 0
      vertex 0.6915 0.199326 0
      vertex 0.5351 0.199326 0
    endloop
  endfacet
  facet normal 0 0 -1
    outer loop
      vertex 0.6915 0.199326 0
      vertex 0.515699 0.5131 0
      vertex 0.722899 0.5131 0
    endloop
  endfacet
  facet normal 0 0 -1
    outer loop
      vertex 0.5351 0.199326 0
      vertex 0.324599 0.5088 0
      vertex 0.515699 0.5131 0
    endloop
  endfacet
  facet normal 0 0 -1
    outer loop
      vertex 0.2597 0.157825 0
      vertex 0.0892992 0.5088 0
      vertex 0.324599 0.5088 0
    endloop
  endfacet
  facet normal 0 0 -1
    outer loop
      vertex 0 0.669426 0
      vertex 0.0567999 0.157825 0
      vertex 0 0 0
    endloop
  endfacet
  facet normal 0 0 -1
    outer loop
      vertex 0.0567999 0.157825 0
      vertex 0.0892992 0.5088 0
      vertex 0.2597 0.157825 0
    endloop
  endfacet
  facet normal 1 -0 0
    outer loop
      vertex 0.6915 0.108999 0
      vertex 0.6915 0.199326 -0.150999
      vertex 0.6915 0.199326 0
    endloop
  endfacet
  facet normal 1 0 0
    outer loop
      vertex 0.6915 0.199326 -0.150999
      vertex 0.6915 0.108999 0
      vertex 0.6915 0.108999 -0.150999
    endloop
  endfacet
  facet normal 1 -0 0
    outer loop
      vertex 0.6915 0.108999 0.151099
      vertex 0.6915 0.199326 0.150978
      vertex 0.6915 0.199326 0.151099
    endloop
  endfacet
  facet normal 1 0 0
    outer loop
      vertex 0.6915 0.199326 0.150978
      vertex 0.6915 0.108999 0.151099
      vertex 0.6915 0.108999 0.150978
    endloop
  endfacet
  facet normal 0 1 -0
    outer loop
      vertex 0.6915 0.199326 -0.150999
      vertex 0.5351 0.199326 0
      vertex 0.6915 0.199326 0
    endloop
  endfacet
  facet normal 0 1 0
    outer loop
      vertex 0.5351 0.199326 0
      vertex 0.6915 0.199326 -0.150999
      vertex 0.5351 0.199326 -0.150999
    endloop
  endfacet
  facet normal 0 1 -0
    outer loop
      vertex 0.6915 0.199326 0.150978
      vertex 0.613299 0.199326 0.151099
      vertex 0.6915 0.199326 0.151099
    endloop
  endfacet
  facet normal 0 1 0
    outer loop
      vertex 0.613299 0.199326 0.151099
      vertex 0.6915 0.199326 0.150978
      vertex 0.613299 0.199326 0.150978
    endloop
  endfacet
  facet normal 0 0 -1
    outer loop
      vertex 0.5351 0.108999 -0.150999
      vertex 0.6915 0.199326 -0.150999
      vertex 0.6915 0.108999 -0.150999
    endloop
  endfacet
  facet normal -0 0 -1
    outer loop
      vertex 0.6915 0.199326 -0.150999
      vertex 0.5351 0.108999 -0.150999
      vertex 0.5351 0.199326 -0.150999
    endloop
  endfacet
  facet normal 0 -1 0
    outer loop
      vertex 0.5351 0.108999 -0.150999
      vertex 0.6915 0.108999 0
      vertex 0.5351 0.108999 0
    endloop
  endfacet
  facet normal 0 -1 -0
    outer loop
      vertex 0.6915 0.108999 0
      vertex 0.5351 0.108999 -0.150999
      vertex 0.6915 0.108999 -0.150999
    endloop
  endfacet
  facet normal 0 -1 0
    outer loop
      vertex 0.613299 0.108999 0.150978
      vertex 0.6915 0.108999 0.151099
      vertex 0.613299 0.108999 0.151099
    endloop
  endfacet
  facet normal 0 -1 -0
    outer loop
      vertex 0.6915 0.108999 0.151099
      vertex 0.613299 0.108999 0.150978
      vertex 0.6915 0.108999 0.150978
    endloop
  endfacet
  facet normal -1 0 0
    outer loop
      vertex 0.613299 0.108999 0.150978
      vertex 0.613299 0.199326 0.151099
      vertex 0.613299 0.199326 0.150978
    endloop
  endfacet
  facet normal -1 -0 0
    outer loop
      vertex 0.613299 0.199326 0.151099
      vertex 0.613299 0.108999 0.150978
      vertex 0.613299 0.108999 0.151099
    endloop
  endfacet
  facet normal -0 0 1
    outer loop
      vertex 0.613299 0.199326 0.151099
      vertex 0.6915 0.108999 0.151099
      vertex 0.6915 0.199326 0.151099
    endloop
  endfacet
  facet normal 0 0 1
    outer loop
      vertex 0.6915 0.108999 0.151099
      vertex 0.613299 0.199326 0.151099
      vertex 0.613299 0.108999 0.151099
    endloop
  endfacet
  facet normal -1 0 0
    outer loop
      vertex 0.0567999 0.0293999 -0.150999
      vertex 0.0567999 0.157825 0
      vertex 0.0567999 0.157825 -0.150999
    endloop
  endfacet
  facet normal -1 -0 0
    outer loop
      vertex 0.0567999 0.157825 0
      vertex 0.0567999 0.0293999 -0.150999
      vertex 0.0567999 0.0293999 0
    endloop
  endfacet
  facet normal -1 0 0
    outer loop
      vertex 0.0567999 0.0293999 0.150978
      vertex 0.0567999 0.157825 0.151099
      vertex 0.0567999 0.157825 0.150978
    endloop
  endfacet
  facet normal -1 -0 0
    outer loop
      vertex 0.0567999 0.157825 0.151099
      vertex 0.0567999 0.0293999 0.150978
      vertex 0.0567999 0.0293999 0.151099
    endloop
  endfacet
  facet normal 1 -0 0
    outer loop
      vertex 0.2597 0.0293999 0
      vertex 0.2597 0.157825 -0.150999
      vertex 0.2597 0.157825 0
    endloop
  endfacet
  facet normal 1 0 0
    outer loop
      vertex 0.2597 0.157825 -0.150999
      vertex 0.2597 0.0293999 0
      vertex 0.2597 0.0293999 -0.150999
    endloop
  endfacet
  facet normal 0 0 -1
    outer loop
      vertex 0.0567999 0.0293999 -0.150999
      vertex 0.2597 0.157825 -0.150999
      vertex 0.2597 0.0293999 -0.150999
    endloop
  endfacet
  facet normal -0 0 -1
    outer loop
      vertex 0.2597 0.157825 -0.150999
      vertex 0.0567999 0.0293999 -0.150999
      vertex 0.0567999 0.157825 -0.150999
    endloop
  endfacet
  facet normal 0 -1 0
    outer loop
      vertex 0.0567999 0.0293999 -0.150999
      vertex 0.2597 0.0293999 0
      vertex 0.0567999 0.0293999 0
    endloop
  endfacet
  facet normal 0 -1 -0
    outer loop
      vertex 0.2597 0.0293999 0
      vertex 0.0567999 0.0293999 -0.150999
      vertex 0.2597 0.0293999 -0.150999
    endloop
  endfacet
  facet normal 0 -1 0
    outer loop
      vertex 0.0567999 0.0293999 0.150978
      vertex 0.15825 0.0293999 0.151099
      vertex 0.0567999 0.0293999 0.151099
    endloop
  endfacet
  facet normal 0 -1 -0
    outer loop
      vertex 0.15825 0.0293999 0.151099
      vertex 0.0567999 0.0293999 0.150978
      vertex 0.15825 0.0293999 0.150978
    endloop
  endfacet
  facet normal 0 1 -0
    outer loop
      vertex 0.2597 0.157825 -0.150999
      vertex 0.0567999 0.157825 0
      vertex 0.2597 0.157825 0
    endloop
  endfacet
  facet normal 0 1 0
    outer loop
      vertex 0.0567999 0.157825 0
      vertex 0.2597 0.157825 -0.150999
      vertex 0.0567999 0.157825 -0.150999
    endloop
  endfacet
  facet normal 0 1 -0
    outer loop
      vertex 0.15825 0.157825 0.150978
      vertex 0.0567999 0.157825 0.151099
      vertex 0.15825 0.157825 0.151099
    endloop
  endfacet
  facet normal 0 1 0
    outer loop
      vertex 0.0567999 0.157825 0.151099
      vertex 0.15825 0.157825 0.150978
      vertex 0.0567999 0.157825 0.150978
    endloop
  endfacet
  facet normal -0 0 1
    outer loop
      vertex 0.0567999 0.157825 0.151099
      vertex 0.15825 0.0293999 0.151099
      vertex 0.15825 0.157825 0.151099
    endloop
  endfacet
  facet normal 0 0 1
    outer loop
      vertex 0.15825 0.0293999 0.151099
      vertex 0.0567999 0.157825 0.151099
      vertex 0.0567999 0.0293999 0.151099
    endloop
  endfacet
  facet normal 1 -0 0
    outer loop
      vertex 0.15825 0.0293999 0.151099
      vertex 0.15825 0.157825 0.150978
      vertex 0.15825 0.157825 0.151099
    endloop
  endfacet
  facet normal 1 0 0
    outer loop
      vertex 0.15825 0.157825 0.150978
      vertex 0.15825 0.0293999 0.151099
      vertex 0.15825 0.0293999 0.150978
    endloop
  endfacet
  facet normal -1 0 0
    outer loop
      vertex 0.515699 0.5131 -0.150999
      vertex 0.515699 0.624226 0
      vertex 0.515699 0.624226 -0.150999
    endloop
  endfacet
  facet normal -1 -0 0
    outer loop
      vertex 0.515699 0.624226 0
      vertex 0.515699 0.5131 -0.150999
      vertex 0.515699 0.5131 0
    endloop
  endfacet
  facet normal 1 -0 0
    outer loop
      vertex 0.722899 0.5131 0
      vertex 0.722899 0.624226 -0.150999
      vertex 0.722899 0.624226 0
    endloop
  endfacet
  facet normal 1 0 0
    outer loop
      vertex 0.722899 0.624226 -0.150999
      vertex 0.722899 0.5131 0
      vertex 0.722899 0.5131 -0.150999
    endloop
  endfacet
  facet normal 1 -0 0
    outer loop
      vertex 0.722899 0.5131 0.151099
      vertex 0.722899 0.624226 0.150978
      vertex 0.722899 0.624226 0.151099
    endloop
  endfacet
  facet normal 1 0 0
    outer loop
      vertex 0.722899 0.624226 0.150978
      vertex 0.722899 0.5131 0.151099
      vertex 0.722899 0.5131 0.150978
    endloop
  endfacet
  facet normal 0 1 -0
    outer loop
      vertex 0.722899 0.624226 -0.150999
      vertex 0.515699 0.624226 0
      vertex 0.722899 0.624226 0
    endloop
  endfacet
  facet normal 0 1 0
    outer loop
      vertex 0.515699 0.624226 0
      vertex 0.722899 0.624226 -0.150999
      vertex 0.515699 0.624226 -0.150999
    endloop
  endfacet
  facet normal 0 1 -0
    outer loop
      vertex 0.722899 0.624226 0.150978
      vertex 0.6193 0.624226 0.151099
      vertex 0.722899 0.624226 0.151099
    endloop
  endfacet
  facet normal 0 1 0
    outer loop
      vertex 0.6193 0.624226 0.151099
      vertex 0.722899 0.624226 0.150978
      vertex 0.6193 0.624226 0.150978
    endloop
  endfacet
  facet normal 0 0 -1
    outer loop
      vertex 0.515699 0.5131 -0.150999
      vertex 0.722899 0.624226 -0.150999
      vertex 0.722899 0.5131 -0.150999
    endloop
  endfacet
  facet normal -0 0 -1
    outer loop
      vertex 0.722899 0.624226 -0.150999
      vertex 0.515699 0.5131 -0.150999
      vertex 0.515699 0.624226 -0.150999
    endloop
  endfacet
  facet normal 0 -1 0
    outer loop
      vertex 0.515699 0.5131 -0.150999
      vertex 0.722899 0.5131 0
      vertex 0.515699 0.5131 0
    endloop
  endfacet
  facet normal 0 -1 -0
    outer loop
      vertex 0.722899 0.5131 0
      vertex 0.515699 0.5131 -0.150999
      vertex 0.722899 0.5131 -0.150999
    endloop
  endfacet
  facet normal 0 -1 0
    outer loop
      vertex 0.6193 0.5131 0.150978
      vertex 0.722899 0.5131 0.151099
      vertex 0.6193 0.5131 0.151099
    endloop
  endfacet
  facet normal 0 -1 -0
    outer loop
      vertex 0.722899 0.5131 0.151099
      vertex 0.6193 0.5131 0.150978
      vertex 0.722899 0.5131 0.150978
    endloop
  endfacet
  facet normal -1 0 0
    outer loop
      vertex 0.6193 0.5131 0.150978
      vertex 0.6193 0.624226 0.151099
      vertex 0.6193 0.624226 0.150978
    endloop
  endfacet
  facet normal -1 -0 0
    outer loop
      vertex 0.6193 0.624226 0.151099
      vertex 0.6193 0.5131 0.150978
      vertex 0.6193 0.5131 0.151099
    endloop
  endfacet
  facet normal -0 0 1
    outer loop
      vertex 0.6193 0.624226 0.151099
      vertex 0.722899 0.5131 0.151099
      vertex 0.722899 0.624226 0.151099
    endloop
  endfacet
  facet normal 0 0 1
    outer loop
      vertex 0.722899 0.5131 0.151099
      vertex 0.6193 0.624226 0.151099
      vertex 0.6193 0.5131 0.151099
    endloop
  endfacet
  facet normal -1 0 0
    outer loop
      vertex 0.0892992 0.5088 -0.150999
      vertex 0.0892992 0.624725 0
      vertex 0.0892992 0.624725 -0.150999
    endloop
  endfacet
  facet normal -1 -0 0
    outer loop
      vertex 0.0892992 0.624725 0
      vertex 0.0892992 0.5088 -0.150999
      vertex 0.0892992 0.5088 0
    endloop
  endfacet
  facet normal -1 0 0
    outer loop
      vertex 0.0892992 0.5088 0.150978
      vertex 0.0892992 0.624725 0.151099
      vertex 0.0892992 0.624725 0.150978
    endloop
  endfacet
  facet normal -1 -0 0
    outer loop
      vertex 0.0892992 0.624725 0.151099
      vertex 0.0892992 0.5088 0.150978
      vertex 0.0892992 0.5088 0.151099
    endloop
  endfacet
  facet normal 1 -0 0
    outer loop
      vertex 0.324599 0.5088 0
      vertex 0.324599 0.624725 -0.150999
      vertex 0.324599 0.624725 0
    endloop
  endfacet
  facet normal 1 0 0
    outer loop
      vertex 0.324599 0.624725 -0.150999
      vertex 0.324599 0.5088 0
      vertex 0.324599 0.5088 -0.150999
    endloop
  endfacet
  facet normal 0 1 -0
    outer loop
      vertex 0.324599 0.624725 -0.150999
      vertex 0.0892992 0.624725 0
      vertex 0.324599 0.624725 0
    endloop
  endfacet
  facet normal 0 1 0
    outer loop
      vertex 0.0892992 0.624725 0
      vertex 0.324599 0.624725 -0.150999
      vertex 0.0892992 0.624725 -0.150999
    endloop
  endfacet
  facet normal 0 1 -0
    outer loop
      vertex 0.206949 0.624725 0.150978
      vertex 0.0892992 0.624725 0.151099
      vertex 0.206949 0.624725 0.151099
    endloop
  endfacet
  facet normal 0 1 0
    outer loop
      vertex 0.0892992 0.624725 0.151099
      vertex 0.206949 0.624725 0.150978
      vertex 0.0892992 0.624725 0.150978
    endloop
  endfacet
  facet normal 0 0 -1
    outer loop
      vertex 0.0892992 0.5088 -0.150999
      vertex 0.324599 0.624725 -0.150999
      vertex 0.324599 0.5088 -0.150999
    endloop
  endfacet
  facet normal -0 0 -1
    outer loop
      vertex 0.324599 0.624725 -0.150999
      vertex 0.0892992 0.5088 -0.150999
      vertex 0.0892992 0.624725 -0.150999
    endloop
  endfacet
  facet normal 0 -1 0
    outer loop
      vertex 0.0892992 0.5088 -0.150999
      vertex 0.324599 0.5088 0
      vertex 0.0892992 0.5088 0
    endloop
  endfacet
  facet normal 0 -1 -0
    outer loop
      vertex 0.324599 0.5088 0
      vertex 0.0892992 0.5088 -0.150999
      vertex 0.324599 0.5088 -0.150999
    endloop
  endfacet
  facet normal 0 -1 0
    outer loop
      vertex 0.0892992 0.5088 0.150978
      vertex 0.206949 0.5088 0.151099
      vertex 0.0892992 0.5088 0.151099
    endloop
  endfacet
  facet normal 0 -1 -0
    outer loop
      vertex 0.206949 0.5088 0.151099
      vertex 0.0892992 0.5088 0.150978
      vertex 0.206949 0.5088 0.150978
    endloop
  endfacet
  facet normal -0 0 1
    outer loop
      vertex 0.0892992 0.624725 0.151099
      vertex 0.206949 0.5088 0.151099
      vertex 0.206949 0.624725 0.151099
    endloop
  endfacet
  facet normal 0 0 1
    outer loop
      vertex 0.206949 0.5088 0.151099
      vertex 0.0892992 0.624725 0.151099
      vertex 0.0892992 0.5088 0.151099
    endloop
  endfacet
  facet normal 1 -0 0
    outer loop
      vertex 0.206949 0.5088 0.151099
      vertex 0.206949 0.624725 0.150978
      vertex 0.206949 0.624725 0.151099
    endloop
  endfacet
  facet normal 1 0 0
    outer loop
      vertex 0.206949 0.624725 0.150978
      vertex 0.206949 0.5088 0.151099
      vertex 0.206949 0.5088 0.150978
    endloop
  endfacet
  facet normal -1 0 0
    outer loop
      vertex 0 0 0
      vertex 0 0.669426 0.150978
      vertex 0 0.669426 0
    endloop
  endfacet
  facet normal -1 -0 0
    outer loop
      vertex 0 0.669426 0.150978
      vertex 0 0 0
      vertex 0 0 0.150978
    endloop
  endfacet
  facet normal -0 0 1
    outer loop
      vertex 0.0892992 0.5088 0.150978
      vertex 0.15825 0.157825 0.150978
      vertex 0.206949 0.5088 0.150978
    endloop
  endfacet
  facet normal 0 0 1
    outer loop
      vertex 0.15825 0.157825 0.150978
      vertex 0.0892992 0.5088 0.150978
      vertex 0.0567999 0.157825 0.150978
    endloop
  endfacet
  facet normal -0 0 1
    outer loop
      vertex 0.6193 0.5131 0.150978
      vertex 0.6915 0.199326 0.150978
      vertex 0.722899 0.5131 0.150978
    endloop
  endfacet
  facet normal 0 0 1
    outer loop
      vertex 0.6915 0.199326 0.150978
      vertex 0.6193 0.5131 0.150978
      vertex 0.613299 0.199326 0.150978
    endloop
  endfacet
  facet normal 0 0 1
    outer loop
      vertex 0.722899 0.5131 0.150978
      vertex 0.75 0.669426 0.150978
      vertex 0.722899 0.624226 0.150978
    endloop
  endfacet
  facet normal 0 0 1
    outer loop
      vertex 0.75 0.669426 0.150978
      vertex 0.6193 0.624226 0.150978
      vertex 0.722899 0.624226 0.150978
    endloop
  endfacet
  facet normal 0 0 1
    outer loop
      vertex 0.206949 0.5088 0.150978
      vertex 0.6193 0.5131 0.150978
      vertex 0.6193 0.624226 0.150978
    endloop
  endfacet
  facet normal 0 0 1
    outer loop
      vertex 0.6193 0.5131 0.150978
      vertex 0.206949 0.5088 0.150978
      vertex 0.613299 0.199326 0.150978
    endloop
  endfacet
  facet normal 0 0 1
    outer loop
      vertex 0.206949 0.5088 0.150978
      vertex 0.6193 0.624226 0.150978
      vertex 0.206949 0.624725 0.150978
    endloop
  endfacet
  facet normal 0 0 1
    outer loop
      vertex 0.75 0.669426 0.150978
      vertex 0.206949 0.624725 0.150978
      vertex 0.6193 0.624226 0.150978
    endloop
  endfacet
  facet normal -0 0 1
    outer loop
      vertex 0 0.669426 0.150978
      vertex 0.206949 0.624725 0.150978
      vertex 0.75 0.669426 0.150978
    endloop
  endfacet
  facet normal 0 0 1
    outer loop
      vertex 0 0.669426 0.150978
      vertex 0.0892992 0.5088 0.150978
      vertex 0.0892992 0.624725 0.150978
    endloop
  endfacet
  facet normal 0 0 1
    outer loop
      vertex 0 0 0.150978
      vertex 0.0567999 0.157825 0.150978
      vertex 0 0.669426 0.150978
    endloop
  endfacet
  facet normal 0 0 1
    outer loop
      vertex 0.0892992 0.5088 0.150978
      vertex 0 0.669426 0.150978
      vertex 0.0567999 0.157825 0.150978
    endloop
  endfacet
  facet normal 0 0 1
    outer loop
      vertex 0.206949 0.624725 0.150978
      vertex 0 0.669426 0.150978
      vertex 0.0892992 0.624725 0.150978
    endloop
  endfacet
  facet normal 0 0 1
    outer loop
      vertex 0.75 0.669426 0.150978
      vertex 0.722899 0.5131 0.150978
      vertex 0.75 0 0.150978
    endloop
  endfacet
  facet normal -0 0 1
    outer loop
      vertex 0.6915 0.199326 0.150978
      vertex 0.75 0 0.150978
      vertex 0.722899 0.5131 0.150978
    endloop
  endfacet
  facet normal -0 0 1
    outer loop
      vertex 0.6915 0.108999 0.150978
      vertex 0.75 0 0.150978
      vertex 0.6915 0.199326 0.150978
    endloop
  endfacet
  facet normal -0 0 1
    outer loop
      vertex 0.613299 0.108999 0.150978
      vertex 0.75 0 0.150978
      vertex 0.6915 0.108999 0.150978
    endloop
  endfacet
  facet normal 0 0 1
    outer loop
      vertex 0.15825 0.157825 0.150978
      vertex 0.613299 0.199326 0.150978
      vertex 0.206949 0.5088 0.150978
    endloop
  endfacet
  facet normal 0 0 1
    outer loop
      vertex 0.613299 0.199326 0.150978
      vertex 0.15825 0.157825 0.150978
      vertex 0.613299 0.108999 0.150978
    endloop
  endfacet
  facet normal 0 0 1
    outer loop
      vertex 0.15825 0.0293999 0.150978
      vertex 0.613299 0.108999 0.150978
      vertex 0.15825 0.157825 0.150978
    endloop
  endfacet
  facet normal 0 0 1
    outer loop
      vertex 0.613299 0.108999 0.150978
      vertex 0.15825 0.0293999 0.150978
      vertex 0.75 0 0.150978
    endloop
  endfacet
  facet normal 0 0 1
    outer loop
      vertex 0 0 0.150978
      vertex 0.15825 0.0293999 0.150978
      vertex 0.0567999 0.0293999 0.150978
    endloop
  endfacet
  facet normal 0 0 1
    outer loop
      vertex 0.15825 0.0293999 0.150978
      vertex 0 0 0.150978
      vertex 0.75 0 0.150978
    endloop
  endfacet
  facet normal 0 0 1
    outer loop
      vertex 0.0567999 0.157825 0.150978
      vertex 0 0 0.150978
      vertex 0.0567999 0.0293999 0.150978
    endloop
  endfacet
  facet normal 1 -0 0
    outer loop
      vertex 0.75 0 0.150978
      vertex 0.75 0.669426 0
      vertex 0.75 0.669426 0.150978
    endloop
  endfacet
  facet normal 1 0 0
    outer loop
      vertex 0.75 0.669426 0
      vertex 0.75 0 0.150978
      vertex 0.75 0 0
    endloop
  endfacet
  facet normal 0 -1 0
    outer loop
      vertex 0 0 0
      vertex 0.75 0 0.150978
      vertex 0 0 0.150978
    endloop
  endfacet
  facet normal 0 -1 -0
    outer loop
      vertex 0.75 0 0.150978
      vertex 0 0 0
      vertex 0.75 0 0
    endloop
  endfacet
  facet normal 0 1 -0
    outer loop
      vertex 0.75 0.669426 0
      vertex 0 0.669426 0.150978
      vertex 0.75 0.669426 0.150978
    endloop
  endfacet
  facet normal 0 1 0
    outer loop
      vertex 0 0.669426 0.150978
      vertex 0.75 0.669426 0
      vertex 0 0.669426 0
    endloop
  endfacet
endsolid OpenSCAD_Model
