solid OpenSCAD_Model
  facet normal 1 0 0
    outer loop
      vertex 80 60 40
      vertex 80 34 27
      vertex 80 60 0
    endloop
  endfacet
  facet normal 1 0 0
    outer loop
      vertex 80 60 40
      vertex 80 26 27
      vertex 80 34 27
    endloop
  endfacet
  facet normal 1 0 0
    outer loop
      vertex 80 0 0
      vertex 80 26 27
      vertex 80 0 40
    endloop
  endfacet
  facet normal 1 -0 0
    outer loop
      vertex 80 0 40
      vertex 80 26 27
      vertex 80 60 40
    endloop
  endfacet
  facet normal 1 -0 0
    outer loop
      vertex 80 34 2
      vertex 80 60 0
      vertex 80 34 27
    endloop
  endfacet
  facet normal 1 -0 0
    outer loop
      vertex 80 26 2
      vertex 80 60 0
      vertex 80 34 2
    endloop
  endfacet
  facet normal 1 0 0
    outer loop
      vertex 80 26 2
      vertex 80 0 0
      vertex 80 60 0
    endloop
  endfacet
  facet normal 1 0 0
    outer loop
      vertex 80 26 27
      vertex 80 0 0
      vertex 80 26 2
    endloop
  endfacet
  facet normal 0 0 1
    outer loop
      vertex 80 60 40
      vertex 77 57 40
      vertex 80 0 40
    endloop
  endfacet
  facet normal 0 0 1
    outer loop
      vertex 80 60 40
      vertex 3 57 40
      vertex 77 57 40
    endloop
  endfacet
  facet normal 0 0 1
    outer loop
      vertex 3 57 40
      vertex 0 60 40
      vertex 3 3 40
    endloop
  endfacet
  facet normal -0 0 1
    outer loop
      vertex 0 60 40
      vertex 3 57 40
      vertex 80 60 40
    endloop
  endfacet
  facet normal -0 0 1
    outer loop
      vertex 77 3 40
      vertex 80 0 40
      vertex 77 57 40
    endloop
  endfacet
  facet normal -0 0 1
    outer loop
      vertex 3 3 40
      vertex 80 0 40
      vertex 77 3 40
    endloop
  endfacet
  facet normal 0 0 1
    outer loop
      vertex 3 3 40
      vertex 0 0 40
      vertex 80 0 40
    endloop
  endfacet
  facet normal 0 0 1
    outer loop
      vertex 0 0 40
      vertex 3 3 40
      vertex 0 60 40
    endloop
  endfacet
  facet normal 0 0 -1
    outer loop
      vertex 0 0 0
      vertex 80 60 0
      vertex 80 0 0
    endloop
  endfacet
  facet normal -0 0 -1
    outer loop
      vertex 80 60 0
      vertex 0 0 0
      vertex 0 60 0
    endloop
  endfacet
  facet normal -1 0 0
    outer loop
      vertex 0 0 0
      vertex 0 60 40
      vertex 0 60 0
    endloop
  endfacet
  facet normal -1 -0 0
    outer loop
      vertex 0 60 40
      vertex 0 0 0
      vertex 0 0 40
    endloop
  endfacet
  facet normal 0 1 -0
    outer loop
      vertex 80 60 0
      vertex 0 60 40
      vertex 80 60 40
    endloop
  endfacet
  facet normal 0 1 0
    outer loop
      vertex 0 60 40
      vertex 80 60 0
      vertex 0 60 0
    endloop
  endfacet
  facet normal 0 -1 0
    outer loop
      vertex 0 0 40
      vertex 25 0 16
      vertex 80 0 40
    endloop
  endfacet
  facet normal 0 -1 0
    outer loop
      vertex 0 0 0
      vertex 25 0 16
      vertex 0 0 40
    endloop
  endfacet
  facet normal 0 -1 -0
    outer loop
      vertex 25 0 8
      vertex 0 0 0
      vertex 55 0 8
    endloop
  endfacet
  facet normal 0 -1 -0
    outer loop
      vertex 25 0 16
      vertex 0 0 0
      vertex 25 0 8
    endloop
  endfacet
  facet normal 0 -1 0
    outer loop
      vertex 55 0 16
      vertex 80 0 40
      vertex 25 0 16
    endloop
  endfacet
  facet normal 0 -1 0
    outer loop
      vertex 80 0 0
      vertex 55 0 16
      vertex 55 0 8
    endloop
  endfacet
  facet normal 0 -1 0
    outer loop
      vertex 55 0 16
      vertex 80 0 0
      vertex 80 0 40
    endloop
  endfacet
  facet normal 0 -1 0
    outer loop
      vertex 80 0 0
      vertex 55 0 8
      vertex 0 0 0
    endloop
  endfacet
  facet normal -1 0 0
    outer loop
      vertex 77 26 3
      vertex 77 3 3
      vertex 77 26 27
    endloop
  endfacet
  facet normal -1 0 0
    outer loop
      vertex 77 34 27
      vertex 77 57 3
      vertex 77 34 3
    endloop
  endfacet
  facet normal -1 0 0
    outer loop
      vertex 77 57 3
      vertex 77 34 27
      vertex 77 57 40
    endloop
  endfacet
  facet normal -1 0 0
    outer loop
      vertex 77 26 27
      vertex 77 57 40
      vertex 77 34 27
    endloop
  endfacet
  facet normal -1 0 0
    outer loop
      vertex 77 26 27
      vertex 77 3 40
      vertex 77 57 40
    endloop
  endfacet
  facet normal -1 0 0
    outer loop
      vertex 77 3 40
      vertex 77 26 27
      vertex 77 3 3
    endloop
  endfacet
  facet normal 0 0 1
    outer loop
      vertex 77 57 3
      vertex 76.5 34 3
      vertex 77 34 3
    endloop
  endfacet
  facet normal 0 0 1
    outer loop
      vertex 76.5 34 3
      vertex 3 57 3
      vertex 76.5 26 3
    endloop
  endfacet
  facet normal -0 0 1
    outer loop
      vertex 3 57 3
      vertex 76.5 34 3
      vertex 77 57 3
    endloop
  endfacet
  facet normal -0 0 1
    outer loop
      vertex 76.5 26 3
      vertex 77 3 3
      vertex 77 26 3
    endloop
  endfacet
  facet normal 0 0 1
    outer loop
      vertex 3 3 3
      vertex 76.5 26 3
      vertex 3 57 3
    endloop
  endfacet
  facet normal 0 0 1
    outer loop
      vertex 76.5 26 3
      vertex 3 3 3
      vertex 77 3 3
    endloop
  endfacet
  facet normal 1 0 0
    outer loop
      vertex 3 57 40
      vertex 3 50 6
      vertex 3 57 3
    endloop
  endfacet
  facet normal 1 0 0
    outer loop
      vertex 3 57 40
      vertex 3 10 6
      vertex 3 50 6
    endloop
  endfacet
  facet normal 1 0 0
    outer loop
      vertex 3 3 3
      vertex 3 10 6
      vertex 3 3 40
    endloop
  endfacet
  facet normal 1 -0 0
    outer loop
      vertex 3 3 40
      vertex 3 10 6
      vertex 3 57 40
    endloop
  endfacet
  facet normal 1 -0 0
    outer loop
      vertex 3 50 5
      vertex 3 57 3
      vertex 3 50 6
    endloop
  endfacet
  facet normal 1 -0 0
    outer loop
      vertex 3 10 5
      vertex 3 57 3
      vertex 3 50 5
    endloop
  endfacet
  facet normal 1 0 0
    outer loop
      vertex 3 10 5
      vertex 3 3 3
      vertex 3 57 3
    endloop
  endfacet
  facet normal 1 0 0
    outer loop
      vertex 3 10 6
      vertex 3 3 3
      vertex 3 10 5
    endloop
  endfacet
  facet normal 0 -1 0
    outer loop
      vertex 3 57 3
      vertex 77 57 40
      vertex 3 57 40
    endloop
  endfacet
  facet normal 0 -1 -0
    outer loop
      vertex 77 57 40
      vertex 3 57 3
      vertex 77 57 3
    endloop
  endfacet
  facet normal 0 1 -0
    outer loop
      vertex 77 3 3
      vertex 3 3 40
      vertex 77 3 40
    endloop
  endfacet
  facet normal 0 1 0
    outer loop
      vertex 3 3 40
      vertex 77 3 3
      vertex 3 3 3
    endloop
  endfacet
  facet normal -1 0 0
    outer loop
      vertex 55 0 8
      vertex 55 2 16
      vertex 55 2 8
    endloop
  endfacet
  facet normal -1 -0 0
    outer loop
      vertex 55 2 16
      vertex 55 0 8
      vertex 55 0 16
    endloop
  endfacet
  facet normal 0 0 -1
    outer loop
      vertex 25 0 16
      vertex 55 2 16
      vertex 55 0 16
    endloop
  endfacet
  facet normal -0 0 -1
    outer loop
      vertex 55 2 16
      vertex 25 0 16
      vertex 25 2 16
    endloop
  endfacet
  facet normal -0 0 1
    outer loop
      vertex 25 2 8
      vertex 55 0 8
      vertex 55 2 8
    endloop
  endfacet
  facet normal 0 0 1
    outer loop
      vertex 55 0 8
      vertex 25 2 8
      vertex 25 0 8
    endloop
  endfacet
  facet normal 1 -0 0
    outer loop
      vertex 25 0 16
      vertex 25 2 8
      vertex 25 2 16
    endloop
  endfacet
  facet normal 1 0 0
    outer loop
      vertex 25 2 8
      vertex 25 0 16
      vertex 25 0 8
    endloop
  endfacet
  facet normal 0 -1 0
    outer loop
      vertex 25 2 8
      vertex 55 2 16
      vertex 25 2 16
    endloop
  endfacet
  facet normal 0 -1 -0
    outer loop
      vertex 55 2 16
      vertex 25 2 8
      vertex 55 2 8
    endloop
  endfacet
  facet normal 0 0 -1
    outer loop
      vertex 77 26 27
      vertex 80 34 27
      vertex 80 26 27
    endloop
  endfacet
  facet normal -0 0 -1
    outer loop
      vertex 80 34 27
      vertex 77 26 27
      vertex 77 34 27
    endloop
  endfacet
  facet normal -0 0 1
    outer loop
      vertex 76.5 34 2
      vertex 80 26 2
      vertex 80 34 2
    endloop
  endfacet
  facet normal 0 0 1
    outer loop
      vertex 80 26 2
      vertex 76.5 34 2
      vertex 76.5 26 2
    endloop
  endfacet
  facet normal 1 -0 0
    outer loop
      vertex 76.5 26 3
      vertex 76.5 34 2
      vertex 76.5 34 3
    endloop
  endfacet
  facet normal 1 0 0
    outer loop
      vertex 76.5 34 2
      vertex 76.5 26 3
      vertex 76.5 26 2
    endloop
  endfacet
  facet normal 0 -1 0
    outer loop
      vertex 76.5 34 3
      vertex 76.5 34 2
      vertex 77 34 3
    endloop
  endfacet
  facet normal 0 -1 0
    outer loop
      vertex 77 34 3
      vertex 80 34 27
      vertex 77 34 27
    endloop
  endfacet
  facet normal 0 -1 0
    outer loop
      vertex 77 34 3
      vertex 80 34 2
      vertex 80 34 27
    endloop
  endfacet
  facet normal 0 -1 0
    outer loop
      vertex 80 34 2
      vertex 77 34 3
      vertex 76.5 34 2
    endloop
  endfacet
  facet normal 0 1 0
    outer loop
      vertex 80 26 27
      vertex 77 26 3
      vertex 77 26 27
    endloop
  endfacet
  facet normal 0 1 -0
    outer loop
      vertex 80 26 2
      vertex 77 26 3
      vertex 80 26 27
    endloop
  endfacet
  facet normal 0 1 0
    outer loop
      vertex 76.5 26 2
      vertex 77 26 3
      vertex 80 26 2
    endloop
  endfacet
  facet normal 0 1 0
    outer loop
      vertex 77 26 3
      vertex 76.5 26 2
      vertex 76.5 26 3
    endloop
  endfacet
  facet normal 1 -0 0
    outer loop
      vertex 5 10 6
      vertex 5 50 5
      vertex 5 50 6
    endloop
  endfacet
  facet normal 1 0 0
    outer loop
      vertex 5 50 5
      vertex 5 10 6
      vertex 5 10 5
    endloop
  endfacet
  facet normal -0 0 1
    outer loop
      vertex 3 50 6
      vertex 5 10 6
      vertex 5 50 6
    endloop
  endfacet
  facet normal 0 0 1
    outer loop
      vertex 5 10 6
      vertex 3 50 6
      vertex 3 10 6
    endloop
  endfacet
  facet normal 0 0 -1
    outer loop
      vertex 3 10 5
      vertex 5 50 5
      vertex 5 10 5
    endloop
  endfacet
  facet normal -0 0 -1
    outer loop
      vertex 5 50 5
      vertex 3 10 5
      vertex 3 50 5
    endloop
  endfacet
  facet normal 0 1 -0
    outer loop
      vertex 5 50 5
      vertex 3 50 6
      vertex 5 50 6
    endloop
  endfacet
  facet normal 0 1 0
    outer loop
      vertex 3 50 6
      vertex 5 50 5
      vertex 3 50 5
    endloop
  endfacet
  facet normal 0 -1 0
    outer loop
      vertex 3 10 5
      vertex 5 10 6
      vertex 3 10 6
    endloop
  endfacet
  facet normal 0 -1 -0
    outer loop
      vertex 5 10 6
      vertex 3 10 5
      vertex 5 10 5
    endloop
  endfacet
endsolid OpenSCAD_Model
