solid OpenSCAD_Model
  facet normal -1 0 0
    outer loop
      vertex 0 0.75 0
      vertex 0 0.500038 0.3334
      vertex 0 0.75 0.3334
    endloop
  endfacet
  facet normal -1 0 0
    outer loop
      vertex 0 0.25 0.333164
      vertex 0 0.500038 0.3334
      vertex 0 0.25 0.0166998
    endloop
  endfacet
  facet normal -1 0 0
    outer loop
      vertex 0 0.75 0
      vertex 0 0.25 0.0166998
      vertex 0 0.500038 0.3334
    endloop
  endfacet
  facet normal -1 0 0
    outer loop
      vertex 0 0 0
      vertex 0 0.25 0.0166998
      vertex 0 0.75 0
    endloop
  endfacet
  facet normal -1 -0 0
    outer loop
      vertex 0 0.25 0.0166998
      vertex 0 0 0
      vertex 0 0 0.0166998
    endloop
  endfacet
  facet normal -1 -0 0
    outer loop
      vertex 0 0.500038 0.3334
      vertex 0 0.25 0.333164
      vertex 0 0.500038 0.335264
    endloop
  endfacet
  facet normal -1 0 0
    outer loop
      vertex 0 0.24922 0.335264
      vertex 0 0.25 0.333164
      vertex 0 0.24922 0.333164
    endloop
  endfacet
  facet normal -1 0 0
    outer loop
      vertex 0 0.25 0.333164
      vertex 0 0.24922 0.335264
      vertex 0 0.500038 0.335264
    endloop
  endfacet
  facet normal 0 1 0
    outer loop
      vertex 0.5 0.75 0.241699
      vertex 0.491699 0.75 0.233399
      vertex 0.491699 0.75 0.241699
    endloop
  endfacet
  facet normal 0 1 0
    outer loop
      vertex 0.491699 0.75 0.233399
      vertex 0.5 0.75 0
      vertex 0.299999 0.75 0.233399
    endloop
  endfacet
  facet normal 0 1 -0
    outer loop
      vertex 0.5 0.75 0
      vertex 0.491699 0.75 0.233399
      vertex 0.5 0.75 0.241699
    endloop
  endfacet
  facet normal 0 1 -0
    outer loop
      vertex 0.299999 0.75 0.233399
      vertex 0 0.75 0.3334
      vertex 0.299999 0.75 0.3334
    endloop
  endfacet
  facet normal 0 1 0
    outer loop
      vertex 0 0.75 0
      vertex 0.299999 0.75 0.233399
      vertex 0.5 0.75 0
    endloop
  endfacet
  facet normal 0 1 0
    outer loop
      vertex 0.299999 0.75 0.233399
      vertex 0 0.75 0
      vertex 0 0.75 0.3334
    endloop
  endfacet
  facet normal 0 -1 0
    outer loop
      vertex 0 0.25 0.333164
      vertex 0.299999 0.25 0.233399
      vertex 0.299999 0.25 0.333164
    endloop
  endfacet
  facet normal 0 -1 0
    outer loop
      vertex 0.5 0.25 0.0166998
      vertex 0.299999 0.25 0.233399
      vertex 0 0.25 0.0166998
    endloop
  endfacet
  facet normal 0 -1 0
    outer loop
      vertex 0 0.25 0.0166998
      vertex 0.299999 0.25 0.233399
      vertex 0 0.25 0.333164
    endloop
  endfacet
  facet normal 0 -1 0
    outer loop
      vertex 0.491699 0.25 0.233399
      vertex 0.5 0.25 0.241699
      vertex 0.491699 0.25 0.241699
    endloop
  endfacet
  facet normal 0 -1 0
    outer loop
      vertex 0.491699 0.25 0.233399
      vertex 0.5 0.25 0.0166998
      vertex 0.5 0.25 0.241699
    endloop
  endfacet
  facet normal 0 -1 0
    outer loop
      vertex 0.299999 0.25 0.233399
      vertex 0.5 0.25 0.0166998
      vertex 0.491699 0.25 0.233399
    endloop
  endfacet
  facet normal -1 0 0
    outer loop
      vertex 0.491699 0.25 0.233399
      vertex 0.491699 0.75 0.241699
      vertex 0.491699 0.75 0.233399
    endloop
  endfacet
  facet normal -1 -0 0
    outer loop
      vertex 0.491699 0.75 0.241699
      vertex 0.491699 0.25 0.233399
      vertex 0.491699 0.25 0.241699
    endloop
  endfacet
  facet normal -0 0 1
    outer loop
      vertex 0.491699 0.75 0.241699
      vertex 0.5 0.25 0.241699
      vertex 0.5 0.75 0.241699
    endloop
  endfacet
  facet normal 0 0 1
    outer loop
      vertex 0.5 0.25 0.241699
      vertex 0.491699 0.75 0.241699
      vertex 0.491699 0.25 0.241699
    endloop
  endfacet
  facet normal 1 0 0
    outer loop
      vertex 0.5 0.25 0.0166998
      vertex 0.5 0.75 0.241699
      vertex 0.5 0.25 0.241699
    endloop
  endfacet
  facet normal 1 0 0
    outer loop
      vertex 0.5 0.75 0.241699
      vertex 0.5 0.25 0.0166998
      vertex 0.5 0.75 0
    endloop
  endfacet
  facet normal 1 0 0
    outer loop
      vertex 0.5 0 0
      vertex 0.5 0.25 0.0166998
      vertex 0.5 0 0.0166998
    endloop
  endfacet
  facet normal 1 0 0
    outer loop
      vertex 0.5 0.25 0.0166998
      vertex 0.5 0 0
      vertex 0.5 0.75 0
    endloop
  endfacet
  facet normal -0 0 1
    outer loop
      vertex 0.299999 0.75 0.233399
      vertex 0.491699 0.25 0.233399
      vertex 0.491699 0.75 0.233399
    endloop
  endfacet
  facet normal 0 0 1
    outer loop
      vertex 0.491699 0.25 0.233399
      vertex 0.299999 0.75 0.233399
      vertex 0.299999 0.25 0.233399
    endloop
  endfacet
  facet normal -0 0 1
    outer loop
      vertex 0.0249996 0.65 0.233399
      vertex 0.174999 0.349999 0.233399
      vertex 0.174999 0.65 0.233399
    endloop
  endfacet
  facet normal 0 0 1
    outer loop
      vertex 0.174999 0.349999 0.233399
      vertex 0.0249996 0.65 0.233399
      vertex 0.0249996 0.349999 0.233399
    endloop
  endfacet
  facet normal 0 0 1
    outer loop
      vertex 0.299999 0.75 0.3334
      vertex 0.174999 0.65 0.3334
      vertex 0.299999 0.500038 0.3334
    endloop
  endfacet
  facet normal -0 0 1
    outer loop
      vertex 0 0.75 0.3334
      vertex 0.174999 0.65 0.3334
      vertex 0.299999 0.75 0.3334
    endloop
  endfacet
  facet normal 0 0 1
    outer loop
      vertex 0.174999 0.65 0.3334
      vertex 0 0.75 0.3334
      vertex 0.0249996 0.65 0.3334
    endloop
  endfacet
  facet normal 0 0 1
    outer loop
      vertex 0 0.500038 0.3334
      vertex 0.0249996 0.65 0.3334
      vertex 0 0.75 0.3334
    endloop
  endfacet
  facet normal 0 0 1
    outer loop
      vertex 0.0249996 0.65 0.3334
      vertex 0 0.500038 0.3334
      vertex 0.0249996 0.500038 0.3334
    endloop
  endfacet
  facet normal 0 0 1
    outer loop
      vertex 0.299999 0.500038 0.3334
      vertex 0.174999 0.65 0.3334
      vertex 0.174999 0.500038 0.3334
    endloop
  endfacet
  facet normal 1 0 0
    outer loop
      vertex 0.299999 0.500038 0.333164
      vertex 0.299999 0.75 0.3334
      vertex 0.299999 0.500038 0.3334
    endloop
  endfacet
  facet normal 1 0 0
    outer loop
      vertex 0.299999 0.75 0.3334
      vertex 0.299999 0.500038 0.333164
      vertex 0.299999 0.75 0.233399
    endloop
  endfacet
  facet normal 1 0 0
    outer loop
      vertex 0.299999 0.25 0.233399
      vertex 0.299999 0.500038 0.333164
      vertex 0.299999 0.25 0.333164
    endloop
  endfacet
  facet normal 1 0 0
    outer loop
      vertex 0.299999 0.500038 0.333164
      vertex 0.299999 0.25 0.233399
      vertex 0.299999 0.75 0.233399
    endloop
  endfacet
  facet normal 1 0 0
    outer loop
      vertex 0.0249996 0.500038 0.333164
      vertex 0.0249996 0.65 0.3334
      vertex 0.0249996 0.500038 0.3334
    endloop
  endfacet
  facet normal 1 0 0
    outer loop
      vertex 0.0249996 0.65 0.3334
      vertex 0.0249996 0.500038 0.333164
      vertex 0.0249996 0.65 0.233399
    endloop
  endfacet
  facet normal 1 0 0
    outer loop
      vertex 0.0249996 0.349999 0.233399
      vertex 0.0249996 0.500038 0.333164
      vertex 0.0249996 0.349999 0.333164
    endloop
  endfacet
  facet normal 1 0 0
    outer loop
      vertex 0.0249996 0.500038 0.333164
      vertex 0.0249996 0.349999 0.233399
      vertex 0.0249996 0.65 0.233399
    endloop
  endfacet
  facet normal -1 0 0
    outer loop
      vertex 0.174999 0.65 0.233399
      vertex 0.174999 0.500038 0.333164
      vertex 0.174999 0.65 0.3334
    endloop
  endfacet
  facet normal -1 0 0
    outer loop
      vertex 0.174999 0.349999 0.233399
      vertex 0.174999 0.500038 0.333164
      vertex 0.174999 0.65 0.233399
    endloop
  endfacet
  facet normal -1 -0 0
    outer loop
      vertex 0.174999 0.500038 0.333164
      vertex 0.174999 0.349999 0.233399
      vertex 0.174999 0.349999 0.333164
    endloop
  endfacet
  facet normal -1 -0 0
    outer loop
      vertex 0.174999 0.65 0.3334
      vertex 0.174999 0.500038 0.333164
      vertex 0.174999 0.500038 0.3334
    endloop
  endfacet
  facet normal 0 -1 0
    outer loop
      vertex 0.0249996 0.65 0.233399
      vertex 0.174999 0.65 0.3334
      vertex 0.0249996 0.65 0.3334
    endloop
  endfacet
  facet normal 0 -1 -0
    outer loop
      vertex 0.174999 0.65 0.3334
      vertex 0.0249996 0.65 0.233399
      vertex 0.174999 0.65 0.233399
    endloop
  endfacet
  facet normal 0 1 -0
    outer loop
      vertex 0.174999 0.349999 0.233399
      vertex 0.0249996 0.349999 0.333164
      vertex 0.174999 0.349999 0.333164
    endloop
  endfacet
  facet normal 0 1 0
    outer loop
      vertex 0.0249996 0.349999 0.333164
      vertex 0.174999 0.349999 0.233399
      vertex 0.0249996 0.349999 0.233399
    endloop
  endfacet
  facet normal -0 0 1
    outer loop
      vertex 0 0.25 0.0166998
      vertex 0.5 0 0.0166998
      vertex 0.5 0.25 0.0166998
    endloop
  endfacet
  facet normal 0 0 1
    outer loop
      vertex 0.5 0 0.0166998
      vertex 0 0.25 0.0166998
      vertex 0 0 0.0166998
    endloop
  endfacet
  facet normal 0 0 -1
    outer loop
      vertex 0 0 0
      vertex 0.5 0.75 0
      vertex 0.5 0 0
    endloop
  endfacet
  facet normal -0 0 -1
    outer loop
      vertex 0.5 0.75 0
      vertex 0 0 0
      vertex 0 0.75 0
    endloop
  endfacet
  facet normal 0 -1 0
    outer loop
      vertex 0 0 0
      vertex 0.5 0 0.0166998
      vertex 0 0 0.0166998
    endloop
  endfacet
  facet normal 0 -1 -0
    outer loop
      vertex 0.5 0 0.0166998
      vertex 0 0 0
      vertex 0.5 0 0
    endloop
  endfacet
  facet normal -0 0 1
    outer loop
      vertex 0 0.500038 0.335264
      vertex 0.5 0.24922 0.335264
      vertex 0.5 0.500038 0.335264
    endloop
  endfacet
  facet normal 0 0 1
    outer loop
      vertex 0.5 0.24922 0.335264
      vertex 0 0.500038 0.335264
      vertex 0 0.24922 0.335264
    endloop
  endfacet
  facet normal 1 -0 0
    outer loop
      vertex 0.5 0.24922 0.335264
      vertex 0.5 0.500038 0.333164
      vertex 0.5 0.500038 0.335264
    endloop
  endfacet
  facet normal 1 0 0
    outer loop
      vertex 0.5 0.500038 0.333164
      vertex 0.5 0.24922 0.335264
      vertex 0.5 0.24922 0.333164
    endloop
  endfacet
  facet normal 0 1 -0
    outer loop
      vertex 0.174999 0.500038 0.333164
      vertex 0.0249996 0.500038 0.3334
      vertex 0.174999 0.500038 0.3334
    endloop
  endfacet
  facet normal 0 1 0
    outer loop
      vertex 0.0249996 0.500038 0.3334
      vertex 0.174999 0.500038 0.333164
      vertex 0.0249996 0.500038 0.333164
    endloop
  endfacet
  facet normal 0 1 0
    outer loop
      vertex 0.5 0.500038 0.335264
      vertex 0.299999 0.500038 0.3334
      vertex 0 0.500038 0.335264
    endloop
  endfacet
  facet normal 0 1 -0
    outer loop
      vertex 0.5 0.500038 0.333164
      vertex 0.299999 0.500038 0.3334
      vertex 0.5 0.500038 0.335264
    endloop
  endfacet
  facet normal 0 1 0
    outer loop
      vertex 0.299999 0.500038 0.3334
      vertex 0.5 0.500038 0.333164
      vertex 0.299999 0.500038 0.333164
    endloop
  endfacet
  facet normal 0 1 -0
    outer loop
      vertex 0.174999 0.500038 0.3334
      vertex 0 0.500038 0.335264
      vertex 0.299999 0.500038 0.3334
    endloop
  endfacet
  facet normal 0 1 -0
    outer loop
      vertex 0.0249996 0.500038 0.3334
      vertex 0 0.500038 0.335264
      vertex 0.174999 0.500038 0.3334
    endloop
  endfacet
  facet normal 0 1 0
    outer loop
      vertex 0 0.500038 0.335264
      vertex 0.0249996 0.500038 0.3334
      vertex 0 0.500038 0.3334
    endloop
  endfacet
  facet normal 0 0 -1
    outer loop
      vertex 0.5 0.24922 0.333164
      vertex 0.299999 0.25 0.333164
      vertex 0.5 0.500038 0.333164
    endloop
  endfacet
  facet normal 0 0 -1
    outer loop
      vertex 0 0.24922 0.333164
      vertex 0.299999 0.25 0.333164
      vertex 0.5 0.24922 0.333164
    endloop
  endfacet
  facet normal -0 0 -1
    outer loop
      vertex 0.299999 0.25 0.333164
      vertex 0 0.24922 0.333164
      vertex 0 0.25 0.333164
    endloop
  endfacet
  facet normal -0 0 -1
    outer loop
      vertex 0.5 0.500038 0.333164
      vertex 0.299999 0.25 0.333164
      vertex 0.299999 0.500038 0.333164
    endloop
  endfacet
  facet normal 0 0 -1
    outer loop
      vertex 0.0249996 0.349999 0.333164
      vertex 0.174999 0.500038 0.333164
      vertex 0.174999 0.349999 0.333164
    endloop
  endfacet
  facet normal -0 0 -1
    outer loop
      vertex 0.174999 0.500038 0.333164
      vertex 0.0249996 0.349999 0.333164
      vertex 0.0249996 0.500038 0.333164
    endloop
  endfacet
  facet normal 0 -1 0
    outer loop
      vertex 0 0.24922 0.333164
      vertex 0.5 0.24922 0.335264
      vertex 0 0.24922 0.335264
    endloop
  endfacet
  facet normal 0 -1 -0
    outer loop
      vertex 0.5 0.24922 0.335264
      vertex 0 0.24922 0.333164
      vertex 0.5 0.24922 0.333164
    endloop
  endfacet
endsolid OpenSCAD_Model
