solid OpenSCAD_Model
  facet normal 0.995554 0.094195 0
    outer loop
      vertex 0.210484 0.0132418 0.4424
      vertex 0.209236 0.026432 0
      vertex 0.209236 0.026432 0.4424
    endloop
  endfacet
  facet normal 0.995554 0.094195 0
    outer loop
      vertex 0.209236 0.026432 0
      vertex 0.210484 0.0132418 0.4424
      vertex 0.210484 0.0132418 0
    endloop
  endfacet
  facet normal 0.987696 0.156384 0
    outer loop
      vertex 0.209236 0.026432 0.4424
      vertex 0.207164 0.0395184 0
      vertex 0.207164 0.0395184 0.4424
    endloop
  endfacet
  facet normal 0.987696 0.156384 0
    outer loop
      vertex 0.207164 0.0395184 0
      vertex 0.209236 0.026432 0.4424
      vertex 0.209236 0.026432 0
    endloop
  endfacet
  facet normal 0.97592 0.218131 0
    outer loop
      vertex 0.207164 0.0395184 0.4424
      vertex 0.204274 0.0524483 0
      vertex 0.204274 0.0524483 0.4424
    endloop
  endfacet
  facet normal 0.97592 0.218131 0
    outer loop
      vertex 0.204274 0.0524483 0
      vertex 0.207164 0.0395184 0.4424
      vertex 0.207164 0.0395184 0
    endloop
  endfacet
  facet normal 0.860719 0.50908 0
    outer loop
      vertex 0.184813 0.101602 0.4424
      vertex 0.178068 0.113006 0
      vertex 0.178068 0.113006 0.4424
    endloop
  endfacet
  facet normal 0.860719 0.50908 0
    outer loop
      vertex 0.178068 0.113006 0
      vertex 0.184813 0.101602 0.4424
      vertex 0.184813 0.101602 0
    endloop
  endfacet
  facet normal -0.97592 0.218131 0
    outer loop
      vertex -0.207164 0.0395184 0
      vertex -0.204274 0.0524483 0.4424
      vertex -0.204274 0.0524483 0
    endloop
  endfacet
  facet normal -0.97592 0.218131 0
    outer loop
      vertex -0.204274 0.0524483 0.4424
      vertex -0.207164 0.0395184 0
      vertex -0.207164 0.0395184 0.4424
    endloop
  endfacet
  facet normal 0 0 -1
    outer loop
      vertex 0.0651712 -0.200578 0
      vertex 0.0702991 0.198732 0
      vertex 0.0776367 -0.19609 0
    endloop
  endfacet
  facet normal 0 0 -1
    outer loop
      vertex 0.0524483 -0.204274 0
      vertex 0.0702991 0.198732 0
      vertex 0.0651712 -0.200578 0
    endloop
  endfacet
  facet normal 0 0 -1
    outer loop
      vertex 0.0524483 0.204274 0
      vertex 0.0702991 0.198732 0
      vertex 0.0524483 -0.204274 0
    endloop
  endfacet
  facet normal 0 0 -1
    outer loop
      vertex 0.0702991 0.198732 0
      vertex 0.0524483 0.204274 0
      vertex 0.0651712 0.200578 0
    endloop
  endfacet
  facet normal 0 0 -1
    outer loop
      vertex 0.0395184 -0.207164 0
      vertex 0.0524483 0.204274 0
      vertex 0.0524483 -0.204274 0
    endloop
  endfacet
  facet normal 0 0 -1
    outer loop
      vertex 0.0395184 -0.207164 0
      vertex 0.0395184 0.207164 0
      vertex 0.0524483 0.204274 0
    endloop
  endfacet
  facet normal 0 0 -1
    outer loop
      vertex 0.026432 -0.209236 0
      vertex 0.0395184 0.207164 0
      vertex 0.0395184 -0.207164 0
    endloop
  endfacet
  facet normal 0 0 -1
    outer loop
      vertex 0.026432 -0.209236 0
      vertex 0.026432 0.209236 0
      vertex 0.0395184 0.207164 0
    endloop
  endfacet
  facet normal 0 0 -1
    outer loop
      vertex 0.0132418 -0.210484 0
      vertex 0.026432 0.209236 0
      vertex 0.026432 -0.209236 0
    endloop
  endfacet
  facet normal 0 0 -1
    outer loop
      vertex 0.0132418 -0.210484 0
      vertex 0.0132418 0.210484 0
      vertex 0.026432 0.209236 0
    endloop
  endfacet
  facet normal 0 0 -1
    outer loop
      vertex 0 -0.210899 0
      vertex 0.0132418 0.210484 0
      vertex 0.0132418 -0.210484 0
    endloop
  endfacet
  facet normal 0 0 -1
    outer loop
      vertex 0 -0.210899 0
      vertex 0 0.210899 0
      vertex 0.0132418 0.210484 0
    endloop
  endfacet
  facet normal 0 0 -1
    outer loop
      vertex -0.0132418 -0.210484 0
      vertex 0 0.210899 0
      vertex 0 -0.210899 0
    endloop
  endfacet
  facet normal 0 0 -1
    outer loop
      vertex -0.0132418 -0.210484 0
      vertex -0.0132418 0.210484 0
      vertex 0 0.210899 0
    endloop
  endfacet
  facet normal 0 0 -1
    outer loop
      vertex -0.026432 -0.209236 0
      vertex -0.0132418 0.210484 0
      vertex -0.0132418 -0.210484 0
    endloop
  endfacet
  facet normal 0 0 -1
    outer loop
      vertex -0.026432 -0.209236 0
      vertex -0.026432 0.209236 0
      vertex -0.0132418 0.210484 0
    endloop
  endfacet
  facet normal 0 0 -1
    outer loop
      vertex -0.0395184 -0.207164 0
      vertex -0.026432 0.209236 0
      vertex -0.026432 -0.209236 0
    endloop
  endfacet
  facet normal 0 0 -1
    outer loop
      vertex -0.0395184 -0.207164 0
      vertex -0.0395184 0.207164 0
      vertex -0.026432 0.209236 0
    endloop
  endfacet
  facet normal 0 0 -1
    outer loop
      vertex -0.0524483 -0.204274 0
      vertex -0.0395184 0.207164 0
      vertex -0.0395184 -0.207164 0
    endloop
  endfacet
  facet normal 0 0 -1
    outer loop
      vertex -0.0524483 -0.204274 0
      vertex -0.0524483 0.204274 0
      vertex -0.0395184 0.207164 0
    endloop
  endfacet
  facet normal 0 0 -1
    outer loop
      vertex -0.0651712 -0.200578 0
      vertex -0.0524483 0.204274 0
      vertex -0.0524483 -0.204274 0
    endloop
  endfacet
  facet normal 0 0 -1
    outer loop
      vertex -0.0651712 -0.200578 0
      vertex -0.0651712 0.200578 0
      vertex -0.0524483 0.204274 0
    endloop
  endfacet
  facet normal 0 0 -1
    outer loop
      vertex -0.0776367 -0.19609 0
      vertex -0.0651712 0.200578 0
      vertex -0.0651712 -0.200578 0
    endloop
  endfacet
  facet normal 0 0 -1
    outer loop
      vertex -0.0776367 -0.19609 0
      vertex -0.0776367 0.19609 0
      vertex -0.0651712 0.200578 0
    endloop
  endfacet
  facet normal 0 0 -1
    outer loop
      vertex -0.0897961 -0.190827 0
      vertex -0.0776367 0.19609 0
      vertex -0.0776367 -0.19609 0
    endloop
  endfacet
  facet normal 0 0 -1
    outer loop
      vertex -0.0897961 -0.190827 0
      vertex -0.0897961 0.190827 0
      vertex -0.0776367 0.19609 0
    endloop
  endfacet
  facet normal 0 0 -1
    outer loop
      vertex -0.101602 -0.184813 0
      vertex -0.0897961 0.190827 0
      vertex -0.0897961 -0.190827 0
    endloop
  endfacet
  facet normal 0 0 -1
    outer loop
      vertex -0.101602 -0.184813 0
      vertex -0.101602 0.184813 0
      vertex -0.0897961 0.190827 0
    endloop
  endfacet
  facet normal 0 0 -1
    outer loop
      vertex -0.113006 -0.178068 0
      vertex -0.101602 0.184813 0
      vertex -0.101602 -0.184813 0
    endloop
  endfacet
  facet normal 0 0 -1
    outer loop
      vertex -0.113006 -0.178068 0
      vertex -0.113006 0.178068 0
      vertex -0.101602 0.184813 0
    endloop
  endfacet
  facet normal 0 0 -1
    outer loop
      vertex -0.123963 -0.170621 0
      vertex -0.113006 0.178068 0
      vertex -0.113006 -0.178068 0
    endloop
  endfacet
  facet normal 0 0 -1
    outer loop
      vertex -0.123963 -0.170621 0
      vertex -0.123963 0.170621 0
      vertex -0.113006 0.178068 0
    endloop
  endfacet
  facet normal 0 0 -1
    outer loop
      vertex -0.134432 -0.1625 0
      vertex -0.123963 0.170621 0
      vertex -0.123963 -0.170621 0
    endloop
  endfacet
  facet normal 0 0 -1
    outer loop
      vertex -0.134432 -0.1625 0
      vertex -0.134432 0.1625 0
      vertex -0.123963 0.170621 0
    endloop
  endfacet
  facet normal 0 0 -1
    outer loop
      vertex -0.14437 -0.153739 0
      vertex -0.134432 0.1625 0
      vertex -0.134432 -0.1625 0
    endloop
  endfacet
  facet normal 0 0 -1
    outer loop
      vertex -0.14437 -0.153739 0
      vertex -0.14437 0.153739 0
      vertex -0.134432 0.1625 0
    endloop
  endfacet
  facet normal 0 0 -1
    outer loop
      vertex -0.153739 -0.14437 0
      vertex -0.14437 0.153739 0
      vertex -0.14437 -0.153739 0
    endloop
  endfacet
  facet normal 0 0 -1
    outer loop
      vertex -0.153739 -0.14437 0
      vertex -0.153739 0.14437 0
      vertex -0.14437 0.153739 0
    endloop
  endfacet
  facet normal 0 0 -1
    outer loop
      vertex -0.1625 -0.134432 0
      vertex -0.153739 0.14437 0
      vertex -0.153739 -0.14437 0
    endloop
  endfacet
  facet normal 0 0 -1
    outer loop
      vertex -0.1625 -0.134432 0
      vertex -0.1625 0.134432 0
      vertex -0.153739 0.14437 0
    endloop
  endfacet
  facet normal 0 0 -1
    outer loop
      vertex -0.170621 -0.123963 0
      vertex -0.1625 0.134432 0
      vertex -0.1625 -0.134432 0
    endloop
  endfacet
  facet normal 0 0 -1
    outer loop
      vertex -0.170621 -0.123963 0
      vertex -0.170621 0.123963 0
      vertex -0.1625 0.134432 0
    endloop
  endfacet
  facet normal 0 0 -1
    outer loop
      vertex -0.178068 -0.113006 0
      vertex -0.170621 0.123963 0
      vertex -0.170621 -0.123963 0
    endloop
  endfacet
  facet normal 0 0 -1
    outer loop
      vertex -0.178068 -0.113006 0
      vertex -0.178068 0.113006 0
      vertex -0.170621 0.123963 0
    endloop
  endfacet
  facet normal 0 0 -1
    outer loop
      vertex -0.184813 -0.101602 0
      vertex -0.178068 0.113006 0
      vertex -0.178068 -0.113006 0
    endloop
  endfacet
  facet normal 0 0 -1
    outer loop
      vertex -0.184813 -0.101602 0
      vertex -0.184813 0.101602 0
      vertex -0.178068 0.113006 0
    endloop
  endfacet
  facet normal 0 0 -1
    outer loop
      vertex -0.190827 -0.0897961 0
      vertex -0.184813 0.101602 0
      vertex -0.184813 -0.101602 0
    endloop
  endfacet
  facet normal 0 0 -1
    outer loop
      vertex -0.190827 -0.0897961 0
      vertex -0.190827 0.0897961 0
      vertex -0.184813 0.101602 0
    endloop
  endfacet
  facet normal 0 0 -1
    outer loop
      vertex -0.19609 -0.0776367 0
      vertex -0.190827 0.0897961 0
      vertex -0.190827 -0.0897961 0
    endloop
  endfacet
  facet normal 0 0 -1
    outer loop
      vertex -0.19609 -0.0776367 0
      vertex -0.19609 0.0776367 0
      vertex -0.190827 0.0897961 0
    endloop
  endfacet
  facet normal 0 0 -1
    outer loop
      vertex -0.200578 -0.0651712 0
      vertex -0.19609 0.0776367 0
      vertex -0.19609 -0.0776367 0
    endloop
  endfacet
  facet normal 0 0 -1
    outer loop
      vertex -0.200578 -0.0651712 0
      vertex -0.200578 0.0651712 0
      vertex -0.19609 0.0776367 0
    endloop
  endfacet
  facet normal 0 0 -1
    outer loop
      vertex -0.204274 -0.0524483 0
      vertex -0.200578 0.0651712 0
      vertex -0.200578 -0.0651712 0
    endloop
  endfacet
  facet normal 0 0 -1
    outer loop
      vertex -0.204274 -0.0524483 0
      vertex -0.204274 0.0524483 0
      vertex -0.200578 0.0651712 0
    endloop
  endfacet
  facet normal 0 0 -1
    outer loop
      vertex -0.207164 -0.0395184 0
      vertex -0.204274 0.0524483 0
      vertex -0.204274 -0.0524483 0
    endloop
  endfacet
  facet normal 0 0 -1
    outer loop
      vertex -0.207164 -0.0395184 0
      vertex -0.207164 0.0395184 0
      vertex -0.204274 0.0524483 0
    endloop
  endfacet
  facet normal 0 0 -1
    outer loop
      vertex -0.209236 -0.026432 0
      vertex -0.207164 0.0395184 0
      vertex -0.207164 -0.0395184 0
    endloop
  endfacet
  facet normal 0 0 -1
    outer loop
      vertex -0.209236 -0.026432 0
      vertex -0.209236 0.026432 0
      vertex -0.207164 0.0395184 0
    endloop
  endfacet
  facet normal 0 0 -1
    outer loop
      vertex -0.210484 -0.0132418 0
      vertex -0.209236 0.026432 0
      vertex -0.209236 -0.026432 0
    endloop
  endfacet
  facet normal 0 0 -1
    outer loop
      vertex -0.210484 -0.0132418 0
      vertex -0.210484 0.0132418 0
      vertex -0.209236 0.026432 0
    endloop
  endfacet
  facet normal 0 -0 -1
    outer loop
      vertex -0.210484 0.0132418 0
      vertex -0.210484 -0.0132418 0
      vertex -0.210899 0 0
    endloop
  endfacet
  facet normal 0 0 -1
    outer loop
      vertex 0.210484 -0.0132418 0
      vertex 0.210484 0.0132418 0
      vertex 0.210899 0 0
    endloop
  endfacet
  facet normal 0 0 -1
    outer loop
      vertex 0.209236 -0.026432 0
      vertex 0.210484 0.0132418 0
      vertex 0.210484 -0.0132418 0
    endloop
  endfacet
  facet normal 0 0 -1
    outer loop
      vertex 0.209236 -0.026432 0
      vertex 0.209236 0.026432 0
      vertex 0.210484 0.0132418 0
    endloop
  endfacet
  facet normal 0 0 -1
    outer loop
      vertex 0.207164 -0.0395184 0
      vertex 0.209236 0.026432 0
      vertex 0.209236 -0.026432 0
    endloop
  endfacet
  facet normal 0 0 -1
    outer loop
      vertex 0.207164 -0.0395184 0
      vertex 0.207164 0.0395184 0
      vertex 0.209236 0.026432 0
    endloop
  endfacet
  facet normal 0 0 -1
    outer loop
      vertex 0.204274 -0.0524483 0
      vertex 0.207164 0.0395184 0
      vertex 0.207164 -0.0395184 0
    endloop
  endfacet
  facet normal 0 0 -1
    outer loop
      vertex 0.204274 -0.0524483 0
      vertex 0.204274 0.0524483 0
      vertex 0.207164 0.0395184 0
    endloop
  endfacet
  facet normal 0 0 -1
    outer loop
      vertex 0.200578 -0.0651712 0
      vertex 0.204274 0.0524483 0
      vertex 0.204274 -0.0524483 0
    endloop
  endfacet
  facet normal 0 0 -1
    outer loop
      vertex 0.200578 -0.0651712 0
      vertex 0.200578 0.0651712 0
      vertex 0.204274 0.0524483 0
    endloop
  endfacet
  facet normal 0 0 -1
    outer loop
      vertex 0.19609 -0.0776367 0
      vertex 0.200578 0.0651712 0
      vertex 0.200578 -0.0651712 0
    endloop
  endfacet
  facet normal 0 0 -1
    outer loop
      vertex 0.19609 -0.0776367 0
      vertex 0.19609 0.0776367 0
      vertex 0.200578 0.0651712 0
    endloop
  endfacet
  facet normal 0 0 -1
    outer loop
      vertex 0.190827 -0.0897961 0
      vertex 0.19609 0.0776367 0
      vertex 0.19609 -0.0776367 0
    endloop
  endfacet
  facet normal 0 0 -1
    outer loop
      vertex 0.190827 -0.0897961 0
      vertex 0.190827 0.0897961 0
      vertex 0.19609 0.0776367 0
    endloop
  endfacet
  facet normal 0 0 -1
    outer loop
      vertex 0.184813 -0.101602 0
      vertex 0.190827 0.0897961 0
      vertex 0.190827 -0.0897961 0
    endloop
  endfacet
  facet normal 0 0 -1
    outer loop
      vertex 0.184813 -0.101602 0
      vertex 0.184813 0.101602 0
      vertex 0.190827 0.0897961 0
    endloop
  endfacet
  facet normal 0 0 -1
    outer loop
      vertex 0.178068 -0.113006 0
      vertex 0.184813 0.101602 0
      vertex 0.184813 -0.101602 0
    endloop
  endfacet
  facet normal 0 0 -1
    outer loop
      vertex 0.178068 -0.113006 0
      vertex 0.178068 0.113006 0
      vertex 0.184813 0.101602 0
    endloop
  endfacet
  facet normal 0 0 -1
    outer loop
      vertex 0.170621 -0.123963 0
      vertex 0.178068 0.113006 0
      vertex 0.178068 -0.113006 0
    endloop
  endfacet
  facet normal 0 0 -1
    outer loop
      vertex 0.170621 -0.123963 0
      vertex 0.170621 0.123963 0
      vertex 0.178068 0.113006 0
    endloop
  endfacet
  facet normal 0 0 -1
    outer loop
      vertex 0.1625 -0.134432 0
      vertex 0.170621 0.123963 0
      vertex 0.170621 -0.123963 0
    endloop
  endfacet
  facet normal 0 0 -1
    outer loop
      vertex 0.1625 -0.134432 0
      vertex 0.1625 0.134432 0
      vertex 0.170621 0.123963 0
    endloop
  endfacet
  facet normal 0 0 -1
    outer loop
      vertex 0.153739 -0.14437 0
      vertex 0.1625 0.134432 0
      vertex 0.1625 -0.134432 0
    endloop
  endfacet
  facet normal 0 0 -1
    outer loop
      vertex 0.153739 -0.14437 0
      vertex 0.153739 0.14437 0
      vertex 0.1625 0.134432 0
    endloop
  endfacet
  facet normal 0 0 -1
    outer loop
      vertex 0.14437 -0.153739 0
      vertex 0.153739 0.14437 0
      vertex 0.153739 -0.14437 0
    endloop
  endfacet
  facet normal 0 0 -1
    outer loop
      vertex 0.14437 -0.153739 0
      vertex 0.14437 0.153739 0
      vertex 0.153739 0.14437 0
    endloop
  endfacet
  facet normal 0 0 -1
    outer loop
      vertex 0.134432 -0.1625 0
      vertex 0.14437 0.153739 0
      vertex 0.14437 -0.153739 0
    endloop
  endfacet
  facet normal 0 0 -1
    outer loop
      vertex 0.134432 -0.1625 0
      vertex 0.134432 0.1625 0
      vertex 0.14437 0.153739 0
    endloop
  endfacet
  facet normal 0 0 -1
    outer loop
      vertex 0.123963 -0.170621 0
      vertex 0.134432 0.1625 0
      vertex 0.134432 -0.1625 0
    endloop
  endfacet
  facet normal 0 0 -1
    outer loop
      vertex 0.123963 -0.170621 0
      vertex 0.123963 0.170621 0
      vertex 0.134432 0.1625 0
    endloop
  endfacet
  facet normal 0 0 -1
    outer loop
      vertex 0.113006 -0.178068 0
      vertex 0.123963 0.170621 0
      vertex 0.123963 -0.170621 0
    endloop
  endfacet
  facet normal 0 0 -1
    outer loop
      vertex 0.111487 0.178966 0
      vertex 0.123963 0.170621 0
      vertex 0.113006 -0.178068 0
    endloop
  endfacet
  facet normal 0 0 -1
    outer loop
      vertex 0.123963 0.170621 0
      vertex 0.111487 0.178966 0
      vertex 0.113006 0.178068 0
    endloop
  endfacet
  facet normal 0 0 -1
    outer loop
      vertex 0.101602 -0.184813 0
      vertex 0.111487 0.178966 0
      vertex 0.113006 -0.178068 0
    endloop
  endfacet
  facet normal 0 0 -1
    outer loop
      vertex 0.0702991 0.198732 0
      vertex 0.111487 0.178966 0
      vertex 0.101602 -0.184813 0
    endloop
  endfacet
  facet normal 0 0 -1
    outer loop
      vertex 0.0702991 0.198732 0
      vertex 0.101602 -0.184813 0
      vertex 0.0897961 -0.190827 0
    endloop
  endfacet
  facet normal 0 0 -1
    outer loop
      vertex 0.0702991 0.198732 0
      vertex 0.0897961 -0.190827 0
      vertex 0.0776367 -0.19609 0
    endloop
  endfacet
  facet normal 0 0 -1
    outer loop
      vertex 0.111487 0.178966 0
      vertex 0.0702991 0.198732 0
      vertex 0.111487 0.246113 0
    endloop
  endfacet
  facet normal -0 0 -1
    outer loop
      vertex 0.111487 0.246113 0
      vertex 0.0702991 0.198732 0
      vertex 0.0702991 0.246113 0
    endloop
  endfacet
  facet normal 0.891049 -0.453906 0
    outer loop
      vertex 0.184813 -0.101602 0.4424
      vertex 0.190827 -0.0897961 0
      vertex 0.190827 -0.0897961 0.4424
    endloop
  endfacet
  facet normal 0.891049 -0.453906 0
    outer loop
      vertex 0.190827 -0.0897961 0
      vertex 0.184813 -0.101602 0.4424
      vertex 0.184813 -0.101602 0
    endloop
  endfacet
  facet normal -0.860719 -0.50908 0
    outer loop
      vertex -0.178068 -0.113006 0
      vertex -0.184813 -0.101602 0.4424
      vertex -0.184813 -0.101602 0
    endloop
  endfacet
  facet normal -0.860719 -0.50908 0
    outer loop
      vertex -0.184813 -0.101602 0.4424
      vertex -0.178068 -0.113006 0
      vertex -0.178068 -0.113006 0.4424
    endloop
  endfacet
  facet normal -0.999509 -0.0313248 0
    outer loop
      vertex -0.210484 -0.0132418 0
      vertex -0.210899 0 0.4424
      vertex -0.210899 0 0
    endloop
  endfacet
  facet normal -0.999509 -0.0313248 0
    outer loop
      vertex -0.210899 0 0.4424
      vertex -0.210484 -0.0132418 0
      vertex -0.210484 -0.0132418 0.4424
    endloop
  endfacet
  facet normal -0.860719 0.50908 0
    outer loop
      vertex -0.184813 0.101602 0
      vertex -0.178068 0.113006 0.4424
      vertex -0.178068 0.113006 0
    endloop
  endfacet
  facet normal -0.860719 0.50908 0
    outer loop
      vertex -0.178068 0.113006 0.4424
      vertex -0.184813 0.101602 0
      vertex -0.184813 0.101602 0.4424
    endloop
  endfacet
  facet normal -0.960301 0.278967 0
    outer loop
      vertex -0.204274 0.0524483 0
      vertex -0.200578 0.0651712 0.4424
      vertex -0.200578 0.0651712 0
    endloop
  endfacet
  facet normal -0.960301 0.278967 0
    outer loop
      vertex -0.200578 0.0651712 0.4424
      vertex -0.204274 0.0524483 0
      vertex -0.204274 0.0524483 0.4424
    endloop
  endfacet
  facet normal -0.0313248 0.999509 0
    outer loop
      vertex 0 0.210899 0
      vertex -0.0132418 0.210484 0.4424
      vertex 0 0.210899 0.4424
    endloop
  endfacet
  facet normal -0.0313248 0.999509 0
    outer loop
      vertex -0.0132418 0.210484 0.4424
      vertex 0 0.210899 0
      vertex -0.0132418 0.210484 0
    endloop
  endfacet
  facet normal 0.50908 0.860719 -0.000347901
    outer loop
      vertex 0.113006 0.178068 0.4424
      vertex 0.111487 0.178966 0.441345
      vertex 0.101602 0.184813 0.4424
    endloop
  endfacet
  facet normal 0.508901 0.860825 -0
    outer loop
      vertex 0.113006 0.178068 0
      vertex 0.111487 0.178966 0.441345
      vertex 0.113006 0.178068 0.4424
    endloop
  endfacet
  facet normal 0.508901 0.860825 0
    outer loop
      vertex 0.111487 0.178966 0.441345
      vertex 0.113006 0.178068 0
      vertex 0.111487 0.178966 0
    endloop
  endfacet
  facet normal 0.509108 0.860703 0
    outer loop
      vertex 0.101602 0.184813 0.4424
      vertex 0.111487 0.178966 0.441345
      vertex 0.101602 0.184813 0.441345
    endloop
  endfacet
  facet normal 0.827058 0.562116 0
    outer loop
      vertex 0.178068 0.113006 0.4424
      vertex 0.170621 0.123963 0
      vertex 0.170621 0.123963 0.4424
    endloop
  endfacet
  facet normal 0.827058 0.562116 0
    outer loop
      vertex 0.170621 0.123963 0
      vertex 0.178068 0.113006 0.4424
      vertex 0.178068 0.113006 0
    endloop
  endfacet
  facet normal 0.97592 -0.218131 0
    outer loop
      vertex 0.204274 -0.0524483 0.4424
      vertex 0.207164 -0.0395184 0
      vertex 0.207164 -0.0395184 0.4424
    endloop
  endfacet
  facet normal 0.97592 -0.218131 0
    outer loop
      vertex 0.207164 -0.0395184 0
      vertex 0.204274 -0.0524483 0.4424
      vertex 0.204274 -0.0524483 0
    endloop
  endfacet
  facet normal 0.917723 -0.397221 0
    outer loop
      vertex 0.190827 -0.0897961 0.4424
      vertex 0.19609 -0.0776367 0
      vertex 0.19609 -0.0776367 0.4424
    endloop
  endfacet
  facet normal 0.917723 -0.397221 0
    outer loop
      vertex 0.19609 -0.0776367 0
      vertex 0.190827 -0.0897961 0.4424
      vertex 0.190827 -0.0897961 0
    endloop
  endfacet
  facet normal 0.960301 -0.278967 0
    outer loop
      vertex 0.200578 -0.0651712 0.4424
      vertex 0.204274 -0.0524483 0
      vertex 0.204274 -0.0524483 0.4424
    endloop
  endfacet
  facet normal 0.960301 -0.278967 0
    outer loop
      vertex 0.204274 -0.0524483 0
      vertex 0.200578 -0.0651712 0.4424
      vertex 0.200578 -0.0651712 0
    endloop
  endfacet
  facet normal 0.827058 -0.562116 0
    outer loop
      vertex 0.170621 -0.123963 0.4424
      vertex 0.178068 -0.113006 0
      vertex 0.178068 -0.113006 0.4424
    endloop
  endfacet
  facet normal 0.827058 -0.562116 0
    outer loop
      vertex 0.178068 -0.113006 0
      vertex 0.170621 -0.123963 0.4424
      vertex 0.170621 -0.123963 0
    endloop
  endfacet
  facet normal 0.562116 -0.827058 0
    outer loop
      vertex 0.113006 -0.178068 0
      vertex 0.123963 -0.170621 0.4424
      vertex 0.113006 -0.178068 0.4424
    endloop
  endfacet
  facet normal 0.562116 -0.827058 0
    outer loop
      vertex 0.123963 -0.170621 0.4424
      vertex 0.113006 -0.178068 0
      vertex 0.123963 -0.170621 0
    endloop
  endfacet
  facet normal 0.218131 -0.97592 0
    outer loop
      vertex 0.0395184 -0.207164 0
      vertex 0.0524483 -0.204274 0.4424
      vertex 0.0395184 -0.207164 0.4424
    endloop
  endfacet
  facet normal 0.218131 -0.97592 0
    outer loop
      vertex 0.0524483 -0.204274 0.4424
      vertex 0.0395184 -0.207164 0
      vertex 0.0524483 -0.204274 0
    endloop
  endfacet
  facet normal -0.97592 -0.218131 0
    outer loop
      vertex -0.204274 -0.0524483 0
      vertex -0.207164 -0.0395184 0.4424
      vertex -0.207164 -0.0395184 0
    endloop
  endfacet
  facet normal -0.97592 -0.218131 0
    outer loop
      vertex -0.207164 -0.0395184 0.4424
      vertex -0.204274 -0.0524483 0
      vertex -0.204274 -0.0524483 0.4424
    endloop
  endfacet
  facet normal -0.999509 0.0313248 0
    outer loop
      vertex -0.210899 0 0
      vertex -0.210484 0.0132418 0.4424
      vertex -0.210484 0.0132418 0
    endloop
  endfacet
  facet normal -0.999509 0.0313248 0
    outer loop
      vertex -0.210484 0.0132418 0.4424
      vertex -0.210899 0 0
      vertex -0.210899 0 0.4424
    endloop
  endfacet
  facet normal -0.987696 -0.156384 0
    outer loop
      vertex -0.207164 -0.0395184 0
      vertex -0.209236 -0.026432 0.4424
      vertex -0.209236 -0.026432 0
    endloop
  endfacet
  facet normal -0.987696 -0.156384 0
    outer loop
      vertex -0.209236 -0.026432 0.4424
      vertex -0.207164 -0.0395184 0
      vertex -0.207164 -0.0395184 0.4424
    endloop
  endfacet
  facet normal 0 0 1
    outer loop
      vertex 0.210484 0.0132418 0.4424
      vertex 0.210484 -0.0132418 0.4424
      vertex 0.210899 0 0.4424
    endloop
  endfacet
  facet normal 0 0 1
    outer loop
      vertex 0.209236 0.026432 0.4424
      vertex 0.210484 -0.0132418 0.4424
      vertex 0.210484 0.0132418 0.4424
    endloop
  endfacet
  facet normal 0 0 1
    outer loop
      vertex 0.209236 0.026432 0.4424
      vertex 0.209236 -0.026432 0.4424
      vertex 0.210484 -0.0132418 0.4424
    endloop
  endfacet
  facet normal 0 0 1
    outer loop
      vertex 0.207164 0.0395184 0.4424
      vertex 0.209236 -0.026432 0.4424
      vertex 0.209236 0.026432 0.4424
    endloop
  endfacet
  facet normal 0 0 1
    outer loop
      vertex 0.207164 0.0395184 0.4424
      vertex 0.207164 -0.0395184 0.4424
      vertex 0.209236 -0.026432 0.4424
    endloop
  endfacet
  facet normal 0 0 1
    outer loop
      vertex 0.204274 0.0524483 0.4424
      vertex 0.207164 -0.0395184 0.4424
      vertex 0.207164 0.0395184 0.4424
    endloop
  endfacet
  facet normal 0 0 1
    outer loop
      vertex 0.204274 0.0524483 0.4424
      vertex 0.204274 -0.0524483 0.4424
      vertex 0.207164 -0.0395184 0.4424
    endloop
  endfacet
  facet normal 0 0 1
    outer loop
      vertex 0.200578 0.0651712 0.4424
      vertex 0.204274 -0.0524483 0.4424
      vertex 0.204274 0.0524483 0.4424
    endloop
  endfacet
  facet normal 0 0 1
    outer loop
      vertex 0.200578 0.0651712 0.4424
      vertex 0.200578 -0.0651712 0.4424
      vertex 0.204274 -0.0524483 0.4424
    endloop
  endfacet
  facet normal 0 0 1
    outer loop
      vertex 0.19609 0.0776367 0.4424
      vertex 0.200578 -0.0651712 0.4424
      vertex 0.200578 0.0651712 0.4424
    endloop
  endfacet
  facet normal 0 0 1
    outer loop
      vertex 0.19609 0.0776367 0.4424
      vertex 0.19609 -0.0776367 0.4424
      vertex 0.200578 -0.0651712 0.4424
    endloop
  endfacet
  facet normal 0 0 1
    outer loop
      vertex 0.190827 0.0897961 0.4424
      vertex 0.19609 -0.0776367 0.4424
      vertex 0.19609 0.0776367 0.4424
    endloop
  endfacet
  facet normal 0 0 1
    outer loop
      vertex 0.190827 0.0897961 0.4424
      vertex 0.190827 -0.0897961 0.4424
      vertex 0.19609 -0.0776367 0.4424
    endloop
  endfacet
  facet normal 0 0 1
    outer loop
      vertex 0.184813 0.101602 0.4424
      vertex 0.190827 -0.0897961 0.4424
      vertex 0.190827 0.0897961 0.4424
    endloop
  endfacet
  facet normal 0 0 1
    outer loop
      vertex 0.184813 0.101602 0.4424
      vertex 0.184813 -0.101602 0.4424
      vertex 0.190827 -0.0897961 0.4424
    endloop
  endfacet
  facet normal 0 0 1
    outer loop
      vertex 0.178068 0.113006 0.4424
      vertex 0.184813 -0.101602 0.4424
      vertex 0.184813 0.101602 0.4424
    endloop
  endfacet
  facet normal 0 0 1
    outer loop
      vertex 0.178068 0.113006 0.4424
      vertex 0.178068 -0.113006 0.4424
      vertex 0.184813 -0.101602 0.4424
    endloop
  endfacet
  facet normal 0 0 1
    outer loop
      vertex 0.170621 0.123963 0.4424
      vertex 0.178068 -0.113006 0.4424
      vertex 0.178068 0.113006 0.4424
    endloop
  endfacet
  facet normal 0 0 1
    outer loop
      vertex 0.170621 0.123963 0.4424
      vertex 0.170621 -0.123963 0.4424
      vertex 0.178068 -0.113006 0.4424
    endloop
  endfacet
  facet normal 0 0 1
    outer loop
      vertex 0.1625 0.134432 0.4424
      vertex 0.170621 -0.123963 0.4424
      vertex 0.170621 0.123963 0.4424
    endloop
  endfacet
  facet normal 0 0 1
    outer loop
      vertex 0.1625 0.134432 0.4424
      vertex 0.1625 -0.134432 0.4424
      vertex 0.170621 -0.123963 0.4424
    endloop
  endfacet
  facet normal 0 0 1
    outer loop
      vertex 0.153739 0.14437 0.4424
      vertex 0.1625 -0.134432 0.4424
      vertex 0.1625 0.134432 0.4424
    endloop
  endfacet
  facet normal 0 0 1
    outer loop
      vertex 0.153739 0.14437 0.4424
      vertex 0.153739 -0.14437 0.4424
      vertex 0.1625 -0.134432 0.4424
    endloop
  endfacet
  facet normal 0 0 1
    outer loop
      vertex 0.14437 0.153739 0.4424
      vertex 0.153739 -0.14437 0.4424
      vertex 0.153739 0.14437 0.4424
    endloop
  endfacet
  facet normal 0 0 1
    outer loop
      vertex 0.14437 0.153739 0.4424
      vertex 0.14437 -0.153739 0.4424
      vertex 0.153739 -0.14437 0.4424
    endloop
  endfacet
  facet normal 0 0 1
    outer loop
      vertex 0.134432 0.1625 0.4424
      vertex 0.14437 -0.153739 0.4424
      vertex 0.14437 0.153739 0.4424
    endloop
  endfacet
  facet normal 0 0 1
    outer loop
      vertex 0.134432 0.1625 0.4424
      vertex 0.134432 -0.1625 0.4424
      vertex 0.14437 -0.153739 0.4424
    endloop
  endfacet
  facet normal 0 0 1
    outer loop
      vertex 0.123963 0.170621 0.4424
      vertex 0.134432 -0.1625 0.4424
      vertex 0.134432 0.1625 0.4424
    endloop
  endfacet
  facet normal 0 0 1
    outer loop
      vertex 0.123963 0.170621 0.4424
      vertex 0.123963 -0.170621 0.4424
      vertex 0.134432 -0.1625 0.4424
    endloop
  endfacet
  facet normal 0 0 1
    outer loop
      vertex 0.113006 0.178068 0.4424
      vertex 0.123963 -0.170621 0.4424
      vertex 0.123963 0.170621 0.4424
    endloop
  endfacet
  facet normal 0 0 1
    outer loop
      vertex 0.113006 0.178068 0.4424
      vertex 0.113006 -0.178068 0.4424
      vertex 0.123963 -0.170621 0.4424
    endloop
  endfacet
  facet normal 0 0 1
    outer loop
      vertex 0.101602 0.184813 0.4424
      vertex 0.113006 -0.178068 0.4424
      vertex 0.113006 0.178068 0.4424
    endloop
  endfacet
  facet normal 0 0 1
    outer loop
      vertex 0.101602 0.184813 0.4424
      vertex 0.101602 -0.184813 0.4424
      vertex 0.113006 -0.178068 0.4424
    endloop
  endfacet
  facet normal 0 0 1
    outer loop
      vertex 0.0897961 0.190827 0.4424
      vertex 0.101602 -0.184813 0.4424
      vertex 0.101602 0.184813 0.4424
    endloop
  endfacet
  facet normal 0 0 1
    outer loop
      vertex 0.0897961 0.190827 0.4424
      vertex 0.0897961 -0.190827 0.4424
      vertex 0.101602 -0.184813 0.4424
    endloop
  endfacet
  facet normal 0 0 1
    outer loop
      vertex 0.0776367 0.19609 0.4424
      vertex 0.0897961 -0.190827 0.4424
      vertex 0.0897961 0.190827 0.4424
    endloop
  endfacet
  facet normal 0 0 1
    outer loop
      vertex 0.0776367 0.19609 0.4424
      vertex 0.0776367 -0.19609 0.4424
      vertex 0.0897961 -0.190827 0.4424
    endloop
  endfacet
  facet normal 0 0 1
    outer loop
      vertex 0.0651712 0.200578 0.4424
      vertex 0.0776367 -0.19609 0.4424
      vertex 0.0776367 0.19609 0.4424
    endloop
  endfacet
  facet normal 0 0 1
    outer loop
      vertex 0.0651712 0.200578 0.4424
      vertex 0.0651712 -0.200578 0.4424
      vertex 0.0776367 -0.19609 0.4424
    endloop
  endfacet
  facet normal 0 0 1
    outer loop
      vertex 0.0524483 0.204274 0.4424
      vertex 0.0651712 -0.200578 0.4424
      vertex 0.0651712 0.200578 0.4424
    endloop
  endfacet
  facet normal 0 0 1
    outer loop
      vertex 0.0524483 0.204274 0.4424
      vertex 0.0524483 -0.204274 0.4424
      vertex 0.0651712 -0.200578 0.4424
    endloop
  endfacet
  facet normal 0 0 1
    outer loop
      vertex 0.0395184 0.207164 0.4424
      vertex 0.0524483 -0.204274 0.4424
      vertex 0.0524483 0.204274 0.4424
    endloop
  endfacet
  facet normal 0 0 1
    outer loop
      vertex 0.0395184 0.207164 0.4424
      vertex 0.0395184 -0.207164 0.4424
      vertex 0.0524483 -0.204274 0.4424
    endloop
  endfacet
  facet normal 0 0 1
    outer loop
      vertex 0.026432 0.209236 0.4424
      vertex 0.0395184 -0.207164 0.4424
      vertex 0.0395184 0.207164 0.4424
    endloop
  endfacet
  facet normal 0 0 1
    outer loop
      vertex 0.026432 0.209236 0.4424
      vertex 0.026432 -0.209236 0.4424
      vertex 0.0395184 -0.207164 0.4424
    endloop
  endfacet
  facet normal 0 0 1
    outer loop
      vertex 0.0132418 0.210484 0.4424
      vertex 0.026432 -0.209236 0.4424
      vertex 0.026432 0.209236 0.4424
    endloop
  endfacet
  facet normal 0 0 1
    outer loop
      vertex 0.0132418 0.210484 0.4424
      vertex 0.0132418 -0.210484 0.4424
      vertex 0.026432 -0.209236 0.4424
    endloop
  endfacet
  facet normal 0 0 1
    outer loop
      vertex 0 0.210899 0.4424
      vertex 0.0132418 -0.210484 0.4424
      vertex 0.0132418 0.210484 0.4424
    endloop
  endfacet
  facet normal 0 0 1
    outer loop
      vertex 0 0.210899 0.4424
      vertex 0 -0.210899 0.4424
      vertex 0.0132418 -0.210484 0.4424
    endloop
  endfacet
  facet normal -0 0 1
    outer loop
      vertex -0.0132418 0.210484 0.4424
      vertex 0 -0.210899 0.4424
      vertex 0 0.210899 0.4424
    endloop
  endfacet
  facet normal 0 0 1
    outer loop
      vertex -0.0132418 0.210484 0.4424
      vertex -0.0132418 -0.210484 0.4424
      vertex 0 -0.210899 0.4424
    endloop
  endfacet
  facet normal -0 0 1
    outer loop
      vertex -0.026432 0.209236 0.4424
      vertex -0.0132418 -0.210484 0.4424
      vertex -0.0132418 0.210484 0.4424
    endloop
  endfacet
  facet normal 0 0 1
    outer loop
      vertex -0.026432 0.209236 0.4424
      vertex -0.026432 -0.209236 0.4424
      vertex -0.0132418 -0.210484 0.4424
    endloop
  endfacet
  facet normal -0 0 1
    outer loop
      vertex -0.0395184 0.207164 0.4424
      vertex -0.026432 -0.209236 0.4424
      vertex -0.026432 0.209236 0.4424
    endloop
  endfacet
  facet normal 0 0 1
    outer loop
      vertex -0.0395184 0.207164 0.4424
      vertex -0.0395184 -0.207164 0.4424
      vertex -0.026432 -0.209236 0.4424
    endloop
  endfacet
  facet normal -0 0 1
    outer loop
      vertex -0.0524483 0.204274 0.4424
      vertex -0.0395184 -0.207164 0.4424
      vertex -0.0395184 0.207164 0.4424
    endloop
  endfacet
  facet normal 0 0 1
    outer loop
      vertex -0.0524483 0.204274 0.4424
      vertex -0.0524483 -0.204274 0.4424
      vertex -0.0395184 -0.207164 0.4424
    endloop
  endfacet
  facet normal -0 0 1
    outer loop
      vertex -0.0651712 0.200578 0.4424
      vertex -0.0524483 -0.204274 0.4424
      vertex -0.0524483 0.204274 0.4424
    endloop
  endfacet
  facet normal 0 0 1
    outer loop
      vertex -0.0651712 0.200578 0.4424
      vertex -0.0651712 -0.200578 0.4424
      vertex -0.0524483 -0.204274 0.4424
    endloop
  endfacet
  facet normal -0 0 1
    outer loop
      vertex -0.0776367 0.19609 0.4424
      vertex -0.0651712 -0.200578 0.4424
      vertex -0.0651712 0.200578 0.4424
    endloop
  endfacet
  facet normal 0 0 1
    outer loop
      vertex -0.0776367 0.19609 0.4424
      vertex -0.0776367 -0.19609 0.4424
      vertex -0.0651712 -0.200578 0.4424
    endloop
  endfacet
  facet normal -0 0 1
    outer loop
      vertex -0.0897961 0.190827 0.4424
      vertex -0.0776367 -0.19609 0.4424
      vertex -0.0776367 0.19609 0.4424
    endloop
  endfacet
  facet normal 0 0 1
    outer loop
      vertex -0.0897961 0.190827 0.4424
      vertex -0.0897961 -0.190827 0.4424
      vertex -0.0776367 -0.19609 0.4424
    endloop
  endfacet
  facet normal -0 0 1
    outer loop
      vertex -0.101602 0.184813 0.4424
      vertex -0.0897961 -0.190827 0.4424
      vertex -0.0897961 0.190827 0.4424
    endloop
  endfacet
  facet normal 0 0 1
    outer loop
      vertex -0.101602 0.184813 0.4424
      vertex -0.101602 -0.184813 0.4424
      vertex -0.0897961 -0.190827 0.4424
    endloop
  endfacet
  facet normal -0 0 1
    outer loop
      vertex -0.113006 0.178068 0.4424
      vertex -0.101602 -0.184813 0.4424
      vertex -0.101602 0.184813 0.4424
    endloop
  endfacet
  facet normal 0 0 1
    outer loop
      vertex -0.113006 0.178068 0.4424
      vertex -0.113006 -0.178068 0.4424
      vertex -0.101602 -0.184813 0.4424
    endloop
  endfacet
  facet normal -0 0 1
    outer loop
      vertex -0.123963 0.170621 0.4424
      vertex -0.113006 -0.178068 0.4424
      vertex -0.113006 0.178068 0.4424
    endloop
  endfacet
  facet normal 0 0 1
    outer loop
      vertex -0.123963 0.170621 0.4424
      vertex -0.123963 -0.170621 0.4424
      vertex -0.113006 -0.178068 0.4424
    endloop
  endfacet
  facet normal -0 0 1
    outer loop
      vertex -0.134432 0.1625 0.4424
      vertex -0.123963 -0.170621 0.4424
      vertex -0.123963 0.170621 0.4424
    endloop
  endfacet
  facet normal 0 0 1
    outer loop
      vertex -0.134432 0.1625 0.4424
      vertex -0.134432 -0.1625 0.4424
      vertex -0.123963 -0.170621 0.4424
    endloop
  endfacet
  facet normal -0 0 1
    outer loop
      vertex -0.14437 0.153739 0.4424
      vertex -0.134432 -0.1625 0.4424
      vertex -0.134432 0.1625 0.4424
    endloop
  endfacet
  facet normal 0 0 1
    outer loop
      vertex -0.14437 0.153739 0.4424
      vertex -0.14437 -0.153739 0.4424
      vertex -0.134432 -0.1625 0.4424
    endloop
  endfacet
  facet normal -0 0 1
    outer loop
      vertex -0.153739 0.14437 0.4424
      vertex -0.14437 -0.153739 0.4424
      vertex -0.14437 0.153739 0.4424
    endloop
  endfacet
  facet normal 0 0 1
    outer loop
      vertex -0.153739 0.14437 0.4424
      vertex -0.153739 -0.14437 0.4424
      vertex -0.14437 -0.153739 0.4424
    endloop
  endfacet
  facet normal -0 0 1
    outer loop
      vertex -0.1625 0.134432 0.4424
      vertex -0.153739 -0.14437 0.4424
      vertex -0.153739 0.14437 0.4424
    endloop
  endfacet
  facet normal 0 0 1
    outer loop
      vertex -0.1625 0.134432 0.4424
      vertex -0.1625 -0.134432 0.4424
      vertex -0.153739 -0.14437 0.4424
    endloop
  endfacet
  facet normal -0 0 1
    outer loop
      vertex -0.170621 0.123963 0.4424
      vertex -0.1625 -0.134432 0.4424
      vertex -0.1625 0.134432 0.4424
    endloop
  endfacet
  facet normal 0 0 1
    outer loop
      vertex -0.170621 0.123963 0.4424
      vertex -0.170621 -0.123963 0.4424
      vertex -0.1625 -0.134432 0.4424
    endloop
  endfacet
  facet normal -0 0 1
    outer loop
      vertex -0.178068 0.113006 0.4424
      vertex -0.170621 -0.123963 0.4424
      vertex -0.170621 0.123963 0.4424
    endloop
  endfacet
  facet normal 0 0 1
    outer loop
      vertex -0.178068 0.113006 0.4424
      vertex -0.178068 -0.113006 0.4424
      vertex -0.170621 -0.123963 0.4424
    endloop
  endfacet
  facet normal -0 0 1
    outer loop
      vertex -0.184813 0.101602 0.4424
      vertex -0.178068 -0.113006 0.4424
      vertex -0.178068 0.113006 0.4424
    endloop
  endfacet
  facet normal 0 0 1
    outer loop
      vertex -0.184813 0.101602 0.4424
      vertex -0.184813 -0.101602 0.4424
      vertex -0.178068 -0.113006 0.4424
    endloop
  endfacet
  facet normal -0 0 1
    outer loop
      vertex -0.190827 0.0897961 0.4424
      vertex -0.184813 -0.101602 0.4424
      vertex -0.184813 0.101602 0.4424
    endloop
  endfacet
  facet normal 0 0 1
    outer loop
      vertex -0.190827 0.0897961 0.4424
      vertex -0.190827 -0.0897961 0.4424
      vertex -0.184813 -0.101602 0.4424
    endloop
  endfacet
  facet normal -0 0 1
    outer loop
      vertex -0.19609 0.0776367 0.4424
      vertex -0.190827 -0.0897961 0.4424
      vertex -0.190827 0.0897961 0.4424
    endloop
  endfacet
  facet normal 0 0 1
    outer loop
      vertex -0.19609 0.0776367 0.4424
      vertex -0.19609 -0.0776367 0.4424
      vertex -0.190827 -0.0897961 0.4424
    endloop
  endfacet
  facet normal -0 0 1
    outer loop
      vertex -0.200578 0.0651712 0.4424
      vertex -0.19609 -0.0776367 0.4424
      vertex -0.19609 0.0776367 0.4424
    endloop
  endfacet
  facet normal 0 0 1
    outer loop
      vertex -0.200578 0.0651712 0.4424
      vertex -0.200578 -0.0651712 0.4424
      vertex -0.19609 -0.0776367 0.4424
    endloop
  endfacet
  facet normal -0 0 1
    outer loop
      vertex -0.204274 0.0524483 0.4424
      vertex -0.200578 -0.0651712 0.4424
      vertex -0.200578 0.0651712 0.4424
    endloop
  endfacet
  facet normal 0 0 1
    outer loop
      vertex -0.204274 0.0524483 0.4424
      vertex -0.204274 -0.0524483 0.4424
      vertex -0.200578 -0.0651712 0.4424
    endloop
  endfacet
  facet normal -0 0 1
    outer loop
      vertex -0.207164 0.0395184 0.4424
      vertex -0.204274 -0.0524483 0.4424
      vertex -0.204274 0.0524483 0.4424
    endloop
  endfacet
  facet normal 0 0 1
    outer loop
      vertex -0.207164 0.0395184 0.4424
      vertex -0.207164 -0.0395184 0.4424
      vertex -0.204274 -0.0524483 0.4424
    endloop
  endfacet
  facet normal -0 0 1
    outer loop
      vertex -0.209236 0.026432 0.4424
      vertex -0.207164 -0.0395184 0.4424
      vertex -0.207164 0.0395184 0.4424
    endloop
  endfacet
  facet normal 0 0 1
    outer loop
      vertex -0.209236 0.026432 0.4424
      vertex -0.209236 -0.026432 0.4424
      vertex -0.207164 -0.0395184 0.4424
    endloop
  endfacet
  facet normal -0 0 1
    outer loop
      vertex -0.210484 0.0132418 0.4424
      vertex -0.209236 -0.026432 0.4424
      vertex -0.209236 0.026432 0.4424
    endloop
  endfacet
  facet normal 0 0 1
    outer loop
      vertex -0.210484 0.0132418 0.4424
      vertex -0.210484 -0.0132418 0.4424
      vertex -0.209236 -0.026432 0.4424
    endloop
  endfacet
  facet normal 0 -0 1
    outer loop
      vertex -0.210484 -0.0132418 0.4424
      vertex -0.210484 0.0132418 0.4424
      vertex -0.210899 0 0.4424
    endloop
  endfacet
  facet normal -0.995554 0.094195 0
    outer loop
      vertex -0.210484 0.0132418 0
      vertex -0.209236 0.026432 0.4424
      vertex -0.209236 0.026432 0
    endloop
  endfacet
  facet normal -0.995554 0.094195 0
    outer loop
      vertex -0.209236 0.026432 0.4424
      vertex -0.210484 0.0132418 0
      vertex -0.210484 0.0132418 0.4424
    endloop
  endfacet
  facet normal -0.940877 0.338748 0
    outer loop
      vertex -0.200578 0.0651712 0
      vertex -0.19609 0.0776367 0.4424
      vertex -0.19609 0.0776367 0
    endloop
  endfacet
  facet normal -0.940877 0.338748 0
    outer loop
      vertex -0.19609 0.0776367 0.4424
      vertex -0.200578 0.0651712 0
      vertex -0.200578 0.0651712 0.4424
    endloop
  endfacet
  facet normal -0.891049 0.453906 0
    outer loop
      vertex -0.190827 0.0897961 0
      vertex -0.184813 0.101602 0.4424
      vertex -0.184813 0.101602 0
    endloop
  endfacet
  facet normal -0.891049 0.453906 0
    outer loop
      vertex -0.184813 0.101602 0.4424
      vertex -0.190827 0.0897961 0
      vertex -0.190827 0.0897961 0.4424
    endloop
  endfacet
  facet normal -0.917723 0.397221 0
    outer loop
      vertex -0.19609 0.0776367 0
      vertex -0.190827 0.0897961 0.4424
      vertex -0.190827 0.0897961 0
    endloop
  endfacet
  facet normal -0.917723 0.397221 0
    outer loop
      vertex -0.190827 0.0897961 0.4424
      vertex -0.19609 0.0776367 0
      vertex -0.19609 0.0776367 0.4424
    endloop
  endfacet
  facet normal 0.612926 0.79014 -0
    outer loop
      vertex 0.134432 0.1625 0
      vertex 0.123963 0.170621 0.4424
      vertex 0.134432 0.1625 0.4424
    endloop
  endfacet
  facet normal 0.612926 0.79014 0
    outer loop
      vertex 0.123963 0.170621 0.4424
      vertex 0.134432 0.1625 0
      vertex 0.123963 0.170621 0
    endloop
  endfacet
  facet normal 0.987696 -0.156384 0
    outer loop
      vertex 0.207164 -0.0395184 0.4424
      vertex 0.209236 -0.026432 0
      vertex 0.209236 -0.026432 0.4424
    endloop
  endfacet
  facet normal 0.987696 -0.156384 0
    outer loop
      vertex 0.209236 -0.026432 0
      vertex 0.207164 -0.0395184 0.4424
      vertex 0.207164 -0.0395184 0
    endloop
  endfacet
  facet normal 0.995554 -0.094195 0
    outer loop
      vertex 0.209236 -0.026432 0.4424
      vertex 0.210484 -0.0132418 0
      vertex 0.210484 -0.0132418 0.4424
    endloop
  endfacet
  facet normal 0.995554 -0.094195 0
    outer loop
      vertex 0.210484 -0.0132418 0
      vertex 0.209236 -0.026432 0.4424
      vertex 0.209236 -0.026432 0
    endloop
  endfacet
  facet normal 0.999509 0.0313248 0
    outer loop
      vertex 0.210899 0 0.4424
      vertex 0.210484 0.0132418 0
      vertex 0.210484 0.0132418 0.4424
    endloop
  endfacet
  facet normal 0.999509 0.0313248 0
    outer loop
      vertex 0.210484 0.0132418 0
      vertex 0.210899 0 0.4424
      vertex 0.210899 0 0
    endloop
  endfacet
  facet normal 0.999509 -0.0313248 0
    outer loop
      vertex 0.210484 -0.0132418 0.4424
      vertex 0.210899 0 0
      vertex 0.210899 0 0.4424
    endloop
  endfacet
  facet normal 0.999509 -0.0313248 0
    outer loop
      vertex 0.210899 0 0
      vertex 0.210484 -0.0132418 0.4424
      vertex 0.210484 -0.0132418 0
    endloop
  endfacet
  facet normal 0.940877 -0.338748 0
    outer loop
      vertex 0.19609 -0.0776367 0.4424
      vertex 0.200578 -0.0651712 0
      vertex 0.200578 -0.0651712 0.4424
    endloop
  endfacet
  facet normal 0.940877 -0.338748 0
    outer loop
      vertex 0.200578 -0.0651712 0
      vertex 0.19609 -0.0776367 0.4424
      vertex 0.19609 -0.0776367 0
    endloop
  endfacet
  facet normal 0.860719 -0.50908 0
    outer loop
      vertex 0.178068 -0.113006 0.4424
      vertex 0.184813 -0.101602 0
      vertex 0.184813 -0.101602 0.4424
    endloop
  endfacet
  facet normal 0.860719 -0.50908 0
    outer loop
      vertex 0.184813 -0.101602 0
      vertex 0.178068 -0.113006 0.4424
      vertex 0.178068 -0.113006 0
    endloop
  endfacet
  facet normal 0.79014 -0.612926 0
    outer loop
      vertex 0.1625 -0.134432 0.4424
      vertex 0.170621 -0.123963 0
      vertex 0.170621 -0.123963 0.4424
    endloop
  endfacet
  facet normal 0.79014 -0.612926 0
    outer loop
      vertex 0.170621 -0.123963 0
      vertex 0.1625 -0.134432 0.4424
      vertex 0.1625 -0.134432 0
    endloop
  endfacet
  facet normal 0.750131 -0.66129 0
    outer loop
      vertex 0.153739 -0.14437 0.4424
      vertex 0.1625 -0.134432 0
      vertex 0.1625 -0.134432 0.4424
    endloop
  endfacet
  facet normal 0.750131 -0.66129 0
    outer loop
      vertex 0.1625 -0.134432 0
      vertex 0.153739 -0.14437 0.4424
      vertex 0.153739 -0.14437 0
    endloop
  endfacet
  facet normal 0.397221 -0.917723 0
    outer loop
      vertex 0.0776367 -0.19609 0
      vertex 0.0897961 -0.190827 0.4424
      vertex 0.0776367 -0.19609 0.4424
    endloop
  endfacet
  facet normal 0.397221 -0.917723 0
    outer loop
      vertex 0.0897961 -0.190827 0.4424
      vertex 0.0776367 -0.19609 0
      vertex 0.0897961 -0.190827 0
    endloop
  endfacet
  facet normal 0.278967 -0.960301 0
    outer loop
      vertex 0.0524483 -0.204274 0
      vertex 0.0651712 -0.200578 0.4424
      vertex 0.0524483 -0.204274 0.4424
    endloop
  endfacet
  facet normal 0.278967 -0.960301 0
    outer loop
      vertex 0.0651712 -0.200578 0.4424
      vertex 0.0524483 -0.204274 0
      vertex 0.0651712 -0.200578 0
    endloop
  endfacet
  facet normal -0.917723 -0.397221 0
    outer loop
      vertex -0.190827 -0.0897961 0
      vertex -0.19609 -0.0776367 0.4424
      vertex -0.19609 -0.0776367 0
    endloop
  endfacet
  facet normal -0.917723 -0.397221 0
    outer loop
      vertex -0.19609 -0.0776367 0.4424
      vertex -0.190827 -0.0897961 0
      vertex -0.190827 -0.0897961 0.4424
    endloop
  endfacet
  facet normal -0.960301 -0.278967 0
    outer loop
      vertex -0.200578 -0.0651712 0
      vertex -0.204274 -0.0524483 0.4424
      vertex -0.204274 -0.0524483 0
    endloop
  endfacet
  facet normal -0.960301 -0.278967 0
    outer loop
      vertex -0.204274 -0.0524483 0.4424
      vertex -0.200578 -0.0651712 0
      vertex -0.200578 -0.0651712 0.4424
    endloop
  endfacet
  facet normal -0.940877 -0.338748 0
    outer loop
      vertex -0.19609 -0.0776367 0
      vertex -0.200578 -0.0651712 0.4424
      vertex -0.200578 -0.0651712 0
    endloop
  endfacet
  facet normal -0.940877 -0.338748 0
    outer loop
      vertex -0.200578 -0.0651712 0.4424
      vertex -0.19609 -0.0776367 0
      vertex -0.19609 -0.0776367 0.4424
    endloop
  endfacet
  facet normal -0.218131 -0.97592 0
    outer loop
      vertex -0.0524483 -0.204274 0
      vertex -0.0395184 -0.207164 0.4424
      vertex -0.0524483 -0.204274 0.4424
    endloop
  endfacet
  facet normal -0.218131 -0.97592 -0
    outer loop
      vertex -0.0395184 -0.207164 0.4424
      vertex -0.0524483 -0.204274 0
      vertex -0.0395184 -0.207164 0
    endloop
  endfacet
  facet normal 0.156384 -0.987696 0
    outer loop
      vertex 0.026432 -0.209236 0
      vertex 0.0395184 -0.207164 0.4424
      vertex 0.026432 -0.209236 0.4424
    endloop
  endfacet
  facet normal 0.156384 -0.987696 0
    outer loop
      vertex 0.0395184 -0.207164 0.4424
      vertex 0.026432 -0.209236 0
      vertex 0.0395184 -0.207164 0
    endloop
  endfacet
  facet normal -0.995554 -0.094195 0
    outer loop
      vertex -0.209236 -0.026432 0
      vertex -0.210484 -0.0132418 0.4424
      vertex -0.210484 -0.0132418 0
    endloop
  endfacet
  facet normal -0.995554 -0.094195 0
    outer loop
      vertex -0.210484 -0.0132418 0.4424
      vertex -0.209236 -0.026432 0
      vertex -0.209236 -0.026432 0.4424
    endloop
  endfacet
  facet normal -0.987696 0.156384 0
    outer loop
      vertex -0.209236 0.026432 0
      vertex -0.207164 0.0395184 0.4424
      vertex -0.207164 0.0395184 0
    endloop
  endfacet
  facet normal -0.987696 0.156384 0
    outer loop
      vertex -0.207164 0.0395184 0.4424
      vertex -0.209236 0.026432 0
      vertex -0.209236 0.026432 0.4424
    endloop
  endfacet
  facet normal -0.79014 0.612926 0
    outer loop
      vertex -0.170621 0.123963 0
      vertex -0.1625 0.134432 0.4424
      vertex -0.1625 0.134432 0
    endloop
  endfacet
  facet normal -0.79014 0.612926 0
    outer loop
      vertex -0.1625 0.134432 0.4424
      vertex -0.170621 0.123963 0
      vertex -0.170621 0.123963 0.4424
    endloop
  endfacet
  facet normal -0.66129 0.750131 0
    outer loop
      vertex -0.134432 0.1625 0
      vertex -0.14437 0.153739 0.4424
      vertex -0.134432 0.1625 0.4424
    endloop
  endfacet
  facet normal -0.66129 0.750131 0
    outer loop
      vertex -0.14437 0.153739 0.4424
      vertex -0.134432 0.1625 0
      vertex -0.14437 0.153739 0
    endloop
  endfacet
  facet normal -0.338748 0.940877 0
    outer loop
      vertex -0.0651712 0.200578 0
      vertex -0.0776367 0.19609 0.4424
      vertex -0.0651712 0.200578 0.4424
    endloop
  endfacet
  facet normal -0.338748 0.940877 0
    outer loop
      vertex -0.0776367 0.19609 0.4424
      vertex -0.0651712 0.200578 0
      vertex -0.0776367 0.19609 0
    endloop
  endfacet
  facet normal -0.218131 0.97592 0
    outer loop
      vertex -0.0395184 0.207164 0
      vertex -0.0524483 0.204274 0.4424
      vertex -0.0395184 0.207164 0.4424
    endloop
  endfacet
  facet normal -0.218131 0.97592 0
    outer loop
      vertex -0.0524483 0.204274 0.4424
      vertex -0.0395184 0.207164 0
      vertex -0.0524483 0.204274 0
    endloop
  endfacet
  facet normal 0.0313248 0.999509 -0
    outer loop
      vertex 0.0132418 0.210484 0
      vertex 0 0.210899 0.4424
      vertex 0.0132418 0.210484 0.4424
    endloop
  endfacet
  facet normal 0.0313248 0.999509 0
    outer loop
      vertex 0 0.210899 0.4424
      vertex 0.0132418 0.210484 0
      vertex 0 0.210899 0
    endloop
  endfacet
  facet normal 0.278967 0.960301 -0
    outer loop
      vertex 0.0651712 0.200578 0
      vertex 0.0524483 0.204274 0.4424
      vertex 0.0651712 0.200578 0.4424
    endloop
  endfacet
  facet normal 0.278967 0.960301 0
    outer loop
      vertex 0.0524483 0.204274 0.4424
      vertex 0.0651712 0.200578 0
      vertex 0.0524483 0.204274 0
    endloop
  endfacet
  facet normal 0.66129 0.750131 -0
    outer loop
      vertex 0.14437 0.153739 0
      vertex 0.134432 0.1625 0.4424
      vertex 0.14437 0.153739 0.4424
    endloop
  endfacet
  facet normal 0.66129 0.750131 0
    outer loop
      vertex 0.134432 0.1625 0.4424
      vertex 0.14437 0.153739 0
      vertex 0.134432 0.1625 0
    endloop
  endfacet
  facet normal 0.707107 0.707107 0
    outer loop
      vertex 0.153739 0.14437 0.4424
      vertex 0.14437 0.153739 0
      vertex 0.14437 0.153739 0.4424
    endloop
  endfacet
  facet normal 0.707107 0.707107 0
    outer loop
      vertex 0.14437 0.153739 0
      vertex 0.153739 0.14437 0.4424
      vertex 0.153739 0.14437 0
    endloop
  endfacet
  facet normal 0.917723 0.397221 0
    outer loop
      vertex 0.19609 0.0776367 0.4424
      vertex 0.190827 0.0897961 0
      vertex 0.190827 0.0897961 0.4424
    endloop
  endfacet
  facet normal 0.917723 0.397221 0
    outer loop
      vertex 0.190827 0.0897961 0
      vertex 0.19609 0.0776367 0.4424
      vertex 0.19609 0.0776367 0
    endloop
  endfacet
  facet normal 0.707107 -0.707107 0
    outer loop
      vertex 0.14437 -0.153739 0.4424
      vertex 0.153739 -0.14437 0
      vertex 0.153739 -0.14437 0.4424
    endloop
  endfacet
  facet normal 0.707107 -0.707107 0
    outer loop
      vertex 0.153739 -0.14437 0
      vertex 0.14437 -0.153739 0.4424
      vertex 0.14437 -0.153739 0
    endloop
  endfacet
  facet normal 0.50908 -0.860719 0
    outer loop
      vertex 0.101602 -0.184813 0
      vertex 0.113006 -0.178068 0.4424
      vertex 0.101602 -0.184813 0.4424
    endloop
  endfacet
  facet normal 0.50908 -0.860719 0
    outer loop
      vertex 0.113006 -0.178068 0.4424
      vertex 0.101602 -0.184813 0
      vertex 0.113006 -0.178068 0
    endloop
  endfacet
  facet normal 0.338748 -0.940877 0
    outer loop
      vertex 0.0651712 -0.200578 0
      vertex 0.0776367 -0.19609 0.4424
      vertex 0.0651712 -0.200578 0.4424
    endloop
  endfacet
  facet normal 0.338748 -0.940877 0
    outer loop
      vertex 0.0776367 -0.19609 0.4424
      vertex 0.0651712 -0.200578 0
      vertex 0.0776367 -0.19609 0
    endloop
  endfacet
  facet normal -0.453906 -0.891049 0
    outer loop
      vertex -0.101602 -0.184813 0
      vertex -0.0897961 -0.190827 0.4424
      vertex -0.101602 -0.184813 0.4424
    endloop
  endfacet
  facet normal -0.453906 -0.891049 -0
    outer loop
      vertex -0.0897961 -0.190827 0.4424
      vertex -0.101602 -0.184813 0
      vertex -0.0897961 -0.190827 0
    endloop
  endfacet
  facet normal -0.50908 -0.860719 0
    outer loop
      vertex -0.113006 -0.178068 0
      vertex -0.101602 -0.184813 0.4424
      vertex -0.113006 -0.178068 0.4424
    endloop
  endfacet
  facet normal -0.50908 -0.860719 -0
    outer loop
      vertex -0.101602 -0.184813 0.4424
      vertex -0.113006 -0.178068 0
      vertex -0.101602 -0.184813 0
    endloop
  endfacet
  facet normal -0.612926 -0.79014 0
    outer loop
      vertex -0.134432 -0.1625 0
      vertex -0.123963 -0.170621 0.4424
      vertex -0.134432 -0.1625 0.4424
    endloop
  endfacet
  facet normal -0.612926 -0.79014 -0
    outer loop
      vertex -0.123963 -0.170621 0.4424
      vertex -0.134432 -0.1625 0
      vertex -0.123963 -0.170621 0
    endloop
  endfacet
  facet normal -0.891049 -0.453906 0
    outer loop
      vertex -0.184813 -0.101602 0
      vertex -0.190827 -0.0897961 0.4424
      vertex -0.190827 -0.0897961 0
    endloop
  endfacet
  facet normal -0.891049 -0.453906 0
    outer loop
      vertex -0.190827 -0.0897961 0.4424
      vertex -0.184813 -0.101602 0
      vertex -0.184813 -0.101602 0.4424
    endloop
  endfacet
  facet normal 0.094195 -0.995554 0
    outer loop
      vertex 0.0132418 -0.210484 0
      vertex 0.026432 -0.209236 0.4424
      vertex 0.0132418 -0.210484 0.4424
    endloop
  endfacet
  facet normal 0.094195 -0.995554 0
    outer loop
      vertex 0.026432 -0.209236 0.4424
      vertex 0.0132418 -0.210484 0
      vertex 0.026432 -0.209236 0
    endloop
  endfacet
  facet normal -0.0313248 -0.999509 0
    outer loop
      vertex -0.0132418 -0.210484 0
      vertex 0 -0.210899 0.4424
      vertex -0.0132418 -0.210484 0.4424
    endloop
  endfacet
  facet normal -0.0313248 -0.999509 -0
    outer loop
      vertex 0 -0.210899 0.4424
      vertex -0.0132418 -0.210484 0
      vertex 0 -0.210899 0
    endloop
  endfacet
  facet normal -0.156384 -0.987696 0
    outer loop
      vertex -0.0395184 -0.207164 0
      vertex -0.026432 -0.209236 0.4424
      vertex -0.0395184 -0.207164 0.4424
    endloop
  endfacet
  facet normal -0.156384 -0.987696 -0
    outer loop
      vertex -0.026432 -0.209236 0.4424
      vertex -0.0395184 -0.207164 0
      vertex -0.026432 -0.209236 0
    endloop
  endfacet
  facet normal -0.397221 -0.917723 0
    outer loop
      vertex -0.0897961 -0.190827 0
      vertex -0.0776367 -0.19609 0.4424
      vertex -0.0897961 -0.190827 0.4424
    endloop
  endfacet
  facet normal -0.397221 -0.917723 -0
    outer loop
      vertex -0.0776367 -0.19609 0.4424
      vertex -0.0897961 -0.190827 0
      vertex -0.0776367 -0.19609 0
    endloop
  endfacet
  facet normal -0.707107 0.707107 0
    outer loop
      vertex -0.153739 0.14437 0
      vertex -0.14437 0.153739 0.4424
      vertex -0.14437 0.153739 0
    endloop
  endfacet
  facet normal -0.707107 0.707107 0
    outer loop
      vertex -0.14437 0.153739 0.4424
      vertex -0.153739 0.14437 0
      vertex -0.153739 0.14437 0.4424
    endloop
  endfacet
  facet normal -0.827058 0.562116 0
    outer loop
      vertex -0.178068 0.113006 0
      vertex -0.170621 0.123963 0.4424
      vertex -0.170621 0.123963 0
    endloop
  endfacet
  facet normal -0.827058 0.562116 0
    outer loop
      vertex -0.170621 0.123963 0.4424
      vertex -0.178068 0.113006 0
      vertex -0.178068 0.113006 0.4424
    endloop
  endfacet
  facet normal -0.612926 0.79014 0
    outer loop
      vertex -0.123963 0.170621 0
      vertex -0.134432 0.1625 0.4424
      vertex -0.123963 0.170621 0.4424
    endloop
  endfacet
  facet normal -0.612926 0.79014 0
    outer loop
      vertex -0.134432 0.1625 0.4424
      vertex -0.123963 0.170621 0
      vertex -0.134432 0.1625 0
    endloop
  endfacet
  facet normal -0.50908 0.860719 0
    outer loop
      vertex -0.101602 0.184813 0
      vertex -0.113006 0.178068 0.4424
      vertex -0.101602 0.184813 0.4424
    endloop
  endfacet
  facet normal -0.50908 0.860719 0
    outer loop
      vertex -0.113006 0.178068 0.4424
      vertex -0.101602 0.184813 0
      vertex -0.113006 0.178068 0
    endloop
  endfacet
  facet normal 0.094195 0.995554 -0
    outer loop
      vertex 0.026432 0.209236 0
      vertex 0.0132418 0.210484 0.4424
      vertex 0.026432 0.209236 0.4424
    endloop
  endfacet
  facet normal 0.094195 0.995554 0
    outer loop
      vertex 0.0132418 0.210484 0.4424
      vertex 0.026432 0.209236 0
      vertex 0.0132418 0.210484 0
    endloop
  endfacet
  facet normal 0.156384 0.987696 -0
    outer loop
      vertex 0.0395184 0.207164 0
      vertex 0.026432 0.209236 0.4424
      vertex 0.0395184 0.207164 0.4424
    endloop
  endfacet
  facet normal 0.156384 0.987696 0
    outer loop
      vertex 0.026432 0.209236 0.4424
      vertex 0.0395184 0.207164 0
      vertex 0.026432 0.209236 0
    endloop
  endfacet
  facet normal 0.338772 0.940868 0
    outer loop
      vertex 0.0702991 0.198732 0.441345
      vertex 0.0776367 0.19609 0.4424
      vertex 0.0776367 0.19609 0.441345
    endloop
  endfacet
  facet normal 0.338748 0.940877 0.000193325
    outer loop
      vertex 0.0776367 0.19609 0.4424
      vertex 0.0702991 0.198732 0.441345
      vertex 0.0651712 0.200578 0.4424
    endloop
  endfacet
  facet normal 0.338712 0.94089 0
    outer loop
      vertex 0.0651712 0.200578 0
      vertex 0.0702991 0.198732 0.441345
      vertex 0.0702991 0.198732 0
    endloop
  endfacet
  facet normal 0.338712 0.94089 0
    outer loop
      vertex 0.0702991 0.198732 0.441345
      vertex 0.0651712 0.200578 0
      vertex 0.0651712 0.200578 0.4424
    endloop
  endfacet
  facet normal 0.218131 0.97592 -0
    outer loop
      vertex 0.0524483 0.204274 0
      vertex 0.0395184 0.207164 0.4424
      vertex 0.0524483 0.204274 0.4424
    endloop
  endfacet
  facet normal 0.218131 0.97592 0
    outer loop
      vertex 0.0395184 0.207164 0.4424
      vertex 0.0524483 0.204274 0
      vertex 0.0395184 0.207164 0
    endloop
  endfacet
  facet normal 0.562116 0.827058 -0
    outer loop
      vertex 0.123963 0.170621 0
      vertex 0.113006 0.178068 0.4424
      vertex 0.123963 0.170621 0.4424
    endloop
  endfacet
  facet normal 0.562116 0.827058 0
    outer loop
      vertex 0.113006 0.178068 0.4424
      vertex 0.123963 0.170621 0
      vertex 0.113006 0.178068 0
    endloop
  endfacet
  facet normal 0.891049 0.453906 0
    outer loop
      vertex 0.190827 0.0897961 0.4424
      vertex 0.184813 0.101602 0
      vertex 0.184813 0.101602 0.4424
    endloop
  endfacet
  facet normal 0.891049 0.453906 0
    outer loop
      vertex 0.184813 0.101602 0
      vertex 0.190827 0.0897961 0.4424
      vertex 0.190827 0.0897961 0
    endloop
  endfacet
  facet normal 0.940877 0.338748 0
    outer loop
      vertex 0.200578 0.0651712 0.4424
      vertex 0.19609 0.0776367 0
      vertex 0.19609 0.0776367 0.4424
    endloop
  endfacet
  facet normal 0.940877 0.338748 0
    outer loop
      vertex 0.19609 0.0776367 0
      vertex 0.200578 0.0651712 0.4424
      vertex 0.200578 0.0651712 0
    endloop
  endfacet
  facet normal 0.960301 0.278967 0
    outer loop
      vertex 0.204274 0.0524483 0.4424
      vertex 0.200578 0.0651712 0
      vertex 0.200578 0.0651712 0.4424
    endloop
  endfacet
  facet normal 0.960301 0.278967 0
    outer loop
      vertex 0.200578 0.0651712 0
      vertex 0.204274 0.0524483 0.4424
      vertex 0.204274 0.0524483 0
    endloop
  endfacet
  facet normal 0.66129 -0.750131 0
    outer loop
      vertex 0.134432 -0.1625 0
      vertex 0.14437 -0.153739 0.4424
      vertex 0.134432 -0.1625 0.4424
    endloop
  endfacet
  facet normal 0.66129 -0.750131 0
    outer loop
      vertex 0.14437 -0.153739 0.4424
      vertex 0.134432 -0.1625 0
      vertex 0.14437 -0.153739 0
    endloop
  endfacet
  facet normal 0.612926 -0.79014 0
    outer loop
      vertex 0.123963 -0.170621 0
      vertex 0.134432 -0.1625 0.4424
      vertex 0.123963 -0.170621 0.4424
    endloop
  endfacet
  facet normal 0.612926 -0.79014 0
    outer loop
      vertex 0.134432 -0.1625 0.4424
      vertex 0.123963 -0.170621 0
      vertex 0.134432 -0.1625 0
    endloop
  endfacet
  facet normal 0.453906 -0.891049 0
    outer loop
      vertex 0.0897961 -0.190827 0
      vertex 0.101602 -0.184813 0.4424
      vertex 0.0897961 -0.190827 0.4424
    endloop
  endfacet
  facet normal 0.453906 -0.891049 0
    outer loop
      vertex 0.101602 -0.184813 0.4424
      vertex 0.0897961 -0.190827 0
      vertex 0.101602 -0.184813 0
    endloop
  endfacet
  facet normal -0.750131 -0.66129 0
    outer loop
      vertex -0.153739 -0.14437 0
      vertex -0.1625 -0.134432 0.4424
      vertex -0.1625 -0.134432 0
    endloop
  endfacet
  facet normal -0.750131 -0.66129 0
    outer loop
      vertex -0.1625 -0.134432 0.4424
      vertex -0.153739 -0.14437 0
      vertex -0.153739 -0.14437 0.4424
    endloop
  endfacet
  facet normal -0.79014 -0.612926 0
    outer loop
      vertex -0.1625 -0.134432 0
      vertex -0.170621 -0.123963 0.4424
      vertex -0.170621 -0.123963 0
    endloop
  endfacet
  facet normal -0.79014 -0.612926 0
    outer loop
      vertex -0.170621 -0.123963 0.4424
      vertex -0.1625 -0.134432 0
      vertex -0.1625 -0.134432 0.4424
    endloop
  endfacet
  facet normal -0.827058 -0.562116 0
    outer loop
      vertex -0.170621 -0.123963 0
      vertex -0.178068 -0.113006 0.4424
      vertex -0.178068 -0.113006 0
    endloop
  endfacet
  facet normal -0.827058 -0.562116 0
    outer loop
      vertex -0.178068 -0.113006 0.4424
      vertex -0.170621 -0.123963 0
      vertex -0.170621 -0.123963 0.4424
    endloop
  endfacet
  facet normal -0.707107 -0.707107 0
    outer loop
      vertex -0.14437 -0.153739 0
      vertex -0.153739 -0.14437 0.4424
      vertex -0.153739 -0.14437 0
    endloop
  endfacet
  facet normal -0.707107 -0.707107 0
    outer loop
      vertex -0.153739 -0.14437 0.4424
      vertex -0.14437 -0.153739 0
      vertex -0.14437 -0.153739 0.4424
    endloop
  endfacet
  facet normal -0.66129 -0.750131 0
    outer loop
      vertex -0.14437 -0.153739 0
      vertex -0.134432 -0.1625 0.4424
      vertex -0.14437 -0.153739 0.4424
    endloop
  endfacet
  facet normal -0.66129 -0.750131 -0
    outer loop
      vertex -0.134432 -0.1625 0.4424
      vertex -0.14437 -0.153739 0
      vertex -0.134432 -0.1625 0
    endloop
  endfacet
  facet normal 0.0313248 -0.999509 0
    outer loop
      vertex 0 -0.210899 0
      vertex 0.0132418 -0.210484 0.4424
      vertex 0 -0.210899 0.4424
    endloop
  endfacet
  facet normal 0.0313248 -0.999509 0
    outer loop
      vertex 0.0132418 -0.210484 0.4424
      vertex 0 -0.210899 0
      vertex 0.0132418 -0.210484 0
    endloop
  endfacet
  facet normal -0.094195 -0.995554 0
    outer loop
      vertex -0.026432 -0.209236 0
      vertex -0.0132418 -0.210484 0.4424
      vertex -0.026432 -0.209236 0.4424
    endloop
  endfacet
  facet normal -0.094195 -0.995554 -0
    outer loop
      vertex -0.0132418 -0.210484 0.4424
      vertex -0.026432 -0.209236 0
      vertex -0.0132418 -0.210484 0
    endloop
  endfacet
  facet normal -0.278967 -0.960301 0
    outer loop
      vertex -0.0651712 -0.200578 0
      vertex -0.0524483 -0.204274 0.4424
      vertex -0.0651712 -0.200578 0.4424
    endloop
  endfacet
  facet normal -0.278967 -0.960301 -0
    outer loop
      vertex -0.0524483 -0.204274 0.4424
      vertex -0.0651712 -0.200578 0
      vertex -0.0524483 -0.204274 0
    endloop
  endfacet
  facet normal -0.338748 -0.940877 0
    outer loop
      vertex -0.0776367 -0.19609 0
      vertex -0.0651712 -0.200578 0.4424
      vertex -0.0776367 -0.19609 0.4424
    endloop
  endfacet
  facet normal -0.338748 -0.940877 -0
    outer loop
      vertex -0.0651712 -0.200578 0.4424
      vertex -0.0776367 -0.19609 0
      vertex -0.0651712 -0.200578 0
    endloop
  endfacet
  facet normal -0.750131 0.66129 0
    outer loop
      vertex -0.1625 0.134432 0
      vertex -0.153739 0.14437 0.4424
      vertex -0.153739 0.14437 0
    endloop
  endfacet
  facet normal -0.750131 0.66129 0
    outer loop
      vertex -0.153739 0.14437 0.4424
      vertex -0.1625 0.134432 0
      vertex -0.1625 0.134432 0.4424
    endloop
  endfacet
  facet normal -0.562116 0.827058 0
    outer loop
      vertex -0.113006 0.178068 0
      vertex -0.123963 0.170621 0.4424
      vertex -0.113006 0.178068 0.4424
    endloop
  endfacet
  facet normal -0.562116 0.827058 0
    outer loop
      vertex -0.123963 0.170621 0.4424
      vertex -0.113006 0.178068 0
      vertex -0.123963 0.170621 0
    endloop
  endfacet
  facet normal -0.453906 0.891049 0
    outer loop
      vertex -0.0897961 0.190827 0
      vertex -0.101602 0.184813 0.4424
      vertex -0.0897961 0.190827 0.4424
    endloop
  endfacet
  facet normal -0.453906 0.891049 0
    outer loop
      vertex -0.101602 0.184813 0.4424
      vertex -0.0897961 0.190827 0
      vertex -0.101602 0.184813 0
    endloop
  endfacet
  facet normal -0.397221 0.917723 0
    outer loop
      vertex -0.0776367 0.19609 0
      vertex -0.0897961 0.190827 0.4424
      vertex -0.0776367 0.19609 0.4424
    endloop
  endfacet
  facet normal -0.397221 0.917723 0
    outer loop
      vertex -0.0897961 0.190827 0.4424
      vertex -0.0776367 0.19609 0
      vertex -0.0897961 0.190827 0
    endloop
  endfacet
  facet normal -0.278967 0.960301 0
    outer loop
      vertex -0.0524483 0.204274 0
      vertex -0.0651712 0.200578 0.4424
      vertex -0.0524483 0.204274 0.4424
    endloop
  endfacet
  facet normal -0.278967 0.960301 0
    outer loop
      vertex -0.0651712 0.200578 0.4424
      vertex -0.0524483 0.204274 0
      vertex -0.0651712 0.200578 0
    endloop
  endfacet
  facet normal 0.397221 0.917723 -0
    outer loop
      vertex 0.0897961 0.190827 0.441345
      vertex 0.0776367 0.19609 0.4424
      vertex 0.0897961 0.190827 0.4424
    endloop
  endfacet
  facet normal 0.397221 0.917723 0
    outer loop
      vertex 0.0776367 0.19609 0.4424
      vertex 0.0897961 0.190827 0.441345
      vertex 0.0776367 0.19609 0.441345
    endloop
  endfacet
  facet normal 0.453906 0.891049 -0
    outer loop
      vertex 0.101602 0.184813 0.441345
      vertex 0.0897961 0.190827 0.4424
      vertex 0.101602 0.184813 0.4424
    endloop
  endfacet
  facet normal 0.453906 0.891049 0
    outer loop
      vertex 0.0897961 0.190827 0.4424
      vertex 0.101602 0.184813 0.441345
      vertex 0.0897961 0.190827 0.441345
    endloop
  endfacet
  facet normal 0.750131 0.66129 0
    outer loop
      vertex 0.1625 0.134432 0.4424
      vertex 0.153739 0.14437 0
      vertex 0.153739 0.14437 0.4424
    endloop
  endfacet
  facet normal 0.750131 0.66129 0
    outer loop
      vertex 0.153739 0.14437 0
      vertex 0.1625 0.134432 0.4424
      vertex 0.1625 0.134432 0
    endloop
  endfacet
  facet normal 0.79014 0.612926 0
    outer loop
      vertex 0.170621 0.123963 0.4424
      vertex 0.1625 0.134432 0
      vertex 0.1625 0.134432 0.4424
    endloop
  endfacet
  facet normal 0.79014 0.612926 0
    outer loop
      vertex 0.1625 0.134432 0
      vertex 0.170621 0.123963 0.4424
      vertex 0.170621 0.123963 0
    endloop
  endfacet
  facet normal -0.562116 -0.827058 0
    outer loop
      vertex -0.123963 -0.170621 0
      vertex -0.113006 -0.178068 0.4424
      vertex -0.123963 -0.170621 0.4424
    endloop
  endfacet
  facet normal -0.562116 -0.827058 -0
    outer loop
      vertex -0.113006 -0.178068 0.4424
      vertex -0.123963 -0.170621 0
      vertex -0.113006 -0.178068 0
    endloop
  endfacet
  facet normal -0.156384 0.987696 0
    outer loop
      vertex -0.026432 0.209236 0
      vertex -0.0395184 0.207164 0.4424
      vertex -0.026432 0.209236 0.4424
    endloop
  endfacet
  facet normal -0.156384 0.987696 0
    outer loop
      vertex -0.0395184 0.207164 0.4424
      vertex -0.026432 0.209236 0
      vertex -0.0395184 0.207164 0
    endloop
  endfacet
  facet normal -0.094195 0.995554 0
    outer loop
      vertex -0.0132418 0.210484 0
      vertex -0.026432 0.209236 0.4424
      vertex -0.0132418 0.210484 0.4424
    endloop
  endfacet
  facet normal -0.094195 0.995554 0
    outer loop
      vertex -0.026432 0.209236 0.4424
      vertex -0.0132418 0.210484 0
      vertex -0.026432 0.209236 0
    endloop
  endfacet
  facet normal -1 0 0
    outer loop
      vertex 0.0702991 0.198732 0
      vertex 0.0702991 0.246113 0.441345
      vertex 0.0702991 0.246113 0
    endloop
  endfacet
  facet normal -1 -0 0
    outer loop
      vertex 0.0702991 0.246113 0.441345
      vertex 0.0702991 0.198732 0
      vertex 0.0702991 0.198732 0.441345
    endloop
  endfacet
  facet normal 0 0 1
    outer loop
      vertex 0.111487 0.246113 0.441345
      vertex 0.101602 0.184813 0.441345
      vertex 0.111487 0.178966 0.441345
    endloop
  endfacet
  facet normal 0 0 1
    outer loop
      vertex 0.111487 0.246113 0.441345
      vertex 0.0897961 0.190827 0.441345
      vertex 0.101602 0.184813 0.441345
    endloop
  endfacet
  facet normal 0 0 1
    outer loop
      vertex 0.111487 0.246113 0.441345
      vertex 0.0776367 0.19609 0.441345
      vertex 0.0897961 0.190827 0.441345
    endloop
  endfacet
  facet normal -0 0 1
    outer loop
      vertex 0.0702991 0.246113 0.441345
      vertex 0.0776367 0.19609 0.441345
      vertex 0.111487 0.246113 0.441345
    endloop
  endfacet
  facet normal 0 0 1
    outer loop
      vertex 0.0776367 0.19609 0.441345
      vertex 0.0702991 0.246113 0.441345
      vertex 0.0702991 0.198732 0.441345
    endloop
  endfacet
  facet normal 1 -0 0
    outer loop
      vertex 0.111487 0.178966 0.441345
      vertex 0.111487 0.246113 0
      vertex 0.111487 0.246113 0.441345
    endloop
  endfacet
  facet normal 1 0 0
    outer loop
      vertex 0.111487 0.246113 0
      vertex 0.111487 0.178966 0.441345
      vertex 0.111487 0.178966 0
    endloop
  endfacet
  facet normal 0 1 -0
    outer loop
      vertex 0.111487 0.246113 0
      vertex 0.0702991 0.246113 0.441345
      vertex 0.111487 0.246113 0.441345
    endloop
  endfacet
  facet normal 0 1 0
    outer loop
      vertex 0.0702991 0.246113 0.441345
      vertex 0.111487 0.246113 0
      vertex 0.0702991 0.246113 0
    endloop
  endfacet
endsolid OpenSCAD_Model
