solid OpenSCAD_Model
  facet normal -0 0 1
    outer loop
      vertex -1.2 39.2 85.25
      vertex 0 27 85.25
      vertex 0 39.2 85.25
    endloop
  endfacet
  facet normal 0 0 1
    outer loop
      vertex 0 27 85.25
      vertex -1.2 39.2 85.25
      vertex -1.2 27 85.25
    endloop
  endfacet
  facet normal 0 0 -1
    outer loop
      vertex -1.2 27 6.75
      vertex 0 39.2 6.75
      vertex 0 27 6.75
    endloop
  endfacet
  facet normal -0 0 -1
    outer loop
      vertex 0 39.2 6.75
      vertex -1.2 27 6.75
      vertex -1.2 39.2 6.75
    endloop
  endfacet
  facet normal 0 -1 0
    outer loop
      vertex -1.2 27 6.75
      vertex 0 27 85.25
      vertex -1.2 27 85.25
    endloop
  endfacet
  facet normal 0 -1 -0
    outer loop
      vertex 0 27 85.25
      vertex -1.2 27 6.75
      vertex 0 27 6.75
    endloop
  endfacet
  facet normal 1 -0 0
    outer loop
      vertex 0 27 85.25
      vertex 0 39.2 6.75
      vertex 0 39.2 85.25
    endloop
  endfacet
  facet normal 1 0 0
    outer loop
      vertex 0 39.2 6.75
      vertex 0 27 85.25
      vertex 0 27 6.75
    endloop
  endfacet
  facet normal 0 1 -0
    outer loop
      vertex 0 39.2 6.75
      vertex -1.2 39.2 85.25
      vertex 0 39.2 85.25
    endloop
  endfacet
  facet normal 0 1 0
    outer loop
      vertex -1.2 39.2 85.25
      vertex 0 39.2 6.75
      vertex -1.2 39.2 6.75
    endloop
  endfacet
  facet normal -1 0 0
    outer loop
      vertex -1.2 27 6.75
      vertex -1.2 39.2 85.25
      vertex -1.2 39.2 6.75
    endloop
  endfacet
  facet normal -1 -0 0
    outer loop
      vertex -1.2 39.2 85.25
      vertex -1.2 27 6.75
      vertex -1.2 27 85.25
    endloop
  endfacet
endsolid OpenSCAD_Model
