solid OpenSCAD_Model
  facet normal -0 0 1
    outer loop
      vertex 210 59.2 85.25
      vertex 211.2 47 85.25
      vertex 211.2 59.2 85.25
    endloop
  endfacet
  facet normal 0 0 1
    outer loop
      vertex 211.2 47 85.25
      vertex 210 59.2 85.25
      vertex 210 47 85.25
    endloop
  endfacet
  facet normal 0 0 -1
    outer loop
      vertex 210 47 6.75
      vertex 211.2 59.2 6.75
      vertex 211.2 47 6.75
    endloop
  endfacet
  facet normal -0 0 -1
    outer loop
      vertex 211.2 59.2 6.75
      vertex 210 47 6.75
      vertex 210 59.2 6.75
    endloop
  endfacet
  facet normal 0 -1 0
    outer loop
      vertex 210 47 6.75
      vertex 211.2 47 85.25
      vertex 210 47 85.25
    endloop
  endfacet
  facet normal 0 -1 -0
    outer loop
      vertex 211.2 47 85.25
      vertex 210 47 6.75
      vertex 211.2 47 6.75
    endloop
  endfacet
  facet normal 1 -0 0
    outer loop
      vertex 211.2 47 85.25
      vertex 211.2 59.2 6.75
      vertex 211.2 59.2 85.25
    endloop
  endfacet
  facet normal 1 0 0
    outer loop
      vertex 211.2 59.2 6.75
      vertex 211.2 47 85.25
      vertex 211.2 47 6.75
    endloop
  endfacet
  facet normal 0 1 -0
    outer loop
      vertex 211.2 59.2 6.75
      vertex 210 59.2 85.25
      vertex 211.2 59.2 85.25
    endloop
  endfacet
  facet normal 0 1 0
    outer loop
      vertex 210 59.2 85.25
      vertex 211.2 59.2 6.75
      vertex 210 59.2 6.75
    endloop
  endfacet
  facet normal -1 0 0
    outer loop
      vertex 210 47 6.75
      vertex 210 59.2 85.25
      vertex 210 59.2 6.75
    endloop
  endfacet
  facet normal -1 -0 0
    outer loop
      vertex 210 59.2 85.25
      vertex 210 47 6.75
      vertex 210 47 85.25
    endloop
  endfacet
endsolid OpenSCAD_Model
