solid OpenSCAD_Model
  facet normal -0 0 1
    outer loop
      vertex 10 14.1 95.1
      vertex 200 10 95.1
      vertex 200 14.1 95.1
    endloop
  endfacet
  facet normal 0 0 1
    outer loop
      vertex 200 10 95.1
      vertex 10 14.1 95.1
      vertex 10 10 95.1
    endloop
  endfacet
  facet normal 0 0 -1
    outer loop
      vertex 10 10 93.5
      vertex 200 14.1 93.5
      vertex 200 10 93.5
    endloop
  endfacet
  facet normal -0 0 -1
    outer loop
      vertex 200 14.1 93.5
      vertex 10 10 93.5
      vertex 10 14.1 93.5
    endloop
  endfacet
  facet normal 0 -1 0
    outer loop
      vertex 10 10 93.5
      vertex 200 10 95.1
      vertex 10 10 95.1
    endloop
  endfacet
  facet normal 0 -1 -0
    outer loop
      vertex 200 10 95.1
      vertex 10 10 93.5
      vertex 200 10 93.5
    endloop
  endfacet
  facet normal 1 -0 0
    outer loop
      vertex 200 10 95.1
      vertex 200 14.1 93.5
      vertex 200 14.1 95.1
    endloop
  endfacet
  facet normal 1 0 0
    outer loop
      vertex 200 14.1 93.5
      vertex 200 10 95.1
      vertex 200 10 93.5
    endloop
  endfacet
  facet normal 0 1 -0
    outer loop
      vertex 200 14.1 93.5
      vertex 10 14.1 95.1
      vertex 200 14.1 95.1
    endloop
  endfacet
  facet normal 0 1 0
    outer loop
      vertex 10 14.1 95.1
      vertex 200 14.1 93.5
      vertex 10 14.1 93.5
    endloop
  endfacet
  facet normal -1 0 0
    outer loop
      vertex 10 10 93.5
      vertex 10 14.1 95.1
      vertex 10 14.1 93.5
    endloop
  endfacet
  facet normal -1 -0 0
    outer loop
      vertex 10 14.1 95.1
      vertex 10 10 93.5
      vertex 10 10 95.1
    endloop
  endfacet
endsolid OpenSCAD_Model
