solid OpenSCAD_Model
  facet normal 0 -0 1
    outer loop
      vertex 0.359391 0.525828 93.5
      vertex 209.886 0.925976 93.5
      vertex 0.286475 0.618322 93.5
    endloop
  endfacet
  facet normal 0 0 1
    outer loop
      vertex 208.85 57.9586 93.5
      vertex 209.886 0.925976 93.5
      vertex 208.964 57.9266 93.5
    endloop
  endfacet
  facet normal -0.678582 0.734525 0
    outer loop
      vertex 0.525828 57.6406 92
      vertex 0.439341 57.5607 93.5
      vertex 0.525828 57.6406 93.5
    endloop
  endfacet
  facet normal 0 -0 -1
    outer loop
      vertex 0.114182 57.074 92
      vertex 209.714 0.618322 92
      vertex 0.0734158 56.9635 92
    endloop
  endfacet
  facet normal 0.999099 -0.0424462 0
    outer loop
      vertex 210 1.5 93.5
      vertex 209.995 1.38231 92
      vertex 210 1.5 92
    endloop
  endfacet
  facet normal -0 -0 -1
    outer loop
      vertex 209.074 57.8858 92
      vertex 209.714 0.618322 92
      vertex 208.964 57.9266 92
    endloop
  endfacet
  facet normal 0.487764 -0.872975 0
    outer loop
      vertex 209.284 0.22104 93.5
      vertex 209.181 0.16349 92
      vertex 209.284 0.22104 92
    endloop
  endfacet
  facet normal 1 0 0
    outer loop
      vertex 210 56.5 93.5
      vertex 210 1.5 92
      vertex 210 56.5 92
    endloop
  endfacet
  facet normal 0 0 -1
    outer loop
      vertex 1.14983 0.0414457 92
      vertex 209.714 0.618322 92
      vertex 1.26535 0.0184679 92
    endloop
  endfacet
  facet normal -0 -0 -1
    outer loop
      vertex 209.181 57.8365 92
      vertex 209.714 0.618322 92
      vertex 209.074 57.8858 92
    endloop
  endfacet
  facet normal 0 0 -1
    outer loop
      vertex 0.359391 0.525828 92
      vertex 209.714 0.618322 92
      vertex 0.439341 0.439341 92
    endloop
  endfacet
  facet normal 0 -0 1
    outer loop
      vertex 1.26535 0.0184679 93.5
      vertex 209.886 0.925976 93.5
      vertex 1.14983 0.0414457 93.5
    endloop
  endfacet
  facet normal 0 0 -1
    outer loop
      vertex 208.85 0.0414457 92
      vertex 209.714 0.618322 92
      vertex 208.964 0.0734158 92
    endloop
  endfacet
  facet normal -0.0392625 -0.999229 -0
    outer loop
      vertex 1.5 0 93.5
      vertex 1.38231 0.00462437 93.5
      vertex 1.5 0 92
    endloop
  endfacet
  facet normal 0 0 1
    outer loop
      vertex 209.959 56.8502 93.5
      vertex 209.886 0.925976 93.5
      vertex 209.982 56.7346 93.5
    endloop
  endfacet
  facet normal 0.117974 0.993017 0
    outer loop
      vertex 208.735 57.9815 93.5
      vertex 208.735 57.9815 92
      vertex 208.618 57.9954 93.5
    endloop
  endfacet
  facet normal -0.93819 0.346122 0
    outer loop
      vertex 0.0734158 56.9635 93.5
      vertex 0.114182 57.074 92
      vertex 0.0734158 56.9635 92
    endloop
  endfacet
  facet normal -1 -0 0
    outer loop
      vertex 0 56.5 93.5
      vertex 0 1.5 92
      vertex 0 1.5 93.5
    endloop
  endfacet
  facet normal 0 1 0
    outer loop
      vertex 1.5 58 93.5
      vertex 208.5 58 92
      vertex 1.5 58 92
    endloop
  endfacet
  facet normal 0.980776 0.195137 0
    outer loop
      vertex 209.982 56.7346 93.5
      vertex 209.959 56.8502 92
      vertex 209.959 56.8502 93.5
    endloop
  endfacet
  facet normal 0 -0 -1
    outer loop
      vertex 0.0734158 56.9635 92
      vertex 209.714 0.618322 92
      vertex 0.0414457 56.8502 92
    endloop
  endfacet
  facet normal 0 -0 1
    outer loop
      vertex 208.964 0.0734158 93.5
      vertex 209.886 0.925976 93.5
      vertex 208.85 0.0414457 93.5
    endloop
  endfacet
  facet normal -0 0 -1
    outer loop
      vertex 209.959 56.8502 92
      vertex 209.714 0.618322 92
      vertex 209.927 56.9635 92
    endloop
  endfacet
  facet normal -0.962419 0.271568 0
    outer loop
      vertex 0.0734158 56.9635 93.5
      vertex 0.0414457 56.8502 92
      vertex 0.0414457 56.8502 93.5
    endloop
  endfacet
  facet normal -0.999229 -0.0392625 0
    outer loop
      vertex 0.00462437 1.38231 92
      vertex 0.00462437 1.38231 93.5
      vertex 0 1.5 92
    endloop
  endfacet
  facet normal 1 -0 0
    outer loop
      vertex 210 1.5 93.5
      vertex 210 1.5 92
      vertex 210 56.5 93.5
    endloop
  endfacet
  facet normal 0.117501 -0.993073 0
    outer loop
      vertex 208.735 0.0184679 93.5
      vertex 208.618 0.00462437 93.5
      vertex 208.735 0.0184679 92
    endloop
  endfacet
  facet normal 0 0 -1
    outer loop
      vertex 209.561 0.439341 92
      vertex 209.714 0.618322 92
      vertex 209.641 0.525828 92
    endloop
  endfacet
  facet normal -1 0 0
    outer loop
      vertex 0 56.5 92
      vertex 0 1.5 92
      vertex 0 56.5 93.5
    endloop
  endfacet
  facet normal -0 0 -1
    outer loop
      vertex 210 1.5 92
      vertex 209.714 0.618322 92
      vertex 210 56.5 92
    endloop
  endfacet
  facet normal 0 0 1
    outer loop
      vertex 209.982 56.7346 93.5
      vertex 209.886 0.925976 93.5
      vertex 209.995 56.6177 93.5
    endloop
  endfacet
  facet normal 0 0 -1
    outer loop
      vertex 0.114182 0.925976 92
      vertex 209.714 0.618322 92
      vertex 0.16349 0.819015 92
    endloop
  endfacet
  facet normal -0.831469 -0.555572 0
    outer loop
      vertex 0.286475 0.618322 92
      vertex 0.286475 0.618322 93.5
      vertex 0.22104 0.716252 92
    endloop
  endfacet
  facet normal 0 0 -1
    outer loop
      vertex 0.0414457 1.14983 92
      vertex 209.714 0.618322 92
      vertex 0.0734158 1.03648 92
    endloop
  endfacet
  facet normal -0.555572 -0.831469 -0
    outer loop
      vertex 0.618322 0.286475 93.5
      vertex 0.618322 0.286475 92
      vertex 0.716252 0.22104 93.5
    endloop
  endfacet
  facet normal 0.270022 -0.962854 0
    outer loop
      vertex 208.85 0.0414457 92
      vertex 208.964 0.0734158 92
      vertex 208.85 0.0414457 93.5
    endloop
  endfacet
  facet normal -0.271457 -0.962451 0
    outer loop
      vertex 1.14983 0.0414457 92
      vertex 1.03648 0.0734158 93.5
      vertex 1.03648 0.0734158 92
    endloop
  endfacet
  facet normal -0.117541 -0.993068 0
    outer loop
      vertex 1.26535 0.0184679 92
      vertex 1.38231 0.00462437 93.5
      vertex 1.26535 0.0184679 93.5
    endloop
  endfacet
  facet normal -0 0 1
    outer loop
      vertex 1.03648 57.9266 93.5
      vertex 209.886 0.925976 93.5
      vertex 1.14983 57.9586 93.5
    endloop
  endfacet
  facet normal -0.962419 0.271568 0
    outer loop
      vertex 0.0734158 56.9635 92
      vertex 0.0414457 56.8502 92
      vertex 0.0734158 56.9635 93.5
    endloop
  endfacet
  facet normal 0.418466 0.908232 0
    outer loop
      vertex 209.074 57.8858 93.5
      vertex 209.181 57.8365 93.5
      vertex 209.074 57.8858 92
    endloop
  endfacet
  facet normal 0.195934 -0.980617 0
    outer loop
      vertex 208.85 0.0414457 92
      vertex 208.735 0.0184679 93.5
      vertex 208.735 0.0184679 92
    endloop
  endfacet
  facet normal 0 -0 -1
    outer loop
      vertex 0.286475 57.3817 92
      vertex 209.714 0.618322 92
      vertex 0.22104 57.2837 92
    endloop
  endfacet
  facet normal 0 -0 1
    outer loop
      vertex 209.074 0.114182 93.5
      vertex 209.886 0.925976 93.5
      vertex 208.964 0.0734158 93.5
    endloop
  endfacet
  facet normal 0.195934 -0.980617 0
    outer loop
      vertex 208.85 0.0414457 93.5
      vertex 208.735 0.0184679 93.5
      vertex 208.85 0.0414457 92
    endloop
  endfacet
  facet normal 0 -0 -1
    outer loop
      vertex 0.925976 57.8858 92
      vertex 209.714 0.618322 92
      vertex 0.819015 57.8365 92
    endloop
  endfacet
  facet normal 0.98075 -0.195267 0
    outer loop
      vertex 209.982 1.26535 92
      vertex 209.959 1.14983 93.5
      vertex 209.959 1.14983 92
    endloop
  endfacet
  facet normal 0 0 -1
    outer loop
      vertex 208.964 0.0734158 92
      vertex 209.714 0.618322 92
      vertex 209.074 0.114182 92
    endloop
  endfacet
  facet normal -0 -0 -1
    outer loop
      vertex 208.5 58 92
      vertex 209.714 0.618322 92
      vertex 1.5 58 92
    endloop
  endfacet
  facet normal -0.980786 -0.195086 0
    outer loop
      vertex 0.0184679 1.26535 92
      vertex 0.0414457 1.14983 92
      vertex 0.0184679 1.26535 93.5
    endloop
  endfacet
  facet normal 0 0 1
    outer loop
      vertex 209.561 57.5607 93.5
      vertex 209.886 0.925976 93.5
      vertex 209.641 57.4742 93.5
    endloop
  endfacet
  facet normal 0.418466 0.908232 0
    outer loop
      vertex 209.074 57.8858 92
      vertex 209.181 57.8365 93.5
      vertex 209.181 57.8365 92
    endloop
  endfacet
  facet normal 0.870866 -0.491521 0
    outer loop
      vertex 209.837 0.819015 92
      vertex 209.837 0.819015 93.5
      vertex 209.779 0.716252 92
    endloop
  endfacet
  facet normal 0.999099 -0.0424462 0
    outer loop
      vertex 209.995 1.38231 93.5
      vertex 209.995 1.38231 92
      vertex 210 1.5 93.5
    endloop
  endfacet
  facet normal 0 -0 1
    outer loop
      vertex 0.525828 0.359391 93.5
      vertex 209.886 0.925976 93.5
      vertex 0.439341 0.439341 93.5
    endloop
  endfacet
  facet normal 0 -0 1
    outer loop
      vertex 0.22104 0.716252 93.5
      vertex 209.886 0.925976 93.5
      vertex 0.16349 0.819015 93.5
    endloop
  endfacet
  facet normal 0.734101 -0.67904 0
    outer loop
      vertex 209.561 0.439341 93.5
      vertex 209.561 0.439341 92
      vertex 209.641 0.525828 93.5
    endloop
  endfacet
  facet normal -0.34611 -0.938194 0
    outer loop
      vertex 1.03648 0.0734158 92
      vertex 1.03648 0.0734158 93.5
      vertex 0.925976 0.114182 92
    endloop
  endfacet
  facet normal 0.117974 0.993017 0
    outer loop
      vertex 208.618 57.9954 93.5
      vertex 208.735 57.9815 92
      vertex 208.618 57.9954 92
    endloop
  endfacet
  facet normal 0.676644 -0.73631 0
    outer loop
      vertex 209.474 0.359391 93.5
      vertex 209.561 0.439341 92
      vertex 209.561 0.439341 93.5
    endloop
  endfacet
  facet normal 0.909141 -0.416488 0
    outer loop
      vertex 209.886 0.925976 92
      vertex 209.886 0.925976 93.5
      vertex 209.837 0.819015 92
    endloop
  endfacet
  facet normal 0 -0 1
    outer loop
      vertex 208.735 0.0184679 93.5
      vertex 209.886 0.925976 93.5
      vertex 208.618 0.00462437 93.5
    endloop
  endfacet
  facet normal 0.0389535 0.999241 0
    outer loop
      vertex 208.5 58 92
      vertex 208.618 57.9954 93.5
      vertex 208.618 57.9954 92
    endloop
  endfacet
  facet normal 0.0389535 0.999241 0
    outer loop
      vertex 208.5 58 93.5
      vertex 208.618 57.9954 93.5
      vertex 208.5 58 92
    endloop
  endfacet
  facet normal 0 -0 1
    outer loop
      vertex 0.286475 0.618322 93.5
      vertex 209.886 0.925976 93.5
      vertex 0.22104 0.716252 93.5
    endloop
  endfacet
  facet normal 0 0 -1
    outer loop
      vertex 1.38231 0.00462437 92
      vertex 209.714 0.618322 92
      vertex 1.5 0 92
    endloop
  endfacet
  facet normal 0.99388 -0.110469 0
    outer loop
      vertex 209.982 1.26535 92
      vertex 209.995 1.38231 92
      vertex 209.982 1.26535 93.5
    endloop
  endfacet
  facet normal -0.0392625 -0.999229 0
    outer loop
      vertex 1.5 0 92
      vertex 1.38231 0.00462437 93.5
      vertex 1.38231 0.00462437 92
    endloop
  endfacet
  facet normal 0 1 0
    outer loop
      vertex 208.5 58 93.5
      vertex 208.5 58 92
      vertex 1.5 58 93.5
    endloop
  endfacet
  facet normal 0 0 1
    outer loop
      vertex 210 56.5 93.5
      vertex 209.886 0.925976 93.5
      vertex 210 1.5 93.5
    endloop
  endfacet
  facet normal -0.734313 -0.678811 0
    outer loop
      vertex 0.359391 0.525828 92
      vertex 0.439341 0.439341 93.5
      vertex 0.359391 0.525828 93.5
    endloop
  endfacet
  facet normal -0.872496 -0.488621 0
    outer loop
      vertex 0.16349 0.819015 93.5
      vertex 0.22104 0.716252 92
      vertex 0.22104 0.716252 93.5
    endloop
  endfacet
  facet normal 0 -1 0
    outer loop
      vertex 208.5 0 92
      vertex 1.5 0 93.5
      vertex 1.5 0 92
    endloop
  endfacet
  facet normal 0 -0 1
    outer loop
      vertex 0.925976 0.114182 93.5
      vertex 209.886 0.925976 93.5
      vertex 0.819015 0.16349 93.5
    endloop
  endfacet
  facet normal 0.195296 0.980744 0
    outer loop
      vertex 208.85 57.9586 93.5
      vertex 208.735 57.9815 92
      vertex 208.735 57.9815 93.5
    endloop
  endfacet
  facet normal 0.195296 0.980744 -0
    outer loop
      vertex 208.85 57.9586 92
      vertex 208.735 57.9815 92
      vertex 208.85 57.9586 93.5
    endloop
  endfacet
  facet normal -0.908149 -0.418648 -0
    outer loop
      vertex 0.16349 0.819015 93.5
      vertex 0.114182 0.925976 93.5
      vertex 0.16349 0.819015 92
    endloop
  endfacet
  facet normal 0.937544 0.347867 -0
    outer loop
      vertex 209.927 56.9635 92
      vertex 209.886 57.074 92
      vertex 209.927 56.9635 93.5
    endloop
  endfacet
  facet normal -0.346363 0.938101 0
    outer loop
      vertex 0.925976 57.8858 93.5
      vertex 1.03648 57.9266 92
      vertex 0.925976 57.8858 92
    endloop
  endfacet
  facet normal 0 -0 -1
    outer loop
      vertex 0.618322 57.7135 92
      vertex 209.714 0.618322 92
      vertex 0.525828 57.6406 92
    endloop
  endfacet
  facet normal -0.938194 -0.34611 0
    outer loop
      vertex 0.114182 0.925976 92
      vertex 0.114182 0.925976 93.5
      vertex 0.0734158 1.03648 92
    endloop
  endfacet
  facet normal -0.488621 -0.872496 0
    outer loop
      vertex 0.819015 0.16349 92
      vertex 0.819015 0.16349 93.5
      vertex 0.716252 0.22104 92
    endloop
  endfacet
  facet normal 0.909199 0.416362 0
    outer loop
      vertex 209.886 57.074 93.5
      vertex 209.886 57.074 92
      vertex 209.837 57.181 93.5
    endloop
  endfacet
  facet normal 0 -0 1
    outer loop
      vertex 208.85 0.0414457 93.5
      vertex 209.886 0.925976 93.5
      vertex 208.735 0.0184679 93.5
    endloop
  endfacet
  facet normal -0.734313 -0.678811 0
    outer loop
      vertex 0.439341 0.439341 92
      vertex 0.439341 0.439341 93.5
      vertex 0.359391 0.525828 92
    endloop
  endfacet
  facet normal 0 0 1
    outer loop
      vertex 209.474 57.6406 93.5
      vertex 209.886 0.925976 93.5
      vertex 209.561 57.5607 93.5
    endloop
  endfacet
  facet normal -0 -1 -0
    outer loop
      vertex 208.5 0 93.5
      vertex 1.5 0 93.5
      vertex 208.5 0 92
    endloop
  endfacet
  facet normal 0.993873 0.110525 0
    outer loop
      vertex 209.982 56.7346 93.5
      vertex 209.995 56.6177 93.5
      vertex 209.982 56.7346 92
    endloop
  endfacet
  facet normal -0 0 1
    outer loop
      vertex 0.16349 57.181 93.5
      vertex 209.886 0.925976 93.5
      vertex 0.22104 57.2837 93.5
    endloop
  endfacet
  facet normal 0 -0 -1
    outer loop
      vertex 0.359391 57.4742 92
      vertex 209.714 0.618322 92
      vertex 0.286475 57.3817 92
    endloop
  endfacet
  facet normal -0.555953 0.831214 0
    outer loop
      vertex 0.716252 57.779 92
      vertex 0.618322 57.7135 93.5
      vertex 0.716252 57.779 93.5
    endloop
  endfacet
  facet normal 0 0 -1
    outer loop
      vertex 1.26535 0.0184679 92
      vertex 209.714 0.618322 92
      vertex 1.38231 0.00462437 92
    endloop
  endfacet
  facet normal 0.621052 0.783769 0
    outer loop
      vertex 209.474 57.6406 93.5
      vertex 209.382 57.7135 92
      vertex 209.382 57.7135 93.5
    endloop
  endfacet
  facet normal -0 0 1
    outer loop
      vertex 0.716252 57.779 93.5
      vertex 209.886 0.925976 93.5
      vertex 0.819015 57.8365 93.5
    endloop
  endfacet
  facet normal 0.833356 0.552736 -0
    outer loop
      vertex 209.714 57.3817 92
      vertex 209.714 57.3817 93.5
      vertex 209.779 57.2837 92
    endloop
  endfacet
  facet normal -0.34611 -0.938194 0
    outer loop
      vertex 0.925976 0.114182 92
      vertex 1.03648 0.0734158 93.5
      vertex 0.925976 0.114182 93.5
    endloop
  endfacet
  facet normal -0 -0 -1
    outer loop
      vertex 208.618 57.9954 92
      vertex 209.714 0.618322 92
      vertex 208.5 58 92
    endloop
  endfacet
  facet normal 0.833356 0.552736 -0
    outer loop
      vertex 209.779 57.2837 92
      vertex 209.714 57.3817 93.5
      vertex 209.779 57.2837 93.5
    endloop
  endfacet
  facet normal -0.118014 0.993012 0
    outer loop
      vertex 1.38231 57.9954 93.5
      vertex 1.38231 57.9954 92
      vertex 1.26535 57.9815 93.5
    endloop
  endfacet
  facet normal 0.909199 0.416362 0
    outer loop
      vertex 209.837 57.181 93.5
      vertex 209.886 57.074 92
      vertex 209.837 57.181 92
    endloop
  endfacet
  facet normal -0.418648 -0.908149 0
    outer loop
      vertex 0.819015 0.16349 92
      vertex 0.925976 0.114182 92
      vertex 0.819015 0.16349 93.5
    endloop
  endfacet
  facet normal 0.734152 0.678985 -0
    outer loop
      vertex 209.641 57.4742 92
      vertex 209.561 57.5607 93.5
      vertex 209.641 57.4742 93.5
    endloop
  endfacet
  facet normal 0 0 -1
    outer loop
      vertex 1.5 0 92
      vertex 209.714 0.618322 92
      vertex 208.5 0 92
    endloop
  endfacet
  facet normal 0 -0 -1
    outer loop
      vertex 0.0184679 56.7346 92
      vertex 209.714 0.618322 92
      vertex 0.00462437 56.6177 92
    endloop
  endfacet
  facet normal -0.980812 0.194956 0
    outer loop
      vertex 0.0184679 56.7346 93.5
      vertex 0.0414457 56.8502 92
      vertex 0.0184679 56.7346 92
    endloop
  endfacet
  facet normal -0.785319 -0.619092 -0
    outer loop
      vertex 0.359391 0.525828 93.5
      vertex 0.286475 0.618322 93.5
      vertex 0.359391 0.525828 92
    endloop
  endfacet
  facet normal -0.619008 0.785385 0
    outer loop
      vertex 0.618322 57.7135 92
      vertex 0.525828 57.6406 93.5
      vertex 0.618322 57.7135 93.5
    endloop
  endfacet
  facet normal -0 0 -1
    outer loop
      vertex 209.886 57.074 92
      vertex 209.714 0.618322 92
      vertex 209.837 57.181 92
    endloop
  endfacet
  facet normal -0.619092 -0.785319 0
    outer loop
      vertex 0.525828 0.359391 93.5
      vertex 0.618322 0.286475 92
      vertex 0.618322 0.286475 93.5
    endloop
  endfacet
  facet normal -0.872368 0.488849 0
    outer loop
      vertex 0.22104 57.2837 92
      vertex 0.16349 57.181 92
      vertex 0.22104 57.2837 93.5
    endloop
  endfacet
  facet normal 0.270256 0.962788 0
    outer loop
      vertex 208.85 57.9586 93.5
      vertex 208.964 57.9266 93.5
      vertex 208.85 57.9586 92
    endloop
  endfacet
  facet normal -0.488621 -0.872496 0
    outer loop
      vertex 0.716252 0.22104 92
      vertex 0.819015 0.16349 93.5
      vertex 0.716252 0.22104 93.5
    endloop
  endfacet
  facet normal -0 0 1
    outer loop
      vertex 1.38231 57.9954 93.5
      vertex 209.886 0.925976 93.5
      vertex 1.5 58 93.5
    endloop
  endfacet
  facet normal 0.676414 0.736521 0
    outer loop
      vertex 209.474 57.6406 93.5
      vertex 209.561 57.5607 93.5
      vertex 209.474 57.6406 92
    endloop
  endfacet
  facet normal -0.980786 -0.195086 0
    outer loop
      vertex 0.0184679 1.26535 93.5
      vertex 0.0414457 1.14983 92
      vertex 0.0414457 1.14983 93.5
    endloop
  endfacet
  facet normal -0 0 1
    outer loop
      vertex 0.618322 57.7135 93.5
      vertex 209.886 0.925976 93.5
      vertex 0.716252 57.779 93.5
    endloop
  endfacet
  facet normal 0.555679 0.831397 0
    outer loop
      vertex 209.382 57.7135 93.5
      vertex 209.382 57.7135 92
      vertex 209.284 57.779 93.5
    endloop
  endfacet
  facet normal 0.0391595 -0.999233 0
    outer loop
      vertex 208.5 0 92
      vertex 208.618 0.00462437 93.5
      vertex 208.5 0 93.5
    endloop
  endfacet
  facet normal -0.19445 0.980912 0
    outer loop
      vertex 1.26535 57.9815 92
      vertex 1.14983 57.9586 93.5
      vertex 1.26535 57.9815 93.5
    endloop
  endfacet
  facet normal 0.784991 0.619507 0
    outer loop
      vertex 209.641 57.4742 92
      vertex 209.714 57.3817 93.5
      vertex 209.714 57.3817 92
    endloop
  endfacet
  facet normal 0.999099 0.0424426 -0
    outer loop
      vertex 209.995 56.6177 92
      vertex 209.995 56.6177 93.5
      vertex 210 56.5 92
    endloop
  endfacet
  facet normal 0.993873 0.110525 0
    outer loop
      vertex 209.982 56.7346 92
      vertex 209.995 56.6177 93.5
      vertex 209.995 56.6177 92
    endloop
  endfacet
  facet normal -0.872496 -0.488621 0
    outer loop
      vertex 0.16349 0.819015 92
      vertex 0.22104 0.716252 92
      vertex 0.16349 0.819015 93.5
    endloop
  endfacet
  facet normal -0 0 1
    outer loop
      vertex 0.0184679 56.7346 93.5
      vertex 209.886 0.925976 93.5
      vertex 0.0414457 56.8502 93.5
    endloop
  endfacet
  facet normal 0.347758 0.937584 -0
    outer loop
      vertex 208.964 57.9266 92
      vertex 208.964 57.9266 93.5
      vertex 209.074 57.8858 92
    endloop
  endfacet
  facet normal 0.270256 0.962788 0
    outer loop
      vertex 208.85 57.9586 92
      vertex 208.964 57.9266 93.5
      vertex 208.964 57.9266 92
    endloop
  endfacet
  facet normal -0 -0 -1
    outer loop
      vertex 209.474 57.6406 92
      vertex 209.714 0.618322 92
      vertex 209.382 57.7135 92
    endloop
  endfacet
  facet normal 0 0 -1
    outer loop
      vertex 0.22104 0.716252 92
      vertex 209.714 0.618322 92
      vertex 0.286475 0.618322 92
    endloop
  endfacet
  facet normal -0.0390559 0.999237 0
    outer loop
      vertex 1.5 58 93.5
      vertex 1.38231 57.9954 92
      vertex 1.38231 57.9954 93.5
    endloop
  endfacet
  facet normal -0.118014 0.993012 0
    outer loop
      vertex 1.26535 57.9815 93.5
      vertex 1.38231 57.9954 92
      vertex 1.26535 57.9815 92
    endloop
  endfacet
  facet normal -0 -0 1
    outer loop
      vertex 0.0734158 1.03648 93.5
      vertex 209.886 0.925976 93.5
      vertex 0.0414457 1.14983 93.5
    endloop
  endfacet
  facet normal -0.785338 0.619067 0
    outer loop
      vertex 0.359391 57.4742 92
      vertex 0.286475 57.3817 92
      vertex 0.359391 57.4742 93.5
    endloop
  endfacet
  facet normal 0 -0 1
    outer loop
      vertex 1.14983 0.0414457 93.5
      vertex 209.886 0.925976 93.5
      vertex 1.03648 0.0734158 93.5
    endloop
  endfacet
  facet normal -0.908149 -0.418648 0
    outer loop
      vertex 0.16349 0.819015 92
      vertex 0.114182 0.925976 93.5
      vertex 0.114182 0.925976 92
    endloop
  endfacet
  facet normal -0.831652 0.555297 0
    outer loop
      vertex 0.22104 57.2837 93.5
      vertex 0.286475 57.3817 92
      vertex 0.22104 57.2837 92
    endloop
  endfacet
  facet normal 0.418522 -0.908207 0
    outer loop
      vertex 209.074 0.114182 93.5
      vertex 209.181 0.16349 92
      vertex 209.181 0.16349 93.5
    endloop
  endfacet
  facet normal 0.621052 0.783769 -0
    outer loop
      vertex 209.474 57.6406 92
      vertex 209.382 57.7135 92
      vertex 209.474 57.6406 93.5
    endloop
  endfacet
  facet normal -0 -0 -1
    outer loop
      vertex 209.382 57.7135 92
      vertex 209.714 0.618322 92
      vertex 209.284 57.779 92
    endloop
  endfacet
  facet normal -0 0 1
    outer loop
      vertex 0 56.5 93.5
      vertex 209.886 0.925976 93.5
      vertex 0.00462437 56.6177 93.5
    endloop
  endfacet
  facet normal 0.676414 0.736521 0
    outer loop
      vertex 209.474 57.6406 92
      vertex 209.561 57.5607 93.5
      vertex 209.561 57.5607 92
    endloop
  endfacet
  facet normal 0 -0 -1
    outer loop
      vertex 0.0414457 56.8502 92
      vertex 209.714 0.618322 92
      vertex 0.0184679 56.7346 92
    endloop
  endfacet
  facet normal -0.908207 0.418522 0
    outer loop
      vertex 0.16349 57.181 92
      vertex 0.114182 57.074 92
      vertex 0.16349 57.181 93.5
    endloop
  endfacet
  facet normal -0 -0 -1
    outer loop
      vertex 209.641 57.4742 92
      vertex 209.714 0.618322 92
      vertex 209.561 57.5607 92
    endloop
  endfacet
  facet normal -0.418648 -0.908149 0
    outer loop
      vertex 0.819015 0.16349 93.5
      vertex 0.925976 0.114182 92
      vertex 0.925976 0.114182 93.5
    endloop
  endfacet
  facet normal 0 0 1
    outer loop
      vertex 209.714 57.3817 93.5
      vertex 209.886 0.925976 93.5
      vertex 209.779 57.2837 93.5
    endloop
  endfacet
  facet normal -0.872368 0.488849 0
    outer loop
      vertex 0.22104 57.2837 93.5
      vertex 0.16349 57.181 92
      vertex 0.16349 57.181 93.5
    endloop
  endfacet
  facet normal 0 0 -1
    outer loop
      vertex 208.735 0.0184679 92
      vertex 209.714 0.618322 92
      vertex 208.85 0.0414457 92
    endloop
  endfacet
  facet normal 0 -0 -1
    outer loop
      vertex 1.38231 57.9954 92
      vertex 209.714 0.618322 92
      vertex 1.26535 57.9815 92
    endloop
  endfacet
  facet normal -0.555953 0.831214 0
    outer loop
      vertex 0.618322 57.7135 92
      vertex 0.618322 57.7135 93.5
      vertex 0.716252 57.779 92
    endloop
  endfacet
  facet normal -0 0 1
    outer loop
      vertex 1.26535 57.9815 93.5
      vertex 209.886 0.925976 93.5
      vertex 1.38231 57.9954 93.5
    endloop
  endfacet
  facet normal 0.833174 -0.553011 0
    outer loop
      vertex 209.779 0.716252 93.5
      vertex 209.714 0.618322 92
      vertex 209.779 0.716252 92
    endloop
  endfacet
  facet normal 0 -0 -1
    outer loop
      vertex 1.14983 57.9586 92
      vertex 209.714 0.618322 92
      vertex 1.03648 57.9266 92
    endloop
  endfacet
  facet normal -0 -0 -1
    outer loop
      vertex 208.964 57.9266 92
      vertex 209.714 0.618322 92
      vertex 208.85 57.9586 92
    endloop
  endfacet
  facet normal -0 -0 -1
    outer loop
      vertex 209.284 57.779 92
      vertex 209.714 0.618322 92
      vertex 209.181 57.8365 92
    endloop
  endfacet
  facet normal -0 0 -1
    outer loop
      vertex 209.959 1.14983 92
      vertex 209.714 0.618322 92
      vertex 209.982 1.26535 92
    endloop
  endfacet
  facet normal 0 -0 1
    outer loop
      vertex 209.284 0.22104 93.5
      vertex 209.886 0.925976 93.5
      vertex 209.181 0.16349 93.5
    endloop
  endfacet
  facet normal 0.0391595 -0.999233 0
    outer loop
      vertex 208.618 0.00462437 92
      vertex 208.618 0.00462437 93.5
      vertex 208.5 0 92
    endloop
  endfacet
  facet normal 0.117501 -0.993073 0
    outer loop
      vertex 208.735 0.0184679 92
      vertex 208.618 0.00462437 93.5
      vertex 208.618 0.00462437 92
    endloop
  endfacet
  facet normal -0.0390559 0.999237 0
    outer loop
      vertex 1.5 58 92
      vertex 1.38231 57.9954 92
      vertex 1.5 58 93.5
    endloop
  endfacet
  facet normal 0.99388 -0.110469 0
    outer loop
      vertex 209.982 1.26535 93.5
      vertex 209.995 1.38231 92
      vertex 209.995 1.38231 93.5
    endloop
  endfacet
  facet normal 0 -0 1
    outer loop
      vertex 0.618322 0.286475 93.5
      vertex 209.886 0.925976 93.5
      vertex 0.525828 0.359391 93.5
    endloop
  endfacet
  facet normal 0 -0 1
    outer loop
      vertex 0.819015 0.16349 93.5
      vertex 209.886 0.925976 93.5
      vertex 0.716252 0.22104 93.5
    endloop
  endfacet
  facet normal 0.487441 0.873156 -0
    outer loop
      vertex 209.284 57.779 92
      vertex 209.181 57.8365 93.5
      vertex 209.284 57.779 93.5
    endloop
  endfacet
  facet normal -0.418592 0.908174 0
    outer loop
      vertex 0.925976 57.8858 93.5
      vertex 0.819015 57.8365 92
      vertex 0.819015 57.8365 93.5
    endloop
  endfacet
  facet normal 0 0 1
    outer loop
      vertex 209.927 56.9635 93.5
      vertex 209.886 0.925976 93.5
      vertex 209.959 56.8502 93.5
    endloop
  endfacet
  facet normal 0 0 -1
    outer loop
      vertex 209.382 0.286475 92
      vertex 209.714 0.618322 92
      vertex 209.474 0.359391 92
    endloop
  endfacet
  facet normal -0.271457 -0.962451 -0
    outer loop
      vertex 1.14983 0.0414457 93.5
      vertex 1.03648 0.0734158 93.5
      vertex 1.14983 0.0414457 92
    endloop
  endfacet
  facet normal 0 0 1
    outer loop
      vertex 208.618 57.9954 93.5
      vertex 209.886 0.925976 93.5
      vertex 208.735 57.9815 93.5
    endloop
  endfacet
  facet normal 0 -0 -1
    outer loop
      vertex 1.03648 57.9266 92
      vertex 209.714 0.618322 92
      vertex 0.925976 57.8858 92
    endloop
  endfacet
  facet normal -0.195086 -0.980786 0
    outer loop
      vertex 1.14983 0.0414457 92
      vertex 1.26535 0.0184679 92
      vertex 1.14983 0.0414457 93.5
    endloop
  endfacet
  facet normal 0.962384 -0.271692 0
    outer loop
      vertex 209.927 1.03648 92
      vertex 209.959 1.14983 93.5
      vertex 209.927 1.03648 93.5
    endloop
  endfacet
  facet normal -0.19445 0.980912 0
    outer loop
      vertex 1.14983 57.9586 92
      vertex 1.14983 57.9586 93.5
      vertex 1.26535 57.9815 92
    endloop
  endfacet
  facet normal 0 -0 -1
    outer loop
      vertex 0.16349 57.181 92
      vertex 209.714 0.618322 92
      vertex 0.114182 57.074 92
    endloop
  endfacet
  facet normal -0.271692 0.962384 0
    outer loop
      vertex 1.14983 57.9586 93.5
      vertex 1.03648 57.9266 92
      vertex 1.03648 57.9266 93.5
    endloop
  endfacet
  facet normal -0.999229 -0.0392625 0
    outer loop
      vertex 0 1.5 92
      vertex 0.00462437 1.38231 93.5
      vertex 0 1.5 93.5
    endloop
  endfacet
  facet normal -0 0 -1
    outer loop
      vertex 209.886 0.925976 92
      vertex 209.714 0.618322 92
      vertex 209.927 1.03648 92
    endloop
  endfacet
  facet normal 0 0 1
    outer loop
      vertex 209.837 57.181 93.5
      vertex 209.886 0.925976 93.5
      vertex 209.886 57.074 93.5
    endloop
  endfacet
  facet normal -0.346363 0.938101 0
    outer loop
      vertex 1.03648 57.9266 93.5
      vertex 1.03648 57.9266 92
      vertex 0.925976 57.8858 93.5
    endloop
  endfacet
  facet normal 0.937548 -0.347856 0
    outer loop
      vertex 209.927 1.03648 93.5
      vertex 209.886 0.925976 93.5
      vertex 209.927 1.03648 92
    endloop
  endfacet
  facet normal 0.734152 0.678985 -0
    outer loop
      vertex 209.561 57.5607 92
      vertex 209.561 57.5607 93.5
      vertex 209.641 57.4742 92
    endloop
  endfacet
  facet normal -0.195086 -0.980786 0
    outer loop
      vertex 1.14983 0.0414457 93.5
      vertex 1.26535 0.0184679 92
      vertex 1.26535 0.0184679 93.5
    endloop
  endfacet
  facet normal -0.619008 0.785385 0
    outer loop
      vertex 0.525828 57.6406 92
      vertex 0.525828 57.6406 93.5
      vertex 0.618322 57.7135 92
    endloop
  endfacet
  facet normal -0.993068 -0.117541 -0
    outer loop
      vertex 0.0184679 1.26535 93.5
      vertex 0.00462437 1.38231 93.5
      vertex 0.0184679 1.26535 92
    endloop
  endfacet
  facet normal 0 -0 1
    outer loop
      vertex 1.38231 0.00462437 93.5
      vertex 209.886 0.925976 93.5
      vertex 1.26535 0.0184679 93.5
    endloop
  endfacet
  facet normal 0.999099 0.0424426 -0
    outer loop
      vertex 210 56.5 92
      vertex 209.995 56.6177 93.5
      vertex 210 56.5 93.5
    endloop
  endfacet
  facet normal 0 -0 1
    outer loop
      vertex 1.03648 0.0734158 93.5
      vertex 209.886 0.925976 93.5
      vertex 0.925976 0.114182 93.5
    endloop
  endfacet
  facet normal 0 -0 1
    outer loop
      vertex 1.5 0 93.5
      vertex 209.886 0.925976 93.5
      vertex 1.38231 0.00462437 93.5
    endloop
  endfacet
  facet normal 0.487441 0.873156 -0
    outer loop
      vertex 209.181 57.8365 92
      vertex 209.181 57.8365 93.5
      vertex 209.284 57.779 92
    endloop
  endfacet
  facet normal 0.962353 0.271803 0
    outer loop
      vertex 209.959 56.8502 93.5
      vertex 209.959 56.8502 92
      vertex 209.927 56.9635 93.5
    endloop
  endfacet
  facet normal -0.271692 0.962384 0
    outer loop
      vertex 1.14983 57.9586 92
      vertex 1.03648 57.9266 92
      vertex 1.14983 57.9586 93.5
    endloop
  endfacet
  facet normal 0 -0 -1
    outer loop
      vertex 0.716252 57.779 92
      vertex 209.714 0.618322 92
      vertex 0.618322 57.7135 92
    endloop
  endfacet
  facet normal 0.347505 -0.937678 0
    outer loop
      vertex 209.074 0.114182 93.5
      vertex 208.964 0.0734158 92
      vertex 209.074 0.114182 92
    endloop
  endfacet
  facet normal 0.870736 0.49175 0
    outer loop
      vertex 209.779 57.2837 93.5
      vertex 209.837 57.181 92
      vertex 209.779 57.2837 92
    endloop
  endfacet
  facet normal -0 0 1
    outer loop
      vertex 0.286475 57.3817 93.5
      vertex 209.886 0.925976 93.5
      vertex 0.359391 57.4742 93.5
    endloop
  endfacet
  facet normal -0.993061 0.1176 0
    outer loop
      vertex 0.0184679 56.7346 92
      vertex 0.00462437 56.6177 93.5
      vertex 0.0184679 56.7346 93.5
    endloop
  endfacet
  facet normal 0.487764 -0.872975 0
    outer loop
      vertex 209.181 0.16349 93.5
      vertex 209.181 0.16349 92
      vertex 209.284 0.22104 93.5
    endloop
  endfacet
  facet normal -0 -0 -1
    outer loop
      vertex 209.561 57.5607 92
      vertex 209.714 0.618322 92
      vertex 209.474 57.6406 92
    endloop
  endfacet
  facet normal 0 0 1
    outer loop
      vertex 209.995 1.38231 93.5
      vertex 209.886 0.925976 93.5
      vertex 209.982 1.26535 93.5
    endloop
  endfacet
  facet normal 0 -0 1
    outer loop
      vertex 209.714 0.618322 93.5
      vertex 209.886 0.925976 93.5
      vertex 209.641 0.525828 93.5
    endloop
  endfacet
  facet normal 0 0 1
    outer loop
      vertex 209.779 57.2837 93.5
      vertex 209.886 0.925976 93.5
      vertex 209.837 57.181 93.5
    endloop
  endfacet
  facet normal -0.418592 0.908174 0
    outer loop
      vertex 0.925976 57.8858 92
      vertex 0.819015 57.8365 92
      vertex 0.925976 57.8858 93.5
    endloop
  endfacet
  facet normal 0 0 -1
    outer loop
      vertex 209.074 0.114182 92
      vertex 209.714 0.618322 92
      vertex 209.181 0.16349 92
    endloop
  endfacet
  facet normal -0.831469 -0.555572 0
    outer loop
      vertex 0.22104 0.716252 92
      vertex 0.286475 0.618322 93.5
      vertex 0.22104 0.716252 93.5
    endloop
  endfacet
  facet normal 0.347758 0.937584 -0
    outer loop
      vertex 209.074 57.8858 92
      vertex 208.964 57.9266 93.5
      vertex 209.074 57.8858 93.5
    endloop
  endfacet
  facet normal -0 -0 1
    outer loop
      vertex 0.00462437 1.38231 93.5
      vertex 209.886 0.925976 93.5
      vertex 0 1.5 93.5
    endloop
  endfacet
  facet normal -0.117541 -0.993068 0
    outer loop
      vertex 1.38231 0.00462437 92
      vertex 1.38231 0.00462437 93.5
      vertex 1.26535 0.0184679 92
    endloop
  endfacet
  facet normal -0.999229 0.0392592 0
    outer loop
      vertex 0 56.5 93.5
      vertex 0.00462437 56.6177 93.5
      vertex 0 56.5 92
    endloop
  endfacet
  facet normal 0 0 -1
    outer loop
      vertex 208.618 0.00462437 92
      vertex 209.714 0.618322 92
      vertex 208.735 0.0184679 92
    endloop
  endfacet
  facet normal -0 0 -1
    outer loop
      vertex 209.779 0.716252 92
      vertex 209.714 0.618322 92
      vertex 209.837 0.819015 92
    endloop
  endfacet
  facet normal -0.993061 0.1176 0
    outer loop
      vertex 0.00462437 56.6177 92
      vertex 0.00462437 56.6177 93.5
      vertex 0.0184679 56.7346 92
    endloop
  endfacet
  facet normal -0.555572 -0.831469 -0
    outer loop
      vertex 0.716252 0.22104 93.5
      vertex 0.618322 0.286475 92
      vertex 0.716252 0.22104 92
    endloop
  endfacet
  facet normal 0 -0 1
    outer loop
      vertex 208.618 0.00462437 93.5
      vertex 209.886 0.925976 93.5
      vertex 208.5 0 93.5
    endloop
  endfacet
  facet normal -0.785319 -0.619092 0
    outer loop
      vertex 0.359391 0.525828 92
      vertex 0.286475 0.618322 93.5
      vertex 0.286475 0.618322 92
    endloop
  endfacet
  facet normal -0 0 1
    outer loop
      vertex 0.00462437 56.6177 93.5
      vertex 209.886 0.925976 93.5
      vertex 0.0184679 56.7346 93.5
    endloop
  endfacet
  facet normal -0.962451 -0.271457 0
    outer loop
      vertex 0.0734158 1.03648 92
      vertex 0.0734158 1.03648 93.5
      vertex 0.0414457 1.14983 92
    endloop
  endfacet
  facet normal -0.962451 -0.271457 0
    outer loop
      vertex 0.0414457 1.14983 92
      vertex 0.0734158 1.03648 93.5
      vertex 0.0414457 1.14983 93.5
    endloop
  endfacet
  facet normal 0 0 -1
    outer loop
      vertex 0.439341 0.439341 92
      vertex 209.714 0.618322 92
      vertex 0.525828 0.359391 92
    endloop
  endfacet
  facet normal 0 0 -1
    outer loop
      vertex 0.00462437 1.38231 92
      vertex 209.714 0.618322 92
      vertex 0.0184679 1.26535 92
    endloop
  endfacet
  facet normal -0.831652 0.555297 0
    outer loop
      vertex 0.286475 57.3817 93.5
      vertex 0.286475 57.3817 92
      vertex 0.22104 57.2837 93.5
    endloop
  endfacet
  facet normal -0.785338 0.619067 0
    outer loop
      vertex 0.359391 57.4742 93.5
      vertex 0.286475 57.3817 92
      vertex 0.286475 57.3817 93.5
    endloop
  endfacet
  facet normal 0 -0 -1
    outer loop
      vertex 1.26535 57.9815 92
      vertex 209.714 0.618322 92
      vertex 1.14983 57.9586 92
    endloop
  endfacet
  facet normal 0.937544 0.347867 0
    outer loop
      vertex 209.927 56.9635 93.5
      vertex 209.886 57.074 92
      vertex 209.886 57.074 93.5
    endloop
  endfacet
  facet normal 0.870736 0.49175 0
    outer loop
      vertex 209.837 57.181 93.5
      vertex 209.837 57.181 92
      vertex 209.779 57.2837 93.5
    endloop
  endfacet
  facet normal 0.676644 -0.73631 0
    outer loop
      vertex 209.474 0.359391 92
      vertex 209.561 0.439341 92
      vertex 209.474 0.359391 93.5
    endloop
  endfacet
  facet normal 0 0 1
    outer loop
      vertex 209.959 1.14983 93.5
      vertex 209.886 0.925976 93.5
      vertex 209.927 1.03648 93.5
    endloop
  endfacet
  facet normal -0 -0 1
    outer loop
      vertex 0.0414457 1.14983 93.5
      vertex 209.886 0.925976 93.5
      vertex 0.0184679 1.26535 93.5
    endloop
  endfacet
  facet normal 0 0 1
    outer loop
      vertex 208.964 57.9266 93.5
      vertex 209.886 0.925976 93.5
      vertex 209.074 57.8858 93.5
    endloop
  endfacet
  facet normal -0 0 1
    outer loop
      vertex 1.5 58 93.5
      vertex 209.886 0.925976 93.5
      vertex 208.5 58 93.5
    endloop
  endfacet
  facet normal 0 -0 -1
    outer loop
      vertex 0.22104 57.2837 92
      vertex 209.714 0.618322 92
      vertex 0.16349 57.181 92
    endloop
  endfacet
  facet normal 0.962353 0.271803 0
    outer loop
      vertex 209.927 56.9635 93.5
      vertex 209.959 56.8502 92
      vertex 209.927 56.9635 92
    endloop
  endfacet
  facet normal 0 -0 1
    outer loop
      vertex 209.561 0.439341 93.5
      vertex 209.886 0.925976 93.5
      vertex 209.474 0.359391 93.5
    endloop
  endfacet
  facet normal -0.993068 -0.117541 0
    outer loop
      vertex 0.0184679 1.26535 92
      vertex 0.00462437 1.38231 93.5
      vertex 0.00462437 1.38231 92
    endloop
  endfacet
  facet normal 0 0 -1
    outer loop
      vertex 0.0184679 1.26535 92
      vertex 209.714 0.618322 92
      vertex 0.0414457 1.14983 92
    endloop
  endfacet
  facet normal 0 -0 -1
    outer loop
      vertex 0.819015 57.8365 92
      vertex 209.714 0.618322 92
      vertex 0.716252 57.779 92
    endloop
  endfacet
  facet normal -0.93819 0.346122 0
    outer loop
      vertex 0.114182 57.074 93.5
      vertex 0.114182 57.074 92
      vertex 0.0734158 56.9635 93.5
    endloop
  endfacet
  facet normal 0 0 1
    outer loop
      vertex 209.074 57.8858 93.5
      vertex 209.886 0.925976 93.5
      vertex 209.181 57.8365 93.5
    endloop
  endfacet
  facet normal -0 0 -1
    outer loop
      vertex 209.982 56.7346 92
      vertex 209.714 0.618322 92
      vertex 209.959 56.8502 92
    endloop
  endfacet
  facet normal -0.488298 0.872677 0
    outer loop
      vertex 0.819015 57.8365 93.5
      vertex 0.819015 57.8365 92
      vertex 0.716252 57.779 93.5
    endloop
  endfacet
  facet normal 0 -0 1
    outer loop
      vertex 209.181 0.16349 93.5
      vertex 209.886 0.925976 93.5
      vertex 209.074 0.114182 93.5
    endloop
  endfacet
  facet normal 0 -0 1
    outer loop
      vertex 209.641 0.525828 93.5
      vertex 209.886 0.925976 93.5
      vertex 209.561 0.439341 93.5
    endloop
  endfacet
  facet normal 0 -0 -1
    outer loop
      vertex 0.525828 57.6406 92
      vertex 209.714 0.618322 92
      vertex 0.439341 57.5607 92
    endloop
  endfacet
  facet normal -0 0 1
    outer loop
      vertex 0.0734158 56.9635 93.5
      vertex 209.886 0.925976 93.5
      vertex 0.114182 57.074 93.5
    endloop
  endfacet
  facet normal -0 -0 -1
    outer loop
      vertex 209.714 57.3817 92
      vertex 209.714 0.618322 92
      vertex 209.641 57.4742 92
    endloop
  endfacet
  facet normal -0.938194 -0.34611 0
    outer loop
      vertex 0.0734158 1.03648 92
      vertex 0.114182 0.925976 93.5
      vertex 0.0734158 1.03648 93.5
    endloop
  endfacet
  facet normal 0.870866 -0.491521 0
    outer loop
      vertex 209.779 0.716252 92
      vertex 209.837 0.819015 93.5
      vertex 209.779 0.716252 93.5
    endloop
  endfacet
  facet normal 0 -0 1
    outer loop
      vertex 208.5 0 93.5
      vertex 209.886 0.925976 93.5
      vertex 1.5 0 93.5
    endloop
  endfacet
  facet normal -0.678582 0.734525 0
    outer loop
      vertex 0.439341 57.5607 92
      vertex 0.439341 57.5607 93.5
      vertex 0.525828 57.6406 92
    endloop
  endfacet
  facet normal -0 0 -1
    outer loop
      vertex 209.995 1.38231 92
      vertex 209.714 0.618322 92
      vertex 210 1.5 92
    endloop
  endfacet
  facet normal 0.784991 0.619507 0
    outer loop
      vertex 209.641 57.4742 93.5
      vertex 209.714 57.3817 93.5
      vertex 209.641 57.4742 92
    endloop
  endfacet
  facet normal 0 0 1
    outer loop
      vertex 209.886 57.074 93.5
      vertex 209.886 0.925976 93.5
      vertex 209.927 56.9635 93.5
    endloop
  endfacet
  facet normal 0.980776 0.195137 -0
    outer loop
      vertex 209.982 56.7346 92
      vertex 209.959 56.8502 92
      vertex 209.982 56.7346 93.5
    endloop
  endfacet
  facet normal -0.908207 0.418522 0
    outer loop
      vertex 0.16349 57.181 93.5
      vertex 0.114182 57.074 92
      vertex 0.114182 57.074 93.5
    endloop
  endfacet
  facet normal -0 0 -1
    outer loop
      vertex 209.837 0.819015 92
      vertex 209.714 0.618322 92
      vertex 209.886 0.925976 92
    endloop
  endfacet
  facet normal 0 -0 -1
    outer loop
      vertex 0.439341 57.5607 92
      vertex 209.714 0.618322 92
      vertex 0.359391 57.4742 92
    endloop
  endfacet
  facet normal 0.98075 -0.195267 0
    outer loop
      vertex 209.982 1.26535 93.5
      vertex 209.959 1.14983 93.5
      vertex 209.982 1.26535 92
    endloop
  endfacet
  facet normal 0 0 1
    outer loop
      vertex 209.181 57.8365 93.5
      vertex 209.886 0.925976 93.5
      vertex 209.284 57.779 93.5
    endloop
  endfacet
  facet normal 0 0 -1
    outer loop
      vertex 209.474 0.359391 92
      vertex 209.714 0.618322 92
      vertex 209.561 0.439341 92
    endloop
  endfacet
  facet normal 0.418522 -0.908207 0
    outer loop
      vertex 209.074 0.114182 92
      vertex 209.181 0.16349 92
      vertex 209.074 0.114182 93.5
    endloop
  endfacet
  facet normal -0.678811 -0.734313 0
    outer loop
      vertex 0.525828 0.359391 92
      vertex 0.439341 0.439341 93.5
      vertex 0.439341 0.439341 92
    endloop
  endfacet
  facet normal -0.678811 -0.734313 -0
    outer loop
      vertex 0.525828 0.359391 93.5
      vertex 0.439341 0.439341 93.5
      vertex 0.525828 0.359391 92
    endloop
  endfacet
  facet normal -0 0 1
    outer loop
      vertex 1.14983 57.9586 93.5
      vertex 209.886 0.925976 93.5
      vertex 1.26535 57.9815 93.5
    endloop
  endfacet
  facet normal -0 0 -1
    outer loop
      vertex 209.927 1.03648 92
      vertex 209.714 0.618322 92
      vertex 209.959 1.14983 92
    endloop
  endfacet
  facet normal 0.555679 0.831397 0
    outer loop
      vertex 209.284 57.779 93.5
      vertex 209.382 57.7135 92
      vertex 209.284 57.779 92
    endloop
  endfacet
  facet normal -0 0 1
    outer loop
      vertex 0.925976 57.8858 93.5
      vertex 209.886 0.925976 93.5
      vertex 1.03648 57.9266 93.5
    endloop
  endfacet
  facet normal 0 0 1
    outer loop
      vertex 209.641 57.4742 93.5
      vertex 209.886 0.925976 93.5
      vertex 209.714 57.3817 93.5
    endloop
  endfacet
  facet normal -0.999229 0.0392592 0
    outer loop
      vertex 0 56.5 92
      vertex 0.00462437 56.6177 93.5
      vertex 0.00462437 56.6177 92
    endloop
  endfacet
  facet normal 0 0 -1
    outer loop
      vertex 0.819015 0.16349 92
      vertex 209.714 0.618322 92
      vertex 0.925976 0.114182 92
    endloop
  endfacet
  facet normal -0.619092 -0.785319 0
    outer loop
      vertex 0.525828 0.359391 92
      vertex 0.618322 0.286475 92
      vertex 0.525828 0.359391 93.5
    endloop
  endfacet
  facet normal -0 0 1
    outer loop
      vertex 0.114182 57.074 93.5
      vertex 209.886 0.925976 93.5
      vertex 0.16349 57.181 93.5
    endloop
  endfacet
  facet normal -0 0 -1
    outer loop
      vertex 209.779 57.2837 92
      vertex 209.714 0.618322 92
      vertex 209.714 57.3817 92
    endloop
  endfacet
  facet normal 0 0 -1
    outer loop
      vertex 0.925976 0.114182 92
      vertex 209.714 0.618322 92
      vertex 1.03648 0.0734158 92
    endloop
  endfacet
  facet normal 0 0 -1
    outer loop
      vertex 1.03648 0.0734158 92
      vertex 209.714 0.618322 92
      vertex 1.14983 0.0414457 92
    endloop
  endfacet
  facet normal 0 -0 1
    outer loop
      vertex 209.474 0.359391 93.5
      vertex 209.886 0.925976 93.5
      vertex 209.382 0.286475 93.5
    endloop
  endfacet
  facet normal 0 -0 1
    outer loop
      vertex 209.779 0.716252 93.5
      vertex 209.886 0.925976 93.5
      vertex 209.714 0.618322 93.5
    endloop
  endfacet
  facet normal -0 -0 1
    outer loop
      vertex 0.0184679 1.26535 93.5
      vertex 209.886 0.925976 93.5
      vertex 0.00462437 1.38231 93.5
    endloop
  endfacet
  facet normal 0 0 1
    outer loop
      vertex 209.995 56.6177 93.5
      vertex 209.886 0.925976 93.5
      vertex 210 56.5 93.5
    endloop
  endfacet
  facet normal -0.488298 0.872677 0
    outer loop
      vertex 0.716252 57.779 93.5
      vertex 0.819015 57.8365 92
      vertex 0.716252 57.779 92
    endloop
  endfacet
  facet normal 0.784972 -0.619531 0
    outer loop
      vertex 209.641 0.525828 93.5
      vertex 209.714 0.618322 92
      vertex 209.714 0.618322 93.5
    endloop
  endfacet
  facet normal 0 0 1
    outer loop
      vertex 209.382 57.7135 93.5
      vertex 209.886 0.925976 93.5
      vertex 209.474 57.6406 93.5
    endloop
  endfacet
  facet normal 0 0 1
    outer loop
      vertex 208.5 58 93.5
      vertex 209.886 0.925976 93.5
      vertex 208.618 57.9954 93.5
    endloop
  endfacet
  facet normal 0 0 1
    outer loop
      vertex 209.284 57.779 93.5
      vertex 209.886 0.925976 93.5
      vertex 209.382 57.7135 93.5
    endloop
  endfacet
  facet normal 0.962384 -0.271692 0
    outer loop
      vertex 209.959 1.14983 92
      vertex 209.959 1.14983 93.5
      vertex 209.927 1.03648 92
    endloop
  endfacet
  facet normal 0 -0 -1
    outer loop
      vertex 0.00462437 56.6177 92
      vertex 209.714 0.618322 92
      vertex 0 56.5 92
    endloop
  endfacet
  facet normal 0 0 -1
    outer loop
      vertex 209.181 0.16349 92
      vertex 209.714 0.618322 92
      vertex 209.284 0.22104 92
    endloop
  endfacet
  facet normal 0 0 -1
    outer loop
      vertex 209.284 0.22104 92
      vertex 209.714 0.618322 92
      vertex 209.382 0.286475 92
    endloop
  endfacet
  facet normal 0.734101 -0.67904 0
    outer loop
      vertex 209.641 0.525828 93.5
      vertex 209.561 0.439341 92
      vertex 209.641 0.525828 92
    endloop
  endfacet
  facet normal 0 0 1
    outer loop
      vertex 208.735 57.9815 93.5
      vertex 209.886 0.925976 93.5
      vertex 208.85 57.9586 93.5
    endloop
  endfacet
  facet normal 0 -0 1
    outer loop
      vertex 209.382 0.286475 93.5
      vertex 209.886 0.925976 93.5
      vertex 209.284 0.22104 93.5
    endloop
  endfacet
  facet normal 0 -0 -1
    outer loop
      vertex 1.5 58 92
      vertex 209.714 0.618322 92
      vertex 1.38231 57.9954 92
    endloop
  endfacet
  facet normal -0 0 1
    outer loop
      vertex 0 1.5 93.5
      vertex 209.886 0.925976 93.5
      vertex 0 56.5 93.5
    endloop
  endfacet
  facet normal -0 0 1
    outer loop
      vertex 0.525828 57.6406 93.5
      vertex 209.886 0.925976 93.5
      vertex 0.618322 57.7135 93.5
    endloop
  endfacet
  facet normal 0.555297 -0.831652 0
    outer loop
      vertex 209.382 0.286475 92
      vertex 209.382 0.286475 93.5
      vertex 209.284 0.22104 92
    endloop
  endfacet
  facet normal 0 0 -1
    outer loop
      vertex 208.5 0 92
      vertex 209.714 0.618322 92
      vertex 208.618 0.00462437 92
    endloop
  endfacet
  facet normal 0 0 -1
    outer loop
      vertex 0.716252 0.22104 92
      vertex 209.714 0.618322 92
      vertex 0.819015 0.16349 92
    endloop
  endfacet
  facet normal 0.347505 -0.937678 0
    outer loop
      vertex 208.964 0.0734158 93.5
      vertex 208.964 0.0734158 92
      vertex 209.074 0.114182 93.5
    endloop
  endfacet
  facet normal 0.270022 -0.962854 0
    outer loop
      vertex 208.85 0.0414457 93.5
      vertex 208.964 0.0734158 92
      vertex 208.964 0.0734158 93.5
    endloop
  endfacet
  facet normal 0.937548 -0.347856 0
    outer loop
      vertex 209.927 1.03648 92
      vertex 209.886 0.925976 93.5
      vertex 209.886 0.925976 92
    endloop
  endfacet
  facet normal -0 0 -1
    outer loop
      vertex 209.837 57.181 92
      vertex 209.714 0.618322 92
      vertex 209.779 57.2837 92
    endloop
  endfacet
  facet normal 0 -0 1
    outer loop
      vertex 0.716252 0.22104 93.5
      vertex 209.886 0.925976 93.5
      vertex 0.618322 0.286475 93.5
    endloop
  endfacet
  facet normal 0 -0 1
    outer loop
      vertex 0.114182 0.925976 93.5
      vertex 209.886 0.925976 93.5
      vertex 0.0734158 1.03648 93.5
    endloop
  endfacet
  facet normal 0 0 -1
    outer loop
      vertex 0.525828 0.359391 92
      vertex 209.714 0.618322 92
      vertex 0.618322 0.286475 92
    endloop
  endfacet
  facet normal -0.980812 0.194956 0
    outer loop
      vertex 0.0414457 56.8502 93.5
      vertex 0.0414457 56.8502 92
      vertex 0.0184679 56.7346 93.5
    endloop
  endfacet
  facet normal 0 0 -1
    outer loop
      vertex 0.618322 0.286475 92
      vertex 209.714 0.618322 92
      vertex 0.716252 0.22104 92
    endloop
  endfacet
  facet normal 0 0 -1
    outer loop
      vertex 0.286475 0.618322 92
      vertex 209.714 0.618322 92
      vertex 0.359391 0.525828 92
    endloop
  endfacet
  facet normal -0 0 -1
    outer loop
      vertex 209.927 56.9635 92
      vertex 209.714 0.618322 92
      vertex 209.886 57.074 92
    endloop
  endfacet
  facet normal -0 0 -1
    outer loop
      vertex 210 56.5 92
      vertex 209.714 0.618322 92
      vertex 209.995 56.6177 92
    endloop
  endfacet
  facet normal 0 0 -1
    outer loop
      vertex 0.0734158 1.03648 92
      vertex 209.714 0.618322 92
      vertex 0.114182 0.925976 92
    endloop
  endfacet
  facet normal 0 0 -1
    outer loop
      vertex 0.16349 0.819015 92
      vertex 209.714 0.618322 92
      vertex 0.22104 0.716252 92
    endloop
  endfacet
  facet normal 0 -0 1
    outer loop
      vertex 0.16349 0.819015 93.5
      vertex 209.886 0.925976 93.5
      vertex 0.114182 0.925976 93.5
    endloop
  endfacet
  facet normal 0 -0 1
    outer loop
      vertex 0.439341 0.439341 93.5
      vertex 209.886 0.925976 93.5
      vertex 0.359391 0.525828 93.5
    endloop
  endfacet
  facet normal -0 0 -1
    outer loop
      vertex 209.995 56.6177 92
      vertex 209.714 0.618322 92
      vertex 209.982 56.7346 92
    endloop
  endfacet
  facet normal -0 0 -1
    outer loop
      vertex 209.982 1.26535 92
      vertex 209.714 0.618322 92
      vertex 209.995 1.38231 92
    endloop
  endfacet
  facet normal 0.784972 -0.619531 0
    outer loop
      vertex 209.641 0.525828 92
      vertex 209.714 0.618322 92
      vertex 209.641 0.525828 93.5
    endloop
  endfacet
  facet normal 0.833174 -0.553011 0
    outer loop
      vertex 209.714 0.618322 93.5
      vertex 209.714 0.618322 92
      vertex 209.779 0.716252 93.5
    endloop
  endfacet
  facet normal -0 0 1
    outer loop
      vertex 0.819015 57.8365 93.5
      vertex 209.886 0.925976 93.5
      vertex 0.925976 57.8858 93.5
    endloop
  endfacet
  facet normal 0.555297 -0.831652 0
    outer loop
      vertex 209.284 0.22104 92
      vertex 209.382 0.286475 93.5
      vertex 209.284 0.22104 93.5
    endloop
  endfacet
  facet normal -0.734364 0.678756 0
    outer loop
      vertex 0.359391 57.4742 92
      vertex 0.439341 57.5607 93.5
      vertex 0.439341 57.5607 92
    endloop
  endfacet
  facet normal -0.734364 0.678756 0
    outer loop
      vertex 0.359391 57.4742 93.5
      vertex 0.439341 57.5607 93.5
      vertex 0.359391 57.4742 92
    endloop
  endfacet
  facet normal 0.621136 -0.783703 0
    outer loop
      vertex 209.474 0.359391 92
      vertex 209.382 0.286475 93.5
      vertex 209.382 0.286475 92
    endloop
  endfacet
  facet normal 0.621136 -0.783703 0
    outer loop
      vertex 209.474 0.359391 93.5
      vertex 209.382 0.286475 93.5
      vertex 209.474 0.359391 92
    endloop
  endfacet
  facet normal 0 0 -1
    outer loop
      vertex 0 1.5 92
      vertex 209.714 0.618322 92
      vertex 0.00462437 1.38231 92
    endloop
  endfacet
  facet normal 0 0 -1
    outer loop
      vertex 0 56.5 92
      vertex 209.714 0.618322 92
      vertex 0 1.5 92
    endloop
  endfacet
  facet normal 0 0 1
    outer loop
      vertex 209.982 1.26535 93.5
      vertex 209.886 0.925976 93.5
      vertex 209.959 1.14983 93.5
    endloop
  endfacet
  facet normal 0 0 1
    outer loop
      vertex 210 1.5 93.5
      vertex 209.886 0.925976 93.5
      vertex 209.995 1.38231 93.5
    endloop
  endfacet
  facet normal -0 0 1
    outer loop
      vertex 0.22104 57.2837 93.5
      vertex 209.886 0.925976 93.5
      vertex 0.286475 57.3817 93.5
    endloop
  endfacet
  facet normal -0 0 1
    outer loop
      vertex 0.0414457 56.8502 93.5
      vertex 209.886 0.925976 93.5
      vertex 0.0734158 56.9635 93.5
    endloop
  endfacet
  facet normal 0 -0 1
    outer loop
      vertex 209.837 0.819015 93.5
      vertex 209.886 0.925976 93.5
      vertex 209.779 0.716252 93.5
    endloop
  endfacet
  facet normal 0.909141 -0.416488 0
    outer loop
      vertex 209.837 0.819015 92
      vertex 209.886 0.925976 93.5
      vertex 209.837 0.819015 93.5
    endloop
  endfacet
  facet normal -0 -0 -1
    outer loop
      vertex 208.735 57.9815 92
      vertex 209.714 0.618322 92
      vertex 208.618 57.9954 92
    endloop
  endfacet
  facet normal -0 -0 -1
    outer loop
      vertex 208.85 57.9586 92
      vertex 209.714 0.618322 92
      vertex 208.735 57.9815 92
    endloop
  endfacet
  facet normal -0 0 1
    outer loop
      vertex 0.439341 57.5607 93.5
      vertex 209.886 0.925976 93.5
      vertex 0.525828 57.6406 93.5
    endloop
  endfacet
  facet normal -0 0 1
    outer loop
      vertex 0.359391 57.4742 93.5
      vertex 209.886 0.925976 93.5
      vertex 0.439341 57.5607 93.5
    endloop
  endfacet
endsolid OpenSCAD_Model
