solid OpenSCAD_Model
  facet normal 1 -0 0
    outer loop
      vertex -15 -20 -5
      vertex -15 -10 -7
      vertex -15 -10 -5
    endloop
  endfacet
  facet normal 1 0 0
    outer loop
      vertex -15 -10 -7
      vertex -15 -20 -5
      vertex -15 -20 -7
    endloop
  endfacet
  facet normal 0 0 -1
    outer loop
      vertex -35 -10 -5
      vertex -15 20 -5
      vertex -15 -10 -5
    endloop
  endfacet
  facet normal -0 0 -1
    outer loop
      vertex -15 20 -5
      vertex -35 -10 -5
      vertex -35 20 -5
    endloop
  endfacet
  facet normal 0 0 -1
    outer loop
      vertex 50 -30 -5
      vertex 35 -20 -5
      vertex 50 -20 -5
    endloop
  endfacet
  facet normal 0 0 -1
    outer loop
      vertex -15 -10 -5
      vertex 35 -10 -5
      vertex 35 -20 -5
    endloop
  endfacet
  facet normal 0 0 -1
    outer loop
      vertex 35 -10 -5
      vertex -15 -10 -5
      vertex 35 20 -5
    endloop
  endfacet
  facet normal 0 0 -1
    outer loop
      vertex -15 -10 -5
      vertex 35 -20 -5
      vertex -15 -20 -5
    endloop
  endfacet
  facet normal 0 0 -1
    outer loop
      vertex 50 -30 -5
      vertex -15 -20 -5
      vertex 35 -20 -5
    endloop
  endfacet
  facet normal 0 0 -1
    outer loop
      vertex -50 -30 -5
      vertex -15 -20 -5
      vertex 50 -30 -5
    endloop
  endfacet
  facet normal 0 0 -1
    outer loop
      vertex -50 -30 -5
      vertex -35 -10 -5
      vertex -35 -20 -5
    endloop
  endfacet
  facet normal 0 0 -1
    outer loop
      vertex -35 -10 -5
      vertex -50 30 -5
      vertex -35 20 -5
    endloop
  endfacet
  facet normal -0 0 -1
    outer loop
      vertex -15 -20 -5
      vertex -50 -30 -5
      vertex -35 -20 -5
    endloop
  endfacet
  facet normal -0 0 -1
    outer loop
      vertex -35 -10 -5
      vertex -50 -30 -5
      vertex -50 30 -5
    endloop
  endfacet
  facet normal 0 0 -1
    outer loop
      vertex -35 20 -5
      vertex -50 30 -5
      vertex -35 30 -5
    endloop
  endfacet
  facet normal 0 0 -1
    outer loop
      vertex 35 -10 -5
      vertex 50 20 -5
      vertex 50 -10 -5
    endloop
  endfacet
  facet normal -0 0 -1
    outer loop
      vertex 50 20 -5
      vertex 35 -10 -5
      vertex 35 20 -5
    endloop
  endfacet
  facet normal 0 0 -1
    outer loop
      vertex -15 20 -5
      vertex 35 20 -5
      vertex -15 -10 -5
    endloop
  endfacet
  facet normal 0 0 -1
    outer loop
      vertex 35 20 -5
      vertex -15 20 -5
      vertex 35 30 -5
    endloop
  endfacet
  facet normal -0 0 -1
    outer loop
      vertex 35 30 -5
      vertex -15 20 -5
      vertex -15 30 -5
    endloop
  endfacet
  facet normal -0 0 1
    outer loop
      vertex 50 30 -5
      vertex 55 20 -5
      vertex 55 30 -5
    endloop
  endfacet
  facet normal 0 0 1
    outer loop
      vertex 55 20 -5
      vertex 50 30 -5
      vertex 50 20 -5
    endloop
  endfacet
  facet normal -0 0 1
    outer loop
      vertex 50 -10 -5
      vertex 55 -20 -5
      vertex 55 -10 -5
    endloop
  endfacet
  facet normal 0 0 1
    outer loop
      vertex 55 -20 -5
      vertex 50 -10 -5
      vertex 50 -20 -5
    endloop
  endfacet
  facet normal 0 0 -1
    outer loop
      vertex -25 -20 -7
      vertex -15 -10 -7
      vertex -15 -20 -7
    endloop
  endfacet
  facet normal -0 0 -1
    outer loop
      vertex -15 -10 -7
      vertex -25 -20 -7
      vertex -25 -10 -7
    endloop
  endfacet
  facet normal -1 0 0
    outer loop
      vertex -35 -20 -15
      vertex -35 -10 -5
      vertex -35 -10 -15
    endloop
  endfacet
  facet normal -1 -0 0
    outer loop
      vertex -35 -10 -5
      vertex -35 -20 -15
      vertex -35 -20 -5
    endloop
  endfacet
  facet normal 0 1 0
    outer loop
      vertex -25 -10 -7
      vertex -15 -10 -5
      vertex -15 -10 -7
    endloop
  endfacet
  facet normal 0 1 0
    outer loop
      vertex -15 -10 -5
      vertex -25 -10 -7
      vertex -35 -10 -5
    endloop
  endfacet
  facet normal 0 1 0
    outer loop
      vertex -35 -10 -15
      vertex -25 -10 -7
      vertex -25 -10 -15
    endloop
  endfacet
  facet normal 0 1 0
    outer loop
      vertex -25 -10 -7
      vertex -35 -10 -15
      vertex -35 -10 -5
    endloop
  endfacet
  facet normal 0 -1 0
    outer loop
      vertex -35 -20 -5
      vertex -25 -20 -7
      vertex -15 -20 -5
    endloop
  endfacet
  facet normal 0 -1 0
    outer loop
      vertex -35 -20 -15
      vertex -25 -20 -7
      vertex -35 -20 -5
    endloop
  endfacet
  facet normal 0 -1 -0
    outer loop
      vertex -25 -20 -7
      vertex -35 -20 -15
      vertex -25 -20 -15
    endloop
  endfacet
  facet normal 0 -1 -0
    outer loop
      vertex -15 -20 -5
      vertex -25 -20 -7
      vertex -15 -20 -7
    endloop
  endfacet
  facet normal 1 -0 0
    outer loop
      vertex -25 -20 -7
      vertex -25 -10 -15
      vertex -25 -10 -7
    endloop
  endfacet
  facet normal 1 0 0
    outer loop
      vertex -25 -10 -15
      vertex -25 -20 -7
      vertex -25 -20 -15
    endloop
  endfacet
  facet normal 0 0 -1
    outer loop
      vertex -35 -20 -15
      vertex -25 -10 -15
      vertex -25 -20 -15
    endloop
  endfacet
  facet normal -0 0 -1
    outer loop
      vertex -25 -10 -15
      vertex -35 -20 -15
      vertex -35 -10 -15
    endloop
  endfacet
  facet normal 1 -0 0
    outer loop
      vertex -15 20 -5
      vertex -15 30 -7
      vertex -15 30 -5
    endloop
  endfacet
  facet normal 1 0 0
    outer loop
      vertex -15 30 -7
      vertex -15 20 -5
      vertex -15 20 -7
    endloop
  endfacet
  facet normal 0 0 -1
    outer loop
      vertex -25 20 -7
      vertex -15 30 -7
      vertex -15 20 -7
    endloop
  endfacet
  facet normal -0 0 -1
    outer loop
      vertex -15 30 -7
      vertex -25 20 -7
      vertex -25 30 -7
    endloop
  endfacet
  facet normal -1 0 0
    outer loop
      vertex -35 20 -15
      vertex -35 30 -5
      vertex -35 30 -15
    endloop
  endfacet
  facet normal -1 -0 0
    outer loop
      vertex -35 30 -5
      vertex -35 20 -15
      vertex -35 20 -5
    endloop
  endfacet
  facet normal 0 1 0
    outer loop
      vertex -25 30 -7
      vertex -15 30 -5
      vertex -15 30 -7
    endloop
  endfacet
  facet normal 0 1 0
    outer loop
      vertex -15 30 -5
      vertex -25 30 -7
      vertex -35 30 -5
    endloop
  endfacet
  facet normal 0 1 0
    outer loop
      vertex -35 30 -15
      vertex -25 30 -7
      vertex -25 30 -15
    endloop
  endfacet
  facet normal 0 1 0
    outer loop
      vertex -25 30 -7
      vertex -35 30 -15
      vertex -35 30 -5
    endloop
  endfacet
  facet normal 0 1 0
    outer loop
      vertex 45 30 -7
      vertex 50 30 0
      vertex 50 30 -5
    endloop
  endfacet
  facet normal 0 1 0
    outer loop
      vertex -15 30 -5
      vertex 50 30 0
      vertex 35 30 -5
    endloop
  endfacet
  facet normal 0 1 0
    outer loop
      vertex 50 30 0
      vertex -15 30 -5
      vertex -50 30 0
    endloop
  endfacet
  facet normal 0 1 -0
    outer loop
      vertex -35 30 -5
      vertex -50 30 0
      vertex -15 30 -5
    endloop
  endfacet
  facet normal 0 1 0
    outer loop
      vertex -50 30 0
      vertex -35 30 -5
      vertex -50 30 -5
    endloop
  endfacet
  facet normal 0 1 -0
    outer loop
      vertex 55 30 -15
      vertex 50 30 -5
      vertex 55 30 -5
    endloop
  endfacet
  facet normal 0 1 0
    outer loop
      vertex 50 30 0
      vertex 45 30 -7
      vertex 35 30 -5
    endloop
  endfacet
  facet normal 0 1 0
    outer loop
      vertex 45 30 -15
      vertex 50 30 -5
      vertex 55 30 -15
    endloop
  endfacet
  facet normal 0 1 0
    outer loop
      vertex 50 30 -5
      vertex 45 30 -15
      vertex 45 30 -7
    endloop
  endfacet
  facet normal 0 1 0
    outer loop
      vertex 35 30 -5
      vertex 45 30 -7
      vertex 35 30 -7
    endloop
  endfacet
  facet normal 0 -1 0
    outer loop
      vertex -35 20 -5
      vertex -25 20 -7
      vertex -15 20 -5
    endloop
  endfacet
  facet normal 0 -1 0
    outer loop
      vertex -35 20 -15
      vertex -25 20 -7
      vertex -35 20 -5
    endloop
  endfacet
  facet normal 0 -1 -0
    outer loop
      vertex -25 20 -7
      vertex -35 20 -15
      vertex -25 20 -15
    endloop
  endfacet
  facet normal 0 -1 -0
    outer loop
      vertex -15 20 -5
      vertex -25 20 -7
      vertex -15 20 -7
    endloop
  endfacet
  facet normal 1 -0 0
    outer loop
      vertex -25 20 -7
      vertex -25 30 -15
      vertex -25 30 -7
    endloop
  endfacet
  facet normal 1 0 0
    outer loop
      vertex -25 30 -15
      vertex -25 20 -7
      vertex -25 20 -15
    endloop
  endfacet
  facet normal 0 0 -1
    outer loop
      vertex -35 20 -15
      vertex -25 30 -15
      vertex -25 20 -15
    endloop
  endfacet
  facet normal -0 0 -1
    outer loop
      vertex -25 30 -15
      vertex -35 20 -15
      vertex -35 30 -15
    endloop
  endfacet
  facet normal 1 -0 0
    outer loop
      vertex 55 -20 -5
      vertex 55 -10 -15
      vertex 55 -10 -5
    endloop
  endfacet
  facet normal 1 0 0
    outer loop
      vertex 55 -10 -15
      vertex 55 -20 -5
      vertex 55 -20 -15
    endloop
  endfacet
  facet normal 0 0 -1
    outer loop
      vertex 35 -20 -7
      vertex 45 -10 -7
      vertex 45 -20 -7
    endloop
  endfacet
  facet normal -0 0 -1
    outer loop
      vertex 45 -10 -7
      vertex 35 -20 -7
      vertex 35 -10 -7
    endloop
  endfacet
  facet normal -1 0 0
    outer loop
      vertex 35 -20 -7
      vertex 35 -10 -5
      vertex 35 -10 -7
    endloop
  endfacet
  facet normal -1 -0 0
    outer loop
      vertex 35 -10 -5
      vertex 35 -20 -7
      vertex 35 -20 -5
    endloop
  endfacet
  facet normal 0 1 -0
    outer loop
      vertex 55 -10 -15
      vertex 50 -10 -5
      vertex 55 -10 -5
    endloop
  endfacet
  facet normal 0 1 0
    outer loop
      vertex 50 -10 -5
      vertex 45 -10 -7
      vertex 35 -10 -5
    endloop
  endfacet
  facet normal 0 1 0
    outer loop
      vertex 45 -10 -15
      vertex 50 -10 -5
      vertex 55 -10 -15
    endloop
  endfacet
  facet normal 0 1 0
    outer loop
      vertex 50 -10 -5
      vertex 45 -10 -15
      vertex 45 -10 -7
    endloop
  endfacet
  facet normal 0 1 0
    outer loop
      vertex 35 -10 -5
      vertex 45 -10 -7
      vertex 35 -10 -7
    endloop
  endfacet
  facet normal 0 -1 0
    outer loop
      vertex 45 -20 -7
      vertex 50 -20 -5
      vertex 35 -20 -5
    endloop
  endfacet
  facet normal 0 -1 0
    outer loop
      vertex 45 -20 -7
      vertex 35 -20 -5
      vertex 35 -20 -7
    endloop
  endfacet
  facet normal 0 -1 0
    outer loop
      vertex 45 -20 -15
      vertex 50 -20 -5
      vertex 45 -20 -7
    endloop
  endfacet
  facet normal 0 -1 -0
    outer loop
      vertex 50 -20 -5
      vertex 45 -20 -15
      vertex 55 -20 -15
    endloop
  endfacet
  facet normal 0 -1 0
    outer loop
      vertex 50 -20 -5
      vertex 55 -20 -15
      vertex 55 -20 -5
    endloop
  endfacet
  facet normal 0 0 -1
    outer loop
      vertex 45 -20 -15
      vertex 55 -10 -15
      vertex 55 -20 -15
    endloop
  endfacet
  facet normal -0 0 -1
    outer loop
      vertex 55 -10 -15
      vertex 45 -20 -15
      vertex 45 -10 -15
    endloop
  endfacet
  facet normal -1 0 0
    outer loop
      vertex 45 -20 -15
      vertex 45 -10 -7
      vertex 45 -10 -15
    endloop
  endfacet
  facet normal -1 -0 0
    outer loop
      vertex 45 -10 -7
      vertex 45 -20 -15
      vertex 45 -20 -7
    endloop
  endfacet
  facet normal 1 -0 0
    outer loop
      vertex 55 20 -5
      vertex 55 30 -15
      vertex 55 30 -5
    endloop
  endfacet
  facet normal 1 0 0
    outer loop
      vertex 55 30 -15
      vertex 55 20 -5
      vertex 55 20 -15
    endloop
  endfacet
  facet normal 0 0 -1
    outer loop
      vertex 35 20 -7
      vertex 45 30 -7
      vertex 45 20 -7
    endloop
  endfacet
  facet normal -0 0 -1
    outer loop
      vertex 45 30 -7
      vertex 35 20 -7
      vertex 35 30 -7
    endloop
  endfacet
  facet normal -1 0 0
    outer loop
      vertex 35 20 -7
      vertex 35 30 -5
      vertex 35 30 -7
    endloop
  endfacet
  facet normal -1 -0 0
    outer loop
      vertex 35 30 -5
      vertex 35 20 -7
      vertex 35 20 -5
    endloop
  endfacet
  facet normal 0 -1 0
    outer loop
      vertex 45 20 -7
      vertex 50 20 -5
      vertex 35 20 -5
    endloop
  endfacet
  facet normal 0 -1 0
    outer loop
      vertex 45 20 -7
      vertex 35 20 -5
      vertex 35 20 -7
    endloop
  endfacet
  facet normal 0 -1 0
    outer loop
      vertex 45 20 -15
      vertex 50 20 -5
      vertex 45 20 -7
    endloop
  endfacet
  facet normal 0 -1 -0
    outer loop
      vertex 50 20 -5
      vertex 45 20 -15
      vertex 55 20 -15
    endloop
  endfacet
  facet normal 0 -1 0
    outer loop
      vertex 50 20 -5
      vertex 55 20 -15
      vertex 55 20 -5
    endloop
  endfacet
  facet normal 0 0 -1
    outer loop
      vertex 45 20 -15
      vertex 55 30 -15
      vertex 55 20 -15
    endloop
  endfacet
  facet normal -0 0 -1
    outer loop
      vertex 55 30 -15
      vertex 45 20 -15
      vertex 45 30 -15
    endloop
  endfacet
  facet normal -1 0 0
    outer loop
      vertex 45 20 -15
      vertex 45 30 -7
      vertex 45 30 -15
    endloop
  endfacet
  facet normal -1 -0 0
    outer loop
      vertex 45 30 -7
      vertex 45 20 -15
      vertex 45 20 -7
    endloop
  endfacet
  facet normal 1 0 0
    outer loop
      vertex 50 30 0
      vertex 50 20 -5
      vertex 50 30 -5
    endloop
  endfacet
  facet normal 1 0 0
    outer loop
      vertex 50 30 0
      vertex 50 -10 -5
      vertex 50 20 -5
    endloop
  endfacet
  facet normal 1 -0 0
    outer loop
      vertex 50 -30 0
      vertex 50 -10 -5
      vertex 50 30 0
    endloop
  endfacet
  facet normal 1 0 0
    outer loop
      vertex 50 -10 -5
      vertex 50 -30 0
      vertex 50 -20 -5
    endloop
  endfacet
  facet normal 1 0 0
    outer loop
      vertex 50 -20 -5
      vertex 50 -30 0
      vertex 50 -30 -5
    endloop
  endfacet
  facet normal -0 0 1
    outer loop
      vertex -50 30 0
      vertex 50 -30 0
      vertex 50 30 0
    endloop
  endfacet
  facet normal 0 0 1
    outer loop
      vertex 50 -30 0
      vertex -50 30 0
      vertex -50 -30 0
    endloop
  endfacet
  facet normal -1 0 0
    outer loop
      vertex -50 -30 -5
      vertex -50 30 0
      vertex -50 30 -5
    endloop
  endfacet
  facet normal -1 -0 0
    outer loop
      vertex -50 30 0
      vertex -50 -30 -5
      vertex -50 -30 0
    endloop
  endfacet
  facet normal 0 -1 0
    outer loop
      vertex -50 -30 -5
      vertex 50 -30 0
      vertex -50 -30 0
    endloop
  endfacet
  facet normal 0 -1 -0
    outer loop
      vertex 50 -30 0
      vertex -50 -30 -5
      vertex 50 -30 -5
    endloop
  endfacet
endsolid OpenSCAD_Model
