solid OpenSCAD_Model
  facet normal 1 0 0
    outer loop
      vertex 100 4 37
      vertex 100 0 37
      vertex 100 4 2
    endloop
  endfacet
  facet normal 1 -0 0
    outer loop
      vertex 100 4 2
      vertex 100 60 0
      vertex 100 60 2
    endloop
  endfacet
  facet normal 1 0 0
    outer loop
      vertex 100 4 2
      vertex 100 0 0
      vertex 100 60 0
    endloop
  endfacet
  facet normal 1 0 0
    outer loop
      vertex 100 0 0
      vertex 100 4 2
      vertex 100 0 37
    endloop
  endfacet
  facet normal 0 0 1
    outer loop
      vertex 45 25 2
      vertex 100 60 2
      vertex 45 40 2
    endloop
  endfacet
  facet normal -0 0 1
    outer loop
      vertex 0 60 2
      vertex 45 40 2
      vertex 100 60 2
    endloop
  endfacet
  facet normal 0 0 1
    outer loop
      vertex 20 40 2
      vertex 0 60 2
      vertex 20 25 2
    endloop
  endfacet
  facet normal 0 0 1
    outer loop
      vertex 45 40 2
      vertex 0 60 2
      vertex 20 40 2
    endloop
  endfacet
  facet normal 0 0 1
    outer loop
      vertex 100 60 2
      vertex 45 25 2
      vertex 100 4 2
    endloop
  endfacet
  facet normal 0 0 1
    outer loop
      vertex 0 4 2
      vertex 45 25 2
      vertex 20 25 2
    endloop
  endfacet
  facet normal 0 0 1
    outer loop
      vertex 45 25 2
      vertex 0 4 2
      vertex 100 4 2
    endloop
  endfacet
  facet normal 0 0 1
    outer loop
      vertex 0 4 2
      vertex 20 25 2
      vertex 0 60 2
    endloop
  endfacet
  facet normal 0 0 -1
    outer loop
      vertex 100 0 0
      vertex 45 25 0
      vertex 100 60 0
    endloop
  endfacet
  facet normal 0 0 -1
    outer loop
      vertex 0 0 0
      vertex 45 25 0
      vertex 100 0 0
    endloop
  endfacet
  facet normal 0 0 -1
    outer loop
      vertex 0 60 0
      vertex 20 25 0
      vertex 0 0 0
    endloop
  endfacet
  facet normal -0 0 -1
    outer loop
      vertex 45 25 0
      vertex 0 0 0
      vertex 20 25 0
    endloop
  endfacet
  facet normal 0 0 -1
    outer loop
      vertex 45 40 0
      vertex 100 60 0
      vertex 45 25 0
    endloop
  endfacet
  facet normal 0 0 -1
    outer loop
      vertex 0 60 0
      vertex 45 40 0
      vertex 20 40 0
    endloop
  endfacet
  facet normal 0 0 -1
    outer loop
      vertex 45 40 0
      vertex 0 60 0
      vertex 100 60 0
    endloop
  endfacet
  facet normal 0 0 -1
    outer loop
      vertex 20 25 0
      vertex 0 60 0
      vertex 20 40 0
    endloop
  endfacet
  facet normal -1 0 0
    outer loop
      vertex 0 60 0
      vertex 0 4 2
      vertex 0 60 2
    endloop
  endfacet
  facet normal -1 0 0
    outer loop
      vertex 0 0 0
      vertex 0 4 2
      vertex 0 60 0
    endloop
  endfacet
  facet normal -1 0 0
    outer loop
      vertex 0 0 37
      vertex 0 4 2
      vertex 0 0 0
    endloop
  endfacet
  facet normal -1 0 0
    outer loop
      vertex 0 4 2
      vertex 0 0 37
      vertex 0 4 37
    endloop
  endfacet
  facet normal 0 1 -0
    outer loop
      vertex 100 60 0
      vertex 0 60 2
      vertex 100 60 2
    endloop
  endfacet
  facet normal 0 1 0
    outer loop
      vertex 0 60 2
      vertex 100 60 0
      vertex 0 60 0
    endloop
  endfacet
  facet normal 0 -1 0
    outer loop
      vertex 0 0 37
      vertex 65 0 29
      vertex 100 0 37
    endloop
  endfacet
  facet normal 0 -1 0
    outer loop
      vertex 39.6864 0 18.9836
      vertex 65 0 29
      vertex 0 0 37
    endloop
  endfacet
  facet normal 0 -1 0
    outer loop
      vertex 40.6237 0 18.9344
      vertex 65 0 29
      vertex 40.3136 0 18.9836
    endloop
  endfacet
  facet normal 0 -1 0
    outer loop
      vertex 40.3136 0 18.9836
      vertex 65 0 29
      vertex 40 0 19
    endloop
  endfacet
  facet normal 0 -1 0
    outer loop
      vertex 65 0 29
      vertex 39.6864 0 18.9836
      vertex 40 0 19
    endloop
  endfacet
  facet normal 0 -1 0
    outer loop
      vertex 0 0 37
      vertex 39.3763 0 18.9344
      vertex 39.6864 0 18.9836
    endloop
  endfacet
  facet normal 0 -1 0
    outer loop
      vertex 0 0 37
      vertex 39.0729 0 18.8532
      vertex 39.3763 0 18.9344
    endloop
  endfacet
  facet normal 0 -1 0
    outer loop
      vertex 0 0 37
      vertex 38.7798 0 18.7406
      vertex 39.0729 0 18.8532
    endloop
  endfacet
  facet normal 0 -1 0
    outer loop
      vertex 0 0 37
      vertex 38.5 0 18.5981
      vertex 38.7798 0 18.7406
    endloop
  endfacet
  facet normal 0 -1 0
    outer loop
      vertex 0 0 37
      vertex 38.2366 0 18.4271
      vertex 38.5 0 18.5981
    endloop
  endfacet
  facet normal 0 -1 0
    outer loop
      vertex 0 0 37
      vertex 37.9926 0 18.2294
      vertex 38.2366 0 18.4271
    endloop
  endfacet
  facet normal 0 -1 0
    outer loop
      vertex 15 0 13
      vertex 37.9926 0 18.2294
      vertex 0 0 37
    endloop
  endfacet
  facet normal 0 -1 0
    outer loop
      vertex 37.9926 0 18.2294
      vertex 15 0 13
      vertex 37.7706 0 18.0074
    endloop
  endfacet
  facet normal 0 -1 0
    outer loop
      vertex 37.7706 0 18.0074
      vertex 15 0 13
      vertex 37.5729 0 17.7634
    endloop
  endfacet
  facet normal 0 -1 0
    outer loop
      vertex 37.5729 0 17.7634
      vertex 15 0 13
      vertex 37.4019 0 17.5
    endloop
  endfacet
  facet normal 0 -1 0
    outer loop
      vertex 37.4019 0 17.5
      vertex 15 0 13
      vertex 37.2594 0 17.2202
    endloop
  endfacet
  facet normal 0 -1 0
    outer loop
      vertex 37.2594 0 17.2202
      vertex 15 0 13
      vertex 37.1468 0 16.9271
    endloop
  endfacet
  facet normal 0 -1 0
    outer loop
      vertex 35 0 13
      vertex 37.1468 0 16.9271
      vertex 15 0 13
    endloop
  endfacet
  facet normal 0 -1 0
    outer loop
      vertex 37.1468 0 16.9271
      vertex 35 0 13
      vertex 37.0656 0 16.6237
    endloop
  endfacet
  facet normal 0 -1 0
    outer loop
      vertex 37.0656 0 16.6237
      vertex 35 0 13
      vertex 37.0164 0 16.3136
    endloop
  endfacet
  facet normal 0 -1 0
    outer loop
      vertex 37.0164 0 16.3136
      vertex 35 0 13
      vertex 37 0 16
    endloop
  endfacet
  facet normal 0 -1 -0
    outer loop
      vertex 37 0 16
      vertex 35 0 13
      vertex 37.0164 0 15.6864
    endloop
  endfacet
  facet normal 0 -1 -0
    outer loop
      vertex 37.0164 0 15.6864
      vertex 35 0 13
      vertex 37.0656 0 15.3763
    endloop
  endfacet
  facet normal 0 -1 -0
    outer loop
      vertex 37.0656 0 15.3763
      vertex 35 0 13
      vertex 37.1468 0 15.0729
    endloop
  endfacet
  facet normal 0 -1 -0
    outer loop
      vertex 37.1468 0 15.0729
      vertex 35 0 13
      vertex 37.2594 0 14.7798
    endloop
  endfacet
  facet normal 0 -1 -0
    outer loop
      vertex 37.4019 0 14.5
      vertex 35 0 13
      vertex 37.5729 0 14.2366
    endloop
  endfacet
  facet normal 0 -1 -0
    outer loop
      vertex 37.5729 0 14.2366
      vertex 35 0 13
      vertex 37.7706 0 13.9926
    endloop
  endfacet
  facet normal 0 -1 -0
    outer loop
      vertex 37.7706 0 13.9926
      vertex 35 0 13
      vertex 37.9926 0 13.7706
    endloop
  endfacet
  facet normal 0 -1 -0
    outer loop
      vertex 37.9926 0 13.7706
      vertex 35 0 13
      vertex 38.2366 0 13.5729
    endloop
  endfacet
  facet normal 0 -1 -0
    outer loop
      vertex 38.7798 0 13.2594
      vertex 35 0 5
      vertex 39.0729 0 13.1468
    endloop
  endfacet
  facet normal 0 -1 0
    outer loop
      vertex 35 0 5
      vertex 38.7798 0 13.2594
      vertex 35 0 13
    endloop
  endfacet
  facet normal 0 -1 -0
    outer loop
      vertex 38.5 0 13.4019
      vertex 35 0 13
      vertex 38.7798 0 13.2594
    endloop
  endfacet
  facet normal 0 -1 -0
    outer loop
      vertex 38.2366 0 13.5729
      vertex 35 0 13
      vertex 38.5 0 13.4019
    endloop
  endfacet
  facet normal 0 -1 -0
    outer loop
      vertex 37.2594 0 14.7798
      vertex 35 0 13
      vertex 37.4019 0 14.5
    endloop
  endfacet
  facet normal 0 -1 0
    outer loop
      vertex 0 0 0
      vertex 15 0 13
      vertex 0 0 37
    endloop
  endfacet
  facet normal 0 -1 -0
    outer loop
      vertex 15 0 5
      vertex 0 0 0
      vertex 35 0 5
    endloop
  endfacet
  facet normal 0 -1 -0
    outer loop
      vertex 15 0 13
      vertex 0 0 0
      vertex 15 0 5
    endloop
  endfacet
  facet normal 0 -1 0
    outer loop
      vertex 77 0 29
      vertex 100 0 37
      vertex 65 0 29
    endloop
  endfacet
  facet normal 0 -1 0
    outer loop
      vertex 77 0 24
      vertex 100 0 37
      vertex 77 0 29
    endloop
  endfacet
  facet normal 0 -1 0
    outer loop
      vertex 40.9271 0 18.8532
      vertex 65 0 29
      vertex 40.6237 0 18.9344
    endloop
  endfacet
  facet normal 0 -1 0
    outer loop
      vertex 41.2202 0 18.7406
      vertex 65 0 29
      vertex 40.9271 0 18.8532
    endloop
  endfacet
  facet normal 0 -1 0
    outer loop
      vertex 41.5 0 18.5981
      vertex 65 0 29
      vertex 41.2202 0 18.7406
    endloop
  endfacet
  facet normal 0 -1 0
    outer loop
      vertex 41.7634 0 18.4271
      vertex 65 0 29
      vertex 41.5 0 18.5981
    endloop
  endfacet
  facet normal 0 -1 0
    outer loop
      vertex 42.0074 0 18.2294
      vertex 65 0 29
      vertex 41.7634 0 18.4271
    endloop
  endfacet
  facet normal 0 -1 0
    outer loop
      vertex 42.2294 0 18.0074
      vertex 65 0 29
      vertex 42.0074 0 18.2294
    endloop
  endfacet
  facet normal 0 -1 -0
    outer loop
      vertex 65 0 29
      vertex 42.2294 0 18.0074
      vertex 65 0 24
    endloop
  endfacet
  facet normal 0 -1 0
    outer loop
      vertex 42.4271 0 17.7634
      vertex 65 0 24
      vertex 42.2294 0 18.0074
    endloop
  endfacet
  facet normal 0 -1 0
    outer loop
      vertex 42.5981 0 17.5
      vertex 65 0 24
      vertex 42.4271 0 17.7634
    endloop
  endfacet
  facet normal 0 -1 0
    outer loop
      vertex 42.7406 0 17.2202
      vertex 65 0 24
      vertex 42.5981 0 17.5
    endloop
  endfacet
  facet normal 0 -1 0
    outer loop
      vertex 42.8532 0 16.9271
      vertex 65 0 24
      vertex 42.7406 0 17.2202
    endloop
  endfacet
  facet normal 0 -1 0
    outer loop
      vertex 42.9344 0 16.6237
      vertex 65 0 24
      vertex 42.8532 0 16.9271
    endloop
  endfacet
  facet normal 0 -1 0
    outer loop
      vertex 42.9836 0 16.3136
      vertex 65 0 24
      vertex 42.9344 0 16.6237
    endloop
  endfacet
  facet normal 0 -1 0
    outer loop
      vertex 43 0 16
      vertex 65 0 24
      vertex 42.9836 0 16.3136
    endloop
  endfacet
  facet normal 0 -1 0
    outer loop
      vertex 42.9836 0 15.6864
      vertex 65 0 24
      vertex 43 0 16
    endloop
  endfacet
  facet normal 0 -1 0
    outer loop
      vertex 42.9344 0 15.3763
      vertex 65 0 24
      vertex 42.9836 0 15.6864
    endloop
  endfacet
  facet normal 0 -1 0
    outer loop
      vertex 42.8532 0 15.0729
      vertex 65 0 24
      vertex 42.9344 0 15.3763
    endloop
  endfacet
  facet normal 0 -1 0
    outer loop
      vertex 42.7406 0 14.7798
      vertex 65 0 24
      vertex 42.8532 0 15.0729
    endloop
  endfacet
  facet normal 0 -1 0
    outer loop
      vertex 42.5981 0 14.5
      vertex 65 0 24
      vertex 42.7406 0 14.7798
    endloop
  endfacet
  facet normal 0 -1 0
    outer loop
      vertex 42.4271 0 14.2366
      vertex 65 0 24
      vertex 42.5981 0 14.5
    endloop
  endfacet
  facet normal 0 -1 0
    outer loop
      vertex 42.2294 0 13.9926
      vertex 65 0 24
      vertex 42.4271 0 14.2366
    endloop
  endfacet
  facet normal 0 -1 0
    outer loop
      vertex 100 0 0
      vertex 65 0 24
      vertex 42.2294 0 13.9926
    endloop
  endfacet
  facet normal 0 -1 0
    outer loop
      vertex 100 0 0
      vertex 42.2294 0 13.9926
      vertex 42.0074 0 13.7706
    endloop
  endfacet
  facet normal 0 -1 0
    outer loop
      vertex 35 0 5
      vertex 42.0074 0 13.7706
      vertex 41.7634 0 13.5729
    endloop
  endfacet
  facet normal 0 -1 0
    outer loop
      vertex 35 0 5
      vertex 41.7634 0 13.5729
      vertex 41.5 0 13.4019
    endloop
  endfacet
  facet normal 0 -1 0
    outer loop
      vertex 35 0 5
      vertex 41.5 0 13.4019
      vertex 41.2202 0 13.2594
    endloop
  endfacet
  facet normal 0 -1 0
    outer loop
      vertex 35 0 5
      vertex 41.2202 0 13.2594
      vertex 40.9271 0 13.1468
    endloop
  endfacet
  facet normal 0 -1 0
    outer loop
      vertex 35 0 5
      vertex 40.3136 0 13.0164
      vertex 40 0 13
    endloop
  endfacet
  facet normal 0 -1 0
    outer loop
      vertex 35 0 5
      vertex 40.6237 0 13.0656
      vertex 40.3136 0 13.0164
    endloop
  endfacet
  facet normal 0 -1 0
    outer loop
      vertex 35 0 5
      vertex 40.9271 0 13.1468
      vertex 40.6237 0 13.0656
    endloop
  endfacet
  facet normal 0 -1 -0
    outer loop
      vertex 42.0074 0 13.7706
      vertex 35 0 5
      vertex 100 0 0
    endloop
  endfacet
  facet normal 0 -1 0
    outer loop
      vertex 77 0 24
      vertex 100 0 0
      vertex 100 0 37
    endloop
  endfacet
  facet normal 0 -1 0
    outer loop
      vertex 65 0 24
      vertex 100 0 0
      vertex 77 0 24
    endloop
  endfacet
  facet normal 0 -1 0
    outer loop
      vertex 100 0 0
      vertex 35 0 5
      vertex 0 0 0
    endloop
  endfacet
  facet normal 0 -1 -0
    outer loop
      vertex 39.0729 0 13.1468
      vertex 35 0 5
      vertex 39.3763 0 13.0656
    endloop
  endfacet
  facet normal 0 -1 -0
    outer loop
      vertex 39.3763 0 13.0656
      vertex 35 0 5
      vertex 39.6864 0 13.0164
    endloop
  endfacet
  facet normal 0 -1 -0
    outer loop
      vertex 39.6864 0 13.0164
      vertex 35 0 5
      vertex 40 0 13
    endloop
  endfacet
  facet normal -0 0 1
    outer loop
      vertex 0 4 37
      vertex 100 0 37
      vertex 100 4 37
    endloop
  endfacet
  facet normal 0 0 1
    outer loop
      vertex 100 0 37
      vertex 0 4 37
      vertex 0 0 37
    endloop
  endfacet
  facet normal 0 1 0
    outer loop
      vertex 65 4 29
      vertex 100 4 37
      vertex 77 4 29
    endloop
  endfacet
  facet normal 0 1 0
    outer loop
      vertex 100 4 37
      vertex 77 4 24
      vertex 77 4 29
    endloop
  endfacet
  facet normal 0 1 0
    outer loop
      vertex 100 4 2
      vertex 65 4 24
      vertex 77 4 24
    endloop
  endfacet
  facet normal 0 1 0
    outer loop
      vertex 65 4 24
      vertex 40.3136 4 18.9836
      vertex 40 4 19
    endloop
  endfacet
  facet normal 0 1 0
    outer loop
      vertex 65 4 24
      vertex 40.6237 4 18.9344
      vertex 40.3136 4 18.9836
    endloop
  endfacet
  facet normal 0 1 0
    outer loop
      vertex 65 4 24
      vertex 40.9271 4 18.8532
      vertex 40.6237 4 18.9344
    endloop
  endfacet
  facet normal 0 1 0
    outer loop
      vertex 65 4 24
      vertex 41.2202 4 18.7406
      vertex 40.9271 4 18.8532
    endloop
  endfacet
  facet normal 0 1 0
    outer loop
      vertex 65 4 24
      vertex 41.5 4 18.5981
      vertex 41.2202 4 18.7406
    endloop
  endfacet
  facet normal 0 1 0
    outer loop
      vertex 65 4 24
      vertex 41.7634 4 18.4271
      vertex 41.5 4 18.5981
    endloop
  endfacet
  facet normal 0 1 0
    outer loop
      vertex 65 4 24
      vertex 42.0074 4 18.2294
      vertex 41.7634 4 18.4271
    endloop
  endfacet
  facet normal 0 1 0
    outer loop
      vertex 65 4 24
      vertex 42.2294 4 18.0074
      vertex 42.0074 4 18.2294
    endloop
  endfacet
  facet normal 0 1 0
    outer loop
      vertex 65 4 24
      vertex 42.4271 4 17.7634
      vertex 42.2294 4 18.0074
    endloop
  endfacet
  facet normal 0 1 0
    outer loop
      vertex 65 4 24
      vertex 42.5981 4 17.5
      vertex 42.4271 4 17.7634
    endloop
  endfacet
  facet normal 0 1 0
    outer loop
      vertex 65 4 24
      vertex 42.7406 4 17.2202
      vertex 42.5981 4 17.5
    endloop
  endfacet
  facet normal 0 1 0
    outer loop
      vertex 65 4 24
      vertex 42.8532 4 16.9271
      vertex 42.7406 4 17.2202
    endloop
  endfacet
  facet normal 0 1 0
    outer loop
      vertex 65 4 24
      vertex 42.9344 4 16.6237
      vertex 42.8532 4 16.9271
    endloop
  endfacet
  facet normal 0 1 0
    outer loop
      vertex 65 4 24
      vertex 42.9836 4 16.3136
      vertex 42.9344 4 16.6237
    endloop
  endfacet
  facet normal 0 1 0
    outer loop
      vertex 65 4 24
      vertex 43 4 16
      vertex 42.9836 4 16.3136
    endloop
  endfacet
  facet normal 0 1 0
    outer loop
      vertex 65 4 24
      vertex 42.9836 4 15.6864
      vertex 43 4 16
    endloop
  endfacet
  facet normal 0 1 0
    outer loop
      vertex 65 4 24
      vertex 42.9344 4 15.3763
      vertex 42.9836 4 15.6864
    endloop
  endfacet
  facet normal 0 1 0
    outer loop
      vertex 65 4 24
      vertex 42.8532 4 15.0729
      vertex 42.9344 4 15.3763
    endloop
  endfacet
  facet normal 0 1 0
    outer loop
      vertex 65 4 24
      vertex 42.7406 4 14.7798
      vertex 42.8532 4 15.0729
    endloop
  endfacet
  facet normal 0 1 0
    outer loop
      vertex 65 4 24
      vertex 42.5981 4 14.5
      vertex 42.7406 4 14.7798
    endloop
  endfacet
  facet normal 0 1 0
    outer loop
      vertex 65 4 24
      vertex 42.4271 4 14.2366
      vertex 42.5981 4 14.5
    endloop
  endfacet
  facet normal 0 1 0
    outer loop
      vertex 65 4 24
      vertex 42.2294 4 13.9926
      vertex 42.4271 4 14.2366
    endloop
  endfacet
  facet normal -0 1 0
    outer loop
      vertex 42.0074 4 13.7706
      vertex 65 4 24
      vertex 100 4 2
    endloop
  endfacet
  facet normal 0 1 0
    outer loop
      vertex 65 4 24
      vertex 42.0074 4 13.7706
      vertex 42.2294 4 13.9926
    endloop
  endfacet
  facet normal -0 1 0
    outer loop
      vertex 35 4 5
      vertex 42.0074 4 13.7706
      vertex 100 4 2
    endloop
  endfacet
  facet normal 0 1 0
    outer loop
      vertex 42.0074 4 13.7706
      vertex 35 4 5
      vertex 41.7634 4 13.5729
    endloop
  endfacet
  facet normal 0 1 0
    outer loop
      vertex 41.7634 4 13.5729
      vertex 35 4 5
      vertex 41.5 4 13.4019
    endloop
  endfacet
  facet normal 0 1 0
    outer loop
      vertex 38.7798 4 13.2594
      vertex 35 4 5
      vertex 35 4 13
    endloop
  endfacet
  facet normal 0 1 0
    outer loop
      vertex 40.3136 4 13.0164
      vertex 35 4 5
      vertex 40 4 13
    endloop
  endfacet
  facet normal 0 1 0
    outer loop
      vertex 40.6237 4 13.0656
      vertex 35 4 5
      vertex 40.3136 4 13.0164
    endloop
  endfacet
  facet normal 0 1 0
    outer loop
      vertex 40.9271 4 13.1468
      vertex 35 4 5
      vertex 40.6237 4 13.0656
    endloop
  endfacet
  facet normal 0 1 0
    outer loop
      vertex 41.5 4 13.4019
      vertex 35 4 5
      vertex 41.2202 4 13.2594
    endloop
  endfacet
  facet normal 0 1 0
    outer loop
      vertex 0 4 2
      vertex 35 4 5
      vertex 100 4 2
    endloop
  endfacet
  facet normal 0 1 0
    outer loop
      vertex 41.2202 4 13.2594
      vertex 35 4 5
      vertex 40.9271 4 13.1468
    endloop
  endfacet
  facet normal 0 1 -0
    outer loop
      vertex 100 4 2
      vertex 77 4 24
      vertex 100 4 37
    endloop
  endfacet
  facet normal 0 1 0
    outer loop
      vertex 100 4 37
      vertex 65 4 29
      vertex 0 4 37
    endloop
  endfacet
  facet normal 0 1 0
    outer loop
      vertex 40 4 19
      vertex 65 4 29
      vertex 65 4 24
    endloop
  endfacet
  facet normal 0 1 0
    outer loop
      vertex 39.6864 4 18.9836
      vertex 65 4 29
      vertex 40 4 19
    endloop
  endfacet
  facet normal 0 1 0
    outer loop
      vertex 65 4 29
      vertex 39.6864 4 18.9836
      vertex 0 4 37
    endloop
  endfacet
  facet normal 0 1 -0
    outer loop
      vertex 39.3763 4 18.9344
      vertex 0 4 37
      vertex 39.6864 4 18.9836
    endloop
  endfacet
  facet normal 0 1 -0
    outer loop
      vertex 39.0729 4 18.8532
      vertex 0 4 37
      vertex 39.3763 4 18.9344
    endloop
  endfacet
  facet normal 0 1 -0
    outer loop
      vertex 38.7798 4 18.7406
      vertex 0 4 37
      vertex 39.0729 4 18.8532
    endloop
  endfacet
  facet normal 0 1 -0
    outer loop
      vertex 38.5 4 18.5981
      vertex 0 4 37
      vertex 38.7798 4 18.7406
    endloop
  endfacet
  facet normal 0 1 -0
    outer loop
      vertex 38.2366 4 18.4271
      vertex 0 4 37
      vertex 38.5 4 18.5981
    endloop
  endfacet
  facet normal 0 1 -0
    outer loop
      vertex 37.9926 4 18.2294
      vertex 0 4 37
      vertex 38.2366 4 18.4271
    endloop
  endfacet
  facet normal 0 1 0
    outer loop
      vertex 15 4 13
      vertex 37.9926 4 18.2294
      vertex 37.7706 4 18.0074
    endloop
  endfacet
  facet normal 0 1 0
    outer loop
      vertex 15 4 13
      vertex 37.7706 4 18.0074
      vertex 37.5729 4 17.7634
    endloop
  endfacet
  facet normal 0 1 0
    outer loop
      vertex 15 4 13
      vertex 37.5729 4 17.7634
      vertex 37.4019 4 17.5
    endloop
  endfacet
  facet normal 0 1 0
    outer loop
      vertex 15 4 13
      vertex 37.4019 4 17.5
      vertex 37.2594 4 17.2202
    endloop
  endfacet
  facet normal 0 1 0
    outer loop
      vertex 15 4 13
      vertex 37.2594 4 17.2202
      vertex 37.1468 4 16.9271
    endloop
  endfacet
  facet normal 0 1 0
    outer loop
      vertex 35 4 13
      vertex 37.1468 4 16.9271
      vertex 37.0656 4 16.6237
    endloop
  endfacet
  facet normal 0 1 0
    outer loop
      vertex 35 4 13
      vertex 37.0656 4 16.6237
      vertex 37.0164 4 16.3136
    endloop
  endfacet
  facet normal 0 1 0
    outer loop
      vertex 35 4 13
      vertex 37.0164 4 16.3136
      vertex 37 4 16
    endloop
  endfacet
  facet normal 0 1 0
    outer loop
      vertex 35 4 13
      vertex 37 4 16
      vertex 37.0164 4 15.6864
    endloop
  endfacet
  facet normal 0 1 0
    outer loop
      vertex 35 4 13
      vertex 37.0164 4 15.6864
      vertex 37.0656 4 15.3763
    endloop
  endfacet
  facet normal 0 1 0
    outer loop
      vertex 35 4 13
      vertex 37.0656 4 15.3763
      vertex 37.1468 4 15.0729
    endloop
  endfacet
  facet normal 0 1 0
    outer loop
      vertex 35 4 13
      vertex 37.1468 4 15.0729
      vertex 37.2594 4 14.7798
    endloop
  endfacet
  facet normal 0 1 0
    outer loop
      vertex 35 4 13
      vertex 37.2594 4 14.7798
      vertex 37.4019 4 14.5
    endloop
  endfacet
  facet normal 0 1 0
    outer loop
      vertex 35 4 13
      vertex 37.4019 4 14.5
      vertex 37.5729 4 14.2366
    endloop
  endfacet
  facet normal 0 1 0
    outer loop
      vertex 35 4 13
      vertex 37.5729 4 14.2366
      vertex 37.7706 4 13.9926
    endloop
  endfacet
  facet normal 0 1 0
    outer loop
      vertex 35 4 13
      vertex 37.7706 4 13.9926
      vertex 37.9926 4 13.7706
    endloop
  endfacet
  facet normal 0 1 0
    outer loop
      vertex 35 4 13
      vertex 37.9926 4 13.7706
      vertex 38.2366 4 13.5729
    endloop
  endfacet
  facet normal 0 1 0
    outer loop
      vertex 35 4 13
      vertex 38.2366 4 13.5729
      vertex 38.5 4 13.4019
    endloop
  endfacet
  facet normal 0 1 0
    outer loop
      vertex 35 4 5
      vertex 39.6864 4 13.0164
      vertex 40 4 13
    endloop
  endfacet
  facet normal 0 1 0
    outer loop
      vertex 35 4 5
      vertex 39.3763 4 13.0656
      vertex 39.6864 4 13.0164
    endloop
  endfacet
  facet normal 0 1 0
    outer loop
      vertex 35 4 5
      vertex 39.0729 4 13.1468
      vertex 39.3763 4 13.0656
    endloop
  endfacet
  facet normal 0 1 0
    outer loop
      vertex 35 4 5
      vertex 38.7798 4 13.2594
      vertex 39.0729 4 13.1468
    endloop
  endfacet
  facet normal 0 1 0
    outer loop
      vertex 35 4 13
      vertex 38.5 4 13.4019
      vertex 38.7798 4 13.2594
    endloop
  endfacet
  facet normal 0 1 0
    outer loop
      vertex 37.1468 4 16.9271
      vertex 35 4 13
      vertex 15 4 13
    endloop
  endfacet
  facet normal 0 1 0
    outer loop
      vertex 37.9926 4 18.2294
      vertex 15 4 13
      vertex 0 4 37
    endloop
  endfacet
  facet normal 0 1 0
    outer loop
      vertex 0 4 2
      vertex 15 4 13
      vertex 15 4 5
    endloop
  endfacet
  facet normal 0 1 0
    outer loop
      vertex 15 4 13
      vertex 0 4 2
      vertex 0 4 37
    endloop
  endfacet
  facet normal 0 1 0
    outer loop
      vertex 35 4 5
      vertex 0 4 2
      vertex 15 4 5
    endloop
  endfacet
  facet normal -1 0 0
    outer loop
      vertex 45 25 0
      vertex 45 40 2
      vertex 45 40 0
    endloop
  endfacet
  facet normal -1 -0 0
    outer loop
      vertex 45 40 2
      vertex 45 25 0
      vertex 45 25 2
    endloop
  endfacet
  facet normal 1 -0 0
    outer loop
      vertex 20 25 2
      vertex 20 40 0
      vertex 20 40 2
    endloop
  endfacet
  facet normal 1 0 0
    outer loop
      vertex 20 40 0
      vertex 20 25 2
      vertex 20 25 0
    endloop
  endfacet
  facet normal 0 -1 0
    outer loop
      vertex 20 40 0
      vertex 45 40 2
      vertex 20 40 2
    endloop
  endfacet
  facet normal 0 -1 -0
    outer loop
      vertex 45 40 2
      vertex 20 40 0
      vertex 45 40 0
    endloop
  endfacet
  facet normal 0 1 -0
    outer loop
      vertex 45 25 0
      vertex 20 25 2
      vertex 45 25 2
    endloop
  endfacet
  facet normal 0 1 0
    outer loop
      vertex 20 25 2
      vertex 45 25 0
      vertex 20 25 0
    endloop
  endfacet
  facet normal -1 0 0
    outer loop
      vertex 35 0 5
      vertex 35 4 13
      vertex 35 4 5
    endloop
  endfacet
  facet normal -1 -0 0
    outer loop
      vertex 35 4 13
      vertex 35 0 5
      vertex 35 0 13
    endloop
  endfacet
  facet normal 0 0 -1
    outer loop
      vertex 15 0 13
      vertex 35 4 13
      vertex 35 0 13
    endloop
  endfacet
  facet normal -0 0 -1
    outer loop
      vertex 35 4 13
      vertex 15 0 13
      vertex 15 4 13
    endloop
  endfacet
  facet normal -0 0 1
    outer loop
      vertex 15 4 5
      vertex 35 0 5
      vertex 35 4 5
    endloop
  endfacet
  facet normal 0 0 1
    outer loop
      vertex 35 0 5
      vertex 15 4 5
      vertex 15 0 5
    endloop
  endfacet
  facet normal 1 -0 0
    outer loop
      vertex 15 0 13
      vertex 15 4 5
      vertex 15 4 13
    endloop
  endfacet
  facet normal 1 0 0
    outer loop
      vertex 15 4 5
      vertex 15 0 13
      vertex 15 0 5
    endloop
  endfacet
  facet normal -1 0 0
    outer loop
      vertex 77 0 24
      vertex 77 4 29
      vertex 77 4 24
    endloop
  endfacet
  facet normal -1 -0 0
    outer loop
      vertex 77 4 29
      vertex 77 0 24
      vertex 77 0 29
    endloop
  endfacet
  facet normal 0 0 -1
    outer loop
      vertex 65 0 29
      vertex 77 4 29
      vertex 77 0 29
    endloop
  endfacet
  facet normal -0 0 -1
    outer loop
      vertex 77 4 29
      vertex 65 0 29
      vertex 65 4 29
    endloop
  endfacet
  facet normal -0 0 1
    outer loop
      vertex 65 4 24
      vertex 77 0 24
      vertex 77 4 24
    endloop
  endfacet
  facet normal 0 0 1
    outer loop
      vertex 77 0 24
      vertex 65 4 24
      vertex 65 0 24
    endloop
  endfacet
  facet normal 1 -0 0
    outer loop
      vertex 65 0 29
      vertex 65 4 24
      vertex 65 4 29
    endloop
  endfacet
  facet normal 1 0 0
    outer loop
      vertex 65 4 24
      vertex 65 0 29
      vertex 65 0 24
    endloop
  endfacet
  facet normal 0.156699 0 -0.987646
    outer loop
      vertex 39.3763 0 18.9344
      vertex 39.6864 4 18.9836
      vertex 39.6864 0 18.9836
    endloop
  endfacet
  facet normal 0.156699 0 -0.987646
    outer loop
      vertex 39.6864 4 18.9836
      vertex 39.3763 0 18.9344
      vertex 39.3763 4 18.9344
    endloop
  endfacet
  facet normal -0.987646 0 -0.156699
    outer loop
      vertex 42.9836 0 16.3136
      vertex 42.9344 4 16.6237
      vertex 42.9836 4 16.3136
    endloop
  endfacet
  facet normal -0.987646 -0 -0.156699
    outer loop
      vertex 42.9344 4 16.6237
      vertex 42.9836 0 16.3136
      vertex 42.9344 0 16.6237
    endloop
  endfacet
  facet normal -0.998635 0 -0.0522246
    outer loop
      vertex 43 0 16
      vertex 42.9836 4 16.3136
      vertex 43 4 16
    endloop
  endfacet
  facet normal -0.998635 -0 -0.0522246
    outer loop
      vertex 42.9836 4 16.3136
      vertex 43 0 16
      vertex 42.9836 0 16.3136
    endloop
  endfacet
  facet normal 0.453826 0 -0.891091
    outer loop
      vertex 38.5 0 18.5981
      vertex 38.7798 4 18.7406
      vertex 38.7798 0 18.7406
    endloop
  endfacet
  facet normal 0.453826 0 -0.891091
    outer loop
      vertex 38.7798 4 18.7406
      vertex 38.5 0 18.5981
      vertex 38.5 4 18.5981
    endloop
  endfacet
  facet normal 0.707107 0 -0.707107
    outer loop
      vertex 37.9926 0 18.2294
      vertex 37.7706 4 18.0074
      vertex 37.9926 4 18.2294
    endloop
  endfacet
  facet normal 0.707107 0 -0.707107
    outer loop
      vertex 37.7706 4 18.0074
      vertex 37.9926 0 18.2294
      vertex 37.7706 0 18.0074
    endloop
  endfacet
  facet normal -0.891091 0 0.453826
    outer loop
      vertex 42.5981 0 14.5
      vertex 42.7406 4 14.7798
      vertex 42.5981 4 14.5
    endloop
  endfacet
  facet normal -0.891091 0 0.453826
    outer loop
      vertex 42.7406 4 14.7798
      vertex 42.5981 0 14.5
      vertex 42.7406 0 14.7798
    endloop
  endfacet
  facet normal 0.258534 0 0.966002
    outer loop
      vertex 39.0729 4 13.1468
      vertex 39.3763 0 13.0656
      vertex 39.3763 4 13.0656
    endloop
  endfacet
  facet normal 0.258534 0 0.966002
    outer loop
      vertex 39.3763 0 13.0656
      vertex 39.0729 4 13.1468
      vertex 39.0729 0 13.1468
    endloop
  endfacet
  facet normal 0.933485 -0 0.358616
    outer loop
      vertex 37.1468 0 15.0729
      vertex 37.2594 4 14.7798
      vertex 37.1468 4 15.0729
    endloop
  endfacet
  facet normal 0.933485 0 0.358616
    outer loop
      vertex 37.2594 4 14.7798
      vertex 37.1468 0 15.0729
      vertex 37.2594 0 14.7798
    endloop
  endfacet
  facet normal 0.258534 0 -0.966002
    outer loop
      vertex 39.0729 0 18.8532
      vertex 39.3763 4 18.9344
      vertex 39.3763 0 18.9344
    endloop
  endfacet
  facet normal 0.258534 0 -0.966002
    outer loop
      vertex 39.3763 4 18.9344
      vertex 39.0729 0 18.8532
      vertex 39.0729 4 18.8532
    endloop
  endfacet
  facet normal 0.0522246 0 -0.998635
    outer loop
      vertex 39.6864 0 18.9836
      vertex 40 4 19
      vertex 40 0 19
    endloop
  endfacet
  facet normal 0.0522246 0 -0.998635
    outer loop
      vertex 40 4 19
      vertex 39.6864 0 18.9836
      vertex 39.6864 4 18.9836
    endloop
  endfacet
  facet normal -0.358616 0 0.933485
    outer loop
      vertex 40.9271 4 13.1468
      vertex 41.2202 0 13.2594
      vertex 41.2202 4 13.2594
    endloop
  endfacet
  facet normal -0.358616 0 0.933485
    outer loop
      vertex 41.2202 0 13.2594
      vertex 40.9271 4 13.1468
      vertex 40.9271 0 13.1468
    endloop
  endfacet
  facet normal -0.0522246 0 -0.998635
    outer loop
      vertex 40 0 19
      vertex 40.3136 4 18.9836
      vertex 40.3136 0 18.9836
    endloop
  endfacet
  facet normal -0.0522246 0 -0.998635
    outer loop
      vertex 40.3136 4 18.9836
      vertex 40 0 19
      vertex 40 4 19
    endloop
  endfacet
  facet normal -0.258534 0 0.966002
    outer loop
      vertex 40.6237 4 13.0656
      vertex 40.9271 0 13.1468
      vertex 40.9271 4 13.1468
    endloop
  endfacet
  facet normal -0.258534 0 0.966002
    outer loop
      vertex 40.9271 0 13.1468
      vertex 40.6237 4 13.0656
      vertex 40.6237 0 13.0656
    endloop
  endfacet
  facet normal -0.987646 0 0.156699
    outer loop
      vertex 42.9344 0 15.3763
      vertex 42.9836 4 15.6864
      vertex 42.9344 4 15.3763
    endloop
  endfacet
  facet normal -0.987646 0 0.156699
    outer loop
      vertex 42.9836 4 15.6864
      vertex 42.9344 0 15.3763
      vertex 42.9836 0 15.6864
    endloop
  endfacet
  facet normal -0.966002 0 -0.258534
    outer loop
      vertex 42.9344 0 16.6237
      vertex 42.8532 4 16.9271
      vertex 42.9344 4 16.6237
    endloop
  endfacet
  facet normal -0.966002 -0 -0.258534
    outer loop
      vertex 42.8532 4 16.9271
      vertex 42.9344 0 16.6237
      vertex 42.8532 0 16.9271
    endloop
  endfacet
  facet normal -0.358616 0 -0.933485
    outer loop
      vertex 40.9271 0 18.8532
      vertex 41.2202 4 18.7406
      vertex 41.2202 0 18.7406
    endloop
  endfacet
  facet normal -0.358616 0 -0.933485
    outer loop
      vertex 41.2202 4 18.7406
      vertex 40.9271 0 18.8532
      vertex 40.9271 4 18.8532
    endloop
  endfacet
  facet normal 0.987646 -0 0.156699
    outer loop
      vertex 37.0164 0 15.6864
      vertex 37.0656 4 15.3763
      vertex 37.0164 4 15.6864
    endloop
  endfacet
  facet normal 0.987646 0 0.156699
    outer loop
      vertex 37.0656 4 15.3763
      vertex 37.0164 0 15.6864
      vertex 37.0656 0 15.3763
    endloop
  endfacet
  facet normal 0.629537 0 -0.77697
    outer loop
      vertex 37.9926 0 18.2294
      vertex 38.2366 4 18.4271
      vertex 38.2366 0 18.4271
    endloop
  endfacet
  facet normal 0.629537 0 -0.77697
    outer loop
      vertex 38.2366 4 18.4271
      vertex 37.9926 0 18.2294
      vertex 37.9926 4 18.2294
    endloop
  endfacet
  facet normal -0.838749 0 0.544518
    outer loop
      vertex 42.4271 0 14.2366
      vertex 42.5981 4 14.5
      vertex 42.4271 4 14.2366
    endloop
  endfacet
  facet normal -0.838749 0 0.544518
    outer loop
      vertex 42.5981 4 14.5
      vertex 42.4271 0 14.2366
      vertex 42.5981 0 14.5
    endloop
  endfacet
  facet normal 0.544518 0 0.838749
    outer loop
      vertex 38.2366 4 13.5729
      vertex 38.5 0 13.4019
      vertex 38.5 4 13.4019
    endloop
  endfacet
  facet normal 0.544518 0 0.838749
    outer loop
      vertex 38.5 0 13.4019
      vertex 38.2366 4 13.5729
      vertex 38.2366 0 13.5729
    endloop
  endfacet
  facet normal 0.891091 0 -0.453826
    outer loop
      vertex 37.4019 0 17.5
      vertex 37.2594 4 17.2202
      vertex 37.4019 4 17.5
    endloop
  endfacet
  facet normal 0.891091 0 -0.453826
    outer loop
      vertex 37.2594 4 17.2202
      vertex 37.4019 0 17.5
      vertex 37.2594 0 17.2202
    endloop
  endfacet
  facet normal -0.933485 0 -0.358616
    outer loop
      vertex 42.8532 0 16.9271
      vertex 42.7406 4 17.2202
      vertex 42.8532 4 16.9271
    endloop
  endfacet
  facet normal -0.933485 -0 -0.358616
    outer loop
      vertex 42.7406 4 17.2202
      vertex 42.8532 0 16.9271
      vertex 42.7406 0 17.2202
    endloop
  endfacet
  facet normal 0.966002 -0 0.258534
    outer loop
      vertex 37.0656 0 15.3763
      vertex 37.1468 4 15.0729
      vertex 37.0656 4 15.3763
    endloop
  endfacet
  facet normal 0.966002 0 0.258534
    outer loop
      vertex 37.1468 4 15.0729
      vertex 37.0656 0 15.3763
      vertex 37.1468 0 15.0729
    endloop
  endfacet
  facet normal -0.933485 0 0.358616
    outer loop
      vertex 42.7406 0 14.7798
      vertex 42.8532 4 15.0729
      vertex 42.7406 4 14.7798
    endloop
  endfacet
  facet normal -0.933485 0 0.358616
    outer loop
      vertex 42.8532 4 15.0729
      vertex 42.7406 0 14.7798
      vertex 42.8532 0 15.0729
    endloop
  endfacet
  facet normal -0.838749 0 -0.544518
    outer loop
      vertex 42.5981 0 17.5
      vertex 42.4271 4 17.7634
      vertex 42.5981 4 17.5
    endloop
  endfacet
  facet normal -0.838749 -0 -0.544518
    outer loop
      vertex 42.4271 4 17.7634
      vertex 42.5981 0 17.5
      vertex 42.4271 0 17.7634
    endloop
  endfacet
  facet normal -0.77697 0 -0.629537
    outer loop
      vertex 42.4271 0 17.7634
      vertex 42.2294 4 18.0074
      vertex 42.4271 4 17.7634
    endloop
  endfacet
  facet normal -0.77697 -0 -0.629537
    outer loop
      vertex 42.2294 4 18.0074
      vertex 42.4271 0 17.7634
      vertex 42.2294 0 18.0074
    endloop
  endfacet
  facet normal 0.358616 0 0.933485
    outer loop
      vertex 38.7798 4 13.2594
      vertex 39.0729 0 13.1468
      vertex 39.0729 4 13.1468
    endloop
  endfacet
  facet normal 0.358616 0 0.933485
    outer loop
      vertex 39.0729 0 13.1468
      vertex 38.7798 4 13.2594
      vertex 38.7798 0 13.2594
    endloop
  endfacet
  facet normal -0.998635 0 0.0522246
    outer loop
      vertex 42.9836 0 15.6864
      vertex 43 4 16
      vertex 42.9836 4 15.6864
    endloop
  endfacet
  facet normal -0.998635 0 0.0522246
    outer loop
      vertex 43 4 16
      vertex 42.9836 0 15.6864
      vertex 43 0 16
    endloop
  endfacet
  facet normal -0.629537 0 0.77697
    outer loop
      vertex 41.7634 4 13.5729
      vertex 42.0074 0 13.7706
      vertex 42.0074 4 13.7706
    endloop
  endfacet
  facet normal -0.629537 0 0.77697
    outer loop
      vertex 42.0074 0 13.7706
      vertex 41.7634 4 13.5729
      vertex 41.7634 0 13.5729
    endloop
  endfacet
  facet normal 0.77697 -0 0.629537
    outer loop
      vertex 37.5729 0 14.2366
      vertex 37.7706 4 13.9926
      vertex 37.5729 4 14.2366
    endloop
  endfacet
  facet normal 0.77697 0 0.629537
    outer loop
      vertex 37.7706 4 13.9926
      vertex 37.5729 0 14.2366
      vertex 37.7706 0 13.9926
    endloop
  endfacet
  facet normal -0.966002 0 0.258534
    outer loop
      vertex 42.8532 0 15.0729
      vertex 42.9344 4 15.3763
      vertex 42.8532 4 15.0729
    endloop
  endfacet
  facet normal -0.966002 0 0.258534
    outer loop
      vertex 42.9344 4 15.3763
      vertex 42.8532 0 15.0729
      vertex 42.9344 0 15.3763
    endloop
  endfacet
  facet normal 0.544518 0 -0.838749
    outer loop
      vertex 38.2366 0 18.4271
      vertex 38.5 4 18.5981
      vertex 38.5 0 18.5981
    endloop
  endfacet
  facet normal 0.544518 0 -0.838749
    outer loop
      vertex 38.5 4 18.5981
      vertex 38.2366 0 18.4271
      vertex 38.2366 4 18.4271
    endloop
  endfacet
  facet normal 0.998635 0 -0.0522246
    outer loop
      vertex 37.0164 0 16.3136
      vertex 37 4 16
      vertex 37.0164 4 16.3136
    endloop
  endfacet
  facet normal 0.998635 0 -0.0522246
    outer loop
      vertex 37 4 16
      vertex 37.0164 0 16.3136
      vertex 37 0 16
    endloop
  endfacet
  facet normal -0.258534 0 -0.966002
    outer loop
      vertex 40.6237 0 18.9344
      vertex 40.9271 4 18.8532
      vertex 40.9271 0 18.8532
    endloop
  endfacet
  facet normal -0.258534 0 -0.966002
    outer loop
      vertex 40.9271 4 18.8532
      vertex 40.6237 0 18.9344
      vertex 40.6237 4 18.9344
    endloop
  endfacet
  facet normal -0.544518 0 -0.838749
    outer loop
      vertex 41.5 0 18.5981
      vertex 41.7634 4 18.4271
      vertex 41.7634 0 18.4271
    endloop
  endfacet
  facet normal -0.544518 0 -0.838749
    outer loop
      vertex 41.7634 4 18.4271
      vertex 41.5 0 18.5981
      vertex 41.5 4 18.5981
    endloop
  endfacet
  facet normal 0.0522246 0 0.998635
    outer loop
      vertex 39.6864 4 13.0164
      vertex 40 0 13
      vertex 40 4 13
    endloop
  endfacet
  facet normal 0.0522246 0 0.998635
    outer loop
      vertex 40 0 13
      vertex 39.6864 4 13.0164
      vertex 39.6864 0 13.0164
    endloop
  endfacet
  facet normal 0.933485 0 -0.358616
    outer loop
      vertex 37.2594 0 17.2202
      vertex 37.1468 4 16.9271
      vertex 37.2594 4 17.2202
    endloop
  endfacet
  facet normal 0.933485 0 -0.358616
    outer loop
      vertex 37.1468 4 16.9271
      vertex 37.2594 0 17.2202
      vertex 37.1468 0 16.9271
    endloop
  endfacet
  facet normal -0.629537 0 -0.77697
    outer loop
      vertex 41.7634 0 18.4271
      vertex 42.0074 4 18.2294
      vertex 42.0074 0 18.2294
    endloop
  endfacet
  facet normal -0.629537 0 -0.77697
    outer loop
      vertex 42.0074 4 18.2294
      vertex 41.7634 0 18.4271
      vertex 41.7634 4 18.4271
    endloop
  endfacet
  facet normal -0.891091 0 -0.453826
    outer loop
      vertex 42.7406 0 17.2202
      vertex 42.5981 4 17.5
      vertex 42.7406 4 17.2202
    endloop
  endfacet
  facet normal -0.891091 -0 -0.453826
    outer loop
      vertex 42.5981 4 17.5
      vertex 42.7406 0 17.2202
      vertex 42.5981 0 17.5
    endloop
  endfacet
  facet normal 0.77697 0 -0.629537
    outer loop
      vertex 37.7706 0 18.0074
      vertex 37.5729 4 17.7634
      vertex 37.7706 4 18.0074
    endloop
  endfacet
  facet normal 0.77697 0 -0.629537
    outer loop
      vertex 37.5729 4 17.7634
      vertex 37.7706 0 18.0074
      vertex 37.5729 0 17.7634
    endloop
  endfacet
  facet normal -0.453826 0 -0.891091
    outer loop
      vertex 41.2202 0 18.7406
      vertex 41.5 4 18.5981
      vertex 41.5 0 18.5981
    endloop
  endfacet
  facet normal -0.453826 0 -0.891091
    outer loop
      vertex 41.5 4 18.5981
      vertex 41.2202 0 18.7406
      vertex 41.2202 4 18.7406
    endloop
  endfacet
  facet normal 0.453826 0 0.891091
    outer loop
      vertex 38.5 4 13.4019
      vertex 38.7798 0 13.2594
      vertex 38.7798 4 13.2594
    endloop
  endfacet
  facet normal 0.453826 0 0.891091
    outer loop
      vertex 38.7798 0 13.2594
      vertex 38.5 4 13.4019
      vertex 38.5 0 13.4019
    endloop
  endfacet
  facet normal -0.156699 0 0.987646
    outer loop
      vertex 40.3136 4 13.0164
      vertex 40.6237 0 13.0656
      vertex 40.6237 4 13.0656
    endloop
  endfacet
  facet normal -0.156699 0 0.987646
    outer loop
      vertex 40.6237 0 13.0656
      vertex 40.3136 4 13.0164
      vertex 40.3136 0 13.0164
    endloop
  endfacet
  facet normal -0.707107 0 0.707107
    outer loop
      vertex 42.0074 0 13.7706
      vertex 42.2294 4 13.9926
      vertex 42.0074 4 13.7706
    endloop
  endfacet
  facet normal -0.707107 0 0.707107
    outer loop
      vertex 42.2294 4 13.9926
      vertex 42.0074 0 13.7706
      vertex 42.2294 0 13.9926
    endloop
  endfacet
  facet normal -0.707107 0 -0.707107
    outer loop
      vertex 42.2294 0 18.0074
      vertex 42.0074 4 18.2294
      vertex 42.2294 4 18.0074
    endloop
  endfacet
  facet normal -0.707107 -0 -0.707107
    outer loop
      vertex 42.0074 4 18.2294
      vertex 42.2294 0 18.0074
      vertex 42.0074 0 18.2294
    endloop
  endfacet
  facet normal 0.987646 0 -0.156699
    outer loop
      vertex 37.0656 0 16.6237
      vertex 37.0164 4 16.3136
      vertex 37.0656 4 16.6237
    endloop
  endfacet
  facet normal 0.987646 0 -0.156699
    outer loop
      vertex 37.0164 4 16.3136
      vertex 37.0656 0 16.6237
      vertex 37.0164 0 16.3136
    endloop
  endfacet
  facet normal 0.156699 0 0.987646
    outer loop
      vertex 39.3763 4 13.0656
      vertex 39.6864 0 13.0164
      vertex 39.6864 4 13.0164
    endloop
  endfacet
  facet normal 0.156699 0 0.987646
    outer loop
      vertex 39.6864 0 13.0164
      vertex 39.3763 4 13.0656
      vertex 39.3763 0 13.0656
    endloop
  endfacet
  facet normal 0.358616 0 -0.933485
    outer loop
      vertex 38.7798 0 18.7406
      vertex 39.0729 4 18.8532
      vertex 39.0729 0 18.8532
    endloop
  endfacet
  facet normal 0.358616 0 -0.933485
    outer loop
      vertex 39.0729 4 18.8532
      vertex 38.7798 0 18.7406
      vertex 38.7798 4 18.7406
    endloop
  endfacet
  facet normal 0.838749 -0 0.544518
    outer loop
      vertex 37.4019 0 14.5
      vertex 37.5729 4 14.2366
      vertex 37.4019 4 14.5
    endloop
  endfacet
  facet normal 0.838749 0 0.544518
    outer loop
      vertex 37.5729 4 14.2366
      vertex 37.4019 0 14.5
      vertex 37.5729 0 14.2366
    endloop
  endfacet
  facet normal -0.0522246 0 0.998635
    outer loop
      vertex 40 4 13
      vertex 40.3136 0 13.0164
      vertex 40.3136 4 13.0164
    endloop
  endfacet
  facet normal -0.0522246 0 0.998635
    outer loop
      vertex 40.3136 0 13.0164
      vertex 40 4 13
      vertex 40 0 13
    endloop
  endfacet
  facet normal 0.707107 -0 0.707107
    outer loop
      vertex 37.7706 0 13.9926
      vertex 37.9926 4 13.7706
      vertex 37.7706 4 13.9926
    endloop
  endfacet
  facet normal 0.707107 0 0.707107
    outer loop
      vertex 37.9926 4 13.7706
      vertex 37.7706 0 13.9926
      vertex 37.9926 0 13.7706
    endloop
  endfacet
  facet normal 0.629537 0 0.77697
    outer loop
      vertex 37.9926 4 13.7706
      vertex 38.2366 0 13.5729
      vertex 38.2366 4 13.5729
    endloop
  endfacet
  facet normal 0.629537 0 0.77697
    outer loop
      vertex 38.2366 0 13.5729
      vertex 37.9926 4 13.7706
      vertex 37.9926 0 13.7706
    endloop
  endfacet
  facet normal 0.891091 -0 0.453826
    outer loop
      vertex 37.2594 0 14.7798
      vertex 37.4019 4 14.5
      vertex 37.2594 4 14.7798
    endloop
  endfacet
  facet normal 0.891091 0 0.453826
    outer loop
      vertex 37.4019 4 14.5
      vertex 37.2594 0 14.7798
      vertex 37.4019 0 14.5
    endloop
  endfacet
  facet normal -0.77697 0 0.629537
    outer loop
      vertex 42.2294 0 13.9926
      vertex 42.4271 4 14.2366
      vertex 42.2294 4 13.9926
    endloop
  endfacet
  facet normal -0.77697 0 0.629537
    outer loop
      vertex 42.4271 4 14.2366
      vertex 42.2294 0 13.9926
      vertex 42.4271 0 14.2366
    endloop
  endfacet
  facet normal -0.453826 0 0.891091
    outer loop
      vertex 41.2202 4 13.2594
      vertex 41.5 0 13.4019
      vertex 41.5 4 13.4019
    endloop
  endfacet
  facet normal -0.453826 0 0.891091
    outer loop
      vertex 41.5 0 13.4019
      vertex 41.2202 4 13.2594
      vertex 41.2202 0 13.2594
    endloop
  endfacet
  facet normal -0.544518 0 0.838749
    outer loop
      vertex 41.5 4 13.4019
      vertex 41.7634 0 13.5729
      vertex 41.7634 4 13.5729
    endloop
  endfacet
  facet normal -0.544518 0 0.838749
    outer loop
      vertex 41.7634 0 13.5729
      vertex 41.5 4 13.4019
      vertex 41.5 0 13.4019
    endloop
  endfacet
  facet normal 0.838749 0 -0.544518
    outer loop
      vertex 37.5729 0 17.7634
      vertex 37.4019 4 17.5
      vertex 37.5729 4 17.7634
    endloop
  endfacet
  facet normal 0.838749 0 -0.544518
    outer loop
      vertex 37.4019 4 17.5
      vertex 37.5729 0 17.7634
      vertex 37.4019 0 17.5
    endloop
  endfacet
  facet normal -0.156699 0 -0.987646
    outer loop
      vertex 40.3136 0 18.9836
      vertex 40.6237 4 18.9344
      vertex 40.6237 0 18.9344
    endloop
  endfacet
  facet normal -0.156699 0 -0.987646
    outer loop
      vertex 40.6237 4 18.9344
      vertex 40.3136 0 18.9836
      vertex 40.3136 4 18.9836
    endloop
  endfacet
  facet normal 0.966002 0 -0.258534
    outer loop
      vertex 37.1468 0 16.9271
      vertex 37.0656 4 16.6237
      vertex 37.1468 4 16.9271
    endloop
  endfacet
  facet normal 0.966002 0 -0.258534
    outer loop
      vertex 37.0656 4 16.6237
      vertex 37.1468 0 16.9271
      vertex 37.0656 0 16.6237
    endloop
  endfacet
  facet normal 0.998635 -0 0.0522246
    outer loop
      vertex 37 0 16
      vertex 37.0164 4 15.6864
      vertex 37 4 16
    endloop
  endfacet
  facet normal 0.998635 0 0.0522246
    outer loop
      vertex 37.0164 4 15.6864
      vertex 37 0 16
      vertex 37.0164 0 15.6864
    endloop
  endfacet
endsolid OpenSCAD_Model
