solid OpenSCAD_Model
  facet normal 1 0 0
    outer loop
      vertex 120 4 52
      vertex 120 0 52
      vertex 120 4 2
    endloop
  endfacet
  facet normal 1 -0 0
    outer loop
      vertex 120 4 2
      vertex 120 60 0
      vertex 120 60 2
    endloop
  endfacet
  facet normal 1 0 0
    outer loop
      vertex 120 4 2
      vertex 120 0 0
      vertex 120 60 0
    endloop
  endfacet
  facet normal 1 0 0
    outer loop
      vertex 120 0 0
      vertex 120 4 2
      vertex 120 0 52
    endloop
  endfacet
  facet normal 0 0 1
    outer loop
      vertex 120 60 2
      vertex 75 43 2
      vertex 120 4 2
    endloop
  endfacet
  facet normal -0 0 1
    outer loop
      vertex 0 60 2
      vertex 75 43 2
      vertex 120 60 2
    endloop
  endfacet
  facet normal 0 0 1
    outer loop
      vertex 0 4 2
      vertex 35 43 2
      vertex 0 60 2
    endloop
  endfacet
  facet normal 0 0 1
    outer loop
      vertex 75 43 2
      vertex 0 60 2
      vertex 35 43 2
    endloop
  endfacet
  facet normal -0 0 1
    outer loop
      vertex 75 18 2
      vertex 120 4 2
      vertex 75 43 2
    endloop
  endfacet
  facet normal 0 0 1
    outer loop
      vertex 0 4 2
      vertex 75 18 2
      vertex 35 18 2
    endloop
  endfacet
  facet normal 0 0 1
    outer loop
      vertex 75 18 2
      vertex 0 4 2
      vertex 120 4 2
    endloop
  endfacet
  facet normal 0 0 1
    outer loop
      vertex 35 43 2
      vertex 0 4 2
      vertex 35 18 2
    endloop
  endfacet
  facet normal 0 0 -1
    outer loop
      vertex 120 0 0
      vertex 75 18 0
      vertex 120 60 0
    endloop
  endfacet
  facet normal 0 0 -1
    outer loop
      vertex 0 0 0
      vertex 75 18 0
      vertex 120 0 0
    endloop
  endfacet
  facet normal 0 0 -1
    outer loop
      vertex 0 60 0
      vertex 35 18 0
      vertex 0 0 0
    endloop
  endfacet
  facet normal -0 0 -1
    outer loop
      vertex 75 18 0
      vertex 0 0 0
      vertex 35 18 0
    endloop
  endfacet
  facet normal 0 0 -1
    outer loop
      vertex 75 43 0
      vertex 120 60 0
      vertex 75 18 0
    endloop
  endfacet
  facet normal 0 0 -1
    outer loop
      vertex 0 60 0
      vertex 75 43 0
      vertex 35 43 0
    endloop
  endfacet
  facet normal 0 0 -1
    outer loop
      vertex 75 43 0
      vertex 0 60 0
      vertex 120 60 0
    endloop
  endfacet
  facet normal 0 0 -1
    outer loop
      vertex 35 18 0
      vertex 0 60 0
      vertex 35 43 0
    endloop
  endfacet
  facet normal -1 0 0
    outer loop
      vertex 0 60 0
      vertex 0 4 2
      vertex 0 60 2
    endloop
  endfacet
  facet normal -1 0 0
    outer loop
      vertex 0 0 0
      vertex 0 4 2
      vertex 0 60 0
    endloop
  endfacet
  facet normal -1 0 0
    outer loop
      vertex 0 0 52
      vertex 0 4 2
      vertex 0 0 0
    endloop
  endfacet
  facet normal -1 0 0
    outer loop
      vertex 0 4 2
      vertex 0 0 52
      vertex 0 4 52
    endloop
  endfacet
  facet normal 0 1 -0
    outer loop
      vertex 120 60 0
      vertex 0 60 2
      vertex 120 60 2
    endloop
  endfacet
  facet normal 0 1 0
    outer loop
      vertex 0 60 2
      vertex 120 60 0
      vertex 0 60 0
    endloop
  endfacet
  facet normal 0 -1 0
    outer loop
      vertex 95 0 42
      vertex 99.6077 0 36.9846
      vertex 100 0 37
    endloop
  endfacet
  facet normal 0 -1 0
    outer loop
      vertex 95 0 42
      vertex 99.2178 0 36.9384
      vertex 99.6077 0 36.9846
    endloop
  endfacet
  facet normal 0 -1 0
    outer loop
      vertex 95 0 42
      vertex 98.8328 0 36.8618
      vertex 99.2178 0 36.9384
    endloop
  endfacet
  facet normal 0 -1 0
    outer loop
      vertex 95 0 42
      vertex 98.4549 0 36.7553
      vertex 98.8328 0 36.8618
    endloop
  endfacet
  facet normal 0 -1 0
    outer loop
      vertex 95 0 42
      vertex 98.0866 0 36.6194
      vertex 98.4549 0 36.7553
    endloop
  endfacet
  facet normal 0 -1 0
    outer loop
      vertex 95 0 42
      vertex 97.73 0 36.455
      vertex 98.0866 0 36.6194
    endloop
  endfacet
  facet normal 0 -1 0
    outer loop
      vertex 95 0 42
      vertex 97.3875 0 36.2632
      vertex 97.73 0 36.455
    endloop
  endfacet
  facet normal 0 -1 0
    outer loop
      vertex 95 0 42
      vertex 97.0611 0 36.0451
      vertex 97.3875 0 36.2632
    endloop
  endfacet
  facet normal 0 -1 0
    outer loop
      vertex 95 0 42
      vertex 96.7528 0 35.802
      vertex 97.0611 0 36.0451
    endloop
  endfacet
  facet normal 0 -1 0
    outer loop
      vertex 95 0 42
      vertex 96.4645 0 35.5355
      vertex 96.7528 0 35.802
    endloop
  endfacet
  facet normal 0 -1 0
    outer loop
      vertex 95 0 42
      vertex 96.198 0 35.2472
      vertex 96.4645 0 35.5355
    endloop
  endfacet
  facet normal 0 -1 0
    outer loop
      vertex 95 0 42
      vertex 95.9549 0 34.9389
      vertex 96.198 0 35.2472
    endloop
  endfacet
  facet normal 0 -1 0
    outer loop
      vertex 95 0 42
      vertex 95.7368 0 34.6125
      vertex 95.9549 0 34.9389
    endloop
  endfacet
  facet normal 0 -1 0
    outer loop
      vertex 95 0 42
      vertex 95.545 0 34.27
      vertex 95.7368 0 34.6125
    endloop
  endfacet
  facet normal 0 -1 0
    outer loop
      vertex 95 0 42
      vertex 95.3806 0 33.9134
      vertex 95.545 0 34.27
    endloop
  endfacet
  facet normal 0 -1 0
    outer loop
      vertex 95 0 42
      vertex 95.2447 0 33.5451
      vertex 95.3806 0 33.9134
    endloop
  endfacet
  facet normal 0 -1 0
    outer loop
      vertex 95 0 42
      vertex 95.1382 0 33.1672
      vertex 95.2447 0 33.5451
    endloop
  endfacet
  facet normal 0 -1 0
    outer loop
      vertex 95 0 42
      vertex 95.0616 0 32.7822
      vertex 95.1382 0 33.1672
    endloop
  endfacet
  facet normal 0 -1 0
    outer loop
      vertex 95 0 42
      vertex 95.0154 0 32.3923
      vertex 95.0616 0 32.7822
    endloop
  endfacet
  facet normal -0 -1 0
    outer loop
      vertex 95.0154 0 32.3923
      vertex 95 0 42
      vertex 95 0 32
    endloop
  endfacet
  facet normal 0 -1 0
    outer loop
      vertex 0 0 52
      vertex 70 0 42
      vertex 120 0 52
    endloop
  endfacet
  facet normal 0 -1 0
    outer loop
      vertex 60 0 24
      vertex 70 0 42
      vertex 0 0 52
    endloop
  endfacet
  facet normal 0 -1 0
    outer loop
      vertex 96.198 0 28.7528
      vertex 95 0 30
      vertex 70 0 30
    endloop
  endfacet
  facet normal 0 -1 0
    outer loop
      vertex 95 0 30
      vertex 95.7368 0 29.3875
      vertex 95.545 0 29.73
    endloop
  endfacet
  facet normal 0 -1 0
    outer loop
      vertex 95 0 30
      vertex 95.9549 0 29.0611
      vertex 95.7368 0 29.3875
    endloop
  endfacet
  facet normal 0 -1 0
    outer loop
      vertex 95 0 30
      vertex 96.198 0 28.7528
      vertex 95.9549 0 29.0611
    endloop
  endfacet
  facet normal 0 -1 0
    outer loop
      vertex 70 0 30
      vertex 96.4645 0 28.4645
      vertex 96.198 0 28.7528
    endloop
  endfacet
  facet normal 0 -1 0
    outer loop
      vertex 70 0 30
      vertex 96.7528 0 28.198
      vertex 96.4645 0 28.4645
    endloop
  endfacet
  facet normal 0 -1 0
    outer loop
      vertex 60 0 4
      vertex 96.7528 0 28.198
      vertex 70 0 30
    endloop
  endfacet
  facet normal 0 -1 -0
    outer loop
      vertex 96.7528 0 28.198
      vertex 60 0 4
      vertex 97.0611 0 27.9549
    endloop
  endfacet
  facet normal 0 -1 -0
    outer loop
      vertex 97.0611 0 27.9549
      vertex 60 0 4
      vertex 97.3875 0 27.7368
    endloop
  endfacet
  facet normal 0 -1 -0
    outer loop
      vertex 97.3875 0 27.7368
      vertex 60 0 4
      vertex 97.73 0 27.545
    endloop
  endfacet
  facet normal 0 -1 -0
    outer loop
      vertex 97.73 0 27.545
      vertex 60 0 4
      vertex 98.0866 0 27.3806
    endloop
  endfacet
  facet normal 0 -1 -0
    outer loop
      vertex 98.0866 0 27.3806
      vertex 60 0 4
      vertex 98.4549 0 27.2447
    endloop
  endfacet
  facet normal 0 -1 0
    outer loop
      vertex 120 0 0
      vertex 98.4549 0 27.2447
      vertex 60 0 4
    endloop
  endfacet
  facet normal 0 -1 0
    outer loop
      vertex 98.4549 0 27.2447
      vertex 120 0 0
      vertex 98.8328 0 27.1381
    endloop
  endfacet
  facet normal 0 -1 0
    outer loop
      vertex 60 0 4
      vertex 70 0 30
      vertex 60 0 24
    endloop
  endfacet
  facet normal 0 -1 -0
    outer loop
      vertex 70 0 42
      vertex 60 0 24
      vertex 70 0 30
    endloop
  endfacet
  facet normal 0 -1 0
    outer loop
      vertex 60 0 24
      vertex 0 0 52
      vertex 10 0 24
    endloop
  endfacet
  facet normal 0 -1 0
    outer loop
      vertex 0 0 0
      vertex 10 0 24
      vertex 0 0 52
    endloop
  endfacet
  facet normal 0 -1 -0
    outer loop
      vertex 10 0 4
      vertex 0 0 0
      vertex 60 0 4
    endloop
  endfacet
  facet normal 0 -1 -0
    outer loop
      vertex 10 0 24
      vertex 0 0 0
      vertex 10 0 4
    endloop
  endfacet
  facet normal 0 -1 0
    outer loop
      vertex 95 0 42
      vertex 120 0 52
      vertex 70 0 42
    endloop
  endfacet
  facet normal 0 -1 0
    outer loop
      vertex 100.392 0 36.9846
      vertex 95 0 42
      vertex 100 0 37
    endloop
  endfacet
  facet normal 0 -1 0
    outer loop
      vertex 100.782 0 36.9384
      vertex 95 0 42
      vertex 100.392 0 36.9846
    endloop
  endfacet
  facet normal 0 -1 0
    outer loop
      vertex 101.167 0 36.8618
      vertex 95 0 42
      vertex 100.782 0 36.9384
    endloop
  endfacet
  facet normal 0 -1 0
    outer loop
      vertex 101.545 0 36.7553
      vertex 95 0 42
      vertex 101.167 0 36.8618
    endloop
  endfacet
  facet normal 0 -1 0
    outer loop
      vertex 95 0 42
      vertex 101.545 0 36.7553
      vertex 120 0 52
    endloop
  endfacet
  facet normal 0 -1 0
    outer loop
      vertex 101.913 0 36.6194
      vertex 120 0 52
      vertex 101.545 0 36.7553
    endloop
  endfacet
  facet normal 0 -1 0
    outer loop
      vertex 102.27 0 36.455
      vertex 120 0 52
      vertex 101.913 0 36.6194
    endloop
  endfacet
  facet normal 0 -1 0
    outer loop
      vertex 102.612 0 36.2632
      vertex 120 0 52
      vertex 102.27 0 36.455
    endloop
  endfacet
  facet normal 0 -1 0
    outer loop
      vertex 102.939 0 36.0451
      vertex 120 0 52
      vertex 102.612 0 36.2632
    endloop
  endfacet
  facet normal 0 -1 0
    outer loop
      vertex 103.247 0 35.802
      vertex 120 0 52
      vertex 102.939 0 36.0451
    endloop
  endfacet
  facet normal 0 -1 0
    outer loop
      vertex 103.536 0 35.5355
      vertex 120 0 52
      vertex 103.247 0 35.802
    endloop
  endfacet
  facet normal 0 -1 0
    outer loop
      vertex 103.802 0 35.2472
      vertex 120 0 52
      vertex 103.536 0 35.5355
    endloop
  endfacet
  facet normal 0 -1 0
    outer loop
      vertex 104.045 0 34.9389
      vertex 120 0 52
      vertex 103.802 0 35.2472
    endloop
  endfacet
  facet normal 0 -1 0
    outer loop
      vertex 104.263 0 34.6125
      vertex 120 0 52
      vertex 104.045 0 34.9389
    endloop
  endfacet
  facet normal 0 -1 0
    outer loop
      vertex 104.455 0 34.27
      vertex 120 0 52
      vertex 104.263 0 34.6125
    endloop
  endfacet
  facet normal 0 -1 0
    outer loop
      vertex 104.619 0 33.9134
      vertex 120 0 52
      vertex 104.455 0 34.27
    endloop
  endfacet
  facet normal 0 -1 0
    outer loop
      vertex 104.755 0 33.5451
      vertex 120 0 52
      vertex 104.619 0 33.9134
    endloop
  endfacet
  facet normal 0 -1 0
    outer loop
      vertex 104.862 0 33.1672
      vertex 120 0 52
      vertex 104.755 0 33.5451
    endloop
  endfacet
  facet normal 0 -1 0
    outer loop
      vertex 104.938 0 32.7822
      vertex 120 0 52
      vertex 104.862 0 33.1672
    endloop
  endfacet
  facet normal 0 -1 0
    outer loop
      vertex 104.985 0 32.3923
      vertex 120 0 52
      vertex 104.938 0 32.7822
    endloop
  endfacet
  facet normal 0 -1 0
    outer loop
      vertex 105 0 32
      vertex 120 0 52
      vertex 104.985 0 32.3923
    endloop
  endfacet
  facet normal 0 -1 0
    outer loop
      vertex 104.985 0 31.6077
      vertex 120 0 52
      vertex 105 0 32
    endloop
  endfacet
  facet normal 0 -1 0
    outer loop
      vertex 104.938 0 31.2178
      vertex 120 0 52
      vertex 104.985 0 31.6077
    endloop
  endfacet
  facet normal 0 -1 0
    outer loop
      vertex 120 0 0
      vertex 104.938 0 31.2178
      vertex 104.862 0 30.8328
    endloop
  endfacet
  facet normal 0 -1 0
    outer loop
      vertex 120 0 0
      vertex 104.862 0 30.8328
      vertex 104.755 0 30.4549
    endloop
  endfacet
  facet normal 0 -1 0
    outer loop
      vertex 120 0 0
      vertex 104.755 0 30.4549
      vertex 104.619 0 30.0866
    endloop
  endfacet
  facet normal 0 -1 0
    outer loop
      vertex 120 0 0
      vertex 104.619 0 30.0866
      vertex 104.455 0 29.73
    endloop
  endfacet
  facet normal 0 -1 0
    outer loop
      vertex 120 0 0
      vertex 104.455 0 29.73
      vertex 104.263 0 29.3875
    endloop
  endfacet
  facet normal 0 -1 0
    outer loop
      vertex 120 0 0
      vertex 104.263 0 29.3875
      vertex 104.045 0 29.0611
    endloop
  endfacet
  facet normal 0 -1 0
    outer loop
      vertex 98.8328 0 27.1381
      vertex 120 0 0
      vertex 99.2178 0 27.0616
    endloop
  endfacet
  facet normal 0 -1 0
    outer loop
      vertex 99.2178 0 27.0616
      vertex 120 0 0
      vertex 99.6077 0 27.0154
    endloop
  endfacet
  facet normal 0 -1 0
    outer loop
      vertex 99.6077 0 27.0154
      vertex 120 0 0
      vertex 100 0 27
    endloop
  endfacet
  facet normal 0 -1 0
    outer loop
      vertex 100 0 27
      vertex 120 0 0
      vertex 100.392 0 27.0154
    endloop
  endfacet
  facet normal 0 -1 0
    outer loop
      vertex 100.392 0 27.0154
      vertex 120 0 0
      vertex 100.782 0 27.0616
    endloop
  endfacet
  facet normal 0 -1 0
    outer loop
      vertex 100.782 0 27.0616
      vertex 120 0 0
      vertex 101.167 0 27.1381
    endloop
  endfacet
  facet normal 0 -1 0
    outer loop
      vertex 101.167 0 27.1381
      vertex 120 0 0
      vertex 101.545 0 27.2447
    endloop
  endfacet
  facet normal 0 -1 0
    outer loop
      vertex 101.545 0 27.2447
      vertex 120 0 0
      vertex 101.913 0 27.3806
    endloop
  endfacet
  facet normal 0 -1 0
    outer loop
      vertex 104.938 0 31.2178
      vertex 120 0 0
      vertex 120 0 52
    endloop
  endfacet
  facet normal 0 -1 0
    outer loop
      vertex 103.802 0 28.7528
      vertex 120 0 0
      vertex 104.045 0 29.0611
    endloop
  endfacet
  facet normal 0 -1 0
    outer loop
      vertex 103.536 0 28.4645
      vertex 120 0 0
      vertex 103.802 0 28.7528
    endloop
  endfacet
  facet normal 0 -1 0
    outer loop
      vertex 103.247 0 28.198
      vertex 120 0 0
      vertex 103.536 0 28.4645
    endloop
  endfacet
  facet normal 0 -1 0
    outer loop
      vertex 102.939 0 27.9549
      vertex 120 0 0
      vertex 103.247 0 28.198
    endloop
  endfacet
  facet normal 0 -1 0
    outer loop
      vertex 102.612 0 27.7368
      vertex 120 0 0
      vertex 102.939 0 27.9549
    endloop
  endfacet
  facet normal 0 -1 0
    outer loop
      vertex 102.27 0 27.545
      vertex 120 0 0
      vertex 102.612 0 27.7368
    endloop
  endfacet
  facet normal 0 -1 0
    outer loop
      vertex 101.913 0 27.3806
      vertex 120 0 0
      vertex 102.27 0 27.545
    endloop
  endfacet
  facet normal 0 -1 0
    outer loop
      vertex 120 0 0
      vertex 60 0 4
      vertex 0 0 0
    endloop
  endfacet
  facet normal 0 -1 0
    outer loop
      vertex 95 0 30
      vertex 95.0154 0 31.6077
      vertex 95 0 32
    endloop
  endfacet
  facet normal 0 -1 0
    outer loop
      vertex 95 0 30
      vertex 95.0616 0 31.2178
      vertex 95.0154 0 31.6077
    endloop
  endfacet
  facet normal 0 -1 0
    outer loop
      vertex 95 0 30
      vertex 95.1382 0 30.8328
      vertex 95.0616 0 31.2178
    endloop
  endfacet
  facet normal 0 -1 0
    outer loop
      vertex 95 0 30
      vertex 95.2447 0 30.4549
      vertex 95.1382 0 30.8328
    endloop
  endfacet
  facet normal 0 -1 0
    outer loop
      vertex 95 0 30
      vertex 95.3806 0 30.0866
      vertex 95.2447 0 30.4549
    endloop
  endfacet
  facet normal 0 -1 -0
    outer loop
      vertex 95.3806 0 30.0866
      vertex 95 0 30
      vertex 95.545 0 29.73
    endloop
  endfacet
  facet normal -0 0 1
    outer loop
      vertex 0 4 52
      vertex 120 0 52
      vertex 120 4 52
    endloop
  endfacet
  facet normal 0 0 1
    outer loop
      vertex 120 0 52
      vertex 0 4 52
      vertex 0 0 52
    endloop
  endfacet
  facet normal 0 1 0
    outer loop
      vertex 70 4 42
      vertex 120 4 52
      vertex 95 4 42
    endloop
  endfacet
  facet normal 0 1 -0
    outer loop
      vertex 101.545 4 36.7553
      vertex 95 4 42
      vertex 120 4 52
    endloop
  endfacet
  facet normal 0 1 0
    outer loop
      vertex 95 4 42
      vertex 100.392 4 36.9846
      vertex 100 4 37
    endloop
  endfacet
  facet normal 0 1 0
    outer loop
      vertex 95 4 42
      vertex 100.782 4 36.9384
      vertex 100.392 4 36.9846
    endloop
  endfacet
  facet normal 0 1 0
    outer loop
      vertex 95 4 42
      vertex 101.167 4 36.8618
      vertex 100.782 4 36.9384
    endloop
  endfacet
  facet normal 0 1 0
    outer loop
      vertex 95 4 42
      vertex 101.545 4 36.7553
      vertex 101.167 4 36.8618
    endloop
  endfacet
  facet normal 0 1 0
    outer loop
      vertex 120 4 52
      vertex 101.913 4 36.6194
      vertex 101.545 4 36.7553
    endloop
  endfacet
  facet normal 0 1 0
    outer loop
      vertex 120 4 52
      vertex 102.27 4 36.455
      vertex 101.913 4 36.6194
    endloop
  endfacet
  facet normal 0 1 0
    outer loop
      vertex 120 4 52
      vertex 102.612 4 36.2632
      vertex 102.27 4 36.455
    endloop
  endfacet
  facet normal 0 1 0
    outer loop
      vertex 120 4 52
      vertex 102.939 4 36.0451
      vertex 102.612 4 36.2632
    endloop
  endfacet
  facet normal 0 1 0
    outer loop
      vertex 120 4 52
      vertex 103.247 4 35.802
      vertex 102.939 4 36.0451
    endloop
  endfacet
  facet normal 0 1 0
    outer loop
      vertex 120 4 52
      vertex 103.536 4 35.5355
      vertex 103.247 4 35.802
    endloop
  endfacet
  facet normal 0 1 0
    outer loop
      vertex 120 4 52
      vertex 103.802 4 35.2472
      vertex 103.536 4 35.5355
    endloop
  endfacet
  facet normal 0 1 0
    outer loop
      vertex 120 4 52
      vertex 104.045 4 34.9389
      vertex 103.802 4 35.2472
    endloop
  endfacet
  facet normal 0 1 0
    outer loop
      vertex 120 4 52
      vertex 104.263 4 34.6125
      vertex 104.045 4 34.9389
    endloop
  endfacet
  facet normal 0 1 0
    outer loop
      vertex 120 4 52
      vertex 104.455 4 34.27
      vertex 104.263 4 34.6125
    endloop
  endfacet
  facet normal 0 1 0
    outer loop
      vertex 120 4 52
      vertex 104.619 4 33.9134
      vertex 104.455 4 34.27
    endloop
  endfacet
  facet normal 0 1 0
    outer loop
      vertex 120 4 52
      vertex 104.755 4 33.5451
      vertex 104.619 4 33.9134
    endloop
  endfacet
  facet normal 0 1 0
    outer loop
      vertex 120 4 52
      vertex 104.862 4 33.1672
      vertex 104.755 4 33.5451
    endloop
  endfacet
  facet normal 0 1 0
    outer loop
      vertex 120 4 52
      vertex 104.938 4 32.7822
      vertex 104.862 4 33.1672
    endloop
  endfacet
  facet normal 0 1 0
    outer loop
      vertex 120 4 52
      vertex 104.985 4 32.3923
      vertex 104.938 4 32.7822
    endloop
  endfacet
  facet normal 0 1 0
    outer loop
      vertex 120 4 52
      vertex 105 4 32
      vertex 104.985 4 32.3923
    endloop
  endfacet
  facet normal 0 1 0
    outer loop
      vertex 120 4 52
      vertex 104.985 4 31.6077
      vertex 105 4 32
    endloop
  endfacet
  facet normal 0 1 0
    outer loop
      vertex 120 4 52
      vertex 104.938 4 31.2178
      vertex 104.985 4 31.6077
    endloop
  endfacet
  facet normal 0 1 -0
    outer loop
      vertex 120 4 2
      vertex 104.938 4 31.2178
      vertex 120 4 52
    endloop
  endfacet
  facet normal 0 1 0
    outer loop
      vertex 104.938 4 31.2178
      vertex 120 4 2
      vertex 104.862 4 30.8328
    endloop
  endfacet
  facet normal 0 1 0
    outer loop
      vertex 104.862 4 30.8328
      vertex 120 4 2
      vertex 104.755 4 30.4549
    endloop
  endfacet
  facet normal 0 1 0
    outer loop
      vertex 104.755 4 30.4549
      vertex 120 4 2
      vertex 104.619 4 30.0866
    endloop
  endfacet
  facet normal 0 1 0
    outer loop
      vertex 104.619 4 30.0866
      vertex 120 4 2
      vertex 104.455 4 29.73
    endloop
  endfacet
  facet normal 0 1 0
    outer loop
      vertex 104.455 4 29.73
      vertex 120 4 2
      vertex 104.263 4 29.3875
    endloop
  endfacet
  facet normal 0 1 0
    outer loop
      vertex 120 4 2
      vertex 100 4 27
      vertex 100.392 4 27.0154
    endloop
  endfacet
  facet normal 0 1 0
    outer loop
      vertex 100 4 27
      vertex 60 4 4
      vertex 60 4 24
    endloop
  endfacet
  facet normal 0 1 0
    outer loop
      vertex 120 4 2
      vertex 100.392 4 27.0154
      vertex 100.782 4 27.0616
    endloop
  endfacet
  facet normal 0 1 0
    outer loop
      vertex 120 4 2
      vertex 100.782 4 27.0616
      vertex 101.167 4 27.1381
    endloop
  endfacet
  facet normal 0 1 0
    outer loop
      vertex 120 4 2
      vertex 101.167 4 27.1381
      vertex 101.545 4 27.2447
    endloop
  endfacet
  facet normal 0 1 0
    outer loop
      vertex 120 4 2
      vertex 101.545 4 27.2447
      vertex 101.913 4 27.3806
    endloop
  endfacet
  facet normal 0 1 0
    outer loop
      vertex 120 4 2
      vertex 101.913 4 27.3806
      vertex 102.27 4 27.545
    endloop
  endfacet
  facet normal 0 1 0
    outer loop
      vertex 0 4 2
      vertex 60 4 4
      vertex 120 4 2
    endloop
  endfacet
  facet normal 0 1 0
    outer loop
      vertex 100 4 27
      vertex 120 4 2
      vertex 60 4 4
    endloop
  endfacet
  facet normal 0 1 0
    outer loop
      vertex 102.612 4 27.7368
      vertex 120 4 2
      vertex 102.27 4 27.545
    endloop
  endfacet
  facet normal 0 1 0
    outer loop
      vertex 102.939 4 27.9549
      vertex 120 4 2
      vertex 102.612 4 27.7368
    endloop
  endfacet
  facet normal 0 1 0
    outer loop
      vertex 103.247 4 28.198
      vertex 120 4 2
      vertex 102.939 4 27.9549
    endloop
  endfacet
  facet normal 0 1 0
    outer loop
      vertex 103.536 4 28.4645
      vertex 120 4 2
      vertex 103.247 4 28.198
    endloop
  endfacet
  facet normal 0 1 0
    outer loop
      vertex 103.802 4 28.7528
      vertex 120 4 2
      vertex 103.536 4 28.4645
    endloop
  endfacet
  facet normal 0 1 0
    outer loop
      vertex 104.045 4 29.0611
      vertex 120 4 2
      vertex 103.802 4 28.7528
    endloop
  endfacet
  facet normal 0 1 0
    outer loop
      vertex 104.263 4 29.3875
      vertex 120 4 2
      vertex 104.045 4 29.0611
    endloop
  endfacet
  facet normal 0 1 0
    outer loop
      vertex 120 4 52
      vertex 70 4 42
      vertex 0 4 52
    endloop
  endfacet
  facet normal 0 1 0
    outer loop
      vertex 60 4 24
      vertex 70 4 42
      vertex 70 4 30
    endloop
  endfacet
  facet normal 0 1 0
    outer loop
      vertex 95.9549 4 29.0611
      vertex 95 4 30
      vertex 95.7368 4 29.3875
    endloop
  endfacet
  facet normal 0 1 0
    outer loop
      vertex 96.198 4 28.7528
      vertex 95 4 30
      vertex 95.9549 4 29.0611
    endloop
  endfacet
  facet normal 0 1 0
    outer loop
      vertex 95 4 30
      vertex 96.198 4 28.7528
      vertex 70 4 30
    endloop
  endfacet
  facet normal 0 1 0
    outer loop
      vertex 96.4645 4 28.4645
      vertex 70 4 30
      vertex 96.198 4 28.7528
    endloop
  endfacet
  facet normal 0 1 0
    outer loop
      vertex 96.7528 4 28.198
      vertex 70 4 30
      vertex 96.4645 4 28.4645
    endloop
  endfacet
  facet normal 0 1 0
    outer loop
      vertex 97.0611 4 27.9549
      vertex 70 4 30
      vertex 96.7528 4 28.198
    endloop
  endfacet
  facet normal 0 1 0
    outer loop
      vertex 97.3875 4 27.7368
      vertex 70 4 30
      vertex 97.0611 4 27.9549
    endloop
  endfacet
  facet normal 0 1 0
    outer loop
      vertex 60 4 24
      vertex 97.3875 4 27.7368
      vertex 97.73 4 27.545
    endloop
  endfacet
  facet normal 0 1 0
    outer loop
      vertex 60 4 24
      vertex 97.73 4 27.545
      vertex 98.0866 4 27.3806
    endloop
  endfacet
  facet normal 0 1 0
    outer loop
      vertex 60 4 24
      vertex 98.0866 4 27.3806
      vertex 98.4549 4 27.2447
    endloop
  endfacet
  facet normal 0 1 0
    outer loop
      vertex 60 4 24
      vertex 98.4549 4 27.2447
      vertex 98.8328 4 27.1381
    endloop
  endfacet
  facet normal 0 1 0
    outer loop
      vertex 60 4 24
      vertex 98.8328 4 27.1381
      vertex 99.2178 4 27.0616
    endloop
  endfacet
  facet normal 0 1 0
    outer loop
      vertex 60 4 24
      vertex 99.2178 4 27.0616
      vertex 99.6077 4 27.0154
    endloop
  endfacet
  facet normal 0 1 0
    outer loop
      vertex 60 4 24
      vertex 99.6077 4 27.0154
      vertex 100 4 27
    endloop
  endfacet
  facet normal 0 1 0
    outer loop
      vertex 97.3875 4 27.7368
      vertex 60 4 24
      vertex 70 4 30
    endloop
  endfacet
  facet normal 0 1 0
    outer loop
      vertex 70 4 42
      vertex 60 4 24
      vertex 0 4 52
    endloop
  endfacet
  facet normal 0 1 -0
    outer loop
      vertex 10 4 24
      vertex 0 4 52
      vertex 60 4 24
    endloop
  endfacet
  facet normal 0 1 0
    outer loop
      vertex 0 4 2
      vertex 10 4 24
      vertex 10 4 4
    endloop
  endfacet
  facet normal 0 1 0
    outer loop
      vertex 10 4 24
      vertex 0 4 2
      vertex 0 4 52
    endloop
  endfacet
  facet normal 0 1 0
    outer loop
      vertex 60 4 4
      vertex 0 4 2
      vertex 10 4 4
    endloop
  endfacet
  facet normal 0 1 -0
    outer loop
      vertex 99.6077 4 36.9846
      vertex 95 4 42
      vertex 100 4 37
    endloop
  endfacet
  facet normal 0 1 -0
    outer loop
      vertex 99.2178 4 36.9384
      vertex 95 4 42
      vertex 99.6077 4 36.9846
    endloop
  endfacet
  facet normal 0 1 -0
    outer loop
      vertex 98.8328 4 36.8618
      vertex 95 4 42
      vertex 99.2178 4 36.9384
    endloop
  endfacet
  facet normal 0 1 -0
    outer loop
      vertex 98.4549 4 36.7553
      vertex 95 4 42
      vertex 98.8328 4 36.8618
    endloop
  endfacet
  facet normal 0 1 -0
    outer loop
      vertex 98.0866 4 36.6194
      vertex 95 4 42
      vertex 98.4549 4 36.7553
    endloop
  endfacet
  facet normal 0 1 -0
    outer loop
      vertex 97.73 4 36.455
      vertex 95 4 42
      vertex 98.0866 4 36.6194
    endloop
  endfacet
  facet normal 0 1 -0
    outer loop
      vertex 97.3875 4 36.2632
      vertex 95 4 42
      vertex 97.73 4 36.455
    endloop
  endfacet
  facet normal 0 1 -0
    outer loop
      vertex 97.0611 4 36.0451
      vertex 95 4 42
      vertex 97.3875 4 36.2632
    endloop
  endfacet
  facet normal 0 1 -0
    outer loop
      vertex 96.7528 4 35.802
      vertex 95 4 42
      vertex 97.0611 4 36.0451
    endloop
  endfacet
  facet normal 0 1 -0
    outer loop
      vertex 96.4645 4 35.5355
      vertex 95 4 42
      vertex 96.7528 4 35.802
    endloop
  endfacet
  facet normal 0 1 -0
    outer loop
      vertex 96.198 4 35.2472
      vertex 95 4 42
      vertex 96.4645 4 35.5355
    endloop
  endfacet
  facet normal 0 1 -0
    outer loop
      vertex 95.9549 4 34.9389
      vertex 95 4 42
      vertex 96.198 4 35.2472
    endloop
  endfacet
  facet normal 0 1 -0
    outer loop
      vertex 95.7368 4 34.6125
      vertex 95 4 42
      vertex 95.9549 4 34.9389
    endloop
  endfacet
  facet normal 0 1 -0
    outer loop
      vertex 95.545 4 34.27
      vertex 95 4 42
      vertex 95.7368 4 34.6125
    endloop
  endfacet
  facet normal 0 1 -0
    outer loop
      vertex 95.3806 4 33.9134
      vertex 95 4 42
      vertex 95.545 4 34.27
    endloop
  endfacet
  facet normal 0 1 -0
    outer loop
      vertex 95.2447 4 33.5451
      vertex 95 4 42
      vertex 95.3806 4 33.9134
    endloop
  endfacet
  facet normal 0 1 -0
    outer loop
      vertex 95.1382 4 33.1672
      vertex 95 4 42
      vertex 95.2447 4 33.5451
    endloop
  endfacet
  facet normal 0 1 -0
    outer loop
      vertex 95.0616 4 32.7822
      vertex 95 4 42
      vertex 95.1382 4 33.1672
    endloop
  endfacet
  facet normal 0 1 -0
    outer loop
      vertex 95.0154 4 32.3923
      vertex 95 4 42
      vertex 95.0616 4 32.7822
    endloop
  endfacet
  facet normal 0 1 0
    outer loop
      vertex 95 4 42
      vertex 95.0154 4 32.3923
      vertex 95 4 32
    endloop
  endfacet
  facet normal 0 1 0
    outer loop
      vertex 95.0154 4 31.6077
      vertex 95 4 30
      vertex 95 4 32
    endloop
  endfacet
  facet normal 0 1 0
    outer loop
      vertex 95.0616 4 31.2178
      vertex 95 4 30
      vertex 95.0154 4 31.6077
    endloop
  endfacet
  facet normal 0 1 0
    outer loop
      vertex 95.1382 4 30.8328
      vertex 95 4 30
      vertex 95.0616 4 31.2178
    endloop
  endfacet
  facet normal 0 1 0
    outer loop
      vertex 95.2447 4 30.4549
      vertex 95 4 30
      vertex 95.1382 4 30.8328
    endloop
  endfacet
  facet normal 0 1 0
    outer loop
      vertex 95.3806 4 30.0866
      vertex 95 4 30
      vertex 95.2447 4 30.4549
    endloop
  endfacet
  facet normal 0 1 0
    outer loop
      vertex 95.7368 4 29.3875
      vertex 95 4 30
      vertex 95.545 4 29.73
    endloop
  endfacet
  facet normal 0 1 0
    outer loop
      vertex 95.545 4 29.73
      vertex 95 4 30
      vertex 95.3806 4 30.0866
    endloop
  endfacet
  facet normal -1 0 0
    outer loop
      vertex 75 18 0
      vertex 75 43 2
      vertex 75 43 0
    endloop
  endfacet
  facet normal -1 -0 0
    outer loop
      vertex 75 43 2
      vertex 75 18 0
      vertex 75 18 2
    endloop
  endfacet
  facet normal 1 -0 0
    outer loop
      vertex 35 18 2
      vertex 35 43 0
      vertex 35 43 2
    endloop
  endfacet
  facet normal 1 0 0
    outer loop
      vertex 35 43 0
      vertex 35 18 2
      vertex 35 18 0
    endloop
  endfacet
  facet normal 0 -1 0
    outer loop
      vertex 35 43 0
      vertex 75 43 2
      vertex 35 43 2
    endloop
  endfacet
  facet normal 0 -1 -0
    outer loop
      vertex 75 43 2
      vertex 35 43 0
      vertex 75 43 0
    endloop
  endfacet
  facet normal 0 1 -0
    outer loop
      vertex 75 18 0
      vertex 35 18 2
      vertex 75 18 2
    endloop
  endfacet
  facet normal 0 1 0
    outer loop
      vertex 35 18 2
      vertex 75 18 0
      vertex 35 18 0
    endloop
  endfacet
  facet normal -1 0 0
    outer loop
      vertex 60 0 4
      vertex 60 4 24
      vertex 60 4 4
    endloop
  endfacet
  facet normal -1 -0 0
    outer loop
      vertex 60 4 24
      vertex 60 0 4
      vertex 60 0 24
    endloop
  endfacet
  facet normal 0 0 -1
    outer loop
      vertex 10 0 24
      vertex 60 4 24
      vertex 60 0 24
    endloop
  endfacet
  facet normal -0 0 -1
    outer loop
      vertex 60 4 24
      vertex 10 0 24
      vertex 10 4 24
    endloop
  endfacet
  facet normal -0 0 1
    outer loop
      vertex 10 4 4
      vertex 60 0 4
      vertex 60 4 4
    endloop
  endfacet
  facet normal 0 0 1
    outer loop
      vertex 60 0 4
      vertex 10 4 4
      vertex 10 0 4
    endloop
  endfacet
  facet normal 1 -0 0
    outer loop
      vertex 10 0 24
      vertex 10 4 4
      vertex 10 4 24
    endloop
  endfacet
  facet normal 1 0 0
    outer loop
      vertex 10 4 4
      vertex 10 0 24
      vertex 10 0 4
    endloop
  endfacet
  facet normal -1 0 0
    outer loop
      vertex 95 0 32
      vertex 95 4 42
      vertex 95 4 32
    endloop
  endfacet
  facet normal -1 -0 0
    outer loop
      vertex 95 4 42
      vertex 95 0 32
      vertex 95 0 42
    endloop
  endfacet
  facet normal -1 0 0
    outer loop
      vertex 95 0 30
      vertex 95 4 32
      vertex 95 4 30
    endloop
  endfacet
  facet normal -1 -0 0
    outer loop
      vertex 95 4 32
      vertex 95 0 30
      vertex 95 0 32
    endloop
  endfacet
  facet normal 0 0 -1
    outer loop
      vertex 70 0 42
      vertex 95 4 42
      vertex 95 0 42
    endloop
  endfacet
  facet normal -0 0 -1
    outer loop
      vertex 95 4 42
      vertex 70 0 42
      vertex 70 4 42
    endloop
  endfacet
  facet normal -0 0 1
    outer loop
      vertex 70 4 30
      vertex 95 0 30
      vertex 95 4 30
    endloop
  endfacet
  facet normal 0 0 1
    outer loop
      vertex 95 0 30
      vertex 70 4 30
      vertex 70 0 30
    endloop
  endfacet
  facet normal 1 -0 0
    outer loop
      vertex 70 0 42
      vertex 70 4 30
      vertex 70 4 42
    endloop
  endfacet
  facet normal 1 0 0
    outer loop
      vertex 70 4 30
      vertex 70 0 42
      vertex 70 0 30
    endloop
  endfacet
  facet normal -0.981068 0 -0.193665
    outer loop
      vertex 104.938 0 32.7822
      vertex 104.862 4 33.1672
      vertex 104.938 4 32.7822
    endloop
  endfacet
  facet normal -0.981068 -0 -0.193665
    outer loop
      vertex 104.862 4 33.1672
      vertex 104.938 0 32.7822
      vertex 104.862 0 33.1672
    endloop
  endfacet
  facet normal -0.992813 0 -0.119677
    outer loop
      vertex 104.985 0 32.3923
      vertex 104.938 4 32.7822
      vertex 104.985 4 32.3923
    endloop
  endfacet
  facet normal -0.992813 -0 -0.119677
    outer loop
      vertex 104.938 4 32.7822
      vertex 104.985 0 32.3923
      vertex 104.938 0 32.7822
    endloop
  endfacet
  facet normal -0.99927 0 -0.0382081
    outer loop
      vertex 105 0 32
      vertex 104.985 4 32.3923
      vertex 105 4 32
    endloop
  endfacet
  facet normal -0.99927 -0 -0.0382081
    outer loop
      vertex 104.985 4 32.3923
      vertex 105 0 32
      vertex 104.985 0 32.3923
    endloop
  endfacet
  facet normal 0.488603 0 -0.872506
    outer loop
      vertex 97.3875 0 36.2632
      vertex 97.73 4 36.455
      vertex 97.73 0 36.455
    endloop
  endfacet
  facet normal 0.488603 0 -0.872506
    outer loop
      vertex 97.73 4 36.455
      vertex 97.3875 0 36.2632
      vertex 97.3875 4 36.2632
    endloop
  endfacet
  facet normal 0.619182 0 -0.785248
    outer loop
      vertex 96.7528 0 35.802
      vertex 97.0611 4 36.0451
      vertex 97.0611 0 36.0451
    endloop
  endfacet
  facet normal 0.619182 0 -0.785248
    outer loop
      vertex 97.0611 4 36.0451
      vertex 96.7528 0 35.802
      vertex 96.7528 4 35.802
    endloop
  endfacet
  facet normal -0.785372 0 -0.619025
    outer loop
      vertex 104.045 0 34.9389
      vertex 103.802 4 35.2472
      vertex 104.045 4 34.9389
    endloop
  endfacet
  facet normal -0.785372 -0 -0.619025
    outer loop
      vertex 103.802 4 35.2472
      vertex 104.045 0 34.9389
      vertex 103.802 0 35.2472
    endloop
  endfacet
  facet normal -0.489147 0 0.872201
    outer loop
      vertex 102.27 4 27.545
      vertex 102.612 0 27.7368
      vertex 102.612 4 27.7368
    endloop
  endfacet
  facet normal -0.489147 0 0.872201
    outer loop
      vertex 102.612 0 27.7368
      vertex 102.27 4 27.545
      vertex 102.27 0 27.545
    endloop
  endfacet
  facet normal 0.962508 0 -0.271254
    outer loop
      vertex 95.2447 0 33.5451
      vertex 95.1382 4 33.1672
      vertex 95.2447 4 33.5451
    endloop
  endfacet
  facet normal 0.962508 0 -0.271254
    outer loop
      vertex 95.1382 4 33.1672
      vertex 95.2447 0 33.5451
      vertex 95.1382 0 33.1672
    endloop
  endfacet
  facet normal 0.831462 0 -0.555582
    outer loop
      vertex 95.9549 0 34.9389
      vertex 95.7368 4 34.6125
      vertex 95.9549 4 34.9389
    endloop
  endfacet
  facet normal 0.831462 0 -0.555582
    outer loop
      vertex 95.7368 4 34.6125
      vertex 95.9549 0 34.9389
      vertex 95.7368 0 34.6125
    endloop
  endfacet
  facet normal -0.73496 0 0.678111
    outer loop
      vertex 103.536 0 28.4645
      vertex 103.802 4 28.7528
      vertex 103.536 4 28.4645
    endloop
  endfacet
  facet normal -0.73496 0 0.678111
    outer loop
      vertex 103.802 4 28.7528
      vertex 103.536 0 28.4645
      vertex 103.802 0 28.7528
    endloop
  endfacet
  facet normal 0.993053 0 -0.117669
    outer loop
      vertex 95.0616 0 32.7822
      vertex 95.0154 4 32.3923
      vertex 95.0616 4 32.7822
    endloop
  endfacet
  facet normal 0.993053 0 -0.117669
    outer loop
      vertex 95.0154 4 32.3923
      vertex 95.0616 0 32.7822
      vertex 95.0154 0 32.3923
    endloop
  endfacet
  facet normal -0.992813 0 0.119677
    outer loop
      vertex 104.938 0 31.2178
      vertex 104.985 4 31.6077
      vertex 104.938 4 31.2178
    endloop
  endfacet
  facet normal -0.992813 0 0.119677
    outer loop
      vertex 104.985 4 31.6077
      vertex 104.938 0 31.2178
      vertex 104.985 0 31.6077
    endloop
  endfacet
  facet normal -0.962175 0 -0.272434
    outer loop
      vertex 104.862 0 33.1672
      vertex 104.755 4 33.5451
      vertex 104.862 4 33.1672
    endloop
  endfacet
  facet normal -0.962175 -0 -0.272434
    outer loop
      vertex 104.755 4 33.5451
      vertex 104.862 0 33.1672
      vertex 104.755 0 33.5451
    endloop
  endfacet
  facet normal 0.678798 0 -0.734325
    outer loop
      vertex 96.4645 0 35.5355
      vertex 96.7528 4 35.802
      vertex 96.7528 0 35.802
    endloop
  endfacet
  facet normal 0.678798 0 -0.734325
    outer loop
      vertex 96.7528 4 35.802
      vertex 96.4645 0 35.5355
      vertex 96.4645 4 35.5355
    endloop
  endfacet
  facet normal 0.908138 -0 0.418671
    outer loop
      vertex 95.3806 0 30.0866
      vertex 95.545 4 29.73
      vertex 95.3806 4 30.0866
    endloop
  endfacet
  facet normal 0.908138 0 0.418671
    outer loop
      vertex 95.545 4 29.73
      vertex 95.3806 0 30.0866
      vertex 95.545 0 29.73
    endloop
  endfacet
  facet normal -0.785372 0 0.619025
    outer loop
      vertex 103.802 0 28.7528
      vertex 104.045 4 29.0611
      vertex 103.802 4 28.7528
    endloop
  endfacet
  facet normal -0.785372 0 0.619025
    outer loop
      vertex 104.045 4 29.0611
      vertex 103.802 0 28.7528
      vertex 104.045 0 29.0611
    endloop
  endfacet
  facet normal -0.83158 0 -0.555406
    outer loop
      vertex 104.263 0 34.6125
      vertex 104.045 4 34.9389
      vertex 104.263 4 34.6125
    endloop
  endfacet
  facet normal -0.83158 -0 -0.555406
    outer loop
      vertex 104.045 4 34.9389
      vertex 104.263 0 34.6125
      vertex 104.045 0 34.9389
    endloop
  endfacet
  facet normal 0.980776 -0 0.195136
    outer loop
      vertex 95.0616 0 31.2178
      vertex 95.1382 4 30.8328
      vertex 95.0616 4 31.2178
    endloop
  endfacet
  facet normal 0.980776 0 0.195136
    outer loop
      vertex 95.1382 4 30.8328
      vertex 95.0616 0 31.2178
      vertex 95.1382 0 30.8328
    endloop
  endfacet
  facet normal -0.872289 0 -0.488991
    outer loop
      vertex 104.455 0 34.27
      vertex 104.263 4 34.6125
      vertex 104.455 4 34.27
    endloop
  endfacet
  facet normal -0.872289 -0 -0.488991
    outer loop
      vertex 104.263 4 34.6125
      vertex 104.455 0 34.27
      vertex 104.263 0 34.6125
    endloop
  endfacet
  facet normal 0.346177 0 0.938169
    outer loop
      vertex 98.0866 4 27.3806
      vertex 98.4549 0 27.2447
      vertex 98.4549 4 27.2447
    endloop
  endfacet
  facet normal 0.346177 0 0.938169
    outer loop
      vertex 98.4549 0 27.2447
      vertex 98.0866 4 27.3806
      vertex 98.0866 0 27.3806
    endloop
  endfacet
  facet normal 0.99923 0 -0.0392255
    outer loop
      vertex 95.0154 0 32.3923
      vertex 95 4 32
      vertex 95.0154 4 32.3923
    endloop
  endfacet
  facet normal 0.99923 0 -0.0392255
    outer loop
      vertex 95 4 32
      vertex 95.0154 0 32.3923
      vertex 95 0 32
    endloop
  endfacet
  facet normal -0.981068 0 0.193665
    outer loop
      vertex 104.862 0 30.8328
      vertex 104.938 4 31.2178
      vertex 104.862 4 30.8328
    endloop
  endfacet
  facet normal -0.981068 0 0.193665
    outer loop
      vertex 104.938 4 31.2178
      vertex 104.862 0 30.8328
      vertex 104.938 0 31.2178
    endloop
  endfacet
  facet normal -0.83158 0 0.555406
    outer loop
      vertex 104.045 0 29.0611
      vertex 104.263 4 29.3875
      vertex 104.045 4 29.0611
    endloop
  endfacet
  facet normal -0.83158 0 0.555406
    outer loop
      vertex 104.263 4 29.3875
      vertex 104.045 0 29.0611
      vertex 104.263 0 29.3875
    endloop
  endfacet
  facet normal -0.938086 0 -0.346402
    outer loop
      vertex 104.755 0 33.5451
      vertex 104.619 4 33.9134
      vertex 104.755 4 33.5451
    endloop
  endfacet
  facet normal -0.938086 -0 -0.346402
    outer loop
      vertex 104.619 4 33.9134
      vertex 104.755 0 33.5451
      vertex 104.619 0 33.9134
    endloop
  endfacet
  facet normal 0.872506 -0 0.488603
    outer loop
      vertex 95.545 0 29.73
      vertex 95.7368 4 29.3875
      vertex 95.545 4 29.73
    endloop
  endfacet
  facet normal 0.872506 0 0.488603
    outer loop
      vertex 95.7368 4 29.3875
      vertex 95.545 0 29.73
      vertex 95.7368 0 29.3875
    endloop
  endfacet
  facet normal -0.554876 0 -0.831933
    outer loop
      vertex 102.612 0 36.2632
      vertex 102.939 4 36.0451
      vertex 102.939 0 36.0451
    endloop
  endfacet
  facet normal -0.554876 0 -0.831933
    outer loop
      vertex 102.939 4 36.0451
      vertex 102.612 0 36.2632
      vertex 102.612 4 36.2632
    endloop
  endfacet
  facet normal 0.938169 -0 0.346177
    outer loop
      vertex 95.2447 0 30.4549
      vertex 95.3806 4 30.0866
      vertex 95.2447 4 30.4549
    endloop
  endfacet
  facet normal 0.938169 0 0.346177
    outer loop
      vertex 95.3806 4 30.0866
      vertex 95.2447 0 30.4549
      vertex 95.3806 0 30.0866
    endloop
  endfacet
  facet normal -0.962175 0 0.272434
    outer loop
      vertex 104.755 0 30.4549
      vertex 104.862 4 30.8328
      vertex 104.755 4 30.4549
    endloop
  endfacet
  facet normal -0.962175 0 0.272434
    outer loop
      vertex 104.862 4 30.8328
      vertex 104.755 0 30.4549
      vertex 104.862 0 30.8328
    endloop
  endfacet
  facet normal -0.346426 0 -0.938077
    outer loop
      vertex 101.545 0 36.7553
      vertex 101.913 4 36.6194
      vertex 101.913 0 36.6194
    endloop
  endfacet
  facet normal -0.346426 0 -0.938077
    outer loop
      vertex 101.913 4 36.6194
      vertex 101.545 0 36.7553
      vertex 101.545 4 36.7553
    endloop
  endfacet
  facet normal -0.489147 0 -0.872201
    outer loop
      vertex 102.27 0 36.455
      vertex 102.612 4 36.2632
      vertex 102.612 0 36.2632
    endloop
  endfacet
  facet normal -0.489147 0 -0.872201
    outer loop
      vertex 102.612 4 36.2632
      vertex 102.27 0 36.455
      vertex 102.27 4 36.455
    endloop
  endfacet
  facet normal 0.785248 -0 0.619182
    outer loop
      vertex 95.9549 0 29.0611
      vertex 96.198 4 28.7528
      vertex 95.9549 4 29.0611
    endloop
  endfacet
  facet normal 0.785248 0 0.619182
    outer loop
      vertex 96.198 4 28.7528
      vertex 95.9549 0 29.0611
      vertex 96.198 0 28.7528
    endloop
  endfacet
  facet normal 0.993053 -0 0.117669
    outer loop
      vertex 95.0154 0 31.6077
      vertex 95.0616 4 31.2178
      vertex 95.0154 4 31.6077
    endloop
  endfacet
  facet normal 0.993053 0 0.117669
    outer loop
      vertex 95.0616 4 31.2178
      vertex 95.0154 0 31.6077
      vertex 95.0616 0 31.2178
    endloop
  endfacet
  facet normal -0.619553 0 0.784955
    outer loop
      vertex 102.939 4 27.9549
      vertex 103.247 0 28.198
      vertex 103.247 4 28.198
    endloop
  endfacet
  facet normal -0.619553 0 0.784955
    outer loop
      vertex 103.247 0 28.198
      vertex 102.939 4 27.9549
      vertex 102.939 0 27.9549
    endloop
  endfacet
  facet normal 0.980776 0 -0.195136
    outer loop
      vertex 95.1382 0 33.1672
      vertex 95.0616 4 32.7822
      vertex 95.1382 4 33.1672
    endloop
  endfacet
  facet normal 0.980776 0 -0.195136
    outer loop
      vertex 95.0616 4 32.7822
      vertex 95.1382 0 33.1672
      vertex 95.0616 0 32.7822
    endloop
  endfacet
  facet normal 0.27149 0 0.962441
    outer loop
      vertex 98.4549 4 27.2447
      vertex 98.8328 0 27.1381
      vertex 98.8328 4 27.1381
    endloop
  endfacet
  facet normal 0.27149 0 0.962441
    outer loop
      vertex 98.8328 0 27.1381
      vertex 98.4549 4 27.2447
      vertex 98.4549 0 27.2447
    endloop
  endfacet
  facet normal -0.554876 0 0.831933
    outer loop
      vertex 102.612 4 27.7368
      vertex 102.939 0 27.9549
      vertex 102.939 4 27.9549
    endloop
  endfacet
  facet normal -0.554876 0 0.831933
    outer loop
      vertex 102.939 0 27.9549
      vertex 102.612 4 27.7368
      vertex 102.612 0 27.7368
    endloop
  endfacet
  facet normal 0.962508 -0 0.271254
    outer loop
      vertex 95.1382 0 30.8328
      vertex 95.2447 4 30.4549
      vertex 95.1382 4 30.8328
    endloop
  endfacet
  facet normal 0.962508 0 0.271254
    outer loop
      vertex 95.2447 4 30.4549
      vertex 95.1382 0 30.8328
      vertex 95.2447 0 30.4549
    endloop
  endfacet
  facet normal 0.346177 0 -0.938169
    outer loop
      vertex 98.0866 0 36.6194
      vertex 98.4549 4 36.7553
      vertex 98.4549 0 36.7553
    endloop
  endfacet
  facet normal 0.346177 0 -0.938169
    outer loop
      vertex 98.4549 4 36.7553
      vertex 98.0866 0 36.6194
      vertex 98.0866 4 36.6194
    endloop
  endfacet
  facet normal 0.195136 0 -0.980776
    outer loop
      vertex 98.8328 0 36.8618
      vertex 99.2178 4 36.9384
      vertex 99.2178 0 36.9384
    endloop
  endfacet
  facet normal 0.195136 0 -0.980776
    outer loop
      vertex 99.2178 4 36.9384
      vertex 98.8328 0 36.8618
      vertex 98.8328 4 36.8618
    endloop
  endfacet
  facet normal -0.195136 0 -0.980776
    outer loop
      vertex 100.782 0 36.9384
      vertex 101.167 4 36.8618
      vertex 101.167 0 36.8618
    endloop
  endfacet
  facet normal -0.195136 0 -0.980776
    outer loop
      vertex 101.167 4 36.8618
      vertex 100.782 0 36.9384
      vertex 100.782 4 36.9384
    endloop
  endfacet
  facet normal -0.619553 0 -0.784955
    outer loop
      vertex 102.939 0 36.0451
      vertex 103.247 4 35.802
      vertex 103.247 0 35.802
    endloop
  endfacet
  facet normal -0.619553 0 -0.784955
    outer loop
      vertex 103.247 4 35.802
      vertex 102.939 0 36.0451
      vertex 102.939 4 36.0451
    endloop
  endfacet
  facet normal -0.117639 0 0.993056
    outer loop
      vertex 100.392 4 27.0154
      vertex 100.782 0 27.0616
      vertex 100.782 4 27.0616
    endloop
  endfacet
  facet normal -0.117639 0 0.993056
    outer loop
      vertex 100.782 0 27.0616
      vertex 100.392 4 27.0154
      vertex 100.392 0 27.0154
    endloop
  endfacet
  facet normal 0.555582 0 0.831462
    outer loop
      vertex 97.0611 4 27.9549
      vertex 97.3875 0 27.7368
      vertex 97.3875 4 27.7368
    endloop
  endfacet
  facet normal 0.555582 0 0.831462
    outer loop
      vertex 97.3875 0 27.7368
      vertex 97.0611 4 27.9549
      vertex 97.0611 0 27.9549
    endloop
  endfacet
  facet normal 0.872506 0 -0.488603
    outer loop
      vertex 95.7368 0 34.6125
      vertex 95.545 4 34.27
      vertex 95.7368 4 34.6125
    endloop
  endfacet
  facet normal 0.872506 0 -0.488603
    outer loop
      vertex 95.545 4 34.27
      vertex 95.7368 0 34.6125
      vertex 95.545 0 34.27
    endloop
  endfacet
  facet normal -0.872289 0 0.488991
    outer loop
      vertex 104.263 0 29.3875
      vertex 104.455 4 29.73
      vertex 104.263 4 29.3875
    endloop
  endfacet
  facet normal -0.872289 0 0.488991
    outer loop
      vertex 104.455 4 29.73
      vertex 104.263 0 29.3875
      vertex 104.455 0 29.73
    endloop
  endfacet
  facet normal 0.555582 0 -0.831462
    outer loop
      vertex 97.0611 0 36.0451
      vertex 97.3875 4 36.2632
      vertex 97.3875 0 36.2632
    endloop
  endfacet
  facet normal 0.555582 0 -0.831462
    outer loop
      vertex 97.3875 4 36.2632
      vertex 97.0611 0 36.0451
      vertex 97.0611 4 36.0451
    endloop
  endfacet
  facet normal -0.908525 0 -0.41783
    outer loop
      vertex 104.619 0 33.9134
      vertex 104.455 4 34.27
      vertex 104.619 4 33.9134
    endloop
  endfacet
  facet normal -0.908525 -0 -0.41783
    outer loop
      vertex 104.455 4 34.27
      vertex 104.619 0 33.9134
      vertex 104.455 0 34.27
    endloop
  endfacet
  facet normal -0.117639 0 -0.993056
    outer loop
      vertex 100.392 0 36.9846
      vertex 100.782 4 36.9384
      vertex 100.782 0 36.9384
    endloop
  endfacet
  facet normal -0.117639 0 -0.993056
    outer loop
      vertex 100.782 4 36.9384
      vertex 100.392 0 36.9846
      vertex 100.392 4 36.9846
    endloop
  endfacet
  facet normal -0.67791 0 -0.735145
    outer loop
      vertex 103.247 0 35.802
      vertex 103.536 4 35.5355
      vertex 103.536 0 35.5355
    endloop
  endfacet
  facet normal -0.67791 0 -0.735145
    outer loop
      vertex 103.536 4 35.5355
      vertex 103.247 0 35.802
      vertex 103.247 4 35.802
    endloop
  endfacet
  facet normal 0.99923 -0 0.0392255
    outer loop
      vertex 95 0 32
      vertex 95.0154 4 31.6077
      vertex 95 4 32
    endloop
  endfacet
  facet normal 0.99923 0 0.0392255
    outer loop
      vertex 95.0154 4 31.6077
      vertex 95 0 32
      vertex 95.0154 0 31.6077
    endloop
  endfacet
  facet normal 0.0392255 0 0.99923
    outer loop
      vertex 99.6077 4 27.0154
      vertex 100 0 27
      vertex 100 4 27
    endloop
  endfacet
  facet normal 0.0392255 0 0.99923
    outer loop
      vertex 100 0 27
      vertex 99.6077 4 27.0154
      vertex 99.6077 0 27.0154
    endloop
  endfacet
  facet normal 0.734325 0 -0.678798
    outer loop
      vertex 96.4645 0 35.5355
      vertex 96.198 4 35.2472
      vertex 96.4645 4 35.5355
    endloop
  endfacet
  facet normal 0.734325 0 -0.678798
    outer loop
      vertex 96.198 4 35.2472
      vertex 96.4645 0 35.5355
      vertex 96.198 0 35.2472
    endloop
  endfacet
  facet normal -0.346426 0 0.938077
    outer loop
      vertex 101.545 4 27.2447
      vertex 101.913 0 27.3806
      vertex 101.913 4 27.3806
    endloop
  endfacet
  facet normal -0.346426 0 0.938077
    outer loop
      vertex 101.913 0 27.3806
      vertex 101.545 4 27.2447
      vertex 101.545 0 27.2447
    endloop
  endfacet
  facet normal 0.488603 0 0.872506
    outer loop
      vertex 97.3875 4 27.7368
      vertex 97.73 0 27.545
      vertex 97.73 4 27.545
    endloop
  endfacet
  facet normal 0.488603 0 0.872506
    outer loop
      vertex 97.73 0 27.545
      vertex 97.3875 4 27.7368
      vertex 97.3875 0 27.7368
    endloop
  endfacet
  facet normal 0.0392255 0 -0.99923
    outer loop
      vertex 99.6077 0 36.9846
      vertex 100 4 37
      vertex 100 0 37
    endloop
  endfacet
  facet normal 0.0392255 0 -0.99923
    outer loop
      vertex 100 4 37
      vertex 99.6077 0 36.9846
      vertex 99.6077 4 36.9846
    endloop
  endfacet
  facet normal -0.0392554 0 0.999229
    outer loop
      vertex 100 4 27
      vertex 100.392 0 27.0154
      vertex 100.392 4 27.0154
    endloop
  endfacet
  facet normal -0.0392554 0 0.999229
    outer loop
      vertex 100.392 0 27.0154
      vertex 100 4 27
      vertex 100 0 27
    endloop
  endfacet
  facet normal 0.418671 0 -0.908138
    outer loop
      vertex 97.73 0 36.455
      vertex 98.0866 4 36.6194
      vertex 98.0866 0 36.6194
    endloop
  endfacet
  facet normal 0.418671 0 -0.908138
    outer loop
      vertex 98.0866 4 36.6194
      vertex 97.73 0 36.455
      vertex 97.73 4 36.455
    endloop
  endfacet
  facet normal 0.117669 0 -0.993053
    outer loop
      vertex 99.2178 0 36.9384
      vertex 99.6077 4 36.9846
      vertex 99.6077 0 36.9846
    endloop
  endfacet
  facet normal 0.117669 0 -0.993053
    outer loop
      vertex 99.6077 4 36.9846
      vertex 99.2178 0 36.9384
      vertex 99.2178 4 36.9384
    endloop
  endfacet
  facet normal 0.619182 0 0.785248
    outer loop
      vertex 96.7528 4 28.198
      vertex 97.0611 0 27.9549
      vertex 97.0611 4 27.9549
    endloop
  endfacet
  facet normal 0.619182 0 0.785248
    outer loop
      vertex 97.0611 0 27.9549
      vertex 96.7528 4 28.198
      vertex 96.7528 0 28.198
    endloop
  endfacet
  facet normal -0.418284 0 0.908316
    outer loop
      vertex 101.913 4 27.3806
      vertex 102.27 0 27.545
      vertex 102.27 4 27.545
    endloop
  endfacet
  facet normal -0.418284 0 0.908316
    outer loop
      vertex 102.27 0 27.545
      vertex 101.913 4 27.3806
      vertex 101.913 0 27.3806
    endloop
  endfacet
  facet normal 0.831462 -0 0.555582
    outer loop
      vertex 95.7368 0 29.3875
      vertex 95.9549 4 29.0611
      vertex 95.7368 4 29.3875
    endloop
  endfacet
  facet normal 0.831462 0 0.555582
    outer loop
      vertex 95.9549 4 29.0611
      vertex 95.7368 0 29.3875
      vertex 95.9549 0 29.0611
    endloop
  endfacet
  facet normal -0.418284 0 -0.908316
    outer loop
      vertex 101.913 0 36.6194
      vertex 102.27 4 36.455
      vertex 102.27 0 36.455
    endloop
  endfacet
  facet normal -0.418284 0 -0.908316
    outer loop
      vertex 102.27 4 36.455
      vertex 101.913 0 36.6194
      vertex 101.913 4 36.6194
    endloop
  endfacet
  facet normal 0.678798 0 0.734325
    outer loop
      vertex 96.4645 4 28.4645
      vertex 96.7528 0 28.198
      vertex 96.7528 4 28.198
    endloop
  endfacet
  facet normal 0.678798 0 0.734325
    outer loop
      vertex 96.7528 0 28.198
      vertex 96.4645 4 28.4645
      vertex 96.4645 0 28.4645
    endloop
  endfacet
  facet normal -0.67791 0 0.735145
    outer loop
      vertex 103.247 4 28.198
      vertex 103.536 0 28.4645
      vertex 103.536 4 28.4645
    endloop
  endfacet
  facet normal -0.67791 0 0.735145
    outer loop
      vertex 103.536 0 28.4645
      vertex 103.247 4 28.198
      vertex 103.247 0 28.198
    endloop
  endfacet
  facet normal 0.785248 0 -0.619182
    outer loop
      vertex 96.198 0 35.2472
      vertex 95.9549 4 34.9389
      vertex 96.198 4 35.2472
    endloop
  endfacet
  facet normal 0.785248 0 -0.619182
    outer loop
      vertex 95.9549 4 34.9389
      vertex 96.198 0 35.2472
      vertex 95.9549 0 34.9389
    endloop
  endfacet
  facet normal -0.271188 0 -0.962526
    outer loop
      vertex 101.167 0 36.8618
      vertex 101.545 4 36.7553
      vertex 101.545 0 36.7553
    endloop
  endfacet
  facet normal -0.271188 0 -0.962526
    outer loop
      vertex 101.545 4 36.7553
      vertex 101.167 0 36.8618
      vertex 101.167 4 36.8618
    endloop
  endfacet
  facet normal -0.99927 0 0.0382081
    outer loop
      vertex 104.985 0 31.6077
      vertex 105 4 32
      vertex 104.985 4 31.6077
    endloop
  endfacet
  facet normal -0.99927 0 0.0382081
    outer loop
      vertex 105 4 32
      vertex 104.985 0 31.6077
      vertex 105 0 32
    endloop
  endfacet
  facet normal 0.418671 0 0.908138
    outer loop
      vertex 97.73 4 27.545
      vertex 98.0866 0 27.3806
      vertex 98.0866 4 27.3806
    endloop
  endfacet
  facet normal 0.418671 0 0.908138
    outer loop
      vertex 98.0866 0 27.3806
      vertex 97.73 4 27.545
      vertex 97.73 0 27.545
    endloop
  endfacet
  facet normal -0.73496 0 -0.678111
    outer loop
      vertex 103.802 0 35.2472
      vertex 103.536 4 35.5355
      vertex 103.802 4 35.2472
    endloop
  endfacet
  facet normal -0.73496 -0 -0.678111
    outer loop
      vertex 103.536 4 35.5355
      vertex 103.802 0 35.2472
      vertex 103.536 0 35.5355
    endloop
  endfacet
  facet normal 0.271254 0 -0.962508
    outer loop
      vertex 98.4549 0 36.7553
      vertex 98.8328 4 36.8618
      vertex 98.8328 0 36.8618
    endloop
  endfacet
  facet normal 0.271254 0 -0.962508
    outer loop
      vertex 98.8328 4 36.8618
      vertex 98.4549 0 36.7553
      vertex 98.4549 4 36.7553
    endloop
  endfacet
  facet normal 0.194891 0 0.980825
    outer loop
      vertex 98.8328 4 27.1381
      vertex 99.2178 0 27.0616
      vertex 99.2178 4 27.0616
    endloop
  endfacet
  facet normal 0.194891 0 0.980825
    outer loop
      vertex 99.2178 0 27.0616
      vertex 98.8328 4 27.1381
      vertex 98.8328 0 27.1381
    endloop
  endfacet
  facet normal -0.908525 0 0.41783
    outer loop
      vertex 104.455 0 29.73
      vertex 104.619 4 30.0866
      vertex 104.455 4 29.73
    endloop
  endfacet
  facet normal -0.908525 0 0.41783
    outer loop
      vertex 104.619 4 30.0866
      vertex 104.455 0 29.73
      vertex 104.619 0 30.0866
    endloop
  endfacet
  facet normal 0.117669 0 0.993053
    outer loop
      vertex 99.2178 4 27.0616
      vertex 99.6077 0 27.0154
      vertex 99.6077 4 27.0154
    endloop
  endfacet
  facet normal 0.117669 0 0.993053
    outer loop
      vertex 99.6077 0 27.0154
      vertex 99.2178 4 27.0616
      vertex 99.2178 0 27.0616
    endloop
  endfacet
  facet normal -0.271424 0 0.96246
    outer loop
      vertex 101.167 4 27.1381
      vertex 101.545 0 27.2447
      vertex 101.545 4 27.2447
    endloop
  endfacet
  facet normal -0.271424 0 0.96246
    outer loop
      vertex 101.545 0 27.2447
      vertex 101.167 4 27.1381
      vertex 101.167 0 27.1381
    endloop
  endfacet
  facet normal -0.194891 0 0.980825
    outer loop
      vertex 100.782 4 27.0616
      vertex 101.167 0 27.1381
      vertex 101.167 4 27.1381
    endloop
  endfacet
  facet normal -0.194891 0 0.980825
    outer loop
      vertex 101.167 0 27.1381
      vertex 100.782 4 27.0616
      vertex 100.782 0 27.0616
    endloop
  endfacet
  facet normal -0.0392554 0 -0.999229
    outer loop
      vertex 100 0 37
      vertex 100.392 4 36.9846
      vertex 100.392 0 36.9846
    endloop
  endfacet
  facet normal -0.0392554 0 -0.999229
    outer loop
      vertex 100.392 4 36.9846
      vertex 100 0 37
      vertex 100 4 37
    endloop
  endfacet
  facet normal -0.938086 0 0.346402
    outer loop
      vertex 104.619 0 30.0866
      vertex 104.755 4 30.4549
      vertex 104.619 4 30.0866
    endloop
  endfacet
  facet normal -0.938086 0 0.346402
    outer loop
      vertex 104.755 4 30.4549
      vertex 104.619 0 30.0866
      vertex 104.755 0 30.4549
    endloop
  endfacet
  facet normal 0.734325 -0 0.678798
    outer loop
      vertex 96.198 0 28.7528
      vertex 96.4645 4 28.4645
      vertex 96.198 4 28.7528
    endloop
  endfacet
  facet normal 0.734325 0 0.678798
    outer loop
      vertex 96.4645 4 28.4645
      vertex 96.198 0 28.7528
      vertex 96.4645 0 28.4645
    endloop
  endfacet
  facet normal 0.938169 0 -0.346177
    outer loop
      vertex 95.3806 0 33.9134
      vertex 95.2447 4 33.5451
      vertex 95.3806 4 33.9134
    endloop
  endfacet
  facet normal 0.938169 0 -0.346177
    outer loop
      vertex 95.2447 4 33.5451
      vertex 95.3806 0 33.9134
      vertex 95.2447 0 33.5451
    endloop
  endfacet
  facet normal 0.908138 0 -0.418671
    outer loop
      vertex 95.545 0 34.27
      vertex 95.3806 4 33.9134
      vertex 95.545 4 34.27
    endloop
  endfacet
  facet normal 0.908138 0 -0.418671
    outer loop
      vertex 95.3806 4 33.9134
      vertex 95.545 0 34.27
      vertex 95.3806 0 33.9134
    endloop
  endfacet
endsolid OpenSCAD_Model
