solid OpenSCAD_Model
  facet normal 0 -1 0
    outer loop
      vertex 163.793 -10.75 912.4
      vertex 176.207 -10.75 916.4
      vertex 163.793 -10.75 916.4
    endloop
  endfacet
  facet normal 0 -1 -0
    outer loop
      vertex 176.207 -10.75 916.4
      vertex 163.793 -10.75 912.4
      vertex 176.207 -10.75 912.4
    endloop
  endfacet
  facet normal 0.866043 -0.499969 0
    outer loop
      vertex 176.207 -10.75 916.4
      vertex 182.413 0 912.4
      vertex 182.413 0 916.4
    endloop
  endfacet
  facet normal 0.866043 -0.499969 0
    outer loop
      vertex 182.413 0 912.4
      vertex 176.207 -10.75 916.4
      vertex 176.207 -10.75 912.4
    endloop
  endfacet
  facet normal 0 1 -0
    outer loop
      vertex 176.207 10.75 912.4
      vertex 163.793 10.75 916.4
      vertex 176.207 10.75 916.4
    endloop
  endfacet
  facet normal 0 1 0
    outer loop
      vertex 163.793 10.75 916.4
      vertex 176.207 10.75 912.4
      vertex 163.793 10.75 912.4
    endloop
  endfacet
  facet normal 0.866043 0.499969 0
    outer loop
      vertex 182.413 0 916.4
      vertex 176.207 10.75 912.4
      vertex 176.207 10.75 916.4
    endloop
  endfacet
  facet normal 0.866043 0.499969 0
    outer loop
      vertex 176.207 10.75 912.4
      vertex 182.413 0 916.4
      vertex 182.413 0 912.4
    endloop
  endfacet
  facet normal -0.866043 0.499969 0
    outer loop
      vertex 157.587 0 912.4
      vertex 163.793 10.75 916.4
      vertex 163.793 10.75 912.4
    endloop
  endfacet
  facet normal -0.866043 0.499969 0
    outer loop
      vertex 163.793 10.75 916.4
      vertex 157.587 0 912.4
      vertex 157.587 0 916.4
    endloop
  endfacet
  facet normal -0.866043 -0.499969 0
    outer loop
      vertex 163.793 -10.75 912.4
      vertex 157.587 0 916.4
      vertex 157.587 0 912.4
    endloop
  endfacet
  facet normal -0.866043 -0.499969 0
    outer loop
      vertex 157.587 0 916.4
      vertex 163.793 -10.75 912.4
      vertex 163.793 -10.75 916.4
    endloop
  endfacet
  facet normal -0 0 1
    outer loop
      vertex 174.373 2.525 916.4
      vertex 182.413 0 916.4
      vertex 176.207 10.75 916.4
    endloop
  endfacet
  facet normal 0 0 1
    outer loop
      vertex 175.007 -0.659157 916.4
      vertex 182.413 0 916.4
      vertex 175.05 0 916.4
    endloop
  endfacet
  facet normal 0 0 1
    outer loop
      vertex 182.413 0 916.4
      vertex 175.007 0.659157 916.4
      vertex 175.05 0 916.4
    endloop
  endfacet
  facet normal 0 0 1
    outer loop
      vertex 182.413 0 916.4
      vertex 174.878 1.30704 916.4
      vertex 175.007 0.659157 916.4
    endloop
  endfacet
  facet normal 0 0 1
    outer loop
      vertex 182.413 0 916.4
      vertex 174.666 1.93255 916.4
      vertex 174.878 1.30704 916.4
    endloop
  endfacet
  facet normal 0 0 1
    outer loop
      vertex 182.413 0 916.4
      vertex 174.373 2.525 916.4
      vertex 174.666 1.93255 916.4
    endloop
  endfacet
  facet normal 0 0 1
    outer loop
      vertex 176.207 10.75 916.4
      vertex 174.006 3.07424 916.4
      vertex 174.373 2.525 916.4
    endloop
  endfacet
  facet normal 0 0 1
    outer loop
      vertex 176.207 10.75 916.4
      vertex 173.571 3.57089 916.4
      vertex 174.006 3.07424 916.4
    endloop
  endfacet
  facet normal 0 0 1
    outer loop
      vertex 176.207 10.75 916.4
      vertex 173.074 4.00643 916.4
      vertex 173.571 3.57089 916.4
    endloop
  endfacet
  facet normal 0 0 1
    outer loop
      vertex 176.207 10.75 916.4
      vertex 172.525 4.37343 916.4
      vertex 173.074 4.00643 916.4
    endloop
  endfacet
  facet normal 0 0 1
    outer loop
      vertex 176.207 10.75 916.4
      vertex 171.933 4.66559 916.4
      vertex 172.525 4.37343 916.4
    endloop
  endfacet
  facet normal 0 0 1
    outer loop
      vertex 176.207 10.75 916.4
      vertex 171.307 4.87792 916.4
      vertex 171.933 4.66559 916.4
    endloop
  endfacet
  facet normal 0 0 1
    outer loop
      vertex 176.207 10.75 916.4
      vertex 170.659 5.0068 916.4
      vertex 171.307 4.87792 916.4
    endloop
  endfacet
  facet normal 0 0 1
    outer loop
      vertex 176.207 10.75 916.4
      vertex 170 5.05 916.4
      vertex 170.659 5.0068 916.4
    endloop
  endfacet
  facet normal -0 0 1
    outer loop
      vertex 163.793 10.75 916.4
      vertex 170 5.05 916.4
      vertex 176.207 10.75 916.4
    endloop
  endfacet
  facet normal 0 0 1
    outer loop
      vertex 170 5.05 916.4
      vertex 163.793 10.75 916.4
      vertex 169.341 5.0068 916.4
    endloop
  endfacet
  facet normal 0 0 1
    outer loop
      vertex 169.341 5.0068 916.4
      vertex 163.793 10.75 916.4
      vertex 168.693 4.87792 916.4
    endloop
  endfacet
  facet normal 0 0 1
    outer loop
      vertex 168.693 4.87792 916.4
      vertex 163.793 10.75 916.4
      vertex 168.067 4.66559 916.4
    endloop
  endfacet
  facet normal 0 0 1
    outer loop
      vertex 168.067 4.66559 916.4
      vertex 163.793 10.75 916.4
      vertex 167.475 4.37343 916.4
    endloop
  endfacet
  facet normal 0 0 1
    outer loop
      vertex 165.122 1.30704 916.4
      vertex 157.587 0 916.4
      vertex 164.993 0.659157 916.4
    endloop
  endfacet
  facet normal 0 0 1
    outer loop
      vertex 165.334 1.93255 916.4
      vertex 157.587 0 916.4
      vertex 165.122 1.30704 916.4
    endloop
  endfacet
  facet normal 0 0 1
    outer loop
      vertex 165.627 2.525 916.4
      vertex 157.587 0 916.4
      vertex 165.334 1.93255 916.4
    endloop
  endfacet
  facet normal 0 0 1
    outer loop
      vertex 157.587 0 916.4
      vertex 165.627 2.525 916.4
      vertex 163.793 10.75 916.4
    endloop
  endfacet
  facet normal 0 0 1
    outer loop
      vertex 165.994 3.07424 916.4
      vertex 163.793 10.75 916.4
      vertex 165.627 2.525 916.4
    endloop
  endfacet
  facet normal 0 0 1
    outer loop
      vertex 166.429 3.57089 916.4
      vertex 163.793 10.75 916.4
      vertex 165.994 3.07424 916.4
    endloop
  endfacet
  facet normal 0 0 1
    outer loop
      vertex 166.926 4.00643 916.4
      vertex 163.793 10.75 916.4
      vertex 166.429 3.57089 916.4
    endloop
  endfacet
  facet normal 0 0 1
    outer loop
      vertex 167.475 4.37343 916.4
      vertex 163.793 10.75 916.4
      vertex 166.926 4.00643 916.4
    endloop
  endfacet
  facet normal 0 0 1
    outer loop
      vertex 174.878 -1.30704 916.4
      vertex 182.413 0 916.4
      vertex 175.007 -0.659157 916.4
    endloop
  endfacet
  facet normal 0 0 1
    outer loop
      vertex 174.666 -1.93255 916.4
      vertex 182.413 0 916.4
      vertex 174.878 -1.30704 916.4
    endloop
  endfacet
  facet normal 0 0 1
    outer loop
      vertex 174.373 -2.525 916.4
      vertex 182.413 0 916.4
      vertex 174.666 -1.93255 916.4
    endloop
  endfacet
  facet normal 0 0 1
    outer loop
      vertex 182.413 0 916.4
      vertex 174.373 -2.525 916.4
      vertex 176.207 -10.75 916.4
    endloop
  endfacet
  facet normal -0 0 1
    outer loop
      vertex 174.006 -3.07424 916.4
      vertex 176.207 -10.75 916.4
      vertex 174.373 -2.525 916.4
    endloop
  endfacet
  facet normal -0 0 1
    outer loop
      vertex 173.571 -3.57089 916.4
      vertex 176.207 -10.75 916.4
      vertex 174.006 -3.07424 916.4
    endloop
  endfacet
  facet normal -0 0 1
    outer loop
      vertex 173.074 -4.00643 916.4
      vertex 176.207 -10.75 916.4
      vertex 173.571 -3.57089 916.4
    endloop
  endfacet
  facet normal -0 0 1
    outer loop
      vertex 172.525 -4.37343 916.4
      vertex 176.207 -10.75 916.4
      vertex 173.074 -4.00643 916.4
    endloop
  endfacet
  facet normal -0 0 1
    outer loop
      vertex 171.933 -4.66559 916.4
      vertex 176.207 -10.75 916.4
      vertex 172.525 -4.37343 916.4
    endloop
  endfacet
  facet normal -0 0 1
    outer loop
      vertex 171.307 -4.87792 916.4
      vertex 176.207 -10.75 916.4
      vertex 171.933 -4.66559 916.4
    endloop
  endfacet
  facet normal -0 0 1
    outer loop
      vertex 170.659 -5.0068 916.4
      vertex 176.207 -10.75 916.4
      vertex 171.307 -4.87792 916.4
    endloop
  endfacet
  facet normal -0 0 1
    outer loop
      vertex 170 -5.05 916.4
      vertex 176.207 -10.75 916.4
      vertex 170.659 -5.0068 916.4
    endloop
  endfacet
  facet normal 0 0 1
    outer loop
      vertex 163.793 -10.75 916.4
      vertex 170 -5.05 916.4
      vertex 169.341 -5.0068 916.4
    endloop
  endfacet
  facet normal 0 0 1
    outer loop
      vertex 163.793 -10.75 916.4
      vertex 169.341 -5.0068 916.4
      vertex 168.693 -4.87792 916.4
    endloop
  endfacet
  facet normal 0 0 1
    outer loop
      vertex 163.793 -10.75 916.4
      vertex 168.693 -4.87792 916.4
      vertex 168.067 -4.66559 916.4
    endloop
  endfacet
  facet normal 0 0 1
    outer loop
      vertex 163.793 -10.75 916.4
      vertex 168.067 -4.66559 916.4
      vertex 167.475 -4.37343 916.4
    endloop
  endfacet
  facet normal 0 0 1
    outer loop
      vertex 163.793 -10.75 916.4
      vertex 167.475 -4.37343 916.4
      vertex 166.926 -4.00643 916.4
    endloop
  endfacet
  facet normal 0 0 1
    outer loop
      vertex 164.993 0.659157 916.4
      vertex 157.587 0 916.4
      vertex 164.95 0 916.4
    endloop
  endfacet
  facet normal 0 0 1
    outer loop
      vertex 170 -5.05 916.4
      vertex 163.793 -10.75 916.4
      vertex 176.207 -10.75 916.4
    endloop
  endfacet
  facet normal 0 0 1
    outer loop
      vertex 166.429 -3.57089 916.4
      vertex 163.793 -10.75 916.4
      vertex 166.926 -4.00643 916.4
    endloop
  endfacet
  facet normal 0 0 1
    outer loop
      vertex 165.994 -3.07424 916.4
      vertex 163.793 -10.75 916.4
      vertex 166.429 -3.57089 916.4
    endloop
  endfacet
  facet normal 0 0 1
    outer loop
      vertex 165.627 -2.525 916.4
      vertex 163.793 -10.75 916.4
      vertex 165.994 -3.07424 916.4
    endloop
  endfacet
  facet normal 0 0 1
    outer loop
      vertex 157.587 0 916.4
      vertex 165.627 -2.525 916.4
      vertex 165.334 -1.93255 916.4
    endloop
  endfacet
  facet normal 0 0 1
    outer loop
      vertex 157.587 0 916.4
      vertex 165.334 -1.93255 916.4
      vertex 165.122 -1.30704 916.4
    endloop
  endfacet
  facet normal 0 0 1
    outer loop
      vertex 157.587 0 916.4
      vertex 165.122 -1.30704 916.4
      vertex 164.993 -0.659157 916.4
    endloop
  endfacet
  facet normal 0 0 1
    outer loop
      vertex 164.95 0 916.4
      vertex 157.587 0 916.4
      vertex 164.993 -0.659157 916.4
    endloop
  endfacet
  facet normal 0 0 1
    outer loop
      vertex 165.627 -2.525 916.4
      vertex 157.587 0 916.4
      vertex 163.793 -10.75 916.4
    endloop
  endfacet
  facet normal 0 0 -1
    outer loop
      vertex 174.373 -2.525 912.4
      vertex 182.413 0 912.4
      vertex 176.207 -10.75 912.4
    endloop
  endfacet
  facet normal 0 0 -1
    outer loop
      vertex 175.007 0.659157 912.4
      vertex 182.413 0 912.4
      vertex 175.05 0 912.4
    endloop
  endfacet
  facet normal -0 0 -1
    outer loop
      vertex 182.413 0 912.4
      vertex 175.007 -0.659157 912.4
      vertex 175.05 0 912.4
    endloop
  endfacet
  facet normal 0 0 -1
    outer loop
      vertex 182.413 0 912.4
      vertex 174.878 -1.30704 912.4
      vertex 175.007 -0.659157 912.4
    endloop
  endfacet
  facet normal 0 0 -1
    outer loop
      vertex 182.413 0 912.4
      vertex 174.666 -1.93255 912.4
      vertex 174.878 -1.30704 912.4
    endloop
  endfacet
  facet normal 0 0 -1
    outer loop
      vertex 182.413 0 912.4
      vertex 174.373 -2.525 912.4
      vertex 174.666 -1.93255 912.4
    endloop
  endfacet
  facet normal 0 0 -1
    outer loop
      vertex 176.207 -10.75 912.4
      vertex 174.006 -3.07424 912.4
      vertex 174.373 -2.525 912.4
    endloop
  endfacet
  facet normal 0 0 -1
    outer loop
      vertex 176.207 -10.75 912.4
      vertex 173.571 -3.57089 912.4
      vertex 174.006 -3.07424 912.4
    endloop
  endfacet
  facet normal 0 0 -1
    outer loop
      vertex 176.207 -10.75 912.4
      vertex 173.074 -4.00643 912.4
      vertex 173.571 -3.57089 912.4
    endloop
  endfacet
  facet normal 0 0 -1
    outer loop
      vertex 176.207 -10.75 912.4
      vertex 172.525 -4.37343 912.4
      vertex 173.074 -4.00643 912.4
    endloop
  endfacet
  facet normal 0 0 -1
    outer loop
      vertex 176.207 -10.75 912.4
      vertex 171.933 -4.66559 912.4
      vertex 172.525 -4.37343 912.4
    endloop
  endfacet
  facet normal 0 0 -1
    outer loop
      vertex 176.207 -10.75 912.4
      vertex 171.307 -4.87792 912.4
      vertex 171.933 -4.66559 912.4
    endloop
  endfacet
  facet normal 0 0 -1
    outer loop
      vertex 176.207 -10.75 912.4
      vertex 170.659 -5.0068 912.4
      vertex 171.307 -4.87792 912.4
    endloop
  endfacet
  facet normal 0 0 -1
    outer loop
      vertex 176.207 -10.75 912.4
      vertex 170 -5.05 912.4
      vertex 170.659 -5.0068 912.4
    endloop
  endfacet
  facet normal 0 0 -1
    outer loop
      vertex 163.793 -10.75 912.4
      vertex 170 -5.05 912.4
      vertex 176.207 -10.75 912.4
    endloop
  endfacet
  facet normal -0 0 -1
    outer loop
      vertex 170 -5.05 912.4
      vertex 163.793 -10.75 912.4
      vertex 169.341 -5.0068 912.4
    endloop
  endfacet
  facet normal -0 0 -1
    outer loop
      vertex 169.341 -5.0068 912.4
      vertex 163.793 -10.75 912.4
      vertex 168.693 -4.87792 912.4
    endloop
  endfacet
  facet normal -0 0 -1
    outer loop
      vertex 168.693 -4.87792 912.4
      vertex 163.793 -10.75 912.4
      vertex 168.067 -4.66559 912.4
    endloop
  endfacet
  facet normal -0 0 -1
    outer loop
      vertex 168.067 -4.66559 912.4
      vertex 163.793 -10.75 912.4
      vertex 167.475 -4.37343 912.4
    endloop
  endfacet
  facet normal 0 0 -1
    outer loop
      vertex 165.122 -1.30704 912.4
      vertex 157.587 0 912.4
      vertex 164.993 -0.659157 912.4
    endloop
  endfacet
  facet normal 0 0 -1
    outer loop
      vertex 165.334 -1.93255 912.4
      vertex 157.587 0 912.4
      vertex 165.122 -1.30704 912.4
    endloop
  endfacet
  facet normal 0 0 -1
    outer loop
      vertex 165.627 -2.525 912.4
      vertex 157.587 0 912.4
      vertex 165.334 -1.93255 912.4
    endloop
  endfacet
  facet normal 0 0 -1
    outer loop
      vertex 157.587 0 912.4
      vertex 165.627 -2.525 912.4
      vertex 163.793 -10.75 912.4
    endloop
  endfacet
  facet normal -0 0 -1
    outer loop
      vertex 165.994 -3.07424 912.4
      vertex 163.793 -10.75 912.4
      vertex 165.627 -2.525 912.4
    endloop
  endfacet
  facet normal -0 0 -1
    outer loop
      vertex 166.429 -3.57089 912.4
      vertex 163.793 -10.75 912.4
      vertex 165.994 -3.07424 912.4
    endloop
  endfacet
  facet normal -0 0 -1
    outer loop
      vertex 166.926 -4.00643 912.4
      vertex 163.793 -10.75 912.4
      vertex 166.429 -3.57089 912.4
    endloop
  endfacet
  facet normal -0 0 -1
    outer loop
      vertex 167.475 -4.37343 912.4
      vertex 163.793 -10.75 912.4
      vertex 166.926 -4.00643 912.4
    endloop
  endfacet
  facet normal 0 0 -1
    outer loop
      vertex 174.878 1.30704 912.4
      vertex 182.413 0 912.4
      vertex 175.007 0.659157 912.4
    endloop
  endfacet
  facet normal 0 0 -1
    outer loop
      vertex 174.666 1.93255 912.4
      vertex 182.413 0 912.4
      vertex 174.878 1.30704 912.4
    endloop
  endfacet
  facet normal 0 0 -1
    outer loop
      vertex 174.373 2.525 912.4
      vertex 182.413 0 912.4
      vertex 174.666 1.93255 912.4
    endloop
  endfacet
  facet normal 0 0 -1
    outer loop
      vertex 182.413 0 912.4
      vertex 174.373 2.525 912.4
      vertex 176.207 10.75 912.4
    endloop
  endfacet
  facet normal 0 0 -1
    outer loop
      vertex 174.006 3.07424 912.4
      vertex 176.207 10.75 912.4
      vertex 174.373 2.525 912.4
    endloop
  endfacet
  facet normal 0 0 -1
    outer loop
      vertex 173.571 3.57089 912.4
      vertex 176.207 10.75 912.4
      vertex 174.006 3.07424 912.4
    endloop
  endfacet
  facet normal 0 0 -1
    outer loop
      vertex 173.074 4.00643 912.4
      vertex 176.207 10.75 912.4
      vertex 173.571 3.57089 912.4
    endloop
  endfacet
  facet normal 0 0 -1
    outer loop
      vertex 172.525 4.37343 912.4
      vertex 176.207 10.75 912.4
      vertex 173.074 4.00643 912.4
    endloop
  endfacet
  facet normal 0 0 -1
    outer loop
      vertex 171.933 4.66559 912.4
      vertex 176.207 10.75 912.4
      vertex 172.525 4.37343 912.4
    endloop
  endfacet
  facet normal 0 0 -1
    outer loop
      vertex 171.307 4.87792 912.4
      vertex 176.207 10.75 912.4
      vertex 171.933 4.66559 912.4
    endloop
  endfacet
  facet normal 0 0 -1
    outer loop
      vertex 170.659 5.0068 912.4
      vertex 176.207 10.75 912.4
      vertex 171.307 4.87792 912.4
    endloop
  endfacet
  facet normal 0 0 -1
    outer loop
      vertex 170 5.05 912.4
      vertex 176.207 10.75 912.4
      vertex 170.659 5.0068 912.4
    endloop
  endfacet
  facet normal 0 0 -1
    outer loop
      vertex 163.793 10.75 912.4
      vertex 170 5.05 912.4
      vertex 169.341 5.0068 912.4
    endloop
  endfacet
  facet normal 0 0 -1
    outer loop
      vertex 163.793 10.75 912.4
      vertex 169.341 5.0068 912.4
      vertex 168.693 4.87792 912.4
    endloop
  endfacet
  facet normal 0 0 -1
    outer loop
      vertex 163.793 10.75 912.4
      vertex 168.693 4.87792 912.4
      vertex 168.067 4.66559 912.4
    endloop
  endfacet
  facet normal 0 0 -1
    outer loop
      vertex 163.793 10.75 912.4
      vertex 168.067 4.66559 912.4
      vertex 167.475 4.37343 912.4
    endloop
  endfacet
  facet normal 0 0 -1
    outer loop
      vertex 163.793 10.75 912.4
      vertex 167.475 4.37343 912.4
      vertex 166.926 4.00643 912.4
    endloop
  endfacet
  facet normal 0 0 -1
    outer loop
      vertex 164.993 -0.659157 912.4
      vertex 157.587 0 912.4
      vertex 164.95 0 912.4
    endloop
  endfacet
  facet normal 0 0 -1
    outer loop
      vertex 170 5.05 912.4
      vertex 163.793 10.75 912.4
      vertex 176.207 10.75 912.4
    endloop
  endfacet
  facet normal 0 0 -1
    outer loop
      vertex 166.429 3.57089 912.4
      vertex 163.793 10.75 912.4
      vertex 166.926 4.00643 912.4
    endloop
  endfacet
  facet normal 0 0 -1
    outer loop
      vertex 165.994 3.07424 912.4
      vertex 163.793 10.75 912.4
      vertex 166.429 3.57089 912.4
    endloop
  endfacet
  facet normal 0 0 -1
    outer loop
      vertex 165.627 2.525 912.4
      vertex 163.793 10.75 912.4
      vertex 165.994 3.07424 912.4
    endloop
  endfacet
  facet normal 0 0 -1
    outer loop
      vertex 157.587 0 912.4
      vertex 165.627 2.525 912.4
      vertex 165.334 1.93255 912.4
    endloop
  endfacet
  facet normal 0 0 -1
    outer loop
      vertex 157.587 0 912.4
      vertex 165.334 1.93255 912.4
      vertex 165.122 1.30704 912.4
    endloop
  endfacet
  facet normal 0 0 -1
    outer loop
      vertex 157.587 0 912.4
      vertex 165.122 1.30704 912.4
      vertex 164.993 0.659157 912.4
    endloop
  endfacet
  facet normal 0 0 -1
    outer loop
      vertex 164.95 0 912.4
      vertex 157.587 0 912.4
      vertex 164.993 0.659157 912.4
    endloop
  endfacet
  facet normal -0 0 -1
    outer loop
      vertex 165.627 2.525 912.4
      vertex 157.587 0 912.4
      vertex 163.793 10.75 912.4
    endloop
  endfacet
  facet normal 0.89637 0.443306 0
    outer loop
      vertex 165.627 -2.525 916.4
      vertex 165.334 -1.93255 912.4
      vertex 165.334 -1.93255 916.4
    endloop
  endfacet
  facet normal 0.89637 0.443306 0
    outer loop
      vertex 165.334 -1.93255 912.4
      vertex 165.627 -2.525 916.4
      vertex 165.627 -2.525 912.4
    endloop
  endfacet
  facet normal 0.831463 0.55558 0
    outer loop
      vertex 165.994 -3.07424 916.4
      vertex 165.627 -2.525 912.4
      vertex 165.627 -2.525 916.4
    endloop
  endfacet
  facet normal 0.831463 0.55558 0
    outer loop
      vertex 165.627 -2.525 912.4
      vertex 165.994 -3.07424 916.4
      vertex 165.994 -3.07424 912.4
    endloop
  endfacet
  facet normal -0.980748 -0.195277 0
    outer loop
      vertex 175.007 0.659157 912.4
      vertex 174.878 1.30704 916.4
      vertex 174.878 1.30704 912.4
    endloop
  endfacet
  facet normal -0.980748 -0.195277 0
    outer loop
      vertex 174.878 1.30704 916.4
      vertex 175.007 0.659157 912.4
      vertex 175.007 0.659157 916.4
    endloop
  endfacet
  facet normal -0.997879 -0.0650965 0
    outer loop
      vertex 175.05 0 912.4
      vertex 175.007 0.659157 916.4
      vertex 175.007 0.659157 912.4
    endloop
  endfacet
  facet normal -0.997879 -0.0650965 0
    outer loop
      vertex 175.007 0.659157 916.4
      vertex 175.05 0 912.4
      vertex 175.05 0 916.4
    endloop
  endfacet
  facet normal -0.947083 -0.320989 0
    outer loop
      vertex 174.878 1.30704 912.4
      vertex 174.666 1.93255 916.4
      vertex 174.666 1.93255 912.4
    endloop
  endfacet
  facet normal -0.947083 -0.320989 0
    outer loop
      vertex 174.666 1.93255 916.4
      vertex 174.878 1.30704 912.4
      vertex 174.878 1.30704 916.4
    endloop
  endfacet
  facet normal -0.321211 -0.947008 0
    outer loop
      vertex 171.307 4.87792 912.4
      vertex 171.933 4.66559 916.4
      vertex 171.307 4.87792 916.4
    endloop
  endfacet
  facet normal -0.321211 -0.947008 -0
    outer loop
      vertex 171.933 4.66559 916.4
      vertex 171.307 4.87792 912.4
      vertex 171.933 4.66559 912.4
    endloop
  endfacet
  facet normal -0.89637 0.443306 0
    outer loop
      vertex 174.373 -2.525 912.4
      vertex 174.666 -1.93255 916.4
      vertex 174.666 -1.93255 912.4
    endloop
  endfacet
  facet normal -0.89637 0.443306 0
    outer loop
      vertex 174.666 -1.93255 916.4
      vertex 174.373 -2.525 912.4
      vertex 174.373 -2.525 916.4
    endloop
  endfacet
  facet normal -0.997879 0.0650965 0
    outer loop
      vertex 175.007 -0.659157 912.4
      vertex 175.05 0 916.4
      vertex 175.05 0 912.4
    endloop
  endfacet
  facet normal -0.997879 0.0650965 0
    outer loop
      vertex 175.05 0 916.4
      vertex 175.007 -0.659157 912.4
      vertex 175.007 -0.659157 916.4
    endloop
  endfacet
  facet normal -0.321211 0.947008 0
    outer loop
      vertex 171.933 -4.66559 912.4
      vertex 171.307 -4.87792 916.4
      vertex 171.933 -4.66559 916.4
    endloop
  endfacet
  facet normal -0.321211 0.947008 0
    outer loop
      vertex 171.307 -4.87792 916.4
      vertex 171.933 -4.66559 912.4
      vertex 171.307 -4.87792 912.4
    endloop
  endfacet
  facet normal -0.89637 -0.443306 0
    outer loop
      vertex 174.666 1.93255 912.4
      vertex 174.373 2.525 916.4
      vertex 174.373 2.525 912.4
    endloop
  endfacet
  facet normal -0.89637 -0.443306 0
    outer loop
      vertex 174.373 2.525 916.4
      vertex 174.666 1.93255 912.4
      vertex 174.666 1.93255 916.4
    endloop
  endfacet
  facet normal 0.195068 -0.98079 0
    outer loop
      vertex 168.693 4.87792 912.4
      vertex 169.341 5.0068 916.4
      vertex 168.693 4.87792 916.4
    endloop
  endfacet
  facet normal 0.195068 -0.98079 0
    outer loop
      vertex 169.341 5.0068 916.4
      vertex 168.693 4.87792 912.4
      vertex 169.341 5.0068 912.4
    endloop
  endfacet
  facet normal 0.947083 -0.320989 0
    outer loop
      vertex 165.122 1.30704 916.4
      vertex 165.334 1.93255 912.4
      vertex 165.334 1.93255 916.4
    endloop
  endfacet
  facet normal 0.947083 -0.320989 0
    outer loop
      vertex 165.334 1.93255 912.4
      vertex 165.122 1.30704 916.4
      vertex 165.122 1.30704 912.4
    endloop
  endfacet
  facet normal -0.0654135 -0.997858 0
    outer loop
      vertex 170 5.05 912.4
      vertex 170.659 5.0068 916.4
      vertex 170 5.05 916.4
    endloop
  endfacet
  facet normal -0.0654135 -0.997858 -0
    outer loop
      vertex 170.659 5.0068 916.4
      vertex 170 5.05 912.4
      vertex 170.659 5.0068 912.4
    endloop
  endfacet
  facet normal -0.980748 0.195277 0
    outer loop
      vertex 174.878 -1.30704 912.4
      vertex 175.007 -0.659157 916.4
      vertex 175.007 -0.659157 912.4
    endloop
  endfacet
  facet normal -0.980748 0.195277 0
    outer loop
      vertex 175.007 -0.659157 916.4
      vertex 174.878 -1.30704 912.4
      vertex 174.878 -1.30704 916.4
    endloop
  endfacet
  facet normal -0.555748 0.831351 0
    outer loop
      vertex 173.074 -4.00643 912.4
      vertex 172.525 -4.37343 916.4
      vertex 173.074 -4.00643 916.4
    endloop
  endfacet
  facet normal -0.555748 0.831351 0
    outer loop
      vertex 172.525 -4.37343 916.4
      vertex 173.074 -4.00643 912.4
      vertex 172.525 -4.37343 912.4
    endloop
  endfacet
  facet normal -0.0654135 0.997858 0
    outer loop
      vertex 170.659 -5.0068 912.4
      vertex 170 -5.05 916.4
      vertex 170.659 -5.0068 916.4
    endloop
  endfacet
  facet normal -0.0654135 0.997858 0
    outer loop
      vertex 170 -5.05 916.4
      vertex 170.659 -5.0068 912.4
      vertex 170 -5.05 912.4
    endloop
  endfacet
  facet normal 0.321211 -0.947008 0
    outer loop
      vertex 168.067 4.66559 912.4
      vertex 168.693 4.87792 916.4
      vertex 168.067 4.66559 916.4
    endloop
  endfacet
  facet normal 0.321211 -0.947008 0
    outer loop
      vertex 168.693 4.87792 916.4
      vertex 168.067 4.66559 912.4
      vertex 168.693 4.87792 912.4
    endloop
  endfacet
  facet normal 0.659074 -0.752078 0
    outer loop
      vertex 166.429 3.57089 912.4
      vertex 166.926 4.00643 916.4
      vertex 166.429 3.57089 916.4
    endloop
  endfacet
  facet normal 0.659074 -0.752078 0
    outer loop
      vertex 166.926 4.00643 916.4
      vertex 166.429 3.57089 912.4
      vertex 166.926 4.00643 912.4
    endloop
  endfacet
  facet normal -0.555748 -0.831351 0
    outer loop
      vertex 172.525 4.37343 912.4
      vertex 173.074 4.00643 916.4
      vertex 172.525 4.37343 916.4
    endloop
  endfacet
  facet normal -0.555748 -0.831351 -0
    outer loop
      vertex 173.074 4.00643 916.4
      vertex 172.525 4.37343 912.4
      vertex 173.074 4.00643 912.4
    endloop
  endfacet
  facet normal 0.752253 -0.658874 0
    outer loop
      vertex 165.994 3.07424 916.4
      vertex 166.429 3.57089 912.4
      vertex 166.429 3.57089 916.4
    endloop
  endfacet
  facet normal 0.752253 -0.658874 0
    outer loop
      vertex 166.429 3.57089 912.4
      vertex 165.994 3.07424 916.4
      vertex 165.994 3.07424 912.4
    endloop
  endfacet
  facet normal -0.195068 0.98079 0
    outer loop
      vertex 171.307 -4.87792 912.4
      vertex 170.659 -5.0068 916.4
      vertex 171.307 -4.87792 916.4
    endloop
  endfacet
  facet normal -0.195068 0.98079 0
    outer loop
      vertex 170.659 -5.0068 916.4
      vertex 171.307 -4.87792 912.4
      vertex 170.659 -5.0068 912.4
    endloop
  endfacet
  facet normal -0.831463 -0.55558 0
    outer loop
      vertex 174.373 2.525 912.4
      vertex 174.006 3.07424 916.4
      vertex 174.006 3.07424 912.4
    endloop
  endfacet
  facet normal -0.831463 -0.55558 0
    outer loop
      vertex 174.006 3.07424 916.4
      vertex 174.373 2.525 912.4
      vertex 174.373 2.525 916.4
    endloop
  endfacet
  facet normal -0.659074 -0.752078 0
    outer loop
      vertex 173.074 4.00643 912.4
      vertex 173.571 3.57089 916.4
      vertex 173.074 4.00643 916.4
    endloop
  endfacet
  facet normal -0.659074 -0.752078 -0
    outer loop
      vertex 173.571 3.57089 916.4
      vertex 173.074 4.00643 912.4
      vertex 173.571 3.57089 912.4
    endloop
  endfacet
  facet normal 0.442554 -0.896742 0
    outer loop
      vertex 167.475 4.37343 912.4
      vertex 168.067 4.66559 916.4
      vertex 167.475 4.37343 916.4
    endloop
  endfacet
  facet normal 0.442554 -0.896742 0
    outer loop
      vertex 168.067 4.66559 916.4
      vertex 167.475 4.37343 912.4
      vertex 168.067 4.66559 912.4
    endloop
  endfacet
  facet normal -0.831463 0.55558 0
    outer loop
      vertex 174.006 -3.07424 912.4
      vertex 174.373 -2.525 916.4
      vertex 174.373 -2.525 912.4
    endloop
  endfacet
  facet normal -0.831463 0.55558 0
    outer loop
      vertex 174.373 -2.525 916.4
      vertex 174.006 -3.07424 912.4
      vertex 174.006 -3.07424 916.4
    endloop
  endfacet
  facet normal -0.752253 -0.658874 0
    outer loop
      vertex 174.006 3.07424 912.4
      vertex 173.571 3.57089 916.4
      vertex 173.571 3.57089 912.4
    endloop
  endfacet
  facet normal -0.752253 -0.658874 0
    outer loop
      vertex 173.571 3.57089 916.4
      vertex 174.006 3.07424 912.4
      vertex 174.006 3.07424 916.4
    endloop
  endfacet
  facet normal 0.321211 0.947008 -0
    outer loop
      vertex 168.693 -4.87792 912.4
      vertex 168.067 -4.66559 916.4
      vertex 168.693 -4.87792 916.4
    endloop
  endfacet
  facet normal 0.321211 0.947008 0
    outer loop
      vertex 168.067 -4.66559 916.4
      vertex 168.693 -4.87792 912.4
      vertex 168.067 -4.66559 912.4
    endloop
  endfacet
  facet normal 0.0654135 0.997858 -0
    outer loop
      vertex 170 -5.05 912.4
      vertex 169.341 -5.0068 916.4
      vertex 170 -5.05 916.4
    endloop
  endfacet
  facet normal 0.0654135 0.997858 0
    outer loop
      vertex 169.341 -5.0068 916.4
      vertex 170 -5.05 912.4
      vertex 169.341 -5.0068 912.4
    endloop
  endfacet
  facet normal 0.555748 -0.831351 0
    outer loop
      vertex 166.926 4.00643 912.4
      vertex 167.475 4.37343 916.4
      vertex 166.926 4.00643 916.4
    endloop
  endfacet
  facet normal 0.555748 -0.831351 0
    outer loop
      vertex 167.475 4.37343 916.4
      vertex 166.926 4.00643 912.4
      vertex 167.475 4.37343 912.4
    endloop
  endfacet
  facet normal -0.442554 -0.896742 0
    outer loop
      vertex 171.933 4.66559 912.4
      vertex 172.525 4.37343 916.4
      vertex 171.933 4.66559 916.4
    endloop
  endfacet
  facet normal -0.442554 -0.896742 -0
    outer loop
      vertex 172.525 4.37343 916.4
      vertex 171.933 4.66559 912.4
      vertex 172.525 4.37343 912.4
    endloop
  endfacet
  facet normal -0.442554 0.896742 0
    outer loop
      vertex 172.525 -4.37343 912.4
      vertex 171.933 -4.66559 916.4
      vertex 172.525 -4.37343 916.4
    endloop
  endfacet
  facet normal -0.442554 0.896742 0
    outer loop
      vertex 171.933 -4.66559 916.4
      vertex 172.525 -4.37343 912.4
      vertex 171.933 -4.66559 912.4
    endloop
  endfacet
  facet normal -0.947083 0.320989 0
    outer loop
      vertex 174.666 -1.93255 912.4
      vertex 174.878 -1.30704 916.4
      vertex 174.878 -1.30704 912.4
    endloop
  endfacet
  facet normal -0.947083 0.320989 0
    outer loop
      vertex 174.878 -1.30704 916.4
      vertex 174.666 -1.93255 912.4
      vertex 174.666 -1.93255 916.4
    endloop
  endfacet
  facet normal 0.947083 0.320989 0
    outer loop
      vertex 165.334 -1.93255 916.4
      vertex 165.122 -1.30704 912.4
      vertex 165.122 -1.30704 916.4
    endloop
  endfacet
  facet normal 0.947083 0.320989 0
    outer loop
      vertex 165.122 -1.30704 912.4
      vertex 165.334 -1.93255 916.4
      vertex 165.334 -1.93255 912.4
    endloop
  endfacet
  facet normal 0.89637 -0.443306 0
    outer loop
      vertex 165.334 1.93255 916.4
      vertex 165.627 2.525 912.4
      vertex 165.627 2.525 916.4
    endloop
  endfacet
  facet normal 0.89637 -0.443306 0
    outer loop
      vertex 165.627 2.525 912.4
      vertex 165.334 1.93255 916.4
      vertex 165.334 1.93255 912.4
    endloop
  endfacet
  facet normal 0.980748 -0.195277 0
    outer loop
      vertex 164.993 0.659157 916.4
      vertex 165.122 1.30704 912.4
      vertex 165.122 1.30704 916.4
    endloop
  endfacet
  facet normal 0.980748 -0.195277 0
    outer loop
      vertex 165.122 1.30704 912.4
      vertex 164.993 0.659157 916.4
      vertex 164.993 0.659157 912.4
    endloop
  endfacet
  facet normal 0.997879 -0.0650965 0
    outer loop
      vertex 164.95 0 916.4
      vertex 164.993 0.659157 912.4
      vertex 164.993 0.659157 916.4
    endloop
  endfacet
  facet normal 0.997879 -0.0650965 0
    outer loop
      vertex 164.993 0.659157 912.4
      vertex 164.95 0 916.4
      vertex 164.95 0 912.4
    endloop
  endfacet
  facet normal 0.752253 0.658874 0
    outer loop
      vertex 166.429 -3.57089 916.4
      vertex 165.994 -3.07424 912.4
      vertex 165.994 -3.07424 916.4
    endloop
  endfacet
  facet normal 0.752253 0.658874 0
    outer loop
      vertex 165.994 -3.07424 912.4
      vertex 166.429 -3.57089 916.4
      vertex 166.429 -3.57089 912.4
    endloop
  endfacet
  facet normal -0.195068 -0.98079 0
    outer loop
      vertex 170.659 5.0068 912.4
      vertex 171.307 4.87792 916.4
      vertex 170.659 5.0068 916.4
    endloop
  endfacet
  facet normal -0.195068 -0.98079 -0
    outer loop
      vertex 171.307 4.87792 916.4
      vertex 170.659 5.0068 912.4
      vertex 171.307 4.87792 912.4
    endloop
  endfacet
  facet normal -0.659074 0.752078 0
    outer loop
      vertex 173.571 -3.57089 912.4
      vertex 173.074 -4.00643 916.4
      vertex 173.571 -3.57089 916.4
    endloop
  endfacet
  facet normal -0.659074 0.752078 0
    outer loop
      vertex 173.074 -4.00643 916.4
      vertex 173.571 -3.57089 912.4
      vertex 173.074 -4.00643 912.4
    endloop
  endfacet
  facet normal 0.0654135 -0.997858 0
    outer loop
      vertex 169.341 5.0068 912.4
      vertex 170 5.05 916.4
      vertex 169.341 5.0068 916.4
    endloop
  endfacet
  facet normal 0.0654135 -0.997858 0
    outer loop
      vertex 170 5.05 916.4
      vertex 169.341 5.0068 912.4
      vertex 170 5.05 912.4
    endloop
  endfacet
  facet normal -0.752253 0.658874 0
    outer loop
      vertex 173.571 -3.57089 912.4
      vertex 174.006 -3.07424 916.4
      vertex 174.006 -3.07424 912.4
    endloop
  endfacet
  facet normal -0.752253 0.658874 0
    outer loop
      vertex 174.006 -3.07424 916.4
      vertex 173.571 -3.57089 912.4
      vertex 173.571 -3.57089 916.4
    endloop
  endfacet
  facet normal 0.659074 0.752078 -0
    outer loop
      vertex 166.926 -4.00643 912.4
      vertex 166.429 -3.57089 916.4
      vertex 166.926 -4.00643 916.4
    endloop
  endfacet
  facet normal 0.659074 0.752078 0
    outer loop
      vertex 166.429 -3.57089 916.4
      vertex 166.926 -4.00643 912.4
      vertex 166.429 -3.57089 912.4
    endloop
  endfacet
  facet normal 0.980748 0.195277 0
    outer loop
      vertex 165.122 -1.30704 916.4
      vertex 164.993 -0.659157 912.4
      vertex 164.993 -0.659157 916.4
    endloop
  endfacet
  facet normal 0.980748 0.195277 0
    outer loop
      vertex 164.993 -0.659157 912.4
      vertex 165.122 -1.30704 916.4
      vertex 165.122 -1.30704 912.4
    endloop
  endfacet
  facet normal 0.997879 0.0650965 0
    outer loop
      vertex 164.993 -0.659157 916.4
      vertex 164.95 0 912.4
      vertex 164.95 0 916.4
    endloop
  endfacet
  facet normal 0.997879 0.0650965 0
    outer loop
      vertex 164.95 0 912.4
      vertex 164.993 -0.659157 916.4
      vertex 164.993 -0.659157 912.4
    endloop
  endfacet
  facet normal 0.831463 -0.55558 0
    outer loop
      vertex 165.627 2.525 916.4
      vertex 165.994 3.07424 912.4
      vertex 165.994 3.07424 916.4
    endloop
  endfacet
  facet normal 0.831463 -0.55558 0
    outer loop
      vertex 165.994 3.07424 912.4
      vertex 165.627 2.525 916.4
      vertex 165.627 2.525 912.4
    endloop
  endfacet
  facet normal 0.555748 0.831351 -0
    outer loop
      vertex 167.475 -4.37343 912.4
      vertex 166.926 -4.00643 916.4
      vertex 167.475 -4.37343 916.4
    endloop
  endfacet
  facet normal 0.555748 0.831351 0
    outer loop
      vertex 166.926 -4.00643 916.4
      vertex 167.475 -4.37343 912.4
      vertex 166.926 -4.00643 912.4
    endloop
  endfacet
  facet normal 0.442554 0.896742 -0
    outer loop
      vertex 168.067 -4.66559 912.4
      vertex 167.475 -4.37343 916.4
      vertex 168.067 -4.66559 916.4
    endloop
  endfacet
  facet normal 0.442554 0.896742 0
    outer loop
      vertex 167.475 -4.37343 916.4
      vertex 168.067 -4.66559 912.4
      vertex 167.475 -4.37343 912.4
    endloop
  endfacet
  facet normal 0.195068 0.98079 -0
    outer loop
      vertex 169.341 -5.0068 912.4
      vertex 168.693 -4.87792 916.4
      vertex 169.341 -5.0068 916.4
    endloop
  endfacet
  facet normal 0.195068 0.98079 0
    outer loop
      vertex 168.693 -4.87792 916.4
      vertex 169.341 -5.0068 912.4
      vertex 168.693 -4.87792 912.4
    endloop
  endfacet
endsolid OpenSCAD_Model
