solid OpenSCAD_Model
  facet normal 1 0 0
    outer loop
      vertex 80 60 40
      vertex 80 37.5 28
      vertex 80 60 0
    endloop
  endfacet
  facet normal 1 0 0
    outer loop
      vertex 80 60 40
      vertex 80 22.5 28
      vertex 80 37.5 28
    endloop
  endfacet
  facet normal 1 0 0
    outer loop
      vertex 80 0 0
      vertex 80 22.5 28
      vertex 80 0 40
    endloop
  endfacet
  facet normal 1 -0 0
    outer loop
      vertex 80 0 40
      vertex 80 22.5 28
      vertex 80 60 40
    endloop
  endfacet
  facet normal 1 -0 0
    outer loop
      vertex 80 37.5 3
      vertex 80 60 0
      vertex 80 37.5 28
    endloop
  endfacet
  facet normal 1 -0 0
    outer loop
      vertex 80 22.5 3
      vertex 80 60 0
      vertex 80 37.5 3
    endloop
  endfacet
  facet normal 1 0 0
    outer loop
      vertex 80 22.5 3
      vertex 80 0 0
      vertex 80 60 0
    endloop
  endfacet
  facet normal 1 0 0
    outer loop
      vertex 80 22.5 28
      vertex 80 0 0
      vertex 80 22.5 3
    endloop
  endfacet
  facet normal 0 0 1
    outer loop
      vertex 80 60 40
      vertex 77 57 40
      vertex 80 0 40
    endloop
  endfacet
  facet normal 0 0 1
    outer loop
      vertex 80 60 40
      vertex 3 57 40
      vertex 77 57 40
    endloop
  endfacet
  facet normal 0 0 1
    outer loop
      vertex 3 57 40
      vertex 0 60 40
      vertex 3 3 40
    endloop
  endfacet
  facet normal -0 0 1
    outer loop
      vertex 0 60 40
      vertex 3 57 40
      vertex 80 60 40
    endloop
  endfacet
  facet normal -0 0 1
    outer loop
      vertex 77 3 40
      vertex 80 0 40
      vertex 77 57 40
    endloop
  endfacet
  facet normal -0 0 1
    outer loop
      vertex 3 3 40
      vertex 80 0 40
      vertex 77 3 40
    endloop
  endfacet
  facet normal 0 0 1
    outer loop
      vertex 3 3 40
      vertex 0 0 40
      vertex 80 0 40
    endloop
  endfacet
  facet normal 0 0 1
    outer loop
      vertex 0 0 40
      vertex 3 3 40
      vertex 0 60 40
    endloop
  endfacet
  facet normal 0 0 -1
    outer loop
      vertex 0 0 0
      vertex 80 60 0
      vertex 80 0 0
    endloop
  endfacet
  facet normal -0 0 -1
    outer loop
      vertex 80 60 0
      vertex 0 0 0
      vertex 0 60 0
    endloop
  endfacet
  facet normal -1 0 0
    outer loop
      vertex 0 0 0
      vertex 0 60 40
      vertex 0 60 0
    endloop
  endfacet
  facet normal -1 -0 0
    outer loop
      vertex 0 60 40
      vertex 0 0 0
      vertex 0 0 40
    endloop
  endfacet
  facet normal 0 1 -0
    outer loop
      vertex 80 60 0
      vertex 0 60 40
      vertex 80 60 40
    endloop
  endfacet
  facet normal 0 1 0
    outer loop
      vertex 0 60 40
      vertex 80 60 0
      vertex 0 60 0
    endloop
  endfacet
  facet normal 0 -1 0
    outer loop
      vertex 0 0 40
      vertex 25 0 20
      vertex 80 0 40
    endloop
  endfacet
  facet normal 0 -1 0
    outer loop
      vertex 0 0 0
      vertex 25 0 20
      vertex 0 0 40
    endloop
  endfacet
  facet normal 0 -1 -0
    outer loop
      vertex 25 0 10
      vertex 0 0 0
      vertex 55 0 10
    endloop
  endfacet
  facet normal 0 -1 -0
    outer loop
      vertex 25 0 20
      vertex 0 0 0
      vertex 25 0 10
    endloop
  endfacet
  facet normal 0 -1 0
    outer loop
      vertex 55 0 20
      vertex 80 0 40
      vertex 25 0 20
    endloop
  endfacet
  facet normal 0 -1 0
    outer loop
      vertex 80 0 0
      vertex 55 0 20
      vertex 55 0 10
    endloop
  endfacet
  facet normal 0 -1 0
    outer loop
      vertex 55 0 20
      vertex 80 0 0
      vertex 80 0 40
    endloop
  endfacet
  facet normal 0 -1 0
    outer loop
      vertex 80 0 0
      vertex 55 0 10
      vertex 0 0 0
    endloop
  endfacet
  facet normal -1 0 0
    outer loop
      vertex 77 57 3
      vertex 77 51 8
      vertex 77 57 8
    endloop
  endfacet
  facet normal -1 -0 0
    outer loop
      vertex 77 51 8
      vertex 77 3 3
      vertex 77 51 9.5
    endloop
  endfacet
  facet normal -1 0 0
    outer loop
      vertex 77 3 3
      vertex 77 51 8
      vertex 77 57 3
    endloop
  endfacet
  facet normal -1 0 0
    outer loop
      vertex 77 51 9.5
      vertex 77 57 40
      vertex 77 57 9.5
    endloop
  endfacet
  facet normal -1 0 0
    outer loop
      vertex 77 3 40
      vertex 77 51 9.5
      vertex 77 3 3
    endloop
  endfacet
  facet normal -1 0 0
    outer loop
      vertex 77 51 9.5
      vertex 77 3 40
      vertex 77 57 40
    endloop
  endfacet
  facet normal -0 0 1
    outer loop
      vertex 3 57 3
      vertex 77 3 3
      vertex 77 57 3
    endloop
  endfacet
  facet normal 0 0 1
    outer loop
      vertex 77 3 3
      vertex 3 57 3
      vertex 3 3 3
    endloop
  endfacet
  facet normal 1 0 0
    outer loop
      vertex 3 57 40
      vertex 3 51 9.5
      vertex 3 57 9.5
    endloop
  endfacet
  facet normal 1 0 0
    outer loop
      vertex 3 3 3
      vertex 3 51 9.5
      vertex 3 3 40
    endloop
  endfacet
  facet normal 1 -0 0
    outer loop
      vertex 3 3 40
      vertex 3 51 9.5
      vertex 3 57 40
    endloop
  endfacet
  facet normal 1 -0 0
    outer loop
      vertex 3 51 8
      vertex 3 57 3
      vertex 3 57 8
    endloop
  endfacet
  facet normal 1 0 0
    outer loop
      vertex 3 51 9.5
      vertex 3 3 3
      vertex 3 51 8
    endloop
  endfacet
  facet normal 1 0 0
    outer loop
      vertex 3 51 8
      vertex 3 3 3
      vertex 3 57 3
    endloop
  endfacet
  facet normal 0 -1 0
    outer loop
      vertex 3 57 9.5
      vertex 77 57 40
      vertex 3 57 40
    endloop
  endfacet
  facet normal 0 -1 -0
    outer loop
      vertex 77 57 40
      vertex 3 57 9.5
      vertex 77 57 9.5
    endloop
  endfacet
  facet normal 0 -1 0
    outer loop
      vertex 3 57 3
      vertex 77 57 8
      vertex 3 57 8
    endloop
  endfacet
  facet normal 0 -1 -0
    outer loop
      vertex 77 57 8
      vertex 3 57 3
      vertex 77 57 3
    endloop
  endfacet
  facet normal 0 1 -0
    outer loop
      vertex 77 3 3
      vertex 3 3 40
      vertex 77 3 40
    endloop
  endfacet
  facet normal 0 1 0
    outer loop
      vertex 3 3 40
      vertex 77 3 3
      vertex 3 3 3
    endloop
  endfacet
  facet normal -1 0 0
    outer loop
      vertex 55 0 10
      vertex 55 1.5 20
      vertex 55 1.5 10
    endloop
  endfacet
  facet normal -1 -0 0
    outer loop
      vertex 55 1.5 20
      vertex 55 0 10
      vertex 55 0 20
    endloop
  endfacet
  facet normal 0 0 -1
    outer loop
      vertex 25 0 20
      vertex 55 1.5 20
      vertex 55 0 20
    endloop
  endfacet
  facet normal -0 0 -1
    outer loop
      vertex 55 1.5 20
      vertex 25 0 20
      vertex 25 1.5 20
    endloop
  endfacet
  facet normal -0 0 1
    outer loop
      vertex 25 1.5 10
      vertex 55 0 10
      vertex 55 1.5 10
    endloop
  endfacet
  facet normal 0 0 1
    outer loop
      vertex 55 0 10
      vertex 25 1.5 10
      vertex 25 0 10
    endloop
  endfacet
  facet normal 1 -0 0
    outer loop
      vertex 25 0 20
      vertex 25 1.5 10
      vertex 25 1.5 20
    endloop
  endfacet
  facet normal 1 0 0
    outer loop
      vertex 25 1.5 10
      vertex 25 0 20
      vertex 25 0 10
    endloop
  endfacet
  facet normal 0 -1 0
    outer loop
      vertex 25 1.5 10
      vertex 55 1.5 20
      vertex 25 1.5 20
    endloop
  endfacet
  facet normal 0 -1 -0
    outer loop
      vertex 55 1.5 20
      vertex 25 1.5 10
      vertex 55 1.5 10
    endloop
  endfacet
  facet normal 0 0 -1
    outer loop
      vertex 79 22.5 28
      vertex 80 37.5 28
      vertex 80 22.5 28
    endloop
  endfacet
  facet normal -0 0 -1
    outer loop
      vertex 80 37.5 28
      vertex 79 22.5 28
      vertex 79 37.5 28
    endloop
  endfacet
  facet normal -0 0 1
    outer loop
      vertex 79 37.5 3
      vertex 80 22.5 3
      vertex 80 37.5 3
    endloop
  endfacet
  facet normal 0 0 1
    outer loop
      vertex 80 22.5 3
      vertex 79 37.5 3
      vertex 79 22.5 3
    endloop
  endfacet
  facet normal 1 -0 0
    outer loop
      vertex 79 22.5 28
      vertex 79 37.5 3
      vertex 79 37.5 28
    endloop
  endfacet
  facet normal 1 0 0
    outer loop
      vertex 79 37.5 3
      vertex 79 22.5 28
      vertex 79 22.5 3
    endloop
  endfacet
  facet normal 0 -1 0
    outer loop
      vertex 79 37.5 3
      vertex 80 37.5 28
      vertex 79 37.5 28
    endloop
  endfacet
  facet normal 0 -1 -0
    outer loop
      vertex 80 37.5 28
      vertex 79 37.5 3
      vertex 80 37.5 3
    endloop
  endfacet
  facet normal 0 1 -0
    outer loop
      vertex 80 22.5 3
      vertex 79 22.5 28
      vertex 80 22.5 28
    endloop
  endfacet
  facet normal 0 1 0
    outer loop
      vertex 79 22.5 28
      vertex 80 22.5 3
      vertex 79 22.5 3
    endloop
  endfacet
  facet normal -0 0 1
    outer loop
      vertex 3 57 9.5
      vertex 77 51 9.5
      vertex 77 57 9.5
    endloop
  endfacet
  facet normal 0 0 1
    outer loop
      vertex 77 51 9.5
      vertex 3 57 9.5
      vertex 3 51 9.5
    endloop
  endfacet
  facet normal 0 0 -1
    outer loop
      vertex 3 51 8
      vertex 77 57 8
      vertex 77 51 8
    endloop
  endfacet
  facet normal -0 0 -1
    outer loop
      vertex 77 57 8
      vertex 3 51 8
      vertex 3 57 8
    endloop
  endfacet
  facet normal 0 -1 0
    outer loop
      vertex 3 51 8
      vertex 77 51 9.5
      vertex 3 51 9.5
    endloop
  endfacet
  facet normal 0 -1 -0
    outer loop
      vertex 77 51 9.5
      vertex 3 51 8
      vertex 77 51 8
    endloop
  endfacet
endsolid OpenSCAD_Model
