solid OpenSCAD_Model
  facet normal 1 -0 0
    outer loop
      vertex 63 18 -2.5
      vertex 63 38 -7.5
      vertex 63 38 -2.5
    endloop
  endfacet
  facet normal 1 0 0
    outer loop
      vertex 63 38 -7.5
      vertex 63 18 -2.5
      vertex 63 18 -7.5
    endloop
  endfacet
  facet normal -0 0 1
    outer loop
      vertex 60 38 -2.5
      vertex 63 18 -2.5
      vertex 63 38 -2.5
    endloop
  endfacet
  facet normal 0 0 1
    outer loop
      vertex 63 18 -2.5
      vertex 60 38 -2.5
      vertex 60 18 -2.5
    endloop
  endfacet
  facet normal 0 0 -1
    outer loop
      vertex -41 2 -7.5
      vertex -27 18 -7.5
      vertex -27 2 -7.5
    endloop
  endfacet
  facet normal -0 0 -1
    outer loop
      vertex -27 18 -7.5
      vertex -41 2 -7.5
      vertex -41 18 -7.5
    endloop
  endfacet
  facet normal 0 0 -1
    outer loop
      vertex 25 2 -7.5
      vertex 39 18 -7.5
      vertex 39 2 -7.5
    endloop
  endfacet
  facet normal -0 0 -1
    outer loop
      vertex 39 18 -7.5
      vertex 25 2 -7.5
      vertex 25 18 -7.5
    endloop
  endfacet
  facet normal 0 0 -1
    outer loop
      vertex 39 -18 -7.5
      vertex 60 -18 -7.5
      vertex 60 -40 -7.5
    endloop
  endfacet
  facet normal 0 0 -1
    outer loop
      vertex 60 -18 -7.5
      vertex 39 -18 -7.5
      vertex 60 2 -7.5
    endloop
  endfacet
  facet normal 0 0 -1
    outer loop
      vertex 39 2 -7.5
      vertex 60 2 -7.5
      vertex 39 -18 -7.5
    endloop
  endfacet
  facet normal 0 0 -1
    outer loop
      vertex 39 18 -7.5
      vertex 60 18 -7.5
      vertex 39 2 -7.5
    endloop
  endfacet
  facet normal 0 0 -1
    outer loop
      vertex 60 2 -7.5
      vertex 39 2 -7.5
      vertex 60 18 -7.5
    endloop
  endfacet
  facet normal 0 0 -1
    outer loop
      vertex 60 -40 -7.5
      vertex 25 -18 -7.5
      vertex 39 -18 -7.5
    endloop
  endfacet
  facet normal 0 0 -1
    outer loop
      vertex -27 2 -7.5
      vertex 25 2 -7.5
      vertex 25 -18 -7.5
    endloop
  endfacet
  facet normal 0 0 -1
    outer loop
      vertex 25 2 -7.5
      vertex -27 2 -7.5
      vertex 25 18 -7.5
    endloop
  endfacet
  facet normal 0 0 -1
    outer loop
      vertex -27 2 -7.5
      vertex 25 -18 -7.5
      vertex -27 -18 -7.5
    endloop
  endfacet
  facet normal 0 0 -1
    outer loop
      vertex -60 -40 -7.5
      vertex 25 -18 -7.5
      vertex 60 -40 -7.5
    endloop
  endfacet
  facet normal -0 0 -1
    outer loop
      vertex 25 -18 -7.5
      vertex -60 -40 -7.5
      vertex -27 -18 -7.5
    endloop
  endfacet
  facet normal 0 0 -1
    outer loop
      vertex -60 -40 -7.5
      vertex -41 2 -7.5
      vertex -41 -18 -7.5
    endloop
  endfacet
  facet normal 0 0 -1
    outer loop
      vertex -41 2 -7.5
      vertex -60 40 -7.5
      vertex -41 18 -7.5
    endloop
  endfacet
  facet normal -0 0 -1
    outer loop
      vertex -41 2 -7.5
      vertex -60 -40 -7.5
      vertex -60 40 -7.5
    endloop
  endfacet
  facet normal -0 0 -1
    outer loop
      vertex -27 -18 -7.5
      vertex -60 -40 -7.5
      vertex -41 -18 -7.5
    endloop
  endfacet
  facet normal 0 0 -1
    outer loop
      vertex 60 -18 -7.5
      vertex 63 2 -7.5
      vertex 63 -18 -7.5
    endloop
  endfacet
  facet normal -0 0 -1
    outer loop
      vertex 63 2 -7.5
      vertex 60 -18 -7.5
      vertex 60 2 -7.5
    endloop
  endfacet
  facet normal 0 0 -1
    outer loop
      vertex 60 18 -7.5
      vertex 63 38 -7.5
      vertex 63 18 -7.5
    endloop
  endfacet
  facet normal -0 0 -1
    outer loop
      vertex 63 38 -7.5
      vertex 60 18 -7.5
      vertex 60 38 -7.5
    endloop
  endfacet
  facet normal 0 0 -1
    outer loop
      vertex 60 18 -7.5
      vertex 39 18 -7.5
      vertex 60 38 -7.5
    endloop
  endfacet
  facet normal 0 0 -1
    outer loop
      vertex 39 38 -7.5
      vertex 60 38 -7.5
      vertex 39 18 -7.5
    endloop
  endfacet
  facet normal 0 0 -1
    outer loop
      vertex 60 38 -7.5
      vertex 39 38 -7.5
      vertex 60 40 -7.5
    endloop
  endfacet
  facet normal 0 0 -1
    outer loop
      vertex 25 38 -7.5
      vertex 60 40 -7.5
      vertex 39 38 -7.5
    endloop
  endfacet
  facet normal 0 0 -1
    outer loop
      vertex -27 18 -7.5
      vertex 25 18 -7.5
      vertex -27 2 -7.5
    endloop
  endfacet
  facet normal 0 0 -1
    outer loop
      vertex 25 18 -7.5
      vertex -27 18 -7.5
      vertex 25 38 -7.5
    endloop
  endfacet
  facet normal 0 0 -1
    outer loop
      vertex -27 38 -7.5
      vertex 25 38 -7.5
      vertex -27 18 -7.5
    endloop
  endfacet
  facet normal 0 0 -1
    outer loop
      vertex -27 38 -7.5
      vertex 60 40 -7.5
      vertex 25 38 -7.5
    endloop
  endfacet
  facet normal 0 0 -1
    outer loop
      vertex -60 40 -7.5
      vertex -27 38 -7.5
      vertex -41 38 -7.5
    endloop
  endfacet
  facet normal 0 0 -1
    outer loop
      vertex -27 38 -7.5
      vertex -60 40 -7.5
      vertex 60 40 -7.5
    endloop
  endfacet
  facet normal 0 0 -1
    outer loop
      vertex -41 18 -7.5
      vertex -60 40 -7.5
      vertex -41 38 -7.5
    endloop
  endfacet
  facet normal 0 1 -0
    outer loop
      vertex 63 38 -7.5
      vertex 60 38 -2.5
      vertex 63 38 -2.5
    endloop
  endfacet
  facet normal 0 1 0
    outer loop
      vertex 60 38 -2.5
      vertex 63 38 -7.5
      vertex 60 38 -7.5
    endloop
  endfacet
  facet normal 0 1 -0
    outer loop
      vertex 39 38 -12.5
      vertex 25 38 -7.5
      vertex 39 38 -7.5
    endloop
  endfacet
  facet normal 0 1 0
    outer loop
      vertex 25 38 -7.5
      vertex 39 38 -12.5
      vertex 25 38 -12.5
    endloop
  endfacet
  facet normal 0 -1 0
    outer loop
      vertex 60 18 -7.5
      vertex 63 18 -2.5
      vertex 60 18 -2.5
    endloop
  endfacet
  facet normal 0 -1 -0
    outer loop
      vertex 63 18 -2.5
      vertex 60 18 -7.5
      vertex 63 18 -7.5
    endloop
  endfacet
  facet normal 0 -1 0
    outer loop
      vertex 25 18 -12.5
      vertex 39 18 -7.5
      vertex 25 18 -7.5
    endloop
  endfacet
  facet normal 0 -1 -0
    outer loop
      vertex 39 18 -7.5
      vertex 25 18 -12.5
      vertex 39 18 -12.5
    endloop
  endfacet
  facet normal 1 -0 0
    outer loop
      vertex 39 18 -7.5
      vertex 39 38 -12.5
      vertex 39 38 -7.5
    endloop
  endfacet
  facet normal 1 0 0
    outer loop
      vertex 39 38 -12.5
      vertex 39 18 -7.5
      vertex 39 18 -12.5
    endloop
  endfacet
  facet normal 0 0 -1
    outer loop
      vertex 25 18 -12.5
      vertex 39 38 -12.5
      vertex 39 18 -12.5
    endloop
  endfacet
  facet normal -0 0 -1
    outer loop
      vertex 39 38 -12.5
      vertex 25 18 -12.5
      vertex 25 38 -12.5
    endloop
  endfacet
  facet normal -1 0 0
    outer loop
      vertex 25 18 -12.5
      vertex 25 38 -7.5
      vertex 25 38 -12.5
    endloop
  endfacet
  facet normal -1 -0 0
    outer loop
      vertex 25 38 -7.5
      vertex 25 18 -12.5
      vertex 25 18 -7.5
    endloop
  endfacet
  facet normal 0 1 -0
    outer loop
      vertex -27 38 -12.5
      vertex -41 38 -7.5
      vertex -27 38 -7.5
    endloop
  endfacet
  facet normal 0 1 0
    outer loop
      vertex -41 38 -7.5
      vertex -27 38 -12.5
      vertex -41 38 -12.5
    endloop
  endfacet
  facet normal 0 -1 0
    outer loop
      vertex -41 18 -12.5
      vertex -27 18 -7.5
      vertex -41 18 -7.5
    endloop
  endfacet
  facet normal 0 -1 -0
    outer loop
      vertex -27 18 -7.5
      vertex -41 18 -12.5
      vertex -27 18 -12.5
    endloop
  endfacet
  facet normal 1 -0 0
    outer loop
      vertex -27 18 -7.5
      vertex -27 38 -12.5
      vertex -27 38 -7.5
    endloop
  endfacet
  facet normal 1 0 0
    outer loop
      vertex -27 38 -12.5
      vertex -27 18 -7.5
      vertex -27 18 -12.5
    endloop
  endfacet
  facet normal 0 0 -1
    outer loop
      vertex -41 18 -12.5
      vertex -27 38 -12.5
      vertex -27 18 -12.5
    endloop
  endfacet
  facet normal -0 0 -1
    outer loop
      vertex -27 38 -12.5
      vertex -41 18 -12.5
      vertex -41 38 -12.5
    endloop
  endfacet
  facet normal -1 0 0
    outer loop
      vertex -41 18 -12.5
      vertex -41 38 -7.5
      vertex -41 38 -12.5
    endloop
  endfacet
  facet normal -1 -0 0
    outer loop
      vertex -41 38 -7.5
      vertex -41 18 -12.5
      vertex -41 18 -7.5
    endloop
  endfacet
  facet normal 1 -0 0
    outer loop
      vertex 63 -18 -2.5
      vertex 63 2 -7.5
      vertex 63 2 -2.5
    endloop
  endfacet
  facet normal 1 0 0
    outer loop
      vertex 63 2 -7.5
      vertex 63 -18 -2.5
      vertex 63 -18 -7.5
    endloop
  endfacet
  facet normal -0 0 1
    outer loop
      vertex 60 2 -2.5
      vertex 63 -18 -2.5
      vertex 63 2 -2.5
    endloop
  endfacet
  facet normal 0 0 1
    outer loop
      vertex 63 -18 -2.5
      vertex 60 2 -2.5
      vertex 60 -18 -2.5
    endloop
  endfacet
  facet normal 0 1 -0
    outer loop
      vertex 63 2 -7.5
      vertex 60 2 -2.5
      vertex 63 2 -2.5
    endloop
  endfacet
  facet normal 0 1 0
    outer loop
      vertex 60 2 -2.5
      vertex 63 2 -7.5
      vertex 60 2 -7.5
    endloop
  endfacet
  facet normal 0 1 -0
    outer loop
      vertex 39 2 -12.5
      vertex 25 2 -7.5
      vertex 39 2 -7.5
    endloop
  endfacet
  facet normal 0 1 0
    outer loop
      vertex 25 2 -7.5
      vertex 39 2 -12.5
      vertex 25 2 -12.5
    endloop
  endfacet
  facet normal 0 -1 0
    outer loop
      vertex 60 -18 -7.5
      vertex 63 -18 -2.5
      vertex 60 -18 -2.5
    endloop
  endfacet
  facet normal 0 -1 -0
    outer loop
      vertex 63 -18 -2.5
      vertex 60 -18 -7.5
      vertex 63 -18 -7.5
    endloop
  endfacet
  facet normal 0 -1 0
    outer loop
      vertex 25 -18 -12.5
      vertex 39 -18 -7.5
      vertex 25 -18 -7.5
    endloop
  endfacet
  facet normal 0 -1 -0
    outer loop
      vertex 39 -18 -7.5
      vertex 25 -18 -12.5
      vertex 39 -18 -12.5
    endloop
  endfacet
  facet normal 1 -0 0
    outer loop
      vertex 39 -18 -7.5
      vertex 39 2 -12.5
      vertex 39 2 -7.5
    endloop
  endfacet
  facet normal 1 0 0
    outer loop
      vertex 39 2 -12.5
      vertex 39 -18 -7.5
      vertex 39 -18 -12.5
    endloop
  endfacet
  facet normal 0 0 -1
    outer loop
      vertex 25 -18 -12.5
      vertex 39 2 -12.5
      vertex 39 -18 -12.5
    endloop
  endfacet
  facet normal -0 0 -1
    outer loop
      vertex 39 2 -12.5
      vertex 25 -18 -12.5
      vertex 25 2 -12.5
    endloop
  endfacet
  facet normal -1 0 0
    outer loop
      vertex 25 -18 -12.5
      vertex 25 2 -7.5
      vertex 25 2 -12.5
    endloop
  endfacet
  facet normal -1 -0 0
    outer loop
      vertex 25 2 -7.5
      vertex 25 -18 -12.5
      vertex 25 -18 -7.5
    endloop
  endfacet
  facet normal 0 1 -0
    outer loop
      vertex -27 2 -12.5
      vertex -41 2 -7.5
      vertex -27 2 -7.5
    endloop
  endfacet
  facet normal 0 1 0
    outer loop
      vertex -41 2 -7.5
      vertex -27 2 -12.5
      vertex -41 2 -12.5
    endloop
  endfacet
  facet normal 0 -1 0
    outer loop
      vertex -41 -18 -12.5
      vertex -27 -18 -7.5
      vertex -41 -18 -7.5
    endloop
  endfacet
  facet normal 0 -1 -0
    outer loop
      vertex -27 -18 -7.5
      vertex -41 -18 -12.5
      vertex -27 -18 -12.5
    endloop
  endfacet
  facet normal 1 -0 0
    outer loop
      vertex -27 -18 -7.5
      vertex -27 2 -12.5
      vertex -27 2 -7.5
    endloop
  endfacet
  facet normal 1 0 0
    outer loop
      vertex -27 2 -12.5
      vertex -27 -18 -7.5
      vertex -27 -18 -12.5
    endloop
  endfacet
  facet normal 0 0 -1
    outer loop
      vertex -41 -18 -12.5
      vertex -27 2 -12.5
      vertex -27 -18 -12.5
    endloop
  endfacet
  facet normal -0 0 -1
    outer loop
      vertex -27 2 -12.5
      vertex -41 -18 -12.5
      vertex -41 2 -12.5
    endloop
  endfacet
  facet normal -1 0 0
    outer loop
      vertex -41 -18 -12.5
      vertex -41 2 -7.5
      vertex -41 2 -12.5
    endloop
  endfacet
  facet normal -1 -0 0
    outer loop
      vertex -41 2 -7.5
      vertex -41 -18 -12.5
      vertex -41 -18 -7.5
    endloop
  endfacet
  facet normal 1 0 0
    outer loop
      vertex 60 40 7.5
      vertex 60 38 -2.5
      vertex 60 40 -7.5
    endloop
  endfacet
  facet normal 1 0 0
    outer loop
      vertex 60 40 7.5
      vertex 60 18 -2.5
      vertex 60 38 -2.5
    endloop
  endfacet
  facet normal 1 0 0
    outer loop
      vertex 60 18 -2.5
      vertex 60 2 -2.5
      vertex 60 18 -7.5
    endloop
  endfacet
  facet normal 1 0 0
    outer loop
      vertex 60 40 7.5
      vertex 60 2 -2.5
      vertex 60 18 -2.5
    endloop
  endfacet
  facet normal 1 -0 0
    outer loop
      vertex 60 -40 7.5
      vertex 60 2 -2.5
      vertex 60 40 7.5
    endloop
  endfacet
  facet normal 1 0 0
    outer loop
      vertex 60 2 -2.5
      vertex 60 -40 7.5
      vertex 60 -18 -2.5
    endloop
  endfacet
  facet normal 1 0 0
    outer loop
      vertex 60 -40 -7.5
      vertex 60 -18 -2.5
      vertex 60 -40 7.5
    endloop
  endfacet
  facet normal 1 0 0
    outer loop
      vertex 60 -18 -2.5
      vertex 60 -40 -7.5
      vertex 60 -18 -7.5
    endloop
  endfacet
  facet normal 1 0 0
    outer loop
      vertex 60 40 -7.5
      vertex 60 38 -2.5
      vertex 60 38 -7.5
    endloop
  endfacet
  facet normal 1 0 0
    outer loop
      vertex 60 18 -7.5
      vertex 60 2 -2.5
      vertex 60 2 -7.5
    endloop
  endfacet
  facet normal -0 0 1
    outer loop
      vertex -60 40 7.5
      vertex 60 -40 7.5
      vertex 60 40 7.5
    endloop
  endfacet
  facet normal 0 0 1
    outer loop
      vertex 60 -40 7.5
      vertex -60 40 7.5
      vertex -60 -40 7.5
    endloop
  endfacet
  facet normal -1 0 0
    outer loop
      vertex -60 -40 -7.5
      vertex -60 40 7.5
      vertex -60 40 -7.5
    endloop
  endfacet
  facet normal -1 -0 0
    outer loop
      vertex -60 40 7.5
      vertex -60 -40 -7.5
      vertex -60 -40 7.5
    endloop
  endfacet
  facet normal 0 1 -0
    outer loop
      vertex 60 40 -7.5
      vertex -60 40 7.5
      vertex 60 40 7.5
    endloop
  endfacet
  facet normal 0 1 0
    outer loop
      vertex -60 40 7.5
      vertex 60 40 -7.5
      vertex -60 40 -7.5
    endloop
  endfacet
  facet normal 0 -1 0
    outer loop
      vertex -60 -40 -7.5
      vertex 60 -40 7.5
      vertex -60 -40 7.5
    endloop
  endfacet
  facet normal 0 -1 -0
    outer loop
      vertex 60 -40 7.5
      vertex -60 -40 -7.5
      vertex 60 -40 -7.5
    endloop
  endfacet
endsolid OpenSCAD_Model
