solid OpenSCAD_Model
  facet normal -1 0 0
    outer loop
      vertex 0 0.2 0
      vertex 0 0 0
      vertex 0 0.2 0.5
    endloop
  endfacet
  facet normal -1 0 0
    outer loop
      vertex 0 0.424999 0.5
      vertex 0 0.625 0
      vertex 0 0.424999 0
    endloop
  endfacet
  facet normal -1 0 0
    outer loop
      vertex 0 0.625 0
      vertex 0 0.424999 0.5
      vertex 0 0.625 0.549999
    endloop
  endfacet
  facet normal -1 0 0
    outer loop
      vertex 0 0.2 0.5
      vertex 0 0.625 0.549999
      vertex 0 0.424999 0.5
    endloop
  endfacet
  facet normal -1 0 0
    outer loop
      vertex 0 0.2 0.5
      vertex 0 0 0.549999
      vertex 0 0.625 0.549999
    endloop
  endfacet
  facet normal -1 0 0
    outer loop
      vertex 0 0 0.549999
      vertex 0 0.2 0.5
      vertex 0 0 0
    endloop
  endfacet
  facet normal 0 0 1
    outer loop
      vertex 0.75 0.625 0.549999
      vertex 0.674999 0.549999 0.549999
      vertex 0.75 0 0.549999
    endloop
  endfacet
  facet normal 0 0 1
    outer loop
      vertex 0.75 0.625 0.549999
      vertex 0.0749998 0.549999 0.549999
      vertex 0.674999 0.549999 0.549999
    endloop
  endfacet
  facet normal 0 0 1
    outer loop
      vertex 0.0749998 0.549999 0.549999
      vertex 0 0.625 0.549999
      vertex 0.0749998 0.0749998 0.549999
    endloop
  endfacet
  facet normal -0 0 1
    outer loop
      vertex 0 0.625 0.549999
      vertex 0.0749998 0.549999 0.549999
      vertex 0.75 0.625 0.549999
    endloop
  endfacet
  facet normal -0 0 1
    outer loop
      vertex 0.674999 0.0749998 0.549999
      vertex 0.75 0 0.549999
      vertex 0.674999 0.549999 0.549999
    endloop
  endfacet
  facet normal -0 0 1
    outer loop
      vertex 0.0749998 0.0749998 0.549999
      vertex 0.75 0 0.549999
      vertex 0.674999 0.0749998 0.549999
    endloop
  endfacet
  facet normal 0 0 1
    outer loop
      vertex 0.0749998 0.0749998 0.549999
      vertex 0 0 0.549999
      vertex 0.75 0 0.549999
    endloop
  endfacet
  facet normal 0 0 1
    outer loop
      vertex 0 0 0.549999
      vertex 0.0749998 0.0749998 0.549999
      vertex 0 0.625 0.549999
    endloop
  endfacet
  facet normal 1 -0 0
    outer loop
      vertex 0.75 0 0.549999
      vertex 0.75 0.625 0
      vertex 0.75 0.625 0.549999
    endloop
  endfacet
  facet normal 1 0 0
    outer loop
      vertex 0.75 0.625 0
      vertex 0.75 0 0.549999
      vertex 0.75 0 0
    endloop
  endfacet
  facet normal 0 1 0
    outer loop
      vertex 0.75 0.625 0.549999
      vertex 0.625 0.625 0.45
      vertex 0 0.625 0.549999
    endloop
  endfacet
  facet normal 0 1 0
    outer loop
      vertex 0.75 0.625 0.549999
      vertex 0.625 0.625 0.25
      vertex 0.625 0.625 0.45
    endloop
  endfacet
  facet normal 0 1 0
    outer loop
      vertex 0.625 0.625 0.25
      vertex 0.75 0.625 0
      vertex 0.125 0.625 0.25
    endloop
  endfacet
  facet normal 0 1 -0
    outer loop
      vertex 0.75 0.625 0
      vertex 0.625 0.625 0.25
      vertex 0.75 0.625 0.549999
    endloop
  endfacet
  facet normal 0 1 -0
    outer loop
      vertex 0.125 0.625 0.45
      vertex 0 0.625 0.549999
      vertex 0.625 0.625 0.45
    endloop
  endfacet
  facet normal 0 1 -0
    outer loop
      vertex 0.125 0.625 0.25
      vertex 0 0.625 0.549999
      vertex 0.125 0.625 0.45
    endloop
  endfacet
  facet normal 0 1 0
    outer loop
      vertex 0.125 0.625 0.25
      vertex 0 0.625 0
      vertex 0 0.625 0.549999
    endloop
  endfacet
  facet normal 0 1 0
    outer loop
      vertex 0 0.625 0
      vertex 0.125 0.625 0.25
      vertex 0.75 0.625 0
    endloop
  endfacet
  facet normal 0 0 -1
    outer loop
      vertex 0.0749998 0.424999 0
      vertex 0 0.424999 0
      vertex 0.0749998 0.549999 0
    endloop
  endfacet
  facet normal 0 0 -1
    outer loop
      vertex 0.625 0.45 0
      vertex 0.125 0.45 0
      vertex 0.625 0.549999 0
    endloop
  endfacet
  facet normal 0 0 -1
    outer loop
      vertex 0.75 0 0
      vertex 0.674999 0.0749998 0
      vertex 0.75 0.625 0
    endloop
  endfacet
  facet normal 0 0 -1
    outer loop
      vertex 0.75 0 0
      vertex 0.0749998 0.0749998 0
      vertex 0.674999 0.0749998 0
    endloop
  endfacet
  facet normal 0 0 -1
    outer loop
      vertex 0 0 0
      vertex 0.0749998 0.0749998 0
      vertex 0.75 0 0
    endloop
  endfacet
  facet normal 0 0 -1
    outer loop
      vertex 0 0.2 0
      vertex 0.0749998 0.0749998 0
      vertex 0 0 0
    endloop
  endfacet
  facet normal 0 0 -1
    outer loop
      vertex 0.0749998 0.0749998 0
      vertex 0 0.2 0
      vertex 0.0749998 0.2 0
    endloop
  endfacet
  facet normal 0 0 -1
    outer loop
      vertex 0.674999 0.549999 0
      vertex 0.75 0.625 0
      vertex 0.674999 0.0749998 0
    endloop
  endfacet
  facet normal 0 0 -1
    outer loop
      vertex 0.625 0.549999 0
      vertex 0.75 0.625 0
      vertex 0.674999 0.549999 0
    endloop
  endfacet
  facet normal 0 0 -1
    outer loop
      vertex 0.125 0.549999 0
      vertex 0.625 0.549999 0
      vertex 0.125 0.45 0
    endloop
  endfacet
  facet normal 0 0 -1
    outer loop
      vertex 0.625 0.549999 0
      vertex 0.125 0.549999 0
      vertex 0.75 0.625 0
    endloop
  endfacet
  facet normal 0 0 -1
    outer loop
      vertex 0 0.625 0
      vertex 0.125 0.549999 0
      vertex 0.0749998 0.549999 0
    endloop
  endfacet
  facet normal 0 0 -1
    outer loop
      vertex 0.125 0.549999 0
      vertex 0 0.625 0
      vertex 0.75 0.625 0
    endloop
  endfacet
  facet normal 0 0 -1
    outer loop
      vertex 0 0.625 0
      vertex 0.0749998 0.549999 0
      vertex 0 0.424999 0
    endloop
  endfacet
  facet normal 0 -1 0
    outer loop
      vertex 0 0 0
      vertex 0.75 0 0.549999
      vertex 0 0 0.549999
    endloop
  endfacet
  facet normal 0 -1 -0
    outer loop
      vertex 0.75 0 0.549999
      vertex 0 0 0
      vertex 0.75 0 0
    endloop
  endfacet
  facet normal 1 0 0
    outer loop
      vertex 0.0749998 0.549999 0.549999
      vertex 0.0749998 0.424999 0.5
      vertex 0.0749998 0.549999 0
    endloop
  endfacet
  facet normal 1 0 0
    outer loop
      vertex 0.0749998 0.549999 0.549999
      vertex 0.0749998 0.2 0.5
      vertex 0.0749998 0.424999 0.5
    endloop
  endfacet
  facet normal 1 -0 0
    outer loop
      vertex 0.0749998 0.0749998 0.549999
      vertex 0.0749998 0.2 0.5
      vertex 0.0749998 0.549999 0.549999
    endloop
  endfacet
  facet normal 1 0 0
    outer loop
      vertex 0.0749998 0.0749998 0
      vertex 0.0749998 0.2 0.5
      vertex 0.0749998 0.0749998 0.549999
    endloop
  endfacet
  facet normal 1 0 0
    outer loop
      vertex 0.0749998 0.2 0.5
      vertex 0.0749998 0.0749998 0
      vertex 0.0749998 0.2 0
    endloop
  endfacet
  facet normal 1 0 0
    outer loop
      vertex 0.0749998 0.549999 0
      vertex 0.0749998 0.424999 0.5
      vertex 0.0749998 0.424999 0
    endloop
  endfacet
  facet normal -1 0 0
    outer loop
      vertex 0.674999 0.0749998 0
      vertex 0.674999 0.549999 0.549999
      vertex 0.674999 0.549999 0
    endloop
  endfacet
  facet normal -1 -0 0
    outer loop
      vertex 0.674999 0.549999 0.549999
      vertex 0.674999 0.0749998 0
      vertex 0.674999 0.0749998 0.549999
    endloop
  endfacet
  facet normal 0 -1 0
    outer loop
      vertex 0.0749998 0.549999 0.549999
      vertex 0.125 0.549999 0.45
      vertex 0.674999 0.549999 0.549999
    endloop
  endfacet
  facet normal 0 -1 0
    outer loop
      vertex 0.0749998 0.549999 0.549999
      vertex 0.125 0.549999 0.25
      vertex 0.125 0.549999 0.45
    endloop
  endfacet
  facet normal 0 -1 0
    outer loop
      vertex 0.125 0.549999 0.25
      vertex 0.125 0.549999 0.0124998
      vertex 0.625 0.549999 0.25
    endloop
  endfacet
  facet normal 0 -1 0
    outer loop
      vertex 0.0749998 0.549999 0
      vertex 0.125 0.549999 0.25
      vertex 0.0749998 0.549999 0.549999
    endloop
  endfacet
  facet normal 0 -1 -0
    outer loop
      vertex 0.125 0.549999 0.25
      vertex 0.0749998 0.549999 0
      vertex 0.125 0.549999 0.0124998
    endloop
  endfacet
  facet normal 0 -1 -0
    outer loop
      vertex 0.125 0.549999 0.0124998
      vertex 0.0749998 0.549999 0
      vertex 0.125 0.549999 0
    endloop
  endfacet
  facet normal 0 -1 0
    outer loop
      vertex 0.625 0.549999 0.45
      vertex 0.674999 0.549999 0.549999
      vertex 0.125 0.549999 0.45
    endloop
  endfacet
  facet normal 0 -1 0
    outer loop
      vertex 0.625 0.549999 0.25
      vertex 0.674999 0.549999 0.549999
      vertex 0.625 0.549999 0.45
    endloop
  endfacet
  facet normal 0 -1 0
    outer loop
      vertex 0.625 0.549999 0.0124998
      vertex 0.625 0.549999 0.25
      vertex 0.125 0.549999 0.0124998
    endloop
  endfacet
  facet normal 0 -1 0
    outer loop
      vertex 0.674999 0.549999 0
      vertex 0.625 0.549999 0.25
      vertex 0.625 0.549999 0.0124998
    endloop
  endfacet
  facet normal 0 -1 0
    outer loop
      vertex 0.674999 0.549999 0
      vertex 0.625 0.549999 0.0124998
      vertex 0.625 0.549999 0
    endloop
  endfacet
  facet normal 0 -1 0
    outer loop
      vertex 0.625 0.549999 0.25
      vertex 0.674999 0.549999 0
      vertex 0.674999 0.549999 0.549999
    endloop
  endfacet
  facet normal 0 1 -0
    outer loop
      vertex 0.674999 0.0749998 0
      vertex 0.0749998 0.0749998 0.549999
      vertex 0.674999 0.0749998 0.549999
    endloop
  endfacet
  facet normal 0 1 0
    outer loop
      vertex 0.0749998 0.0749998 0.549999
      vertex 0.674999 0.0749998 0
      vertex 0.0749998 0.0749998 0
    endloop
  endfacet
  facet normal 1 -0 0
    outer loop
      vertex 0.125 0.549999 0.45
      vertex 0.125 0.625 0.25
      vertex 0.125 0.625 0.45
    endloop
  endfacet
  facet normal 1 0 0
    outer loop
      vertex 0.125 0.625 0.25
      vertex 0.125 0.549999 0.45
      vertex 0.125 0.549999 0.25
    endloop
  endfacet
  facet normal 0 0 -1
    outer loop
      vertex 0.125 0.549999 0.45
      vertex 0.625 0.625 0.45
      vertex 0.625 0.549999 0.45
    endloop
  endfacet
  facet normal -0 0 -1
    outer loop
      vertex 0.625 0.625 0.45
      vertex 0.125 0.549999 0.45
      vertex 0.125 0.625 0.45
    endloop
  endfacet
  facet normal -1 0 0
    outer loop
      vertex 0.625 0.549999 0.25
      vertex 0.625 0.625 0.45
      vertex 0.625 0.625 0.25
    endloop
  endfacet
  facet normal -1 -0 0
    outer loop
      vertex 0.625 0.625 0.45
      vertex 0.625 0.549999 0.25
      vertex 0.625 0.549999 0.45
    endloop
  endfacet
  facet normal -0 0 1
    outer loop
      vertex 0.125 0.625 0.25
      vertex 0.625 0.549999 0.25
      vertex 0.625 0.625 0.25
    endloop
  endfacet
  facet normal 0 0 1
    outer loop
      vertex 0.625 0.549999 0.25
      vertex 0.125 0.625 0.25
      vertex 0.125 0.549999 0.25
    endloop
  endfacet
  facet normal 0 0 -1
    outer loop
      vertex 0 0.2 0.5
      vertex 0.0749998 0.424999 0.5
      vertex 0.0749998 0.2 0.5
    endloop
  endfacet
  facet normal -0 0 -1
    outer loop
      vertex 0.0749998 0.424999 0.5
      vertex 0 0.2 0.5
      vertex 0 0.424999 0.5
    endloop
  endfacet
  facet normal 0 -1 0
    outer loop
      vertex 0 0.424999 0
      vertex 0.0749998 0.424999 0.5
      vertex 0 0.424999 0.5
    endloop
  endfacet
  facet normal 0 -1 -0
    outer loop
      vertex 0.0749998 0.424999 0.5
      vertex 0 0.424999 0
      vertex 0.0749998 0.424999 0
    endloop
  endfacet
  facet normal 0 1 -0
    outer loop
      vertex 0.0749998 0.2 0
      vertex 0 0.2 0.5
      vertex 0.0749998 0.2 0.5
    endloop
  endfacet
  facet normal 0 1 0
    outer loop
      vertex 0 0.2 0.5
      vertex 0.0749998 0.2 0
      vertex 0 0.2 0
    endloop
  endfacet
  facet normal -1 0 0
    outer loop
      vertex 0.125 0.45 0
      vertex 0.125 0.549999 0.0124998
      vertex 0.125 0.549999 0
    endloop
  endfacet
  facet normal -1 -0 0
    outer loop
      vertex 0.125 0.549999 0.0124998
      vertex 0.125 0.45 0
      vertex 0.125 0.45 0.0124998
    endloop
  endfacet
  facet normal -0 0 1
    outer loop
      vertex 0.125 0.549999 0.0124998
      vertex 0.625 0.45 0.0124998
      vertex 0.625 0.549999 0.0124998
    endloop
  endfacet
  facet normal 0 0 1
    outer loop
      vertex 0.625 0.45 0.0124998
      vertex 0.125 0.549999 0.0124998
      vertex 0.125 0.45 0.0124998
    endloop
  endfacet
  facet normal 1 -0 0
    outer loop
      vertex 0.625 0.45 0.0124998
      vertex 0.625 0.549999 0
      vertex 0.625 0.549999 0.0124998
    endloop
  endfacet
  facet normal 1 0 0
    outer loop
      vertex 0.625 0.549999 0
      vertex 0.625 0.45 0.0124998
      vertex 0.625 0.45 0
    endloop
  endfacet
  facet normal 0 -1 0
    outer loop
      vertex 0.125 0.45 0
      vertex 0.625 0.45 0.0124998
      vertex 0.125 0.45 0.0124998
    endloop
  endfacet
  facet normal 0 -1 -0
    outer loop
      vertex 0.625 0.45 0.0124998
      vertex 0.125 0.45 0
      vertex 0.625 0.45 0
    endloop
  endfacet
endsolid OpenSCAD_Model
