solid OpenSCAD_Model
  facet normal -1 0 0
    outer loop
      vertex 60 5 0
      vertex 60 12 6
      vertex 60 12 0
    endloop
  endfacet
  facet normal -1 -0 0
    outer loop
      vertex 60 12 6
      vertex 60 5 0
      vertex 60 5 6
    endloop
  endfacet
  facet normal -1 0 0
    outer loop
      vertex 60 -12 0
      vertex 60 -5 6
      vertex 60 -5 0
    endloop
  endfacet
  facet normal -1 -0 0
    outer loop
      vertex 60 -5 6
      vertex 60 -12 0
      vertex 60 -12 6
    endloop
  endfacet
  facet normal 0 0 -1
    outer loop
      vertex -60 -5 0
      vertex 60 5 0
      vertex 60 -5 0
    endloop
  endfacet
  facet normal -0 0 -1
    outer loop
      vertex 60 5 0
      vertex -60 -5 0
      vertex -60 5 0
    endloop
  endfacet
  facet normal 0 0 -1
    outer loop
      vertex 60 -5 0
      vertex 85 -12 0
      vertex 60 -12 0
    endloop
  endfacet
  facet normal 0 0 -1
    outer loop
      vertex 85 -12 0
      vertex 60 -5 0
      vertex 85 12 0
    endloop
  endfacet
  facet normal 0 0 -1
    outer loop
      vertex 60 5 0
      vertex 85 12 0
      vertex 60 -5 0
    endloop
  endfacet
  facet normal -0 0 -1
    outer loop
      vertex 85 12 0
      vertex 60 5 0
      vertex 60 12 0
    endloop
  endfacet
  facet normal -1 0 0
    outer loop
      vertex -60 -5 0
      vertex -60 5 6
      vertex -60 5 0
    endloop
  endfacet
  facet normal -1 -0 0
    outer loop
      vertex -60 5 6
      vertex -60 -5 0
      vertex -60 -5 6
    endloop
  endfacet
  facet normal 0 1 -0
    outer loop
      vertex 60 5 0
      vertex -60 5 6
      vertex 60 5 6
    endloop
  endfacet
  facet normal 0 1 0
    outer loop
      vertex -60 5 6
      vertex 60 5 0
      vertex -60 5 0
    endloop
  endfacet
  facet normal 0 -1 0
    outer loop
      vertex -60 -5 0
      vertex 60 -5 6
      vertex -60 -5 6
    endloop
  endfacet
  facet normal 0 -1 -0
    outer loop
      vertex 60 -5 6
      vertex -60 -5 0
      vertex 60 -5 0
    endloop
  endfacet
  facet normal 0 0 1
    outer loop
      vertex 60 5 6
      vertex 47.5 0 6
      vertex 60 -5 6
    endloop
  endfacet
  facet normal 0 0 1
    outer loop
      vertex 60 5 6
      vertex 47.488 0.245043 6
      vertex 47.5 0 6
    endloop
  endfacet
  facet normal 0 0 1
    outer loop
      vertex 60 5 6
      vertex 47.452 0.487725 6
      vertex 47.488 0.245043 6
    endloop
  endfacet
  facet normal 0 0 1
    outer loop
      vertex 60 5 6
      vertex 47.3923 0.725711 6
      vertex 47.452 0.487725 6
    endloop
  endfacet
  facet normal 0 0 1
    outer loop
      vertex 60 5 6
      vertex 47.3097 0.956708 6
      vertex 47.3923 0.725711 6
    endloop
  endfacet
  facet normal 0 0 1
    outer loop
      vertex 60 5 6
      vertex 47.2048 1.17849 6
      vertex 47.3097 0.956708 6
    endloop
  endfacet
  facet normal 0 0 1
    outer loop
      vertex 60 5 6
      vertex 47.0787 1.38893 6
      vertex 47.2048 1.17849 6
    endloop
  endfacet
  facet normal 0 0 1
    outer loop
      vertex 60 5 6
      vertex 46.9325 1.58598 6
      vertex 47.0787 1.38893 6
    endloop
  endfacet
  facet normal 0 0 1
    outer loop
      vertex 60 5 6
      vertex 46.7678 1.76777 6
      vertex 46.9325 1.58598 6
    endloop
  endfacet
  facet normal 0 0 1
    outer loop
      vertex 60 5 6
      vertex 46.586 1.93253 6
      vertex 46.7678 1.76777 6
    endloop
  endfacet
  facet normal 0 0 1
    outer loop
      vertex 60 5 6
      vertex 46.3889 2.07867 6
      vertex 46.586 1.93253 6
    endloop
  endfacet
  facet normal 0 0 1
    outer loop
      vertex 60 5 6
      vertex 46.1785 2.2048 6
      vertex 46.3889 2.07867 6
    endloop
  endfacet
  facet normal 0 0 1
    outer loop
      vertex 60 5 6
      vertex 45.9567 2.3097 6
      vertex 46.1785 2.2048 6
    endloop
  endfacet
  facet normal 0 0 1
    outer loop
      vertex 60 5 6
      vertex 45.7257 2.39235 6
      vertex 45.9567 2.3097 6
    endloop
  endfacet
  facet normal 0 0 1
    outer loop
      vertex 60 5 6
      vertex 45.4877 2.45196 6
      vertex 45.7257 2.39235 6
    endloop
  endfacet
  facet normal 0 0 1
    outer loop
      vertex 60 5 6
      vertex 45.245 2.48796 6
      vertex 45.4877 2.45196 6
    endloop
  endfacet
  facet normal 0 0 1
    outer loop
      vertex 60 5 6
      vertex 45 2.5 6
      vertex 45.245 2.48796 6
    endloop
  endfacet
  facet normal 0 0 1
    outer loop
      vertex 60 5 6
      vertex 44.755 2.48796 6
      vertex 45 2.5 6
    endloop
  endfacet
  facet normal 0 0 1
    outer loop
      vertex 60 5 6
      vertex 44.5123 2.45196 6
      vertex 44.755 2.48796 6
    endloop
  endfacet
  facet normal 0 0 1
    outer loop
      vertex 42.512 0.245043 6
      vertex -42.5 0 6
      vertex 42.5 0 6
    endloop
  endfacet
  facet normal 0 0 1
    outer loop
      vertex -42.512 0.245043 6
      vertex 42.512 0.245043 6
      vertex 42.548 0.487725 6
    endloop
  endfacet
  facet normal 0 0 1
    outer loop
      vertex -42.548 0.487725 6
      vertex 42.548 0.487725 6
      vertex 42.6077 0.725711 6
    endloop
  endfacet
  facet normal 0 0 1
    outer loop
      vertex -42.6077 0.725711 6
      vertex 42.6077 0.725711 6
      vertex 42.6903 0.956708 6
    endloop
  endfacet
  facet normal 0 0 1
    outer loop
      vertex -42.6903 0.956708 6
      vertex 42.6903 0.956708 6
      vertex 42.7952 1.17849 6
    endloop
  endfacet
  facet normal 0 0 1
    outer loop
      vertex -42.7952 1.17849 6
      vertex 42.7952 1.17849 6
      vertex 42.9213 1.38893 6
    endloop
  endfacet
  facet normal 0 0 1
    outer loop
      vertex -42.9213 1.38893 6
      vertex 42.9213 1.38893 6
      vertex 43.0675 1.58598 6
    endloop
  endfacet
  facet normal 0 0 1
    outer loop
      vertex -43.0675 1.58598 6
      vertex 43.0675 1.58598 6
      vertex 43.2322 1.76777 6
    endloop
  endfacet
  facet normal 0 0 1
    outer loop
      vertex -43.2322 1.76777 6
      vertex 43.2322 1.76777 6
      vertex 43.414 1.93253 6
    endloop
  endfacet
  facet normal 0 0 1
    outer loop
      vertex -43.414 1.93253 6
      vertex 43.414 1.93253 6
      vertex 43.6111 2.07867 6
    endloop
  endfacet
  facet normal 0 0 1
    outer loop
      vertex -43.6111 2.07867 6
      vertex 43.6111 2.07867 6
      vertex 43.8215 2.2048 6
    endloop
  endfacet
  facet normal 0 0 1
    outer loop
      vertex -43.8215 2.2048 6
      vertex 43.8215 2.2048 6
      vertex 44.0433 2.3097 6
    endloop
  endfacet
  facet normal 0 0 1
    outer loop
      vertex -44.0433 2.3097 6
      vertex 44.0433 2.3097 6
      vertex 44.2743 2.39235 6
    endloop
  endfacet
  facet normal 0 0 1
    outer loop
      vertex -44.2743 2.39235 6
      vertex 44.2743 2.39235 6
      vertex 44.5123 2.45196 6
    endloop
  endfacet
  facet normal 0 0 1
    outer loop
      vertex -44.5123 2.45196 6
      vertex 44.5123 2.45196 6
      vertex 60 5 6
    endloop
  endfacet
  facet normal 0 0 1
    outer loop
      vertex 42.512 0.245043 6
      vertex -42.512 0.245043 6
      vertex -42.5 0 6
    endloop
  endfacet
  facet normal 0 0 1
    outer loop
      vertex 42.548 0.487725 6
      vertex -42.548 0.487725 6
      vertex -42.512 0.245043 6
    endloop
  endfacet
  facet normal 0 0 1
    outer loop
      vertex 42.6077 0.725711 6
      vertex -42.6077 0.725711 6
      vertex -42.548 0.487725 6
    endloop
  endfacet
  facet normal 0 0 1
    outer loop
      vertex 42.6903 0.956708 6
      vertex -42.6903 0.956708 6
      vertex -42.6077 0.725711 6
    endloop
  endfacet
  facet normal 0 0 1
    outer loop
      vertex 42.7952 1.17849 6
      vertex -42.7952 1.17849 6
      vertex -42.6903 0.956708 6
    endloop
  endfacet
  facet normal 0 0 1
    outer loop
      vertex 42.9213 1.38893 6
      vertex -42.9213 1.38893 6
      vertex -42.7952 1.17849 6
    endloop
  endfacet
  facet normal 0 0 1
    outer loop
      vertex 43.0675 1.58598 6
      vertex -43.0675 1.58598 6
      vertex -42.9213 1.38893 6
    endloop
  endfacet
  facet normal 0 0 1
    outer loop
      vertex 43.2322 1.76777 6
      vertex -43.2322 1.76777 6
      vertex -43.0675 1.58598 6
    endloop
  endfacet
  facet normal 0 0 1
    outer loop
      vertex 43.414 1.93253 6
      vertex -43.414 1.93253 6
      vertex -43.2322 1.76777 6
    endloop
  endfacet
  facet normal 0 0 1
    outer loop
      vertex 43.6111 2.07867 6
      vertex -43.6111 2.07867 6
      vertex -43.414 1.93253 6
    endloop
  endfacet
  facet normal 0 0 1
    outer loop
      vertex 43.8215 2.2048 6
      vertex -43.8215 2.2048 6
      vertex -43.6111 2.07867 6
    endloop
  endfacet
  facet normal 0 0 1
    outer loop
      vertex 44.0433 2.3097 6
      vertex -44.0433 2.3097 6
      vertex -43.8215 2.2048 6
    endloop
  endfacet
  facet normal 0 0 1
    outer loop
      vertex 44.2743 2.39235 6
      vertex -44.2743 2.39235 6
      vertex -44.0433 2.3097 6
    endloop
  endfacet
  facet normal 0 0 1
    outer loop
      vertex 44.5123 2.45196 6
      vertex -44.5123 2.45196 6
      vertex -44.2743 2.39235 6
    endloop
  endfacet
  facet normal 0 0 1
    outer loop
      vertex 60 5 6
      vertex -44.755 2.48796 6
      vertex -44.5123 2.45196 6
    endloop
  endfacet
  facet normal -0 0 1
    outer loop
      vertex -60 5 6
      vertex -44.755 2.48796 6
      vertex 60 5 6
    endloop
  endfacet
  facet normal 0 0 1
    outer loop
      vertex -47.488 0.245043 6
      vertex -60 5 6
      vertex -47.5 0 6
    endloop
  endfacet
  facet normal 0 0 1
    outer loop
      vertex -47.452 0.487725 6
      vertex -60 5 6
      vertex -47.488 0.245043 6
    endloop
  endfacet
  facet normal 0 0 1
    outer loop
      vertex -47.3923 0.725711 6
      vertex -60 5 6
      vertex -47.452 0.487725 6
    endloop
  endfacet
  facet normal 0 0 1
    outer loop
      vertex -47.3097 0.956708 6
      vertex -60 5 6
      vertex -47.3923 0.725711 6
    endloop
  endfacet
  facet normal 0 0 1
    outer loop
      vertex -47.2048 1.17849 6
      vertex -60 5 6
      vertex -47.3097 0.956708 6
    endloop
  endfacet
  facet normal 0 0 1
    outer loop
      vertex -47.0787 1.38893 6
      vertex -60 5 6
      vertex -47.2048 1.17849 6
    endloop
  endfacet
  facet normal 0 0 1
    outer loop
      vertex -46.9325 1.58598 6
      vertex -60 5 6
      vertex -47.0787 1.38893 6
    endloop
  endfacet
  facet normal 0 0 1
    outer loop
      vertex -46.7678 1.76777 6
      vertex -60 5 6
      vertex -46.9325 1.58598 6
    endloop
  endfacet
  facet normal 0 0 1
    outer loop
      vertex -46.586 1.93253 6
      vertex -60 5 6
      vertex -46.7678 1.76777 6
    endloop
  endfacet
  facet normal 0 0 1
    outer loop
      vertex -46.3889 2.07867 6
      vertex -60 5 6
      vertex -46.586 1.93253 6
    endloop
  endfacet
  facet normal 0 0 1
    outer loop
      vertex -46.1785 2.2048 6
      vertex -60 5 6
      vertex -46.3889 2.07867 6
    endloop
  endfacet
  facet normal 0 0 1
    outer loop
      vertex -45.9567 2.3097 6
      vertex -60 5 6
      vertex -46.1785 2.2048 6
    endloop
  endfacet
  facet normal 0 0 1
    outer loop
      vertex -45.7257 2.39235 6
      vertex -60 5 6
      vertex -45.9567 2.3097 6
    endloop
  endfacet
  facet normal 0 0 1
    outer loop
      vertex -45.4877 2.45196 6
      vertex -60 5 6
      vertex -45.7257 2.39235 6
    endloop
  endfacet
  facet normal 0 0 1
    outer loop
      vertex -45.245 2.48796 6
      vertex -60 5 6
      vertex -45.4877 2.45196 6
    endloop
  endfacet
  facet normal 0 0 1
    outer loop
      vertex -45 2.5 6
      vertex -60 5 6
      vertex -45.245 2.48796 6
    endloop
  endfacet
  facet normal 0 0 1
    outer loop
      vertex -44.755 2.48796 6
      vertex -60 5 6
      vertex -45 2.5 6
    endloop
  endfacet
  facet normal 0 0 1
    outer loop
      vertex 60 5 6
      vertex 85 12 6
      vertex 60 12 6
    endloop
  endfacet
  facet normal 0 0 1
    outer loop
      vertex 85 12 6
      vertex 60 5 6
      vertex 85 -12 6
    endloop
  endfacet
  facet normal -0 0 1
    outer loop
      vertex 60 -5 6
      vertex 85 -12 6
      vertex 60 5 6
    endloop
  endfacet
  facet normal 0 0 1
    outer loop
      vertex 85 -12 6
      vertex 60 -5 6
      vertex 60 -12 6
    endloop
  endfacet
  facet normal -0 0 1
    outer loop
      vertex 47.488 -0.245043 6
      vertex 60 -5 6
      vertex 47.5 0 6
    endloop
  endfacet
  facet normal -0 0 1
    outer loop
      vertex 47.452 -0.487725 6
      vertex 60 -5 6
      vertex 47.488 -0.245043 6
    endloop
  endfacet
  facet normal -0 0 1
    outer loop
      vertex 47.3923 -0.725711 6
      vertex 60 -5 6
      vertex 47.452 -0.487725 6
    endloop
  endfacet
  facet normal -0 0 1
    outer loop
      vertex 47.3097 -0.956708 6
      vertex 60 -5 6
      vertex 47.3923 -0.725711 6
    endloop
  endfacet
  facet normal -0 0 1
    outer loop
      vertex 47.2048 -1.17849 6
      vertex 60 -5 6
      vertex 47.3097 -0.956708 6
    endloop
  endfacet
  facet normal -0 0 1
    outer loop
      vertex 47.0787 -1.38893 6
      vertex 60 -5 6
      vertex 47.2048 -1.17849 6
    endloop
  endfacet
  facet normal -0 0 1
    outer loop
      vertex 46.9325 -1.58598 6
      vertex 60 -5 6
      vertex 47.0787 -1.38893 6
    endloop
  endfacet
  facet normal -0 0 1
    outer loop
      vertex 46.7678 -1.76777 6
      vertex 60 -5 6
      vertex 46.9325 -1.58598 6
    endloop
  endfacet
  facet normal -0 0 1
    outer loop
      vertex 46.586 -1.93253 6
      vertex 60 -5 6
      vertex 46.7678 -1.76777 6
    endloop
  endfacet
  facet normal -0 0 1
    outer loop
      vertex 46.3889 -2.07867 6
      vertex 60 -5 6
      vertex 46.586 -1.93253 6
    endloop
  endfacet
  facet normal -0 0 1
    outer loop
      vertex 46.1785 -2.2048 6
      vertex 60 -5 6
      vertex 46.3889 -2.07867 6
    endloop
  endfacet
  facet normal -0 0 1
    outer loop
      vertex 45.9567 -2.3097 6
      vertex 60 -5 6
      vertex 46.1785 -2.2048 6
    endloop
  endfacet
  facet normal -0 0 1
    outer loop
      vertex 45.7257 -2.39235 6
      vertex 60 -5 6
      vertex 45.9567 -2.3097 6
    endloop
  endfacet
  facet normal -0 0 1
    outer loop
      vertex 45.4877 -2.45196 6
      vertex 60 -5 6
      vertex 45.7257 -2.39235 6
    endloop
  endfacet
  facet normal -0 0 1
    outer loop
      vertex 45.245 -2.48796 6
      vertex 60 -5 6
      vertex 45.4877 -2.45196 6
    endloop
  endfacet
  facet normal -0 0 1
    outer loop
      vertex 45 -2.5 6
      vertex 60 -5 6
      vertex 45.245 -2.48796 6
    endloop
  endfacet
  facet normal 0 0 1
    outer loop
      vertex 44.755 -2.48796 6
      vertex 60 -5 6
      vertex 45 -2.5 6
    endloop
  endfacet
  facet normal 0 0 1
    outer loop
      vertex 44.5123 -2.45196 6
      vertex 60 -5 6
      vertex 44.755 -2.48796 6
    endloop
  endfacet
  facet normal -0 0 1
    outer loop
      vertex -42.5 0 6
      vertex 42.512 -0.245043 6
      vertex 42.5 0 6
    endloop
  endfacet
  facet normal 0 0 1
    outer loop
      vertex -42.512 -0.245043 6
      vertex 42.512 -0.245043 6
      vertex -42.5 0 6
    endloop
  endfacet
  facet normal 0 0 1
    outer loop
      vertex 42.512 -0.245043 6
      vertex -42.512 -0.245043 6
      vertex 42.548 -0.487725 6
    endloop
  endfacet
  facet normal 0 0 1
    outer loop
      vertex -42.548 -0.487725 6
      vertex 42.548 -0.487725 6
      vertex -42.512 -0.245043 6
    endloop
  endfacet
  facet normal 0 0 1
    outer loop
      vertex 42.548 -0.487725 6
      vertex -42.548 -0.487725 6
      vertex 42.6077 -0.725711 6
    endloop
  endfacet
  facet normal 0 0 1
    outer loop
      vertex -42.6077 -0.725711 6
      vertex 42.6077 -0.725711 6
      vertex -42.548 -0.487725 6
    endloop
  endfacet
  facet normal 0 0 1
    outer loop
      vertex 42.6077 -0.725711 6
      vertex -42.6077 -0.725711 6
      vertex 42.6903 -0.956708 6
    endloop
  endfacet
  facet normal 0 0 1
    outer loop
      vertex -42.6903 -0.956708 6
      vertex 42.6903 -0.956708 6
      vertex -42.6077 -0.725711 6
    endloop
  endfacet
  facet normal 0 0 1
    outer loop
      vertex 42.6903 -0.956708 6
      vertex -42.6903 -0.956708 6
      vertex 42.7952 -1.17849 6
    endloop
  endfacet
  facet normal 0 0 1
    outer loop
      vertex -42.7952 -1.17849 6
      vertex 42.7952 -1.17849 6
      vertex -42.6903 -0.956708 6
    endloop
  endfacet
  facet normal 0 0 1
    outer loop
      vertex 42.7952 -1.17849 6
      vertex -42.7952 -1.17849 6
      vertex 42.9213 -1.38893 6
    endloop
  endfacet
  facet normal 0 0 1
    outer loop
      vertex -42.9213 -1.38893 6
      vertex 42.9213 -1.38893 6
      vertex -42.7952 -1.17849 6
    endloop
  endfacet
  facet normal 0 0 1
    outer loop
      vertex 42.9213 -1.38893 6
      vertex -42.9213 -1.38893 6
      vertex 43.0675 -1.58598 6
    endloop
  endfacet
  facet normal 0 0 1
    outer loop
      vertex -43.0675 -1.58598 6
      vertex 43.0675 -1.58598 6
      vertex -42.9213 -1.38893 6
    endloop
  endfacet
  facet normal 0 0 1
    outer loop
      vertex 43.0675 -1.58598 6
      vertex -43.0675 -1.58598 6
      vertex 43.2322 -1.76777 6
    endloop
  endfacet
  facet normal 0 0 1
    outer loop
      vertex -43.2322 -1.76777 6
      vertex 43.2322 -1.76777 6
      vertex -43.0675 -1.58598 6
    endloop
  endfacet
  facet normal 0 0 1
    outer loop
      vertex 43.2322 -1.76777 6
      vertex -43.2322 -1.76777 6
      vertex 43.414 -1.93253 6
    endloop
  endfacet
  facet normal 0 0 1
    outer loop
      vertex -43.414 -1.93253 6
      vertex 43.414 -1.93253 6
      vertex -43.2322 -1.76777 6
    endloop
  endfacet
  facet normal 0 0 1
    outer loop
      vertex 43.414 -1.93253 6
      vertex -43.414 -1.93253 6
      vertex 43.6111 -2.07867 6
    endloop
  endfacet
  facet normal 0 0 1
    outer loop
      vertex -43.6111 -2.07867 6
      vertex 43.6111 -2.07867 6
      vertex -43.414 -1.93253 6
    endloop
  endfacet
  facet normal 0 0 1
    outer loop
      vertex 43.6111 -2.07867 6
      vertex -43.6111 -2.07867 6
      vertex 43.8215 -2.2048 6
    endloop
  endfacet
  facet normal 0 0 1
    outer loop
      vertex -43.8215 -2.2048 6
      vertex 43.8215 -2.2048 6
      vertex -43.6111 -2.07867 6
    endloop
  endfacet
  facet normal 0 0 1
    outer loop
      vertex 43.8215 -2.2048 6
      vertex -43.8215 -2.2048 6
      vertex 44.0433 -2.3097 6
    endloop
  endfacet
  facet normal 0 0 1
    outer loop
      vertex -44.0433 -2.3097 6
      vertex 44.0433 -2.3097 6
      vertex -43.8215 -2.2048 6
    endloop
  endfacet
  facet normal 0 0 1
    outer loop
      vertex 44.0433 -2.3097 6
      vertex -44.0433 -2.3097 6
      vertex 44.2743 -2.39235 6
    endloop
  endfacet
  facet normal 0 0 1
    outer loop
      vertex -44.2743 -2.39235 6
      vertex 44.2743 -2.39235 6
      vertex -44.0433 -2.3097 6
    endloop
  endfacet
  facet normal 0 0 1
    outer loop
      vertex 44.2743 -2.39235 6
      vertex -44.2743 -2.39235 6
      vertex 44.5123 -2.45196 6
    endloop
  endfacet
  facet normal 0 0 1
    outer loop
      vertex -44.5123 -2.45196 6
      vertex 44.5123 -2.45196 6
      vertex -44.2743 -2.39235 6
    endloop
  endfacet
  facet normal 0 0 1
    outer loop
      vertex 44.5123 -2.45196 6
      vertex -44.5123 -2.45196 6
      vertex 60 -5 6
    endloop
  endfacet
  facet normal -0 0 1
    outer loop
      vertex -44.755 -2.48796 6
      vertex 60 -5 6
      vertex -44.5123 -2.45196 6
    endloop
  endfacet
  facet normal 0 0 1
    outer loop
      vertex -60 -5 6
      vertex -44.755 -2.48796 6
      vertex -45 -2.5 6
    endloop
  endfacet
  facet normal 0 0 1
    outer loop
      vertex -60 -5 6
      vertex -47.5 0 6
      vertex -60 5 6
    endloop
  endfacet
  facet normal 0 0 1
    outer loop
      vertex -47.5 0 6
      vertex -60 -5 6
      vertex -47.488 -0.245043 6
    endloop
  endfacet
  facet normal 0 0 1
    outer loop
      vertex -47.488 -0.245043 6
      vertex -60 -5 6
      vertex -47.452 -0.487725 6
    endloop
  endfacet
  facet normal 0 0 1
    outer loop
      vertex -47.452 -0.487725 6
      vertex -60 -5 6
      vertex -47.3923 -0.725711 6
    endloop
  endfacet
  facet normal 0 0 1
    outer loop
      vertex -47.3923 -0.725711 6
      vertex -60 -5 6
      vertex -47.3097 -0.956708 6
    endloop
  endfacet
  facet normal 0 0 1
    outer loop
      vertex -47.3097 -0.956708 6
      vertex -60 -5 6
      vertex -47.2048 -1.17849 6
    endloop
  endfacet
  facet normal 0 0 1
    outer loop
      vertex -47.2048 -1.17849 6
      vertex -60 -5 6
      vertex -47.0787 -1.38893 6
    endloop
  endfacet
  facet normal 0 0 1
    outer loop
      vertex -47.0787 -1.38893 6
      vertex -60 -5 6
      vertex -46.9325 -1.58598 6
    endloop
  endfacet
  facet normal 0 0 1
    outer loop
      vertex -46.9325 -1.58598 6
      vertex -60 -5 6
      vertex -46.7678 -1.76777 6
    endloop
  endfacet
  facet normal 0 0 1
    outer loop
      vertex -46.7678 -1.76777 6
      vertex -60 -5 6
      vertex -46.586 -1.93253 6
    endloop
  endfacet
  facet normal 0 0 1
    outer loop
      vertex -46.586 -1.93253 6
      vertex -60 -5 6
      vertex -46.3889 -2.07867 6
    endloop
  endfacet
  facet normal 0 0 1
    outer loop
      vertex -44.755 -2.48796 6
      vertex -60 -5 6
      vertex 60 -5 6
    endloop
  endfacet
  facet normal 0 0 1
    outer loop
      vertex -45.245 -2.48796 6
      vertex -60 -5 6
      vertex -45 -2.5 6
    endloop
  endfacet
  facet normal 0 0 1
    outer loop
      vertex -45.4877 -2.45196 6
      vertex -60 -5 6
      vertex -45.245 -2.48796 6
    endloop
  endfacet
  facet normal 0 0 1
    outer loop
      vertex -45.7257 -2.39235 6
      vertex -60 -5 6
      vertex -45.4877 -2.45196 6
    endloop
  endfacet
  facet normal 0 0 1
    outer loop
      vertex -45.9567 -2.3097 6
      vertex -60 -5 6
      vertex -45.7257 -2.39235 6
    endloop
  endfacet
  facet normal 0 0 1
    outer loop
      vertex -46.1785 -2.2048 6
      vertex -60 -5 6
      vertex -45.9567 -2.3097 6
    endloop
  endfacet
  facet normal 0 0 1
    outer loop
      vertex -46.3889 -2.07867 6
      vertex -60 -5 6
      vertex -46.1785 -2.2048 6
    endloop
  endfacet
  facet normal 1 -0 0
    outer loop
      vertex 85 -12 6
      vertex 85 12 0
      vertex 85 12 6
    endloop
  endfacet
  facet normal 1 0 0
    outer loop
      vertex 85 12 0
      vertex 85 -12 6
      vertex 85 -12 0
    endloop
  endfacet
  facet normal 0 1 -0
    outer loop
      vertex 85 12 0
      vertex 60 12 6
      vertex 85 12 6
    endloop
  endfacet
  facet normal 0 1 0
    outer loop
      vertex 60 12 6
      vertex 85 12 0
      vertex 60 12 0
    endloop
  endfacet
  facet normal 0 -1 0
    outer loop
      vertex 60 -12 0
      vertex 85 -12 6
      vertex 60 -12 6
    endloop
  endfacet
  facet normal 0 -1 -0
    outer loop
      vertex 85 -12 6
      vertex 60 -12 0
      vertex 85 -12 0
    endloop
  endfacet
  facet normal 0.989176 -0.146737 0
    outer loop
      vertex -47.488 0.245043 6
      vertex -47.452 0.487725 4.5
      vertex -47.452 0.487725 6
    endloop
  endfacet
  facet normal 0.989176 -0.146737 0
    outer loop
      vertex -47.452 0.487725 4.5
      vertex -47.488 0.245043 6
      vertex -47.488 0.245043 4.5
    endloop
  endfacet
  facet normal -0.989176 -0.146737 0
    outer loop
      vertex -42.512 0.245043 4.5
      vertex -42.548 0.487725 6
      vertex -42.548 0.487725 4.5
    endloop
  endfacet
  facet normal -0.989176 -0.146737 0
    outer loop
      vertex -42.548 0.487725 6
      vertex -42.512 0.245043 4.5
      vertex -42.512 0.245043 6
    endloop
  endfacet
  facet normal -0.998803 -0.0489124 0
    outer loop
      vertex -42.5 0 4.5
      vertex -42.512 0.245043 6
      vertex -42.512 0.245043 4.5
    endloop
  endfacet
  facet normal -0.998803 -0.0489124 0
    outer loop
      vertex -42.512 0.245043 6
      vertex -42.5 0 4.5
      vertex -42.5 0 6
    endloop
  endfacet
  facet normal -0.969947 -0.243316 0
    outer loop
      vertex -42.548 0.487725 4.5
      vertex -42.6077 0.725711 6
      vertex -42.6077 0.725711 4.5
    endloop
  endfacet
  facet normal -0.969947 -0.243316 0
    outer loop
      vertex -42.6077 0.725711 6
      vertex -42.548 0.487725 4.5
      vertex -42.548 0.487725 6
    endloop
  endfacet
  facet normal -0.741083 -0.671414 0
    outer loop
      vertex -43.0675 1.58598 4.5
      vertex -43.2322 1.76777 6
      vertex -43.2322 1.76777 4.5
    endloop
  endfacet
  facet normal -0.741083 -0.671414 0
    outer loop
      vertex -43.2322 1.76777 6
      vertex -43.0675 1.58598 4.5
      vertex -43.0675 1.58598 6
    endloop
  endfacet
  facet normal 0.857788 -0.514004 0
    outer loop
      vertex -47.2048 1.17849 6
      vertex -47.0787 1.38893 4.5
      vertex -47.0787 1.38893 6
    endloop
  endfacet
  facet normal 0.857788 -0.514004 0
    outer loop
      vertex -47.0787 1.38893 4.5
      vertex -47.2048 1.17849 6
      vertex -47.2048 1.17849 4.5
    endloop
  endfacet
  facet normal -0.146726 -0.989177 0
    outer loop
      vertex -44.755 2.48796 4.5
      vertex -44.5123 2.45196 6
      vertex -44.755 2.48796 6
    endloop
  endfacet
  facet normal -0.146726 -0.989177 -0
    outer loop
      vertex -44.5123 2.45196 6
      vertex -44.755 2.48796 4.5
      vertex -44.5123 2.45196 4.5
    endloop
  endfacet
  facet normal 0.998803 0.0489124 0
    outer loop
      vertex -47.488 -0.245043 6
      vertex -47.5 0 4.5
      vertex -47.5 0 6
    endloop
  endfacet
  facet normal 0.998803 0.0489124 0
    outer loop
      vertex -47.5 0 4.5
      vertex -47.488 -0.245043 6
      vertex -47.488 -0.245043 4.5
    endloop
  endfacet
  facet normal 0.514166 0.857691 -0
    outer loop
      vertex -46.1785 -2.2048 4.5
      vertex -46.3889 -2.07867 6
      vertex -46.1785 -2.2048 6
    endloop
  endfacet
  facet normal 0.514166 0.857691 0
    outer loop
      vertex -46.3889 -2.07867 6
      vertex -46.1785 -2.2048 4.5
      vertex -46.3889 -2.07867 4.5
    endloop
  endfacet
  facet normal 0.146726 0.989177 -0
    outer loop
      vertex -45.245 -2.48796 4.5
      vertex -45.4877 -2.45196 6
      vertex -45.245 -2.48796 6
    endloop
  endfacet
  facet normal 0.146726 0.989177 0
    outer loop
      vertex -45.4877 -2.45196 6
      vertex -45.245 -2.48796 4.5
      vertex -45.4877 -2.45196 4.5
    endloop
  endfacet
  facet normal 0.595596 -0.803284 0
    outer loop
      vertex -46.586 1.93253 4.5
      vertex -46.3889 2.07867 6
      vertex -46.586 1.93253 6
    endloop
  endfacet
  facet normal 0.595596 -0.803284 0
    outer loop
      vertex -46.3889 2.07867 6
      vertex -46.586 1.93253 4.5
      vertex -46.3889 2.07867 4.5
    endloop
  endfacet
  facet normal -0.969947 0.243316 0
    outer loop
      vertex -42.6077 -0.725711 4.5
      vertex -42.548 -0.487725 6
      vertex -42.548 -0.487725 4.5
    endloop
  endfacet
  facet normal -0.969947 0.243316 0
    outer loop
      vertex -42.548 -0.487725 6
      vertex -42.6077 -0.725711 4.5
      vertex -42.6077 -0.725711 6
    endloop
  endfacet
  facet normal 0.969947 -0.243316 0
    outer loop
      vertex -47.452 0.487725 6
      vertex -47.3923 0.725711 4.5
      vertex -47.3923 0.725711 6
    endloop
  endfacet
  facet normal 0.969947 -0.243316 0
    outer loop
      vertex -47.3923 0.725711 4.5
      vertex -47.452 0.487725 6
      vertex -47.452 0.487725 4.5
    endloop
  endfacet
  facet normal -0.336879 -0.941548 0
    outer loop
      vertex -44.2743 2.39235 4.5
      vertex -44.0433 2.3097 6
      vertex -44.2743 2.39235 6
    endloop
  endfacet
  facet normal -0.336879 -0.941548 -0
    outer loop
      vertex -44.0433 2.3097 6
      vertex -44.2743 2.39235 4.5
      vertex -44.0433 2.3097 4.5
    endloop
  endfacet
  facet normal -0.989176 0.146737 0
    outer loop
      vertex -42.548 -0.487725 4.5
      vertex -42.512 -0.245043 6
      vertex -42.512 -0.245043 4.5
    endloop
  endfacet
  facet normal -0.989176 0.146737 0
    outer loop
      vertex -42.512 -0.245043 6
      vertex -42.548 -0.487725 4.5
      vertex -42.548 -0.487725 6
    endloop
  endfacet
  facet normal -0.242958 -0.970037 0
    outer loop
      vertex -44.5123 2.45196 4.5
      vertex -44.2743 2.39235 6
      vertex -44.5123 2.45196 6
    endloop
  endfacet
  facet normal -0.242958 -0.970037 -0
    outer loop
      vertex -44.2743 2.39235 6
      vertex -44.5123 2.45196 4.5
      vertex -44.2743 2.39235 4.5
    endloop
  endfacet
  facet normal -0.514166 0.857691 0
    outer loop
      vertex -43.6111 -2.07867 4.5
      vertex -43.8215 -2.2048 6
      vertex -43.6111 -2.07867 6
    endloop
  endfacet
  facet normal -0.514166 0.857691 0
    outer loop
      vertex -43.8215 -2.2048 6
      vertex -43.6111 -2.07867 4.5
      vertex -43.8215 -2.2048 4.5
    endloop
  endfacet
  facet normal 0 0 1
    outer loop
      vertex -42.512 0.245043 4.5
      vertex -42.512 -0.245043 4.5
      vertex -42.5 0 4.5
    endloop
  endfacet
  facet normal 0 0 1
    outer loop
      vertex -42.548 0.487725 4.5
      vertex -42.512 -0.245043 4.5
      vertex -42.512 0.245043 4.5
    endloop
  endfacet
  facet normal 0 0 1
    outer loop
      vertex -42.548 0.487725 4.5
      vertex -42.548 -0.487725 4.5
      vertex -42.512 -0.245043 4.5
    endloop
  endfacet
  facet normal 0 0 1
    outer loop
      vertex -42.6077 0.725711 4.5
      vertex -42.548 -0.487725 4.5
      vertex -42.548 0.487725 4.5
    endloop
  endfacet
  facet normal 0 0 1
    outer loop
      vertex -42.6077 0.725711 4.5
      vertex -42.6077 -0.725711 4.5
      vertex -42.548 -0.487725 4.5
    endloop
  endfacet
  facet normal 0 0 1
    outer loop
      vertex -42.6903 0.956708 4.5
      vertex -42.6077 -0.725711 4.5
      vertex -42.6077 0.725711 4.5
    endloop
  endfacet
  facet normal 0 0 1
    outer loop
      vertex -42.6903 0.956708 4.5
      vertex -42.6903 -0.956708 4.5
      vertex -42.6077 -0.725711 4.5
    endloop
  endfacet
  facet normal 0 0 1
    outer loop
      vertex -42.7952 1.17849 4.5
      vertex -42.6903 -0.956708 4.5
      vertex -42.6903 0.956708 4.5
    endloop
  endfacet
  facet normal 0 0 1
    outer loop
      vertex -42.7952 1.17849 4.5
      vertex -42.7952 -1.17849 4.5
      vertex -42.6903 -0.956708 4.5
    endloop
  endfacet
  facet normal 0 0 1
    outer loop
      vertex -42.9213 1.38893 4.5
      vertex -42.7952 -1.17849 4.5
      vertex -42.7952 1.17849 4.5
    endloop
  endfacet
  facet normal 0 0 1
    outer loop
      vertex -42.9213 1.38893 4.5
      vertex -42.9213 -1.38893 4.5
      vertex -42.7952 -1.17849 4.5
    endloop
  endfacet
  facet normal 0 0 1
    outer loop
      vertex -43.0675 1.58598 4.5
      vertex -42.9213 -1.38893 4.5
      vertex -42.9213 1.38893 4.5
    endloop
  endfacet
  facet normal 0 0 1
    outer loop
      vertex -43.0675 1.58598 4.5
      vertex -43.0675 -1.58598 4.5
      vertex -42.9213 -1.38893 4.5
    endloop
  endfacet
  facet normal 0 0 1
    outer loop
      vertex -43.2322 1.76777 4.5
      vertex -43.0675 -1.58598 4.5
      vertex -43.0675 1.58598 4.5
    endloop
  endfacet
  facet normal 0 0 1
    outer loop
      vertex -43.2322 1.76777 4.5
      vertex -43.2322 -1.76777 4.5
      vertex -43.0675 -1.58598 4.5
    endloop
  endfacet
  facet normal 0 0 1
    outer loop
      vertex -43.414 1.93253 4.5
      vertex -43.2322 -1.76777 4.5
      vertex -43.2322 1.76777 4.5
    endloop
  endfacet
  facet normal 0 0 1
    outer loop
      vertex -43.414 1.93253 4.5
      vertex -43.414 -1.93253 4.5
      vertex -43.2322 -1.76777 4.5
    endloop
  endfacet
  facet normal 0 0 1
    outer loop
      vertex -43.6111 2.07867 4.5
      vertex -43.414 -1.93253 4.5
      vertex -43.414 1.93253 4.5
    endloop
  endfacet
  facet normal 0 0 1
    outer loop
      vertex -43.6111 2.07867 4.5
      vertex -43.6111 -2.07867 4.5
      vertex -43.414 -1.93253 4.5
    endloop
  endfacet
  facet normal 0 0 1
    outer loop
      vertex -43.8215 2.2048 4.5
      vertex -43.6111 -2.07867 4.5
      vertex -43.6111 2.07867 4.5
    endloop
  endfacet
  facet normal 0 0 1
    outer loop
      vertex -43.8215 2.2048 4.5
      vertex -43.8215 -2.2048 4.5
      vertex -43.6111 -2.07867 4.5
    endloop
  endfacet
  facet normal 0 0 1
    outer loop
      vertex -44.0433 2.3097 4.5
      vertex -43.8215 -2.2048 4.5
      vertex -43.8215 2.2048 4.5
    endloop
  endfacet
  facet normal 0 0 1
    outer loop
      vertex -44.0433 2.3097 4.5
      vertex -44.0433 -2.3097 4.5
      vertex -43.8215 -2.2048 4.5
    endloop
  endfacet
  facet normal 0 0 1
    outer loop
      vertex -44.2743 2.39235 4.5
      vertex -44.0433 -2.3097 4.5
      vertex -44.0433 2.3097 4.5
    endloop
  endfacet
  facet normal 0 0 1
    outer loop
      vertex -44.2743 2.39235 4.5
      vertex -44.2743 -2.39235 4.5
      vertex -44.0433 -2.3097 4.5
    endloop
  endfacet
  facet normal 0 0 1
    outer loop
      vertex -44.5123 2.45196 4.5
      vertex -44.2743 -2.39235 4.5
      vertex -44.2743 2.39235 4.5
    endloop
  endfacet
  facet normal 0 0 1
    outer loop
      vertex -44.5123 2.45196 4.5
      vertex -44.5123 -2.45196 4.5
      vertex -44.2743 -2.39235 4.5
    endloop
  endfacet
  facet normal 0 0 1
    outer loop
      vertex -44.755 2.48796 4.5
      vertex -44.5123 -2.45196 4.5
      vertex -44.5123 2.45196 4.5
    endloop
  endfacet
  facet normal 0 0 1
    outer loop
      vertex -44.755 2.48796 4.5
      vertex -44.755 -2.48796 4.5
      vertex -44.5123 -2.45196 4.5
    endloop
  endfacet
  facet normal 0 0 1
    outer loop
      vertex -45 2.5 4.5
      vertex -44.755 -2.48796 4.5
      vertex -44.755 2.48796 4.5
    endloop
  endfacet
  facet normal 0 0 1
    outer loop
      vertex -45 2.5 4.5
      vertex -45 -2.5 4.5
      vertex -44.755 -2.48796 4.5
    endloop
  endfacet
  facet normal -0 0 1
    outer loop
      vertex -45.245 2.48796 4.5
      vertex -45 -2.5 4.5
      vertex -45 2.5 4.5
    endloop
  endfacet
  facet normal 0 0 1
    outer loop
      vertex -45.245 2.48796 4.5
      vertex -45.245 -2.48796 4.5
      vertex -45 -2.5 4.5
    endloop
  endfacet
  facet normal -0 0 1
    outer loop
      vertex -45.4877 2.45196 4.5
      vertex -45.245 -2.48796 4.5
      vertex -45.245 2.48796 4.5
    endloop
  endfacet
  facet normal 0 0 1
    outer loop
      vertex -45.4877 2.45196 4.5
      vertex -45.4877 -2.45196 4.5
      vertex -45.245 -2.48796 4.5
    endloop
  endfacet
  facet normal -0 0 1
    outer loop
      vertex -45.7257 2.39235 4.5
      vertex -45.4877 -2.45196 4.5
      vertex -45.4877 2.45196 4.5
    endloop
  endfacet
  facet normal 0 0 1
    outer loop
      vertex -45.7257 2.39235 4.5
      vertex -45.7257 -2.39235 4.5
      vertex -45.4877 -2.45196 4.5
    endloop
  endfacet
  facet normal -0 0 1
    outer loop
      vertex -45.9567 2.3097 4.5
      vertex -45.7257 -2.39235 4.5
      vertex -45.7257 2.39235 4.5
    endloop
  endfacet
  facet normal 0 0 1
    outer loop
      vertex -45.9567 2.3097 4.5
      vertex -45.9567 -2.3097 4.5
      vertex -45.7257 -2.39235 4.5
    endloop
  endfacet
  facet normal -0 0 1
    outer loop
      vertex -46.1785 2.2048 4.5
      vertex -45.9567 -2.3097 4.5
      vertex -45.9567 2.3097 4.5
    endloop
  endfacet
  facet normal 0 0 1
    outer loop
      vertex -46.1785 2.2048 4.5
      vertex -46.1785 -2.2048 4.5
      vertex -45.9567 -2.3097 4.5
    endloop
  endfacet
  facet normal -0 0 1
    outer loop
      vertex -46.3889 2.07867 4.5
      vertex -46.1785 -2.2048 4.5
      vertex -46.1785 2.2048 4.5
    endloop
  endfacet
  facet normal 0 0 1
    outer loop
      vertex -46.3889 2.07867 4.5
      vertex -46.3889 -2.07867 4.5
      vertex -46.1785 -2.2048 4.5
    endloop
  endfacet
  facet normal -0 0 1
    outer loop
      vertex -46.586 1.93253 4.5
      vertex -46.3889 -2.07867 4.5
      vertex -46.3889 2.07867 4.5
    endloop
  endfacet
  facet normal 0 0 1
    outer loop
      vertex -46.586 1.93253 4.5
      vertex -46.586 -1.93253 4.5
      vertex -46.3889 -2.07867 4.5
    endloop
  endfacet
  facet normal -0 0 1
    outer loop
      vertex -46.7678 1.76777 4.5
      vertex -46.586 -1.93253 4.5
      vertex -46.586 1.93253 4.5
    endloop
  endfacet
  facet normal 0 0 1
    outer loop
      vertex -46.7678 1.76777 4.5
      vertex -46.7678 -1.76777 4.5
      vertex -46.586 -1.93253 4.5
    endloop
  endfacet
  facet normal -0 0 1
    outer loop
      vertex -46.9325 1.58598 4.5
      vertex -46.7678 -1.76777 4.5
      vertex -46.7678 1.76777 4.5
    endloop
  endfacet
  facet normal 0 0 1
    outer loop
      vertex -46.9325 1.58598 4.5
      vertex -46.9325 -1.58598 4.5
      vertex -46.7678 -1.76777 4.5
    endloop
  endfacet
  facet normal -0 0 1
    outer loop
      vertex -47.0787 1.38893 4.5
      vertex -46.9325 -1.58598 4.5
      vertex -46.9325 1.58598 4.5
    endloop
  endfacet
  facet normal 0 0 1
    outer loop
      vertex -47.0787 1.38893 4.5
      vertex -47.0787 -1.38893 4.5
      vertex -46.9325 -1.58598 4.5
    endloop
  endfacet
  facet normal -0 0 1
    outer loop
      vertex -47.2048 1.17849 4.5
      vertex -47.0787 -1.38893 4.5
      vertex -47.0787 1.38893 4.5
    endloop
  endfacet
  facet normal 0 0 1
    outer loop
      vertex -47.2048 1.17849 4.5
      vertex -47.2048 -1.17849 4.5
      vertex -47.0787 -1.38893 4.5
    endloop
  endfacet
  facet normal -0 0 1
    outer loop
      vertex -47.3097 0.956708 4.5
      vertex -47.2048 -1.17849 4.5
      vertex -47.2048 1.17849 4.5
    endloop
  endfacet
  facet normal 0 0 1
    outer loop
      vertex -47.3097 0.956708 4.5
      vertex -47.3097 -0.956708 4.5
      vertex -47.2048 -1.17849 4.5
    endloop
  endfacet
  facet normal -0 0 1
    outer loop
      vertex -47.3923 0.725711 4.5
      vertex -47.3097 -0.956708 4.5
      vertex -47.3097 0.956708 4.5
    endloop
  endfacet
  facet normal 0 0 1
    outer loop
      vertex -47.3923 0.725711 4.5
      vertex -47.3923 -0.725711 4.5
      vertex -47.3097 -0.956708 4.5
    endloop
  endfacet
  facet normal -0 0 1
    outer loop
      vertex -47.452 0.487725 4.5
      vertex -47.3923 -0.725711 4.5
      vertex -47.3923 0.725711 4.5
    endloop
  endfacet
  facet normal 0 0 1
    outer loop
      vertex -47.452 0.487725 4.5
      vertex -47.452 -0.487725 4.5
      vertex -47.3923 -0.725711 4.5
    endloop
  endfacet
  facet normal -0 0 1
    outer loop
      vertex -47.488 0.245043 4.5
      vertex -47.452 -0.487725 4.5
      vertex -47.452 0.487725 4.5
    endloop
  endfacet
  facet normal 0 0 1
    outer loop
      vertex -47.488 0.245043 4.5
      vertex -47.488 -0.245043 4.5
      vertex -47.452 -0.487725 4.5
    endloop
  endfacet
  facet normal 0 -0 1
    outer loop
      vertex -47.488 -0.245043 4.5
      vertex -47.488 0.245043 4.5
      vertex -47.5 0 4.5
    endloop
  endfacet
  facet normal -0.903982 -0.427572 0
    outer loop
      vertex -42.6903 0.956708 4.5
      vertex -42.7952 1.17849 6
      vertex -42.7952 1.17849 4.5
    endloop
  endfacet
  facet normal -0.903982 -0.427572 0
    outer loop
      vertex -42.7952 1.17849 6
      vertex -42.6903 0.956708 4.5
      vertex -42.6903 0.956708 6
    endloop
  endfacet
  facet normal 0.941611 -0.336702 0
    outer loop
      vertex -47.3923 0.725711 6
      vertex -47.3097 0.956708 4.5
      vertex -47.3097 0.956708 6
    endloop
  endfacet
  facet normal 0.941611 -0.336702 0
    outer loop
      vertex -47.3097 0.956708 4.5
      vertex -47.3923 0.725711 6
      vertex -47.3923 0.725711 4.5
    endloop
  endfacet
  facet normal 0.242958 -0.970037 0
    outer loop
      vertex -45.7257 2.39235 4.5
      vertex -45.4877 2.45196 6
      vertex -45.7257 2.39235 6
    endloop
  endfacet
  facet normal 0.242958 -0.970037 0
    outer loop
      vertex -45.4877 2.45196 6
      vertex -45.7257 2.39235 4.5
      vertex -45.4877 2.45196 4.5
    endloop
  endfacet
  facet normal -0.803095 0.595851 0
    outer loop
      vertex -43.0675 -1.58598 4.5
      vertex -42.9213 -1.38893 6
      vertex -42.9213 -1.38893 4.5
    endloop
  endfacet
  facet normal -0.803095 0.595851 0
    outer loop
      vertex -42.9213 -1.38893 6
      vertex -43.0675 -1.58598 4.5
      vertex -43.0675 -1.58598 6
    endloop
  endfacet
  facet normal -0.998803 0.0489124 0
    outer loop
      vertex -42.512 -0.245043 4.5
      vertex -42.5 0 6
      vertex -42.5 0 4.5
    endloop
  endfacet
  facet normal -0.998803 0.0489124 0
    outer loop
      vertex -42.5 0 6
      vertex -42.512 -0.245043 4.5
      vertex -42.512 -0.245043 6
    endloop
  endfacet
  facet normal 0.671528 -0.740979 0
    outer loop
      vertex -46.7678 1.76777 4.5
      vertex -46.586 1.93253 6
      vertex -46.7678 1.76777 6
    endloop
  endfacet
  facet normal 0.671528 -0.740979 0
    outer loop
      vertex -46.586 1.93253 6
      vertex -46.7678 1.76777 4.5
      vertex -46.586 1.93253 4.5
    endloop
  endfacet
  facet normal 0.969947 0.243316 0
    outer loop
      vertex -47.3923 -0.725711 6
      vertex -47.452 -0.487725 4.5
      vertex -47.452 -0.487725 6
    endloop
  endfacet
  facet normal 0.969947 0.243316 0
    outer loop
      vertex -47.452 -0.487725 4.5
      vertex -47.3923 -0.725711 6
      vertex -47.3923 -0.725711 4.5
    endloop
  endfacet
  facet normal -0.903982 0.427572 0
    outer loop
      vertex -42.7952 -1.17849 4.5
      vertex -42.6903 -0.956708 6
      vertex -42.6903 -0.956708 4.5
    endloop
  endfacet
  facet normal -0.903982 0.427572 0
    outer loop
      vertex -42.6903 -0.956708 6
      vertex -42.7952 -1.17849 4.5
      vertex -42.7952 -1.17849 6
    endloop
  endfacet
  facet normal -0.0490836 0.998795 0
    outer loop
      vertex -44.755 -2.48796 4.5
      vertex -45 -2.5 6
      vertex -44.755 -2.48796 6
    endloop
  endfacet
  facet normal -0.0490836 0.998795 0
    outer loop
      vertex -45 -2.5 6
      vertex -44.755 -2.48796 4.5
      vertex -45 -2.5 4.5
    endloop
  endfacet
  facet normal -0.857788 -0.514004 0
    outer loop
      vertex -42.7952 1.17849 4.5
      vertex -42.9213 1.38893 6
      vertex -42.9213 1.38893 4.5
    endloop
  endfacet
  facet normal -0.857788 -0.514004 0
    outer loop
      vertex -42.9213 1.38893 6
      vertex -42.7952 1.17849 4.5
      vertex -42.7952 1.17849 6
    endloop
  endfacet
  facet normal -0.595596 -0.803284 0
    outer loop
      vertex -43.6111 2.07867 4.5
      vertex -43.414 1.93253 6
      vertex -43.6111 2.07867 6
    endloop
  endfacet
  facet normal -0.595596 -0.803284 -0
    outer loop
      vertex -43.414 1.93253 6
      vertex -43.6111 2.07867 4.5
      vertex -43.414 1.93253 4.5
    endloop
  endfacet
  facet normal 0.941611 0.336702 0
    outer loop
      vertex -47.3097 -0.956708 6
      vertex -47.3923 -0.725711 4.5
      vertex -47.3923 -0.725711 6
    endloop
  endfacet
  facet normal 0.941611 0.336702 0
    outer loop
      vertex -47.3923 -0.725711 4.5
      vertex -47.3097 -0.956708 6
      vertex -47.3097 -0.956708 4.5
    endloop
  endfacet
  facet normal 0.336879 0.941548 -0
    outer loop
      vertex -45.7257 -2.39235 4.5
      vertex -45.9567 -2.3097 6
      vertex -45.7257 -2.39235 6
    endloop
  endfacet
  facet normal 0.336879 0.941548 0
    outer loop
      vertex -45.9567 -2.3097 6
      vertex -45.7257 -2.39235 4.5
      vertex -45.9567 -2.3097 4.5
    endloop
  endfacet
  facet normal 0.514166 -0.857691 0
    outer loop
      vertex -46.3889 2.07867 4.5
      vertex -46.1785 2.2048 6
      vertex -46.3889 2.07867 6
    endloop
  endfacet
  facet normal 0.514166 -0.857691 0
    outer loop
      vertex -46.1785 2.2048 6
      vertex -46.3889 2.07867 4.5
      vertex -46.1785 2.2048 4.5
    endloop
  endfacet
  facet normal 0.671528 0.740979 -0
    outer loop
      vertex -46.586 -1.93253 4.5
      vertex -46.7678 -1.76777 6
      vertex -46.586 -1.93253 6
    endloop
  endfacet
  facet normal 0.671528 0.740979 0
    outer loop
      vertex -46.7678 -1.76777 6
      vertex -46.586 -1.93253 4.5
      vertex -46.7678 -1.76777 4.5
    endloop
  endfacet
  facet normal -0.803095 -0.595851 0
    outer loop
      vertex -42.9213 1.38893 4.5
      vertex -43.0675 1.58598 6
      vertex -43.0675 1.58598 4.5
    endloop
  endfacet
  facet normal -0.803095 -0.595851 0
    outer loop
      vertex -43.0675 1.58598 6
      vertex -42.9213 1.38893 4.5
      vertex -42.9213 1.38893 6
    endloop
  endfacet
  facet normal -0.427543 0.903995 0
    outer loop
      vertex -43.8215 -2.2048 4.5
      vertex -44.0433 -2.3097 6
      vertex -43.8215 -2.2048 6
    endloop
  endfacet
  facet normal -0.427543 0.903995 0
    outer loop
      vertex -44.0433 -2.3097 6
      vertex -43.8215 -2.2048 4.5
      vertex -44.0433 -2.3097 4.5
    endloop
  endfacet
  facet normal -0.0490836 -0.998795 0
    outer loop
      vertex -45 2.5 4.5
      vertex -44.755 2.48796 6
      vertex -45 2.5 6
    endloop
  endfacet
  facet normal -0.0490836 -0.998795 -0
    outer loop
      vertex -44.755 2.48796 6
      vertex -45 2.5 4.5
      vertex -44.755 2.48796 4.5
    endloop
  endfacet
  facet normal 0.741083 -0.671414 0
    outer loop
      vertex -46.9325 1.58598 6
      vertex -46.7678 1.76777 4.5
      vertex -46.7678 1.76777 6
    endloop
  endfacet
  facet normal 0.741083 -0.671414 0
    outer loop
      vertex -46.7678 1.76777 4.5
      vertex -46.9325 1.58598 6
      vertex -46.9325 1.58598 4.5
    endloop
  endfacet
  facet normal -0.671528 -0.740979 0
    outer loop
      vertex -43.414 1.93253 4.5
      vertex -43.2322 1.76777 6
      vertex -43.414 1.93253 6
    endloop
  endfacet
  facet normal -0.671528 -0.740979 -0
    outer loop
      vertex -43.2322 1.76777 6
      vertex -43.414 1.93253 4.5
      vertex -43.2322 1.76777 4.5
    endloop
  endfacet
  facet normal -0.514166 -0.857691 0
    outer loop
      vertex -43.8215 2.2048 4.5
      vertex -43.6111 2.07867 6
      vertex -43.8215 2.2048 6
    endloop
  endfacet
  facet normal -0.514166 -0.857691 -0
    outer loop
      vertex -43.6111 2.07867 6
      vertex -43.8215 2.2048 4.5
      vertex -43.6111 2.07867 4.5
    endloop
  endfacet
  facet normal -0.146726 0.989177 0
    outer loop
      vertex -44.5123 -2.45196 4.5
      vertex -44.755 -2.48796 6
      vertex -44.5123 -2.45196 6
    endloop
  endfacet
  facet normal -0.146726 0.989177 0
    outer loop
      vertex -44.755 -2.48796 6
      vertex -44.5123 -2.45196 4.5
      vertex -44.755 -2.48796 4.5
    endloop
  endfacet
  facet normal 0.242958 0.970037 -0
    outer loop
      vertex -45.4877 -2.45196 4.5
      vertex -45.7257 -2.39235 6
      vertex -45.4877 -2.45196 6
    endloop
  endfacet
  facet normal 0.242958 0.970037 0
    outer loop
      vertex -45.7257 -2.39235 6
      vertex -45.4877 -2.45196 4.5
      vertex -45.7257 -2.39235 4.5
    endloop
  endfacet
  facet normal -0.857788 0.514004 0
    outer loop
      vertex -42.9213 -1.38893 4.5
      vertex -42.7952 -1.17849 6
      vertex -42.7952 -1.17849 4.5
    endloop
  endfacet
  facet normal -0.857788 0.514004 0
    outer loop
      vertex -42.7952 -1.17849 6
      vertex -42.9213 -1.38893 4.5
      vertex -42.9213 -1.38893 6
    endloop
  endfacet
  facet normal -0.941611 0.336702 0
    outer loop
      vertex -42.6903 -0.956708 4.5
      vertex -42.6077 -0.725711 6
      vertex -42.6077 -0.725711 4.5
    endloop
  endfacet
  facet normal -0.941611 0.336702 0
    outer loop
      vertex -42.6077 -0.725711 6
      vertex -42.6903 -0.956708 4.5
      vertex -42.6903 -0.956708 6
    endloop
  endfacet
  facet normal 0.336879 -0.941548 0
    outer loop
      vertex -45.9567 2.3097 4.5
      vertex -45.7257 2.39235 6
      vertex -45.9567 2.3097 6
    endloop
  endfacet
  facet normal 0.336879 -0.941548 0
    outer loop
      vertex -45.7257 2.39235 6
      vertex -45.9567 2.3097 4.5
      vertex -45.7257 2.39235 4.5
    endloop
  endfacet
  facet normal -0.427543 -0.903995 0
    outer loop
      vertex -44.0433 2.3097 4.5
      vertex -43.8215 2.2048 6
      vertex -44.0433 2.3097 6
    endloop
  endfacet
  facet normal -0.427543 -0.903995 -0
    outer loop
      vertex -43.8215 2.2048 6
      vertex -44.0433 2.3097 4.5
      vertex -43.8215 2.2048 4.5
    endloop
  endfacet
  facet normal 0.803095 -0.595851 0
    outer loop
      vertex -47.0787 1.38893 6
      vertex -46.9325 1.58598 4.5
      vertex -46.9325 1.58598 6
    endloop
  endfacet
  facet normal 0.803095 -0.595851 0
    outer loop
      vertex -46.9325 1.58598 4.5
      vertex -47.0787 1.38893 6
      vertex -47.0787 1.38893 4.5
    endloop
  endfacet
  facet normal -0.741083 0.671414 0
    outer loop
      vertex -43.2322 -1.76777 4.5
      vertex -43.0675 -1.58598 6
      vertex -43.0675 -1.58598 4.5
    endloop
  endfacet
  facet normal -0.741083 0.671414 0
    outer loop
      vertex -43.0675 -1.58598 6
      vertex -43.2322 -1.76777 4.5
      vertex -43.2322 -1.76777 6
    endloop
  endfacet
  facet normal -0.941611 -0.336702 0
    outer loop
      vertex -42.6077 0.725711 4.5
      vertex -42.6903 0.956708 6
      vertex -42.6903 0.956708 4.5
    endloop
  endfacet
  facet normal -0.941611 -0.336702 0
    outer loop
      vertex -42.6903 0.956708 6
      vertex -42.6077 0.725711 4.5
      vertex -42.6077 0.725711 6
    endloop
  endfacet
  facet normal 0.857788 0.514004 0
    outer loop
      vertex -47.0787 -1.38893 6
      vertex -47.2048 -1.17849 4.5
      vertex -47.2048 -1.17849 6
    endloop
  endfacet
  facet normal 0.857788 0.514004 0
    outer loop
      vertex -47.2048 -1.17849 4.5
      vertex -47.0787 -1.38893 6
      vertex -47.0787 -1.38893 4.5
    endloop
  endfacet
  facet normal 0.427543 -0.903995 0
    outer loop
      vertex -46.1785 2.2048 4.5
      vertex -45.9567 2.3097 6
      vertex -46.1785 2.2048 6
    endloop
  endfacet
  facet normal 0.427543 -0.903995 0
    outer loop
      vertex -45.9567 2.3097 6
      vertex -46.1785 2.2048 4.5
      vertex -45.9567 2.3097 4.5
    endloop
  endfacet
  facet normal 0.803095 0.595851 0
    outer loop
      vertex -46.9325 -1.58598 6
      vertex -47.0787 -1.38893 4.5
      vertex -47.0787 -1.38893 6
    endloop
  endfacet
  facet normal 0.803095 0.595851 0
    outer loop
      vertex -47.0787 -1.38893 4.5
      vertex -46.9325 -1.58598 6
      vertex -46.9325 -1.58598 4.5
    endloop
  endfacet
  facet normal 0.903982 -0.427572 0
    outer loop
      vertex -47.3097 0.956708 6
      vertex -47.2048 1.17849 4.5
      vertex -47.2048 1.17849 6
    endloop
  endfacet
  facet normal 0.903982 -0.427572 0
    outer loop
      vertex -47.2048 1.17849 4.5
      vertex -47.3097 0.956708 6
      vertex -47.3097 0.956708 4.5
    endloop
  endfacet
  facet normal 0.0490836 -0.998795 0
    outer loop
      vertex -45.245 2.48796 4.5
      vertex -45 2.5 6
      vertex -45.245 2.48796 6
    endloop
  endfacet
  facet normal 0.0490836 -0.998795 0
    outer loop
      vertex -45 2.5 6
      vertex -45.245 2.48796 4.5
      vertex -45 2.5 4.5
    endloop
  endfacet
  facet normal 0.427543 0.903995 -0
    outer loop
      vertex -45.9567 -2.3097 4.5
      vertex -46.1785 -2.2048 6
      vertex -45.9567 -2.3097 6
    endloop
  endfacet
  facet normal 0.427543 0.903995 0
    outer loop
      vertex -46.1785 -2.2048 6
      vertex -45.9567 -2.3097 4.5
      vertex -46.1785 -2.2048 4.5
    endloop
  endfacet
  facet normal -0.595596 0.803284 0
    outer loop
      vertex -43.414 -1.93253 4.5
      vertex -43.6111 -2.07867 6
      vertex -43.414 -1.93253 6
    endloop
  endfacet
  facet normal -0.595596 0.803284 0
    outer loop
      vertex -43.6111 -2.07867 6
      vertex -43.414 -1.93253 4.5
      vertex -43.6111 -2.07867 4.5
    endloop
  endfacet
  facet normal 0.146726 -0.989177 0
    outer loop
      vertex -45.4877 2.45196 4.5
      vertex -45.245 2.48796 6
      vertex -45.4877 2.45196 6
    endloop
  endfacet
  facet normal 0.146726 -0.989177 0
    outer loop
      vertex -45.245 2.48796 6
      vertex -45.4877 2.45196 4.5
      vertex -45.245 2.48796 4.5
    endloop
  endfacet
  facet normal 0.989176 0.146737 0
    outer loop
      vertex -47.452 -0.487725 6
      vertex -47.488 -0.245043 4.5
      vertex -47.488 -0.245043 6
    endloop
  endfacet
  facet normal 0.989176 0.146737 0
    outer loop
      vertex -47.488 -0.245043 4.5
      vertex -47.452 -0.487725 6
      vertex -47.452 -0.487725 4.5
    endloop
  endfacet
  facet normal -0.336879 0.941548 0
    outer loop
      vertex -44.0433 -2.3097 4.5
      vertex -44.2743 -2.39235 6
      vertex -44.0433 -2.3097 6
    endloop
  endfacet
  facet normal -0.336879 0.941548 0
    outer loop
      vertex -44.2743 -2.39235 6
      vertex -44.0433 -2.3097 4.5
      vertex -44.2743 -2.39235 4.5
    endloop
  endfacet
  facet normal -0.242958 0.970037 0
    outer loop
      vertex -44.2743 -2.39235 4.5
      vertex -44.5123 -2.45196 6
      vertex -44.2743 -2.39235 6
    endloop
  endfacet
  facet normal -0.242958 0.970037 0
    outer loop
      vertex -44.5123 -2.45196 6
      vertex -44.2743 -2.39235 4.5
      vertex -44.5123 -2.45196 4.5
    endloop
  endfacet
  facet normal 0.903982 0.427572 0
    outer loop
      vertex -47.2048 -1.17849 6
      vertex -47.3097 -0.956708 4.5
      vertex -47.3097 -0.956708 6
    endloop
  endfacet
  facet normal 0.903982 0.427572 0
    outer loop
      vertex -47.3097 -0.956708 4.5
      vertex -47.2048 -1.17849 6
      vertex -47.2048 -1.17849 4.5
    endloop
  endfacet
  facet normal 0.741083 0.671414 0
    outer loop
      vertex -46.7678 -1.76777 6
      vertex -46.9325 -1.58598 4.5
      vertex -46.9325 -1.58598 6
    endloop
  endfacet
  facet normal 0.741083 0.671414 0
    outer loop
      vertex -46.9325 -1.58598 4.5
      vertex -46.7678 -1.76777 6
      vertex -46.7678 -1.76777 4.5
    endloop
  endfacet
  facet normal 0.595596 0.803284 -0
    outer loop
      vertex -46.3889 -2.07867 4.5
      vertex -46.586 -1.93253 6
      vertex -46.3889 -2.07867 6
    endloop
  endfacet
  facet normal 0.595596 0.803284 0
    outer loop
      vertex -46.586 -1.93253 6
      vertex -46.3889 -2.07867 4.5
      vertex -46.586 -1.93253 4.5
    endloop
  endfacet
  facet normal 0.0490836 0.998795 -0
    outer loop
      vertex -45 -2.5 4.5
      vertex -45.245 -2.48796 6
      vertex -45 -2.5 6
    endloop
  endfacet
  facet normal 0.0490836 0.998795 0
    outer loop
      vertex -45.245 -2.48796 6
      vertex -45 -2.5 4.5
      vertex -45.245 -2.48796 4.5
    endloop
  endfacet
  facet normal 0.998803 -0.0489124 0
    outer loop
      vertex -47.5 0 6
      vertex -47.488 0.245043 4.5
      vertex -47.488 0.245043 6
    endloop
  endfacet
  facet normal 0.998803 -0.0489124 0
    outer loop
      vertex -47.488 0.245043 4.5
      vertex -47.5 0 6
      vertex -47.5 0 4.5
    endloop
  endfacet
  facet normal -0.671528 0.740979 0
    outer loop
      vertex -43.2322 -1.76777 4.5
      vertex -43.414 -1.93253 6
      vertex -43.2322 -1.76777 6
    endloop
  endfacet
  facet normal -0.671528 0.740979 0
    outer loop
      vertex -43.414 -1.93253 6
      vertex -43.2322 -1.76777 4.5
      vertex -43.414 -1.93253 4.5
    endloop
  endfacet
  facet normal 0.0490836 0.998795 -0
    outer loop
      vertex 45 -2.5 4.5
      vertex 44.755 -2.48796 6
      vertex 45 -2.5 6
    endloop
  endfacet
  facet normal 0.0490836 0.998795 0
    outer loop
      vertex 44.755 -2.48796 6
      vertex 45 -2.5 4.5
      vertex 44.755 -2.48796 4.5
    endloop
  endfacet
  facet normal -0.336879 -0.941548 0
    outer loop
      vertex 45.7257 2.39235 4.5
      vertex 45.9567 2.3097 6
      vertex 45.7257 2.39235 6
    endloop
  endfacet
  facet normal -0.336879 -0.941548 -0
    outer loop
      vertex 45.9567 2.3097 6
      vertex 45.7257 2.39235 4.5
      vertex 45.9567 2.3097 4.5
    endloop
  endfacet
  facet normal -0.941611 -0.336702 0
    outer loop
      vertex 47.3923 0.725711 4.5
      vertex 47.3097 0.956708 6
      vertex 47.3097 0.956708 4.5
    endloop
  endfacet
  facet normal -0.941611 -0.336702 0
    outer loop
      vertex 47.3097 0.956708 6
      vertex 47.3923 0.725711 4.5
      vertex 47.3923 0.725711 6
    endloop
  endfacet
  facet normal -0.741083 0.671414 0
    outer loop
      vertex 46.7678 -1.76777 4.5
      vertex 46.9325 -1.58598 6
      vertex 46.9325 -1.58598 4.5
    endloop
  endfacet
  facet normal -0.741083 0.671414 0
    outer loop
      vertex 46.9325 -1.58598 6
      vertex 46.7678 -1.76777 4.5
      vertex 46.7678 -1.76777 6
    endloop
  endfacet
  facet normal 0.741083 0.671414 0
    outer loop
      vertex 43.2322 -1.76777 6
      vertex 43.0675 -1.58598 4.5
      vertex 43.0675 -1.58598 6
    endloop
  endfacet
  facet normal 0.741083 0.671414 0
    outer loop
      vertex 43.0675 -1.58598 4.5
      vertex 43.2322 -1.76777 6
      vertex 43.2322 -1.76777 4.5
    endloop
  endfacet
  facet normal 0.671528 0.740979 -0
    outer loop
      vertex 43.414 -1.93253 4.5
      vertex 43.2322 -1.76777 6
      vertex 43.414 -1.93253 6
    endloop
  endfacet
  facet normal 0.671528 0.740979 0
    outer loop
      vertex 43.2322 -1.76777 6
      vertex 43.414 -1.93253 4.5
      vertex 43.2322 -1.76777 4.5
    endloop
  endfacet
  facet normal -0.427543 0.903995 0
    outer loop
      vertex 46.1785 -2.2048 4.5
      vertex 45.9567 -2.3097 6
      vertex 46.1785 -2.2048 6
    endloop
  endfacet
  facet normal -0.427543 0.903995 0
    outer loop
      vertex 45.9567 -2.3097 6
      vertex 46.1785 -2.2048 4.5
      vertex 45.9567 -2.3097 4.5
    endloop
  endfacet
  facet normal -0.803095 -0.595851 0
    outer loop
      vertex 47.0787 1.38893 4.5
      vertex 46.9325 1.58598 6
      vertex 46.9325 1.58598 4.5
    endloop
  endfacet
  facet normal -0.803095 -0.595851 0
    outer loop
      vertex 46.9325 1.58598 6
      vertex 47.0787 1.38893 4.5
      vertex 47.0787 1.38893 6
    endloop
  endfacet
  facet normal -0.336879 0.941548 0
    outer loop
      vertex 45.9567 -2.3097 4.5
      vertex 45.7257 -2.39235 6
      vertex 45.9567 -2.3097 6
    endloop
  endfacet
  facet normal -0.336879 0.941548 0
    outer loop
      vertex 45.7257 -2.39235 6
      vertex 45.9567 -2.3097 4.5
      vertex 45.7257 -2.39235 4.5
    endloop
  endfacet
  facet normal -0.803095 0.595851 0
    outer loop
      vertex 46.9325 -1.58598 4.5
      vertex 47.0787 -1.38893 6
      vertex 47.0787 -1.38893 4.5
    endloop
  endfacet
  facet normal -0.803095 0.595851 0
    outer loop
      vertex 47.0787 -1.38893 6
      vertex 46.9325 -1.58598 4.5
      vertex 46.9325 -1.58598 6
    endloop
  endfacet
  facet normal -0.989176 -0.146737 0
    outer loop
      vertex 47.488 0.245043 4.5
      vertex 47.452 0.487725 6
      vertex 47.452 0.487725 4.5
    endloop
  endfacet
  facet normal -0.989176 -0.146737 0
    outer loop
      vertex 47.452 0.487725 6
      vertex 47.488 0.245043 4.5
      vertex 47.488 0.245043 6
    endloop
  endfacet
  facet normal 0.671528 -0.740979 0
    outer loop
      vertex 43.2322 1.76777 4.5
      vertex 43.414 1.93253 6
      vertex 43.2322 1.76777 6
    endloop
  endfacet
  facet normal 0.671528 -0.740979 0
    outer loop
      vertex 43.414 1.93253 6
      vertex 43.2322 1.76777 4.5
      vertex 43.414 1.93253 4.5
    endloop
  endfacet
  facet normal 0.0490836 -0.998795 0
    outer loop
      vertex 44.755 2.48796 4.5
      vertex 45 2.5 6
      vertex 44.755 2.48796 6
    endloop
  endfacet
  facet normal 0.0490836 -0.998795 0
    outer loop
      vertex 45 2.5 6
      vertex 44.755 2.48796 4.5
      vertex 45 2.5 4.5
    endloop
  endfacet
  facet normal -0.998803 -0.0489124 0
    outer loop
      vertex 47.5 0 4.5
      vertex 47.488 0.245043 6
      vertex 47.488 0.245043 4.5
    endloop
  endfacet
  facet normal -0.998803 -0.0489124 0
    outer loop
      vertex 47.488 0.245043 6
      vertex 47.5 0 4.5
      vertex 47.5 0 6
    endloop
  endfacet
  facet normal 0.941611 0.336702 0
    outer loop
      vertex 42.6903 -0.956708 6
      vertex 42.6077 -0.725711 4.5
      vertex 42.6077 -0.725711 6
    endloop
  endfacet
  facet normal 0.941611 0.336702 0
    outer loop
      vertex 42.6077 -0.725711 4.5
      vertex 42.6903 -0.956708 6
      vertex 42.6903 -0.956708 4.5
    endloop
  endfacet
  facet normal 0.242958 -0.970037 0
    outer loop
      vertex 44.2743 2.39235 4.5
      vertex 44.5123 2.45196 6
      vertex 44.2743 2.39235 6
    endloop
  endfacet
  facet normal 0.242958 -0.970037 0
    outer loop
      vertex 44.5123 2.45196 6
      vertex 44.2743 2.39235 4.5
      vertex 44.5123 2.45196 4.5
    endloop
  endfacet
  facet normal 0.242958 0.970037 -0
    outer loop
      vertex 44.5123 -2.45196 4.5
      vertex 44.2743 -2.39235 6
      vertex 44.5123 -2.45196 6
    endloop
  endfacet
  facet normal 0.242958 0.970037 0
    outer loop
      vertex 44.2743 -2.39235 6
      vertex 44.5123 -2.45196 4.5
      vertex 44.2743 -2.39235 4.5
    endloop
  endfacet
  facet normal -0.998803 0.0489124 0
    outer loop
      vertex 47.488 -0.245043 4.5
      vertex 47.5 0 6
      vertex 47.5 0 4.5
    endloop
  endfacet
  facet normal -0.998803 0.0489124 0
    outer loop
      vertex 47.5 0 6
      vertex 47.488 -0.245043 4.5
      vertex 47.488 -0.245043 6
    endloop
  endfacet
  facet normal -0.514166 -0.857691 0
    outer loop
      vertex 46.1785 2.2048 4.5
      vertex 46.3889 2.07867 6
      vertex 46.1785 2.2048 6
    endloop
  endfacet
  facet normal -0.514166 -0.857691 -0
    outer loop
      vertex 46.3889 2.07867 6
      vertex 46.1785 2.2048 4.5
      vertex 46.3889 2.07867 4.5
    endloop
  endfacet
  facet normal -0.741083 -0.671414 0
    outer loop
      vertex 46.9325 1.58598 4.5
      vertex 46.7678 1.76777 6
      vertex 46.7678 1.76777 4.5
    endloop
  endfacet
  facet normal -0.741083 -0.671414 0
    outer loop
      vertex 46.7678 1.76777 6
      vertex 46.9325 1.58598 4.5
      vertex 46.9325 1.58598 6
    endloop
  endfacet
  facet normal 0.146726 -0.989177 0
    outer loop
      vertex 44.5123 2.45196 4.5
      vertex 44.755 2.48796 6
      vertex 44.5123 2.45196 6
    endloop
  endfacet
  facet normal 0.146726 -0.989177 0
    outer loop
      vertex 44.755 2.48796 6
      vertex 44.5123 2.45196 4.5
      vertex 44.755 2.48796 4.5
    endloop
  endfacet
  facet normal -0.969947 -0.243316 0
    outer loop
      vertex 47.452 0.487725 4.5
      vertex 47.3923 0.725711 6
      vertex 47.3923 0.725711 4.5
    endloop
  endfacet
  facet normal -0.969947 -0.243316 0
    outer loop
      vertex 47.3923 0.725711 6
      vertex 47.452 0.487725 4.5
      vertex 47.452 0.487725 6
    endloop
  endfacet
  facet normal 0.336879 -0.941548 0
    outer loop
      vertex 44.0433 2.3097 4.5
      vertex 44.2743 2.39235 6
      vertex 44.0433 2.3097 6
    endloop
  endfacet
  facet normal 0.336879 -0.941548 0
    outer loop
      vertex 44.2743 2.39235 6
      vertex 44.0433 2.3097 4.5
      vertex 44.2743 2.39235 4.5
    endloop
  endfacet
  facet normal -0.427543 -0.903995 0
    outer loop
      vertex 45.9567 2.3097 4.5
      vertex 46.1785 2.2048 6
      vertex 45.9567 2.3097 6
    endloop
  endfacet
  facet normal -0.427543 -0.903995 -0
    outer loop
      vertex 46.1785 2.2048 6
      vertex 45.9567 2.3097 4.5
      vertex 46.1785 2.2048 4.5
    endloop
  endfacet
  facet normal -0.242958 -0.970037 0
    outer loop
      vertex 45.4877 2.45196 4.5
      vertex 45.7257 2.39235 6
      vertex 45.4877 2.45196 6
    endloop
  endfacet
  facet normal -0.242958 -0.970037 -0
    outer loop
      vertex 45.7257 2.39235 6
      vertex 45.4877 2.45196 4.5
      vertex 45.7257 2.39235 4.5
    endloop
  endfacet
  facet normal -0.146726 0.989177 0
    outer loop
      vertex 45.4877 -2.45196 4.5
      vertex 45.245 -2.48796 6
      vertex 45.4877 -2.45196 6
    endloop
  endfacet
  facet normal -0.146726 0.989177 0
    outer loop
      vertex 45.245 -2.48796 6
      vertex 45.4877 -2.45196 4.5
      vertex 45.245 -2.48796 4.5
    endloop
  endfacet
  facet normal 0.741083 -0.671414 0
    outer loop
      vertex 43.0675 1.58598 6
      vertex 43.2322 1.76777 4.5
      vertex 43.2322 1.76777 6
    endloop
  endfacet
  facet normal 0.741083 -0.671414 0
    outer loop
      vertex 43.2322 1.76777 4.5
      vertex 43.0675 1.58598 6
      vertex 43.0675 1.58598 4.5
    endloop
  endfacet
  facet normal 0.595596 -0.803284 0
    outer loop
      vertex 43.414 1.93253 4.5
      vertex 43.6111 2.07867 6
      vertex 43.414 1.93253 6
    endloop
  endfacet
  facet normal 0.595596 -0.803284 0
    outer loop
      vertex 43.6111 2.07867 6
      vertex 43.414 1.93253 4.5
      vertex 43.6111 2.07867 4.5
    endloop
  endfacet
  facet normal 0.427543 0.903995 -0
    outer loop
      vertex 44.0433 -2.3097 4.5
      vertex 43.8215 -2.2048 6
      vertex 44.0433 -2.3097 6
    endloop
  endfacet
  facet normal 0.427543 0.903995 0
    outer loop
      vertex 43.8215 -2.2048 6
      vertex 44.0433 -2.3097 4.5
      vertex 43.8215 -2.2048 4.5
    endloop
  endfacet
  facet normal -0.903982 -0.427572 0
    outer loop
      vertex 47.3097 0.956708 4.5
      vertex 47.2048 1.17849 6
      vertex 47.2048 1.17849 4.5
    endloop
  endfacet
  facet normal -0.903982 -0.427572 0
    outer loop
      vertex 47.2048 1.17849 6
      vertex 47.3097 0.956708 4.5
      vertex 47.3097 0.956708 6
    endloop
  endfacet
  facet normal 0.989176 -0.146737 0
    outer loop
      vertex 42.512 0.245043 6
      vertex 42.548 0.487725 4.5
      vertex 42.548 0.487725 6
    endloop
  endfacet
  facet normal 0.989176 -0.146737 0
    outer loop
      vertex 42.548 0.487725 4.5
      vertex 42.512 0.245043 6
      vertex 42.512 0.245043 4.5
    endloop
  endfacet
  facet normal 0.336879 0.941548 -0
    outer loop
      vertex 44.2743 -2.39235 4.5
      vertex 44.0433 -2.3097 6
      vertex 44.2743 -2.39235 6
    endloop
  endfacet
  facet normal 0.336879 0.941548 0
    outer loop
      vertex 44.0433 -2.3097 6
      vertex 44.2743 -2.39235 4.5
      vertex 44.0433 -2.3097 4.5
    endloop
  endfacet
  facet normal -0.0490836 -0.998795 0
    outer loop
      vertex 45 2.5 4.5
      vertex 45.245 2.48796 6
      vertex 45 2.5 6
    endloop
  endfacet
  facet normal -0.0490836 -0.998795 -0
    outer loop
      vertex 45.245 2.48796 6
      vertex 45 2.5 4.5
      vertex 45.245 2.48796 4.5
    endloop
  endfacet
  facet normal -0.671528 -0.740979 0
    outer loop
      vertex 46.586 1.93253 4.5
      vertex 46.7678 1.76777 6
      vertex 46.586 1.93253 6
    endloop
  endfacet
  facet normal -0.671528 -0.740979 -0
    outer loop
      vertex 46.7678 1.76777 6
      vertex 46.586 1.93253 4.5
      vertex 46.7678 1.76777 4.5
    endloop
  endfacet
  facet normal -0.595596 -0.803284 0
    outer loop
      vertex 46.3889 2.07867 4.5
      vertex 46.586 1.93253 6
      vertex 46.3889 2.07867 6
    endloop
  endfacet
  facet normal -0.595596 -0.803284 -0
    outer loop
      vertex 46.586 1.93253 6
      vertex 46.3889 2.07867 4.5
      vertex 46.586 1.93253 4.5
    endloop
  endfacet
  facet normal 0.969947 0.243316 0
    outer loop
      vertex 42.6077 -0.725711 6
      vertex 42.548 -0.487725 4.5
      vertex 42.548 -0.487725 6
    endloop
  endfacet
  facet normal 0.969947 0.243316 0
    outer loop
      vertex 42.548 -0.487725 4.5
      vertex 42.6077 -0.725711 6
      vertex 42.6077 -0.725711 4.5
    endloop
  endfacet
  facet normal 0.803095 0.595851 0
    outer loop
      vertex 43.0675 -1.58598 6
      vertex 42.9213 -1.38893 4.5
      vertex 42.9213 -1.38893 6
    endloop
  endfacet
  facet normal 0.803095 0.595851 0
    outer loop
      vertex 42.9213 -1.38893 4.5
      vertex 43.0675 -1.58598 6
      vertex 43.0675 -1.58598 4.5
    endloop
  endfacet
  facet normal -0.989176 0.146737 0
    outer loop
      vertex 47.452 -0.487725 4.5
      vertex 47.488 -0.245043 6
      vertex 47.488 -0.245043 4.5
    endloop
  endfacet
  facet normal -0.989176 0.146737 0
    outer loop
      vertex 47.488 -0.245043 6
      vertex 47.452 -0.487725 4.5
      vertex 47.452 -0.487725 6
    endloop
  endfacet
  facet normal -0.941611 0.336702 0
    outer loop
      vertex 47.3097 -0.956708 4.5
      vertex 47.3923 -0.725711 6
      vertex 47.3923 -0.725711 4.5
    endloop
  endfacet
  facet normal -0.941611 0.336702 0
    outer loop
      vertex 47.3923 -0.725711 6
      vertex 47.3097 -0.956708 4.5
      vertex 47.3097 -0.956708 6
    endloop
  endfacet
  facet normal 0.998803 0.0489124 0
    outer loop
      vertex 42.512 -0.245043 6
      vertex 42.5 0 4.5
      vertex 42.5 0 6
    endloop
  endfacet
  facet normal 0.998803 0.0489124 0
    outer loop
      vertex 42.5 0 4.5
      vertex 42.512 -0.245043 6
      vertex 42.512 -0.245043 4.5
    endloop
  endfacet
  facet normal 0.903982 -0.427572 0
    outer loop
      vertex 42.6903 0.956708 6
      vertex 42.7952 1.17849 4.5
      vertex 42.7952 1.17849 6
    endloop
  endfacet
  facet normal 0.903982 -0.427572 0
    outer loop
      vertex 42.7952 1.17849 4.5
      vertex 42.6903 0.956708 6
      vertex 42.6903 0.956708 4.5
    endloop
  endfacet
  facet normal -0.671528 0.740979 0
    outer loop
      vertex 46.7678 -1.76777 4.5
      vertex 46.586 -1.93253 6
      vertex 46.7678 -1.76777 6
    endloop
  endfacet
  facet normal -0.671528 0.740979 0
    outer loop
      vertex 46.586 -1.93253 6
      vertex 46.7678 -1.76777 4.5
      vertex 46.586 -1.93253 4.5
    endloop
  endfacet
  facet normal -0.857788 -0.514004 0
    outer loop
      vertex 47.2048 1.17849 4.5
      vertex 47.0787 1.38893 6
      vertex 47.0787 1.38893 4.5
    endloop
  endfacet
  facet normal -0.857788 -0.514004 0
    outer loop
      vertex 47.0787 1.38893 6
      vertex 47.2048 1.17849 4.5
      vertex 47.2048 1.17849 6
    endloop
  endfacet
  facet normal -0.903982 0.427572 0
    outer loop
      vertex 47.2048 -1.17849 4.5
      vertex 47.3097 -0.956708 6
      vertex 47.3097 -0.956708 4.5
    endloop
  endfacet
  facet normal -0.903982 0.427572 0
    outer loop
      vertex 47.3097 -0.956708 6
      vertex 47.2048 -1.17849 4.5
      vertex 47.2048 -1.17849 6
    endloop
  endfacet
  facet normal 0.803095 -0.595851 0
    outer loop
      vertex 42.9213 1.38893 6
      vertex 43.0675 1.58598 4.5
      vertex 43.0675 1.58598 6
    endloop
  endfacet
  facet normal 0.803095 -0.595851 0
    outer loop
      vertex 43.0675 1.58598 4.5
      vertex 42.9213 1.38893 6
      vertex 42.9213 1.38893 4.5
    endloop
  endfacet
  facet normal 0.998803 -0.0489124 0
    outer loop
      vertex 42.5 0 6
      vertex 42.512 0.245043 4.5
      vertex 42.512 0.245043 6
    endloop
  endfacet
  facet normal 0.998803 -0.0489124 0
    outer loop
      vertex 42.512 0.245043 4.5
      vertex 42.5 0 6
      vertex 42.5 0 4.5
    endloop
  endfacet
  facet normal -0.857788 0.514004 0
    outer loop
      vertex 47.0787 -1.38893 4.5
      vertex 47.2048 -1.17849 6
      vertex 47.2048 -1.17849 4.5
    endloop
  endfacet
  facet normal -0.857788 0.514004 0
    outer loop
      vertex 47.2048 -1.17849 6
      vertex 47.0787 -1.38893 4.5
      vertex 47.0787 -1.38893 6
    endloop
  endfacet
  facet normal 0.989176 0.146737 0
    outer loop
      vertex 42.548 -0.487725 6
      vertex 42.512 -0.245043 4.5
      vertex 42.512 -0.245043 6
    endloop
  endfacet
  facet normal 0.989176 0.146737 0
    outer loop
      vertex 42.512 -0.245043 4.5
      vertex 42.548 -0.487725 6
      vertex 42.548 -0.487725 4.5
    endloop
  endfacet
  facet normal -0.146726 -0.989177 0
    outer loop
      vertex 45.245 2.48796 4.5
      vertex 45.4877 2.45196 6
      vertex 45.245 2.48796 6
    endloop
  endfacet
  facet normal -0.146726 -0.989177 -0
    outer loop
      vertex 45.4877 2.45196 6
      vertex 45.245 2.48796 4.5
      vertex 45.4877 2.45196 4.5
    endloop
  endfacet
  facet normal -0.514166 0.857691 0
    outer loop
      vertex 46.3889 -2.07867 4.5
      vertex 46.1785 -2.2048 6
      vertex 46.3889 -2.07867 6
    endloop
  endfacet
  facet normal -0.514166 0.857691 0
    outer loop
      vertex 46.1785 -2.2048 6
      vertex 46.3889 -2.07867 4.5
      vertex 46.1785 -2.2048 4.5
    endloop
  endfacet
  facet normal 0.427543 -0.903995 0
    outer loop
      vertex 43.8215 2.2048 4.5
      vertex 44.0433 2.3097 6
      vertex 43.8215 2.2048 6
    endloop
  endfacet
  facet normal 0.427543 -0.903995 0
    outer loop
      vertex 44.0433 2.3097 6
      vertex 43.8215 2.2048 4.5
      vertex 44.0433 2.3097 4.5
    endloop
  endfacet
  facet normal -0.0490836 0.998795 0
    outer loop
      vertex 45.245 -2.48796 4.5
      vertex 45 -2.5 6
      vertex 45.245 -2.48796 6
    endloop
  endfacet
  facet normal -0.0490836 0.998795 0
    outer loop
      vertex 45 -2.5 6
      vertex 45.245 -2.48796 4.5
      vertex 45 -2.5 4.5
    endloop
  endfacet
  facet normal -0.595596 0.803284 0
    outer loop
      vertex 46.586 -1.93253 4.5
      vertex 46.3889 -2.07867 6
      vertex 46.586 -1.93253 6
    endloop
  endfacet
  facet normal -0.595596 0.803284 0
    outer loop
      vertex 46.3889 -2.07867 6
      vertex 46.586 -1.93253 4.5
      vertex 46.3889 -2.07867 4.5
    endloop
  endfacet
  facet normal 0.857788 0.514004 0
    outer loop
      vertex 42.9213 -1.38893 6
      vertex 42.7952 -1.17849 4.5
      vertex 42.7952 -1.17849 6
    endloop
  endfacet
  facet normal 0.857788 0.514004 0
    outer loop
      vertex 42.7952 -1.17849 4.5
      vertex 42.9213 -1.38893 6
      vertex 42.9213 -1.38893 4.5
    endloop
  endfacet
  facet normal -0.969947 0.243316 0
    outer loop
      vertex 47.3923 -0.725711 4.5
      vertex 47.452 -0.487725 6
      vertex 47.452 -0.487725 4.5
    endloop
  endfacet
  facet normal -0.969947 0.243316 0
    outer loop
      vertex 47.452 -0.487725 6
      vertex 47.3923 -0.725711 4.5
      vertex 47.3923 -0.725711 6
    endloop
  endfacet
  facet normal 0.969947 -0.243316 0
    outer loop
      vertex 42.548 0.487725 6
      vertex 42.6077 0.725711 4.5
      vertex 42.6077 0.725711 6
    endloop
  endfacet
  facet normal 0.969947 -0.243316 0
    outer loop
      vertex 42.6077 0.725711 4.5
      vertex 42.548 0.487725 6
      vertex 42.548 0.487725 4.5
    endloop
  endfacet
  facet normal 0.857788 -0.514004 0
    outer loop
      vertex 42.7952 1.17849 6
      vertex 42.9213 1.38893 4.5
      vertex 42.9213 1.38893 6
    endloop
  endfacet
  facet normal 0.857788 -0.514004 0
    outer loop
      vertex 42.9213 1.38893 4.5
      vertex 42.7952 1.17849 6
      vertex 42.7952 1.17849 4.5
    endloop
  endfacet
  facet normal -0.242958 0.970037 0
    outer loop
      vertex 45.7257 -2.39235 4.5
      vertex 45.4877 -2.45196 6
      vertex 45.7257 -2.39235 6
    endloop
  endfacet
  facet normal -0.242958 0.970037 0
    outer loop
      vertex 45.4877 -2.45196 6
      vertex 45.7257 -2.39235 4.5
      vertex 45.4877 -2.45196 4.5
    endloop
  endfacet
  facet normal 0 0 1
    outer loop
      vertex 47.488 0.245043 4.5
      vertex 47.488 -0.245043 4.5
      vertex 47.5 0 4.5
    endloop
  endfacet
  facet normal 0 0 1
    outer loop
      vertex 47.452 0.487725 4.5
      vertex 47.488 -0.245043 4.5
      vertex 47.488 0.245043 4.5
    endloop
  endfacet
  facet normal 0 0 1
    outer loop
      vertex 47.452 0.487725 4.5
      vertex 47.452 -0.487725 4.5
      vertex 47.488 -0.245043 4.5
    endloop
  endfacet
  facet normal 0 0 1
    outer loop
      vertex 47.3923 0.725711 4.5
      vertex 47.452 -0.487725 4.5
      vertex 47.452 0.487725 4.5
    endloop
  endfacet
  facet normal 0 0 1
    outer loop
      vertex 47.3923 0.725711 4.5
      vertex 47.3923 -0.725711 4.5
      vertex 47.452 -0.487725 4.5
    endloop
  endfacet
  facet normal 0 0 1
    outer loop
      vertex 47.3097 0.956708 4.5
      vertex 47.3923 -0.725711 4.5
      vertex 47.3923 0.725711 4.5
    endloop
  endfacet
  facet normal 0 0 1
    outer loop
      vertex 47.3097 0.956708 4.5
      vertex 47.3097 -0.956708 4.5
      vertex 47.3923 -0.725711 4.5
    endloop
  endfacet
  facet normal 0 0 1
    outer loop
      vertex 47.2048 1.17849 4.5
      vertex 47.3097 -0.956708 4.5
      vertex 47.3097 0.956708 4.5
    endloop
  endfacet
  facet normal 0 0 1
    outer loop
      vertex 47.2048 1.17849 4.5
      vertex 47.2048 -1.17849 4.5
      vertex 47.3097 -0.956708 4.5
    endloop
  endfacet
  facet normal 0 0 1
    outer loop
      vertex 47.0787 1.38893 4.5
      vertex 47.2048 -1.17849 4.5
      vertex 47.2048 1.17849 4.5
    endloop
  endfacet
  facet normal 0 0 1
    outer loop
      vertex 47.0787 1.38893 4.5
      vertex 47.0787 -1.38893 4.5
      vertex 47.2048 -1.17849 4.5
    endloop
  endfacet
  facet normal 0 0 1
    outer loop
      vertex 46.9325 1.58598 4.5
      vertex 47.0787 -1.38893 4.5
      vertex 47.0787 1.38893 4.5
    endloop
  endfacet
  facet normal 0 0 1
    outer loop
      vertex 46.9325 1.58598 4.5
      vertex 46.9325 -1.58598 4.5
      vertex 47.0787 -1.38893 4.5
    endloop
  endfacet
  facet normal 0 0 1
    outer loop
      vertex 46.7678 1.76777 4.5
      vertex 46.9325 -1.58598 4.5
      vertex 46.9325 1.58598 4.5
    endloop
  endfacet
  facet normal 0 0 1
    outer loop
      vertex 46.7678 1.76777 4.5
      vertex 46.7678 -1.76777 4.5
      vertex 46.9325 -1.58598 4.5
    endloop
  endfacet
  facet normal 0 0 1
    outer loop
      vertex 46.586 1.93253 4.5
      vertex 46.7678 -1.76777 4.5
      vertex 46.7678 1.76777 4.5
    endloop
  endfacet
  facet normal 0 0 1
    outer loop
      vertex 46.586 1.93253 4.5
      vertex 46.586 -1.93253 4.5
      vertex 46.7678 -1.76777 4.5
    endloop
  endfacet
  facet normal 0 0 1
    outer loop
      vertex 46.3889 2.07867 4.5
      vertex 46.586 -1.93253 4.5
      vertex 46.586 1.93253 4.5
    endloop
  endfacet
  facet normal 0 0 1
    outer loop
      vertex 46.3889 2.07867 4.5
      vertex 46.3889 -2.07867 4.5
      vertex 46.586 -1.93253 4.5
    endloop
  endfacet
  facet normal 0 0 1
    outer loop
      vertex 46.1785 2.2048 4.5
      vertex 46.3889 -2.07867 4.5
      vertex 46.3889 2.07867 4.5
    endloop
  endfacet
  facet normal 0 0 1
    outer loop
      vertex 46.1785 2.2048 4.5
      vertex 46.1785 -2.2048 4.5
      vertex 46.3889 -2.07867 4.5
    endloop
  endfacet
  facet normal 0 0 1
    outer loop
      vertex 45.9567 2.3097 4.5
      vertex 46.1785 -2.2048 4.5
      vertex 46.1785 2.2048 4.5
    endloop
  endfacet
  facet normal 0 0 1
    outer loop
      vertex 45.9567 2.3097 4.5
      vertex 45.9567 -2.3097 4.5
      vertex 46.1785 -2.2048 4.5
    endloop
  endfacet
  facet normal 0 0 1
    outer loop
      vertex 45.7257 2.39235 4.5
      vertex 45.9567 -2.3097 4.5
      vertex 45.9567 2.3097 4.5
    endloop
  endfacet
  facet normal 0 0 1
    outer loop
      vertex 45.7257 2.39235 4.5
      vertex 45.7257 -2.39235 4.5
      vertex 45.9567 -2.3097 4.5
    endloop
  endfacet
  facet normal 0 0 1
    outer loop
      vertex 45.4877 2.45196 4.5
      vertex 45.7257 -2.39235 4.5
      vertex 45.7257 2.39235 4.5
    endloop
  endfacet
  facet normal 0 0 1
    outer loop
      vertex 45.4877 2.45196 4.5
      vertex 45.4877 -2.45196 4.5
      vertex 45.7257 -2.39235 4.5
    endloop
  endfacet
  facet normal 0 0 1
    outer loop
      vertex 45.245 2.48796 4.5
      vertex 45.4877 -2.45196 4.5
      vertex 45.4877 2.45196 4.5
    endloop
  endfacet
  facet normal 0 0 1
    outer loop
      vertex 45.245 2.48796 4.5
      vertex 45.245 -2.48796 4.5
      vertex 45.4877 -2.45196 4.5
    endloop
  endfacet
  facet normal 0 0 1
    outer loop
      vertex 45 2.5 4.5
      vertex 45.245 -2.48796 4.5
      vertex 45.245 2.48796 4.5
    endloop
  endfacet
  facet normal 0 0 1
    outer loop
      vertex 45 2.5 4.5
      vertex 45 -2.5 4.5
      vertex 45.245 -2.48796 4.5
    endloop
  endfacet
  facet normal -0 0 1
    outer loop
      vertex 44.755 2.48796 4.5
      vertex 45 -2.5 4.5
      vertex 45 2.5 4.5
    endloop
  endfacet
  facet normal 0 0 1
    outer loop
      vertex 44.755 2.48796 4.5
      vertex 44.755 -2.48796 4.5
      vertex 45 -2.5 4.5
    endloop
  endfacet
  facet normal -0 0 1
    outer loop
      vertex 44.5123 2.45196 4.5
      vertex 44.755 -2.48796 4.5
      vertex 44.755 2.48796 4.5
    endloop
  endfacet
  facet normal 0 0 1
    outer loop
      vertex 44.5123 2.45196 4.5
      vertex 44.5123 -2.45196 4.5
      vertex 44.755 -2.48796 4.5
    endloop
  endfacet
  facet normal -0 0 1
    outer loop
      vertex 44.2743 2.39235 4.5
      vertex 44.5123 -2.45196 4.5
      vertex 44.5123 2.45196 4.5
    endloop
  endfacet
  facet normal 0 0 1
    outer loop
      vertex 44.2743 2.39235 4.5
      vertex 44.2743 -2.39235 4.5
      vertex 44.5123 -2.45196 4.5
    endloop
  endfacet
  facet normal -0 0 1
    outer loop
      vertex 44.0433 2.3097 4.5
      vertex 44.2743 -2.39235 4.5
      vertex 44.2743 2.39235 4.5
    endloop
  endfacet
  facet normal 0 0 1
    outer loop
      vertex 44.0433 2.3097 4.5
      vertex 44.0433 -2.3097 4.5
      vertex 44.2743 -2.39235 4.5
    endloop
  endfacet
  facet normal -0 0 1
    outer loop
      vertex 43.8215 2.2048 4.5
      vertex 44.0433 -2.3097 4.5
      vertex 44.0433 2.3097 4.5
    endloop
  endfacet
  facet normal 0 0 1
    outer loop
      vertex 43.8215 2.2048 4.5
      vertex 43.8215 -2.2048 4.5
      vertex 44.0433 -2.3097 4.5
    endloop
  endfacet
  facet normal -0 0 1
    outer loop
      vertex 43.6111 2.07867 4.5
      vertex 43.8215 -2.2048 4.5
      vertex 43.8215 2.2048 4.5
    endloop
  endfacet
  facet normal 0 0 1
    outer loop
      vertex 43.6111 2.07867 4.5
      vertex 43.6111 -2.07867 4.5
      vertex 43.8215 -2.2048 4.5
    endloop
  endfacet
  facet normal -0 0 1
    outer loop
      vertex 43.414 1.93253 4.5
      vertex 43.6111 -2.07867 4.5
      vertex 43.6111 2.07867 4.5
    endloop
  endfacet
  facet normal 0 0 1
    outer loop
      vertex 43.414 1.93253 4.5
      vertex 43.414 -1.93253 4.5
      vertex 43.6111 -2.07867 4.5
    endloop
  endfacet
  facet normal -0 0 1
    outer loop
      vertex 43.2322 1.76777 4.5
      vertex 43.414 -1.93253 4.5
      vertex 43.414 1.93253 4.5
    endloop
  endfacet
  facet normal 0 0 1
    outer loop
      vertex 43.2322 1.76777 4.5
      vertex 43.2322 -1.76777 4.5
      vertex 43.414 -1.93253 4.5
    endloop
  endfacet
  facet normal -0 0 1
    outer loop
      vertex 43.0675 1.58598 4.5
      vertex 43.2322 -1.76777 4.5
      vertex 43.2322 1.76777 4.5
    endloop
  endfacet
  facet normal 0 0 1
    outer loop
      vertex 43.0675 1.58598 4.5
      vertex 43.0675 -1.58598 4.5
      vertex 43.2322 -1.76777 4.5
    endloop
  endfacet
  facet normal -0 0 1
    outer loop
      vertex 42.9213 1.38893 4.5
      vertex 43.0675 -1.58598 4.5
      vertex 43.0675 1.58598 4.5
    endloop
  endfacet
  facet normal 0 0 1
    outer loop
      vertex 42.9213 1.38893 4.5
      vertex 42.9213 -1.38893 4.5
      vertex 43.0675 -1.58598 4.5
    endloop
  endfacet
  facet normal -0 0 1
    outer loop
      vertex 42.7952 1.17849 4.5
      vertex 42.9213 -1.38893 4.5
      vertex 42.9213 1.38893 4.5
    endloop
  endfacet
  facet normal 0 0 1
    outer loop
      vertex 42.7952 1.17849 4.5
      vertex 42.7952 -1.17849 4.5
      vertex 42.9213 -1.38893 4.5
    endloop
  endfacet
  facet normal -0 0 1
    outer loop
      vertex 42.6903 0.956708 4.5
      vertex 42.7952 -1.17849 4.5
      vertex 42.7952 1.17849 4.5
    endloop
  endfacet
  facet normal 0 0 1
    outer loop
      vertex 42.6903 0.956708 4.5
      vertex 42.6903 -0.956708 4.5
      vertex 42.7952 -1.17849 4.5
    endloop
  endfacet
  facet normal -0 0 1
    outer loop
      vertex 42.6077 0.725711 4.5
      vertex 42.6903 -0.956708 4.5
      vertex 42.6903 0.956708 4.5
    endloop
  endfacet
  facet normal 0 0 1
    outer loop
      vertex 42.6077 0.725711 4.5
      vertex 42.6077 -0.725711 4.5
      vertex 42.6903 -0.956708 4.5
    endloop
  endfacet
  facet normal -0 0 1
    outer loop
      vertex 42.548 0.487725 4.5
      vertex 42.6077 -0.725711 4.5
      vertex 42.6077 0.725711 4.5
    endloop
  endfacet
  facet normal 0 0 1
    outer loop
      vertex 42.548 0.487725 4.5
      vertex 42.548 -0.487725 4.5
      vertex 42.6077 -0.725711 4.5
    endloop
  endfacet
  facet normal -0 0 1
    outer loop
      vertex 42.512 0.245043 4.5
      vertex 42.548 -0.487725 4.5
      vertex 42.548 0.487725 4.5
    endloop
  endfacet
  facet normal 0 0 1
    outer loop
      vertex 42.512 0.245043 4.5
      vertex 42.512 -0.245043 4.5
      vertex 42.548 -0.487725 4.5
    endloop
  endfacet
  facet normal 0 -0 1
    outer loop
      vertex 42.512 -0.245043 4.5
      vertex 42.512 0.245043 4.5
      vertex 42.5 0 4.5
    endloop
  endfacet
  facet normal 0.903982 0.427572 0
    outer loop
      vertex 42.7952 -1.17849 6
      vertex 42.6903 -0.956708 4.5
      vertex 42.6903 -0.956708 6
    endloop
  endfacet
  facet normal 0.903982 0.427572 0
    outer loop
      vertex 42.6903 -0.956708 4.5
      vertex 42.7952 -1.17849 6
      vertex 42.7952 -1.17849 4.5
    endloop
  endfacet
  facet normal 0.146726 0.989177 -0
    outer loop
      vertex 44.755 -2.48796 4.5
      vertex 44.5123 -2.45196 6
      vertex 44.755 -2.48796 6
    endloop
  endfacet
  facet normal 0.146726 0.989177 0
    outer loop
      vertex 44.5123 -2.45196 6
      vertex 44.755 -2.48796 4.5
      vertex 44.5123 -2.45196 4.5
    endloop
  endfacet
  facet normal 0.514166 -0.857691 0
    outer loop
      vertex 43.6111 2.07867 4.5
      vertex 43.8215 2.2048 6
      vertex 43.6111 2.07867 6
    endloop
  endfacet
  facet normal 0.514166 -0.857691 0
    outer loop
      vertex 43.8215 2.2048 6
      vertex 43.6111 2.07867 4.5
      vertex 43.8215 2.2048 4.5
    endloop
  endfacet
  facet normal 0.595596 0.803284 -0
    outer loop
      vertex 43.6111 -2.07867 4.5
      vertex 43.414 -1.93253 6
      vertex 43.6111 -2.07867 6
    endloop
  endfacet
  facet normal 0.595596 0.803284 0
    outer loop
      vertex 43.414 -1.93253 6
      vertex 43.6111 -2.07867 4.5
      vertex 43.414 -1.93253 4.5
    endloop
  endfacet
  facet normal 0.941611 -0.336702 0
    outer loop
      vertex 42.6077 0.725711 6
      vertex 42.6903 0.956708 4.5
      vertex 42.6903 0.956708 6
    endloop
  endfacet
  facet normal 0.941611 -0.336702 0
    outer loop
      vertex 42.6903 0.956708 4.5
      vertex 42.6077 0.725711 6
      vertex 42.6077 0.725711 4.5
    endloop
  endfacet
  facet normal 0.514166 0.857691 -0
    outer loop
      vertex 43.8215 -2.2048 4.5
      vertex 43.6111 -2.07867 6
      vertex 43.8215 -2.2048 6
    endloop
  endfacet
  facet normal 0.514166 0.857691 0
    outer loop
      vertex 43.6111 -2.07867 6
      vertex 43.8215 -2.2048 4.5
      vertex 43.6111 -2.07867 4.5
    endloop
  endfacet
endsolid OpenSCAD_Model
