solid OpenSCAD_Model
  facet normal -0.525772 0.850626 0
    outer loop
      vertex 0.0640574 0.375 0.0133924
      vertex 0.0640574 0.375 0
      vertex 0.0562496 0.370174 0.0133924
    endloop
  endfacet
  facet normal -0.525732 0.85065 0
    outer loop
      vertex 0.0562496 0.370174 0.0133924
      vertex -0.167705 0.231762 0.227699
      vertex 0.0562496 0.370174 0.227699
    endloop
  endfacet
  facet normal -0.525734 0.850649 3.06089e-05
    outer loop
      vertex -0.167705 0.231762 0
      vertex 0.0562496 0.370174 0.0133924
      vertex 0.0640574 0.375 0
    endloop
  endfacet
  facet normal -0.525732 0.85065 0
    outer loop
      vertex 0.0562496 0.370174 0.0133924
      vertex -0.167705 0.231762 0
      vertex -0.167705 0.231762 0.227699
    endloop
  endfacet
  facet normal 0 0 -1
    outer loop
      vertex -0.167705 -0.231762 0
      vertex 0.207294 0 0
      vertex 0.0640574 -0.375 0
    endloop
  endfacet
  facet normal 0 0 -1
    outer loop
      vertex -0.167705 0.231762 0
      vertex 0.207294 0 0
      vertex -0.167705 -0.231762 0
    endloop
  endfacet
  facet normal 0 0 -1
    outer loop
      vertex 0.207294 0 0
      vertex -0.167705 0.231762 0
      vertex 0.0640574 0.375 0
    endloop
  endfacet
  facet normal 0.934175 0.356816 0
    outer loop
      vertex 0.164324 0.112499 0.227699
      vertex 0.207294 0 0.227699
      vertex 0.164324 0.112499 0.0133924
    endloop
  endfacet
  facet normal 0.934172 0.356823 0
    outer loop
      vertex 0.164324 0.112499 0.0133924
      vertex 0.0640574 0.375 0
      vertex 0.0640574 0.375 0.0133924
    endloop
  endfacet
  facet normal 0.934173 0.356821 -4.17154e-05
    outer loop
      vertex 0.164324 0.112499 0.0133924
      vertex 0.207294 0 0
      vertex 0.0640574 0.375 0
    endloop
  endfacet
  facet normal 0.934175 0.356816 -0
    outer loop
      vertex 0.207294 0 0
      vertex 0.164324 0.112499 0.0133924
      vertex 0.207294 0 0.227699
    endloop
  endfacet
  facet normal 0.934173 -0.356821 0
    outer loop
      vertex 0.0640574 -0.375 0.227699
      vertex 0.207294 0 0
      vertex 0.207294 0 0.227699
    endloop
  endfacet
  facet normal 0.934173 -0.356821 0
    outer loop
      vertex 0.207294 0 0
      vertex 0.0640574 -0.375 0.227699
      vertex 0.0640574 -0.375 0
    endloop
  endfacet
  facet normal -1 0 0
    outer loop
      vertex -0.167705 -0.231762 0
      vertex -0.167705 0.231762 0.227699
      vertex -0.167705 0.231762 0
    endloop
  endfacet
  facet normal -1 -0 0
    outer loop
      vertex -0.167705 0.231762 0.227699
      vertex -0.167705 -0.231762 0
      vertex -0.167705 -0.231762 0.227699
    endloop
  endfacet
  facet normal -0.525734 -0.850649 0
    outer loop
      vertex -0.167705 -0.231762 0
      vertex 0.0640574 -0.375 0.227699
      vertex -0.167705 -0.231762 0.227699
    endloop
  endfacet
  facet normal -0.525734 -0.850649 -0
    outer loop
      vertex 0.0640574 -0.375 0.227699
      vertex -0.167705 -0.231762 0
      vertex 0.0640574 -0.375 0
    endloop
  endfacet
  facet normal 0 0 1
    outer loop
      vertex 0.0562496 0.370174 0.227699
      vertex -0.167705 0.231762 0.227699
      vertex 0.0562496 0.112499 0.227699
    endloop
  endfacet
  facet normal -0 0 1
    outer loop
      vertex 0.0562496 0.112499 0.227699
      vertex 0.207294 0 0.227699
      vertex 0.164324 0.112499 0.227699
    endloop
  endfacet
  facet normal 0 0 1
    outer loop
      vertex -0.167705 -0.231762 0.227699
      vertex 0.207294 0 0.227699
      vertex 0.0562496 0.112499 0.227699
    endloop
  endfacet
  facet normal 0 0 1
    outer loop
      vertex -0.167705 -0.231762 0.227699
      vertex 0.0562496 0.112499 0.227699
      vertex -0.167705 0.231762 0.227699
    endloop
  endfacet
  facet normal 0 0 1
    outer loop
      vertex 0.207294 0 0.227699
      vertex -0.167705 -0.231762 0.227699
      vertex 0.0640574 -0.375 0.227699
    endloop
  endfacet
  facet normal 1 -0 0
    outer loop
      vertex 0.0562496 0.112499 0.227699
      vertex 0.0562496 0.370174 0.0133924
      vertex 0.0562496 0.370174 0.227699
    endloop
  endfacet
  facet normal 1 0 0
    outer loop
      vertex 0.0562496 0.370174 0.0133924
      vertex 0.0562496 0.112499 0.227699
      vertex 0.0562496 0.112499 0.0133924
    endloop
  endfacet
  facet normal 0 1 -0
    outer loop
      vertex 0.164324 0.112499 0.0133924
      vertex 0.0562496 0.112499 0.227699
      vertex 0.164324 0.112499 0.227699
    endloop
  endfacet
  facet normal 0 1 0
    outer loop
      vertex 0.0562496 0.112499 0.227699
      vertex 0.164324 0.112499 0.0133924
      vertex 0.0562496 0.112499 0.0133924
    endloop
  endfacet
  facet normal -1 0 0
    outer loop
      vertex 0.308 0.308 0.227699
      vertex 0.308 0.441929 0.441999
      vertex 0.308 0.441929 0.227699
    endloop
  endfacet
  facet normal -1 -0 0
    outer loop
      vertex 0.308 0.441929 0.441999
      vertex 0.308 0.308 0.227699
      vertex 0.308 0.308 0.441999
    endloop
  endfacet
  facet normal 0 0 1
    outer loop
      vertex 0.374964 0.441929 0.441999
      vertex 0.366963 0.433928 0.441999
      vertex 0.374964 0.308 0.441999
    endloop
  endfacet
  facet normal 0 0 1
    outer loop
      vertex 0.374964 0.441929 0.441999
      vertex 0.316 0.433928 0.441999
      vertex 0.366963 0.433928 0.441999
    endloop
  endfacet
  facet normal 0 0 1
    outer loop
      vertex 0.316 0.433928 0.441999
      vertex 0.308 0.441929 0.441999
      vertex 0.316 0.316 0.441999
    endloop
  endfacet
  facet normal -0 0 1
    outer loop
      vertex 0.308 0.441929 0.441999
      vertex 0.316 0.433928 0.441999
      vertex 0.374964 0.441929 0.441999
    endloop
  endfacet
  facet normal -0 0 1
    outer loop
      vertex 0.366963 0.316 0.441999
      vertex 0.374964 0.308 0.441999
      vertex 0.366963 0.433928 0.441999
    endloop
  endfacet
  facet normal -0 0 1
    outer loop
      vertex 0.316 0.316 0.441999
      vertex 0.374964 0.308 0.441999
      vertex 0.366963 0.316 0.441999
    endloop
  endfacet
  facet normal 0 0 1
    outer loop
      vertex 0.316 0.316 0.441999
      vertex 0.308 0.308 0.441999
      vertex 0.374964 0.308 0.441999
    endloop
  endfacet
  facet normal 0 0 1
    outer loop
      vertex 0.308 0.308 0.441999
      vertex 0.316 0.316 0.441999
      vertex 0.308 0.441929 0.441999
    endloop
  endfacet
  facet normal 1 -0 0
    outer loop
      vertex 0.374964 0.308 0.441999
      vertex 0.374964 0.441929 0.227699
      vertex 0.374964 0.441929 0.441999
    endloop
  endfacet
  facet normal 1 0 0
    outer loop
      vertex 0.374964 0.441929 0.227699
      vertex 0.374964 0.308 0.441999
      vertex 0.374964 0.308 0.227699
    endloop
  endfacet
  facet normal 0 0 -1
    outer loop
      vertex 0.374964 0.308 0.227699
      vertex 0.366963 0.316 0.227699
      vertex 0.374964 0.441929 0.227699
    endloop
  endfacet
  facet normal 0 0 -1
    outer loop
      vertex 0.374964 0.308 0.227699
      vertex 0.316 0.316 0.227699
      vertex 0.366963 0.316 0.227699
    endloop
  endfacet
  facet normal -0 0 -1
    outer loop
      vertex 0.316 0.316 0.227699
      vertex 0.308 0.308 0.227699
      vertex 0.316 0.433928 0.227699
    endloop
  endfacet
  facet normal 0 0 -1
    outer loop
      vertex 0.308 0.308 0.227699
      vertex 0.316 0.316 0.227699
      vertex 0.374964 0.308 0.227699
    endloop
  endfacet
  facet normal 0 0 -1
    outer loop
      vertex 0.366963 0.433928 0.227699
      vertex 0.374964 0.441929 0.227699
      vertex 0.366963 0.316 0.227699
    endloop
  endfacet
  facet normal 0 0 -1
    outer loop
      vertex 0.316 0.433928 0.227699
      vertex 0.374964 0.441929 0.227699
      vertex 0.366963 0.433928 0.227699
    endloop
  endfacet
  facet normal 0 0 -1
    outer loop
      vertex 0.316 0.433928 0.227699
      vertex 0.308 0.441929 0.227699
      vertex 0.374964 0.441929 0.227699
    endloop
  endfacet
  facet normal 0 0 -1
    outer loop
      vertex 0.308 0.441929 0.227699
      vertex 0.316 0.433928 0.227699
      vertex 0.308 0.308 0.227699
    endloop
  endfacet
  facet normal 0 -1 0
    outer loop
      vertex 0.308 0.308 0.227699
      vertex 0.374964 0.308 0.441999
      vertex 0.308 0.308 0.441999
    endloop
  endfacet
  facet normal 0 -1 -0
    outer loop
      vertex 0.374964 0.308 0.441999
      vertex 0.308 0.308 0.227699
      vertex 0.374964 0.308 0.227699
    endloop
  endfacet
  facet normal 0 1 -0
    outer loop
      vertex 0.374964 0.441929 0.227699
      vertex 0.308 0.441929 0.441999
      vertex 0.374964 0.441929 0.441999
    endloop
  endfacet
  facet normal 0 1 0
    outer loop
      vertex 0.308 0.441929 0.441999
      vertex 0.374964 0.441929 0.227699
      vertex 0.308 0.441929 0.227699
    endloop
  endfacet
  facet normal 1 -0 0
    outer loop
      vertex 0.316 0.316 0.441999
      vertex 0.316 0.433928 0.227699
      vertex 0.316 0.433928 0.441999
    endloop
  endfacet
  facet normal 1 0 0
    outer loop
      vertex 0.316 0.433928 0.227699
      vertex 0.316 0.316 0.441999
      vertex 0.316 0.316 0.227699
    endloop
  endfacet
  facet normal -1 0 0
    outer loop
      vertex 0.366963 0.316 0.227699
      vertex 0.366963 0.433928 0.441999
      vertex 0.366963 0.433928 0.227699
    endloop
  endfacet
  facet normal -1 -0 0
    outer loop
      vertex 0.366963 0.433928 0.441999
      vertex 0.366963 0.316 0.227699
      vertex 0.366963 0.316 0.441999
    endloop
  endfacet
  facet normal 0 -1 0
    outer loop
      vertex 0.316 0.433928 0.227699
      vertex 0.366963 0.433928 0.441999
      vertex 0.316 0.433928 0.441999
    endloop
  endfacet
  facet normal 0 -1 -0
    outer loop
      vertex 0.366963 0.433928 0.441999
      vertex 0.316 0.433928 0.227699
      vertex 0.366963 0.433928 0.227699
    endloop
  endfacet
  facet normal 0 1 -0
    outer loop
      vertex 0.366963 0.316 0.227699
      vertex 0.316 0.316 0.441999
      vertex 0.366963 0.316 0.441999
    endloop
  endfacet
  facet normal 0 1 0
    outer loop
      vertex 0.316 0.316 0.441999
      vertex 0.366963 0.316 0.227699
      vertex 0.316 0.316 0.227699
    endloop
  endfacet
  facet normal -0 0 1
    outer loop
      vertex 0.0562496 0.370174 0.0133924
      vertex 0.164324 0.112499 0.0133924
      vertex 0.0640574 0.375 0.0133924
    endloop
  endfacet
  facet normal 0 0 1
    outer loop
      vertex 0.164324 0.112499 0.0133924
      vertex 0.0562496 0.370174 0.0133924
      vertex 0.0562496 0.112499 0.0133924
    endloop
  endfacet
  facet normal -1 0 0
    outer loop
      vertex 0.308 0.308 -0.227699
      vertex 0.308 0.441929 -0.0133991
      vertex 0.308 0.441929 -0.227699
    endloop
  endfacet
  facet normal -1 -0 0
    outer loop
      vertex 0.308 0.441929 -0.0133991
      vertex 0.308 0.308 -0.227699
      vertex 0.308 0.308 -0.0133991
    endloop
  endfacet
  facet normal -0 0 1
    outer loop
      vertex 0.308 0.441929 -0.0133991
      vertex 0.374964 0.308 -0.0133991
      vertex 0.374964 0.441929 -0.0133991
    endloop
  endfacet
  facet normal 0 0 1
    outer loop
      vertex 0.374964 0.308 -0.0133991
      vertex 0.308 0.441929 -0.0133991
      vertex 0.308 0.308 -0.0133991
    endloop
  endfacet
  facet normal 1 -0 0
    outer loop
      vertex 0.374964 0.308 -0.0133991
      vertex 0.374964 0.441929 -0.227699
      vertex 0.374964 0.441929 -0.0133991
    endloop
  endfacet
  facet normal 1 0 0
    outer loop
      vertex 0.374964 0.441929 -0.227699
      vertex 0.374964 0.308 -0.0133991
      vertex 0.374964 0.308 -0.227699
    endloop
  endfacet
  facet normal 0 1 -0
    outer loop
      vertex 0.374964 0.441929 -0.227699
      vertex 0.308 0.441929 -0.0133991
      vertex 0.374964 0.441929 -0.0133991
    endloop
  endfacet
  facet normal 0 1 0
    outer loop
      vertex 0.308 0.441929 -0.0133991
      vertex 0.374964 0.441929 -0.227699
      vertex 0.308 0.441929 -0.227699
    endloop
  endfacet
  facet normal 0 0 -1
    outer loop
      vertex 0.308 0.308 -0.227699
      vertex 0.374964 0.441929 -0.227699
      vertex 0.374964 0.308 -0.227699
    endloop
  endfacet
  facet normal -0 0 -1
    outer loop
      vertex 0.374964 0.441929 -0.227699
      vertex 0.308 0.308 -0.227699
      vertex 0.308 0.441929 -0.227699
    endloop
  endfacet
  facet normal 0 -1 0
    outer loop
      vertex 0.308 0.308 -0.227699
      vertex 0.374964 0.308 -0.0133991
      vertex 0.308 0.308 -0.0133991
    endloop
  endfacet
  facet normal 0 -1 -0
    outer loop
      vertex 0.374964 0.308 -0.0133991
      vertex 0.308 0.308 -0.227699
      vertex 0.374964 0.308 -0.227699
    endloop
  endfacet
  facet normal 0.998094 0.0617133 0
    outer loop
      vertex 0.368299 0.682799 0.180799
      vertex 0.368247 0.68364 0.167399
      vertex 0.368247 0.68364 0.180799
    endloop
  endfacet
  facet normal 0.998094 0.0617133 0
    outer loop
      vertex 0.368247 0.68364 0.167399
      vertex 0.368299 0.682799 0.180799
      vertex 0.368299 0.682799 0.167399
    endloop
  endfacet
  facet normal -0.997945 0.0640773 0
    outer loop
      vertex 0.354899 0.682799 0.167399
      vertex 0.354953 0.68364 0.180799
      vertex 0.354953 0.68364 0.167399
    endloop
  endfacet
  facet normal -0.997945 0.0640773 0
    outer loop
      vertex 0.354953 0.68364 0.180799
      vertex 0.354899 0.682799 0.167399
      vertex 0.354899 0.682799 0.180799
    endloop
  endfacet
  facet normal 0 1 -0
    outer loop
      vertex 0.36202 0.689487 0.167399
      vertex 0.361178 0.689487 0.180799
      vertex 0.36202 0.689487 0.180799
    endloop
  endfacet
  facet normal 0 1 0
    outer loop
      vertex 0.361178 0.689487 0.180799
      vertex 0.36202 0.689487 0.167399
      vertex 0.361178 0.689487 0.167399
    endloop
  endfacet
  facet normal 0 -1 0
    outer loop
      vertex 0.361178 0.676113 0.167399
      vertex 0.36202 0.676113 0.180799
      vertex 0.361178 0.676113 0.180799
    endloop
  endfacet
  facet normal 0 -1 -0
    outer loop
      vertex 0.36202 0.676113 0.180799
      vertex 0.361178 0.676113 0.167399
      vertex 0.36202 0.676113 0.167399
    endloop
  endfacet
  facet normal 0.684178 0.729315 -0
    outer loop
      vertex 0.366484 0.687386 0.167399
      vertex 0.36587 0.687962 0.180799
      vertex 0.366484 0.687386 0.180799
    endloop
  endfacet
  facet normal 0.684178 0.729315 0
    outer loop
      vertex 0.36587 0.687962 0.180799
      vertex 0.366484 0.687386 0.167399
      vertex 0.36587 0.687962 0.167399
    endloop
  endfacet
  facet normal -0.684771 0.728758 0
    outer loop
      vertex 0.357328 0.687962 0.167399
      vertex 0.356715 0.687386 0.180799
      vertex 0.357328 0.687962 0.180799
    endloop
  endfacet
  facet normal -0.684771 0.728758 0
    outer loop
      vertex 0.356715 0.687386 0.180799
      vertex 0.357328 0.687962 0.167399
      vertex 0.356715 0.687386 0.167399
    endloop
  endfacet
  facet normal -0.368519 0.92962 0
    outer loop
      vertex 0.359529 0.689172 0.167399
      vertex 0.358747 0.688862 0.180799
      vertex 0.359529 0.689172 0.180799
    endloop
  endfacet
  facet normal -0.368519 0.92962 0
    outer loop
      vertex 0.358747 0.688862 0.180799
      vertex 0.359529 0.689172 0.167399
      vertex 0.358747 0.688862 0.167399
    endloop
  endfacet
  facet normal 0.844102 -0.536183 0
    outer loop
      vertex 0.36702 0.678862 0.180799
      vertex 0.367471 0.679572 0.167399
      vertex 0.367471 0.679572 0.180799
    endloop
  endfacet
  facet normal 0.844102 -0.536183 0
    outer loop
      vertex 0.367471 0.679572 0.167399
      vertex 0.36702 0.678862 0.180799
      vertex 0.36702 0.678862 0.167399
    endloop
  endfacet
  facet normal 0.905088 0.425225 0
    outer loop
      vertex 0.367829 0.685266 0.180799
      vertex 0.367471 0.686028 0.167399
      vertex 0.367471 0.686028 0.180799
    endloop
  endfacet
  facet normal 0.905088 0.425225 0
    outer loop
      vertex 0.367471 0.686028 0.167399
      vertex 0.367829 0.685266 0.180799
      vertex 0.367829 0.685266 0.167399
    endloop
  endfacet
  facet normal 0.844102 0.536183 0
    outer loop
      vertex 0.367471 0.686028 0.180799
      vertex 0.36702 0.686738 0.167399
      vertex 0.36702 0.686738 0.180799
    endloop
  endfacet
  facet normal 0.844102 0.536183 0
    outer loop
      vertex 0.36702 0.686738 0.167399
      vertex 0.367471 0.686028 0.180799
      vertex 0.367471 0.686028 0.167399
    endloop
  endfacet
  facet normal 0.368519 0.92962 -0
    outer loop
      vertex 0.364452 0.688862 0.167399
      vertex 0.36367 0.689172 0.180799
      vertex 0.364452 0.688862 0.180799
    endloop
  endfacet
  facet normal 0.368519 0.92962 0
    outer loop
      vertex 0.36367 0.689172 0.180799
      vertex 0.364452 0.688862 0.167399
      vertex 0.36367 0.689172 0.167399
    endloop
  endfacet
  facet normal 0.588525 0.808479 -0
    outer loop
      vertex 0.36587 0.687962 0.167399
      vertex 0.36519 0.688457 0.180799
      vertex 0.36587 0.687962 0.180799
    endloop
  endfacet
  facet normal 0.588525 0.808479 0
    outer loop
      vertex 0.36519 0.688457 0.180799
      vertex 0.36587 0.687962 0.167399
      vertex 0.36519 0.688457 0.167399
    endloop
  endfacet
  facet normal -0.905088 0.425225 0
    outer loop
      vertex 0.35537 0.685266 0.167399
      vertex 0.355728 0.686028 0.180799
      vertex 0.355728 0.686028 0.167399
    endloop
  endfacet
  facet normal -0.905088 0.425225 0
    outer loop
      vertex 0.355728 0.686028 0.180799
      vertex 0.35537 0.685266 0.167399
      vertex 0.35537 0.685266 0.180799
    endloop
  endfacet
  facet normal -0.951147 0.308737 0
    outer loop
      vertex 0.35511 0.684465 0.167399
      vertex 0.35537 0.685266 0.180799
      vertex 0.35537 0.685266 0.167399
    endloop
  endfacet
  facet normal -0.951147 0.308737 0
    outer loop
      vertex 0.35537 0.685266 0.180799
      vertex 0.35511 0.684465 0.167399
      vertex 0.35511 0.684465 0.180799
    endloop
  endfacet
  facet normal -0.481098 0.876667 0
    outer loop
      vertex 0.358747 0.688862 0.167399
      vertex 0.358009 0.688457 0.180799
      vertex 0.358747 0.688862 0.180799
    endloop
  endfacet
  facet normal -0.481098 0.876667 0
    outer loop
      vertex 0.358009 0.688457 0.180799
      vertex 0.358747 0.688862 0.167399
      vertex 0.358009 0.688457 0.167399
    endloop
  endfacet
  facet normal -0.248404 0.968657 0
    outer loop
      vertex 0.360344 0.689381 0.167399
      vertex 0.359529 0.689172 0.180799
      vertex 0.360344 0.689381 0.180799
    endloop
  endfacet
  facet normal -0.248404 0.968657 0
    outer loop
      vertex 0.359529 0.689172 0.180799
      vertex 0.360344 0.689381 0.167399
      vertex 0.359529 0.689172 0.167399
    endloop
  endfacet
  facet normal 0.124766 -0.992186 0
    outer loop
      vertex 0.36202 0.676113 0.167399
      vertex 0.362855 0.676218 0.180799
      vertex 0.36202 0.676113 0.180799
    endloop
  endfacet
  facet normal 0.124766 -0.992186 0
    outer loop
      vertex 0.362855 0.676218 0.180799
      vertex 0.36202 0.676113 0.167399
      vertex 0.362855 0.676218 0.167399
    endloop
  endfacet
  facet normal 0.982234 -0.187658 0
    outer loop
      vertex 0.368089 0.681133 0.180799
      vertex 0.368247 0.68196 0.167399
      vertex 0.368247 0.68196 0.180799
    endloop
  endfacet
  facet normal 0.982234 -0.187658 0
    outer loop
      vertex 0.368247 0.68196 0.167399
      vertex 0.368089 0.681133 0.180799
      vertex 0.368089 0.681133 0.167399
    endloop
  endfacet
  facet normal 0.951147 0.308737 0
    outer loop
      vertex 0.368089 0.684465 0.180799
      vertex 0.367829 0.685266 0.167399
      vertex 0.367829 0.685266 0.180799
    endloop
  endfacet
  facet normal 0.951147 0.308737 0
    outer loop
      vertex 0.367829 0.685266 0.167399
      vertex 0.368089 0.684465 0.180799
      vertex 0.368089 0.684465 0.167399
    endloop
  endfacet
  facet normal 0.982151 0.188097 0
    outer loop
      vertex 0.368247 0.68364 0.180799
      vertex 0.368089 0.684465 0.167399
      vertex 0.368089 0.684465 0.180799
    endloop
  endfacet
  facet normal 0.982151 0.188097 0
    outer loop
      vertex 0.368089 0.684465 0.167399
      vertex 0.368247 0.68364 0.180799
      vertex 0.368247 0.68364 0.167399
    endloop
  endfacet
  facet normal 0.770555 0.637373 0
    outer loop
      vertex 0.36702 0.686738 0.180799
      vertex 0.366484 0.687386 0.167399
      vertex 0.366484 0.687386 0.180799
    endloop
  endfacet
  facet normal 0.770555 0.637373 0
    outer loop
      vertex 0.366484 0.687386 0.167399
      vertex 0.36702 0.686738 0.180799
      vertex 0.36702 0.686738 0.167399
    endloop
  endfacet
  facet normal 0.248404 0.968657 -0
    outer loop
      vertex 0.36367 0.689172 0.167399
      vertex 0.362855 0.689381 0.180799
      vertex 0.36367 0.689172 0.180799
    endloop
  endfacet
  facet normal 0.248404 0.968657 0
    outer loop
      vertex 0.362855 0.689381 0.180799
      vertex 0.36367 0.689172 0.167399
      vertex 0.362855 0.689381 0.167399
    endloop
  endfacet
  facet normal 0.125935 0.992038 -0
    outer loop
      vertex 0.362855 0.689381 0.167399
      vertex 0.36202 0.689487 0.180799
      vertex 0.362855 0.689381 0.180799
    endloop
  endfacet
  facet normal 0.125935 0.992038 0
    outer loop
      vertex 0.36202 0.689487 0.180799
      vertex 0.362855 0.689381 0.167399
      vertex 0.36202 0.689487 0.167399
    endloop
  endfacet
  facet normal 0.481098 0.876667 -0
    outer loop
      vertex 0.36519 0.688457 0.167399
      vertex 0.364452 0.688862 0.180799
      vertex 0.36519 0.688457 0.180799
    endloop
  endfacet
  facet normal 0.481098 0.876667 0
    outer loop
      vertex 0.364452 0.688862 0.180799
      vertex 0.36519 0.688457 0.167399
      vertex 0.364452 0.688862 0.167399
    endloop
  endfacet
  facet normal -0.844102 0.536183 0
    outer loop
      vertex 0.355728 0.686028 0.167399
      vertex 0.356179 0.686738 0.180799
      vertex 0.356179 0.686738 0.167399
    endloop
  endfacet
  facet normal -0.844102 0.536183 0
    outer loop
      vertex 0.356179 0.686738 0.180799
      vertex 0.355728 0.686028 0.167399
      vertex 0.355728 0.686028 0.180799
    endloop
  endfacet
  facet normal -0.770555 0.637373 0
    outer loop
      vertex 0.356179 0.686738 0.167399
      vertex 0.356715 0.687386 0.180799
      vertex 0.356715 0.687386 0.167399
    endloop
  endfacet
  facet normal -0.770555 0.637373 0
    outer loop
      vertex 0.356715 0.687386 0.180799
      vertex 0.356179 0.686738 0.167399
      vertex 0.356179 0.686738 0.180799
    endloop
  endfacet
  facet normal -0.98237 0.186948 0
    outer loop
      vertex 0.354953 0.68364 0.167399
      vertex 0.35511 0.684465 0.180799
      vertex 0.35511 0.684465 0.167399
    endloop
  endfacet
  facet normal -0.98237 0.186948 0
    outer loop
      vertex 0.35511 0.684465 0.180799
      vertex 0.354953 0.68364 0.167399
      vertex 0.354953 0.68364 0.180799
    endloop
  endfacet
  facet normal 0 0 1
    outer loop
      vertex 0.368247 0.68364 0.180799
      vertex 0.368247 0.68196 0.180799
      vertex 0.368299 0.682799 0.180799
    endloop
  endfacet
  facet normal 0 0 1
    outer loop
      vertex 0.368089 0.684465 0.180799
      vertex 0.368247 0.68196 0.180799
      vertex 0.368247 0.68364 0.180799
    endloop
  endfacet
  facet normal 0 0 1
    outer loop
      vertex 0.368089 0.684465 0.180799
      vertex 0.368089 0.681133 0.180799
      vertex 0.368247 0.68196 0.180799
    endloop
  endfacet
  facet normal 0 0 1
    outer loop
      vertex 0.367829 0.685266 0.180799
      vertex 0.368089 0.681133 0.180799
      vertex 0.368089 0.684465 0.180799
    endloop
  endfacet
  facet normal 0 0 1
    outer loop
      vertex 0.367829 0.685266 0.180799
      vertex 0.367829 0.680333 0.180799
      vertex 0.368089 0.681133 0.180799
    endloop
  endfacet
  facet normal 0 0 1
    outer loop
      vertex 0.367471 0.686028 0.180799
      vertex 0.367829 0.680333 0.180799
      vertex 0.367829 0.685266 0.180799
    endloop
  endfacet
  facet normal 0 0 1
    outer loop
      vertex 0.367471 0.686028 0.180799
      vertex 0.367471 0.679572 0.180799
      vertex 0.367829 0.680333 0.180799
    endloop
  endfacet
  facet normal 0 0 1
    outer loop
      vertex 0.36702 0.686738 0.180799
      vertex 0.367471 0.679572 0.180799
      vertex 0.367471 0.686028 0.180799
    endloop
  endfacet
  facet normal 0 0 1
    outer loop
      vertex 0.36702 0.686738 0.180799
      vertex 0.36702 0.678862 0.180799
      vertex 0.367471 0.679572 0.180799
    endloop
  endfacet
  facet normal 0 0 1
    outer loop
      vertex 0.366484 0.687386 0.180799
      vertex 0.36702 0.678862 0.180799
      vertex 0.36702 0.686738 0.180799
    endloop
  endfacet
  facet normal 0 0 1
    outer loop
      vertex 0.366484 0.687386 0.180799
      vertex 0.366484 0.678213 0.180799
      vertex 0.36702 0.678862 0.180799
    endloop
  endfacet
  facet normal 0 0 1
    outer loop
      vertex 0.36587 0.687962 0.180799
      vertex 0.366484 0.678213 0.180799
      vertex 0.366484 0.687386 0.180799
    endloop
  endfacet
  facet normal 0 0 1
    outer loop
      vertex 0.36587 0.687962 0.180799
      vertex 0.36587 0.677637 0.180799
      vertex 0.366484 0.678213 0.180799
    endloop
  endfacet
  facet normal 0 0 1
    outer loop
      vertex 0.36519 0.688457 0.180799
      vertex 0.36587 0.677637 0.180799
      vertex 0.36587 0.687962 0.180799
    endloop
  endfacet
  facet normal 0 0 1
    outer loop
      vertex 0.36519 0.688457 0.180799
      vertex 0.36519 0.677142 0.180799
      vertex 0.36587 0.677637 0.180799
    endloop
  endfacet
  facet normal 0 0 1
    outer loop
      vertex 0.364452 0.688862 0.180799
      vertex 0.36519 0.677142 0.180799
      vertex 0.36519 0.688457 0.180799
    endloop
  endfacet
  facet normal 0 0 1
    outer loop
      vertex 0.364452 0.688862 0.180799
      vertex 0.364452 0.676737 0.180799
      vertex 0.36519 0.677142 0.180799
    endloop
  endfacet
  facet normal 0 0 1
    outer loop
      vertex 0.36367 0.689172 0.180799
      vertex 0.364452 0.676737 0.180799
      vertex 0.364452 0.688862 0.180799
    endloop
  endfacet
  facet normal 0 0 1
    outer loop
      vertex 0.36367 0.689172 0.180799
      vertex 0.36367 0.676428 0.180799
      vertex 0.364452 0.676737 0.180799
    endloop
  endfacet
  facet normal 0 0 1
    outer loop
      vertex 0.362855 0.689381 0.180799
      vertex 0.36367 0.676428 0.180799
      vertex 0.36367 0.689172 0.180799
    endloop
  endfacet
  facet normal 0 0 1
    outer loop
      vertex 0.362855 0.689381 0.180799
      vertex 0.362855 0.676218 0.180799
      vertex 0.36367 0.676428 0.180799
    endloop
  endfacet
  facet normal 0 0 1
    outer loop
      vertex 0.36202 0.689487 0.180799
      vertex 0.362855 0.676218 0.180799
      vertex 0.362855 0.689381 0.180799
    endloop
  endfacet
  facet normal 0 0 1
    outer loop
      vertex 0.36202 0.689487 0.180799
      vertex 0.36202 0.676113 0.180799
      vertex 0.362855 0.676218 0.180799
    endloop
  endfacet
  facet normal -0 0 1
    outer loop
      vertex 0.361178 0.689487 0.180799
      vertex 0.36202 0.676113 0.180799
      vertex 0.36202 0.689487 0.180799
    endloop
  endfacet
  facet normal 0 0 1
    outer loop
      vertex 0.361178 0.689487 0.180799
      vertex 0.361178 0.676113 0.180799
      vertex 0.36202 0.676113 0.180799
    endloop
  endfacet
  facet normal -0 0 1
    outer loop
      vertex 0.360344 0.689381 0.180799
      vertex 0.361178 0.676113 0.180799
      vertex 0.361178 0.689487 0.180799
    endloop
  endfacet
  facet normal 0 0 1
    outer loop
      vertex 0.360344 0.689381 0.180799
      vertex 0.360344 0.676218 0.180799
      vertex 0.361178 0.676113 0.180799
    endloop
  endfacet
  facet normal -0 0 1
    outer loop
      vertex 0.359529 0.689172 0.180799
      vertex 0.360344 0.676218 0.180799
      vertex 0.360344 0.689381 0.180799
    endloop
  endfacet
  facet normal 0 0 1
    outer loop
      vertex 0.359529 0.689172 0.180799
      vertex 0.359529 0.676428 0.180799
      vertex 0.360344 0.676218 0.180799
    endloop
  endfacet
  facet normal -0 0 1
    outer loop
      vertex 0.358747 0.688862 0.180799
      vertex 0.359529 0.676428 0.180799
      vertex 0.359529 0.689172 0.180799
    endloop
  endfacet
  facet normal 0 0 1
    outer loop
      vertex 0.358747 0.688862 0.180799
      vertex 0.358747 0.676737 0.180799
      vertex 0.359529 0.676428 0.180799
    endloop
  endfacet
  facet normal -0 0 1
    outer loop
      vertex 0.358009 0.688457 0.180799
      vertex 0.358747 0.676737 0.180799
      vertex 0.358747 0.688862 0.180799
    endloop
  endfacet
  facet normal 0 0 1
    outer loop
      vertex 0.358009 0.688457 0.180799
      vertex 0.358009 0.677142 0.180799
      vertex 0.358747 0.676737 0.180799
    endloop
  endfacet
  facet normal -0 0 1
    outer loop
      vertex 0.357328 0.687962 0.180799
      vertex 0.358009 0.677142 0.180799
      vertex 0.358009 0.688457 0.180799
    endloop
  endfacet
  facet normal 0 0 1
    outer loop
      vertex 0.357328 0.687962 0.180799
      vertex 0.357328 0.677637 0.180799
      vertex 0.358009 0.677142 0.180799
    endloop
  endfacet
  facet normal -0 0 1
    outer loop
      vertex 0.356715 0.687386 0.180799
      vertex 0.357328 0.677637 0.180799
      vertex 0.357328 0.687962 0.180799
    endloop
  endfacet
  facet normal 0 0 1
    outer loop
      vertex 0.356715 0.687386 0.180799
      vertex 0.356715 0.678213 0.180799
      vertex 0.357328 0.677637 0.180799
    endloop
  endfacet
  facet normal -0 0 1
    outer loop
      vertex 0.356179 0.686738 0.180799
      vertex 0.356715 0.678213 0.180799
      vertex 0.356715 0.687386 0.180799
    endloop
  endfacet
  facet normal 0 0 1
    outer loop
      vertex 0.356179 0.686738 0.180799
      vertex 0.356179 0.678862 0.180799
      vertex 0.356715 0.678213 0.180799
    endloop
  endfacet
  facet normal -0 0 1
    outer loop
      vertex 0.355728 0.686028 0.180799
      vertex 0.356179 0.678862 0.180799
      vertex 0.356179 0.686738 0.180799
    endloop
  endfacet
  facet normal 0 0 1
    outer loop
      vertex 0.355728 0.686028 0.180799
      vertex 0.355728 0.679572 0.180799
      vertex 0.356179 0.678862 0.180799
    endloop
  endfacet
  facet normal -0 0 1
    outer loop
      vertex 0.35537 0.685266 0.180799
      vertex 0.355728 0.679572 0.180799
      vertex 0.355728 0.686028 0.180799
    endloop
  endfacet
  facet normal 0 0 1
    outer loop
      vertex 0.35537 0.685266 0.180799
      vertex 0.35537 0.680333 0.180799
      vertex 0.355728 0.679572 0.180799
    endloop
  endfacet
  facet normal -0 0 1
    outer loop
      vertex 0.35511 0.684465 0.180799
      vertex 0.35537 0.680333 0.180799
      vertex 0.35537 0.685266 0.180799
    endloop
  endfacet
  facet normal 0 0 1
    outer loop
      vertex 0.35511 0.684465 0.180799
      vertex 0.35511 0.681133 0.180799
      vertex 0.35537 0.680333 0.180799
    endloop
  endfacet
  facet normal -0 0 1
    outer loop
      vertex 0.354953 0.68364 0.180799
      vertex 0.35511 0.681133 0.180799
      vertex 0.35511 0.684465 0.180799
    endloop
  endfacet
  facet normal 0 0 1
    outer loop
      vertex 0.354953 0.68364 0.180799
      vertex 0.354953 0.68196 0.180799
      vertex 0.35511 0.681133 0.180799
    endloop
  endfacet
  facet normal 0 -0 1
    outer loop
      vertex 0.354953 0.68196 0.180799
      vertex 0.354953 0.68364 0.180799
      vertex 0.354899 0.682799 0.180799
    endloop
  endfacet
  facet normal -0.58796 0.80889 0
    outer loop
      vertex 0.358009 0.688457 0.167399
      vertex 0.357328 0.687962 0.180799
      vertex 0.358009 0.688457 0.180799
    endloop
  endfacet
  facet normal -0.58796 0.80889 0
    outer loop
      vertex 0.357328 0.687962 0.180799
      vertex 0.358009 0.688457 0.167399
      vertex 0.357328 0.687962 0.167399
    endloop
  endfacet
  facet normal -0.126084 0.99202 0
    outer loop
      vertex 0.361178 0.689487 0.167399
      vertex 0.360344 0.689381 0.180799
      vertex 0.361178 0.689487 0.180799
    endloop
  endfacet
  facet normal -0.126084 0.99202 0
    outer loop
      vertex 0.360344 0.689381 0.180799
      vertex 0.361178 0.689487 0.167399
      vertex 0.360344 0.689381 0.167399
    endloop
  endfacet
  facet normal 0.998085 -0.0618598 0
    outer loop
      vertex 0.368247 0.68196 0.180799
      vertex 0.368299 0.682799 0.167399
      vertex 0.368299 0.682799 0.180799
    endloop
  endfacet
  facet normal 0.998085 -0.0618598 0
    outer loop
      vertex 0.368299 0.682799 0.167399
      vertex 0.368247 0.68196 0.180799
      vertex 0.368247 0.68196 0.167399
    endloop
  endfacet
  facet normal 0 0 -1
    outer loop
      vertex 0.368247 0.68196 0.167399
      vertex 0.368247 0.68364 0.167399
      vertex 0.368299 0.682799 0.167399
    endloop
  endfacet
  facet normal 0 0 -1
    outer loop
      vertex 0.368089 0.681133 0.167399
      vertex 0.368247 0.68364 0.167399
      vertex 0.368247 0.68196 0.167399
    endloop
  endfacet
  facet normal 0 0 -1
    outer loop
      vertex 0.368089 0.681133 0.167399
      vertex 0.368089 0.684465 0.167399
      vertex 0.368247 0.68364 0.167399
    endloop
  endfacet
  facet normal 0 0 -1
    outer loop
      vertex 0.367829 0.680333 0.167399
      vertex 0.368089 0.684465 0.167399
      vertex 0.368089 0.681133 0.167399
    endloop
  endfacet
  facet normal 0 0 -1
    outer loop
      vertex 0.367829 0.680333 0.167399
      vertex 0.367829 0.685266 0.167399
      vertex 0.368089 0.684465 0.167399
    endloop
  endfacet
  facet normal 0 0 -1
    outer loop
      vertex 0.367471 0.679572 0.167399
      vertex 0.367829 0.685266 0.167399
      vertex 0.367829 0.680333 0.167399
    endloop
  endfacet
  facet normal 0 0 -1
    outer loop
      vertex 0.367471 0.679572 0.167399
      vertex 0.367471 0.686028 0.167399
      vertex 0.367829 0.685266 0.167399
    endloop
  endfacet
  facet normal 0 0 -1
    outer loop
      vertex 0.36702 0.678862 0.167399
      vertex 0.367471 0.686028 0.167399
      vertex 0.367471 0.679572 0.167399
    endloop
  endfacet
  facet normal 0 0 -1
    outer loop
      vertex 0.36702 0.678862 0.167399
      vertex 0.36702 0.686738 0.167399
      vertex 0.367471 0.686028 0.167399
    endloop
  endfacet
  facet normal 0 0 -1
    outer loop
      vertex 0.366484 0.678213 0.167399
      vertex 0.36702 0.686738 0.167399
      vertex 0.36702 0.678862 0.167399
    endloop
  endfacet
  facet normal 0 0 -1
    outer loop
      vertex 0.366484 0.678213 0.167399
      vertex 0.366484 0.687386 0.167399
      vertex 0.36702 0.686738 0.167399
    endloop
  endfacet
  facet normal 0 0 -1
    outer loop
      vertex 0.36587 0.677637 0.167399
      vertex 0.366484 0.687386 0.167399
      vertex 0.366484 0.678213 0.167399
    endloop
  endfacet
  facet normal 0 0 -1
    outer loop
      vertex 0.36587 0.677637 0.167399
      vertex 0.36587 0.687962 0.167399
      vertex 0.366484 0.687386 0.167399
    endloop
  endfacet
  facet normal 0 0 -1
    outer loop
      vertex 0.36519 0.677142 0.167399
      vertex 0.36587 0.687962 0.167399
      vertex 0.36587 0.677637 0.167399
    endloop
  endfacet
  facet normal 0 0 -1
    outer loop
      vertex 0.36519 0.677142 0.167399
      vertex 0.36519 0.688457 0.167399
      vertex 0.36587 0.687962 0.167399
    endloop
  endfacet
  facet normal 0 0 -1
    outer loop
      vertex 0.364452 0.676737 0.167399
      vertex 0.36519 0.688457 0.167399
      vertex 0.36519 0.677142 0.167399
    endloop
  endfacet
  facet normal 0 0 -1
    outer loop
      vertex 0.364452 0.676737 0.167399
      vertex 0.364452 0.688862 0.167399
      vertex 0.36519 0.688457 0.167399
    endloop
  endfacet
  facet normal 0 0 -1
    outer loop
      vertex 0.36367 0.676428 0.167399
      vertex 0.364452 0.688862 0.167399
      vertex 0.364452 0.676737 0.167399
    endloop
  endfacet
  facet normal 0 0 -1
    outer loop
      vertex 0.36367 0.676428 0.167399
      vertex 0.36367 0.689172 0.167399
      vertex 0.364452 0.688862 0.167399
    endloop
  endfacet
  facet normal 0 0 -1
    outer loop
      vertex 0.362855 0.676218 0.167399
      vertex 0.36367 0.689172 0.167399
      vertex 0.36367 0.676428 0.167399
    endloop
  endfacet
  facet normal 0 0 -1
    outer loop
      vertex 0.362855 0.676218 0.167399
      vertex 0.362855 0.689381 0.167399
      vertex 0.36367 0.689172 0.167399
    endloop
  endfacet
  facet normal 0 0 -1
    outer loop
      vertex 0.36202 0.676113 0.167399
      vertex 0.362855 0.689381 0.167399
      vertex 0.362855 0.676218 0.167399
    endloop
  endfacet
  facet normal 0 0 -1
    outer loop
      vertex 0.36202 0.676113 0.167399
      vertex 0.36202 0.689487 0.167399
      vertex 0.362855 0.689381 0.167399
    endloop
  endfacet
  facet normal 0 0 -1
    outer loop
      vertex 0.361178 0.676113 0.167399
      vertex 0.36202 0.689487 0.167399
      vertex 0.36202 0.676113 0.167399
    endloop
  endfacet
  facet normal 0 0 -1
    outer loop
      vertex 0.361178 0.676113 0.167399
      vertex 0.361178 0.689487 0.167399
      vertex 0.36202 0.689487 0.167399
    endloop
  endfacet
  facet normal 0 0 -1
    outer loop
      vertex 0.360344 0.676218 0.167399
      vertex 0.361178 0.689487 0.167399
      vertex 0.361178 0.676113 0.167399
    endloop
  endfacet
  facet normal 0 0 -1
    outer loop
      vertex 0.360344 0.676218 0.167399
      vertex 0.360344 0.689381 0.167399
      vertex 0.361178 0.689487 0.167399
    endloop
  endfacet
  facet normal 0 0 -1
    outer loop
      vertex 0.359529 0.676428 0.167399
      vertex 0.360344 0.689381 0.167399
      vertex 0.360344 0.676218 0.167399
    endloop
  endfacet
  facet normal 0 0 -1
    outer loop
      vertex 0.359529 0.676428 0.167399
      vertex 0.359529 0.689172 0.167399
      vertex 0.360344 0.689381 0.167399
    endloop
  endfacet
  facet normal 0 0 -1
    outer loop
      vertex 0.358747 0.676737 0.167399
      vertex 0.359529 0.689172 0.167399
      vertex 0.359529 0.676428 0.167399
    endloop
  endfacet
  facet normal 0 0 -1
    outer loop
      vertex 0.358747 0.676737 0.167399
      vertex 0.358747 0.688862 0.167399
      vertex 0.359529 0.689172 0.167399
    endloop
  endfacet
  facet normal 0 0 -1
    outer loop
      vertex 0.358009 0.677142 0.167399
      vertex 0.358747 0.688862 0.167399
      vertex 0.358747 0.676737 0.167399
    endloop
  endfacet
  facet normal 0 0 -1
    outer loop
      vertex 0.358009 0.677142 0.167399
      vertex 0.358009 0.688457 0.167399
      vertex 0.358747 0.688862 0.167399
    endloop
  endfacet
  facet normal 0 0 -1
    outer loop
      vertex 0.357328 0.677637 0.167399
      vertex 0.358009 0.688457 0.167399
      vertex 0.358009 0.677142 0.167399
    endloop
  endfacet
  facet normal 0 0 -1
    outer loop
      vertex 0.357328 0.677637 0.167399
      vertex 0.357328 0.687962 0.167399
      vertex 0.358009 0.688457 0.167399
    endloop
  endfacet
  facet normal 0 0 -1
    outer loop
      vertex 0.356715 0.678213 0.167399
      vertex 0.357328 0.687962 0.167399
      vertex 0.357328 0.677637 0.167399
    endloop
  endfacet
  facet normal 0 0 -1
    outer loop
      vertex 0.356715 0.678213 0.167399
      vertex 0.356715 0.687386 0.167399
      vertex 0.357328 0.687962 0.167399
    endloop
  endfacet
  facet normal 0 0 -1
    outer loop
      vertex 0.356179 0.678862 0.167399
      vertex 0.356715 0.687386 0.167399
      vertex 0.356715 0.678213 0.167399
    endloop
  endfacet
  facet normal 0 0 -1
    outer loop
      vertex 0.356179 0.678862 0.167399
      vertex 0.356179 0.686738 0.167399
      vertex 0.356715 0.687386 0.167399
    endloop
  endfacet
  facet normal 0 0 -1
    outer loop
      vertex 0.355728 0.679572 0.167399
      vertex 0.356179 0.686738 0.167399
      vertex 0.356179 0.678862 0.167399
    endloop
  endfacet
  facet normal 0 0 -1
    outer loop
      vertex 0.355728 0.679572 0.167399
      vertex 0.355728 0.686028 0.167399
      vertex 0.356179 0.686738 0.167399
    endloop
  endfacet
  facet normal 0 0 -1
    outer loop
      vertex 0.35537 0.680333 0.167399
      vertex 0.355728 0.686028 0.167399
      vertex 0.355728 0.679572 0.167399
    endloop
  endfacet
  facet normal 0 0 -1
    outer loop
      vertex 0.35537 0.680333 0.167399
      vertex 0.35537 0.685266 0.167399
      vertex 0.355728 0.686028 0.167399
    endloop
  endfacet
  facet normal 0 0 -1
    outer loop
      vertex 0.35511 0.681133 0.167399
      vertex 0.35537 0.685266 0.167399
      vertex 0.35537 0.680333 0.167399
    endloop
  endfacet
  facet normal 0 0 -1
    outer loop
      vertex 0.35511 0.681133 0.167399
      vertex 0.35511 0.684465 0.167399
      vertex 0.35537 0.685266 0.167399
    endloop
  endfacet
  facet normal 0 0 -1
    outer loop
      vertex 0.354953 0.68196 0.167399
      vertex 0.35511 0.684465 0.167399
      vertex 0.35511 0.681133 0.167399
    endloop
  endfacet
  facet normal 0 0 -1
    outer loop
      vertex 0.354953 0.68196 0.167399
      vertex 0.354953 0.68364 0.167399
      vertex 0.35511 0.684465 0.167399
    endloop
  endfacet
  facet normal 0 -0 -1
    outer loop
      vertex 0.354953 0.68364 0.167399
      vertex 0.354953 0.68196 0.167399
      vertex 0.354899 0.682799 0.167399
    endloop
  endfacet
  facet normal 0.481098 -0.876667 0
    outer loop
      vertex 0.364452 0.676737 0.167399
      vertex 0.36519 0.677142 0.180799
      vertex 0.364452 0.676737 0.180799
    endloop
  endfacet
  facet normal 0.481098 -0.876667 0
    outer loop
      vertex 0.36519 0.677142 0.180799
      vertex 0.364452 0.676737 0.167399
      vertex 0.36519 0.677142 0.167399
    endloop
  endfacet
  facet normal 0.684178 -0.729315 0
    outer loop
      vertex 0.36587 0.677637 0.167399
      vertex 0.366484 0.678213 0.180799
      vertex 0.36587 0.677637 0.180799
    endloop
  endfacet
  facet normal 0.684178 -0.729315 0
    outer loop
      vertex 0.366484 0.678213 0.180799
      vertex 0.36587 0.677637 0.167399
      vertex 0.366484 0.678213 0.167399
    endloop
  endfacet
  facet normal 0.904873 -0.425683 0
    outer loop
      vertex 0.367471 0.679572 0.180799
      vertex 0.367829 0.680333 0.167399
      vertex 0.367829 0.680333 0.180799
    endloop
  endfacet
  facet normal 0.904873 -0.425683 0
    outer loop
      vertex 0.367829 0.680333 0.167399
      vertex 0.367471 0.679572 0.180799
      vertex 0.367471 0.679572 0.167399
    endloop
  endfacet
  facet normal 0.951034 -0.309086 0
    outer loop
      vertex 0.367829 0.680333 0.180799
      vertex 0.368089 0.681133 0.167399
      vertex 0.368089 0.681133 0.180799
    endloop
  endfacet
  facet normal 0.951034 -0.309086 0
    outer loop
      vertex 0.368089 0.681133 0.167399
      vertex 0.367829 0.680333 0.180799
      vertex 0.367829 0.680333 0.167399
    endloop
  endfacet
  facet normal -0.951034 -0.309086 0
    outer loop
      vertex 0.35537 0.680333 0.167399
      vertex 0.35511 0.681133 0.180799
      vertex 0.35511 0.681133 0.167399
    endloop
  endfacet
  facet normal -0.951034 -0.309086 0
    outer loop
      vertex 0.35511 0.681133 0.180799
      vertex 0.35537 0.680333 0.167399
      vertex 0.35537 0.680333 0.180799
    endloop
  endfacet
  facet normal 0.367491 -0.930027 0
    outer loop
      vertex 0.36367 0.676428 0.167399
      vertex 0.364452 0.676737 0.180799
      vertex 0.36367 0.676428 0.180799
    endloop
  endfacet
  facet normal 0.367491 -0.930027 0
    outer loop
      vertex 0.364452 0.676737 0.180799
      vertex 0.36367 0.676428 0.167399
      vertex 0.364452 0.676737 0.167399
    endloop
  endfacet
  facet normal 0.249519 -0.96837 0
    outer loop
      vertex 0.362855 0.676218 0.167399
      vertex 0.36367 0.676428 0.180799
      vertex 0.362855 0.676218 0.180799
    endloop
  endfacet
  facet normal 0.249519 -0.96837 0
    outer loop
      vertex 0.36367 0.676428 0.180799
      vertex 0.362855 0.676218 0.167399
      vertex 0.36367 0.676428 0.167399
    endloop
  endfacet
  facet normal 0.588525 -0.808479 0
    outer loop
      vertex 0.36519 0.677142 0.167399
      vertex 0.36587 0.677637 0.180799
      vertex 0.36519 0.677142 0.180799
    endloop
  endfacet
  facet normal 0.588525 -0.808479 0
    outer loop
      vertex 0.36587 0.677637 0.180799
      vertex 0.36519 0.677142 0.167399
      vertex 0.36587 0.677637 0.167399
    endloop
  endfacet
  facet normal 0.771038 -0.636789 0
    outer loop
      vertex 0.366484 0.678213 0.180799
      vertex 0.36702 0.678862 0.167399
      vertex 0.36702 0.678862 0.180799
    endloop
  endfacet
  facet normal 0.771038 -0.636789 0
    outer loop
      vertex 0.36702 0.678862 0.167399
      vertex 0.366484 0.678213 0.180799
      vertex 0.366484 0.678213 0.167399
    endloop
  endfacet
  facet normal -0.124913 -0.992168 0
    outer loop
      vertex 0.360344 0.676218 0.167399
      vertex 0.361178 0.676113 0.180799
      vertex 0.360344 0.676218 0.180799
    endloop
  endfacet
  facet normal -0.124913 -0.992168 -0
    outer loop
      vertex 0.361178 0.676113 0.180799
      vertex 0.360344 0.676218 0.167399
      vertex 0.361178 0.676113 0.167399
    endloop
  endfacet
  facet normal -0.367491 -0.930027 0
    outer loop
      vertex 0.358747 0.676737 0.167399
      vertex 0.359529 0.676428 0.180799
      vertex 0.358747 0.676737 0.180799
    endloop
  endfacet
  facet normal -0.367491 -0.930027 -0
    outer loop
      vertex 0.359529 0.676428 0.180799
      vertex 0.358747 0.676737 0.167399
      vertex 0.359529 0.676428 0.167399
    endloop
  endfacet
  facet normal -0.249519 -0.96837 0
    outer loop
      vertex 0.359529 0.676428 0.167399
      vertex 0.360344 0.676218 0.180799
      vertex 0.359529 0.676428 0.180799
    endloop
  endfacet
  facet normal -0.249519 -0.96837 -0
    outer loop
      vertex 0.360344 0.676218 0.180799
      vertex 0.359529 0.676428 0.167399
      vertex 0.360344 0.676218 0.167399
    endloop
  endfacet
  facet normal -0.684771 -0.728758 0
    outer loop
      vertex 0.356715 0.678213 0.167399
      vertex 0.357328 0.677637 0.180799
      vertex 0.356715 0.678213 0.180799
    endloop
  endfacet
  facet normal -0.684771 -0.728758 -0
    outer loop
      vertex 0.357328 0.677637 0.180799
      vertex 0.356715 0.678213 0.167399
      vertex 0.357328 0.677637 0.167399
    endloop
  endfacet
  facet normal -0.982453 -0.186512 0
    outer loop
      vertex 0.35511 0.681133 0.167399
      vertex 0.354953 0.68196 0.180799
      vertex 0.354953 0.68196 0.167399
    endloop
  endfacet
  facet normal -0.982453 -0.186512 0
    outer loop
      vertex 0.354953 0.68196 0.180799
      vertex 0.35511 0.681133 0.167399
      vertex 0.35511 0.681133 0.180799
    endloop
  endfacet
  facet normal -0.997935 -0.0642294 0
    outer loop
      vertex 0.354953 0.68196 0.167399
      vertex 0.354899 0.682799 0.180799
      vertex 0.354899 0.682799 0.167399
    endloop
  endfacet
  facet normal -0.997935 -0.0642294 0
    outer loop
      vertex 0.354899 0.682799 0.180799
      vertex 0.354953 0.68196 0.167399
      vertex 0.354953 0.68196 0.180799
    endloop
  endfacet
  facet normal -0.481098 -0.876667 0
    outer loop
      vertex 0.358009 0.677142 0.167399
      vertex 0.358747 0.676737 0.180799
      vertex 0.358009 0.677142 0.180799
    endloop
  endfacet
  facet normal -0.481098 -0.876667 -0
    outer loop
      vertex 0.358747 0.676737 0.180799
      vertex 0.358009 0.677142 0.167399
      vertex 0.358747 0.676737 0.167399
    endloop
  endfacet
  facet normal -0.58796 -0.80889 0
    outer loop
      vertex 0.357328 0.677637 0.167399
      vertex 0.358009 0.677142 0.180799
      vertex 0.357328 0.677637 0.180799
    endloop
  endfacet
  facet normal -0.58796 -0.80889 -0
    outer loop
      vertex 0.358009 0.677142 0.180799
      vertex 0.357328 0.677637 0.167399
      vertex 0.358009 0.677142 0.167399
    endloop
  endfacet
  facet normal -0.844102 -0.536183 0
    outer loop
      vertex 0.356179 0.678862 0.167399
      vertex 0.355728 0.679572 0.180799
      vertex 0.355728 0.679572 0.167399
    endloop
  endfacet
  facet normal -0.844102 -0.536183 0
    outer loop
      vertex 0.355728 0.679572 0.180799
      vertex 0.356179 0.678862 0.167399
      vertex 0.356179 0.678862 0.180799
    endloop
  endfacet
  facet normal -0.904873 -0.425683 0
    outer loop
      vertex 0.355728 0.679572 0.167399
      vertex 0.35537 0.680333 0.180799
      vertex 0.35537 0.680333 0.167399
    endloop
  endfacet
  facet normal -0.904873 -0.425683 0
    outer loop
      vertex 0.35537 0.680333 0.180799
      vertex 0.355728 0.679572 0.167399
      vertex 0.355728 0.679572 0.180799
    endloop
  endfacet
  facet normal -0.771038 -0.636789 0
    outer loop
      vertex 0.356715 0.678213 0.167399
      vertex 0.356179 0.678862 0.180799
      vertex 0.356179 0.678862 0.167399
    endloop
  endfacet
  facet normal -0.771038 -0.636789 0
    outer loop
      vertex 0.356179 0.678862 0.180799
      vertex 0.356715 0.678213 0.167399
      vertex 0.356715 0.678213 0.180799
    endloop
  endfacet
  facet normal 0.998086 0.0618452 0
    outer loop
      vertex 0.368299 0.0671997 0.180799
      vertex 0.368247 0.0680389 0.167399
      vertex 0.368247 0.0680389 0.180799
    endloop
  endfacet
  facet normal 0.998086 0.0618452 0
    outer loop
      vertex 0.368247 0.0680389 0.167399
      vertex 0.368299 0.0671997 0.180799
      vertex 0.368299 0.0671997 0.167399
    endloop
  endfacet
  facet normal -0.997936 0.0642142 0
    outer loop
      vertex 0.354899 0.0671997 0.167399
      vertex 0.354953 0.0680389 0.180799
      vertex 0.354953 0.0680389 0.167399
    endloop
  endfacet
  facet normal -0.997936 0.0642142 0
    outer loop
      vertex 0.354953 0.0680389 0.180799
      vertex 0.354899 0.0671997 0.167399
      vertex 0.354899 0.0671997 0.180799
    endloop
  endfacet
  facet normal 0 1 -0
    outer loop
      vertex 0.36202 0.0738859 0.167399
      vertex 0.361178 0.0738859 0.180799
      vertex 0.36202 0.0738859 0.180799
    endloop
  endfacet
  facet normal 0 1 0
    outer loop
      vertex 0.361178 0.0738859 0.180799
      vertex 0.36202 0.0738859 0.167399
      vertex 0.361178 0.0738859 0.167399
    endloop
  endfacet
  facet normal 0 -1 0
    outer loop
      vertex 0.361178 0.0605125 0.167399
      vertex 0.36202 0.0605125 0.180799
      vertex 0.361178 0.0605125 0.180799
    endloop
  endfacet
  facet normal 0 -1 -0
    outer loop
      vertex 0.36202 0.0605125 0.180799
      vertex 0.361178 0.0605125 0.167399
      vertex 0.36202 0.0605125 0.167399
    endloop
  endfacet
  facet normal 0.684178 0.729315 -0
    outer loop
      vertex 0.366484 0.0717859 0.167399
      vertex 0.36587 0.0723619 0.180799
      vertex 0.366484 0.0717859 0.180799
    endloop
  endfacet
  facet normal 0.684178 0.729315 0
    outer loop
      vertex 0.36587 0.0723619 0.180799
      vertex 0.366484 0.0717859 0.167399
      vertex 0.36587 0.0723619 0.167399
    endloop
  endfacet
  facet normal -0.684771 0.728758 0
    outer loop
      vertex 0.357328 0.0723619 0.167399
      vertex 0.356715 0.0717859 0.180799
      vertex 0.357328 0.0723619 0.180799
    endloop
  endfacet
  facet normal -0.684771 0.728758 0
    outer loop
      vertex 0.356715 0.0717859 0.180799
      vertex 0.357328 0.0723619 0.167399
      vertex 0.356715 0.0717859 0.167399
    endloop
  endfacet
  facet normal -0.367491 0.930027 0
    outer loop
      vertex 0.359529 0.0735712 0.167399
      vertex 0.358747 0.0732622 0.180799
      vertex 0.359529 0.0735712 0.180799
    endloop
  endfacet
  facet normal -0.367491 0.930027 0
    outer loop
      vertex 0.358747 0.0732622 0.180799
      vertex 0.359529 0.0735712 0.167399
      vertex 0.358747 0.0732622 0.167399
    endloop
  endfacet
  facet normal 0.904873 0.425683 0
    outer loop
      vertex 0.367829 0.0696659 0.180799
      vertex 0.367471 0.0704269 0.167399
      vertex 0.367471 0.0704269 0.180799
    endloop
  endfacet
  facet normal 0.904873 0.425683 0
    outer loop
      vertex 0.367471 0.0704269 0.167399
      vertex 0.367829 0.0696659 0.180799
      vertex 0.367829 0.0696659 0.167399
    endloop
  endfacet
  facet normal 0.367491 0.930027 -0
    outer loop
      vertex 0.364452 0.0732622 0.167399
      vertex 0.36367 0.0735712 0.180799
      vertex 0.364452 0.0732622 0.180799
    endloop
  endfacet
  facet normal 0.367491 0.930027 0
    outer loop
      vertex 0.36367 0.0735712 0.180799
      vertex 0.364452 0.0732622 0.167399
      vertex 0.36367 0.0735712 0.167399
    endloop
  endfacet
  facet normal 0.249296 0.968427 -0
    outer loop
      vertex 0.36367 0.0735712 0.167399
      vertex 0.362855 0.073781 0.180799
      vertex 0.36367 0.0735712 0.180799
    endloop
  endfacet
  facet normal 0.249296 0.968427 0
    outer loop
      vertex 0.362855 0.073781 0.180799
      vertex 0.36367 0.0735712 0.167399
      vertex 0.362855 0.073781 0.167399
    endloop
  endfacet
  facet normal 0.481372 0.876517 -0
    outer loop
      vertex 0.36519 0.0728569 0.167399
      vertex 0.364452 0.0732622 0.180799
      vertex 0.36519 0.0728569 0.180799
    endloop
  endfacet
  facet normal 0.481372 0.876517 0
    outer loop
      vertex 0.364452 0.0732622 0.180799
      vertex 0.36519 0.0728569 0.167399
      vertex 0.364452 0.0732622 0.167399
    endloop
  endfacet
  facet normal -0.904873 0.425683 0
    outer loop
      vertex 0.35537 0.0696659 0.167399
      vertex 0.355728 0.0704269 0.180799
      vertex 0.355728 0.0704269 0.167399
    endloop
  endfacet
  facet normal -0.904873 0.425683 0
    outer loop
      vertex 0.355728 0.0704269 0.180799
      vertex 0.35537 0.0696659 0.167399
      vertex 0.35537 0.0696659 0.180799
    endloop
  endfacet
  facet normal -0.844273 0.535914 0
    outer loop
      vertex 0.355728 0.0704269 0.167399
      vertex 0.356179 0.0711374 0.180799
      vertex 0.356179 0.0711374 0.167399
    endloop
  endfacet
  facet normal -0.844273 0.535914 0
    outer loop
      vertex 0.356179 0.0711374 0.180799
      vertex 0.355728 0.0704269 0.167399
      vertex 0.355728 0.0704269 0.180799
    endloop
  endfacet
  facet normal -0.951045 0.309051 0
    outer loop
      vertex 0.35511 0.0688658 0.167399
      vertex 0.35537 0.0696659 0.180799
      vertex 0.35537 0.0696659 0.167399
    endloop
  endfacet
  facet normal -0.951045 0.309051 0
    outer loop
      vertex 0.35537 0.0696659 0.180799
      vertex 0.35511 0.0688658 0.167399
      vertex 0.35511 0.0688658 0.180799
    endloop
  endfacet
  facet normal -0.481372 0.876517 0
    outer loop
      vertex 0.358747 0.0732622 0.167399
      vertex 0.358009 0.0728569 0.180799
      vertex 0.358747 0.0732622 0.180799
    endloop
  endfacet
  facet normal -0.481372 0.876517 0
    outer loop
      vertex 0.358009 0.0728569 0.180799
      vertex 0.358747 0.0732622 0.167399
      vertex 0.358009 0.0728569 0.167399
    endloop
  endfacet
  facet normal -0.124796 0.992182 0
    outer loop
      vertex 0.361178 0.0738859 0.167399
      vertex 0.360344 0.073781 0.180799
      vertex 0.361178 0.0738859 0.180799
    endloop
  endfacet
  facet normal -0.124796 0.992182 0
    outer loop
      vertex 0.360344 0.073781 0.180799
      vertex 0.361178 0.0738859 0.167399
      vertex 0.360344 0.073781 0.167399
    endloop
  endfacet
  facet normal 0.125818 -0.992053 0
    outer loop
      vertex 0.36202 0.0605125 0.167399
      vertex 0.362855 0.0606184 0.180799
      vertex 0.36202 0.0605125 0.180799
    endloop
  endfacet
  facet normal 0.125818 -0.992053 0
    outer loop
      vertex 0.362855 0.0606184 0.180799
      vertex 0.36202 0.0605125 0.167399
      vertex 0.362855 0.0606184 0.167399
    endloop
  endfacet
  facet normal 0.951045 0.309051 0
    outer loop
      vertex 0.368089 0.0688658 0.180799
      vertex 0.367829 0.0696659 0.167399
      vertex 0.367829 0.0696659 0.180799
    endloop
  endfacet
  facet normal 0.951045 0.309051 0
    outer loop
      vertex 0.367829 0.0696659 0.167399
      vertex 0.368089 0.0688658 0.180799
      vertex 0.368089 0.0688658 0.167399
    endloop
  endfacet
  facet normal 0.98223 0.18768 0
    outer loop
      vertex 0.368247 0.0680389 0.180799
      vertex 0.368089 0.0688658 0.167399
      vertex 0.368089 0.0688658 0.180799
    endloop
  endfacet
  facet normal 0.98223 0.18768 0
    outer loop
      vertex 0.368089 0.0688658 0.167399
      vertex 0.368247 0.0680389 0.180799
      vertex 0.368247 0.0680389 0.167399
    endloop
  endfacet
  facet normal 0.770797 0.637081 0
    outer loop
      vertex 0.36702 0.0711374 0.180799
      vertex 0.366484 0.0717859 0.167399
      vertex 0.366484 0.0717859 0.180799
    endloop
  endfacet
  facet normal 0.770797 0.637081 0
    outer loop
      vertex 0.366484 0.0717859 0.167399
      vertex 0.36702 0.0711374 0.180799
      vertex 0.36702 0.0711374 0.167399
    endloop
  endfacet
  facet normal 0.844273 0.535914 0
    outer loop
      vertex 0.367471 0.0704269 0.180799
      vertex 0.36702 0.0711374 0.167399
      vertex 0.36702 0.0711374 0.180799
    endloop
  endfacet
  facet normal 0.844273 0.535914 0
    outer loop
      vertex 0.36702 0.0711374 0.167399
      vertex 0.367471 0.0704269 0.180799
      vertex 0.367471 0.0704269 0.167399
    endloop
  endfacet
  facet normal 0.124649 0.992201 -0
    outer loop
      vertex 0.362855 0.073781 0.167399
      vertex 0.36202 0.0738859 0.180799
      vertex 0.362855 0.073781 0.180799
    endloop
  endfacet
  facet normal 0.124649 0.992201 0
    outer loop
      vertex 0.36202 0.0738859 0.180799
      vertex 0.362855 0.073781 0.167399
      vertex 0.36202 0.0738859 0.167399
    endloop
  endfacet
  facet normal 0.588525 0.808479 -0
    outer loop
      vertex 0.36587 0.0723619 0.167399
      vertex 0.36519 0.0728569 0.180799
      vertex 0.36587 0.0723619 0.180799
    endloop
  endfacet
  facet normal 0.588525 0.808479 0
    outer loop
      vertex 0.36519 0.0728569 0.180799
      vertex 0.36587 0.0723619 0.167399
      vertex 0.36519 0.0728569 0.167399
    endloop
  endfacet
  facet normal -0.770797 0.637081 0
    outer loop
      vertex 0.356179 0.0711374 0.167399
      vertex 0.356715 0.0717859 0.180799
      vertex 0.356715 0.0717859 0.167399
    endloop
  endfacet
  facet normal -0.770797 0.637081 0
    outer loop
      vertex 0.356715 0.0717859 0.180799
      vertex 0.356179 0.0711374 0.167399
      vertex 0.356179 0.0711374 0.180799
    endloop
  endfacet
  facet normal -0.982449 0.186533 0
    outer loop
      vertex 0.354953 0.0680389 0.167399
      vertex 0.35511 0.0688658 0.180799
      vertex 0.35511 0.0688658 0.167399
    endloop
  endfacet
  facet normal -0.982449 0.186533 0
    outer loop
      vertex 0.35511 0.0688658 0.180799
      vertex 0.354953 0.0680389 0.167399
      vertex 0.354953 0.0680389 0.180799
    endloop
  endfacet
  facet normal 0 0 1
    outer loop
      vertex 0.368247 0.0680389 0.180799
      vertex 0.368247 0.0663595 0.180799
      vertex 0.368299 0.0671997 0.180799
    endloop
  endfacet
  facet normal 0 0 1
    outer loop
      vertex 0.368089 0.0688658 0.180799
      vertex 0.368247 0.0663595 0.180799
      vertex 0.368247 0.0680389 0.180799
    endloop
  endfacet
  facet normal 0 0 1
    outer loop
      vertex 0.368089 0.0688658 0.180799
      vertex 0.368089 0.0655336 0.180799
      vertex 0.368247 0.0663595 0.180799
    endloop
  endfacet
  facet normal 0 0 1
    outer loop
      vertex 0.367829 0.0696659 0.180799
      vertex 0.368089 0.0655336 0.180799
      vertex 0.368089 0.0688658 0.180799
    endloop
  endfacet
  facet normal 0 0 1
    outer loop
      vertex 0.367829 0.0696659 0.180799
      vertex 0.367829 0.0647335 0.180799
      vertex 0.368089 0.0655336 0.180799
    endloop
  endfacet
  facet normal 0 0 1
    outer loop
      vertex 0.367471 0.0704269 0.180799
      vertex 0.367829 0.0647335 0.180799
      vertex 0.367829 0.0696659 0.180799
    endloop
  endfacet
  facet normal 0 0 1
    outer loop
      vertex 0.367471 0.0704269 0.180799
      vertex 0.367471 0.0639715 0.180799
      vertex 0.367829 0.0647335 0.180799
    endloop
  endfacet
  facet normal 0 0 1
    outer loop
      vertex 0.36702 0.0711374 0.180799
      vertex 0.367471 0.0639715 0.180799
      vertex 0.367471 0.0704269 0.180799
    endloop
  endfacet
  facet normal 0 0 1
    outer loop
      vertex 0.36702 0.0711374 0.180799
      vertex 0.36702 0.063261 0.180799
      vertex 0.367471 0.0639715 0.180799
    endloop
  endfacet
  facet normal 0 0 1
    outer loop
      vertex 0.366484 0.0717859 0.180799
      vertex 0.36702 0.063261 0.180799
      vertex 0.36702 0.0711374 0.180799
    endloop
  endfacet
  facet normal 0 0 1
    outer loop
      vertex 0.366484 0.0717859 0.180799
      vertex 0.366484 0.0626135 0.180799
      vertex 0.36702 0.063261 0.180799
    endloop
  endfacet
  facet normal 0 0 1
    outer loop
      vertex 0.36587 0.0723619 0.180799
      vertex 0.366484 0.0626135 0.180799
      vertex 0.366484 0.0717859 0.180799
    endloop
  endfacet
  facet normal 0 0 1
    outer loop
      vertex 0.36587 0.0723619 0.180799
      vertex 0.36587 0.0620375 0.180799
      vertex 0.366484 0.0626135 0.180799
    endloop
  endfacet
  facet normal 0 0 1
    outer loop
      vertex 0.36519 0.0728569 0.180799
      vertex 0.36587 0.0620375 0.180799
      vertex 0.36587 0.0723619 0.180799
    endloop
  endfacet
  facet normal 0 0 1
    outer loop
      vertex 0.36519 0.0728569 0.180799
      vertex 0.36519 0.0615425 0.180799
      vertex 0.36587 0.0620375 0.180799
    endloop
  endfacet
  facet normal 0 0 1
    outer loop
      vertex 0.364452 0.0732622 0.180799
      vertex 0.36519 0.0615425 0.180799
      vertex 0.36519 0.0728569 0.180799
    endloop
  endfacet
  facet normal 0 0 1
    outer loop
      vertex 0.364452 0.0732622 0.180799
      vertex 0.364452 0.0611372 0.180799
      vertex 0.36519 0.0615425 0.180799
    endloop
  endfacet
  facet normal 0 0 1
    outer loop
      vertex 0.36367 0.0735712 0.180799
      vertex 0.364452 0.0611372 0.180799
      vertex 0.364452 0.0732622 0.180799
    endloop
  endfacet
  facet normal 0 0 1
    outer loop
      vertex 0.36367 0.0735712 0.180799
      vertex 0.36367 0.0608273 0.180799
      vertex 0.364452 0.0611372 0.180799
    endloop
  endfacet
  facet normal 0 0 1
    outer loop
      vertex 0.362855 0.073781 0.180799
      vertex 0.36367 0.0608273 0.180799
      vertex 0.36367 0.0735712 0.180799
    endloop
  endfacet
  facet normal 0 0 1
    outer loop
      vertex 0.362855 0.073781 0.180799
      vertex 0.362855 0.0606184 0.180799
      vertex 0.36367 0.0608273 0.180799
    endloop
  endfacet
  facet normal 0 0 1
    outer loop
      vertex 0.36202 0.0738859 0.180799
      vertex 0.362855 0.0606184 0.180799
      vertex 0.362855 0.073781 0.180799
    endloop
  endfacet
  facet normal 0 0 1
    outer loop
      vertex 0.36202 0.0738859 0.180799
      vertex 0.36202 0.0605125 0.180799
      vertex 0.362855 0.0606184 0.180799
    endloop
  endfacet
  facet normal -0 0 1
    outer loop
      vertex 0.361178 0.0738859 0.180799
      vertex 0.36202 0.0605125 0.180799
      vertex 0.36202 0.0738859 0.180799
    endloop
  endfacet
  facet normal 0 0 1
    outer loop
      vertex 0.361178 0.0738859 0.180799
      vertex 0.361178 0.0605125 0.180799
      vertex 0.36202 0.0605125 0.180799
    endloop
  endfacet
  facet normal -0 0 1
    outer loop
      vertex 0.360344 0.073781 0.180799
      vertex 0.361178 0.0605125 0.180799
      vertex 0.361178 0.0738859 0.180799
    endloop
  endfacet
  facet normal 0 0 1
    outer loop
      vertex 0.360344 0.073781 0.180799
      vertex 0.360344 0.0606184 0.180799
      vertex 0.361178 0.0605125 0.180799
    endloop
  endfacet
  facet normal -0 0 1
    outer loop
      vertex 0.359529 0.0735712 0.180799
      vertex 0.360344 0.0606184 0.180799
      vertex 0.360344 0.073781 0.180799
    endloop
  endfacet
  facet normal 0 0 1
    outer loop
      vertex 0.359529 0.0735712 0.180799
      vertex 0.359529 0.0608273 0.180799
      vertex 0.360344 0.0606184 0.180799
    endloop
  endfacet
  facet normal -0 0 1
    outer loop
      vertex 0.358747 0.0732622 0.180799
      vertex 0.359529 0.0608273 0.180799
      vertex 0.359529 0.0735712 0.180799
    endloop
  endfacet
  facet normal 0 0 1
    outer loop
      vertex 0.358747 0.0732622 0.180799
      vertex 0.358747 0.0611372 0.180799
      vertex 0.359529 0.0608273 0.180799
    endloop
  endfacet
  facet normal -0 0 1
    outer loop
      vertex 0.358009 0.0728569 0.180799
      vertex 0.358747 0.0611372 0.180799
      vertex 0.358747 0.0732622 0.180799
    endloop
  endfacet
  facet normal 0 0 1
    outer loop
      vertex 0.358009 0.0728569 0.180799
      vertex 0.358009 0.0615425 0.180799
      vertex 0.358747 0.0611372 0.180799
    endloop
  endfacet
  facet normal -0 0 1
    outer loop
      vertex 0.357328 0.0723619 0.180799
      vertex 0.358009 0.0615425 0.180799
      vertex 0.358009 0.0728569 0.180799
    endloop
  endfacet
  facet normal 0 0 1
    outer loop
      vertex 0.357328 0.0723619 0.180799
      vertex 0.357328 0.0620375 0.180799
      vertex 0.358009 0.0615425 0.180799
    endloop
  endfacet
  facet normal -0 0 1
    outer loop
      vertex 0.356715 0.0717859 0.180799
      vertex 0.357328 0.0620375 0.180799
      vertex 0.357328 0.0723619 0.180799
    endloop
  endfacet
  facet normal 0 0 1
    outer loop
      vertex 0.356715 0.0717859 0.180799
      vertex 0.356715 0.0626135 0.180799
      vertex 0.357328 0.0620375 0.180799
    endloop
  endfacet
  facet normal -0 0 1
    outer loop
      vertex 0.356179 0.0711374 0.180799
      vertex 0.356715 0.0626135 0.180799
      vertex 0.356715 0.0717859 0.180799
    endloop
  endfacet
  facet normal 0 0 1
    outer loop
      vertex 0.356179 0.0711374 0.180799
      vertex 0.356179 0.063261 0.180799
      vertex 0.356715 0.0626135 0.180799
    endloop
  endfacet
  facet normal -0 0 1
    outer loop
      vertex 0.355728 0.0704269 0.180799
      vertex 0.356179 0.063261 0.180799
      vertex 0.356179 0.0711374 0.180799
    endloop
  endfacet
  facet normal 0 0 1
    outer loop
      vertex 0.355728 0.0704269 0.180799
      vertex 0.355728 0.0639715 0.180799
      vertex 0.356179 0.063261 0.180799
    endloop
  endfacet
  facet normal -0 0 1
    outer loop
      vertex 0.35537 0.0696659 0.180799
      vertex 0.355728 0.0639715 0.180799
      vertex 0.355728 0.0704269 0.180799
    endloop
  endfacet
  facet normal 0 0 1
    outer loop
      vertex 0.35537 0.0696659 0.180799
      vertex 0.35537 0.0647335 0.180799
      vertex 0.355728 0.0639715 0.180799
    endloop
  endfacet
  facet normal -0 0 1
    outer loop
      vertex 0.35511 0.0688658 0.180799
      vertex 0.35537 0.0647335 0.180799
      vertex 0.35537 0.0696659 0.180799
    endloop
  endfacet
  facet normal 0 0 1
    outer loop
      vertex 0.35511 0.0688658 0.180799
      vertex 0.35511 0.0655336 0.180799
      vertex 0.35537 0.0647335 0.180799
    endloop
  endfacet
  facet normal -0 0 1
    outer loop
      vertex 0.354953 0.0680389 0.180799
      vertex 0.35511 0.0655336 0.180799
      vertex 0.35511 0.0688658 0.180799
    endloop
  endfacet
  facet normal 0 0 1
    outer loop
      vertex 0.354953 0.0680389 0.180799
      vertex 0.354953 0.0663595 0.180799
      vertex 0.35511 0.0655336 0.180799
    endloop
  endfacet
  facet normal 0 -0 1
    outer loop
      vertex 0.354953 0.0663595 0.180799
      vertex 0.354953 0.0680389 0.180799
      vertex 0.354899 0.0671997 0.180799
    endloop
  endfacet
  facet normal 0.770314 -0.637665 0
    outer loop
      vertex 0.366484 0.0626135 0.180799
      vertex 0.36702 0.063261 0.167399
      vertex 0.36702 0.063261 0.180799
    endloop
  endfacet
  facet normal 0.770314 -0.637665 0
    outer loop
      vertex 0.36702 0.063261 0.167399
      vertex 0.366484 0.0626135 0.180799
      vertex 0.366484 0.0626135 0.167399
    endloop
  endfacet
  facet normal 0.951045 -0.309051 0
    outer loop
      vertex 0.367829 0.0647335 0.180799
      vertex 0.368089 0.0655336 0.167399
      vertex 0.368089 0.0655336 0.180799
    endloop
  endfacet
  facet normal 0.951045 -0.309051 0
    outer loop
      vertex 0.368089 0.0655336 0.167399
      vertex 0.367829 0.0647335 0.180799
      vertex 0.367829 0.0647335 0.167399
    endloop
  endfacet
  facet normal 0.982188 -0.187899 0
    outer loop
      vertex 0.368089 0.0655336 0.180799
      vertex 0.368247 0.0663595 0.167399
      vertex 0.368247 0.0663595 0.180799
    endloop
  endfacet
  facet normal 0.982188 -0.187899 0
    outer loop
      vertex 0.368247 0.0663595 0.167399
      vertex 0.368089 0.0655336 0.180799
      vertex 0.368089 0.0655336 0.167399
    endloop
  endfacet
  facet normal 0 0 -1
    outer loop
      vertex 0.368247 0.0663595 0.167399
      vertex 0.368247 0.0680389 0.167399
      vertex 0.368299 0.0671997 0.167399
    endloop
  endfacet
  facet normal 0 0 -1
    outer loop
      vertex 0.368089 0.0655336 0.167399
      vertex 0.368247 0.0680389 0.167399
      vertex 0.368247 0.0663595 0.167399
    endloop
  endfacet
  facet normal 0 0 -1
    outer loop
      vertex 0.368089 0.0655336 0.167399
      vertex 0.368089 0.0688658 0.167399
      vertex 0.368247 0.0680389 0.167399
    endloop
  endfacet
  facet normal 0 0 -1
    outer loop
      vertex 0.367829 0.0647335 0.167399
      vertex 0.368089 0.0688658 0.167399
      vertex 0.368089 0.0655336 0.167399
    endloop
  endfacet
  facet normal 0 0 -1
    outer loop
      vertex 0.367829 0.0647335 0.167399
      vertex 0.367829 0.0696659 0.167399
      vertex 0.368089 0.0688658 0.167399
    endloop
  endfacet
  facet normal 0 0 -1
    outer loop
      vertex 0.367471 0.0639715 0.167399
      vertex 0.367829 0.0696659 0.167399
      vertex 0.367829 0.0647335 0.167399
    endloop
  endfacet
  facet normal 0 0 -1
    outer loop
      vertex 0.367471 0.0639715 0.167399
      vertex 0.367471 0.0704269 0.167399
      vertex 0.367829 0.0696659 0.167399
    endloop
  endfacet
  facet normal 0 0 -1
    outer loop
      vertex 0.36702 0.063261 0.167399
      vertex 0.367471 0.0704269 0.167399
      vertex 0.367471 0.0639715 0.167399
    endloop
  endfacet
  facet normal 0 0 -1
    outer loop
      vertex 0.36702 0.063261 0.167399
      vertex 0.36702 0.0711374 0.167399
      vertex 0.367471 0.0704269 0.167399
    endloop
  endfacet
  facet normal 0 0 -1
    outer loop
      vertex 0.366484 0.0626135 0.167399
      vertex 0.36702 0.0711374 0.167399
      vertex 0.36702 0.063261 0.167399
    endloop
  endfacet
  facet normal 0 0 -1
    outer loop
      vertex 0.366484 0.0626135 0.167399
      vertex 0.366484 0.0717859 0.167399
      vertex 0.36702 0.0711374 0.167399
    endloop
  endfacet
  facet normal 0 0 -1
    outer loop
      vertex 0.36587 0.0620375 0.167399
      vertex 0.366484 0.0717859 0.167399
      vertex 0.366484 0.0626135 0.167399
    endloop
  endfacet
  facet normal 0 0 -1
    outer loop
      vertex 0.36587 0.0620375 0.167399
      vertex 0.36587 0.0723619 0.167399
      vertex 0.366484 0.0717859 0.167399
    endloop
  endfacet
  facet normal 0 0 -1
    outer loop
      vertex 0.36519 0.0615425 0.167399
      vertex 0.36587 0.0723619 0.167399
      vertex 0.36587 0.0620375 0.167399
    endloop
  endfacet
  facet normal 0 0 -1
    outer loop
      vertex 0.36519 0.0615425 0.167399
      vertex 0.36519 0.0728569 0.167399
      vertex 0.36587 0.0723619 0.167399
    endloop
  endfacet
  facet normal 0 0 -1
    outer loop
      vertex 0.364452 0.0611372 0.167399
      vertex 0.36519 0.0728569 0.167399
      vertex 0.36519 0.0615425 0.167399
    endloop
  endfacet
  facet normal 0 0 -1
    outer loop
      vertex 0.364452 0.0611372 0.167399
      vertex 0.364452 0.0732622 0.167399
      vertex 0.36519 0.0728569 0.167399
    endloop
  endfacet
  facet normal 0 0 -1
    outer loop
      vertex 0.36367 0.0608273 0.167399
      vertex 0.364452 0.0732622 0.167399
      vertex 0.364452 0.0611372 0.167399
    endloop
  endfacet
  facet normal 0 0 -1
    outer loop
      vertex 0.36367 0.0608273 0.167399
      vertex 0.36367 0.0735712 0.167399
      vertex 0.364452 0.0732622 0.167399
    endloop
  endfacet
  facet normal 0 0 -1
    outer loop
      vertex 0.362855 0.0606184 0.167399
      vertex 0.36367 0.0735712 0.167399
      vertex 0.36367 0.0608273 0.167399
    endloop
  endfacet
  facet normal 0 0 -1
    outer loop
      vertex 0.362855 0.0606184 0.167399
      vertex 0.362855 0.073781 0.167399
      vertex 0.36367 0.0735712 0.167399
    endloop
  endfacet
  facet normal 0 0 -1
    outer loop
      vertex 0.36202 0.0605125 0.167399
      vertex 0.362855 0.073781 0.167399
      vertex 0.362855 0.0606184 0.167399
    endloop
  endfacet
  facet normal 0 0 -1
    outer loop
      vertex 0.36202 0.0605125 0.167399
      vertex 0.36202 0.0738859 0.167399
      vertex 0.362855 0.073781 0.167399
    endloop
  endfacet
  facet normal 0 0 -1
    outer loop
      vertex 0.361178 0.0605125 0.167399
      vertex 0.36202 0.0738859 0.167399
      vertex 0.36202 0.0605125 0.167399
    endloop
  endfacet
  facet normal 0 0 -1
    outer loop
      vertex 0.361178 0.0605125 0.167399
      vertex 0.361178 0.0738859 0.167399
      vertex 0.36202 0.0738859 0.167399
    endloop
  endfacet
  facet normal 0 0 -1
    outer loop
      vertex 0.360344 0.0606184 0.167399
      vertex 0.361178 0.0738859 0.167399
      vertex 0.361178 0.0605125 0.167399
    endloop
  endfacet
  facet normal 0 0 -1
    outer loop
      vertex 0.360344 0.0606184 0.167399
      vertex 0.360344 0.073781 0.167399
      vertex 0.361178 0.0738859 0.167399
    endloop
  endfacet
  facet normal 0 0 -1
    outer loop
      vertex 0.359529 0.0608273 0.167399
      vertex 0.360344 0.073781 0.167399
      vertex 0.360344 0.0606184 0.167399
    endloop
  endfacet
  facet normal 0 0 -1
    outer loop
      vertex 0.359529 0.0608273 0.167399
      vertex 0.359529 0.0735712 0.167399
      vertex 0.360344 0.073781 0.167399
    endloop
  endfacet
  facet normal 0 0 -1
    outer loop
      vertex 0.358747 0.0611372 0.167399
      vertex 0.359529 0.0735712 0.167399
      vertex 0.359529 0.0608273 0.167399
    endloop
  endfacet
  facet normal 0 0 -1
    outer loop
      vertex 0.358747 0.0611372 0.167399
      vertex 0.358747 0.0732622 0.167399
      vertex 0.359529 0.0735712 0.167399
    endloop
  endfacet
  facet normal 0 0 -1
    outer loop
      vertex 0.358009 0.0615425 0.167399
      vertex 0.358747 0.0732622 0.167399
      vertex 0.358747 0.0611372 0.167399
    endloop
  endfacet
  facet normal 0 0 -1
    outer loop
      vertex 0.358009 0.0615425 0.167399
      vertex 0.358009 0.0728569 0.167399
      vertex 0.358747 0.0732622 0.167399
    endloop
  endfacet
  facet normal 0 0 -1
    outer loop
      vertex 0.357328 0.0620375 0.167399
      vertex 0.358009 0.0728569 0.167399
      vertex 0.358009 0.0615425 0.167399
    endloop
  endfacet
  facet normal 0 0 -1
    outer loop
      vertex 0.357328 0.0620375 0.167399
      vertex 0.357328 0.0723619 0.167399
      vertex 0.358009 0.0728569 0.167399
    endloop
  endfacet
  facet normal 0 0 -1
    outer loop
      vertex 0.356715 0.0626135 0.167399
      vertex 0.357328 0.0723619 0.167399
      vertex 0.357328 0.0620375 0.167399
    endloop
  endfacet
  facet normal 0 0 -1
    outer loop
      vertex 0.356715 0.0626135 0.167399
      vertex 0.356715 0.0717859 0.167399
      vertex 0.357328 0.0723619 0.167399
    endloop
  endfacet
  facet normal 0 0 -1
    outer loop
      vertex 0.356179 0.063261 0.167399
      vertex 0.356715 0.0717859 0.167399
      vertex 0.356715 0.0626135 0.167399
    endloop
  endfacet
  facet normal 0 0 -1
    outer loop
      vertex 0.356179 0.063261 0.167399
      vertex 0.356179 0.0711374 0.167399
      vertex 0.356715 0.0717859 0.167399
    endloop
  endfacet
  facet normal 0 0 -1
    outer loop
      vertex 0.355728 0.0639715 0.167399
      vertex 0.356179 0.0711374 0.167399
      vertex 0.356179 0.063261 0.167399
    endloop
  endfacet
  facet normal 0 0 -1
    outer loop
      vertex 0.355728 0.0639715 0.167399
      vertex 0.355728 0.0704269 0.167399
      vertex 0.356179 0.0711374 0.167399
    endloop
  endfacet
  facet normal 0 0 -1
    outer loop
      vertex 0.35537 0.0647335 0.167399
      vertex 0.355728 0.0704269 0.167399
      vertex 0.355728 0.0639715 0.167399
    endloop
  endfacet
  facet normal 0 0 -1
    outer loop
      vertex 0.35537 0.0647335 0.167399
      vertex 0.35537 0.0696659 0.167399
      vertex 0.355728 0.0704269 0.167399
    endloop
  endfacet
  facet normal 0 0 -1
    outer loop
      vertex 0.35511 0.0655336 0.167399
      vertex 0.35537 0.0696659 0.167399
      vertex 0.35537 0.0647335 0.167399
    endloop
  endfacet
  facet normal 0 0 -1
    outer loop
      vertex 0.35511 0.0655336 0.167399
      vertex 0.35511 0.0688658 0.167399
      vertex 0.35537 0.0696659 0.167399
    endloop
  endfacet
  facet normal 0 0 -1
    outer loop
      vertex 0.354953 0.0663595 0.167399
      vertex 0.35511 0.0688658 0.167399
      vertex 0.35511 0.0655336 0.167399
    endloop
  endfacet
  facet normal 0 0 -1
    outer loop
      vertex 0.354953 0.0663595 0.167399
      vertex 0.354953 0.0680389 0.167399
      vertex 0.35511 0.0688658 0.167399
    endloop
  endfacet
  facet normal 0 -0 -1
    outer loop
      vertex 0.354953 0.0680389 0.167399
      vertex 0.354953 0.0663595 0.167399
      vertex 0.354899 0.0671997 0.167399
    endloop
  endfacet
  facet normal 0.368417 -0.929661 0
    outer loop
      vertex 0.36367 0.0608273 0.167399
      vertex 0.364452 0.0611372 0.180799
      vertex 0.36367 0.0608273 0.180799
    endloop
  endfacet
  facet normal 0.368417 -0.929661 0
    outer loop
      vertex 0.364452 0.0611372 0.180799
      vertex 0.36367 0.0608273 0.167399
      vertex 0.364452 0.0611372 0.167399
    endloop
  endfacet
  facet normal -0.58796 0.80889 0
    outer loop
      vertex 0.358009 0.0728569 0.167399
      vertex 0.357328 0.0723619 0.180799
      vertex 0.358009 0.0728569 0.180799
    endloop
  endfacet
  facet normal -0.58796 0.80889 0
    outer loop
      vertex 0.357328 0.0723619 0.180799
      vertex 0.358009 0.0728569 0.167399
      vertex 0.357328 0.0723619 0.167399
    endloop
  endfacet
  facet normal -0.249296 0.968427 0
    outer loop
      vertex 0.360344 0.073781 0.167399
      vertex 0.359529 0.0735712 0.180799
      vertex 0.360344 0.073781 0.180799
    endloop
  endfacet
  facet normal -0.249296 0.968427 0
    outer loop
      vertex 0.359529 0.0735712 0.180799
      vertex 0.360344 0.073781 0.167399
      vertex 0.359529 0.0735712 0.167399
    endloop
  endfacet
  facet normal 0.844273 -0.535914 0
    outer loop
      vertex 0.36702 0.063261 0.180799
      vertex 0.367471 0.0639715 0.167399
      vertex 0.367471 0.0639715 0.180799
    endloop
  endfacet
  facet normal 0.844273 -0.535914 0
    outer loop
      vertex 0.367471 0.0639715 0.167399
      vertex 0.36702 0.063261 0.180799
      vertex 0.36702 0.063261 0.167399
    endloop
  endfacet
  facet normal 0.481372 -0.876517 0
    outer loop
      vertex 0.364452 0.0611372 0.167399
      vertex 0.36519 0.0615425 0.180799
      vertex 0.364452 0.0611372 0.180799
    endloop
  endfacet
  facet normal 0.481372 -0.876517 0
    outer loop
      vertex 0.36519 0.0615425 0.180799
      vertex 0.364452 0.0611372 0.167399
      vertex 0.36519 0.0615425 0.167399
    endloop
  endfacet
  facet normal 0.99809 -0.0617718 0
    outer loop
      vertex 0.368247 0.0663595 0.180799
      vertex 0.368299 0.0671997 0.167399
      vertex 0.368299 0.0671997 0.180799
    endloop
  endfacet
  facet normal 0.99809 -0.0617718 0
    outer loop
      vertex 0.368299 0.0671997 0.167399
      vertex 0.368247 0.0663595 0.180799
      vertex 0.368247 0.0663595 0.167399
    endloop
  endfacet
  facet normal -0.770314 -0.637665 0
    outer loop
      vertex 0.356715 0.0626135 0.167399
      vertex 0.356179 0.063261 0.180799
      vertex 0.356179 0.063261 0.167399
    endloop
  endfacet
  facet normal -0.770314 -0.637665 0
    outer loop
      vertex 0.356179 0.063261 0.180799
      vertex 0.356715 0.0626135 0.167399
      vertex 0.356715 0.0626135 0.180799
    endloop
  endfacet
  facet normal -0.951045 -0.309051 0
    outer loop
      vertex 0.35537 0.0647335 0.167399
      vertex 0.35511 0.0655336 0.180799
      vertex 0.35511 0.0655336 0.167399
    endloop
  endfacet
  facet normal -0.951045 -0.309051 0
    outer loop
      vertex 0.35511 0.0655336 0.180799
      vertex 0.35537 0.0647335 0.167399
      vertex 0.35537 0.0647335 0.180799
    endloop
  endfacet
  facet normal -0.997941 -0.0641381 0
    outer loop
      vertex 0.354953 0.0663595 0.167399
      vertex 0.354899 0.0671997 0.180799
      vertex 0.354899 0.0671997 0.167399
    endloop
  endfacet
  facet normal -0.997941 -0.0641381 0
    outer loop
      vertex 0.354899 0.0671997 0.180799
      vertex 0.354953 0.0663595 0.167399
      vertex 0.354953 0.0663595 0.180799
    endloop
  endfacet
  facet normal 0.248292 -0.968685 0
    outer loop
      vertex 0.362855 0.0606184 0.167399
      vertex 0.36367 0.0608273 0.180799
      vertex 0.362855 0.0606184 0.180799
    endloop
  endfacet
  facet normal 0.248292 -0.968685 0
    outer loop
      vertex 0.36367 0.0608273 0.180799
      vertex 0.362855 0.0606184 0.167399
      vertex 0.36367 0.0608273 0.167399
    endloop
  endfacet
  facet normal 0.905088 -0.425225 0
    outer loop
      vertex 0.367471 0.0639715 0.180799
      vertex 0.367829 0.0647335 0.167399
      vertex 0.367829 0.0647335 0.180799
    endloop
  endfacet
  facet normal 0.905088 -0.425225 0
    outer loop
      vertex 0.367829 0.0647335 0.167399
      vertex 0.367471 0.0639715 0.180799
      vertex 0.367471 0.0639715 0.167399
    endloop
  endfacet
  facet normal -0.125967 -0.992034 0
    outer loop
      vertex 0.360344 0.0606184 0.167399
      vertex 0.361178 0.0605125 0.180799
      vertex 0.360344 0.0606184 0.180799
    endloop
  endfacet
  facet normal -0.125967 -0.992034 -0
    outer loop
      vertex 0.361178 0.0605125 0.180799
      vertex 0.360344 0.0606184 0.167399
      vertex 0.361178 0.0605125 0.167399
    endloop
  endfacet
  facet normal -0.481372 -0.876517 0
    outer loop
      vertex 0.358009 0.0615425 0.167399
      vertex 0.358747 0.0611372 0.180799
      vertex 0.358009 0.0615425 0.180799
    endloop
  endfacet
  facet normal -0.481372 -0.876517 -0
    outer loop
      vertex 0.358747 0.0611372 0.180799
      vertex 0.358009 0.0615425 0.167399
      vertex 0.358747 0.0611372 0.167399
    endloop
  endfacet
  facet normal -0.248292 -0.968685 0
    outer loop
      vertex 0.359529 0.0608273 0.167399
      vertex 0.360344 0.0606184 0.180799
      vertex 0.359529 0.0608273 0.180799
    endloop
  endfacet
  facet normal -0.248292 -0.968685 -0
    outer loop
      vertex 0.360344 0.0606184 0.180799
      vertex 0.359529 0.0608273 0.167399
      vertex 0.360344 0.0606184 0.167399
    endloop
  endfacet
  facet normal -0.684771 -0.728758 0
    outer loop
      vertex 0.356715 0.0626135 0.167399
      vertex 0.357328 0.0620375 0.180799
      vertex 0.356715 0.0626135 0.180799
    endloop
  endfacet
  facet normal -0.684771 -0.728758 -0
    outer loop
      vertex 0.357328 0.0620375 0.180799
      vertex 0.356715 0.0626135 0.167399
      vertex 0.357328 0.0620375 0.167399
    endloop
  endfacet
  facet normal -0.982407 -0.186751 0
    outer loop
      vertex 0.35511 0.0655336 0.167399
      vertex 0.354953 0.0663595 0.180799
      vertex 0.354953 0.0663595 0.167399
    endloop
  endfacet
  facet normal -0.982407 -0.186751 0
    outer loop
      vertex 0.354953 0.0663595 0.180799
      vertex 0.35511 0.0655336 0.167399
      vertex 0.35511 0.0655336 0.180799
    endloop
  endfacet
  facet normal 0.684178 -0.729315 0
    outer loop
      vertex 0.36587 0.0620375 0.167399
      vertex 0.366484 0.0626135 0.180799
      vertex 0.36587 0.0620375 0.180799
    endloop
  endfacet
  facet normal 0.684178 -0.729315 0
    outer loop
      vertex 0.366484 0.0626135 0.180799
      vertex 0.36587 0.0620375 0.167399
      vertex 0.366484 0.0626135 0.167399
    endloop
  endfacet
  facet normal 0.588525 -0.808479 0
    outer loop
      vertex 0.36519 0.0615425 0.167399
      vertex 0.36587 0.0620375 0.180799
      vertex 0.36519 0.0615425 0.180799
    endloop
  endfacet
  facet normal 0.588525 -0.808479 0
    outer loop
      vertex 0.36587 0.0620375 0.180799
      vertex 0.36519 0.0615425 0.167399
      vertex 0.36587 0.0620375 0.167399
    endloop
  endfacet
  facet normal -0.58796 -0.80889 0
    outer loop
      vertex 0.357328 0.0620375 0.167399
      vertex 0.358009 0.0615425 0.180799
      vertex 0.357328 0.0620375 0.180799
    endloop
  endfacet
  facet normal -0.58796 -0.80889 -0
    outer loop
      vertex 0.358009 0.0615425 0.180799
      vertex 0.357328 0.0620375 0.167399
      vertex 0.358009 0.0615425 0.167399
    endloop
  endfacet
  facet normal -0.844273 -0.535914 0
    outer loop
      vertex 0.356179 0.063261 0.167399
      vertex 0.355728 0.0639715 0.180799
      vertex 0.355728 0.0639715 0.167399
    endloop
  endfacet
  facet normal -0.844273 -0.535914 0
    outer loop
      vertex 0.355728 0.0639715 0.180799
      vertex 0.356179 0.063261 0.167399
      vertex 0.356179 0.063261 0.180799
    endloop
  endfacet
  facet normal -0.905088 -0.425225 0
    outer loop
      vertex 0.355728 0.0639715 0.167399
      vertex 0.35537 0.0647335 0.180799
      vertex 0.35537 0.0647335 0.167399
    endloop
  endfacet
  facet normal -0.905088 -0.425225 0
    outer loop
      vertex 0.35537 0.0647335 0.180799
      vertex 0.355728 0.0639715 0.167399
      vertex 0.355728 0.0639715 0.180799
    endloop
  endfacet
  facet normal -0.368417 -0.929661 0
    outer loop
      vertex 0.358747 0.0611372 0.167399
      vertex 0.359529 0.0608273 0.180799
      vertex 0.358747 0.0611372 0.180799
    endloop
  endfacet
  facet normal -0.368417 -0.929661 -0
    outer loop
      vertex 0.359529 0.0608273 0.180799
      vertex 0.358747 0.0611372 0.167399
      vertex 0.359529 0.0608273 0.167399
    endloop
  endfacet
endsolid OpenSCAD_Model
