solid OpenSCAD_Model
  facet normal -1 0 0
    outer loop
      vertex 0 0 0
      vertex 0 0.669426 0.150978
      vertex 0 0.669426 0
    endloop
  endfacet
  facet normal -1 -0 0
    outer loop
      vertex 0 0.669426 0.150978
      vertex 0 0 0
      vertex 0 0 0.150978
    endloop
  endfacet
  facet normal -0 0 1
    outer loop
      vertex 0 0.669426 0.150978
      vertex 0.75 0 0.150978
      vertex 0.75 0.669426 0.150978
    endloop
  endfacet
  facet normal 0 0 1
    outer loop
      vertex 0.75 0 0.150978
      vertex 0 0.669426 0.150978
      vertex 0 0 0.150978
    endloop
  endfacet
  facet normal 1 -0 0
    outer loop
      vertex 0.75 0 0.150978
      vertex 0.75 0.669426 0
      vertex 0.75 0.669426 0.150978
    endloop
  endfacet
  facet normal 1 0 0
    outer loop
      vertex 0.75 0.669426 0
      vertex 0.75 0 0.150978
      vertex 0.75 0 0
    endloop
  endfacet
  facet normal 0 1 -0
    outer loop
      vertex 0.75 0.669426 0
      vertex 0 0.669426 0.150978
      vertex 0.75 0.669426 0.150978
    endloop
  endfacet
  facet normal 0 1 0
    outer loop
      vertex 0 0.669426 0.150978
      vertex 0.75 0.669426 0
      vertex 0 0.669426 0
    endloop
  endfacet
  facet normal 0 0 -1
    outer loop
      vertex 0.75 0 0
      vertex 0.722899 0.513149 0
      vertex 0.75 0.669426 0
    endloop
  endfacet
  facet normal 0 0 -1
    outer loop
      vertex 0.6915 0.199312 0
      vertex 0.75 0 0
      vertex 0.6915 0.108999 0
    endloop
  endfacet
  facet normal 0 0 -1
    outer loop
      vertex 0.75 0 0
      vertex 0.535072 0.108999 0
      vertex 0.6915 0.108999 0
    endloop
  endfacet
  facet normal 0 0 -1
    outer loop
      vertex 0.259731 0.157782 0
      vertex 0.535072 0.199312 0
      vertex 0.535072 0.108999 0
    endloop
  endfacet
  facet normal 0 0 -1
    outer loop
      vertex 0.324623 0.624725 0
      vertex 0.515662 0.513149 0
      vertex 0.324623 0.508863 0
    endloop
  endfacet
  facet normal 0 -0 -1
    outer loop
      vertex 0.324623 0.508863 0
      vertex 0.535072 0.199312 0
      vertex 0.259731 0.157782 0
    endloop
  endfacet
  facet normal 0 0 -1
    outer loop
      vertex 0.259731 0.157782 0
      vertex 0.535072 0.108999 0
      vertex 0.259731 0.0293999 0
    endloop
  endfacet
  facet normal 0 0 -1
    outer loop
      vertex 0.75 0 0
      vertex 0.259731 0.0293999 0
      vertex 0.535072 0.108999 0
    endloop
  endfacet
  facet normal 0 0 -1
    outer loop
      vertex 0 0 0
      vertex 0.259731 0.0293999 0
      vertex 0.75 0 0
    endloop
  endfacet
  facet normal -0 0 -1
    outer loop
      vertex 0.0567999 0.0293999 0
      vertex 0 0 0
      vertex 0.0567999 0.157782 0
    endloop
  endfacet
  facet normal -0 0 -1
    outer loop
      vertex 0.259731 0.0293999 0
      vertex 0 0 0
      vertex 0.0567999 0.0293999 0
    endloop
  endfacet
  facet normal 0 0 -1
    outer loop
      vertex 0.722899 0.624226 0
      vertex 0.75 0.669426 0
      vertex 0.722899 0.513149 0
    endloop
  endfacet
  facet normal 0 0 -1
    outer loop
      vertex 0.515662 0.624226 0
      vertex 0.75 0.669426 0
      vertex 0.722899 0.624226 0
    endloop
  endfacet
  facet normal 0 0 -1
    outer loop
      vertex 0.515662 0.513149 0
      vertex 0.324623 0.624725 0
      vertex 0.515662 0.624226 0
    endloop
  endfacet
  facet normal 0 0 -1
    outer loop
      vertex 0.324623 0.624725 0
      vertex 0.75 0.669426 0
      vertex 0.515662 0.624226 0
    endloop
  endfacet
  facet normal 0 0 -1
    outer loop
      vertex 0 0.669426 0
      vertex 0.324623 0.624725 0
      vertex 0.0892992 0.624725 0
    endloop
  endfacet
  facet normal 0 0 -1
    outer loop
      vertex 0.0567999 0.157782 0
      vertex 0 0.669426 0
      vertex 0.0892992 0.508863 0
    endloop
  endfacet
  facet normal 0 0 -1
    outer loop
      vertex 0.324623 0.624725 0
      vertex 0 0.669426 0
      vertex 0.75 0.669426 0
    endloop
  endfacet
  facet normal 0 0 -1
    outer loop
      vertex 0.0892992 0.508863 0
      vertex 0 0.669426 0
      vertex 0.0892992 0.624725 0
    endloop
  endfacet
  facet normal 0 0 -1
    outer loop
      vertex 0.75 0 0
      vertex 0.6915 0.199312 0
      vertex 0.722899 0.513149 0
    endloop
  endfacet
  facet normal 0 0 -1
    outer loop
      vertex 0.515662 0.513149 0
      vertex 0.6915 0.199312 0
      vertex 0.535072 0.199312 0
    endloop
  endfacet
  facet normal 0 0 -1
    outer loop
      vertex 0.6915 0.199312 0
      vertex 0.515662 0.513149 0
      vertex 0.722899 0.513149 0
    endloop
  endfacet
  facet normal 0 0 -1
    outer loop
      vertex 0.535072 0.199312 0
      vertex 0.324623 0.508863 0
      vertex 0.515662 0.513149 0
    endloop
  endfacet
  facet normal 0 0 -1
    outer loop
      vertex 0.259731 0.157782 0
      vertex 0.0892992 0.508863 0
      vertex 0.324623 0.508863 0
    endloop
  endfacet
  facet normal 0 0 -1
    outer loop
      vertex 0 0.669426 0
      vertex 0.0567999 0.157782 0
      vertex 0 0 0
    endloop
  endfacet
  facet normal 0 0 -1
    outer loop
      vertex 0.0567999 0.157782 0
      vertex 0.0892992 0.508863 0
      vertex 0.259731 0.157782 0
    endloop
  endfacet
  facet normal 0 -1 0
    outer loop
      vertex 0 0 0
      vertex 0.75 0 0.150978
      vertex 0 0 0.150978
    endloop
  endfacet
  facet normal 0 -1 -0
    outer loop
      vertex 0.75 0 0.150978
      vertex 0 0 0
      vertex 0.75 0 0
    endloop
  endfacet
  facet normal -1 0 0
    outer loop
      vertex 0.535072 0.108999 -0.150999
      vertex 0.535072 0.199312 0
      vertex 0.535072 0.199312 -0.150999
    endloop
  endfacet
  facet normal -1 -0 0
    outer loop
      vertex 0.535072 0.199312 0
      vertex 0.535072 0.108999 -0.150999
      vertex 0.535072 0.108999 0
    endloop
  endfacet
  facet normal 1 -0 0
    outer loop
      vertex 0.6915 0.108999 0
      vertex 0.6915 0.199312 -0.4529
      vertex 0.6915 0.199312 0
    endloop
  endfacet
  facet normal 1 0 0
    outer loop
      vertex 0.6915 0.199312 -0.4529
      vertex 0.6915 0.108999 0
      vertex 0.6915 0.108999 -0.4529
    endloop
  endfacet
  facet normal 0 1 0
    outer loop
      vertex 0.6915 0.199312 0
      vertex 0.613285 0.199312 -0.150999
      vertex 0.535072 0.199312 0
    endloop
  endfacet
  facet normal 0 1 -0
    outer loop
      vertex 0.6915 0.199312 -0.4529
      vertex 0.613285 0.199312 -0.150999
      vertex 0.6915 0.199312 0
    endloop
  endfacet
  facet normal 0 1 0
    outer loop
      vertex 0.613285 0.199312 -0.150999
      vertex 0.6915 0.199312 -0.4529
      vertex 0.613285 0.199312 -0.4529
    endloop
  endfacet
  facet normal 0 1 0
    outer loop
      vertex 0.535072 0.199312 0
      vertex 0.613285 0.199312 -0.150999
      vertex 0.535072 0.199312 -0.150999
    endloop
  endfacet
  facet normal 0 0 -1
    outer loop
      vertex 0.535072 0.108999 -0.150999
      vertex 0.613285 0.199312 -0.150999
      vertex 0.613285 0.108999 -0.150999
    endloop
  endfacet
  facet normal -0 0 -1
    outer loop
      vertex 0.613285 0.199312 -0.150999
      vertex 0.535072 0.108999 -0.150999
      vertex 0.535072 0.199312 -0.150999
    endloop
  endfacet
  facet normal 0 -1 0
    outer loop
      vertex 0.613285 0.108999 -0.150999
      vertex 0.535072 0.108999 0
      vertex 0.535072 0.108999 -0.150999
    endloop
  endfacet
  facet normal 0 -1 0
    outer loop
      vertex 0.535072 0.108999 0
      vertex 0.613285 0.108999 -0.150999
      vertex 0.6915 0.108999 0
    endloop
  endfacet
  facet normal 0 -1 0
    outer loop
      vertex 0.6915 0.108999 -0.4529
      vertex 0.613285 0.108999 -0.150999
      vertex 0.613285 0.108999 -0.4529
    endloop
  endfacet
  facet normal 0 -1 0
    outer loop
      vertex 0.613285 0.108999 -0.150999
      vertex 0.6915 0.108999 -0.4529
      vertex 0.6915 0.108999 0
    endloop
  endfacet
  facet normal -1 0 0
    outer loop
      vertex 0.0567999 0.0293999 -0.4529
      vertex 0.0567999 0.157782 0
      vertex 0.0567999 0.157782 -0.4529
    endloop
  endfacet
  facet normal -1 -0 0
    outer loop
      vertex 0.0567999 0.157782 0
      vertex 0.0567999 0.0293999 -0.4529
      vertex 0.0567999 0.0293999 0
    endloop
  endfacet
  facet normal 1 -0 0
    outer loop
      vertex 0.259731 0.0293999 0
      vertex 0.259731 0.157782 -0.150999
      vertex 0.259731 0.157782 0
    endloop
  endfacet
  facet normal 1 0 0
    outer loop
      vertex 0.259731 0.157782 -0.150999
      vertex 0.259731 0.0293999 0
      vertex 0.259731 0.0293999 -0.150999
    endloop
  endfacet
  facet normal 0 0 -1
    outer loop
      vertex 0.158265 0.0293999 -0.150999
      vertex 0.259731 0.157782 -0.150999
      vertex 0.259731 0.0293999 -0.150999
    endloop
  endfacet
  facet normal -0 0 -1
    outer loop
      vertex 0.259731 0.157782 -0.150999
      vertex 0.158265 0.0293999 -0.150999
      vertex 0.158265 0.157782 -0.150999
    endloop
  endfacet
  facet normal 0 -1 0
    outer loop
      vertex 0.0567999 0.0293999 0
      vertex 0.158265 0.0293999 -0.150999
      vertex 0.259731 0.0293999 0
    endloop
  endfacet
  facet normal 0 -1 0
    outer loop
      vertex 0.0567999 0.0293999 -0.4529
      vertex 0.158265 0.0293999 -0.150999
      vertex 0.0567999 0.0293999 0
    endloop
  endfacet
  facet normal 0 -1 -0
    outer loop
      vertex 0.158265 0.0293999 -0.150999
      vertex 0.0567999 0.0293999 -0.4529
      vertex 0.158265 0.0293999 -0.4529
    endloop
  endfacet
  facet normal 0 -1 -0
    outer loop
      vertex 0.259731 0.0293999 0
      vertex 0.158265 0.0293999 -0.150999
      vertex 0.259731 0.0293999 -0.150999
    endloop
  endfacet
  facet normal 0 1 0
    outer loop
      vertex 0.158265 0.157782 -0.150999
      vertex 0.259731 0.157782 0
      vertex 0.259731 0.157782 -0.150999
    endloop
  endfacet
  facet normal 0 1 0
    outer loop
      vertex 0.259731 0.157782 0
      vertex 0.158265 0.157782 -0.150999
      vertex 0.0567999 0.157782 0
    endloop
  endfacet
  facet normal 0 1 0
    outer loop
      vertex 0.0567999 0.157782 -0.4529
      vertex 0.158265 0.157782 -0.150999
      vertex 0.158265 0.157782 -0.4529
    endloop
  endfacet
  facet normal 0 1 0
    outer loop
      vertex 0.158265 0.157782 -0.150999
      vertex 0.0567999 0.157782 -0.4529
      vertex 0.0567999 0.157782 0
    endloop
  endfacet
  facet normal -1 0 0
    outer loop
      vertex 0.515662 0.513149 -0.150999
      vertex 0.515662 0.624226 0
      vertex 0.515662 0.624226 -0.150999
    endloop
  endfacet
  facet normal -1 -0 0
    outer loop
      vertex 0.515662 0.624226 0
      vertex 0.515662 0.513149 -0.150999
      vertex 0.515662 0.513149 0
    endloop
  endfacet
  facet normal 1 -0 0
    outer loop
      vertex 0.722899 0.513149 0
      vertex 0.722899 0.624226 -0.4529
      vertex 0.722899 0.624226 0
    endloop
  endfacet
  facet normal 1 0 0
    outer loop
      vertex 0.722899 0.624226 -0.4529
      vertex 0.722899 0.513149 0
      vertex 0.722899 0.513149 -0.4529
    endloop
  endfacet
  facet normal 0 1 0
    outer loop
      vertex 0.722899 0.624226 0
      vertex 0.619281 0.624226 -0.150999
      vertex 0.515662 0.624226 0
    endloop
  endfacet
  facet normal 0 1 -0
    outer loop
      vertex 0.722899 0.624226 -0.4529
      vertex 0.619281 0.624226 -0.150999
      vertex 0.722899 0.624226 0
    endloop
  endfacet
  facet normal 0 1 0
    outer loop
      vertex 0.619281 0.624226 -0.150999
      vertex 0.722899 0.624226 -0.4529
      vertex 0.619281 0.624226 -0.4529
    endloop
  endfacet
  facet normal 0 1 0
    outer loop
      vertex 0.515662 0.624226 0
      vertex 0.619281 0.624226 -0.150999
      vertex 0.515662 0.624226 -0.150999
    endloop
  endfacet
  facet normal 0 0 -1
    outer loop
      vertex 0.515662 0.513149 -0.150999
      vertex 0.619281 0.624226 -0.150999
      vertex 0.619281 0.513149 -0.150999
    endloop
  endfacet
  facet normal -0 0 -1
    outer loop
      vertex 0.619281 0.624226 -0.150999
      vertex 0.515662 0.513149 -0.150999
      vertex 0.515662 0.624226 -0.150999
    endloop
  endfacet
  facet normal 0 -1 0
    outer loop
      vertex 0.619281 0.513149 -0.150999
      vertex 0.515662 0.513149 0
      vertex 0.515662 0.513149 -0.150999
    endloop
  endfacet
  facet normal 0 -1 0
    outer loop
      vertex 0.515662 0.513149 0
      vertex 0.619281 0.513149 -0.150999
      vertex 0.722899 0.513149 0
    endloop
  endfacet
  facet normal 0 -1 0
    outer loop
      vertex 0.722899 0.513149 -0.4529
      vertex 0.619281 0.513149 -0.150999
      vertex 0.619281 0.513149 -0.4529
    endloop
  endfacet
  facet normal 0 -1 0
    outer loop
      vertex 0.619281 0.513149 -0.150999
      vertex 0.722899 0.513149 -0.4529
      vertex 0.722899 0.513149 0
    endloop
  endfacet
  facet normal -1 0 0
    outer loop
      vertex 0.0892992 0.508863 -0.4529
      vertex 0.0892992 0.624725 0
      vertex 0.0892992 0.624725 -0.4529
    endloop
  endfacet
  facet normal -1 -0 0
    outer loop
      vertex 0.0892992 0.624725 0
      vertex 0.0892992 0.508863 -0.4529
      vertex 0.0892992 0.508863 0
    endloop
  endfacet
  facet normal 1 -0 0
    outer loop
      vertex 0.324623 0.508863 0
      vertex 0.324623 0.624725 -0.150999
      vertex 0.324623 0.624725 0
    endloop
  endfacet
  facet normal 1 0 0
    outer loop
      vertex 0.324623 0.624725 -0.150999
      vertex 0.324623 0.508863 0
      vertex 0.324623 0.508863 -0.150999
    endloop
  endfacet
  facet normal 0 1 0
    outer loop
      vertex 0.206962 0.624725 -0.150999
      vertex 0.324623 0.624725 0
      vertex 0.324623 0.624725 -0.150999
    endloop
  endfacet
  facet normal 0 1 0
    outer loop
      vertex 0.324623 0.624725 0
      vertex 0.206962 0.624725 -0.150999
      vertex 0.0892992 0.624725 0
    endloop
  endfacet
  facet normal 0 1 0
    outer loop
      vertex 0.0892992 0.624725 -0.4529
      vertex 0.206962 0.624725 -0.150999
      vertex 0.206962 0.624725 -0.4529
    endloop
  endfacet
  facet normal 0 1 0
    outer loop
      vertex 0.206962 0.624725 -0.150999
      vertex 0.0892992 0.624725 -0.4529
      vertex 0.0892992 0.624725 0
    endloop
  endfacet
  facet normal 0 0 -1
    outer loop
      vertex 0.206962 0.508863 -0.150999
      vertex 0.324623 0.624725 -0.150999
      vertex 0.324623 0.508863 -0.150999
    endloop
  endfacet
  facet normal -0 0 -1
    outer loop
      vertex 0.324623 0.624725 -0.150999
      vertex 0.206962 0.508863 -0.150999
      vertex 0.206962 0.624725 -0.150999
    endloop
  endfacet
  facet normal 0 -1 0
    outer loop
      vertex 0.0892992 0.508863 0
      vertex 0.206962 0.508863 -0.150999
      vertex 0.324623 0.508863 0
    endloop
  endfacet
  facet normal 0 -1 0
    outer loop
      vertex 0.0892992 0.508863 -0.4529
      vertex 0.206962 0.508863 -0.150999
      vertex 0.0892992 0.508863 0
    endloop
  endfacet
  facet normal 0 -1 -0
    outer loop
      vertex 0.206962 0.508863 -0.150999
      vertex 0.0892992 0.508863 -0.4529
      vertex 0.206962 0.508863 -0.4529
    endloop
  endfacet
  facet normal 0 -1 -0
    outer loop
      vertex 0.324623 0.508863 0
      vertex 0.206962 0.508863 -0.150999
      vertex 0.324623 0.508863 -0.150999
    endloop
  endfacet
  facet normal -1 0 0
    outer loop
      vertex 0.613285 0.108999 -0.4529
      vertex 0.613285 0.199312 -0.150999
      vertex 0.613285 0.199312 -0.4529
    endloop
  endfacet
  facet normal -1 -0 0
    outer loop
      vertex 0.613285 0.199312 -0.150999
      vertex 0.613285 0.108999 -0.4529
      vertex 0.613285 0.108999 -0.150999
    endloop
  endfacet
  facet normal 0 0 -1
    outer loop
      vertex 0.613285 0.108999 -0.4529
      vertex 0.6915 0.199312 -0.4529
      vertex 0.6915 0.108999 -0.4529
    endloop
  endfacet
  facet normal -0 0 -1
    outer loop
      vertex 0.6915 0.199312 -0.4529
      vertex 0.613285 0.108999 -0.4529
      vertex 0.613285 0.199312 -0.4529
    endloop
  endfacet
  facet normal 1 -0 0
    outer loop
      vertex 0.158265 0.0293999 -0.150999
      vertex 0.158265 0.157782 -0.4529
      vertex 0.158265 0.157782 -0.150999
    endloop
  endfacet
  facet normal 1 0 0
    outer loop
      vertex 0.158265 0.157782 -0.4529
      vertex 0.158265 0.0293999 -0.150999
      vertex 0.158265 0.0293999 -0.4529
    endloop
  endfacet
  facet normal 0 0 -1
    outer loop
      vertex 0.0567999 0.0293999 -0.4529
      vertex 0.158265 0.157782 -0.4529
      vertex 0.158265 0.0293999 -0.4529
    endloop
  endfacet
  facet normal -0 0 -1
    outer loop
      vertex 0.158265 0.157782 -0.4529
      vertex 0.0567999 0.0293999 -0.4529
      vertex 0.0567999 0.157782 -0.4529
    endloop
  endfacet
  facet normal -1 0 0
    outer loop
      vertex 0.619281 0.513149 -0.4529
      vertex 0.619281 0.624226 -0.150999
      vertex 0.619281 0.624226 -0.4529
    endloop
  endfacet
  facet normal -1 -0 0
    outer loop
      vertex 0.619281 0.624226 -0.150999
      vertex 0.619281 0.513149 -0.4529
      vertex 0.619281 0.513149 -0.150999
    endloop
  endfacet
  facet normal 0 0 -1
    outer loop
      vertex 0.619281 0.513149 -0.4529
      vertex 0.722899 0.624226 -0.4529
      vertex 0.722899 0.513149 -0.4529
    endloop
  endfacet
  facet normal -0 0 -1
    outer loop
      vertex 0.722899 0.624226 -0.4529
      vertex 0.619281 0.513149 -0.4529
      vertex 0.619281 0.624226 -0.4529
    endloop
  endfacet
  facet normal 1 -0 0
    outer loop
      vertex 0.206962 0.508863 -0.150999
      vertex 0.206962 0.624725 -0.4529
      vertex 0.206962 0.624725 -0.150999
    endloop
  endfacet
  facet normal 1 0 0
    outer loop
      vertex 0.206962 0.624725 -0.4529
      vertex 0.206962 0.508863 -0.150999
      vertex 0.206962 0.508863 -0.4529
    endloop
  endfacet
  facet normal 0 0 -1
    outer loop
      vertex 0.0892992 0.508863 -0.4529
      vertex 0.206962 0.624725 -0.4529
      vertex 0.206962 0.508863 -0.4529
    endloop
  endfacet
  facet normal -0 0 -1
    outer loop
      vertex 0.206962 0.624725 -0.4529
      vertex 0.0892992 0.508863 -0.4529
      vertex 0.0892992 0.624725 -0.4529
    endloop
  endfacet
endsolid OpenSCAD_Model
