solid OpenSCAD_Model
  facet normal -1 0 0
    outer loop
      vertex 0 0 0
      vertex 0 12 7.5
      vertex 0 12 0
    endloop
  endfacet
  facet normal -1 -0 0
    outer loop
      vertex 0 12 7.5
      vertex 0 0 0
      vertex 0 0 7.5
    endloop
  endfacet
  facet normal -1 0 0
    outer loop
      vertex 200 12 0
      vertex 200 26 7.5
      vertex 200 26 0
    endloop
  endfacet
  facet normal -1 -0 0
    outer loop
      vertex 200 26 7.5
      vertex 200 12 0
      vertex 200 12 7.5
    endloop
  endfacet
  facet normal -1 0 0
    outer loop
      vertex 200 -14 0
      vertex 200 0 7.5
      vertex 200 0 0
    endloop
  endfacet
  facet normal -1 -0 0
    outer loop
      vertex 200 0 7.5
      vertex 200 -14 0
      vertex 200 -14 7.5
    endloop
  endfacet
  facet normal 0 1 -0
    outer loop
      vertex 200 12 0
      vertex 0 12 7.5
      vertex 200 12 7.5
    endloop
  endfacet
  facet normal 0 1 0
    outer loop
      vertex 0 12 7.5
      vertex 200 12 0
      vertex 0 12 0
    endloop
  endfacet
  facet normal 0 0 -1
    outer loop
      vertex 0 0 0
      vertex 200 12 0
      vertex 200 0 0
    endloop
  endfacet
  facet normal -0 0 -1
    outer loop
      vertex 200 12 0
      vertex 0 0 0
      vertex 0 12 0
    endloop
  endfacet
  facet normal 0 0 -1
    outer loop
      vertex 200 0 0
      vertex 230 -14 0
      vertex 200 -14 0
    endloop
  endfacet
  facet normal 0 0 -1
    outer loop
      vertex 230 -14 0
      vertex 200 0 0
      vertex 230 26 0
    endloop
  endfacet
  facet normal 0 0 -1
    outer loop
      vertex 200 12 0
      vertex 230 26 0
      vertex 200 0 0
    endloop
  endfacet
  facet normal -0 0 -1
    outer loop
      vertex 230 26 0
      vertex 200 12 0
      vertex 200 26 0
    endloop
  endfacet
  facet normal 0 -1 0
    outer loop
      vertex 0 0 0
      vertex 200 0 7.5
      vertex 0 0 7.5
    endloop
  endfacet
  facet normal 0 -1 -0
    outer loop
      vertex 200 0 7.5
      vertex 0 0 0
      vertex 200 0 0
    endloop
  endfacet
  facet normal -0 0 1
    outer loop
      vertex 0 12 7.5
      vertex 200 0 7.5
      vertex 200 12 7.5
    endloop
  endfacet
  facet normal 0 0 1
    outer loop
      vertex 200 0 7.5
      vertex 0 12 7.5
      vertex 0 0 7.5
    endloop
  endfacet
  facet normal 0 0 1
    outer loop
      vertex 200 12 7.5
      vertex 230 26 7.5
      vertex 200 26 7.5
    endloop
  endfacet
  facet normal 0 0 1
    outer loop
      vertex 230 26 7.5
      vertex 200 12 7.5
      vertex 230 -14 7.5
    endloop
  endfacet
  facet normal -0 0 1
    outer loop
      vertex 200 0 7.5
      vertex 230 -14 7.5
      vertex 200 12 7.5
    endloop
  endfacet
  facet normal 0 0 1
    outer loop
      vertex 230 -14 7.5
      vertex 200 0 7.5
      vertex 200 -14 7.5
    endloop
  endfacet
  facet normal 1 -0 0
    outer loop
      vertex 230 -14 7.5
      vertex 230 26 0
      vertex 230 26 7.5
    endloop
  endfacet
  facet normal 1 0 0
    outer loop
      vertex 230 26 0
      vertex 230 -14 7.5
      vertex 230 -14 0
    endloop
  endfacet
  facet normal 0 -1 0
    outer loop
      vertex 200 -14 0
      vertex 230 -14 7.5
      vertex 200 -14 7.5
    endloop
  endfacet
  facet normal 0 -1 -0
    outer loop
      vertex 230 -14 7.5
      vertex 200 -14 0
      vertex 230 -14 0
    endloop
  endfacet
  facet normal 0 1 -0
    outer loop
      vertex 230 26 0
      vertex 200 26 7.5
      vertex 230 26 7.5
    endloop
  endfacet
  facet normal 0 1 0
    outer loop
      vertex 200 26 7.5
      vertex 230 26 0
      vertex 200 26 0
    endloop
  endfacet
endsolid OpenSCAD_Model
