solid OpenSCAD_Model
  facet normal -1 0 0
    outer loop
      vertex 0.308 0.308 0.2277
      vertex 0.308 0.441928 0.441986
      vertex 0.308 0.441928 0.2277
    endloop
  endfacet
  facet normal -1 -0 0
    outer loop
      vertex 0.308 0.441928 0.441986
      vertex 0.308 0.308 0.2277
      vertex 0.308 0.308 0.441986
    endloop
  endfacet
  facet normal 0 0 1
    outer loop
      vertex 0.374963 0.441928 0.441986
      vertex 0.362963 0.429928 0.441986
      vertex 0.374963 0.308 0.441986
    endloop
  endfacet
  facet normal 0 0 1
    outer loop
      vertex 0.374963 0.441928 0.441986
      vertex 0.319999 0.429928 0.441986
      vertex 0.362963 0.429928 0.441986
    endloop
  endfacet
  facet normal 0 0 1
    outer loop
      vertex 0.319999 0.429928 0.441986
      vertex 0.308 0.441928 0.441986
      vertex 0.319999 0.319999 0.441986
    endloop
  endfacet
  facet normal -0 0 1
    outer loop
      vertex 0.308 0.441928 0.441986
      vertex 0.319999 0.429928 0.441986
      vertex 0.374963 0.441928 0.441986
    endloop
  endfacet
  facet normal -0 0 1
    outer loop
      vertex 0.362963 0.319999 0.441986
      vertex 0.374963 0.308 0.441986
      vertex 0.362963 0.429928 0.441986
    endloop
  endfacet
  facet normal -0 0 1
    outer loop
      vertex 0.319999 0.319999 0.441986
      vertex 0.374963 0.308 0.441986
      vertex 0.362963 0.319999 0.441986
    endloop
  endfacet
  facet normal 0 0 1
    outer loop
      vertex 0.319999 0.319999 0.441986
      vertex 0.308 0.308 0.441986
      vertex 0.374963 0.308 0.441986
    endloop
  endfacet
  facet normal 0 0 1
    outer loop
      vertex 0.308 0.308 0.441986
      vertex 0.319999 0.319999 0.441986
      vertex 0.308 0.441928 0.441986
    endloop
  endfacet
  facet normal 1 -0 0
    outer loop
      vertex 0.374963 0.308 0.441986
      vertex 0.374963 0.441928 0.2277
      vertex 0.374963 0.441928 0.441986
    endloop
  endfacet
  facet normal 1 0 0
    outer loop
      vertex 0.374963 0.441928 0.2277
      vertex 0.374963 0.308 0.441986
      vertex 0.374963 0.308 0.2277
    endloop
  endfacet
  facet normal 0 1 -0
    outer loop
      vertex 0.374963 0.441928 0.2277
      vertex 0.308 0.441928 0.441986
      vertex 0.374963 0.441928 0.441986
    endloop
  endfacet
  facet normal 0 1 0
    outer loop
      vertex 0.308 0.441928 0.441986
      vertex 0.374963 0.441928 0.2277
      vertex 0.308 0.441928 0.2277
    endloop
  endfacet
  facet normal 0 0 -1
    outer loop
      vertex 0.374963 0.308 0.2277
      vertex 0.362963 0.319999 0.2277
      vertex 0.374963 0.441928 0.2277
    endloop
  endfacet
  facet normal 0 0 -1
    outer loop
      vertex 0.374963 0.308 0.2277
      vertex 0.319999 0.319999 0.2277
      vertex 0.362963 0.319999 0.2277
    endloop
  endfacet
  facet normal -0 0 -1
    outer loop
      vertex 0.319999 0.319999 0.2277
      vertex 0.308 0.308 0.2277
      vertex 0.319999 0.429928 0.2277
    endloop
  endfacet
  facet normal 0 0 -1
    outer loop
      vertex 0.308 0.308 0.2277
      vertex 0.319999 0.319999 0.2277
      vertex 0.374963 0.308 0.2277
    endloop
  endfacet
  facet normal 0 0 -1
    outer loop
      vertex 0.362963 0.429928 0.2277
      vertex 0.374963 0.441928 0.2277
      vertex 0.362963 0.319999 0.2277
    endloop
  endfacet
  facet normal 0 0 -1
    outer loop
      vertex 0.319999 0.429928 0.2277
      vertex 0.374963 0.441928 0.2277
      vertex 0.362963 0.429928 0.2277
    endloop
  endfacet
  facet normal 0 0 -1
    outer loop
      vertex 0.319999 0.429928 0.2277
      vertex 0.308 0.441928 0.2277
      vertex 0.374963 0.441928 0.2277
    endloop
  endfacet
  facet normal 0 0 -1
    outer loop
      vertex 0.308 0.441928 0.2277
      vertex 0.319999 0.429928 0.2277
      vertex 0.308 0.308 0.2277
    endloop
  endfacet
  facet normal 0 -1 0
    outer loop
      vertex 0.308 0.308 0.2277
      vertex 0.374963 0.308 0.441986
      vertex 0.308 0.308 0.441986
    endloop
  endfacet
  facet normal 0 -1 -0
    outer loop
      vertex 0.374963 0.308 0.441986
      vertex 0.308 0.308 0.2277
      vertex 0.374963 0.308 0.2277
    endloop
  endfacet
  facet normal 1 -0 0
    outer loop
      vertex 0.319999 0.319999 0.441986
      vertex 0.319999 0.429928 0.2277
      vertex 0.319999 0.429928 0.441986
    endloop
  endfacet
  facet normal 1 0 0
    outer loop
      vertex 0.319999 0.429928 0.2277
      vertex 0.319999 0.319999 0.441986
      vertex 0.319999 0.319999 0.2277
    endloop
  endfacet
  facet normal -1 0 0
    outer loop
      vertex 0.362963 0.319999 0.2277
      vertex 0.362963 0.429928 0.441986
      vertex 0.362963 0.429928 0.2277
    endloop
  endfacet
  facet normal -1 -0 0
    outer loop
      vertex 0.362963 0.429928 0.441986
      vertex 0.362963 0.319999 0.2277
      vertex 0.362963 0.319999 0.441986
    endloop
  endfacet
  facet normal 0 -1 0
    outer loop
      vertex 0.319999 0.429928 0.2277
      vertex 0.362963 0.429928 0.441986
      vertex 0.319999 0.429928 0.441986
    endloop
  endfacet
  facet normal 0 -1 -0
    outer loop
      vertex 0.362963 0.429928 0.441986
      vertex 0.319999 0.429928 0.2277
      vertex 0.362963 0.429928 0.2277
    endloop
  endfacet
  facet normal 0 1 -0
    outer loop
      vertex 0.362963 0.319999 0.2277
      vertex 0.319999 0.319999 0.441986
      vertex 0.362963 0.319999 0.441986
    endloop
  endfacet
  facet normal 0 1 0
    outer loop
      vertex 0.319999 0.319999 0.441986
      vertex 0.362963 0.319999 0.2277
      vertex 0.319999 0.319999 0.2277
    endloop
  endfacet
  facet normal -0.995558 -0.0941528 0
    outer loop
      vertex -0.186021 -0.0234995 0
      vertex -0.18713 -0.0117731 0.227699
      vertex -0.18713 -0.0117731 0
    endloop
  endfacet
  facet normal -0.995558 -0.0941528 0
    outer loop
      vertex -0.18713 -0.0117731 0.227699
      vertex -0.186021 -0.0234995 0
      vertex -0.186021 -0.0234995 0.227699
    endloop
  endfacet
  facet normal -0.987683 -0.156465 0
    outer loop
      vertex -0.184178 -0.0351334 0
      vertex -0.186021 -0.0234995 0.227699
      vertex -0.186021 -0.0234995 0
    endloop
  endfacet
  facet normal -0.987683 -0.156465 0
    outer loop
      vertex -0.186021 -0.0234995 0.227699
      vertex -0.184178 -0.0351334 0
      vertex -0.184178 -0.0351334 0.227699
    endloop
  endfacet
  facet normal -0.995557 0.094156 0
    outer loop
      vertex -0.18713 0.386773 0
      vertex -0.186021 0.398499 0.227699
      vertex -0.186021 0.398499 0
    endloop
  endfacet
  facet normal -0.995557 0.094156 0
    outer loop
      vertex -0.186021 0.398499 0.227699
      vertex -0.18713 0.386773 0
      vertex -0.18713 0.386773 0.227699
    endloop
  endfacet
  facet normal -0.750152 0.661265 0
    outer loop
      vertex -0.144471 0.494516 0
      vertex -0.136682 0.503352 0.227699
      vertex -0.136682 0.503352 0
    endloop
  endfacet
  facet normal -0.750152 0.661265 0
    outer loop
      vertex -0.136682 0.503352 0.227699
      vertex -0.144471 0.494516 0
      vertex -0.144471 0.494516 0.227699
    endloop
  endfacet
  facet normal -0.999507 -0.0314121 0
    outer loop
      vertex -0.18713 -0.0117731 0
      vertex -0.1875 0 0.227699
      vertex -0.1875 0 0
    endloop
  endfacet
  facet normal -0.999507 -0.0314121 0
    outer loop
      vertex -0.1875 0 0.227699
      vertex -0.18713 -0.0117731 0
      vertex -0.18713 -0.0117731 0.227699
    endloop
  endfacet
  facet normal 0 0 -1
    outer loop
      vertex -0.1875 0 0
      vertex 0.1875 0 0
      vertex 0.18713 -0.0117731 0
    endloop
  endfacet
  facet normal 0 0 -1
    outer loop
      vertex 0.1875 0 0
      vertex -0.1875 0 0
      vertex 0.1875 0.375 0
    endloop
  endfacet
  facet normal 0 0 -1
    outer loop
      vertex -0.1875 0 0
      vertex 0.18713 -0.0117731 0
      vertex 0.186021 -0.0234995 0
    endloop
  endfacet
  facet normal 0 0 -1
    outer loop
      vertex -0.1875 0.375 0
      vertex 0.1875 0.375 0
      vertex -0.1875 0 0
    endloop
  endfacet
  facet normal 0 0 -1
    outer loop
      vertex -0.1875 0 0
      vertex 0.186021 -0.0234995 0
      vertex 0.184178 -0.0351334 0
    endloop
  endfacet
  facet normal 0 0 -1
    outer loop
      vertex 0.1875 0.375 0
      vertex -0.1875 0.375 0
      vertex 0.18713 0.386773 0
    endloop
  endfacet
  facet normal 0 0 -1
    outer loop
      vertex -0.1875 0 0
      vertex 0.184178 -0.0351334 0
      vertex 0.181609 -0.046629 0
    endloop
  endfacet
  facet normal -0 0 -1
    outer loop
      vertex 0.18713 0.386773 0
      vertex -0.1875 0.375 0
      vertex 0.186021 0.398499 0
    endloop
  endfacet
  facet normal 0 0 -1
    outer loop
      vertex -0.1875 0 0
      vertex 0.181609 -0.046629 0
      vertex 0.178323 -0.0579405 0
    endloop
  endfacet
  facet normal -0 0 -1
    outer loop
      vertex 0.186021 0.398499 0
      vertex -0.1875 0.375 0
      vertex 0.184178 0.410133 0
    endloop
  endfacet
  facet normal 0 0 -1
    outer loop
      vertex -0.1875 0 0
      vertex 0.178323 -0.0579405 0
      vertex 0.174333 -0.0690231 0
    endloop
  endfacet
  facet normal -0 0 -1
    outer loop
      vertex 0.184178 0.410133 0
      vertex -0.1875 0.375 0
      vertex 0.181609 0.421629 0
    endloop
  endfacet
  facet normal 0 0 -1
    outer loop
      vertex -0.1875 0 0
      vertex 0.174333 -0.0690231 0
      vertex 0.169655 -0.079833 0
    endloop
  endfacet
  facet normal -0 0 -1
    outer loop
      vertex 0.181609 0.421629 0
      vertex -0.1875 0.375 0
      vertex 0.178323 0.43294 0
    endloop
  endfacet
  facet normal 0 0 -1
    outer loop
      vertex -0.1875 0 0
      vertex 0.169655 -0.079833 0
      vertex 0.164307 -0.0903282 0
    endloop
  endfacet
  facet normal -0 0 -1
    outer loop
      vertex 0.178323 0.43294 0
      vertex -0.1875 0.375 0
      vertex 0.174333 0.444023 0
    endloop
  endfacet
  facet normal 0 0 -1
    outer loop
      vertex -0.1875 0 0
      vertex 0.164307 -0.0903282 0
      vertex 0.158311 -0.100467 0
    endloop
  endfacet
  facet normal -0 0 -1
    outer loop
      vertex 0.174333 0.444023 0
      vertex -0.1875 0.375 0
      vertex 0.169655 0.454833 0
    endloop
  endfacet
  facet normal 0 0 -1
    outer loop
      vertex -0.1875 0 0
      vertex 0.158311 -0.100467 0
      vertex 0.15169 -0.110209 0
    endloop
  endfacet
  facet normal -0 0 -1
    outer loop
      vertex 0.169655 0.454833 0
      vertex -0.1875 0.375 0
      vertex 0.164307 0.465328 0
    endloop
  endfacet
  facet normal 0 0 -1
    outer loop
      vertex -0.1875 0 0
      vertex 0.15169 -0.110209 0
      vertex 0.144471 -0.119516 0
    endloop
  endfacet
  facet normal -0 0 -1
    outer loop
      vertex 0.164307 0.465328 0
      vertex -0.1875 0.375 0
      vertex 0.158311 0.475467 0
    endloop
  endfacet
  facet normal 0 0 -1
    outer loop
      vertex -0.1875 0 0
      vertex 0.144471 -0.119516 0
      vertex 0.136682 -0.128352 0
    endloop
  endfacet
  facet normal -0 0 -1
    outer loop
      vertex 0.158311 0.475467 0
      vertex -0.1875 0.375 0
      vertex 0.15169 0.485209 0
    endloop
  endfacet
  facet normal 0 0 -1
    outer loop
      vertex -0.1875 0 0
      vertex 0.136682 -0.128352 0
      vertex 0.128352 -0.136682 0
    endloop
  endfacet
  facet normal -0 0 -1
    outer loop
      vertex 0.15169 0.485209 0
      vertex -0.1875 0.375 0
      vertex 0.144471 0.494516 0
    endloop
  endfacet
  facet normal 0 0 -1
    outer loop
      vertex -0.1875 0 0
      vertex 0.128352 -0.136682 0
      vertex 0.119516 -0.144471 0
    endloop
  endfacet
  facet normal -0 0 -1
    outer loop
      vertex 0.144471 0.494516 0
      vertex -0.1875 0.375 0
      vertex 0.136682 0.503352 0
    endloop
  endfacet
  facet normal 0 0 -1
    outer loop
      vertex -0.1875 0 0
      vertex 0.119516 -0.144471 0
      vertex 0.110209 -0.15169 0
    endloop
  endfacet
  facet normal -0 0 -1
    outer loop
      vertex 0.136682 0.503352 0
      vertex -0.1875 0.375 0
      vertex 0.128352 0.511682 0
    endloop
  endfacet
  facet normal 0 0 -1
    outer loop
      vertex -0.1875 0 0
      vertex 0.110209 -0.15169 0
      vertex 0.100467 -0.158311 0
    endloop
  endfacet
  facet normal -0 0 -1
    outer loop
      vertex 0.128352 0.511682 0
      vertex -0.1875 0.375 0
      vertex 0.119516 0.519471 0
    endloop
  endfacet
  facet normal 0 0 -1
    outer loop
      vertex -0.1875 0 0
      vertex 0.100467 -0.158311 0
      vertex 0.0903282 -0.164307 0
    endloop
  endfacet
  facet normal -0 0 -1
    outer loop
      vertex 0.119516 0.519471 0
      vertex -0.1875 0.375 0
      vertex 0.110209 0.52669 0
    endloop
  endfacet
  facet normal 0 0 -1
    outer loop
      vertex -0.1875 0 0
      vertex 0.0903282 -0.164307 0
      vertex 0.079833 -0.169655 0
    endloop
  endfacet
  facet normal -0 0 -1
    outer loop
      vertex 0.110209 0.52669 0
      vertex -0.1875 0.375 0
      vertex 0.100467 0.533311 0
    endloop
  endfacet
  facet normal 0 0 -1
    outer loop
      vertex -0.1875 0 0
      vertex 0.079833 -0.169655 0
      vertex 0.0690231 -0.174333 0
    endloop
  endfacet
  facet normal -0 0 -1
    outer loop
      vertex 0.100467 0.533311 0
      vertex -0.1875 0.375 0
      vertex 0.0903282 0.539307 0
    endloop
  endfacet
  facet normal 0 0 -1
    outer loop
      vertex -0.1875 0 0
      vertex 0.0690231 -0.174333 0
      vertex 0.0579405 -0.178323 0
    endloop
  endfacet
  facet normal -0 0 -1
    outer loop
      vertex 0.0903282 0.539307 0
      vertex -0.1875 0.375 0
      vertex 0.079833 0.544655 0
    endloop
  endfacet
  facet normal 0 0 -1
    outer loop
      vertex -0.1875 0 0
      vertex 0.0579405 -0.178323 0
      vertex 0.046629 -0.181609 0
    endloop
  endfacet
  facet normal -0 0 -1
    outer loop
      vertex 0.079833 0.544655 0
      vertex -0.1875 0.375 0
      vertex 0.0690231 0.549333 0
    endloop
  endfacet
  facet normal 0 0 -1
    outer loop
      vertex -0.1875 0 0
      vertex 0.046629 -0.181609 0
      vertex 0.0351334 -0.184178 0
    endloop
  endfacet
  facet normal -0 0 -1
    outer loop
      vertex 0.0690231 0.549333 0
      vertex -0.1875 0.375 0
      vertex 0.0579405 0.553323 0
    endloop
  endfacet
  facet normal 0 0 -1
    outer loop
      vertex -0.1875 0 0
      vertex 0.0351334 -0.184178 0
      vertex 0.0234995 -0.186021 0
    endloop
  endfacet
  facet normal -0 0 -1
    outer loop
      vertex 0.0579405 0.553323 0
      vertex -0.1875 0.375 0
      vertex 0.046629 0.556609 0
    endloop
  endfacet
  facet normal 0 0 -1
    outer loop
      vertex -0.1875 0 0
      vertex 0.0234995 -0.186021 0
      vertex 0.0117731 -0.18713 0
    endloop
  endfacet
  facet normal -0 0 -1
    outer loop
      vertex 0.046629 0.556609 0
      vertex -0.1875 0.375 0
      vertex 0.0351334 0.559178 0
    endloop
  endfacet
  facet normal 0 0 -1
    outer loop
      vertex -0.1875 0 0
      vertex 0.0117731 -0.18713 0
      vertex 0 -0.1875 0
    endloop
  endfacet
  facet normal -0 0 -1
    outer loop
      vertex 0.0351334 0.559178 0
      vertex -0.1875 0.375 0
      vertex 0.0234995 0.561021 0
    endloop
  endfacet
  facet normal 0 0 -1
    outer loop
      vertex -0.1875 0 0
      vertex 0 -0.1875 0
      vertex -0.0117731 -0.18713 0
    endloop
  endfacet
  facet normal -0 0 -1
    outer loop
      vertex 0.0234995 0.561021 0
      vertex -0.1875 0.375 0
      vertex 0.0117731 0.56213 0
    endloop
  endfacet
  facet normal 0 0 -1
    outer loop
      vertex -0.1875 0 0
      vertex -0.0117731 -0.18713 0
      vertex -0.0234995 -0.186021 0
    endloop
  endfacet
  facet normal -0 0 -1
    outer loop
      vertex 0.0117731 0.56213 0
      vertex -0.1875 0.375 0
      vertex 0 0.5625 0
    endloop
  endfacet
  facet normal 0 0 -1
    outer loop
      vertex -0.1875 0 0
      vertex -0.0234995 -0.186021 0
      vertex -0.0351334 -0.184178 0
    endloop
  endfacet
  facet normal 0 0 -1
    outer loop
      vertex 0 0.5625 0
      vertex -0.1875 0.375 0
      vertex -0.0117731 0.56213 0
    endloop
  endfacet
  facet normal 0 0 -1
    outer loop
      vertex -0.1875 0 0
      vertex -0.0351334 -0.184178 0
      vertex -0.046629 -0.181609 0
    endloop
  endfacet
  facet normal 0 0 -1
    outer loop
      vertex -0.0117731 0.56213 0
      vertex -0.1875 0.375 0
      vertex -0.0234995 0.561021 0
    endloop
  endfacet
  facet normal 0 0 -1
    outer loop
      vertex -0.1875 0 0
      vertex -0.046629 -0.181609 0
      vertex -0.0579405 -0.178323 0
    endloop
  endfacet
  facet normal 0 0 -1
    outer loop
      vertex -0.0234995 0.561021 0
      vertex -0.1875 0.375 0
      vertex -0.0351334 0.559178 0
    endloop
  endfacet
  facet normal 0 0 -1
    outer loop
      vertex -0.1875 0 0
      vertex -0.0579405 -0.178323 0
      vertex -0.0690231 -0.174333 0
    endloop
  endfacet
  facet normal 0 0 -1
    outer loop
      vertex -0.0351334 0.559178 0
      vertex -0.1875 0.375 0
      vertex -0.046629 0.556609 0
    endloop
  endfacet
  facet normal 0 0 -1
    outer loop
      vertex -0.1875 0 0
      vertex -0.0690231 -0.174333 0
      vertex -0.079833 -0.169655 0
    endloop
  endfacet
  facet normal 0 0 -1
    outer loop
      vertex -0.046629 0.556609 0
      vertex -0.1875 0.375 0
      vertex -0.0579405 0.553323 0
    endloop
  endfacet
  facet normal 0 0 -1
    outer loop
      vertex -0.1875 0 0
      vertex -0.079833 -0.169655 0
      vertex -0.0903282 -0.164307 0
    endloop
  endfacet
  facet normal 0 0 -1
    outer loop
      vertex -0.0579405 0.553323 0
      vertex -0.1875 0.375 0
      vertex -0.0690231 0.549333 0
    endloop
  endfacet
  facet normal 0 0 -1
    outer loop
      vertex -0.1875 0 0
      vertex -0.0903282 -0.164307 0
      vertex -0.100467 -0.158311 0
    endloop
  endfacet
  facet normal 0 0 -1
    outer loop
      vertex -0.0690231 0.549333 0
      vertex -0.1875 0.375 0
      vertex -0.079833 0.544655 0
    endloop
  endfacet
  facet normal 0 0 -1
    outer loop
      vertex -0.1875 0 0
      vertex -0.100467 -0.158311 0
      vertex -0.110209 -0.15169 0
    endloop
  endfacet
  facet normal 0 0 -1
    outer loop
      vertex -0.079833 0.544655 0
      vertex -0.1875 0.375 0
      vertex -0.0903282 0.539307 0
    endloop
  endfacet
  facet normal 0 0 -1
    outer loop
      vertex -0.1875 0 0
      vertex -0.110209 -0.15169 0
      vertex -0.119516 -0.144471 0
    endloop
  endfacet
  facet normal 0 0 -1
    outer loop
      vertex -0.0903282 0.539307 0
      vertex -0.1875 0.375 0
      vertex -0.100467 0.533311 0
    endloop
  endfacet
  facet normal 0 0 -1
    outer loop
      vertex -0.1875 0 0
      vertex -0.119516 -0.144471 0
      vertex -0.128352 -0.136682 0
    endloop
  endfacet
  facet normal 0 0 -1
    outer loop
      vertex -0.100467 0.533311 0
      vertex -0.1875 0.375 0
      vertex -0.110209 0.52669 0
    endloop
  endfacet
  facet normal 0 0 -1
    outer loop
      vertex -0.1875 0 0
      vertex -0.128352 -0.136682 0
      vertex -0.136682 -0.128352 0
    endloop
  endfacet
  facet normal 0 0 -1
    outer loop
      vertex -0.110209 0.52669 0
      vertex -0.1875 0.375 0
      vertex -0.119516 0.519471 0
    endloop
  endfacet
  facet normal 0 0 -1
    outer loop
      vertex -0.1875 0 0
      vertex -0.136682 -0.128352 0
      vertex -0.144471 -0.119516 0
    endloop
  endfacet
  facet normal 0 0 -1
    outer loop
      vertex -0.119516 0.519471 0
      vertex -0.1875 0.375 0
      vertex -0.128352 0.511682 0
    endloop
  endfacet
  facet normal 0 0 -1
    outer loop
      vertex -0.1875 0 0
      vertex -0.144471 -0.119516 0
      vertex -0.15169 -0.110209 0
    endloop
  endfacet
  facet normal 0 0 -1
    outer loop
      vertex -0.128352 0.511682 0
      vertex -0.1875 0.375 0
      vertex -0.136682 0.503352 0
    endloop
  endfacet
  facet normal 0 0 -1
    outer loop
      vertex -0.1875 0 0
      vertex -0.15169 -0.110209 0
      vertex -0.158311 -0.100467 0
    endloop
  endfacet
  facet normal 0 0 -1
    outer loop
      vertex -0.136682 0.503352 0
      vertex -0.1875 0.375 0
      vertex -0.144471 0.494516 0
    endloop
  endfacet
  facet normal 0 0 -1
    outer loop
      vertex -0.1875 0 0
      vertex -0.158311 -0.100467 0
      vertex -0.164307 -0.0903282 0
    endloop
  endfacet
  facet normal 0 0 -1
    outer loop
      vertex -0.144471 0.494516 0
      vertex -0.1875 0.375 0
      vertex -0.15169 0.485209 0
    endloop
  endfacet
  facet normal 0 0 -1
    outer loop
      vertex -0.1875 0 0
      vertex -0.164307 -0.0903282 0
      vertex -0.169655 -0.079833 0
    endloop
  endfacet
  facet normal 0 0 -1
    outer loop
      vertex -0.15169 0.485209 0
      vertex -0.1875 0.375 0
      vertex -0.158311 0.475467 0
    endloop
  endfacet
  facet normal 0 0 -1
    outer loop
      vertex -0.1875 0 0
      vertex -0.169655 -0.079833 0
      vertex -0.174333 -0.0690231 0
    endloop
  endfacet
  facet normal 0 0 -1
    outer loop
      vertex -0.158311 0.475467 0
      vertex -0.1875 0.375 0
      vertex -0.164307 0.465328 0
    endloop
  endfacet
  facet normal 0 0 -1
    outer loop
      vertex -0.1875 0 0
      vertex -0.174333 -0.0690231 0
      vertex -0.178323 -0.0579405 0
    endloop
  endfacet
  facet normal 0 0 -1
    outer loop
      vertex -0.164307 0.465328 0
      vertex -0.1875 0.375 0
      vertex -0.169655 0.454833 0
    endloop
  endfacet
  facet normal 0 0 -1
    outer loop
      vertex -0.1875 0 0
      vertex -0.178323 -0.0579405 0
      vertex -0.181609 -0.046629 0
    endloop
  endfacet
  facet normal 0 0 -1
    outer loop
      vertex -0.169655 0.454833 0
      vertex -0.1875 0.375 0
      vertex -0.174333 0.444023 0
    endloop
  endfacet
  facet normal 0 0 -1
    outer loop
      vertex -0.1875 0 0
      vertex -0.181609 -0.046629 0
      vertex -0.184178 -0.0351334 0
    endloop
  endfacet
  facet normal 0 0 -1
    outer loop
      vertex -0.174333 0.444023 0
      vertex -0.1875 0.375 0
      vertex -0.178323 0.43294 0
    endloop
  endfacet
  facet normal 0 0 -1
    outer loop
      vertex -0.1875 0 0
      vertex -0.184178 -0.0351334 0
      vertex -0.186021 -0.0234995 0
    endloop
  endfacet
  facet normal 0 0 -1
    outer loop
      vertex -0.178323 0.43294 0
      vertex -0.1875 0.375 0
      vertex -0.181609 0.421629 0
    endloop
  endfacet
  facet normal 0 0 -1
    outer loop
      vertex -0.1875 0 0
      vertex -0.186021 -0.0234995 0
      vertex -0.18713 -0.0117731 0
    endloop
  endfacet
  facet normal 0 0 -1
    outer loop
      vertex -0.181609 0.421629 0
      vertex -0.1875 0.375 0
      vertex -0.184178 0.410133 0
    endloop
  endfacet
  facet normal 0 0 -1
    outer loop
      vertex -0.184178 0.410133 0
      vertex -0.1875 0.375 0
      vertex -0.186021 0.398499 0
    endloop
  endfacet
  facet normal 0 0 -1
    outer loop
      vertex -0.186021 0.398499 0
      vertex -0.1875 0.375 0
      vertex -0.18713 0.386773 0
    endloop
  endfacet
  facet normal -0.860745 -0.509037 0
    outer loop
      vertex -0.158311 -0.100467 0
      vertex -0.164307 -0.0903282 0.227699
      vertex -0.164307 -0.0903282 0
    endloop
  endfacet
  facet normal -0.860745 -0.509037 0
    outer loop
      vertex -0.164307 -0.0903282 0.227699
      vertex -0.158311 -0.100467 0
      vertex -0.158311 -0.100467 0.227699
    endloop
  endfacet
  facet normal 0.338739 0.94088 -0
    outer loop
      vertex 0.0690231 0.549333 0
      vertex 0.0579405 0.553323 0.227699
      vertex 0.0690231 0.549333 0.227699
    endloop
  endfacet
  facet normal 0.338739 0.94088 0
    outer loop
      vertex 0.0579405 0.553323 0.227699
      vertex 0.0690231 0.549333 0
      vertex 0.0579405 0.553323 0
    endloop
  endfacet
  facet normal 0.995557 0.094156 0
    outer loop
      vertex 0.18713 0.386773 0.227699
      vertex 0.186021 0.398499 0
      vertex 0.186021 0.398499 0.227699
    endloop
  endfacet
  facet normal 0.995557 0.094156 0
    outer loop
      vertex 0.186021 0.398499 0
      vertex 0.18713 0.386773 0.227699
      vertex 0.18713 0.386773 0
    endloop
  endfacet
  facet normal 0.999507 -0.0314121 0
    outer loop
      vertex 0.18713 -0.0117731 0.227699
      vertex 0.1875 0 0
      vertex 0.1875 0 0.227699
    endloop
  endfacet
  facet normal 0.999507 -0.0314121 0
    outer loop
      vertex 0.1875 0 0
      vertex 0.18713 -0.0117731 0.227699
      vertex 0.18713 -0.0117731 0
    endloop
  endfacet
  facet normal 0.999507 0.0314123 0
    outer loop
      vertex 0.1875 0.375 0.227699
      vertex 0.18713 0.386773 0
      vertex 0.18713 0.386773 0.227699
    endloop
  endfacet
  facet normal 0.999507 0.0314123 0
    outer loop
      vertex 0.18713 0.386773 0
      vertex 0.1875 0.375 0.227699
      vertex 0.1875 0.375 0
    endloop
  endfacet
  facet normal 0.995558 -0.0941528 0
    outer loop
      vertex 0.186021 -0.0234995 0.227699
      vertex 0.18713 -0.0117731 0
      vertex 0.18713 -0.0117731 0.227699
    endloop
  endfacet
  facet normal 0.995558 -0.0941528 0
    outer loop
      vertex 0.18713 -0.0117731 0
      vertex 0.186021 -0.0234995 0.227699
      vertex 0.186021 -0.0234995 0
    endloop
  endfacet
  facet normal -0.612894 -0.790165 0
    outer loop
      vertex -0.119516 -0.144471 0
      vertex -0.110209 -0.15169 0.227699
      vertex -0.119516 -0.144471 0.227699
    endloop
  endfacet
  facet normal -0.612894 -0.790165 -0
    outer loop
      vertex -0.110209 -0.15169 0.227699
      vertex -0.119516 -0.144471 0
      vertex -0.110209 -0.15169 0
    endloop
  endfacet
  facet normal -0.975927 -0.218097 0
    outer loop
      vertex -0.181609 -0.046629 0
      vertex -0.184178 -0.0351334 0.227699
      vertex -0.184178 -0.0351334 0
    endloop
  endfacet
  facet normal -0.975927 -0.218097 0
    outer loop
      vertex -0.184178 -0.0351334 0.227699
      vertex -0.181609 -0.046629 0
      vertex -0.181609 -0.046629 0.227699
    endloop
  endfacet
  facet normal -0.987684 0.156464 0
    outer loop
      vertex -0.186021 0.398499 0
      vertex -0.184178 0.410133 0.227699
      vertex -0.184178 0.410133 0
    endloop
  endfacet
  facet normal -0.987684 0.156464 0
    outer loop
      vertex -0.184178 0.410133 0.227699
      vertex -0.186021 0.398499 0
      vertex -0.186021 0.398499 0.227699
    endloop
  endfacet
  facet normal 0.790165 0.612894 0
    outer loop
      vertex 0.15169 0.485209 0.227699
      vertex 0.144471 0.494516 0
      vertex 0.144471 0.494516 0.227699
    endloop
  endfacet
  facet normal 0.790165 0.612894 0
    outer loop
      vertex 0.144471 0.494516 0
      vertex 0.15169 0.485209 0.227699
      vertex 0.15169 0.485209 0
    endloop
  endfacet
  facet normal -0.218097 0.975927 0
    outer loop
      vertex -0.0351334 0.559178 0
      vertex -0.046629 0.556609 0.227699
      vertex -0.0351334 0.559178 0.227699
    endloop
  endfacet
  facet normal -0.218097 0.975927 0
    outer loop
      vertex -0.046629 0.556609 0.227699
      vertex -0.0351334 0.559178 0
      vertex -0.046629 0.556609 0
    endloop
  endfacet
  facet normal 1 -0 0
    outer loop
      vertex 0.1875 0 0.227699
      vertex 0.1875 0.375 0
      vertex 0.1875 0.375 0.227699
    endloop
  endfacet
  facet normal 1 0 0
    outer loop
      vertex 0.1875 0.375 0
      vertex 0.1875 0 0.227699
      vertex 0.1875 0 0
    endloop
  endfacet
  facet normal -1 0 0
    outer loop
      vertex -0.1875 0 0
      vertex -0.1875 0.375 0.227699
      vertex -0.1875 0.375 0
    endloop
  endfacet
  facet normal -1 -0 0
    outer loop
      vertex -0.1875 0.375 0.227699
      vertex -0.1875 0 0
      vertex -0.1875 0 0.227699
    endloop
  endfacet
  facet normal -0.750152 -0.661265 0
    outer loop
      vertex -0.136682 -0.128352 0
      vertex -0.144471 -0.119516 0.227699
      vertex -0.144471 -0.119516 0
    endloop
  endfacet
  facet normal -0.750152 -0.661265 0
    outer loop
      vertex -0.144471 -0.119516 0.227699
      vertex -0.136682 -0.128352 0
      vertex -0.136682 -0.128352 0.227699
    endloop
  endfacet
  facet normal -0.94088 -0.338739 0
    outer loop
      vertex -0.174333 -0.0690231 0
      vertex -0.178323 -0.0579405 0.227699
      vertex -0.178323 -0.0579405 0
    endloop
  endfacet
  facet normal -0.94088 -0.338739 0
    outer loop
      vertex -0.178323 -0.0579405 0.227699
      vertex -0.174333 -0.0690231 0
      vertex -0.174333 -0.0690231 0.227699
    endloop
  endfacet
  facet normal -0.790165 0.612894 0
    outer loop
      vertex -0.15169 0.485209 0
      vertex -0.144471 0.494516 0.227699
      vertex -0.144471 0.494516 0
    endloop
  endfacet
  facet normal -0.790165 0.612894 0
    outer loop
      vertex -0.144471 0.494516 0.227699
      vertex -0.15169 0.485209 0
      vertex -0.15169 0.485209 0.227699
    endloop
  endfacet
  facet normal 0.612894 0.790165 -0
    outer loop
      vertex 0.119516 0.519471 0
      vertex 0.110209 0.52669 0.227699
      vertex 0.119516 0.519471 0.227699
    endloop
  endfacet
  facet normal 0.612894 0.790165 0
    outer loop
      vertex 0.110209 0.52669 0.227699
      vertex 0.119516 0.519471 0
      vertex 0.110209 0.52669 0
    endloop
  endfacet
  facet normal 0.917752 0.397155 0
    outer loop
      vertex 0.174333 0.444023 0.227699
      vertex 0.169655 0.454833 0
      vertex 0.169655 0.454833 0.227699
    endloop
  endfacet
  facet normal 0.917752 0.397155 0
    outer loop
      vertex 0.169655 0.454833 0
      vertex 0.174333 0.444023 0.227699
      vertex 0.174333 0.444023 0
    endloop
  endfacet
  facet normal 0.0314121 0.999507 -0
    outer loop
      vertex 0.0117731 0.56213 0
      vertex 0 0.5625 0.227699
      vertex 0.0117731 0.56213 0.227699
    endloop
  endfacet
  facet normal 0.0314121 0.999507 0
    outer loop
      vertex 0 0.5625 0.227699
      vertex 0.0117731 0.56213 0
      vertex 0 0.5625 0
    endloop
  endfacet
  facet normal -0.509037 0.860745 0
    outer loop
      vertex -0.0903282 0.539307 0
      vertex -0.100467 0.533311 0.227699
      vertex -0.0903282 0.539307 0.227699
    endloop
  endfacet
  facet normal -0.509037 0.860745 0
    outer loop
      vertex -0.100467 0.533311 0.227699
      vertex -0.0903282 0.539307 0
      vertex -0.100467 0.533311 0
    endloop
  endfacet
  facet normal -0.707107 0.707107 0
    outer loop
      vertex -0.136682 0.503352 0
      vertex -0.128352 0.511682 0.227699
      vertex -0.128352 0.511682 0
    endloop
  endfacet
  facet normal -0.707107 0.707107 0
    outer loop
      vertex -0.128352 0.511682 0.227699
      vertex -0.136682 0.503352 0
      vertex -0.136682 0.503352 0.227699
    endloop
  endfacet
  facet normal 0.975927 -0.218097 0
    outer loop
      vertex 0.181609 -0.046629 0.227699
      vertex 0.184178 -0.0351334 0
      vertex 0.184178 -0.0351334 0.227699
    endloop
  endfacet
  facet normal 0.975927 -0.218097 0
    outer loop
      vertex 0.184178 -0.0351334 0
      vertex 0.181609 -0.046629 0.227699
      vertex 0.181609 -0.046629 0
    endloop
  endfacet
  facet normal 0.707107 -0.707107 0
    outer loop
      vertex 0.128352 -0.136682 0.227699
      vertex 0.136682 -0.128352 0
      vertex 0.136682 -0.128352 0.227699
    endloop
  endfacet
  facet normal 0.707107 -0.707107 0
    outer loop
      vertex 0.136682 -0.128352 0
      vertex 0.128352 -0.136682 0.227699
      vertex 0.128352 -0.136682 0
    endloop
  endfacet
  facet normal 0.860745 -0.509037 0
    outer loop
      vertex 0.158311 -0.100467 0.227699
      vertex 0.164307 -0.0903282 0
      vertex 0.164307 -0.0903282 0.227699
    endloop
  endfacet
  facet normal 0.860745 -0.509037 0
    outer loop
      vertex 0.164307 -0.0903282 0
      vertex 0.158311 -0.100467 0.227699
      vertex 0.158311 -0.100467 0
    endloop
  endfacet
  facet normal 0.156465 -0.987683 0
    outer loop
      vertex 0.0234995 -0.186021 0
      vertex 0.0351334 -0.184178 0.227699
      vertex 0.0234995 -0.186021 0.227699
    endloop
  endfacet
  facet normal 0.156465 -0.987683 0
    outer loop
      vertex 0.0351334 -0.184178 0.227699
      vertex 0.0234995 -0.186021 0
      vertex 0.0351334 -0.184178 0
    endloop
  endfacet
  facet normal -0.999507 0.0314123 0
    outer loop
      vertex -0.1875 0.375 0
      vertex -0.18713 0.386773 0.227699
      vertex -0.18713 0.386773 0
    endloop
  endfacet
  facet normal -0.999507 0.0314123 0
    outer loop
      vertex -0.18713 0.386773 0.227699
      vertex -0.1875 0.375 0
      vertex -0.1875 0.375 0.227699
    endloop
  endfacet
  facet normal -0.562103 -0.827067 0
    outer loop
      vertex -0.110209 -0.15169 0
      vertex -0.100467 -0.158311 0.227699
      vertex -0.110209 -0.15169 0.227699
    endloop
  endfacet
  facet normal -0.562103 -0.827067 -0
    outer loop
      vertex -0.100467 -0.158311 0.227699
      vertex -0.110209 -0.15169 0
      vertex -0.100467 -0.158311 0
    endloop
  endfacet
  facet normal -0.661265 -0.750152 0
    outer loop
      vertex -0.128352 -0.136682 0
      vertex -0.119516 -0.144471 0.227699
      vertex -0.128352 -0.136682 0.227699
    endloop
  endfacet
  facet normal -0.661265 -0.750152 -0
    outer loop
      vertex -0.119516 -0.144471 0.227699
      vertex -0.128352 -0.136682 0
      vertex -0.119516 -0.144471 0
    endloop
  endfacet
  facet normal -0.890988 0.454026 0
    outer loop
      vertex -0.169655 0.454833 0
      vertex -0.164307 0.465328 0.227699
      vertex -0.164307 0.465328 0
    endloop
  endfacet
  facet normal -0.890988 0.454026 0
    outer loop
      vertex -0.164307 0.465328 0.227699
      vertex -0.169655 0.454833 0
      vertex -0.169655 0.454833 0.227699
    endloop
  endfacet
  facet normal 0.397158 0.91775 -0
    outer loop
      vertex 0.079833 0.544655 0
      vertex 0.0690231 0.549333 0.227699
      vertex 0.079833 0.544655 0.227699
    endloop
  endfacet
  facet normal 0.397158 0.91775 0
    outer loop
      vertex 0.0690231 0.549333 0.227699
      vertex 0.079833 0.544655 0
      vertex 0.0690231 0.549333 0
    endloop
  endfacet
  facet normal 0.562103 0.827067 -0
    outer loop
      vertex 0.110209 0.52669 0
      vertex 0.100467 0.533311 0.227699
      vertex 0.110209 0.52669 0.227699
    endloop
  endfacet
  facet normal 0.562103 0.827067 0
    outer loop
      vertex 0.100467 0.533311 0.227699
      vertex 0.110209 0.52669 0
      vertex 0.100467 0.533311 0
    endloop
  endfacet
  facet normal 0.454019 0.890992 -0
    outer loop
      vertex 0.0903282 0.539307 0
      vertex 0.079833 0.544655 0.227699
      vertex 0.0903282 0.539307 0.227699
    endloop
  endfacet
  facet normal 0.454019 0.890992 0
    outer loop
      vertex 0.079833 0.544655 0.227699
      vertex 0.0903282 0.539307 0
      vertex 0.079833 0.544655 0
    endloop
  endfacet
  facet normal 0.707107 0.707107 0
    outer loop
      vertex 0.136682 0.503352 0.227699
      vertex 0.128352 0.511682 0
      vertex 0.128352 0.511682 0.227699
    endloop
  endfacet
  facet normal 0.707107 0.707107 0
    outer loop
      vertex 0.128352 0.511682 0
      vertex 0.136682 0.503352 0.227699
      vertex 0.136682 0.503352 0
    endloop
  endfacet
  facet normal 0.750152 0.661265 0
    outer loop
      vertex 0.144471 0.494516 0.227699
      vertex 0.136682 0.503352 0
      vertex 0.136682 0.503352 0.227699
    endloop
  endfacet
  facet normal 0.750152 0.661265 0
    outer loop
      vertex 0.136682 0.503352 0
      vertex 0.144471 0.494516 0.227699
      vertex 0.144471 0.494516 0
    endloop
  endfacet
  facet normal 0.661265 0.750152 -0
    outer loop
      vertex 0.128352 0.511682 0
      vertex 0.119516 0.519471 0.227699
      vertex 0.128352 0.511682 0.227699
    endloop
  endfacet
  facet normal 0.661265 0.750152 0
    outer loop
      vertex 0.119516 0.519471 0.227699
      vertex 0.128352 0.511682 0
      vertex 0.119516 0.519471 0
    endloop
  endfacet
  facet normal 0.827067 0.562103 0
    outer loop
      vertex 0.158311 0.475467 0.227699
      vertex 0.15169 0.485209 0
      vertex 0.15169 0.485209 0.227699
    endloop
  endfacet
  facet normal 0.827067 0.562103 0
    outer loop
      vertex 0.15169 0.485209 0
      vertex 0.158311 0.475467 0.227699
      vertex 0.158311 0.475467 0
    endloop
  endfacet
  facet normal 0.860749 0.50903 0
    outer loop
      vertex 0.164307 0.465328 0.227699
      vertex 0.158311 0.475467 0
      vertex 0.158311 0.475467 0.227699
    endloop
  endfacet
  facet normal 0.860749 0.50903 0
    outer loop
      vertex 0.158311 0.475467 0
      vertex 0.164307 0.465328 0.227699
      vertex 0.164307 0.465328 0
    endloop
  endfacet
  facet normal 0.890988 0.454026 0
    outer loop
      vertex 0.169655 0.454833 0.227699
      vertex 0.164307 0.465328 0
      vertex 0.164307 0.465328 0.227699
    endloop
  endfacet
  facet normal 0.890988 0.454026 0
    outer loop
      vertex 0.164307 0.465328 0
      vertex 0.169655 0.454833 0.227699
      vertex 0.169655 0.454833 0
    endloop
  endfacet
  facet normal 0.960297 0.278979 0
    outer loop
      vertex 0.181609 0.421629 0.227699
      vertex 0.178323 0.43294 0
      vertex 0.178323 0.43294 0.227699
    endloop
  endfacet
  facet normal 0.960297 0.278979 0
    outer loop
      vertex 0.178323 0.43294 0
      vertex 0.181609 0.421629 0.227699
      vertex 0.181609 0.421629 0
    endloop
  endfacet
  facet normal 0.975929 0.21809 0
    outer loop
      vertex 0.184178 0.410133 0.227699
      vertex 0.181609 0.421629 0
      vertex 0.181609 0.421629 0.227699
    endloop
  endfacet
  facet normal 0.975929 0.21809 0
    outer loop
      vertex 0.181609 0.421629 0
      vertex 0.184178 0.410133 0.227699
      vertex 0.184178 0.410133 0
    endloop
  endfacet
  facet normal 0.987684 0.156464 0
    outer loop
      vertex 0.186021 0.398499 0.227699
      vertex 0.184178 0.410133 0
      vertex 0.184178 0.410133 0.227699
    endloop
  endfacet
  facet normal 0.987684 0.156464 0
    outer loop
      vertex 0.184178 0.410133 0
      vertex 0.186021 0.398499 0.227699
      vertex 0.186021 0.398499 0
    endloop
  endfacet
  facet normal -0.156465 0.987683 0
    outer loop
      vertex -0.0234995 0.561021 0
      vertex -0.0351334 0.559178 0.227699
      vertex -0.0234995 0.561021 0.227699
    endloop
  endfacet
  facet normal -0.156465 0.987683 0
    outer loop
      vertex -0.0351334 0.559178 0.227699
      vertex -0.0234995 0.561021 0
      vertex -0.0351334 0.559178 0
    endloop
  endfacet
  facet normal -0.0941528 0.995558 0
    outer loop
      vertex -0.0117731 0.56213 0
      vertex -0.0234995 0.561021 0.227699
      vertex -0.0117731 0.56213 0.227699
    endloop
  endfacet
  facet normal -0.0941528 0.995558 0
    outer loop
      vertex -0.0234995 0.561021 0.227699
      vertex -0.0117731 0.56213 0
      vertex -0.0234995 0.561021 0
    endloop
  endfacet
  facet normal -0.0314121 0.999507 0
    outer loop
      vertex 0 0.5625 0
      vertex -0.0117731 0.56213 0.227699
      vertex 0 0.5625 0.227699
    endloop
  endfacet
  facet normal -0.0314121 0.999507 0
    outer loop
      vertex -0.0117731 0.56213 0.227699
      vertex 0 0.5625 0
      vertex -0.0117731 0.56213 0
    endloop
  endfacet
  facet normal 0.218097 0.975927 -0
    outer loop
      vertex 0.046629 0.556609 0
      vertex 0.0351334 0.559178 0.227699
      vertex 0.046629 0.556609 0.227699
    endloop
  endfacet
  facet normal 0.218097 0.975927 0
    outer loop
      vertex 0.0351334 0.559178 0.227699
      vertex 0.046629 0.556609 0
      vertex 0.0351334 0.559178 0
    endloop
  endfacet
  facet normal 0.278968 0.9603 -0
    outer loop
      vertex 0.0579405 0.553323 0
      vertex 0.046629 0.556609 0.227699
      vertex 0.0579405 0.553323 0.227699
    endloop
  endfacet
  facet normal 0.278968 0.9603 0
    outer loop
      vertex 0.046629 0.556609 0.227699
      vertex 0.0579405 0.553323 0
      vertex 0.046629 0.556609 0
    endloop
  endfacet
  facet normal -0.454019 0.890992 0
    outer loop
      vertex -0.079833 0.544655 0
      vertex -0.0903282 0.539307 0.227699
      vertex -0.079833 0.544655 0.227699
    endloop
  endfacet
  facet normal -0.454019 0.890992 0
    outer loop
      vertex -0.0903282 0.539307 0.227699
      vertex -0.079833 0.544655 0
      vertex -0.0903282 0.539307 0
    endloop
  endfacet
  facet normal -0.397158 0.91775 0
    outer loop
      vertex -0.0690231 0.549333 0
      vertex -0.079833 0.544655 0.227699
      vertex -0.0690231 0.549333 0.227699
    endloop
  endfacet
  facet normal -0.397158 0.91775 0
    outer loop
      vertex -0.079833 0.544655 0.227699
      vertex -0.0690231 0.549333 0
      vertex -0.079833 0.544655 0
    endloop
  endfacet
  facet normal -0.278968 0.9603 0
    outer loop
      vertex -0.046629 0.556609 0
      vertex -0.0579405 0.553323 0.227699
      vertex -0.046629 0.556609 0.227699
    endloop
  endfacet
  facet normal -0.278968 0.9603 0
    outer loop
      vertex -0.0579405 0.553323 0.227699
      vertex -0.046629 0.556609 0
      vertex -0.0579405 0.553323 0
    endloop
  endfacet
  facet normal -0.612894 0.790165 0
    outer loop
      vertex -0.110209 0.52669 0
      vertex -0.119516 0.519471 0.227699
      vertex -0.110209 0.52669 0.227699
    endloop
  endfacet
  facet normal -0.612894 0.790165 0
    outer loop
      vertex -0.119516 0.519471 0.227699
      vertex -0.110209 0.52669 0
      vertex -0.119516 0.519471 0
    endloop
  endfacet
  facet normal -0.562103 0.827067 0
    outer loop
      vertex -0.100467 0.533311 0
      vertex -0.110209 0.52669 0.227699
      vertex -0.100467 0.533311 0.227699
    endloop
  endfacet
  facet normal -0.562103 0.827067 0
    outer loop
      vertex -0.110209 0.52669 0.227699
      vertex -0.100467 0.533311 0
      vertex -0.110209 0.52669 0
    endloop
  endfacet
  facet normal -0.661265 0.750152 0
    outer loop
      vertex -0.119516 0.519471 0
      vertex -0.128352 0.511682 0.227699
      vertex -0.119516 0.519471 0.227699
    endloop
  endfacet
  facet normal -0.661265 0.750152 0
    outer loop
      vertex -0.128352 0.511682 0.227699
      vertex -0.119516 0.519471 0
      vertex -0.128352 0.511682 0
    endloop
  endfacet
  facet normal 0.987683 -0.156465 0
    outer loop
      vertex 0.184178 -0.0351334 0.227699
      vertex 0.186021 -0.0234995 0
      vertex 0.186021 -0.0234995 0.227699
    endloop
  endfacet
  facet normal 0.987683 -0.156465 0
    outer loop
      vertex 0.186021 -0.0234995 0
      vertex 0.184178 -0.0351334 0.227699
      vertex 0.184178 -0.0351334 0
    endloop
  endfacet
  facet normal 0.454019 -0.890992 0
    outer loop
      vertex 0.079833 -0.169655 0
      vertex 0.0903282 -0.164307 0.227699
      vertex 0.079833 -0.169655 0.227699
    endloop
  endfacet
  facet normal 0.454019 -0.890992 0
    outer loop
      vertex 0.0903282 -0.164307 0.227699
      vertex 0.079833 -0.169655 0
      vertex 0.0903282 -0.164307 0
    endloop
  endfacet
  facet normal 0.397158 -0.91775 0
    outer loop
      vertex 0.0690231 -0.174333 0
      vertex 0.079833 -0.169655 0.227699
      vertex 0.0690231 -0.174333 0.227699
    endloop
  endfacet
  facet normal 0.397158 -0.91775 0
    outer loop
      vertex 0.079833 -0.169655 0.227699
      vertex 0.0690231 -0.174333 0
      vertex 0.079833 -0.169655 0
    endloop
  endfacet
  facet normal 0.278968 -0.9603 0
    outer loop
      vertex 0.046629 -0.181609 0
      vertex 0.0579405 -0.178323 0.227699
      vertex 0.046629 -0.181609 0.227699
    endloop
  endfacet
  facet normal 0.278968 -0.9603 0
    outer loop
      vertex 0.0579405 -0.178323 0.227699
      vertex 0.046629 -0.181609 0
      vertex 0.0579405 -0.178323 0
    endloop
  endfacet
  facet normal 0.750152 -0.661265 0
    outer loop
      vertex 0.136682 -0.128352 0.227699
      vertex 0.144471 -0.119516 0
      vertex 0.144471 -0.119516 0.227699
    endloop
  endfacet
  facet normal 0.750152 -0.661265 0
    outer loop
      vertex 0.144471 -0.119516 0
      vertex 0.136682 -0.128352 0.227699
      vertex 0.136682 -0.128352 0
    endloop
  endfacet
  facet normal 0.94088 -0.338739 0
    outer loop
      vertex 0.174333 -0.0690231 0.227699
      vertex 0.178323 -0.0579405 0
      vertex 0.178323 -0.0579405 0.227699
    endloop
  endfacet
  facet normal 0.94088 -0.338739 0
    outer loop
      vertex 0.178323 -0.0579405 0
      vertex 0.174333 -0.0690231 0.227699
      vertex 0.174333 -0.0690231 0
    endloop
  endfacet
  facet normal 0.9603 -0.278968 0
    outer loop
      vertex 0.178323 -0.0579405 0.227699
      vertex 0.181609 -0.046629 0
      vertex 0.181609 -0.046629 0.227699
    endloop
  endfacet
  facet normal 0.9603 -0.278968 0
    outer loop
      vertex 0.181609 -0.046629 0
      vertex 0.178323 -0.0579405 0.227699
      vertex 0.178323 -0.0579405 0
    endloop
  endfacet
  facet normal 0.827067 -0.562103 0
    outer loop
      vertex 0.15169 -0.110209 0.227699
      vertex 0.158311 -0.100467 0
      vertex 0.158311 -0.100467 0.227699
    endloop
  endfacet
  facet normal 0.827067 -0.562103 0
    outer loop
      vertex 0.158311 -0.100467 0
      vertex 0.15169 -0.110209 0.227699
      vertex 0.15169 -0.110209 0
    endloop
  endfacet
  facet normal 0.790165 -0.612894 0
    outer loop
      vertex 0.144471 -0.119516 0.227699
      vertex 0.15169 -0.110209 0
      vertex 0.15169 -0.110209 0.227699
    endloop
  endfacet
  facet normal 0.790165 -0.612894 0
    outer loop
      vertex 0.15169 -0.110209 0
      vertex 0.144471 -0.119516 0.227699
      vertex 0.144471 -0.119516 0
    endloop
  endfacet
  facet normal 0.91775 -0.397158 0
    outer loop
      vertex 0.169655 -0.079833 0.227699
      vertex 0.174333 -0.0690231 0
      vertex 0.174333 -0.0690231 0.227699
    endloop
  endfacet
  facet normal 0.91775 -0.397158 0
    outer loop
      vertex 0.174333 -0.0690231 0
      vertex 0.169655 -0.079833 0.227699
      vertex 0.169655 -0.079833 0
    endloop
  endfacet
  facet normal -0.156465 -0.987683 0
    outer loop
      vertex -0.0351334 -0.184178 0
      vertex -0.0234995 -0.186021 0.227699
      vertex -0.0351334 -0.184178 0.227699
    endloop
  endfacet
  facet normal -0.156465 -0.987683 -0
    outer loop
      vertex -0.0234995 -0.186021 0.227699
      vertex -0.0351334 -0.184178 0
      vertex -0.0234995 -0.186021 0
    endloop
  endfacet
  facet normal -0.509037 -0.860745 0
    outer loop
      vertex -0.100467 -0.158311 0
      vertex -0.0903282 -0.164307 0.227699
      vertex -0.100467 -0.158311 0.227699
    endloop
  endfacet
  facet normal -0.509037 -0.860745 -0
    outer loop
      vertex -0.0903282 -0.164307 0.227699
      vertex -0.100467 -0.158311 0
      vertex -0.0903282 -0.164307 0
    endloop
  endfacet
  facet normal -0.790165 -0.612894 0
    outer loop
      vertex -0.144471 -0.119516 0
      vertex -0.15169 -0.110209 0.227699
      vertex -0.15169 -0.110209 0
    endloop
  endfacet
  facet normal -0.790165 -0.612894 0
    outer loop
      vertex -0.15169 -0.110209 0.227699
      vertex -0.144471 -0.119516 0
      vertex -0.144471 -0.119516 0.227699
    endloop
  endfacet
  facet normal -0.890992 -0.454019 0
    outer loop
      vertex -0.164307 -0.0903282 0
      vertex -0.169655 -0.079833 0.227699
      vertex -0.169655 -0.079833 0
    endloop
  endfacet
  facet normal -0.890992 -0.454019 0
    outer loop
      vertex -0.169655 -0.079833 0.227699
      vertex -0.164307 -0.0903282 0
      vertex -0.164307 -0.0903282 0.227699
    endloop
  endfacet
  facet normal -0.975929 0.21809 0
    outer loop
      vertex -0.184178 0.410133 0
      vertex -0.181609 0.421629 0.227699
      vertex -0.181609 0.421629 0
    endloop
  endfacet
  facet normal -0.975929 0.21809 0
    outer loop
      vertex -0.181609 0.421629 0.227699
      vertex -0.184178 0.410133 0
      vertex -0.184178 0.410133 0.227699
    endloop
  endfacet
  facet normal -0.960297 0.278979 0
    outer loop
      vertex -0.181609 0.421629 0
      vertex -0.178323 0.43294 0.227699
      vertex -0.178323 0.43294 0
    endloop
  endfacet
  facet normal -0.960297 0.278979 0
    outer loop
      vertex -0.178323 0.43294 0.227699
      vertex -0.181609 0.421629 0
      vertex -0.181609 0.421629 0.227699
    endloop
  endfacet
  facet normal -0.940884 0.338728 0
    outer loop
      vertex -0.178323 0.43294 0
      vertex -0.174333 0.444023 0.227699
      vertex -0.174333 0.444023 0
    endloop
  endfacet
  facet normal -0.940884 0.338728 0
    outer loop
      vertex -0.174333 0.444023 0.227699
      vertex -0.178323 0.43294 0
      vertex -0.178323 0.43294 0.227699
    endloop
  endfacet
  facet normal -0.827067 0.562103 0
    outer loop
      vertex -0.158311 0.475467 0
      vertex -0.15169 0.485209 0.227699
      vertex -0.15169 0.485209 0
    endloop
  endfacet
  facet normal -0.827067 0.562103 0
    outer loop
      vertex -0.15169 0.485209 0.227699
      vertex -0.158311 0.475467 0
      vertex -0.158311 0.475467 0.227699
    endloop
  endfacet
  facet normal -0.917752 0.397155 0
    outer loop
      vertex -0.174333 0.444023 0
      vertex -0.169655 0.454833 0.227699
      vertex -0.169655 0.454833 0
    endloop
  endfacet
  facet normal -0.917752 0.397155 0
    outer loop
      vertex -0.169655 0.454833 0.227699
      vertex -0.174333 0.444023 0
      vertex -0.174333 0.444023 0.227699
    endloop
  endfacet
  facet normal 0.509037 0.860745 -0
    outer loop
      vertex 0.100467 0.533311 0
      vertex 0.0903282 0.539307 0.227699
      vertex 0.100467 0.533311 0.227699
    endloop
  endfacet
  facet normal 0.509037 0.860745 0
    outer loop
      vertex 0.0903282 0.539307 0.227699
      vertex 0.100467 0.533311 0
      vertex 0.0903282 0.539307 0
    endloop
  endfacet
  facet normal 0.940884 0.338728 0
    outer loop
      vertex 0.178323 0.43294 0.227699
      vertex 0.174333 0.444023 0
      vertex 0.174333 0.444023 0.227699
    endloop
  endfacet
  facet normal 0.940884 0.338728 0
    outer loop
      vertex 0.174333 0.444023 0
      vertex 0.178323 0.43294 0.227699
      vertex 0.178323 0.43294 0
    endloop
  endfacet
  facet normal 0.0941528 0.995558 -0
    outer loop
      vertex 0.0234995 0.561021 0
      vertex 0.0117731 0.56213 0.227699
      vertex 0.0234995 0.561021 0.227699
    endloop
  endfacet
  facet normal 0.0941528 0.995558 0
    outer loop
      vertex 0.0117731 0.56213 0.227699
      vertex 0.0234995 0.561021 0
      vertex 0.0117731 0.56213 0
    endloop
  endfacet
  facet normal 0.156465 0.987683 -0
    outer loop
      vertex 0.0351334 0.559178 0
      vertex 0.0234995 0.561021 0.227699
      vertex 0.0351334 0.559178 0.227699
    endloop
  endfacet
  facet normal 0.156465 0.987683 0
    outer loop
      vertex 0.0234995 0.561021 0.227699
      vertex 0.0351334 0.559178 0
      vertex 0.0234995 0.561021 0
    endloop
  endfacet
  facet normal -0.338739 0.94088 0
    outer loop
      vertex -0.0579405 0.553323 0
      vertex -0.0690231 0.549333 0.227699
      vertex -0.0579405 0.553323 0.227699
    endloop
  endfacet
  facet normal -0.338739 0.94088 0
    outer loop
      vertex -0.0690231 0.549333 0.227699
      vertex -0.0579405 0.553323 0
      vertex -0.0690231 0.549333 0
    endloop
  endfacet
  facet normal 0.509037 -0.860745 0
    outer loop
      vertex 0.0903282 -0.164307 0
      vertex 0.100467 -0.158311 0.227699
      vertex 0.0903282 -0.164307 0.227699
    endloop
  endfacet
  facet normal 0.509037 -0.860745 0
    outer loop
      vertex 0.100467 -0.158311 0.227699
      vertex 0.0903282 -0.164307 0
      vertex 0.100467 -0.158311 0
    endloop
  endfacet
  facet normal 0.338739 -0.94088 0
    outer loop
      vertex 0.0579405 -0.178323 0
      vertex 0.0690231 -0.174333 0.227699
      vertex 0.0579405 -0.178323 0.227699
    endloop
  endfacet
  facet normal 0.338739 -0.94088 0
    outer loop
      vertex 0.0690231 -0.174333 0.227699
      vertex 0.0579405 -0.178323 0
      vertex 0.0690231 -0.174333 0
    endloop
  endfacet
  facet normal 0.612894 -0.790165 0
    outer loop
      vertex 0.110209 -0.15169 0
      vertex 0.119516 -0.144471 0.227699
      vertex 0.110209 -0.15169 0.227699
    endloop
  endfacet
  facet normal 0.612894 -0.790165 0
    outer loop
      vertex 0.119516 -0.144471 0.227699
      vertex 0.110209 -0.15169 0
      vertex 0.119516 -0.144471 0
    endloop
  endfacet
  facet normal 0.562103 -0.827067 0
    outer loop
      vertex 0.100467 -0.158311 0
      vertex 0.110209 -0.15169 0.227699
      vertex 0.100467 -0.158311 0.227699
    endloop
  endfacet
  facet normal 0.562103 -0.827067 0
    outer loop
      vertex 0.110209 -0.15169 0.227699
      vertex 0.100467 -0.158311 0
      vertex 0.110209 -0.15169 0
    endloop
  endfacet
  facet normal 0.0314121 -0.999507 0
    outer loop
      vertex 0 -0.1875 0
      vertex 0.0117731 -0.18713 0.227699
      vertex 0 -0.1875 0.227699
    endloop
  endfacet
  facet normal 0.0314121 -0.999507 0
    outer loop
      vertex 0.0117731 -0.18713 0.227699
      vertex 0 -0.1875 0
      vertex 0.0117731 -0.18713 0
    endloop
  endfacet
  facet normal 0.0941528 -0.995558 0
    outer loop
      vertex 0.0117731 -0.18713 0
      vertex 0.0234995 -0.186021 0.227699
      vertex 0.0117731 -0.18713 0.227699
    endloop
  endfacet
  facet normal 0.0941528 -0.995558 0
    outer loop
      vertex 0.0234995 -0.186021 0.227699
      vertex 0.0117731 -0.18713 0
      vertex 0.0234995 -0.186021 0
    endloop
  endfacet
  facet normal -0.278968 -0.9603 0
    outer loop
      vertex -0.0579405 -0.178323 0
      vertex -0.046629 -0.181609 0.227699
      vertex -0.0579405 -0.178323 0.227699
    endloop
  endfacet
  facet normal -0.278968 -0.9603 -0
    outer loop
      vertex -0.046629 -0.181609 0.227699
      vertex -0.0579405 -0.178323 0
      vertex -0.046629 -0.181609 0
    endloop
  endfacet
  facet normal -0.454019 -0.890992 0
    outer loop
      vertex -0.0903282 -0.164307 0
      vertex -0.079833 -0.169655 0.227699
      vertex -0.0903282 -0.164307 0.227699
    endloop
  endfacet
  facet normal -0.454019 -0.890992 -0
    outer loop
      vertex -0.079833 -0.169655 0.227699
      vertex -0.0903282 -0.164307 0
      vertex -0.079833 -0.169655 0
    endloop
  endfacet
  facet normal -0.707107 -0.707107 0
    outer loop
      vertex -0.128352 -0.136682 0
      vertex -0.136682 -0.128352 0.227699
      vertex -0.136682 -0.128352 0
    endloop
  endfacet
  facet normal -0.707107 -0.707107 0
    outer loop
      vertex -0.136682 -0.128352 0.227699
      vertex -0.128352 -0.136682 0
      vertex -0.128352 -0.136682 0.227699
    endloop
  endfacet
  facet normal -0.827067 -0.562103 0
    outer loop
      vertex -0.15169 -0.110209 0
      vertex -0.158311 -0.100467 0.227699
      vertex -0.158311 -0.100467 0
    endloop
  endfacet
  facet normal -0.827067 -0.562103 0
    outer loop
      vertex -0.158311 -0.100467 0.227699
      vertex -0.15169 -0.110209 0
      vertex -0.15169 -0.110209 0.227699
    endloop
  endfacet
  facet normal -0.91775 -0.397158 0
    outer loop
      vertex -0.169655 -0.079833 0
      vertex -0.174333 -0.0690231 0.227699
      vertex -0.174333 -0.0690231 0
    endloop
  endfacet
  facet normal -0.91775 -0.397158 0
    outer loop
      vertex -0.174333 -0.0690231 0.227699
      vertex -0.169655 -0.079833 0
      vertex -0.169655 -0.079833 0.227699
    endloop
  endfacet
  facet normal -0.860749 0.50903 0
    outer loop
      vertex -0.164307 0.465328 0
      vertex -0.158311 0.475467 0.227699
      vertex -0.158311 0.475467 0
    endloop
  endfacet
  facet normal -0.860749 0.50903 0
    outer loop
      vertex -0.158311 0.475467 0.227699
      vertex -0.164307 0.465328 0
      vertex -0.164307 0.465328 0.227699
    endloop
  endfacet
  facet normal 0.661265 -0.750152 0
    outer loop
      vertex 0.119516 -0.144471 0
      vertex 0.128352 -0.136682 0.227699
      vertex 0.119516 -0.144471 0.227699
    endloop
  endfacet
  facet normal 0.661265 -0.750152 0
    outer loop
      vertex 0.128352 -0.136682 0.227699
      vertex 0.119516 -0.144471 0
      vertex 0.128352 -0.136682 0
    endloop
  endfacet
  facet normal 0.890992 -0.454019 0
    outer loop
      vertex 0.164307 -0.0903282 0.227699
      vertex 0.169655 -0.079833 0
      vertex 0.169655 -0.079833 0.227699
    endloop
  endfacet
  facet normal 0.890992 -0.454019 0
    outer loop
      vertex 0.169655 -0.079833 0
      vertex 0.164307 -0.0903282 0.227699
      vertex 0.164307 -0.0903282 0
    endloop
  endfacet
  facet normal 0.218097 -0.975927 0
    outer loop
      vertex 0.0351334 -0.184178 0
      vertex 0.046629 -0.181609 0.227699
      vertex 0.0351334 -0.184178 0.227699
    endloop
  endfacet
  facet normal 0.218097 -0.975927 0
    outer loop
      vertex 0.046629 -0.181609 0.227699
      vertex 0.0351334 -0.184178 0
      vertex 0.046629 -0.181609 0
    endloop
  endfacet
  facet normal -0.0314121 -0.999507 0
    outer loop
      vertex -0.0117731 -0.18713 0
      vertex 0 -0.1875 0.227699
      vertex -0.0117731 -0.18713 0.227699
    endloop
  endfacet
  facet normal -0.0314121 -0.999507 -0
    outer loop
      vertex 0 -0.1875 0.227699
      vertex -0.0117731 -0.18713 0
      vertex 0 -0.1875 0
    endloop
  endfacet
  facet normal -0.338739 -0.94088 0
    outer loop
      vertex -0.0690231 -0.174333 0
      vertex -0.0579405 -0.178323 0.227699
      vertex -0.0690231 -0.174333 0.227699
    endloop
  endfacet
  facet normal -0.338739 -0.94088 -0
    outer loop
      vertex -0.0579405 -0.178323 0.227699
      vertex -0.0690231 -0.174333 0
      vertex -0.0579405 -0.178323 0
    endloop
  endfacet
  facet normal -0.397158 -0.91775 0
    outer loop
      vertex -0.079833 -0.169655 0
      vertex -0.0690231 -0.174333 0.227699
      vertex -0.079833 -0.169655 0.227699
    endloop
  endfacet
  facet normal -0.397158 -0.91775 -0
    outer loop
      vertex -0.0690231 -0.174333 0.227699
      vertex -0.079833 -0.169655 0
      vertex -0.0690231 -0.174333 0
    endloop
  endfacet
  facet normal -0.218097 -0.975927 0
    outer loop
      vertex -0.046629 -0.181609 0
      vertex -0.0351334 -0.184178 0.227699
      vertex -0.046629 -0.181609 0.227699
    endloop
  endfacet
  facet normal -0.218097 -0.975927 -0
    outer loop
      vertex -0.0351334 -0.184178 0.227699
      vertex -0.046629 -0.181609 0
      vertex -0.0351334 -0.184178 0
    endloop
  endfacet
  facet normal -0.0941528 -0.995558 0
    outer loop
      vertex -0.0234995 -0.186021 0
      vertex -0.0117731 -0.18713 0.227699
      vertex -0.0234995 -0.186021 0.227699
    endloop
  endfacet
  facet normal -0.0941528 -0.995558 -0
    outer loop
      vertex -0.0117731 -0.18713 0.227699
      vertex -0.0234995 -0.186021 0
      vertex -0.0117731 -0.18713 0
    endloop
  endfacet
  facet normal -0.9603 -0.278968 0
    outer loop
      vertex -0.178323 -0.0579405 0
      vertex -0.181609 -0.046629 0.227699
      vertex -0.181609 -0.046629 0
    endloop
  endfacet
  facet normal -0.9603 -0.278968 0
    outer loop
      vertex -0.181609 -0.046629 0.227699
      vertex -0.178323 -0.0579405 0
      vertex -0.178323 -0.0579405 0.227699
    endloop
  endfacet
  facet normal 0 0 1
    outer loop
      vertex -0.1875 0.375 0.227699
      vertex 0.1875 0.375 0.227699
      vertex 0.18713 0.386773 0.227699
    endloop
  endfacet
  facet normal 0 0 1
    outer loop
      vertex 0.1875 0.375 0.227699
      vertex -0.1875 0.375 0.227699
      vertex 0.1875 0 0.227699
    endloop
  endfacet
  facet normal 0 0 1
    outer loop
      vertex -0.1875 0.375 0.227699
      vertex 0.18713 0.386773 0.227699
      vertex 0.186021 0.398499 0.227699
    endloop
  endfacet
  facet normal 0 0 1
    outer loop
      vertex -0.1875 0 0.227699
      vertex 0.1875 0 0.227699
      vertex -0.1875 0.375 0.227699
    endloop
  endfacet
  facet normal 0 0 1
    outer loop
      vertex -0.1875 0.375 0.227699
      vertex 0.186021 0.398499 0.227699
      vertex 0.184178 0.410133 0.227699
    endloop
  endfacet
  facet normal 0 0 1
    outer loop
      vertex 0.1875 0 0.227699
      vertex -0.1875 0 0.227699
      vertex 0.18713 -0.0117731 0.227699
    endloop
  endfacet
  facet normal 0 0 1
    outer loop
      vertex -0.1875 0.375 0.227699
      vertex 0.184178 0.410133 0.227699
      vertex 0.181609 0.421629 0.227699
    endloop
  endfacet
  facet normal 0 0 1
    outer loop
      vertex 0.18713 -0.0117731 0.227699
      vertex -0.1875 0 0.227699
      vertex 0.186021 -0.0234995 0.227699
    endloop
  endfacet
  facet normal 0 0 1
    outer loop
      vertex -0.1875 0.375 0.227699
      vertex 0.181609 0.421629 0.227699
      vertex 0.178323 0.43294 0.227699
    endloop
  endfacet
  facet normal 0 0 1
    outer loop
      vertex 0.186021 -0.0234995 0.227699
      vertex -0.1875 0 0.227699
      vertex 0.184178 -0.0351334 0.227699
    endloop
  endfacet
  facet normal 0 0 1
    outer loop
      vertex -0.1875 0.375 0.227699
      vertex 0.178323 0.43294 0.227699
      vertex 0.174333 0.444023 0.227699
    endloop
  endfacet
  facet normal 0 0 1
    outer loop
      vertex 0.184178 -0.0351334 0.227699
      vertex -0.1875 0 0.227699
      vertex 0.181609 -0.046629 0.227699
    endloop
  endfacet
  facet normal 0 0 1
    outer loop
      vertex -0.1875 0.375 0.227699
      vertex 0.174333 0.444023 0.227699
      vertex 0.169655 0.454833 0.227699
    endloop
  endfacet
  facet normal 0 0 1
    outer loop
      vertex 0.181609 -0.046629 0.227699
      vertex -0.1875 0 0.227699
      vertex 0.178323 -0.0579405 0.227699
    endloop
  endfacet
  facet normal 0 0 1
    outer loop
      vertex -0.1875 0.375 0.227699
      vertex 0.169655 0.454833 0.227699
      vertex 0.164307 0.465328 0.227699
    endloop
  endfacet
  facet normal 0 0 1
    outer loop
      vertex 0.178323 -0.0579405 0.227699
      vertex -0.1875 0 0.227699
      vertex 0.174333 -0.0690231 0.227699
    endloop
  endfacet
  facet normal 0 0 1
    outer loop
      vertex -0.1875 0.375 0.227699
      vertex 0.164307 0.465328 0.227699
      vertex 0.158311 0.475467 0.227699
    endloop
  endfacet
  facet normal 0 0 1
    outer loop
      vertex 0.174333 -0.0690231 0.227699
      vertex -0.1875 0 0.227699
      vertex 0.169655 -0.079833 0.227699
    endloop
  endfacet
  facet normal 0 0 1
    outer loop
      vertex -0.1875 0.375 0.227699
      vertex 0.158311 0.475467 0.227699
      vertex 0.15169 0.485209 0.227699
    endloop
  endfacet
  facet normal 0 0 1
    outer loop
      vertex 0.169655 -0.079833 0.227699
      vertex -0.1875 0 0.227699
      vertex 0.164307 -0.0903282 0.227699
    endloop
  endfacet
  facet normal 0 0 1
    outer loop
      vertex -0.1875 0.375 0.227699
      vertex 0.15169 0.485209 0.227699
      vertex 0.144471 0.494516 0.227699
    endloop
  endfacet
  facet normal 0 0 1
    outer loop
      vertex 0.164307 -0.0903282 0.227699
      vertex -0.1875 0 0.227699
      vertex 0.158311 -0.100467 0.227699
    endloop
  endfacet
  facet normal 0 0 1
    outer loop
      vertex -0.1875 0.375 0.227699
      vertex 0.144471 0.494516 0.227699
      vertex 0.136682 0.503352 0.227699
    endloop
  endfacet
  facet normal 0 0 1
    outer loop
      vertex 0.158311 -0.100467 0.227699
      vertex -0.1875 0 0.227699
      vertex 0.15169 -0.110209 0.227699
    endloop
  endfacet
  facet normal 0 0 1
    outer loop
      vertex -0.1875 0.375 0.227699
      vertex 0.136682 0.503352 0.227699
      vertex 0.128352 0.511682 0.227699
    endloop
  endfacet
  facet normal 0 0 1
    outer loop
      vertex 0.15169 -0.110209 0.227699
      vertex -0.1875 0 0.227699
      vertex 0.144471 -0.119516 0.227699
    endloop
  endfacet
  facet normal 0 0 1
    outer loop
      vertex -0.1875 0.375 0.227699
      vertex 0.128352 0.511682 0.227699
      vertex 0.119516 0.519471 0.227699
    endloop
  endfacet
  facet normal 0 0 1
    outer loop
      vertex 0.144471 -0.119516 0.227699
      vertex -0.1875 0 0.227699
      vertex 0.136682 -0.128352 0.227699
    endloop
  endfacet
  facet normal 0 0 1
    outer loop
      vertex -0.1875 0.375 0.227699
      vertex 0.119516 0.519471 0.227699
      vertex 0.110209 0.52669 0.227699
    endloop
  endfacet
  facet normal 0 0 1
    outer loop
      vertex 0.136682 -0.128352 0.227699
      vertex -0.1875 0 0.227699
      vertex 0.128352 -0.136682 0.227699
    endloop
  endfacet
  facet normal 0 0 1
    outer loop
      vertex -0.1875 0.375 0.227699
      vertex 0.110209 0.52669 0.227699
      vertex 0.100467 0.533311 0.227699
    endloop
  endfacet
  facet normal 0 0 1
    outer loop
      vertex 0.128352 -0.136682 0.227699
      vertex -0.1875 0 0.227699
      vertex 0.119516 -0.144471 0.227699
    endloop
  endfacet
  facet normal 0 0 1
    outer loop
      vertex -0.1875 0.375 0.227699
      vertex 0.100467 0.533311 0.227699
      vertex 0.0903282 0.539307 0.227699
    endloop
  endfacet
  facet normal 0 0 1
    outer loop
      vertex 0.119516 -0.144471 0.227699
      vertex -0.1875 0 0.227699
      vertex 0.110209 -0.15169 0.227699
    endloop
  endfacet
  facet normal 0 0 1
    outer loop
      vertex -0.1875 0.375 0.227699
      vertex 0.0903282 0.539307 0.227699
      vertex 0.079833 0.544655 0.227699
    endloop
  endfacet
  facet normal 0 0 1
    outer loop
      vertex 0.110209 -0.15169 0.227699
      vertex -0.1875 0 0.227699
      vertex 0.100467 -0.158311 0.227699
    endloop
  endfacet
  facet normal 0 0 1
    outer loop
      vertex -0.1875 0.375 0.227699
      vertex 0.079833 0.544655 0.227699
      vertex 0.0690231 0.549333 0.227699
    endloop
  endfacet
  facet normal 0 0 1
    outer loop
      vertex 0.100467 -0.158311 0.227699
      vertex -0.1875 0 0.227699
      vertex 0.0903282 -0.164307 0.227699
    endloop
  endfacet
  facet normal 0 0 1
    outer loop
      vertex -0.1875 0.375 0.227699
      vertex 0.0690231 0.549333 0.227699
      vertex 0.0579405 0.553323 0.227699
    endloop
  endfacet
  facet normal 0 0 1
    outer loop
      vertex 0.0903282 -0.164307 0.227699
      vertex -0.1875 0 0.227699
      vertex 0.079833 -0.169655 0.227699
    endloop
  endfacet
  facet normal 0 0 1
    outer loop
      vertex -0.1875 0.375 0.227699
      vertex 0.0579405 0.553323 0.227699
      vertex 0.046629 0.556609 0.227699
    endloop
  endfacet
  facet normal 0 0 1
    outer loop
      vertex 0.079833 -0.169655 0.227699
      vertex -0.1875 0 0.227699
      vertex 0.0690231 -0.174333 0.227699
    endloop
  endfacet
  facet normal 0 0 1
    outer loop
      vertex -0.1875 0.375 0.227699
      vertex 0.046629 0.556609 0.227699
      vertex 0.0351334 0.559178 0.227699
    endloop
  endfacet
  facet normal 0 0 1
    outer loop
      vertex 0.0690231 -0.174333 0.227699
      vertex -0.1875 0 0.227699
      vertex 0.0579405 -0.178323 0.227699
    endloop
  endfacet
  facet normal 0 0 1
    outer loop
      vertex -0.1875 0.375 0.227699
      vertex 0.0351334 0.559178 0.227699
      vertex 0.0234995 0.561021 0.227699
    endloop
  endfacet
  facet normal 0 0 1
    outer loop
      vertex 0.0579405 -0.178323 0.227699
      vertex -0.1875 0 0.227699
      vertex 0.046629 -0.181609 0.227699
    endloop
  endfacet
  facet normal 0 0 1
    outer loop
      vertex -0.1875 0.375 0.227699
      vertex 0.0234995 0.561021 0.227699
      vertex 0.0117731 0.56213 0.227699
    endloop
  endfacet
  facet normal 0 0 1
    outer loop
      vertex 0.046629 -0.181609 0.227699
      vertex -0.1875 0 0.227699
      vertex 0.0351334 -0.184178 0.227699
    endloop
  endfacet
  facet normal 0 0 1
    outer loop
      vertex -0.1875 0.375 0.227699
      vertex 0.0117731 0.56213 0.227699
      vertex 0 0.5625 0.227699
    endloop
  endfacet
  facet normal 0 0 1
    outer loop
      vertex 0.0351334 -0.184178 0.227699
      vertex -0.1875 0 0.227699
      vertex 0.0234995 -0.186021 0.227699
    endloop
  endfacet
  facet normal 0 0 1
    outer loop
      vertex -0.1875 0.375 0.227699
      vertex 0 0.5625 0.227699
      vertex -0.0117731 0.56213 0.227699
    endloop
  endfacet
  facet normal 0 0 1
    outer loop
      vertex 0.0234995 -0.186021 0.227699
      vertex -0.1875 0 0.227699
      vertex 0.0117731 -0.18713 0.227699
    endloop
  endfacet
  facet normal 0 0 1
    outer loop
      vertex -0.1875 0.375 0.227699
      vertex -0.0117731 0.56213 0.227699
      vertex -0.0234995 0.561021 0.227699
    endloop
  endfacet
  facet normal 0 0 1
    outer loop
      vertex 0.0117731 -0.18713 0.227699
      vertex -0.1875 0 0.227699
      vertex 0 -0.1875 0.227699
    endloop
  endfacet
  facet normal 0 0 1
    outer loop
      vertex -0.1875 0.375 0.227699
      vertex -0.0234995 0.561021 0.227699
      vertex -0.0351334 0.559178 0.227699
    endloop
  endfacet
  facet normal 0 0 1
    outer loop
      vertex 0 -0.1875 0.227699
      vertex -0.1875 0 0.227699
      vertex -0.0117731 -0.18713 0.227699
    endloop
  endfacet
  facet normal 0 0 1
    outer loop
      vertex -0.1875 0.375 0.227699
      vertex -0.0351334 0.559178 0.227699
      vertex -0.046629 0.556609 0.227699
    endloop
  endfacet
  facet normal 0 0 1
    outer loop
      vertex -0.0117731 -0.18713 0.227699
      vertex -0.1875 0 0.227699
      vertex -0.0234995 -0.186021 0.227699
    endloop
  endfacet
  facet normal 0 0 1
    outer loop
      vertex -0.1875 0.375 0.227699
      vertex -0.046629 0.556609 0.227699
      vertex -0.0579405 0.553323 0.227699
    endloop
  endfacet
  facet normal 0 0 1
    outer loop
      vertex -0.0234995 -0.186021 0.227699
      vertex -0.1875 0 0.227699
      vertex -0.0351334 -0.184178 0.227699
    endloop
  endfacet
  facet normal 0 0 1
    outer loop
      vertex -0.1875 0.375 0.227699
      vertex -0.0579405 0.553323 0.227699
      vertex -0.0690231 0.549333 0.227699
    endloop
  endfacet
  facet normal 0 0 1
    outer loop
      vertex -0.0351334 -0.184178 0.227699
      vertex -0.1875 0 0.227699
      vertex -0.046629 -0.181609 0.227699
    endloop
  endfacet
  facet normal 0 0 1
    outer loop
      vertex -0.1875 0.375 0.227699
      vertex -0.0690231 0.549333 0.227699
      vertex -0.079833 0.544655 0.227699
    endloop
  endfacet
  facet normal 0 0 1
    outer loop
      vertex -0.046629 -0.181609 0.227699
      vertex -0.1875 0 0.227699
      vertex -0.0579405 -0.178323 0.227699
    endloop
  endfacet
  facet normal 0 0 1
    outer loop
      vertex -0.1875 0.375 0.227699
      vertex -0.079833 0.544655 0.227699
      vertex -0.0903282 0.539307 0.227699
    endloop
  endfacet
  facet normal 0 0 1
    outer loop
      vertex -0.0579405 -0.178323 0.227699
      vertex -0.1875 0 0.227699
      vertex -0.0690231 -0.174333 0.227699
    endloop
  endfacet
  facet normal 0 0 1
    outer loop
      vertex -0.1875 0.375 0.227699
      vertex -0.0903282 0.539307 0.227699
      vertex -0.100467 0.533311 0.227699
    endloop
  endfacet
  facet normal 0 0 1
    outer loop
      vertex -0.0690231 -0.174333 0.227699
      vertex -0.1875 0 0.227699
      vertex -0.079833 -0.169655 0.227699
    endloop
  endfacet
  facet normal 0 0 1
    outer loop
      vertex -0.1875 0.375 0.227699
      vertex -0.100467 0.533311 0.227699
      vertex -0.110209 0.52669 0.227699
    endloop
  endfacet
  facet normal 0 0 1
    outer loop
      vertex -0.079833 -0.169655 0.227699
      vertex -0.1875 0 0.227699
      vertex -0.0903282 -0.164307 0.227699
    endloop
  endfacet
  facet normal 0 0 1
    outer loop
      vertex -0.1875 0.375 0.227699
      vertex -0.110209 0.52669 0.227699
      vertex -0.119516 0.519471 0.227699
    endloop
  endfacet
  facet normal 0 0 1
    outer loop
      vertex -0.0903282 -0.164307 0.227699
      vertex -0.1875 0 0.227699
      vertex -0.100467 -0.158311 0.227699
    endloop
  endfacet
  facet normal 0 0 1
    outer loop
      vertex -0.1875 0.375 0.227699
      vertex -0.119516 0.519471 0.227699
      vertex -0.128352 0.511682 0.227699
    endloop
  endfacet
  facet normal 0 0 1
    outer loop
      vertex -0.100467 -0.158311 0.227699
      vertex -0.1875 0 0.227699
      vertex -0.110209 -0.15169 0.227699
    endloop
  endfacet
  facet normal 0 0 1
    outer loop
      vertex -0.1875 0.375 0.227699
      vertex -0.128352 0.511682 0.227699
      vertex -0.136682 0.503352 0.227699
    endloop
  endfacet
  facet normal 0 0 1
    outer loop
      vertex -0.110209 -0.15169 0.227699
      vertex -0.1875 0 0.227699
      vertex -0.119516 -0.144471 0.227699
    endloop
  endfacet
  facet normal 0 0 1
    outer loop
      vertex -0.1875 0.375 0.227699
      vertex -0.136682 0.503352 0.227699
      vertex -0.144471 0.494516 0.227699
    endloop
  endfacet
  facet normal 0 0 1
    outer loop
      vertex -0.119516 -0.144471 0.227699
      vertex -0.1875 0 0.227699
      vertex -0.128352 -0.136682 0.227699
    endloop
  endfacet
  facet normal 0 0 1
    outer loop
      vertex -0.1875 0.375 0.227699
      vertex -0.144471 0.494516 0.227699
      vertex -0.15169 0.485209 0.227699
    endloop
  endfacet
  facet normal 0 0 1
    outer loop
      vertex -0.128352 -0.136682 0.227699
      vertex -0.1875 0 0.227699
      vertex -0.136682 -0.128352 0.227699
    endloop
  endfacet
  facet normal 0 0 1
    outer loop
      vertex -0.1875 0.375 0.227699
      vertex -0.15169 0.485209 0.227699
      vertex -0.158311 0.475467 0.227699
    endloop
  endfacet
  facet normal 0 0 1
    outer loop
      vertex -0.136682 -0.128352 0.227699
      vertex -0.1875 0 0.227699
      vertex -0.144471 -0.119516 0.227699
    endloop
  endfacet
  facet normal 0 0 1
    outer loop
      vertex -0.1875 0.375 0.227699
      vertex -0.158311 0.475467 0.227699
      vertex -0.164307 0.465328 0.227699
    endloop
  endfacet
  facet normal 0 0 1
    outer loop
      vertex -0.144471 -0.119516 0.227699
      vertex -0.1875 0 0.227699
      vertex -0.15169 -0.110209 0.227699
    endloop
  endfacet
  facet normal 0 0 1
    outer loop
      vertex -0.1875 0.375 0.227699
      vertex -0.164307 0.465328 0.227699
      vertex -0.169655 0.454833 0.227699
    endloop
  endfacet
  facet normal 0 0 1
    outer loop
      vertex -0.15169 -0.110209 0.227699
      vertex -0.1875 0 0.227699
      vertex -0.158311 -0.100467 0.227699
    endloop
  endfacet
  facet normal 0 0 1
    outer loop
      vertex -0.1875 0.375 0.227699
      vertex -0.169655 0.454833 0.227699
      vertex -0.174333 0.444023 0.227699
    endloop
  endfacet
  facet normal 0 0 1
    outer loop
      vertex -0.158311 -0.100467 0.227699
      vertex -0.1875 0 0.227699
      vertex -0.164307 -0.0903282 0.227699
    endloop
  endfacet
  facet normal 0 0 1
    outer loop
      vertex -0.1875 0.375 0.227699
      vertex -0.174333 0.444023 0.227699
      vertex -0.178323 0.43294 0.227699
    endloop
  endfacet
  facet normal 0 0 1
    outer loop
      vertex -0.164307 -0.0903282 0.227699
      vertex -0.1875 0 0.227699
      vertex -0.169655 -0.079833 0.227699
    endloop
  endfacet
  facet normal 0 0 1
    outer loop
      vertex -0.1875 0.375 0.227699
      vertex -0.178323 0.43294 0.227699
      vertex -0.181609 0.421629 0.227699
    endloop
  endfacet
  facet normal 0 0 1
    outer loop
      vertex -0.169655 -0.079833 0.227699
      vertex -0.1875 0 0.227699
      vertex -0.174333 -0.0690231 0.227699
    endloop
  endfacet
  facet normal 0 0 1
    outer loop
      vertex -0.1875 0.375 0.227699
      vertex -0.181609 0.421629 0.227699
      vertex -0.184178 0.410133 0.227699
    endloop
  endfacet
  facet normal 0 0 1
    outer loop
      vertex -0.174333 -0.0690231 0.227699
      vertex -0.1875 0 0.227699
      vertex -0.178323 -0.0579405 0.227699
    endloop
  endfacet
  facet normal 0 0 1
    outer loop
      vertex -0.1875 0.375 0.227699
      vertex -0.184178 0.410133 0.227699
      vertex -0.186021 0.398499 0.227699
    endloop
  endfacet
  facet normal 0 0 1
    outer loop
      vertex -0.178323 -0.0579405 0.227699
      vertex -0.1875 0 0.227699
      vertex -0.181609 -0.046629 0.227699
    endloop
  endfacet
  facet normal 0 0 1
    outer loop
      vertex -0.1875 0.375 0.227699
      vertex -0.186021 0.398499 0.227699
      vertex -0.18713 0.386773 0.227699
    endloop
  endfacet
  facet normal 0 0 1
    outer loop
      vertex -0.181609 -0.046629 0.227699
      vertex -0.1875 0 0.227699
      vertex -0.184178 -0.0351334 0.227699
    endloop
  endfacet
  facet normal 0 0 1
    outer loop
      vertex -0.184178 -0.0351334 0.227699
      vertex -0.1875 0 0.227699
      vertex -0.186021 -0.0234995 0.227699
    endloop
  endfacet
  facet normal 0 0 1
    outer loop
      vertex -0.186021 -0.0234995 0.227699
      vertex -0.1875 0 0.227699
      vertex -0.18713 -0.0117731 0.227699
    endloop
  endfacet
  facet normal -1 0 0
    outer loop
      vertex 0.313 0.313 -0.227699
      vertex 0.313 0.436929 -0.0133991
      vertex 0.313 0.436929 -0.227699
    endloop
  endfacet
  facet normal -1 -0 0
    outer loop
      vertex 0.313 0.436929 -0.0133991
      vertex 0.313 0.313 -0.227699
      vertex 0.313 0.313 -0.0133991
    endloop
  endfacet
  facet normal -0 0 1
    outer loop
      vertex 0.313 0.436929 -0.0133991
      vertex 0.374964 0.313 -0.0133991
      vertex 0.374964 0.436929 -0.0133991
    endloop
  endfacet
  facet normal 0 0 1
    outer loop
      vertex 0.374964 0.313 -0.0133991
      vertex 0.313 0.436929 -0.0133991
      vertex 0.313 0.313 -0.0133991
    endloop
  endfacet
  facet normal 1 -0 0
    outer loop
      vertex 0.374964 0.313 -0.0133991
      vertex 0.374964 0.436929 -0.227699
      vertex 0.374964 0.436929 -0.0133991
    endloop
  endfacet
  facet normal 1 0 0
    outer loop
      vertex 0.374964 0.436929 -0.227699
      vertex 0.374964 0.313 -0.0133991
      vertex 0.374964 0.313 -0.227699
    endloop
  endfacet
  facet normal 0 1 -0
    outer loop
      vertex 0.374964 0.436929 -0.227699
      vertex 0.313 0.436929 -0.0133991
      vertex 0.374964 0.436929 -0.0133991
    endloop
  endfacet
  facet normal 0 1 0
    outer loop
      vertex 0.313 0.436929 -0.0133991
      vertex 0.374964 0.436929 -0.227699
      vertex 0.313 0.436929 -0.227699
    endloop
  endfacet
  facet normal 0 0 -1
    outer loop
      vertex 0.313 0.313 -0.227699
      vertex 0.374964 0.436929 -0.227699
      vertex 0.374964 0.313 -0.227699
    endloop
  endfacet
  facet normal -0 0 -1
    outer loop
      vertex 0.374964 0.436929 -0.227699
      vertex 0.313 0.313 -0.227699
      vertex 0.313 0.436929 -0.227699
    endloop
  endfacet
  facet normal 0 -1 0
    outer loop
      vertex 0.313 0.313 -0.227699
      vertex 0.374964 0.313 -0.0133991
      vertex 0.313 0.313 -0.0133991
    endloop
  endfacet
  facet normal 0 -1 -0
    outer loop
      vertex 0.374964 0.313 -0.0133991
      vertex 0.313 0.313 -0.227699
      vertex 0.374964 0.313 -0.227699
    endloop
  endfacet
endsolid OpenSCAD_Model
