solid OpenSCAD_Model
  facet normal -0.98922 -0.146439 0
    outer loop
      vertex -23.6565 -2.36768 -0.2
      vertex -23.6759 -2.23663 0.2
      vertex -23.6759 -2.23663 -0.2
    endloop
  endfacet
  facet normal -0.98922 -0.146439 0
    outer loop
      vertex -23.6759 -2.23663 0.2
      vertex -23.6565 -2.36768 -0.2
      vertex -23.6565 -2.36768 0.2
    endloop
  endfacet
  facet normal -0.998796 -0.0490642 0
    outer loop
      vertex -23.65 -2.5 -0.2
      vertex -23.6565 -2.36768 0.2
      vertex -23.6565 -2.36768 -0.2
    endloop
  endfacet
  facet normal -0.998796 -0.0490642 0
    outer loop
      vertex -23.6565 -2.36768 0.2
      vertex -23.65 -2.5 -0.2
      vertex -23.65 -2.5 0.2
    endloop
  endfacet
  facet normal -0.970014 -0.243051 0
    outer loop
      vertex -23.6759 -2.23663 -0.2
      vertex -23.7081 -2.10812 0.2
      vertex -23.7081 -2.10812 -0.2
    endloop
  endfacet
  facet normal -0.970014 -0.243051 0
    outer loop
      vertex -23.7081 -2.10812 0.2
      vertex -23.6759 -2.23663 -0.2
      vertex -23.6759 -2.23663 0.2
    endloop
  endfacet
  facet normal -0.336968 -0.941516 0
    outer loop
      vertex -24.6081 -1.20813 -0.2
      vertex -24.4834 -1.25276 0.2
      vertex -24.6081 -1.20813 0.2
    endloop
  endfacet
  facet normal -0.336968 -0.941516 -0
    outer loop
      vertex -24.4834 -1.25276 0.2
      vertex -24.6081 -1.20813 -0.2
      vertex -24.4834 -1.25276 -0.2
    endloop
  endfacet
  facet normal -0.98922 0.146439 0
    outer loop
      vertex -23.6759 -2.76337 -0.2
      vertex -23.6565 -2.63232 0.2
      vertex -23.6565 -2.63232 -0.2
    endloop
  endfacet
  facet normal -0.98922 0.146439 0
    outer loop
      vertex -23.6565 -2.63232 0.2
      vertex -23.6759 -2.76337 -0.2
      vertex -23.6759 -2.76337 0.2
    endloop
  endfacet
  facet normal -0.803276 -0.595607 0
    outer loop
      vertex -23.8775 -1.74998 -0.2
      vertex -23.9564 -1.64357 0.2
      vertex -23.9564 -1.64357 -0.2
    endloop
  endfacet
  facet normal -0.803276 -0.595607 0
    outer loop
      vertex -23.9564 -1.64357 0.2
      vertex -23.8775 -1.74998 -0.2
      vertex -23.8775 -1.74998 0.2
    endloop
  endfacet
  facet normal -0.59574 -0.803177 0
    outer loop
      vertex -24.25 -1.37752 -0.2
      vertex -24.1436 -1.45644 0.2
      vertex -24.25 -1.37752 0.2
    endloop
  endfacet
  facet normal -0.59574 -0.803177 -0
    outer loop
      vertex -24.1436 -1.45644 0.2
      vertex -24.25 -1.37752 -0.2
      vertex -24.1436 -1.45644 -0.2
    endloop
  endfacet
  facet normal -0.998796 0.0490642 0
    outer loop
      vertex -23.6565 -2.63232 -0.2
      vertex -23.65 -2.5 0.2
      vertex -23.65 -2.5 -0.2
    endloop
  endfacet
  facet normal -0.998796 0.0490642 0
    outer loop
      vertex -23.65 -2.5 0.2
      vertex -23.6565 -2.63232 -0.2
      vertex -23.6565 -2.63232 0.2
    endloop
  endfacet
  facet normal -0.242997 -0.970027 0
    outer loop
      vertex -24.7366 -1.17594 -0.2
      vertex -24.6081 -1.20813 0.2
      vertex -24.7366 -1.17594 0.2
    endloop
  endfacet
  facet normal -0.242997 -0.970027 -0
    outer loop
      vertex -24.6081 -1.20813 0.2
      vertex -24.7366 -1.17594 -0.2
      vertex -24.6081 -1.20813 -0.2
    endloop
  endfacet
  facet normal -0.427486 -0.904022 0
    outer loop
      vertex -24.4834 -1.25276 -0.2
      vertex -24.3636 -1.30941 0.2
      vertex -24.4834 -1.25276 0.2
    endloop
  endfacet
  facet normal -0.427486 -0.904022 -0
    outer loop
      vertex -24.3636 -1.30941 0.2
      vertex -24.4834 -1.25276 -0.2
      vertex -24.3636 -1.30941 -0.2
    endloop
  endfacet
  facet normal -0.671421 0.741076 0
    outer loop
      vertex -24.0454 -3.45459 -0.2
      vertex -24.1436 -3.54356 0.2
      vertex -24.0454 -3.45459 0.2
    endloop
  endfacet
  facet normal -0.671421 0.741076 0
    outer loop
      vertex -24.1436 -3.54356 0.2
      vertex -24.0454 -3.45459 -0.2
      vertex -24.1436 -3.54356 -0.2
    endloop
  endfacet
  facet normal -0.941383 -0.33734 0
    outer loop
      vertex -23.7081 -2.10812 -0.2
      vertex -23.7528 -1.98338 0.2
      vertex -23.7528 -1.98338 -0.2
    endloop
  endfacet
  facet normal -0.941383 -0.33734 0
    outer loop
      vertex -23.7528 -1.98338 0.2
      vertex -23.7081 -2.10812 -0.2
      vertex -23.7081 -2.10812 0.2
    endloop
  endfacet
  facet normal -0.336968 0.941516 0
    outer loop
      vertex -24.4834 -3.74724 -0.2
      vertex -24.6081 -3.79187 0.2
      vertex -24.4834 -3.74724 0.2
    endloop
  endfacet
  facet normal -0.336968 0.941516 0
    outer loop
      vertex -24.6081 -3.79187 0.2
      vertex -24.4834 -3.74724 -0.2
      vertex -24.6081 -3.79187 -0.2
    endloop
  endfacet
  facet normal -0.59574 0.803177 0
    outer loop
      vertex -24.1436 -3.54356 -0.2
      vertex -24.25 -3.62248 0.2
      vertex -24.1436 -3.54356 0.2
    endloop
  endfacet
  facet normal -0.59574 0.803177 0
    outer loop
      vertex -24.25 -3.62248 0.2
      vertex -24.1436 -3.54356 -0.2
      vertex -24.25 -3.62248 -0.2
    endloop
  endfacet
  facet normal -0.803276 0.595607 0
    outer loop
      vertex -23.9564 -3.35643 -0.2
      vertex -23.8775 -3.25002 0.2
      vertex -23.8775 -3.25002 -0.2
    endloop
  endfacet
  facet normal -0.803276 0.595607 0
    outer loop
      vertex -23.8775 -3.25002 0.2
      vertex -23.9564 -3.35643 -0.2
      vertex -23.9564 -3.35643 0.2
    endloop
  endfacet
  facet normal -0.14668 -0.989184 0
    outer loop
      vertex -24.8677 -1.1565 -0.2
      vertex -24.7366 -1.17594 0.2
      vertex -24.8677 -1.1565 0.2
    endloop
  endfacet
  facet normal -0.14668 -0.989184 -0
    outer loop
      vertex -24.7366 -1.17594 0.2
      vertex -24.8677 -1.1565 -0.2
      vertex -24.7366 -1.17594 -0.2
    endloop
  endfacet
  facet normal -0.14668 0.989184 0
    outer loop
      vertex -24.7366 -3.82406 -0.2
      vertex -24.8677 -3.8435 0.2
      vertex -24.7366 -3.82406 0.2
    endloop
  endfacet
  facet normal -0.14668 0.989184 0
    outer loop
      vertex -24.8677 -3.8435 0.2
      vertex -24.7366 -3.82406 -0.2
      vertex -24.8677 -3.8435 -0.2
    endloop
  endfacet
  facet normal -0.740827 0.671696 0
    outer loop
      vertex -24.0454 -3.45459 -0.2
      vertex -23.9564 -3.35643 0.2
      vertex -23.9564 -3.35643 -0.2
    endloop
  endfacet
  facet normal -0.740827 0.671696 0
    outer loop
      vertex -23.9564 -3.35643 0.2
      vertex -24.0454 -3.45459 -0.2
      vertex -24.0454 -3.45459 0.2
    endloop
  endfacet
  facet normal -0.904126 -0.427265 0
    outer loop
      vertex -23.7528 -1.98338 -0.2
      vertex -23.8094 -1.86361 0.2
      vertex -23.8094 -1.86361 -0.2
    endloop
  endfacet
  facet normal -0.904126 -0.427265 0
    outer loop
      vertex -23.8094 -1.86361 0.2
      vertex -23.7528 -1.98338 -0.2
      vertex -23.7528 -1.98338 0.2
    endloop
  endfacet
  facet normal -0.514218 -0.857659 0
    outer loop
      vertex -24.3636 -1.30941 -0.2
      vertex -24.25 -1.37752 0.2
      vertex -24.3636 -1.30941 0.2
    endloop
  endfacet
  facet normal -0.514218 -0.857659 -0
    outer loop
      vertex -24.25 -1.37752 0.2
      vertex -24.3636 -1.30941 -0.2
      vertex -24.25 -1.37752 -0.2
    endloop
  endfacet
  facet normal -0.671421 -0.741076 0
    outer loop
      vertex -24.1436 -1.45644 -0.2
      vertex -24.0454 -1.54541 0.2
      vertex -24.1436 -1.45644 0.2
    endloop
  endfacet
  facet normal -0.671421 -0.741076 -0
    outer loop
      vertex -24.0454 -1.54541 0.2
      vertex -24.1436 -1.45644 -0.2
      vertex -24.0454 -1.54541 -0.2
    endloop
  endfacet
  facet normal -0.242997 0.970027 0
    outer loop
      vertex -24.6081 -3.79187 -0.2
      vertex -24.7366 -3.82406 0.2
      vertex -24.6081 -3.79187 0.2
    endloop
  endfacet
  facet normal -0.242997 0.970027 0
    outer loop
      vertex -24.7366 -3.82406 0.2
      vertex -24.6081 -3.79187 -0.2
      vertex -24.7366 -3.82406 -0.2
    endloop
  endfacet
  facet normal -0.904113 0.427294 0
    outer loop
      vertex -23.8094 -3.13638 -0.2
      vertex -23.7528 -3.01662 0.2
      vertex -23.7528 -3.01662 -0.2
    endloop
  endfacet
  facet normal -0.904113 0.427294 0
    outer loop
      vertex -23.7528 -3.01662 0.2
      vertex -23.8094 -3.13638 -0.2
      vertex -23.8094 -3.13638 0.2
    endloop
  endfacet
  facet normal -0.427486 0.904022 0
    outer loop
      vertex -24.3636 -3.69059 -0.2
      vertex -24.4834 -3.74724 0.2
      vertex -24.3636 -3.69059 0.2
    endloop
  endfacet
  facet normal -0.427486 0.904022 0
    outer loop
      vertex -24.4834 -3.74724 0.2
      vertex -24.3636 -3.69059 -0.2
      vertex -24.4834 -3.74724 -0.2
    endloop
  endfacet
  facet normal -0.0490716 -0.998795 0
    outer loop
      vertex -25 -1.15 -0.2
      vertex -24.8677 -1.1565 0.2
      vertex -25 -1.15 0.2
    endloop
  endfacet
  facet normal -0.0490716 -0.998795 -0
    outer loop
      vertex -24.8677 -1.1565 0.2
      vertex -25 -1.15 -0.2
      vertex -24.8677 -1.1565 -0.2
    endloop
  endfacet
  facet normal -0.970014 0.243051 0
    outer loop
      vertex -23.7081 -2.89188 -0.2
      vertex -23.6759 -2.76337 0.2
      vertex -23.6759 -2.76337 -0.2
    endloop
  endfacet
  facet normal -0.970014 0.243051 0
    outer loop
      vertex -23.6759 -2.76337 0.2
      vertex -23.7081 -2.89188 -0.2
      vertex -23.7081 -2.89188 0.2
    endloop
  endfacet
  facet normal -0.857753 -0.514063 0
    outer loop
      vertex -23.8094 -1.86361 -0.2
      vertex -23.8775 -1.74998 0.2
      vertex -23.8775 -1.74998 -0.2
    endloop
  endfacet
  facet normal -0.857753 -0.514063 0
    outer loop
      vertex -23.8775 -1.74998 0.2
      vertex -23.8094 -1.86361 -0.2
      vertex -23.8094 -1.86361 0.2
    endloop
  endfacet
  facet normal -0.0490716 0.998795 0
    outer loop
      vertex -24.8677 -3.8435 -0.2
      vertex -25 -3.85 0.2
      vertex -24.8677 -3.8435 0.2
    endloop
  endfacet
  facet normal -0.0490716 0.998795 0
    outer loop
      vertex -25 -3.85 0.2
      vertex -24.8677 -3.8435 -0.2
      vertex -25 -3.85 -0.2
    endloop
  endfacet
  facet normal -0.514218 0.857659 0
    outer loop
      vertex -24.25 -3.62248 -0.2
      vertex -24.3636 -3.69059 0.2
      vertex -24.25 -3.62248 0.2
    endloop
  endfacet
  facet normal -0.514218 0.857659 0
    outer loop
      vertex -24.3636 -3.69059 0.2
      vertex -24.25 -3.62248 -0.2
      vertex -24.3636 -3.69059 -0.2
    endloop
  endfacet
  facet normal -0.740827 -0.671696 0
    outer loop
      vertex -23.9564 -1.64357 -0.2
      vertex -24.0454 -1.54541 0.2
      vertex -24.0454 -1.54541 -0.2
    endloop
  endfacet
  facet normal -0.740827 -0.671696 0
    outer loop
      vertex -24.0454 -1.54541 0.2
      vertex -23.9564 -1.64357 -0.2
      vertex -23.9564 -1.64357 0.2
    endloop
  endfacet
  facet normal -0.857773 0.514029 0
    outer loop
      vertex -23.8775 -3.25002 -0.2
      vertex -23.8094 -3.13638 0.2
      vertex -23.8094 -3.13638 -0.2
    endloop
  endfacet
  facet normal -0.857773 0.514029 0
    outer loop
      vertex -23.8094 -3.13638 0.2
      vertex -23.8775 -3.25002 -0.2
      vertex -23.8775 -3.25002 0.2
    endloop
  endfacet
  facet normal -0.941383 0.33734 0
    outer loop
      vertex -23.7528 -3.01662 -0.2
      vertex -23.7081 -2.89188 0.2
      vertex -23.7081 -2.89188 -0.2
    endloop
  endfacet
  facet normal -0.941383 0.33734 0
    outer loop
      vertex -23.7081 -2.89188 0.2
      vertex -23.7528 -3.01662 -0.2
      vertex -23.7528 -3.01662 0.2
    endloop
  endfacet
  facet normal -0.98922 -0.146439 0
    outer loop
      vertex -23.6565 2.63232 -0.2
      vertex -23.6759 2.76337 0.2
      vertex -23.6759 2.76337 -0.2
    endloop
  endfacet
  facet normal -0.98922 -0.146439 0
    outer loop
      vertex -23.6759 2.76337 0.2
      vertex -23.6565 2.63232 -0.2
      vertex -23.6565 2.63232 0.2
    endloop
  endfacet
  facet normal -0.998796 -0.0490642 0
    outer loop
      vertex -23.65 2.5 -0.2
      vertex -23.6565 2.63232 0.2
      vertex -23.6565 2.63232 -0.2
    endloop
  endfacet
  facet normal -0.998796 -0.0490642 0
    outer loop
      vertex -23.6565 2.63232 0.2
      vertex -23.65 2.5 -0.2
      vertex -23.65 2.5 0.2
    endloop
  endfacet
  facet normal -0.970014 -0.243051 0
    outer loop
      vertex -23.6759 2.76337 -0.2
      vertex -23.7081 2.89188 0.2
      vertex -23.7081 2.89188 -0.2
    endloop
  endfacet
  facet normal -0.970014 -0.243051 0
    outer loop
      vertex -23.7081 2.89188 0.2
      vertex -23.6759 2.76337 -0.2
      vertex -23.6759 2.76337 0.2
    endloop
  endfacet
  facet normal -0.941383 0.33734 0
    outer loop
      vertex -23.7528 1.98338 -0.2
      vertex -23.7081 2.10812 0.2
      vertex -23.7081 2.10812 -0.2
    endloop
  endfacet
  facet normal -0.941383 0.33734 0
    outer loop
      vertex -23.7081 2.10812 0.2
      vertex -23.7528 1.98338 -0.2
      vertex -23.7528 1.98338 0.2
    endloop
  endfacet
  facet normal -0.242997 0.970027 0
    outer loop
      vertex -24.6081 1.20813 -0.2
      vertex -24.7366 1.17594 0.2
      vertex -24.6081 1.20813 0.2
    endloop
  endfacet
  facet normal -0.242997 0.970027 0
    outer loop
      vertex -24.7366 1.17594 0.2
      vertex -24.6081 1.20813 -0.2
      vertex -24.7366 1.17594 -0.2
    endloop
  endfacet
  facet normal -0.671421 0.741076 0
    outer loop
      vertex -24.0454 1.54541 -0.2
      vertex -24.1436 1.45644 0.2
      vertex -24.0454 1.54541 0.2
    endloop
  endfacet
  facet normal -0.671421 0.741076 0
    outer loop
      vertex -24.1436 1.45644 0.2
      vertex -24.0454 1.54541 -0.2
      vertex -24.1436 1.45644 -0.2
    endloop
  endfacet
  facet normal -0.904113 -0.427294 0
    outer loop
      vertex -23.7528 3.01662 -0.2
      vertex -23.8094 3.13638 0.2
      vertex -23.8094 3.13638 -0.2
    endloop
  endfacet
  facet normal -0.904113 -0.427294 0
    outer loop
      vertex -23.8094 3.13638 0.2
      vertex -23.7528 3.01662 -0.2
      vertex -23.7528 3.01662 0.2
    endloop
  endfacet
  facet normal -0.803276 0.595607 0
    outer loop
      vertex -23.9564 1.64357 -0.2
      vertex -23.8775 1.74998 0.2
      vertex -23.8775 1.74998 -0.2
    endloop
  endfacet
  facet normal -0.803276 0.595607 0
    outer loop
      vertex -23.8775 1.74998 0.2
      vertex -23.9564 1.64357 -0.2
      vertex -23.9564 1.64357 0.2
    endloop
  endfacet
  facet normal -0.59574 -0.803177 0
    outer loop
      vertex -24.25 3.62248 -0.2
      vertex -24.1436 3.54356 0.2
      vertex -24.25 3.62248 0.2
    endloop
  endfacet
  facet normal -0.59574 -0.803177 -0
    outer loop
      vertex -24.1436 3.54356 0.2
      vertex -24.25 3.62248 -0.2
      vertex -24.1436 3.54356 -0.2
    endloop
  endfacet
  facet normal -0.0490716 -0.998795 0
    outer loop
      vertex -25 3.85 -0.2
      vertex -24.8677 3.8435 0.2
      vertex -25 3.85 0.2
    endloop
  endfacet
  facet normal -0.0490716 -0.998795 -0
    outer loop
      vertex -24.8677 3.8435 0.2
      vertex -25 3.85 -0.2
      vertex -24.8677 3.8435 -0.2
    endloop
  endfacet
  facet normal -0.803276 -0.595607 0
    outer loop
      vertex -23.8775 3.25002 -0.2
      vertex -23.9564 3.35643 0.2
      vertex -23.9564 3.35643 -0.2
    endloop
  endfacet
  facet normal -0.803276 -0.595607 0
    outer loop
      vertex -23.9564 3.35643 0.2
      vertex -23.8775 3.25002 -0.2
      vertex -23.8775 3.25002 0.2
    endloop
  endfacet
  facet normal -0.514218 -0.857659 0
    outer loop
      vertex -24.3636 3.69059 -0.2
      vertex -24.25 3.62248 0.2
      vertex -24.3636 3.69059 0.2
    endloop
  endfacet
  facet normal -0.514218 -0.857659 -0
    outer loop
      vertex -24.25 3.62248 0.2
      vertex -24.3636 3.69059 -0.2
      vertex -24.25 3.62248 -0.2
    endloop
  endfacet
  facet normal -0.998796 0.0490642 0
    outer loop
      vertex -23.6565 2.36768 -0.2
      vertex -23.65 2.5 0.2
      vertex -23.65 2.5 -0.2
    endloop
  endfacet
  facet normal -0.998796 0.0490642 0
    outer loop
      vertex -23.65 2.5 0.2
      vertex -23.6565 2.36768 -0.2
      vertex -23.6565 2.36768 0.2
    endloop
  endfacet
  facet normal -0.671421 -0.741076 0
    outer loop
      vertex -24.1436 3.54356 -0.2
      vertex -24.0454 3.45459 0.2
      vertex -24.1436 3.54356 0.2
    endloop
  endfacet
  facet normal -0.671421 -0.741076 -0
    outer loop
      vertex -24.0454 3.45459 0.2
      vertex -24.1436 3.54356 -0.2
      vertex -24.0454 3.45459 -0.2
    endloop
  endfacet
  facet normal -0.941383 -0.33734 0
    outer loop
      vertex -23.7081 2.89188 -0.2
      vertex -23.7528 3.01662 0.2
      vertex -23.7528 3.01662 -0.2
    endloop
  endfacet
  facet normal -0.941383 -0.33734 0
    outer loop
      vertex -23.7528 3.01662 0.2
      vertex -23.7081 2.89188 -0.2
      vertex -23.7081 2.89188 0.2
    endloop
  endfacet
  facet normal -0.970014 0.243051 0
    outer loop
      vertex -23.7081 2.10812 -0.2
      vertex -23.6759 2.23663 0.2
      vertex -23.6759 2.23663 -0.2
    endloop
  endfacet
  facet normal -0.970014 0.243051 0
    outer loop
      vertex -23.6759 2.23663 0.2
      vertex -23.7081 2.10812 -0.2
      vertex -23.7081 2.10812 0.2
    endloop
  endfacet
  facet normal -0.98922 0.146439 0
    outer loop
      vertex -23.6759 2.23663 -0.2
      vertex -23.6565 2.36768 0.2
      vertex -23.6565 2.36768 -0.2
    endloop
  endfacet
  facet normal -0.98922 0.146439 0
    outer loop
      vertex -23.6565 2.36768 0.2
      vertex -23.6759 2.23663 -0.2
      vertex -23.6759 2.23663 0.2
    endloop
  endfacet
  facet normal -0.336968 0.941516 0
    outer loop
      vertex -24.4834 1.25276 -0.2
      vertex -24.6081 1.20813 0.2
      vertex -24.4834 1.25276 0.2
    endloop
  endfacet
  facet normal -0.336968 0.941516 0
    outer loop
      vertex -24.6081 1.20813 0.2
      vertex -24.4834 1.25276 -0.2
      vertex -24.6081 1.20813 -0.2
    endloop
  endfacet
  facet normal -0.336968 -0.941516 0
    outer loop
      vertex -24.6081 3.79187 -0.2
      vertex -24.4834 3.74724 0.2
      vertex -24.6081 3.79187 0.2
    endloop
  endfacet
  facet normal -0.336968 -0.941516 -0
    outer loop
      vertex -24.4834 3.74724 0.2
      vertex -24.6081 3.79187 -0.2
      vertex -24.4834 3.74724 -0.2
    endloop
  endfacet
  facet normal -0.14668 0.989184 0
    outer loop
      vertex -24.7366 1.17594 -0.2
      vertex -24.8677 1.1565 0.2
      vertex -24.7366 1.17594 0.2
    endloop
  endfacet
  facet normal -0.14668 0.989184 0
    outer loop
      vertex -24.8677 1.1565 0.2
      vertex -24.7366 1.17594 -0.2
      vertex -24.8677 1.1565 -0.2
    endloop
  endfacet
  facet normal -0.857753 0.514063 0
    outer loop
      vertex -23.8775 1.74998 -0.2
      vertex -23.8094 1.86361 0.2
      vertex -23.8094 1.86361 -0.2
    endloop
  endfacet
  facet normal -0.857753 0.514063 0
    outer loop
      vertex -23.8094 1.86361 0.2
      vertex -23.8775 1.74998 -0.2
      vertex -23.8775 1.74998 0.2
    endloop
  endfacet
  facet normal -0.14668 -0.989184 0
    outer loop
      vertex -24.8677 3.8435 -0.2
      vertex -24.7366 3.82406 0.2
      vertex -24.8677 3.8435 0.2
    endloop
  endfacet
  facet normal -0.14668 -0.989184 -0
    outer loop
      vertex -24.7366 3.82406 0.2
      vertex -24.8677 3.8435 -0.2
      vertex -24.7366 3.82406 -0.2
    endloop
  endfacet
  facet normal -0.242997 -0.970027 0
    outer loop
      vertex -24.7366 3.82406 -0.2
      vertex -24.6081 3.79187 0.2
      vertex -24.7366 3.82406 0.2
    endloop
  endfacet
  facet normal -0.242997 -0.970027 -0
    outer loop
      vertex -24.6081 3.79187 0.2
      vertex -24.7366 3.82406 -0.2
      vertex -24.6081 3.79187 -0.2
    endloop
  endfacet
  facet normal -0.427486 -0.904022 0
    outer loop
      vertex -24.4834 3.74724 -0.2
      vertex -24.3636 3.69059 0.2
      vertex -24.4834 3.74724 0.2
    endloop
  endfacet
  facet normal -0.427486 -0.904022 -0
    outer loop
      vertex -24.3636 3.69059 0.2
      vertex -24.4834 3.74724 -0.2
      vertex -24.3636 3.69059 -0.2
    endloop
  endfacet
  facet normal -0.857773 -0.514029 0
    outer loop
      vertex -23.8094 3.13638 -0.2
      vertex -23.8775 3.25002 0.2
      vertex -23.8775 3.25002 -0.2
    endloop
  endfacet
  facet normal -0.857773 -0.514029 0
    outer loop
      vertex -23.8775 3.25002 0.2
      vertex -23.8094 3.13638 -0.2
      vertex -23.8094 3.13638 0.2
    endloop
  endfacet
  facet normal -0.427486 0.904022 0
    outer loop
      vertex -24.3636 1.30941 -0.2
      vertex -24.4834 1.25276 0.2
      vertex -24.3636 1.30941 0.2
    endloop
  endfacet
  facet normal -0.427486 0.904022 0
    outer loop
      vertex -24.4834 1.25276 0.2
      vertex -24.3636 1.30941 -0.2
      vertex -24.4834 1.25276 -0.2
    endloop
  endfacet
  facet normal -0.740827 -0.671696 0
    outer loop
      vertex -23.9564 3.35643 -0.2
      vertex -24.0454 3.45459 0.2
      vertex -24.0454 3.45459 -0.2
    endloop
  endfacet
  facet normal -0.740827 -0.671696 0
    outer loop
      vertex -24.0454 3.45459 0.2
      vertex -23.9564 3.35643 -0.2
      vertex -23.9564 3.35643 0.2
    endloop
  endfacet
  facet normal -0.59574 0.803177 0
    outer loop
      vertex -24.1436 1.45644 -0.2
      vertex -24.25 1.37752 0.2
      vertex -24.1436 1.45644 0.2
    endloop
  endfacet
  facet normal -0.59574 0.803177 0
    outer loop
      vertex -24.25 1.37752 0.2
      vertex -24.1436 1.45644 -0.2
      vertex -24.25 1.37752 -0.2
    endloop
  endfacet
  facet normal -0.514218 0.857659 0
    outer loop
      vertex -24.25 1.37752 -0.2
      vertex -24.3636 1.30941 0.2
      vertex -24.25 1.37752 0.2
    endloop
  endfacet
  facet normal -0.514218 0.857659 0
    outer loop
      vertex -24.3636 1.30941 0.2
      vertex -24.25 1.37752 -0.2
      vertex -24.3636 1.30941 -0.2
    endloop
  endfacet
  facet normal -0.904126 0.427265 0
    outer loop
      vertex -23.8094 1.86361 -0.2
      vertex -23.7528 1.98338 0.2
      vertex -23.7528 1.98338 -0.2
    endloop
  endfacet
  facet normal -0.904126 0.427265 0
    outer loop
      vertex -23.7528 1.98338 0.2
      vertex -23.8094 1.86361 -0.2
      vertex -23.8094 1.86361 0.2
    endloop
  endfacet
  facet normal -0.0490716 0.998795 0
    outer loop
      vertex -24.8677 1.1565 -0.2
      vertex -25 1.15 0.2
      vertex -24.8677 1.1565 0.2
    endloop
  endfacet
  facet normal -0.0490716 0.998795 0
    outer loop
      vertex -25 1.15 0.2
      vertex -24.8677 1.1565 -0.2
      vertex -25 1.15 -0.2
    endloop
  endfacet
  facet normal -0.740827 0.671696 0
    outer loop
      vertex -24.0454 1.54541 -0.2
      vertex -23.9564 1.64357 0.2
      vertex -23.9564 1.64357 -0.2
    endloop
  endfacet
  facet normal -0.740827 0.671696 0
    outer loop
      vertex -23.9564 1.64357 0.2
      vertex -24.0454 1.54541 -0.2
      vertex -24.0454 1.54541 0.2
    endloop
  endfacet
  facet normal 0.941383 0.33734 0
    outer loop
      vertex 23.7528 -3.01662 0.2
      vertex 23.7081 -2.89188 -0.2
      vertex 23.7081 -2.89188 0.2
    endloop
  endfacet
  facet normal 0.941383 0.33734 0
    outer loop
      vertex 23.7081 -2.89188 -0.2
      vertex 23.7528 -3.01662 0.2
      vertex 23.7528 -3.01662 -0.2
    endloop
  endfacet
  facet normal 0.857773 0.514029 0
    outer loop
      vertex 23.8775 -3.25002 0.2
      vertex 23.8094 -3.13638 -0.2
      vertex 23.8094 -3.13638 0.2
    endloop
  endfacet
  facet normal 0.857773 0.514029 0
    outer loop
      vertex 23.8094 -3.13638 -0.2
      vertex 23.8775 -3.25002 0.2
      vertex 23.8775 -3.25002 -0.2
    endloop
  endfacet
  facet normal 0.740827 0.671696 0
    outer loop
      vertex 24.0454 -3.45459 0.2
      vertex 23.9564 -3.35643 -0.2
      vertex 23.9564 -3.35643 0.2
    endloop
  endfacet
  facet normal 0.740827 0.671696 0
    outer loop
      vertex 23.9564 -3.35643 -0.2
      vertex 24.0454 -3.45459 0.2
      vertex 24.0454 -3.45459 -0.2
    endloop
  endfacet
  facet normal 0.242997 -0.970027 0
    outer loop
      vertex 24.6081 -1.20813 -0.2
      vertex 24.7366 -1.17594 0.2
      vertex 24.6081 -1.20813 0.2
    endloop
  endfacet
  facet normal 0.242997 -0.970027 0
    outer loop
      vertex 24.7366 -1.17594 0.2
      vertex 24.6081 -1.20813 -0.2
      vertex 24.7366 -1.17594 -0.2
    endloop
  endfacet
  facet normal 0.857753 -0.514063 0
    outer loop
      vertex 23.8094 -1.86361 0.2
      vertex 23.8775 -1.74998 -0.2
      vertex 23.8775 -1.74998 0.2
    endloop
  endfacet
  facet normal 0.857753 -0.514063 0
    outer loop
      vertex 23.8775 -1.74998 -0.2
      vertex 23.8094 -1.86361 0.2
      vertex 23.8094 -1.86361 -0.2
    endloop
  endfacet
  facet normal 0.0490716 0.998795 -0
    outer loop
      vertex 25 -3.85 -0.2
      vertex 24.8677 -3.8435 0.2
      vertex 25 -3.85 0.2
    endloop
  endfacet
  facet normal 0.0490716 0.998795 0
    outer loop
      vertex 24.8677 -3.8435 0.2
      vertex 25 -3.85 -0.2
      vertex 24.8677 -3.8435 -0.2
    endloop
  endfacet
  facet normal 0.740827 -0.671696 0
    outer loop
      vertex 23.9564 -1.64357 0.2
      vertex 24.0454 -1.54541 -0.2
      vertex 24.0454 -1.54541 0.2
    endloop
  endfacet
  facet normal 0.740827 -0.671696 0
    outer loop
      vertex 24.0454 -1.54541 -0.2
      vertex 23.9564 -1.64357 0.2
      vertex 23.9564 -1.64357 -0.2
    endloop
  endfacet
  facet normal 0.970014 0.243051 0
    outer loop
      vertex 23.7081 -2.89188 0.2
      vertex 23.6759 -2.76337 -0.2
      vertex 23.6759 -2.76337 0.2
    endloop
  endfacet
  facet normal 0.970014 0.243051 0
    outer loop
      vertex 23.6759 -2.76337 -0.2
      vertex 23.7081 -2.89188 0.2
      vertex 23.7081 -2.89188 -0.2
    endloop
  endfacet
  facet normal 0.336968 -0.941516 0
    outer loop
      vertex 24.4834 -1.25276 -0.2
      vertex 24.6081 -1.20813 0.2
      vertex 24.4834 -1.25276 0.2
    endloop
  endfacet
  facet normal 0.336968 -0.941516 0
    outer loop
      vertex 24.6081 -1.20813 0.2
      vertex 24.4834 -1.25276 -0.2
      vertex 24.6081 -1.20813 -0.2
    endloop
  endfacet
  facet normal 0.803276 0.595607 0
    outer loop
      vertex 23.9564 -3.35643 0.2
      vertex 23.8775 -3.25002 -0.2
      vertex 23.8775 -3.25002 0.2
    endloop
  endfacet
  facet normal 0.803276 0.595607 0
    outer loop
      vertex 23.8775 -3.25002 -0.2
      vertex 23.9564 -3.35643 0.2
      vertex 23.9564 -3.35643 -0.2
    endloop
  endfacet
  facet normal 0.242997 0.970027 -0
    outer loop
      vertex 24.7366 -3.82406 -0.2
      vertex 24.6081 -3.79187 0.2
      vertex 24.7366 -3.82406 0.2
    endloop
  endfacet
  facet normal 0.242997 0.970027 0
    outer loop
      vertex 24.6081 -3.79187 0.2
      vertex 24.7366 -3.82406 -0.2
      vertex 24.6081 -3.79187 -0.2
    endloop
  endfacet
  facet normal 0.998796 -0.0490642 0
    outer loop
      vertex 23.65 -2.5 0.2
      vertex 23.6565 -2.36768 -0.2
      vertex 23.6565 -2.36768 0.2
    endloop
  endfacet
  facet normal 0.998796 -0.0490642 0
    outer loop
      vertex 23.6565 -2.36768 -0.2
      vertex 23.65 -2.5 0.2
      vertex 23.65 -2.5 -0.2
    endloop
  endfacet
  facet normal 0.671421 -0.741076 0
    outer loop
      vertex 24.0454 -1.54541 -0.2
      vertex 24.1436 -1.45644 0.2
      vertex 24.0454 -1.54541 0.2
    endloop
  endfacet
  facet normal 0.671421 -0.741076 0
    outer loop
      vertex 24.1436 -1.45644 0.2
      vertex 24.0454 -1.54541 -0.2
      vertex 24.1436 -1.45644 -0.2
    endloop
  endfacet
  facet normal 0.514218 -0.857659 0
    outer loop
      vertex 24.25 -1.37752 -0.2
      vertex 24.3636 -1.30941 0.2
      vertex 24.25 -1.37752 0.2
    endloop
  endfacet
  facet normal 0.514218 -0.857659 0
    outer loop
      vertex 24.3636 -1.30941 0.2
      vertex 24.25 -1.37752 -0.2
      vertex 24.3636 -1.30941 -0.2
    endloop
  endfacet
  facet normal 0.0490716 -0.998795 0
    outer loop
      vertex 24.8677 -1.1565 -0.2
      vertex 25 -1.15 0.2
      vertex 24.8677 -1.1565 0.2
    endloop
  endfacet
  facet normal 0.0490716 -0.998795 0
    outer loop
      vertex 25 -1.15 0.2
      vertex 24.8677 -1.1565 -0.2
      vertex 25 -1.15 -0.2
    endloop
  endfacet
  facet normal 0.904126 -0.427265 0
    outer loop
      vertex 23.7528 -1.98338 0.2
      vertex 23.8094 -1.86361 -0.2
      vertex 23.8094 -1.86361 0.2
    endloop
  endfacet
  facet normal 0.904126 -0.427265 0
    outer loop
      vertex 23.8094 -1.86361 -0.2
      vertex 23.7528 -1.98338 0.2
      vertex 23.7528 -1.98338 -0.2
    endloop
  endfacet
  facet normal 0.98922 -0.146439 0
    outer loop
      vertex 23.6565 -2.36768 0.2
      vertex 23.6759 -2.23663 -0.2
      vertex 23.6759 -2.23663 0.2
    endloop
  endfacet
  facet normal 0.98922 -0.146439 0
    outer loop
      vertex 23.6759 -2.23663 -0.2
      vertex 23.6565 -2.36768 0.2
      vertex 23.6565 -2.36768 -0.2
    endloop
  endfacet
  facet normal 0.427486 -0.904022 0
    outer loop
      vertex 24.3636 -1.30941 -0.2
      vertex 24.4834 -1.25276 0.2
      vertex 24.3636 -1.30941 0.2
    endloop
  endfacet
  facet normal 0.427486 -0.904022 0
    outer loop
      vertex 24.4834 -1.25276 0.2
      vertex 24.3636 -1.30941 -0.2
      vertex 24.4834 -1.25276 -0.2
    endloop
  endfacet
  facet normal 0.98922 0.146439 0
    outer loop
      vertex 23.6759 -2.76337 0.2
      vertex 23.6565 -2.63232 -0.2
      vertex 23.6565 -2.63232 0.2
    endloop
  endfacet
  facet normal 0.98922 0.146439 0
    outer loop
      vertex 23.6565 -2.63232 -0.2
      vertex 23.6759 -2.76337 0.2
      vertex 23.6759 -2.76337 -0.2
    endloop
  endfacet
  facet normal 0.59574 -0.803177 0
    outer loop
      vertex 24.1436 -1.45644 -0.2
      vertex 24.25 -1.37752 0.2
      vertex 24.1436 -1.45644 0.2
    endloop
  endfacet
  facet normal 0.59574 -0.803177 0
    outer loop
      vertex 24.25 -1.37752 0.2
      vertex 24.1436 -1.45644 -0.2
      vertex 24.25 -1.37752 -0.2
    endloop
  endfacet
  facet normal 0.998796 0.0490642 0
    outer loop
      vertex 23.6565 -2.63232 0.2
      vertex 23.65 -2.5 -0.2
      vertex 23.65 -2.5 0.2
    endloop
  endfacet
  facet normal 0.998796 0.0490642 0
    outer loop
      vertex 23.65 -2.5 -0.2
      vertex 23.6565 -2.63232 0.2
      vertex 23.6565 -2.63232 -0.2
    endloop
  endfacet
  facet normal 0.14668 -0.989184 0
    outer loop
      vertex 24.7366 -1.17594 -0.2
      vertex 24.8677 -1.1565 0.2
      vertex 24.7366 -1.17594 0.2
    endloop
  endfacet
  facet normal 0.14668 -0.989184 0
    outer loop
      vertex 24.8677 -1.1565 0.2
      vertex 24.7366 -1.17594 -0.2
      vertex 24.8677 -1.1565 -0.2
    endloop
  endfacet
  facet normal 0.514218 0.857659 -0
    outer loop
      vertex 24.3636 -3.69059 -0.2
      vertex 24.25 -3.62248 0.2
      vertex 24.3636 -3.69059 0.2
    endloop
  endfacet
  facet normal 0.514218 0.857659 0
    outer loop
      vertex 24.25 -3.62248 0.2
      vertex 24.3636 -3.69059 -0.2
      vertex 24.25 -3.62248 -0.2
    endloop
  endfacet
  facet normal 0.671421 0.741076 -0
    outer loop
      vertex 24.1436 -3.54356 -0.2
      vertex 24.0454 -3.45459 0.2
      vertex 24.1436 -3.54356 0.2
    endloop
  endfacet
  facet normal 0.671421 0.741076 0
    outer loop
      vertex 24.0454 -3.45459 0.2
      vertex 24.1436 -3.54356 -0.2
      vertex 24.0454 -3.45459 -0.2
    endloop
  endfacet
  facet normal 0.59574 0.803177 -0
    outer loop
      vertex 24.25 -3.62248 -0.2
      vertex 24.1436 -3.54356 0.2
      vertex 24.25 -3.62248 0.2
    endloop
  endfacet
  facet normal 0.59574 0.803177 0
    outer loop
      vertex 24.1436 -3.54356 0.2
      vertex 24.25 -3.62248 -0.2
      vertex 24.1436 -3.54356 -0.2
    endloop
  endfacet
  facet normal 0.336968 0.941516 -0
    outer loop
      vertex 24.6081 -3.79187 -0.2
      vertex 24.4834 -3.74724 0.2
      vertex 24.6081 -3.79187 0.2
    endloop
  endfacet
  facet normal 0.336968 0.941516 0
    outer loop
      vertex 24.4834 -3.74724 0.2
      vertex 24.6081 -3.79187 -0.2
      vertex 24.4834 -3.74724 -0.2
    endloop
  endfacet
  facet normal 0.427486 0.904022 -0
    outer loop
      vertex 24.4834 -3.74724 -0.2
      vertex 24.3636 -3.69059 0.2
      vertex 24.4834 -3.74724 0.2
    endloop
  endfacet
  facet normal 0.427486 0.904022 0
    outer loop
      vertex 24.3636 -3.69059 0.2
      vertex 24.4834 -3.74724 -0.2
      vertex 24.3636 -3.69059 -0.2
    endloop
  endfacet
  facet normal 0.941383 -0.33734 0
    outer loop
      vertex 23.7081 -2.10812 0.2
      vertex 23.7528 -1.98338 -0.2
      vertex 23.7528 -1.98338 0.2
    endloop
  endfacet
  facet normal 0.941383 -0.33734 0
    outer loop
      vertex 23.7528 -1.98338 -0.2
      vertex 23.7081 -2.10812 0.2
      vertex 23.7081 -2.10812 -0.2
    endloop
  endfacet
  facet normal 0.970014 -0.243051 0
    outer loop
      vertex 23.6759 -2.23663 0.2
      vertex 23.7081 -2.10812 -0.2
      vertex 23.7081 -2.10812 0.2
    endloop
  endfacet
  facet normal 0.970014 -0.243051 0
    outer loop
      vertex 23.7081 -2.10812 -0.2
      vertex 23.6759 -2.23663 0.2
      vertex 23.6759 -2.23663 -0.2
    endloop
  endfacet
  facet normal 0.14668 0.989184 -0
    outer loop
      vertex 24.8677 -3.8435 -0.2
      vertex 24.7366 -3.82406 0.2
      vertex 24.8677 -3.8435 0.2
    endloop
  endfacet
  facet normal 0.14668 0.989184 0
    outer loop
      vertex 24.7366 -3.82406 0.2
      vertex 24.8677 -3.8435 -0.2
      vertex 24.7366 -3.82406 -0.2
    endloop
  endfacet
  facet normal 0.904113 0.427294 0
    outer loop
      vertex 23.8094 -3.13638 0.2
      vertex 23.7528 -3.01662 -0.2
      vertex 23.7528 -3.01662 0.2
    endloop
  endfacet
  facet normal 0.904113 0.427294 0
    outer loop
      vertex 23.7528 -3.01662 -0.2
      vertex 23.8094 -3.13638 0.2
      vertex 23.8094 -3.13638 -0.2
    endloop
  endfacet
  facet normal 0.803276 -0.595607 0
    outer loop
      vertex 23.8775 -1.74998 0.2
      vertex 23.9564 -1.64357 -0.2
      vertex 23.9564 -1.64357 0.2
    endloop
  endfacet
  facet normal 0.803276 -0.595607 0
    outer loop
      vertex 23.9564 -1.64357 -0.2
      vertex 23.8775 -1.74998 0.2
      vertex 23.8775 -1.74998 -0.2
    endloop
  endfacet
  facet normal 0.0490716 0.998795 -0
    outer loop
      vertex 25 1.15 -0.2
      vertex 24.8677 1.1565 0.2
      vertex 25 1.15 0.2
    endloop
  endfacet
  facet normal 0.0490716 0.998795 0
    outer loop
      vertex 24.8677 1.1565 0.2
      vertex 25 1.15 -0.2
      vertex 24.8677 1.1565 -0.2
    endloop
  endfacet
  facet normal 0.857753 0.514063 0
    outer loop
      vertex 23.8775 1.74998 0.2
      vertex 23.8094 1.86361 -0.2
      vertex 23.8094 1.86361 0.2
    endloop
  endfacet
  facet normal 0.857753 0.514063 0
    outer loop
      vertex 23.8094 1.86361 -0.2
      vertex 23.8775 1.74998 0.2
      vertex 23.8775 1.74998 -0.2
    endloop
  endfacet
  facet normal 0.14668 0.989184 -0
    outer loop
      vertex 24.8677 1.1565 -0.2
      vertex 24.7366 1.17594 0.2
      vertex 24.8677 1.1565 0.2
    endloop
  endfacet
  facet normal 0.14668 0.989184 0
    outer loop
      vertex 24.7366 1.17594 0.2
      vertex 24.8677 1.1565 -0.2
      vertex 24.7366 1.17594 -0.2
    endloop
  endfacet
  facet normal 0.671421 -0.741076 0
    outer loop
      vertex 24.0454 3.45459 -0.2
      vertex 24.1436 3.54356 0.2
      vertex 24.0454 3.45459 0.2
    endloop
  endfacet
  facet normal 0.671421 -0.741076 0
    outer loop
      vertex 24.1436 3.54356 0.2
      vertex 24.0454 3.45459 -0.2
      vertex 24.1436 3.54356 -0.2
    endloop
  endfacet
  facet normal 0.671421 0.741076 -0
    outer loop
      vertex 24.1436 1.45644 -0.2
      vertex 24.0454 1.54541 0.2
      vertex 24.1436 1.45644 0.2
    endloop
  endfacet
  facet normal 0.671421 0.741076 0
    outer loop
      vertex 24.0454 1.54541 0.2
      vertex 24.1436 1.45644 -0.2
      vertex 24.0454 1.54541 -0.2
    endloop
  endfacet
  facet normal 0.970014 -0.243051 0
    outer loop
      vertex 23.6759 2.76337 0.2
      vertex 23.7081 2.89188 -0.2
      vertex 23.7081 2.89188 0.2
    endloop
  endfacet
  facet normal 0.970014 -0.243051 0
    outer loop
      vertex 23.7081 2.89188 -0.2
      vertex 23.6759 2.76337 0.2
      vertex 23.6759 2.76337 -0.2
    endloop
  endfacet
  facet normal 0.336968 -0.941516 0
    outer loop
      vertex 24.4834 3.74724 -0.2
      vertex 24.6081 3.79187 0.2
      vertex 24.4834 3.74724 0.2
    endloop
  endfacet
  facet normal 0.336968 -0.941516 0
    outer loop
      vertex 24.6081 3.79187 0.2
      vertex 24.4834 3.74724 -0.2
      vertex 24.6081 3.79187 -0.2
    endloop
  endfacet
  facet normal 0.427486 -0.904022 0
    outer loop
      vertex 24.3636 3.69059 -0.2
      vertex 24.4834 3.74724 0.2
      vertex 24.3636 3.69059 0.2
    endloop
  endfacet
  facet normal 0.427486 -0.904022 0
    outer loop
      vertex 24.4834 3.74724 0.2
      vertex 24.3636 3.69059 -0.2
      vertex 24.4834 3.74724 -0.2
    endloop
  endfacet
  facet normal 0.904126 0.427265 0
    outer loop
      vertex 23.8094 1.86361 0.2
      vertex 23.7528 1.98338 -0.2
      vertex 23.7528 1.98338 0.2
    endloop
  endfacet
  facet normal 0.904126 0.427265 0
    outer loop
      vertex 23.7528 1.98338 -0.2
      vertex 23.8094 1.86361 0.2
      vertex 23.8094 1.86361 -0.2
    endloop
  endfacet
  facet normal 0.941383 -0.33734 0
    outer loop
      vertex 23.7081 2.89188 0.2
      vertex 23.7528 3.01662 -0.2
      vertex 23.7528 3.01662 0.2
    endloop
  endfacet
  facet normal 0.941383 -0.33734 0
    outer loop
      vertex 23.7528 3.01662 -0.2
      vertex 23.7081 2.89188 0.2
      vertex 23.7081 2.89188 -0.2
    endloop
  endfacet
  facet normal 0.14668 -0.989184 0
    outer loop
      vertex 24.7366 3.82406 -0.2
      vertex 24.8677 3.8435 0.2
      vertex 24.7366 3.82406 0.2
    endloop
  endfacet
  facet normal 0.14668 -0.989184 0
    outer loop
      vertex 24.8677 3.8435 0.2
      vertex 24.7366 3.82406 -0.2
      vertex 24.8677 3.8435 -0.2
    endloop
  endfacet
  facet normal 0.59574 0.803177 -0
    outer loop
      vertex 24.25 1.37752 -0.2
      vertex 24.1436 1.45644 0.2
      vertex 24.25 1.37752 0.2
    endloop
  endfacet
  facet normal 0.59574 0.803177 0
    outer loop
      vertex 24.1436 1.45644 0.2
      vertex 24.25 1.37752 -0.2
      vertex 24.1436 1.45644 -0.2
    endloop
  endfacet
  facet normal 0.803276 0.595607 0
    outer loop
      vertex 23.9564 1.64357 0.2
      vertex 23.8775 1.74998 -0.2
      vertex 23.8775 1.74998 0.2
    endloop
  endfacet
  facet normal 0.803276 0.595607 0
    outer loop
      vertex 23.8775 1.74998 -0.2
      vertex 23.9564 1.64357 0.2
      vertex 23.9564 1.64357 -0.2
    endloop
  endfacet
  facet normal 0.857773 -0.514029 0
    outer loop
      vertex 23.8094 3.13638 0.2
      vertex 23.8775 3.25002 -0.2
      vertex 23.8775 3.25002 0.2
    endloop
  endfacet
  facet normal 0.857773 -0.514029 0
    outer loop
      vertex 23.8775 3.25002 -0.2
      vertex 23.8094 3.13638 0.2
      vertex 23.8094 3.13638 -0.2
    endloop
  endfacet
  facet normal 0.941383 0.33734 0
    outer loop
      vertex 23.7528 1.98338 0.2
      vertex 23.7081 2.10812 -0.2
      vertex 23.7081 2.10812 0.2
    endloop
  endfacet
  facet normal 0.941383 0.33734 0
    outer loop
      vertex 23.7081 2.10812 -0.2
      vertex 23.7528 1.98338 0.2
      vertex 23.7528 1.98338 -0.2
    endloop
  endfacet
  facet normal 0.998796 0.0490642 0
    outer loop
      vertex 23.6565 2.36768 0.2
      vertex 23.65 2.5 -0.2
      vertex 23.65 2.5 0.2
    endloop
  endfacet
  facet normal 0.998796 0.0490642 0
    outer loop
      vertex 23.65 2.5 -0.2
      vertex 23.6565 2.36768 0.2
      vertex 23.6565 2.36768 -0.2
    endloop
  endfacet
  facet normal 0.998796 -0.0490642 0
    outer loop
      vertex 23.65 2.5 0.2
      vertex 23.6565 2.63232 -0.2
      vertex 23.6565 2.63232 0.2
    endloop
  endfacet
  facet normal 0.998796 -0.0490642 0
    outer loop
      vertex 23.6565 2.63232 -0.2
      vertex 23.65 2.5 0.2
      vertex 23.65 2.5 -0.2
    endloop
  endfacet
  facet normal 0.514218 -0.857659 0
    outer loop
      vertex 24.25 3.62248 -0.2
      vertex 24.3636 3.69059 0.2
      vertex 24.25 3.62248 0.2
    endloop
  endfacet
  facet normal 0.514218 -0.857659 0
    outer loop
      vertex 24.3636 3.69059 0.2
      vertex 24.25 3.62248 -0.2
      vertex 24.3636 3.69059 -0.2
    endloop
  endfacet
  facet normal 0.242997 0.970027 -0
    outer loop
      vertex 24.7366 1.17594 -0.2
      vertex 24.6081 1.20813 0.2
      vertex 24.7366 1.17594 0.2
    endloop
  endfacet
  facet normal 0.242997 0.970027 0
    outer loop
      vertex 24.6081 1.20813 0.2
      vertex 24.7366 1.17594 -0.2
      vertex 24.6081 1.20813 -0.2
    endloop
  endfacet
  facet normal 0.740827 -0.671696 0
    outer loop
      vertex 23.9564 3.35643 0.2
      vertex 24.0454 3.45459 -0.2
      vertex 24.0454 3.45459 0.2
    endloop
  endfacet
  facet normal 0.740827 -0.671696 0
    outer loop
      vertex 24.0454 3.45459 -0.2
      vertex 23.9564 3.35643 0.2
      vertex 23.9564 3.35643 -0.2
    endloop
  endfacet
  facet normal 0.98922 0.146439 0
    outer loop
      vertex 23.6759 2.23663 0.2
      vertex 23.6565 2.36768 -0.2
      vertex 23.6565 2.36768 0.2
    endloop
  endfacet
  facet normal 0.98922 0.146439 0
    outer loop
      vertex 23.6565 2.36768 -0.2
      vertex 23.6759 2.23663 0.2
      vertex 23.6759 2.23663 -0.2
    endloop
  endfacet
  facet normal 0.740827 0.671696 0
    outer loop
      vertex 24.0454 1.54541 0.2
      vertex 23.9564 1.64357 -0.2
      vertex 23.9564 1.64357 0.2
    endloop
  endfacet
  facet normal 0.740827 0.671696 0
    outer loop
      vertex 23.9564 1.64357 -0.2
      vertex 24.0454 1.54541 0.2
      vertex 24.0454 1.54541 -0.2
    endloop
  endfacet
  facet normal 0.0490716 -0.998795 0
    outer loop
      vertex 24.8677 3.8435 -0.2
      vertex 25 3.85 0.2
      vertex 24.8677 3.8435 0.2
    endloop
  endfacet
  facet normal 0.0490716 -0.998795 0
    outer loop
      vertex 25 3.85 0.2
      vertex 24.8677 3.8435 -0.2
      vertex 25 3.85 -0.2
    endloop
  endfacet
  facet normal 0.242997 -0.970027 0
    outer loop
      vertex 24.6081 3.79187 -0.2
      vertex 24.7366 3.82406 0.2
      vertex 24.6081 3.79187 0.2
    endloop
  endfacet
  facet normal 0.242997 -0.970027 0
    outer loop
      vertex 24.7366 3.82406 0.2
      vertex 24.6081 3.79187 -0.2
      vertex 24.7366 3.82406 -0.2
    endloop
  endfacet
  facet normal 0.514218 0.857659 -0
    outer loop
      vertex 24.3636 1.30941 -0.2
      vertex 24.25 1.37752 0.2
      vertex 24.3636 1.30941 0.2
    endloop
  endfacet
  facet normal 0.514218 0.857659 0
    outer loop
      vertex 24.25 1.37752 0.2
      vertex 24.3636 1.30941 -0.2
      vertex 24.25 1.37752 -0.2
    endloop
  endfacet
  facet normal 0.904113 -0.427294 0
    outer loop
      vertex 23.7528 3.01662 0.2
      vertex 23.8094 3.13638 -0.2
      vertex 23.8094 3.13638 0.2
    endloop
  endfacet
  facet normal 0.904113 -0.427294 0
    outer loop
      vertex 23.8094 3.13638 -0.2
      vertex 23.7528 3.01662 0.2
      vertex 23.7528 3.01662 -0.2
    endloop
  endfacet
  facet normal 0.970014 0.243051 0
    outer loop
      vertex 23.7081 2.10812 0.2
      vertex 23.6759 2.23663 -0.2
      vertex 23.6759 2.23663 0.2
    endloop
  endfacet
  facet normal 0.970014 0.243051 0
    outer loop
      vertex 23.6759 2.23663 -0.2
      vertex 23.7081 2.10812 0.2
      vertex 23.7081 2.10812 -0.2
    endloop
  endfacet
  facet normal 0.803276 -0.595607 0
    outer loop
      vertex 23.8775 3.25002 0.2
      vertex 23.9564 3.35643 -0.2
      vertex 23.9564 3.35643 0.2
    endloop
  endfacet
  facet normal 0.803276 -0.595607 0
    outer loop
      vertex 23.9564 3.35643 -0.2
      vertex 23.8775 3.25002 0.2
      vertex 23.8775 3.25002 -0.2
    endloop
  endfacet
  facet normal 0.59574 -0.803177 0
    outer loop
      vertex 24.1436 3.54356 -0.2
      vertex 24.25 3.62248 0.2
      vertex 24.1436 3.54356 0.2
    endloop
  endfacet
  facet normal 0.59574 -0.803177 0
    outer loop
      vertex 24.25 3.62248 0.2
      vertex 24.1436 3.54356 -0.2
      vertex 24.25 3.62248 -0.2
    endloop
  endfacet
  facet normal 0.98922 -0.146439 0
    outer loop
      vertex 23.6565 2.63232 0.2
      vertex 23.6759 2.76337 -0.2
      vertex 23.6759 2.76337 0.2
    endloop
  endfacet
  facet normal 0.98922 -0.146439 0
    outer loop
      vertex 23.6759 2.76337 -0.2
      vertex 23.6565 2.63232 0.2
      vertex 23.6565 2.63232 -0.2
    endloop
  endfacet
  facet normal 0.336968 0.941516 -0
    outer loop
      vertex 24.6081 1.20813 -0.2
      vertex 24.4834 1.25276 0.2
      vertex 24.6081 1.20813 0.2
    endloop
  endfacet
  facet normal 0.336968 0.941516 0
    outer loop
      vertex 24.4834 1.25276 0.2
      vertex 24.6081 1.20813 -0.2
      vertex 24.4834 1.25276 -0.2
    endloop
  endfacet
  facet normal 0.427486 0.904022 -0
    outer loop
      vertex 24.4834 1.25276 -0.2
      vertex 24.3636 1.30941 0.2
      vertex 24.4834 1.25276 0.2
    endloop
  endfacet
  facet normal 0.427486 0.904022 0
    outer loop
      vertex 24.3636 1.30941 0.2
      vertex 24.4834 1.25276 -0.2
      vertex 24.3636 1.30941 -0.2
    endloop
  endfacet
  facet normal 1 -0 0
    outer loop
      vertex 25 3.85 0.2
      vertex 25 4.75 -0.2
      vertex 25 4.75 0.2
    endloop
  endfacet
  facet normal 1 0 0
    outer loop
      vertex 25 4.75 -0.2
      vertex 25 3.85 0.2
      vertex 25 3.85 -0.2
    endloop
  endfacet
  facet normal 1 -0 0
    outer loop
      vertex 25 -4.75 0.2
      vertex 25 -3.85 -0.2
      vertex 25 -3.85 0.2
    endloop
  endfacet
  facet normal 1 0 0
    outer loop
      vertex 25 -3.85 -0.2
      vertex 25 -4.75 0.2
      vertex 25 -4.75 -0.2
    endloop
  endfacet
  facet normal 1 -0 0
    outer loop
      vertex 25 -1.15 0.2
      vertex 25 1.15 -0.2
      vertex 25 1.15 0.2
    endloop
  endfacet
  facet normal 1 0 0
    outer loop
      vertex 25 1.15 -0.2
      vertex 25 -1.15 0.2
      vertex 25 -1.15 -0.2
    endloop
  endfacet
  facet normal 0 0 1
    outer loop
      vertex -23.6565 -2.36768 0.2
      vertex 23.6565 -2.36768 0.2
      vertex -23.6565 2.36768 0.2
    endloop
  endfacet
  facet normal 0 0 1
    outer loop
      vertex 23.6565 -2.36768 0.2
      vertex -23.6565 -2.36768 0.2
      vertex -23.65 -2.5 0.2
    endloop
  endfacet
  facet normal -0 0 1
    outer loop
      vertex -23.6759 2.23663 0.2
      vertex -23.6565 -2.36768 0.2
      vertex -23.6565 2.36768 0.2
    endloop
  endfacet
  facet normal 0 0 1
    outer loop
      vertex -23.6759 2.23663 0.2
      vertex -23.6759 -2.23663 0.2
      vertex -23.6565 -2.36768 0.2
    endloop
  endfacet
  facet normal -0 0 1
    outer loop
      vertex -23.7081 2.10812 0.2
      vertex -23.6759 -2.23663 0.2
      vertex -23.6759 2.23663 0.2
    endloop
  endfacet
  facet normal 0 0 1
    outer loop
      vertex -23.7081 2.10812 0.2
      vertex -23.7081 -2.10812 0.2
      vertex -23.6759 -2.23663 0.2
    endloop
  endfacet
  facet normal -0 0 1
    outer loop
      vertex -23.7528 1.98338 0.2
      vertex -23.7081 -2.10812 0.2
      vertex -23.7081 2.10812 0.2
    endloop
  endfacet
  facet normal 0 0 1
    outer loop
      vertex -23.7528 1.98338 0.2
      vertex -23.7528 -1.98338 0.2
      vertex -23.7081 -2.10812 0.2
    endloop
  endfacet
  facet normal -0 0 1
    outer loop
      vertex -23.8094 1.86361 0.2
      vertex -23.7528 -1.98338 0.2
      vertex -23.7528 1.98338 0.2
    endloop
  endfacet
  facet normal 0 0 1
    outer loop
      vertex -23.8094 1.86361 0.2
      vertex -23.8094 -1.86361 0.2
      vertex -23.7528 -1.98338 0.2
    endloop
  endfacet
  facet normal -0 0 1
    outer loop
      vertex -23.8775 1.74998 0.2
      vertex -23.8094 -1.86361 0.2
      vertex -23.8094 1.86361 0.2
    endloop
  endfacet
  facet normal 0 0 1
    outer loop
      vertex -23.8775 1.74998 0.2
      vertex -23.8775 -1.74998 0.2
      vertex -23.8094 -1.86361 0.2
    endloop
  endfacet
  facet normal -0 0 1
    outer loop
      vertex -23.9564 1.64357 0.2
      vertex -23.8775 -1.74998 0.2
      vertex -23.8775 1.74998 0.2
    endloop
  endfacet
  facet normal 0 0 1
    outer loop
      vertex -23.9564 1.64357 0.2
      vertex -23.9564 -1.64357 0.2
      vertex -23.8775 -1.74998 0.2
    endloop
  endfacet
  facet normal -0 0 1
    outer loop
      vertex -24.0454 1.54541 0.2
      vertex -23.9564 -1.64357 0.2
      vertex -23.9564 1.64357 0.2
    endloop
  endfacet
  facet normal 0 0 1
    outer loop
      vertex -24.0454 1.54541 0.2
      vertex -24.0454 -1.54541 0.2
      vertex -23.9564 -1.64357 0.2
    endloop
  endfacet
  facet normal -0 0 1
    outer loop
      vertex -24.1436 1.45644 0.2
      vertex -24.0454 -1.54541 0.2
      vertex -24.0454 1.54541 0.2
    endloop
  endfacet
  facet normal 0 0 1
    outer loop
      vertex -24.1436 1.45644 0.2
      vertex -24.1436 -1.45644 0.2
      vertex -24.0454 -1.54541 0.2
    endloop
  endfacet
  facet normal -0 0 1
    outer loop
      vertex -24.25 1.37752 0.2
      vertex -24.1436 -1.45644 0.2
      vertex -24.1436 1.45644 0.2
    endloop
  endfacet
  facet normal 0 0 1
    outer loop
      vertex -24.25 1.37752 0.2
      vertex -24.25 -1.37752 0.2
      vertex -24.1436 -1.45644 0.2
    endloop
  endfacet
  facet normal -0 0 1
    outer loop
      vertex -24.3636 1.30941 0.2
      vertex -24.25 -1.37752 0.2
      vertex -24.25 1.37752 0.2
    endloop
  endfacet
  facet normal 0 0 1
    outer loop
      vertex -24.3636 1.30941 0.2
      vertex -24.3636 -1.30941 0.2
      vertex -24.25 -1.37752 0.2
    endloop
  endfacet
  facet normal -0 0 1
    outer loop
      vertex -24.4834 1.25276 0.2
      vertex -24.3636 -1.30941 0.2
      vertex -24.3636 1.30941 0.2
    endloop
  endfacet
  facet normal 0 0 1
    outer loop
      vertex -24.4834 1.25276 0.2
      vertex -24.4834 -1.25276 0.2
      vertex -24.3636 -1.30941 0.2
    endloop
  endfacet
  facet normal -0 0 1
    outer loop
      vertex -24.6081 1.20813 0.2
      vertex -24.4834 -1.25276 0.2
      vertex -24.4834 1.25276 0.2
    endloop
  endfacet
  facet normal 0 0 1
    outer loop
      vertex -24.6081 1.20813 0.2
      vertex -24.6081 -1.20813 0.2
      vertex -24.4834 -1.25276 0.2
    endloop
  endfacet
  facet normal -0 0 1
    outer loop
      vertex -24.7366 1.17594 0.2
      vertex -24.6081 -1.20813 0.2
      vertex -24.6081 1.20813 0.2
    endloop
  endfacet
  facet normal 0 0 1
    outer loop
      vertex -24.7366 1.17594 0.2
      vertex -24.7366 -1.17594 0.2
      vertex -24.6081 -1.20813 0.2
    endloop
  endfacet
  facet normal -0 0 1
    outer loop
      vertex -24.8677 1.1565 0.2
      vertex -24.7366 -1.17594 0.2
      vertex -24.7366 1.17594 0.2
    endloop
  endfacet
  facet normal 0 0 1
    outer loop
      vertex -24.8677 1.1565 0.2
      vertex -24.8677 -1.1565 0.2
      vertex -24.7366 -1.17594 0.2
    endloop
  endfacet
  facet normal -0 0 1
    outer loop
      vertex -25 1.15 0.2
      vertex -24.8677 -1.1565 0.2
      vertex -24.8677 1.1565 0.2
    endloop
  endfacet
  facet normal 0 0 1
    outer loop
      vertex -24.8677 -1.1565 0.2
      vertex -25 1.15 0.2
      vertex -25 -1.15 0.2
    endloop
  endfacet
  facet normal 0 0 1
    outer loop
      vertex 25 4.75 0.2
      vertex 24.8677 3.8435 0.2
      vertex 25 3.85 0.2
    endloop
  endfacet
  facet normal 0 0 1
    outer loop
      vertex 25 4.75 0.2
      vertex 24.7366 3.82406 0.2
      vertex 24.8677 3.8435 0.2
    endloop
  endfacet
  facet normal 0 0 1
    outer loop
      vertex 25 4.75 0.2
      vertex 24.6081 3.79187 0.2
      vertex 24.7366 3.82406 0.2
    endloop
  endfacet
  facet normal 0 0 1
    outer loop
      vertex 25 4.75 0.2
      vertex 24.4834 3.74724 0.2
      vertex 24.6081 3.79187 0.2
    endloop
  endfacet
  facet normal 0 0 1
    outer loop
      vertex 25 4.75 0.2
      vertex 24.3636 3.69059 0.2
      vertex 24.4834 3.74724 0.2
    endloop
  endfacet
  facet normal 0 0 1
    outer loop
      vertex 25 4.75 0.2
      vertex 24.25 3.62248 0.2
      vertex 24.3636 3.69059 0.2
    endloop
  endfacet
  facet normal 0 0 1
    outer loop
      vertex 25 4.75 0.2
      vertex 24.1436 3.54356 0.2
      vertex 24.25 3.62248 0.2
    endloop
  endfacet
  facet normal 0 0 1
    outer loop
      vertex 25 4.75 0.2
      vertex 24.0454 3.45459 0.2
      vertex 24.1436 3.54356 0.2
    endloop
  endfacet
  facet normal 0 0 1
    outer loop
      vertex 25 4.75 0.2
      vertex 23.9564 3.35643 0.2
      vertex 24.0454 3.45459 0.2
    endloop
  endfacet
  facet normal 0 0 1
    outer loop
      vertex 23.6565 2.36768 0.2
      vertex -23.6565 2.36768 0.2
      vertex 23.6565 -2.36768 0.2
    endloop
  endfacet
  facet normal 0 0 1
    outer loop
      vertex 23.6565 2.63232 0.2
      vertex -23.65 2.5 0.2
      vertex 23.65 2.5 0.2
    endloop
  endfacet
  facet normal 0 0 1
    outer loop
      vertex -23.6565 2.63232 0.2
      vertex 23.6565 2.63232 0.2
      vertex 23.6759 2.76337 0.2
    endloop
  endfacet
  facet normal 0 0 1
    outer loop
      vertex -23.6759 2.76337 0.2
      vertex 23.6759 2.76337 0.2
      vertex 23.7081 2.89188 0.2
    endloop
  endfacet
  facet normal 0 0 1
    outer loop
      vertex -23.7081 2.89188 0.2
      vertex 23.7081 2.89188 0.2
      vertex 23.7528 3.01662 0.2
    endloop
  endfacet
  facet normal 0 0 1
    outer loop
      vertex -23.7528 3.01662 0.2
      vertex 23.7528 3.01662 0.2
      vertex 23.8094 3.13638 0.2
    endloop
  endfacet
  facet normal 0 0 1
    outer loop
      vertex -23.8094 3.13638 0.2
      vertex 23.8094 3.13638 0.2
      vertex 23.8775 3.25002 0.2
    endloop
  endfacet
  facet normal 0 0 1
    outer loop
      vertex -23.8775 3.25002 0.2
      vertex 23.8775 3.25002 0.2
      vertex 23.9564 3.35643 0.2
    endloop
  endfacet
  facet normal 0 0 1
    outer loop
      vertex -23.9564 3.35643 0.2
      vertex 23.9564 3.35643 0.2
      vertex 25 4.75 0.2
    endloop
  endfacet
  facet normal 0 0 1
    outer loop
      vertex 23.6565 2.63232 0.2
      vertex -23.6565 2.63232 0.2
      vertex -23.65 2.5 0.2
    endloop
  endfacet
  facet normal 0 0 1
    outer loop
      vertex 23.6759 2.76337 0.2
      vertex -23.6759 2.76337 0.2
      vertex -23.6565 2.63232 0.2
    endloop
  endfacet
  facet normal 0 0 1
    outer loop
      vertex 23.7081 2.89188 0.2
      vertex -23.7081 2.89188 0.2
      vertex -23.6759 2.76337 0.2
    endloop
  endfacet
  facet normal 0 0 1
    outer loop
      vertex 23.7528 3.01662 0.2
      vertex -23.7528 3.01662 0.2
      vertex -23.7081 2.89188 0.2
    endloop
  endfacet
  facet normal 0 0 1
    outer loop
      vertex 23.8094 3.13638 0.2
      vertex -23.8094 3.13638 0.2
      vertex -23.7528 3.01662 0.2
    endloop
  endfacet
  facet normal 0 0 1
    outer loop
      vertex 23.8775 3.25002 0.2
      vertex -23.8775 3.25002 0.2
      vertex -23.8094 3.13638 0.2
    endloop
  endfacet
  facet normal 0 0 1
    outer loop
      vertex 23.9564 3.35643 0.2
      vertex -23.9564 3.35643 0.2
      vertex -23.8775 3.25002 0.2
    endloop
  endfacet
  facet normal -0 0 1
    outer loop
      vertex -25 4.75 0.2
      vertex -23.9564 3.35643 0.2
      vertex 25 4.75 0.2
    endloop
  endfacet
  facet normal 0 0 1
    outer loop
      vertex -23.9564 3.35643 0.2
      vertex -25 4.75 0.2
      vertex -24.0454 3.45459 0.2
    endloop
  endfacet
  facet normal 0 0 1
    outer loop
      vertex -24.0454 3.45459 0.2
      vertex -25 4.75 0.2
      vertex -24.1436 3.54356 0.2
    endloop
  endfacet
  facet normal 0 0 1
    outer loop
      vertex -24.1436 3.54356 0.2
      vertex -25 4.75 0.2
      vertex -24.25 3.62248 0.2
    endloop
  endfacet
  facet normal 0 0 1
    outer loop
      vertex -24.25 3.62248 0.2
      vertex -25 4.75 0.2
      vertex -24.3636 3.69059 0.2
    endloop
  endfacet
  facet normal 0 0 1
    outer loop
      vertex -24.3636 3.69059 0.2
      vertex -25 4.75 0.2
      vertex -24.4834 3.74724 0.2
    endloop
  endfacet
  facet normal 0 0 1
    outer loop
      vertex -24.4834 3.74724 0.2
      vertex -25 4.75 0.2
      vertex -24.6081 3.79187 0.2
    endloop
  endfacet
  facet normal 0 0 1
    outer loop
      vertex -24.6081 3.79187 0.2
      vertex -25 4.75 0.2
      vertex -24.7366 3.82406 0.2
    endloop
  endfacet
  facet normal 0 0 1
    outer loop
      vertex -24.7366 3.82406 0.2
      vertex -25 4.75 0.2
      vertex -24.8677 3.8435 0.2
    endloop
  endfacet
  facet normal 0 0 1
    outer loop
      vertex -24.8677 3.8435 0.2
      vertex -25 4.75 0.2
      vertex -25 3.85 0.2
    endloop
  endfacet
  facet normal 0 0 1
    outer loop
      vertex 24.8677 1.1565 0.2
      vertex 25 -1.15 0.2
      vertex 25 1.15 0.2
    endloop
  endfacet
  facet normal 0 0 1
    outer loop
      vertex 24.8677 1.1565 0.2
      vertex 24.8677 -1.1565 0.2
      vertex 25 -1.15 0.2
    endloop
  endfacet
  facet normal 0 0 1
    outer loop
      vertex 24.7366 1.17594 0.2
      vertex 24.8677 -1.1565 0.2
      vertex 24.8677 1.1565 0.2
    endloop
  endfacet
  facet normal 0 0 1
    outer loop
      vertex 24.7366 1.17594 0.2
      vertex 24.7366 -1.17594 0.2
      vertex 24.8677 -1.1565 0.2
    endloop
  endfacet
  facet normal 0 0 1
    outer loop
      vertex 24.6081 1.20813 0.2
      vertex 24.7366 -1.17594 0.2
      vertex 24.7366 1.17594 0.2
    endloop
  endfacet
  facet normal 0 0 1
    outer loop
      vertex 24.6081 1.20813 0.2
      vertex 24.6081 -1.20813 0.2
      vertex 24.7366 -1.17594 0.2
    endloop
  endfacet
  facet normal 0 0 1
    outer loop
      vertex 24.4834 1.25276 0.2
      vertex 24.6081 -1.20813 0.2
      vertex 24.6081 1.20813 0.2
    endloop
  endfacet
  facet normal 0 0 1
    outer loop
      vertex 24.4834 1.25276 0.2
      vertex 24.4834 -1.25276 0.2
      vertex 24.6081 -1.20813 0.2
    endloop
  endfacet
  facet normal 0 0 1
    outer loop
      vertex 24.3636 1.30941 0.2
      vertex 24.4834 -1.25276 0.2
      vertex 24.4834 1.25276 0.2
    endloop
  endfacet
  facet normal 0 0 1
    outer loop
      vertex 24.3636 1.30941 0.2
      vertex 24.3636 -1.30941 0.2
      vertex 24.4834 -1.25276 0.2
    endloop
  endfacet
  facet normal 0 0 1
    outer loop
      vertex 24.25 1.37752 0.2
      vertex 24.3636 -1.30941 0.2
      vertex 24.3636 1.30941 0.2
    endloop
  endfacet
  facet normal 0 0 1
    outer loop
      vertex 24.25 1.37752 0.2
      vertex 24.25 -1.37752 0.2
      vertex 24.3636 -1.30941 0.2
    endloop
  endfacet
  facet normal 0 0 1
    outer loop
      vertex 24.1436 1.45644 0.2
      vertex 24.25 -1.37752 0.2
      vertex 24.25 1.37752 0.2
    endloop
  endfacet
  facet normal 0 0 1
    outer loop
      vertex 24.1436 1.45644 0.2
      vertex 24.1436 -1.45644 0.2
      vertex 24.25 -1.37752 0.2
    endloop
  endfacet
  facet normal 0 0 1
    outer loop
      vertex 24.0454 1.54541 0.2
      vertex 24.1436 -1.45644 0.2
      vertex 24.1436 1.45644 0.2
    endloop
  endfacet
  facet normal 0 0 1
    outer loop
      vertex 24.0454 1.54541 0.2
      vertex 24.0454 -1.54541 0.2
      vertex 24.1436 -1.45644 0.2
    endloop
  endfacet
  facet normal 0 0 1
    outer loop
      vertex 23.9564 1.64357 0.2
      vertex 24.0454 -1.54541 0.2
      vertex 24.0454 1.54541 0.2
    endloop
  endfacet
  facet normal 0 0 1
    outer loop
      vertex 23.9564 1.64357 0.2
      vertex 23.9564 -1.64357 0.2
      vertex 24.0454 -1.54541 0.2
    endloop
  endfacet
  facet normal 0 0 1
    outer loop
      vertex 23.8775 1.74998 0.2
      vertex 23.9564 -1.64357 0.2
      vertex 23.9564 1.64357 0.2
    endloop
  endfacet
  facet normal 0 0 1
    outer loop
      vertex 23.8775 1.74998 0.2
      vertex 23.8775 -1.74998 0.2
      vertex 23.9564 -1.64357 0.2
    endloop
  endfacet
  facet normal 0 0 1
    outer loop
      vertex 23.8094 1.86361 0.2
      vertex 23.8775 -1.74998 0.2
      vertex 23.8775 1.74998 0.2
    endloop
  endfacet
  facet normal 0 0 1
    outer loop
      vertex 23.8094 1.86361 0.2
      vertex 23.8094 -1.86361 0.2
      vertex 23.8775 -1.74998 0.2
    endloop
  endfacet
  facet normal 0 0 1
    outer loop
      vertex 23.7528 1.98338 0.2
      vertex 23.8094 -1.86361 0.2
      vertex 23.8094 1.86361 0.2
    endloop
  endfacet
  facet normal 0 0 1
    outer loop
      vertex 23.7528 1.98338 0.2
      vertex 23.7528 -1.98338 0.2
      vertex 23.8094 -1.86361 0.2
    endloop
  endfacet
  facet normal 0 0 1
    outer loop
      vertex 23.7081 2.10812 0.2
      vertex 23.7528 -1.98338 0.2
      vertex 23.7528 1.98338 0.2
    endloop
  endfacet
  facet normal 0 0 1
    outer loop
      vertex 23.7081 2.10812 0.2
      vertex 23.7081 -2.10812 0.2
      vertex 23.7528 -1.98338 0.2
    endloop
  endfacet
  facet normal 0 0 1
    outer loop
      vertex 23.6759 2.23663 0.2
      vertex 23.7081 -2.10812 0.2
      vertex 23.7081 2.10812 0.2
    endloop
  endfacet
  facet normal 0 0 1
    outer loop
      vertex 23.6759 2.23663 0.2
      vertex 23.6759 -2.23663 0.2
      vertex 23.7081 -2.10812 0.2
    endloop
  endfacet
  facet normal 0 0 1
    outer loop
      vertex 23.6565 2.36768 0.2
      vertex 23.6759 -2.23663 0.2
      vertex 23.6759 2.23663 0.2
    endloop
  endfacet
  facet normal 0 0 1
    outer loop
      vertex 23.6565 2.36768 0.2
      vertex 23.6565 -2.36768 0.2
      vertex 23.6759 -2.23663 0.2
    endloop
  endfacet
  facet normal -0 0 1
    outer loop
      vertex -23.65 2.5 0.2
      vertex 23.6565 2.36768 0.2
      vertex 23.65 2.5 0.2
    endloop
  endfacet
  facet normal 0 0 1
    outer loop
      vertex -23.6565 2.36768 0.2
      vertex 23.6565 2.36768 0.2
      vertex -23.65 2.5 0.2
    endloop
  endfacet
  facet normal 0 0 1
    outer loop
      vertex 24.8677 -3.8435 0.2
      vertex 25 -4.75 0.2
      vertex 25 -3.85 0.2
    endloop
  endfacet
  facet normal 0 0 1
    outer loop
      vertex 24.7366 -3.82406 0.2
      vertex 25 -4.75 0.2
      vertex 24.8677 -3.8435 0.2
    endloop
  endfacet
  facet normal 0 0 1
    outer loop
      vertex 24.6081 -3.79187 0.2
      vertex 25 -4.75 0.2
      vertex 24.7366 -3.82406 0.2
    endloop
  endfacet
  facet normal 0 0 1
    outer loop
      vertex 24.4834 -3.74724 0.2
      vertex 25 -4.75 0.2
      vertex 24.6081 -3.79187 0.2
    endloop
  endfacet
  facet normal 0 0 1
    outer loop
      vertex 24.3636 -3.69059 0.2
      vertex 25 -4.75 0.2
      vertex 24.4834 -3.74724 0.2
    endloop
  endfacet
  facet normal 0 0 1
    outer loop
      vertex 24.25 -3.62248 0.2
      vertex 25 -4.75 0.2
      vertex 24.3636 -3.69059 0.2
    endloop
  endfacet
  facet normal 0 0 1
    outer loop
      vertex 24.1436 -3.54356 0.2
      vertex 25 -4.75 0.2
      vertex 24.25 -3.62248 0.2
    endloop
  endfacet
  facet normal 0 0 1
    outer loop
      vertex 24.0454 -3.45459 0.2
      vertex 25 -4.75 0.2
      vertex 24.1436 -3.54356 0.2
    endloop
  endfacet
  facet normal 0 0 1
    outer loop
      vertex 23.9564 -3.35643 0.2
      vertex 25 -4.75 0.2
      vertex 24.0454 -3.45459 0.2
    endloop
  endfacet
  facet normal 0 0 1
    outer loop
      vertex 23.6565 -2.36768 0.2
      vertex -23.65 -2.5 0.2
      vertex 23.65 -2.5 0.2
    endloop
  endfacet
  facet normal 0 0 1
    outer loop
      vertex 23.65 -2.5 0.2
      vertex -23.65 -2.5 0.2
      vertex 23.6565 -2.63232 0.2
    endloop
  endfacet
  facet normal 0 0 1
    outer loop
      vertex -23.6565 -2.63232 0.2
      vertex 23.6565 -2.63232 0.2
      vertex -23.65 -2.5 0.2
    endloop
  endfacet
  facet normal 0 0 1
    outer loop
      vertex 23.6565 -2.63232 0.2
      vertex -23.6565 -2.63232 0.2
      vertex 23.6759 -2.76337 0.2
    endloop
  endfacet
  facet normal 0 0 1
    outer loop
      vertex -23.6759 -2.76337 0.2
      vertex 23.6759 -2.76337 0.2
      vertex -23.6565 -2.63232 0.2
    endloop
  endfacet
  facet normal 0 0 1
    outer loop
      vertex 23.6759 -2.76337 0.2
      vertex -23.6759 -2.76337 0.2
      vertex 23.7081 -2.89188 0.2
    endloop
  endfacet
  facet normal 0 0 1
    outer loop
      vertex -23.7081 -2.89188 0.2
      vertex 23.7081 -2.89188 0.2
      vertex -23.6759 -2.76337 0.2
    endloop
  endfacet
  facet normal 0 0 1
    outer loop
      vertex 23.7081 -2.89188 0.2
      vertex -23.7081 -2.89188 0.2
      vertex 23.7528 -3.01662 0.2
    endloop
  endfacet
  facet normal 0 0 1
    outer loop
      vertex -23.7528 -3.01662 0.2
      vertex 23.7528 -3.01662 0.2
      vertex -23.7081 -2.89188 0.2
    endloop
  endfacet
  facet normal 0 0 1
    outer loop
      vertex 23.7528 -3.01662 0.2
      vertex -23.7528 -3.01662 0.2
      vertex 23.8094 -3.13638 0.2
    endloop
  endfacet
  facet normal 0 0 1
    outer loop
      vertex -23.8094 -3.13638 0.2
      vertex 23.8094 -3.13638 0.2
      vertex -23.7528 -3.01662 0.2
    endloop
  endfacet
  facet normal 0 0 1
    outer loop
      vertex 23.8094 -3.13638 0.2
      vertex -23.8094 -3.13638 0.2
      vertex 23.8775 -3.25002 0.2
    endloop
  endfacet
  facet normal 0 0 1
    outer loop
      vertex -23.8775 -3.25002 0.2
      vertex 23.8775 -3.25002 0.2
      vertex -23.8094 -3.13638 0.2
    endloop
  endfacet
  facet normal 0 0 1
    outer loop
      vertex 23.8775 -3.25002 0.2
      vertex -23.8775 -3.25002 0.2
      vertex 23.9564 -3.35643 0.2
    endloop
  endfacet
  facet normal 0 0 1
    outer loop
      vertex -23.9564 -3.35643 0.2
      vertex 23.9564 -3.35643 0.2
      vertex -23.8775 -3.25002 0.2
    endloop
  endfacet
  facet normal 0 0 1
    outer loop
      vertex 23.9564 -3.35643 0.2
      vertex -23.9564 -3.35643 0.2
      vertex 25 -4.75 0.2
    endloop
  endfacet
  facet normal 0 0 1
    outer loop
      vertex -25 -4.75 0.2
      vertex -23.9564 -3.35643 0.2
      vertex -24.0454 -3.45459 0.2
    endloop
  endfacet
  facet normal 0 0 1
    outer loop
      vertex -25 -4.75 0.2
      vertex -24.0454 -3.45459 0.2
      vertex -24.1436 -3.54356 0.2
    endloop
  endfacet
  facet normal 0 0 1
    outer loop
      vertex -25 -4.75 0.2
      vertex -24.1436 -3.54356 0.2
      vertex -24.25 -3.62248 0.2
    endloop
  endfacet
  facet normal 0 0 1
    outer loop
      vertex -25 -4.75 0.2
      vertex -24.25 -3.62248 0.2
      vertex -24.3636 -3.69059 0.2
    endloop
  endfacet
  facet normal 0 0 1
    outer loop
      vertex -25 -4.75 0.2
      vertex -24.3636 -3.69059 0.2
      vertex -24.4834 -3.74724 0.2
    endloop
  endfacet
  facet normal 0 0 1
    outer loop
      vertex -25 -4.75 0.2
      vertex -24.4834 -3.74724 0.2
      vertex -24.6081 -3.79187 0.2
    endloop
  endfacet
  facet normal 0 0 1
    outer loop
      vertex -25 -4.75 0.2
      vertex -24.6081 -3.79187 0.2
      vertex -24.7366 -3.82406 0.2
    endloop
  endfacet
  facet normal 0 0 1
    outer loop
      vertex -25 -4.75 0.2
      vertex -24.7366 -3.82406 0.2
      vertex -24.8677 -3.8435 0.2
    endloop
  endfacet
  facet normal 0 0 1
    outer loop
      vertex -25 -4.75 0.2
      vertex -24.8677 -3.8435 0.2
      vertex -25 -3.85 0.2
    endloop
  endfacet
  facet normal 0 0 1
    outer loop
      vertex -23.9564 -3.35643 0.2
      vertex -25 -4.75 0.2
      vertex 25 -4.75 0.2
    endloop
  endfacet
  facet normal 0 0 -1
    outer loop
      vertex -23.6565 2.36768 -0.2
      vertex 23.6565 2.36768 -0.2
      vertex -23.6565 -2.36768 -0.2
    endloop
  endfacet
  facet normal 0 0 -1
    outer loop
      vertex 23.6565 2.36768 -0.2
      vertex -23.6565 2.36768 -0.2
      vertex -23.65 2.5 -0.2
    endloop
  endfacet
  facet normal 0 0 -1
    outer loop
      vertex -23.6759 -2.23663 -0.2
      vertex -23.6565 2.36768 -0.2
      vertex -23.6565 -2.36768 -0.2
    endloop
  endfacet
  facet normal 0 0 -1
    outer loop
      vertex -23.6759 -2.23663 -0.2
      vertex -23.6759 2.23663 -0.2
      vertex -23.6565 2.36768 -0.2
    endloop
  endfacet
  facet normal 0 0 -1
    outer loop
      vertex -23.7081 -2.10812 -0.2
      vertex -23.6759 2.23663 -0.2
      vertex -23.6759 -2.23663 -0.2
    endloop
  endfacet
  facet normal 0 0 -1
    outer loop
      vertex -23.7081 -2.10812 -0.2
      vertex -23.7081 2.10812 -0.2
      vertex -23.6759 2.23663 -0.2
    endloop
  endfacet
  facet normal 0 0 -1
    outer loop
      vertex -23.7528 -1.98338 -0.2
      vertex -23.7081 2.10812 -0.2
      vertex -23.7081 -2.10812 -0.2
    endloop
  endfacet
  facet normal 0 0 -1
    outer loop
      vertex -23.7528 -1.98338 -0.2
      vertex -23.7528 1.98338 -0.2
      vertex -23.7081 2.10812 -0.2
    endloop
  endfacet
  facet normal 0 0 -1
    outer loop
      vertex -23.8094 -1.86361 -0.2
      vertex -23.7528 1.98338 -0.2
      vertex -23.7528 -1.98338 -0.2
    endloop
  endfacet
  facet normal 0 0 -1
    outer loop
      vertex -23.8094 -1.86361 -0.2
      vertex -23.8094 1.86361 -0.2
      vertex -23.7528 1.98338 -0.2
    endloop
  endfacet
  facet normal 0 0 -1
    outer loop
      vertex -23.8775 -1.74998 -0.2
      vertex -23.8094 1.86361 -0.2
      vertex -23.8094 -1.86361 -0.2
    endloop
  endfacet
  facet normal 0 0 -1
    outer loop
      vertex -23.8775 -1.74998 -0.2
      vertex -23.8775 1.74998 -0.2
      vertex -23.8094 1.86361 -0.2
    endloop
  endfacet
  facet normal 0 0 -1
    outer loop
      vertex -23.9564 -1.64357 -0.2
      vertex -23.8775 1.74998 -0.2
      vertex -23.8775 -1.74998 -0.2
    endloop
  endfacet
  facet normal 0 0 -1
    outer loop
      vertex -23.9564 -1.64357 -0.2
      vertex -23.9564 1.64357 -0.2
      vertex -23.8775 1.74998 -0.2
    endloop
  endfacet
  facet normal 0 0 -1
    outer loop
      vertex -24.0454 -1.54541 -0.2
      vertex -23.9564 1.64357 -0.2
      vertex -23.9564 -1.64357 -0.2
    endloop
  endfacet
  facet normal 0 0 -1
    outer loop
      vertex -24.0454 -1.54541 -0.2
      vertex -24.0454 1.54541 -0.2
      vertex -23.9564 1.64357 -0.2
    endloop
  endfacet
  facet normal 0 0 -1
    outer loop
      vertex -24.1436 -1.45644 -0.2
      vertex -24.0454 1.54541 -0.2
      vertex -24.0454 -1.54541 -0.2
    endloop
  endfacet
  facet normal 0 0 -1
    outer loop
      vertex -24.1436 -1.45644 -0.2
      vertex -24.1436 1.45644 -0.2
      vertex -24.0454 1.54541 -0.2
    endloop
  endfacet
  facet normal 0 0 -1
    outer loop
      vertex -24.25 -1.37752 -0.2
      vertex -24.1436 1.45644 -0.2
      vertex -24.1436 -1.45644 -0.2
    endloop
  endfacet
  facet normal 0 0 -1
    outer loop
      vertex -24.25 -1.37752 -0.2
      vertex -24.25 1.37752 -0.2
      vertex -24.1436 1.45644 -0.2
    endloop
  endfacet
  facet normal 0 0 -1
    outer loop
      vertex -24.3636 -1.30941 -0.2
      vertex -24.25 1.37752 -0.2
      vertex -24.25 -1.37752 -0.2
    endloop
  endfacet
  facet normal 0 0 -1
    outer loop
      vertex -24.3636 -1.30941 -0.2
      vertex -24.3636 1.30941 -0.2
      vertex -24.25 1.37752 -0.2
    endloop
  endfacet
  facet normal 0 0 -1
    outer loop
      vertex -24.4834 -1.25276 -0.2
      vertex -24.3636 1.30941 -0.2
      vertex -24.3636 -1.30941 -0.2
    endloop
  endfacet
  facet normal 0 0 -1
    outer loop
      vertex -24.4834 -1.25276 -0.2
      vertex -24.4834 1.25276 -0.2
      vertex -24.3636 1.30941 -0.2
    endloop
  endfacet
  facet normal 0 0 -1
    outer loop
      vertex -24.6081 -1.20813 -0.2
      vertex -24.4834 1.25276 -0.2
      vertex -24.4834 -1.25276 -0.2
    endloop
  endfacet
  facet normal 0 0 -1
    outer loop
      vertex -24.6081 -1.20813 -0.2
      vertex -24.6081 1.20813 -0.2
      vertex -24.4834 1.25276 -0.2
    endloop
  endfacet
  facet normal 0 0 -1
    outer loop
      vertex -24.7366 -1.17594 -0.2
      vertex -24.6081 1.20813 -0.2
      vertex -24.6081 -1.20813 -0.2
    endloop
  endfacet
  facet normal 0 0 -1
    outer loop
      vertex -24.7366 -1.17594 -0.2
      vertex -24.7366 1.17594 -0.2
      vertex -24.6081 1.20813 -0.2
    endloop
  endfacet
  facet normal 0 0 -1
    outer loop
      vertex -24.8677 -1.1565 -0.2
      vertex -24.7366 1.17594 -0.2
      vertex -24.7366 -1.17594 -0.2
    endloop
  endfacet
  facet normal 0 0 -1
    outer loop
      vertex -24.8677 -1.1565 -0.2
      vertex -24.8677 1.1565 -0.2
      vertex -24.7366 1.17594 -0.2
    endloop
  endfacet
  facet normal 0 0 -1
    outer loop
      vertex -25 -1.15 -0.2
      vertex -24.8677 1.1565 -0.2
      vertex -24.8677 -1.1565 -0.2
    endloop
  endfacet
  facet normal 0 0 -1
    outer loop
      vertex -24.8677 1.1565 -0.2
      vertex -25 -1.15 -0.2
      vertex -25 1.15 -0.2
    endloop
  endfacet
  facet normal 0 0 -1
    outer loop
      vertex 25 -4.75 -0.2
      vertex 24.8677 -3.8435 -0.2
      vertex 25 -3.85 -0.2
    endloop
  endfacet
  facet normal 0 0 -1
    outer loop
      vertex 25 -4.75 -0.2
      vertex 24.7366 -3.82406 -0.2
      vertex 24.8677 -3.8435 -0.2
    endloop
  endfacet
  facet normal 0 0 -1
    outer loop
      vertex 25 -4.75 -0.2
      vertex 24.6081 -3.79187 -0.2
      vertex 24.7366 -3.82406 -0.2
    endloop
  endfacet
  facet normal 0 0 -1
    outer loop
      vertex 25 -4.75 -0.2
      vertex 24.4834 -3.74724 -0.2
      vertex 24.6081 -3.79187 -0.2
    endloop
  endfacet
  facet normal 0 0 -1
    outer loop
      vertex 25 -4.75 -0.2
      vertex 24.3636 -3.69059 -0.2
      vertex 24.4834 -3.74724 -0.2
    endloop
  endfacet
  facet normal 0 0 -1
    outer loop
      vertex 25 -4.75 -0.2
      vertex 24.25 -3.62248 -0.2
      vertex 24.3636 -3.69059 -0.2
    endloop
  endfacet
  facet normal 0 0 -1
    outer loop
      vertex 25 -4.75 -0.2
      vertex 24.1436 -3.54356 -0.2
      vertex 24.25 -3.62248 -0.2
    endloop
  endfacet
  facet normal 0 0 -1
    outer loop
      vertex 25 -4.75 -0.2
      vertex 24.0454 -3.45459 -0.2
      vertex 24.1436 -3.54356 -0.2
    endloop
  endfacet
  facet normal 0 0 -1
    outer loop
      vertex 25 -4.75 -0.2
      vertex 23.9564 -3.35643 -0.2
      vertex 24.0454 -3.45459 -0.2
    endloop
  endfacet
  facet normal 0 0 -1
    outer loop
      vertex 23.6565 -2.36768 -0.2
      vertex -23.6565 -2.36768 -0.2
      vertex 23.6565 2.36768 -0.2
    endloop
  endfacet
  facet normal 0 0 -1
    outer loop
      vertex 23.6565 -2.63232 -0.2
      vertex -23.65 -2.5 -0.2
      vertex 23.65 -2.5 -0.2
    endloop
  endfacet
  facet normal 0 0 -1
    outer loop
      vertex -23.6565 -2.63232 -0.2
      vertex 23.6565 -2.63232 -0.2
      vertex 23.6759 -2.76337 -0.2
    endloop
  endfacet
  facet normal 0 0 -1
    outer loop
      vertex -23.6759 -2.76337 -0.2
      vertex 23.6759 -2.76337 -0.2
      vertex 23.7081 -2.89188 -0.2
    endloop
  endfacet
  facet normal 0 0 -1
    outer loop
      vertex -23.7081 -2.89188 -0.2
      vertex 23.7081 -2.89188 -0.2
      vertex 23.7528 -3.01662 -0.2
    endloop
  endfacet
  facet normal 0 0 -1
    outer loop
      vertex -23.7528 -3.01662 -0.2
      vertex 23.7528 -3.01662 -0.2
      vertex 23.8094 -3.13638 -0.2
    endloop
  endfacet
  facet normal 0 0 -1
    outer loop
      vertex -23.8094 -3.13638 -0.2
      vertex 23.8094 -3.13638 -0.2
      vertex 23.8775 -3.25002 -0.2
    endloop
  endfacet
  facet normal 0 0 -1
    outer loop
      vertex -23.8775 -3.25002 -0.2
      vertex 23.8775 -3.25002 -0.2
      vertex 23.9564 -3.35643 -0.2
    endloop
  endfacet
  facet normal 0 0 -1
    outer loop
      vertex -23.9564 -3.35643 -0.2
      vertex 23.9564 -3.35643 -0.2
      vertex 25 -4.75 -0.2
    endloop
  endfacet
  facet normal 0 0 -1
    outer loop
      vertex 23.6565 -2.63232 -0.2
      vertex -23.6565 -2.63232 -0.2
      vertex -23.65 -2.5 -0.2
    endloop
  endfacet
  facet normal 0 0 -1
    outer loop
      vertex 23.6759 -2.76337 -0.2
      vertex -23.6759 -2.76337 -0.2
      vertex -23.6565 -2.63232 -0.2
    endloop
  endfacet
  facet normal 0 0 -1
    outer loop
      vertex 23.7081 -2.89188 -0.2
      vertex -23.7081 -2.89188 -0.2
      vertex -23.6759 -2.76337 -0.2
    endloop
  endfacet
  facet normal 0 0 -1
    outer loop
      vertex 23.7528 -3.01662 -0.2
      vertex -23.7528 -3.01662 -0.2
      vertex -23.7081 -2.89188 -0.2
    endloop
  endfacet
  facet normal 0 0 -1
    outer loop
      vertex 23.8094 -3.13638 -0.2
      vertex -23.8094 -3.13638 -0.2
      vertex -23.7528 -3.01662 -0.2
    endloop
  endfacet
  facet normal 0 0 -1
    outer loop
      vertex 23.8775 -3.25002 -0.2
      vertex -23.8775 -3.25002 -0.2
      vertex -23.8094 -3.13638 -0.2
    endloop
  endfacet
  facet normal 0 0 -1
    outer loop
      vertex 23.9564 -3.35643 -0.2
      vertex -23.9564 -3.35643 -0.2
      vertex -23.8775 -3.25002 -0.2
    endloop
  endfacet
  facet normal 0 0 -1
    outer loop
      vertex -25 -4.75 -0.2
      vertex -23.9564 -3.35643 -0.2
      vertex 25 -4.75 -0.2
    endloop
  endfacet
  facet normal 0 0 -1
    outer loop
      vertex -23.9564 -3.35643 -0.2
      vertex -25 -4.75 -0.2
      vertex -24.0454 -3.45459 -0.2
    endloop
  endfacet
  facet normal 0 0 -1
    outer loop
      vertex -24.0454 -3.45459 -0.2
      vertex -25 -4.75 -0.2
      vertex -24.1436 -3.54356 -0.2
    endloop
  endfacet
  facet normal 0 0 -1
    outer loop
      vertex -24.1436 -3.54356 -0.2
      vertex -25 -4.75 -0.2
      vertex -24.25 -3.62248 -0.2
    endloop
  endfacet
  facet normal 0 0 -1
    outer loop
      vertex -24.25 -3.62248 -0.2
      vertex -25 -4.75 -0.2
      vertex -24.3636 -3.69059 -0.2
    endloop
  endfacet
  facet normal 0 0 -1
    outer loop
      vertex -24.3636 -3.69059 -0.2
      vertex -25 -4.75 -0.2
      vertex -24.4834 -3.74724 -0.2
    endloop
  endfacet
  facet normal 0 0 -1
    outer loop
      vertex -24.4834 -3.74724 -0.2
      vertex -25 -4.75 -0.2
      vertex -24.6081 -3.79187 -0.2
    endloop
  endfacet
  facet normal 0 0 -1
    outer loop
      vertex -24.6081 -3.79187 -0.2
      vertex -25 -4.75 -0.2
      vertex -24.7366 -3.82406 -0.2
    endloop
  endfacet
  facet normal 0 0 -1
    outer loop
      vertex -24.7366 -3.82406 -0.2
      vertex -25 -4.75 -0.2
      vertex -24.8677 -3.8435 -0.2
    endloop
  endfacet
  facet normal 0 0 -1
    outer loop
      vertex -24.8677 -3.8435 -0.2
      vertex -25 -4.75 -0.2
      vertex -25 -3.85 -0.2
    endloop
  endfacet
  facet normal 0 0 -1
    outer loop
      vertex 24.8677 -1.1565 -0.2
      vertex 25 1.15 -0.2
      vertex 25 -1.15 -0.2
    endloop
  endfacet
  facet normal 0 0 -1
    outer loop
      vertex 24.8677 -1.1565 -0.2
      vertex 24.8677 1.1565 -0.2
      vertex 25 1.15 -0.2
    endloop
  endfacet
  facet normal 0 0 -1
    outer loop
      vertex 24.7366 -1.17594 -0.2
      vertex 24.8677 1.1565 -0.2
      vertex 24.8677 -1.1565 -0.2
    endloop
  endfacet
  facet normal 0 0 -1
    outer loop
      vertex 24.7366 -1.17594 -0.2
      vertex 24.7366 1.17594 -0.2
      vertex 24.8677 1.1565 -0.2
    endloop
  endfacet
  facet normal 0 0 -1
    outer loop
      vertex 24.6081 -1.20813 -0.2
      vertex 24.7366 1.17594 -0.2
      vertex 24.7366 -1.17594 -0.2
    endloop
  endfacet
  facet normal 0 0 -1
    outer loop
      vertex 24.6081 -1.20813 -0.2
      vertex 24.6081 1.20813 -0.2
      vertex 24.7366 1.17594 -0.2
    endloop
  endfacet
  facet normal 0 0 -1
    outer loop
      vertex 24.4834 -1.25276 -0.2
      vertex 24.6081 1.20813 -0.2
      vertex 24.6081 -1.20813 -0.2
    endloop
  endfacet
  facet normal 0 0 -1
    outer loop
      vertex 24.4834 -1.25276 -0.2
      vertex 24.4834 1.25276 -0.2
      vertex 24.6081 1.20813 -0.2
    endloop
  endfacet
  facet normal 0 0 -1
    outer loop
      vertex 24.3636 -1.30941 -0.2
      vertex 24.4834 1.25276 -0.2
      vertex 24.4834 -1.25276 -0.2
    endloop
  endfacet
  facet normal 0 0 -1
    outer loop
      vertex 24.3636 -1.30941 -0.2
      vertex 24.3636 1.30941 -0.2
      vertex 24.4834 1.25276 -0.2
    endloop
  endfacet
  facet normal 0 0 -1
    outer loop
      vertex 24.25 -1.37752 -0.2
      vertex 24.3636 1.30941 -0.2
      vertex 24.3636 -1.30941 -0.2
    endloop
  endfacet
  facet normal 0 0 -1
    outer loop
      vertex 24.25 -1.37752 -0.2
      vertex 24.25 1.37752 -0.2
      vertex 24.3636 1.30941 -0.2
    endloop
  endfacet
  facet normal 0 0 -1
    outer loop
      vertex 24.1436 -1.45644 -0.2
      vertex 24.25 1.37752 -0.2
      vertex 24.25 -1.37752 -0.2
    endloop
  endfacet
  facet normal 0 0 -1
    outer loop
      vertex 24.1436 -1.45644 -0.2
      vertex 24.1436 1.45644 -0.2
      vertex 24.25 1.37752 -0.2
    endloop
  endfacet
  facet normal 0 0 -1
    outer loop
      vertex 24.0454 -1.54541 -0.2
      vertex 24.1436 1.45644 -0.2
      vertex 24.1436 -1.45644 -0.2
    endloop
  endfacet
  facet normal 0 0 -1
    outer loop
      vertex 24.0454 -1.54541 -0.2
      vertex 24.0454 1.54541 -0.2
      vertex 24.1436 1.45644 -0.2
    endloop
  endfacet
  facet normal 0 0 -1
    outer loop
      vertex 23.9564 -1.64357 -0.2
      vertex 24.0454 1.54541 -0.2
      vertex 24.0454 -1.54541 -0.2
    endloop
  endfacet
  facet normal 0 0 -1
    outer loop
      vertex 23.9564 -1.64357 -0.2
      vertex 23.9564 1.64357 -0.2
      vertex 24.0454 1.54541 -0.2
    endloop
  endfacet
  facet normal 0 0 -1
    outer loop
      vertex 23.8775 -1.74998 -0.2
      vertex 23.9564 1.64357 -0.2
      vertex 23.9564 -1.64357 -0.2
    endloop
  endfacet
  facet normal 0 0 -1
    outer loop
      vertex 23.8775 -1.74998 -0.2
      vertex 23.8775 1.74998 -0.2
      vertex 23.9564 1.64357 -0.2
    endloop
  endfacet
  facet normal 0 0 -1
    outer loop
      vertex 23.8094 -1.86361 -0.2
      vertex 23.8775 1.74998 -0.2
      vertex 23.8775 -1.74998 -0.2
    endloop
  endfacet
  facet normal 0 0 -1
    outer loop
      vertex 23.8094 -1.86361 -0.2
      vertex 23.8094 1.86361 -0.2
      vertex 23.8775 1.74998 -0.2
    endloop
  endfacet
  facet normal 0 0 -1
    outer loop
      vertex 23.7528 -1.98338 -0.2
      vertex 23.8094 1.86361 -0.2
      vertex 23.8094 -1.86361 -0.2
    endloop
  endfacet
  facet normal 0 0 -1
    outer loop
      vertex 23.7528 -1.98338 -0.2
      vertex 23.7528 1.98338 -0.2
      vertex 23.8094 1.86361 -0.2
    endloop
  endfacet
  facet normal 0 0 -1
    outer loop
      vertex 23.7081 -2.10812 -0.2
      vertex 23.7528 1.98338 -0.2
      vertex 23.7528 -1.98338 -0.2
    endloop
  endfacet
  facet normal 0 0 -1
    outer loop
      vertex 23.7081 -2.10812 -0.2
      vertex 23.7081 2.10812 -0.2
      vertex 23.7528 1.98338 -0.2
    endloop
  endfacet
  facet normal 0 0 -1
    outer loop
      vertex 23.6759 -2.23663 -0.2
      vertex 23.7081 2.10812 -0.2
      vertex 23.7081 -2.10812 -0.2
    endloop
  endfacet
  facet normal 0 0 -1
    outer loop
      vertex 23.6759 -2.23663 -0.2
      vertex 23.6759 2.23663 -0.2
      vertex 23.7081 2.10812 -0.2
    endloop
  endfacet
  facet normal 0 0 -1
    outer loop
      vertex 23.6565 -2.36768 -0.2
      vertex 23.6759 2.23663 -0.2
      vertex 23.6759 -2.23663 -0.2
    endloop
  endfacet
  facet normal 0 0 -1
    outer loop
      vertex 23.6565 -2.36768 -0.2
      vertex 23.6565 2.36768 -0.2
      vertex 23.6759 2.23663 -0.2
    endloop
  endfacet
  facet normal 0 0 -1
    outer loop
      vertex -23.65 -2.5 -0.2
      vertex 23.6565 -2.36768 -0.2
      vertex 23.65 -2.5 -0.2
    endloop
  endfacet
  facet normal 0 0 -1
    outer loop
      vertex -23.6565 -2.36768 -0.2
      vertex 23.6565 -2.36768 -0.2
      vertex -23.65 -2.5 -0.2
    endloop
  endfacet
  facet normal 0 0 -1
    outer loop
      vertex 24.8677 3.8435 -0.2
      vertex 25 4.75 -0.2
      vertex 25 3.85 -0.2
    endloop
  endfacet
  facet normal 0 0 -1
    outer loop
      vertex 24.7366 3.82406 -0.2
      vertex 25 4.75 -0.2
      vertex 24.8677 3.8435 -0.2
    endloop
  endfacet
  facet normal 0 0 -1
    outer loop
      vertex 24.6081 3.79187 -0.2
      vertex 25 4.75 -0.2
      vertex 24.7366 3.82406 -0.2
    endloop
  endfacet
  facet normal 0 0 -1
    outer loop
      vertex 24.4834 3.74724 -0.2
      vertex 25 4.75 -0.2
      vertex 24.6081 3.79187 -0.2
    endloop
  endfacet
  facet normal 0 0 -1
    outer loop
      vertex 24.3636 3.69059 -0.2
      vertex 25 4.75 -0.2
      vertex 24.4834 3.74724 -0.2
    endloop
  endfacet
  facet normal 0 0 -1
    outer loop
      vertex 24.25 3.62248 -0.2
      vertex 25 4.75 -0.2
      vertex 24.3636 3.69059 -0.2
    endloop
  endfacet
  facet normal 0 0 -1
    outer loop
      vertex 24.1436 3.54356 -0.2
      vertex 25 4.75 -0.2
      vertex 24.25 3.62248 -0.2
    endloop
  endfacet
  facet normal 0 0 -1
    outer loop
      vertex 24.0454 3.45459 -0.2
      vertex 25 4.75 -0.2
      vertex 24.1436 3.54356 -0.2
    endloop
  endfacet
  facet normal 0 0 -1
    outer loop
      vertex 23.9564 3.35643 -0.2
      vertex 25 4.75 -0.2
      vertex 24.0454 3.45459 -0.2
    endloop
  endfacet
  facet normal 0 0 -1
    outer loop
      vertex 23.6565 2.36768 -0.2
      vertex -23.65 2.5 -0.2
      vertex 23.65 2.5 -0.2
    endloop
  endfacet
  facet normal 0 0 -1
    outer loop
      vertex 23.65 2.5 -0.2
      vertex -23.65 2.5 -0.2
      vertex 23.6565 2.63232 -0.2
    endloop
  endfacet
  facet normal 0 0 -1
    outer loop
      vertex -23.6565 2.63232 -0.2
      vertex 23.6565 2.63232 -0.2
      vertex -23.65 2.5 -0.2
    endloop
  endfacet
  facet normal 0 0 -1
    outer loop
      vertex 23.6565 2.63232 -0.2
      vertex -23.6565 2.63232 -0.2
      vertex 23.6759 2.76337 -0.2
    endloop
  endfacet
  facet normal 0 0 -1
    outer loop
      vertex -23.6759 2.76337 -0.2
      vertex 23.6759 2.76337 -0.2
      vertex -23.6565 2.63232 -0.2
    endloop
  endfacet
  facet normal 0 0 -1
    outer loop
      vertex 23.6759 2.76337 -0.2
      vertex -23.6759 2.76337 -0.2
      vertex 23.7081 2.89188 -0.2
    endloop
  endfacet
  facet normal 0 0 -1
    outer loop
      vertex -23.7081 2.89188 -0.2
      vertex 23.7081 2.89188 -0.2
      vertex -23.6759 2.76337 -0.2
    endloop
  endfacet
  facet normal 0 0 -1
    outer loop
      vertex 23.7081 2.89188 -0.2
      vertex -23.7081 2.89188 -0.2
      vertex 23.7528 3.01662 -0.2
    endloop
  endfacet
  facet normal 0 0 -1
    outer loop
      vertex -23.7528 3.01662 -0.2
      vertex 23.7528 3.01662 -0.2
      vertex -23.7081 2.89188 -0.2
    endloop
  endfacet
  facet normal 0 0 -1
    outer loop
      vertex 23.7528 3.01662 -0.2
      vertex -23.7528 3.01662 -0.2
      vertex 23.8094 3.13638 -0.2
    endloop
  endfacet
  facet normal 0 0 -1
    outer loop
      vertex -23.8094 3.13638 -0.2
      vertex 23.8094 3.13638 -0.2
      vertex -23.7528 3.01662 -0.2
    endloop
  endfacet
  facet normal 0 0 -1
    outer loop
      vertex 23.8094 3.13638 -0.2
      vertex -23.8094 3.13638 -0.2
      vertex 23.8775 3.25002 -0.2
    endloop
  endfacet
  facet normal 0 0 -1
    outer loop
      vertex -23.8775 3.25002 -0.2
      vertex 23.8775 3.25002 -0.2
      vertex -23.8094 3.13638 -0.2
    endloop
  endfacet
  facet normal 0 0 -1
    outer loop
      vertex 23.8775 3.25002 -0.2
      vertex -23.8775 3.25002 -0.2
      vertex 23.9564 3.35643 -0.2
    endloop
  endfacet
  facet normal 0 0 -1
    outer loop
      vertex -23.9564 3.35643 -0.2
      vertex 23.9564 3.35643 -0.2
      vertex -23.8775 3.25002 -0.2
    endloop
  endfacet
  facet normal 0 0 -1
    outer loop
      vertex 23.9564 3.35643 -0.2
      vertex -23.9564 3.35643 -0.2
      vertex 25 4.75 -0.2
    endloop
  endfacet
  facet normal 0 0 -1
    outer loop
      vertex -25 4.75 -0.2
      vertex -23.9564 3.35643 -0.2
      vertex -24.0454 3.45459 -0.2
    endloop
  endfacet
  facet normal 0 0 -1
    outer loop
      vertex -25 4.75 -0.2
      vertex -24.0454 3.45459 -0.2
      vertex -24.1436 3.54356 -0.2
    endloop
  endfacet
  facet normal 0 0 -1
    outer loop
      vertex -25 4.75 -0.2
      vertex -24.1436 3.54356 -0.2
      vertex -24.25 3.62248 -0.2
    endloop
  endfacet
  facet normal 0 0 -1
    outer loop
      vertex -25 4.75 -0.2
      vertex -24.25 3.62248 -0.2
      vertex -24.3636 3.69059 -0.2
    endloop
  endfacet
  facet normal 0 0 -1
    outer loop
      vertex -25 4.75 -0.2
      vertex -24.3636 3.69059 -0.2
      vertex -24.4834 3.74724 -0.2
    endloop
  endfacet
  facet normal 0 0 -1
    outer loop
      vertex -25 4.75 -0.2
      vertex -24.4834 3.74724 -0.2
      vertex -24.6081 3.79187 -0.2
    endloop
  endfacet
  facet normal 0 0 -1
    outer loop
      vertex -25 4.75 -0.2
      vertex -24.6081 3.79187 -0.2
      vertex -24.7366 3.82406 -0.2
    endloop
  endfacet
  facet normal 0 0 -1
    outer loop
      vertex -25 4.75 -0.2
      vertex -24.7366 3.82406 -0.2
      vertex -24.8677 3.8435 -0.2
    endloop
  endfacet
  facet normal 0 0 -1
    outer loop
      vertex -25 4.75 -0.2
      vertex -24.8677 3.8435 -0.2
      vertex -25 3.85 -0.2
    endloop
  endfacet
  facet normal 0 0 -1
    outer loop
      vertex -23.9564 3.35643 -0.2
      vertex -25 4.75 -0.2
      vertex 25 4.75 -0.2
    endloop
  endfacet
  facet normal -1 0 0
    outer loop
      vertex -25 3.85 -0.2
      vertex -25 4.75 0.2
      vertex -25 4.75 -0.2
    endloop
  endfacet
  facet normal -1 -0 0
    outer loop
      vertex -25 4.75 0.2
      vertex -25 3.85 -0.2
      vertex -25 3.85 0.2
    endloop
  endfacet
  facet normal -1 0 0
    outer loop
      vertex -25 -4.75 -0.2
      vertex -25 -3.85 0.2
      vertex -25 -3.85 -0.2
    endloop
  endfacet
  facet normal -1 -0 0
    outer loop
      vertex -25 -3.85 0.2
      vertex -25 -4.75 -0.2
      vertex -25 -4.75 0.2
    endloop
  endfacet
  facet normal -1 0 0
    outer loop
      vertex -25 -1.15 -0.2
      vertex -25 1.15 0.2
      vertex -25 1.15 -0.2
    endloop
  endfacet
  facet normal -1 -0 0
    outer loop
      vertex -25 1.15 0.2
      vertex -25 -1.15 -0.2
      vertex -25 -1.15 0.2
    endloop
  endfacet
  facet normal 0 1 -0
    outer loop
      vertex 25 4.75 -0.2
      vertex -25 4.75 0.2
      vertex 25 4.75 0.2
    endloop
  endfacet
  facet normal 0 1 0
    outer loop
      vertex -25 4.75 0.2
      vertex 25 4.75 -0.2
      vertex -25 4.75 -0.2
    endloop
  endfacet
  facet normal 0 -1 0
    outer loop
      vertex -25 -4.75 -0.2
      vertex 25 -4.75 0.2
      vertex -25 -4.75 0.2
    endloop
  endfacet
  facet normal 0 -1 -0
    outer loop
      vertex 25 -4.75 0.2
      vertex -25 -4.75 -0.2
      vertex 25 -4.75 -0.2
    endloop
  endfacet
endsolid OpenSCAD_Model
