solid OpenSCAD_Model
  facet normal 1 -0 0
    outer loop
      vertex 10.05 -1.25 0.219999
      vertex 10.05 1.25 0.200001
      vertex 10.05 1.25 0.219999
    endloop
  endfacet
  facet normal 1 0 0
    outer loop
      vertex 10.05 1.25 0.200001
      vertex 10.05 -1.25 0.219999
      vertex 10.05 -1.25 0.200001
    endloop
  endfacet
  facet normal 0 0 1
    outer loop
      vertex 10.05 1.25 0.219999
      vertex 9.75 0.95 0.219999
      vertex 10.05 -1.25 0.219999
    endloop
  endfacet
  facet normal 0 0 1
    outer loop
      vertex 10.05 1.25 0.219999
      vertex 6.85 0.95 0.219999
      vertex 9.75 0.95 0.219999
    endloop
  endfacet
  facet normal 0 0 1
    outer loop
      vertex 6.85 0.95 0.219999
      vertex 6.55 1.25 0.219999
      vertex 6.85 -0.95 0.219999
    endloop
  endfacet
  facet normal -0 0 1
    outer loop
      vertex 6.55 1.25 0.219999
      vertex 6.85 0.95 0.219999
      vertex 10.05 1.25 0.219999
    endloop
  endfacet
  facet normal -0 0 1
    outer loop
      vertex 9.75 -0.95 0.219999
      vertex 10.05 -1.25 0.219999
      vertex 9.75 0.95 0.219999
    endloop
  endfacet
  facet normal -0 0 1
    outer loop
      vertex 6.85 -0.95 0.219999
      vertex 10.05 -1.25 0.219999
      vertex 9.75 -0.95 0.219999
    endloop
  endfacet
  facet normal 0 0 1
    outer loop
      vertex 6.85 -0.95 0.219999
      vertex 6.55 -1.25 0.219999
      vertex 10.05 -1.25 0.219999
    endloop
  endfacet
  facet normal 0 0 1
    outer loop
      vertex 6.55 -1.25 0.219999
      vertex 6.85 -0.95 0.219999
      vertex 6.55 1.25 0.219999
    endloop
  endfacet
  facet normal 0 0 -1
    outer loop
      vertex 10.05 -1.25 0.200001
      vertex 9.75 -0.95 0.200001
      vertex 10.05 1.25 0.200001
    endloop
  endfacet
  facet normal 0 0 -1
    outer loop
      vertex 10.05 -1.25 0.200001
      vertex 6.85 -0.95 0.200001
      vertex 9.75 -0.95 0.200001
    endloop
  endfacet
  facet normal -0 0 -1
    outer loop
      vertex 6.85 -0.95 0.200001
      vertex 6.55 -1.25 0.200001
      vertex 6.85 0.95 0.200001
    endloop
  endfacet
  facet normal 0 0 -1
    outer loop
      vertex 6.55 -1.25 0.200001
      vertex 6.85 -0.95 0.200001
      vertex 10.05 -1.25 0.200001
    endloop
  endfacet
  facet normal 0 0 -1
    outer loop
      vertex 9.75 0.95 0.200001
      vertex 10.05 1.25 0.200001
      vertex 9.75 -0.95 0.200001
    endloop
  endfacet
  facet normal 0 0 -1
    outer loop
      vertex 6.85 0.95 0.200001
      vertex 10.05 1.25 0.200001
      vertex 9.75 0.95 0.200001
    endloop
  endfacet
  facet normal 0 0 -1
    outer loop
      vertex 6.85 0.95 0.200001
      vertex 6.55 1.25 0.200001
      vertex 10.05 1.25 0.200001
    endloop
  endfacet
  facet normal 0 0 -1
    outer loop
      vertex 6.55 1.25 0.200001
      vertex 6.85 0.95 0.200001
      vertex 6.55 -1.25 0.200001
    endloop
  endfacet
  facet normal -1 0 0
    outer loop
      vertex 6.55 -1.25 0.200001
      vertex 6.55 1.25 0.219999
      vertex 6.55 1.25 0.200001
    endloop
  endfacet
  facet normal -1 -0 0
    outer loop
      vertex 6.55 1.25 0.219999
      vertex 6.55 -1.25 0.200001
      vertex 6.55 -1.25 0.219999
    endloop
  endfacet
  facet normal 0 1 -0
    outer loop
      vertex 10.05 1.25 0.200001
      vertex 6.55 1.25 0.219999
      vertex 10.05 1.25 0.219999
    endloop
  endfacet
  facet normal 0 1 0
    outer loop
      vertex 6.55 1.25 0.219999
      vertex 10.05 1.25 0.200001
      vertex 6.55 1.25 0.200001
    endloop
  endfacet
  facet normal 0 -1 0
    outer loop
      vertex 6.55 -1.25 0.200001
      vertex 10.05 -1.25 0.219999
      vertex 6.55 -1.25 0.219999
    endloop
  endfacet
  facet normal 0 -1 -0
    outer loop
      vertex 10.05 -1.25 0.219999
      vertex 6.55 -1.25 0.200001
      vertex 10.05 -1.25 0.200001
    endloop
  endfacet
  facet normal -1 0 0
    outer loop
      vertex 9.75 -0.95 0.200001
      vertex 9.75 0.95 0.219999
      vertex 9.75 0.95 0.200001
    endloop
  endfacet
  facet normal -1 -0 0
    outer loop
      vertex 9.75 0.95 0.219999
      vertex 9.75 -0.95 0.200001
      vertex 9.75 -0.95 0.219999
    endloop
  endfacet
  facet normal 1 -0 0
    outer loop
      vertex 6.85 -0.95 0.219999
      vertex 6.85 0.95 0.200001
      vertex 6.85 0.95 0.219999
    endloop
  endfacet
  facet normal 1 0 0
    outer loop
      vertex 6.85 0.95 0.200001
      vertex 6.85 -0.95 0.219999
      vertex 6.85 -0.95 0.200001
    endloop
  endfacet
  facet normal 0 -1 0
    outer loop
      vertex 6.85 0.95 0.200001
      vertex 9.75 0.95 0.219999
      vertex 6.85 0.95 0.219999
    endloop
  endfacet
  facet normal 0 -1 -0
    outer loop
      vertex 9.75 0.95 0.219999
      vertex 6.85 0.95 0.200001
      vertex 9.75 0.95 0.200001
    endloop
  endfacet
  facet normal 0 1 -0
    outer loop
      vertex 9.75 -0.95 0.200001
      vertex 6.85 -0.95 0.219999
      vertex 9.75 -0.95 0.219999
    endloop
  endfacet
  facet normal 0 1 0
    outer loop
      vertex 6.85 -0.95 0.219999
      vertex 9.75 -0.95 0.200001
      vertex 6.85 -0.95 0.200001
    endloop
  endfacet
endsolid OpenSCAD_Model
