solid OpenSCAD_Model
  facet normal 1 -0 0
    outer loop
      vertex -3.75 -1.25 0.219999
      vertex -3.75 1.25 0.200001
      vertex -3.75 1.25 0.219999
    endloop
  endfacet
  facet normal 1 0 0
    outer loop
      vertex -3.75 1.25 0.200001
      vertex -3.75 -1.25 0.219999
      vertex -3.75 -1.25 0.200001
    endloop
  endfacet
  facet normal 0 0 1
    outer loop
      vertex -3.75 1.25 0.219999
      vertex -4.05 0.95 0.219999
      vertex -3.75 -1.25 0.219999
    endloop
  endfacet
  facet normal 0 0 1
    outer loop
      vertex -3.75 1.25 0.219999
      vertex -6.95 0.95 0.219999
      vertex -4.05 0.95 0.219999
    endloop
  endfacet
  facet normal 0 0 1
    outer loop
      vertex -6.95 0.95 0.219999
      vertex -7.25 1.25 0.219999
      vertex -6.95 -0.95 0.219999
    endloop
  endfacet
  facet normal -0 0 1
    outer loop
      vertex -7.25 1.25 0.219999
      vertex -6.95 0.95 0.219999
      vertex -3.75 1.25 0.219999
    endloop
  endfacet
  facet normal -0 0 1
    outer loop
      vertex -4.05 -0.95 0.219999
      vertex -3.75 -1.25 0.219999
      vertex -4.05 0.95 0.219999
    endloop
  endfacet
  facet normal -0 0 1
    outer loop
      vertex -6.95 -0.95 0.219999
      vertex -3.75 -1.25 0.219999
      vertex -4.05 -0.95 0.219999
    endloop
  endfacet
  facet normal 0 0 1
    outer loop
      vertex -6.95 -0.95 0.219999
      vertex -7.25 -1.25 0.219999
      vertex -3.75 -1.25 0.219999
    endloop
  endfacet
  facet normal 0 0 1
    outer loop
      vertex -7.25 -1.25 0.219999
      vertex -6.95 -0.95 0.219999
      vertex -7.25 1.25 0.219999
    endloop
  endfacet
  facet normal 0 0 -1
    outer loop
      vertex -3.75 -1.25 0.200001
      vertex -4.05 -0.95 0.200001
      vertex -3.75 1.25 0.200001
    endloop
  endfacet
  facet normal 0 0 -1
    outer loop
      vertex -3.75 -1.25 0.200001
      vertex -6.95 -0.95 0.200001
      vertex -4.05 -0.95 0.200001
    endloop
  endfacet
  facet normal -0 0 -1
    outer loop
      vertex -6.95 -0.95 0.200001
      vertex -7.25 -1.25 0.200001
      vertex -6.95 0.95 0.200001
    endloop
  endfacet
  facet normal 0 0 -1
    outer loop
      vertex -7.25 -1.25 0.200001
      vertex -6.95 -0.95 0.200001
      vertex -3.75 -1.25 0.200001
    endloop
  endfacet
  facet normal 0 0 -1
    outer loop
      vertex -4.05 0.95 0.200001
      vertex -3.75 1.25 0.200001
      vertex -4.05 -0.95 0.200001
    endloop
  endfacet
  facet normal 0 0 -1
    outer loop
      vertex -6.95 0.95 0.200001
      vertex -3.75 1.25 0.200001
      vertex -4.05 0.95 0.200001
    endloop
  endfacet
  facet normal 0 0 -1
    outer loop
      vertex -6.95 0.95 0.200001
      vertex -7.25 1.25 0.200001
      vertex -3.75 1.25 0.200001
    endloop
  endfacet
  facet normal 0 0 -1
    outer loop
      vertex -7.25 1.25 0.200001
      vertex -6.95 0.95 0.200001
      vertex -7.25 -1.25 0.200001
    endloop
  endfacet
  facet normal -1 0 0
    outer loop
      vertex -7.25 -1.25 0.200001
      vertex -7.25 1.25 0.219999
      vertex -7.25 1.25 0.200001
    endloop
  endfacet
  facet normal -1 -0 0
    outer loop
      vertex -7.25 1.25 0.219999
      vertex -7.25 -1.25 0.200001
      vertex -7.25 -1.25 0.219999
    endloop
  endfacet
  facet normal 0 1 -0
    outer loop
      vertex -3.75 1.25 0.200001
      vertex -7.25 1.25 0.219999
      vertex -3.75 1.25 0.219999
    endloop
  endfacet
  facet normal 0 1 0
    outer loop
      vertex -7.25 1.25 0.219999
      vertex -3.75 1.25 0.200001
      vertex -7.25 1.25 0.200001
    endloop
  endfacet
  facet normal 0 -1 0
    outer loop
      vertex -7.25 -1.25 0.200001
      vertex -3.75 -1.25 0.219999
      vertex -7.25 -1.25 0.219999
    endloop
  endfacet
  facet normal 0 -1 -0
    outer loop
      vertex -3.75 -1.25 0.219999
      vertex -7.25 -1.25 0.200001
      vertex -3.75 -1.25 0.200001
    endloop
  endfacet
  facet normal -1 0 0
    outer loop
      vertex -4.05 -0.95 0.200001
      vertex -4.05 0.95 0.219999
      vertex -4.05 0.95 0.200001
    endloop
  endfacet
  facet normal -1 -0 0
    outer loop
      vertex -4.05 0.95 0.219999
      vertex -4.05 -0.95 0.200001
      vertex -4.05 -0.95 0.219999
    endloop
  endfacet
  facet normal 1 -0 0
    outer loop
      vertex -6.95 -0.95 0.219999
      vertex -6.95 0.95 0.200001
      vertex -6.95 0.95 0.219999
    endloop
  endfacet
  facet normal 1 0 0
    outer loop
      vertex -6.95 0.95 0.200001
      vertex -6.95 -0.95 0.219999
      vertex -6.95 -0.95 0.200001
    endloop
  endfacet
  facet normal 0 -1 0
    outer loop
      vertex -6.95 0.95 0.200001
      vertex -4.05 0.95 0.219999
      vertex -6.95 0.95 0.219999
    endloop
  endfacet
  facet normal 0 -1 -0
    outer loop
      vertex -4.05 0.95 0.219999
      vertex -6.95 0.95 0.200001
      vertex -4.05 0.95 0.200001
    endloop
  endfacet
  facet normal 0 1 -0
    outer loop
      vertex -4.05 -0.95 0.200001
      vertex -6.95 -0.95 0.219999
      vertex -4.05 -0.95 0.219999
    endloop
  endfacet
  facet normal 0 1 0
    outer loop
      vertex -6.95 -0.95 0.219999
      vertex -4.05 -0.95 0.200001
      vertex -6.95 -0.95 0.200001
    endloop
  endfacet
endsolid OpenSCAD_Model
