solid OpenSCAD_Model
  facet normal 1 -0 0
    outer loop
      vertex -12.85 -3.25 0.219999
      vertex -12.85 3.25 0.200001
      vertex -12.85 3.25 0.219999
    endloop
  endfacet
  facet normal 1 0 0
    outer loop
      vertex -12.85 3.25 0.200001
      vertex -12.85 -3.25 0.219999
      vertex -12.85 -3.25 0.200001
    endloop
  endfacet
  facet normal 0 0 1
    outer loop
      vertex -12.85 3.25 0.219999
      vertex -13.35 2.75 0.219999
      vertex -12.85 -3.25 0.219999
    endloop
  endfacet
  facet normal 0 0 1
    outer loop
      vertex -12.85 3.25 0.219999
      vertex -19.85 2.75 0.219999
      vertex -13.35 2.75 0.219999
    endloop
  endfacet
  facet normal 0 0 1
    outer loop
      vertex -19.85 2.75 0.219999
      vertex -20.35 3.25 0.219999
      vertex -19.85 -2.75 0.219999
    endloop
  endfacet
  facet normal -0 0 1
    outer loop
      vertex -20.35 3.25 0.219999
      vertex -19.85 2.75 0.219999
      vertex -12.85 3.25 0.219999
    endloop
  endfacet
  facet normal -0 0 1
    outer loop
      vertex -13.35 -2.75 0.219999
      vertex -12.85 -3.25 0.219999
      vertex -13.35 2.75 0.219999
    endloop
  endfacet
  facet normal -0 0 1
    outer loop
      vertex -19.85 -2.75 0.219999
      vertex -12.85 -3.25 0.219999
      vertex -13.35 -2.75 0.219999
    endloop
  endfacet
  facet normal 0 0 1
    outer loop
      vertex -19.85 -2.75 0.219999
      vertex -20.35 -3.25 0.219999
      vertex -12.85 -3.25 0.219999
    endloop
  endfacet
  facet normal 0 0 1
    outer loop
      vertex -20.35 -3.25 0.219999
      vertex -19.85 -2.75 0.219999
      vertex -20.35 3.25 0.219999
    endloop
  endfacet
  facet normal 0 0 -1
    outer loop
      vertex -12.85 -3.25 0.200001
      vertex -13.35 -2.75 0.200001
      vertex -12.85 3.25 0.200001
    endloop
  endfacet
  facet normal 0 0 -1
    outer loop
      vertex -12.85 -3.25 0.200001
      vertex -19.85 -2.75 0.200001
      vertex -13.35 -2.75 0.200001
    endloop
  endfacet
  facet normal -0 0 -1
    outer loop
      vertex -19.85 -2.75 0.200001
      vertex -20.35 -3.25 0.200001
      vertex -19.85 2.75 0.200001
    endloop
  endfacet
  facet normal 0 0 -1
    outer loop
      vertex -20.35 -3.25 0.200001
      vertex -19.85 -2.75 0.200001
      vertex -12.85 -3.25 0.200001
    endloop
  endfacet
  facet normal 0 0 -1
    outer loop
      vertex -13.35 2.75 0.200001
      vertex -12.85 3.25 0.200001
      vertex -13.35 -2.75 0.200001
    endloop
  endfacet
  facet normal 0 0 -1
    outer loop
      vertex -19.85 2.75 0.200001
      vertex -12.85 3.25 0.200001
      vertex -13.35 2.75 0.200001
    endloop
  endfacet
  facet normal 0 0 -1
    outer loop
      vertex -19.85 2.75 0.200001
      vertex -20.35 3.25 0.200001
      vertex -12.85 3.25 0.200001
    endloop
  endfacet
  facet normal 0 0 -1
    outer loop
      vertex -20.35 3.25 0.200001
      vertex -19.85 2.75 0.200001
      vertex -20.35 -3.25 0.200001
    endloop
  endfacet
  facet normal -1 0 0
    outer loop
      vertex -20.35 -3.25 0.200001
      vertex -20.35 3.25 0.219999
      vertex -20.35 3.25 0.200001
    endloop
  endfacet
  facet normal -1 -0 0
    outer loop
      vertex -20.35 3.25 0.219999
      vertex -20.35 -3.25 0.200001
      vertex -20.35 -3.25 0.219999
    endloop
  endfacet
  facet normal 0 1 -0
    outer loop
      vertex -12.85 3.25 0.200001
      vertex -20.35 3.25 0.219999
      vertex -12.85 3.25 0.219999
    endloop
  endfacet
  facet normal 0 1 0
    outer loop
      vertex -20.35 3.25 0.219999
      vertex -12.85 3.25 0.200001
      vertex -20.35 3.25 0.200001
    endloop
  endfacet
  facet normal 0 -1 0
    outer loop
      vertex -20.35 -3.25 0.200001
      vertex -12.85 -3.25 0.219999
      vertex -20.35 -3.25 0.219999
    endloop
  endfacet
  facet normal 0 -1 -0
    outer loop
      vertex -12.85 -3.25 0.219999
      vertex -20.35 -3.25 0.200001
      vertex -12.85 -3.25 0.200001
    endloop
  endfacet
  facet normal -1 0 0
    outer loop
      vertex -13.35 -2.75 0.200001
      vertex -13.35 2.75 0.219999
      vertex -13.35 2.75 0.200001
    endloop
  endfacet
  facet normal -1 -0 0
    outer loop
      vertex -13.35 2.75 0.219999
      vertex -13.35 -2.75 0.200001
      vertex -13.35 -2.75 0.219999
    endloop
  endfacet
  facet normal 1 -0 0
    outer loop
      vertex -19.85 -2.75 0.219999
      vertex -19.85 2.75 0.200001
      vertex -19.85 2.75 0.219999
    endloop
  endfacet
  facet normal 1 0 0
    outer loop
      vertex -19.85 2.75 0.200001
      vertex -19.85 -2.75 0.219999
      vertex -19.85 -2.75 0.200001
    endloop
  endfacet
  facet normal 0 -1 0
    outer loop
      vertex -19.85 2.75 0.200001
      vertex -13.35 2.75 0.219999
      vertex -19.85 2.75 0.219999
    endloop
  endfacet
  facet normal 0 -1 -0
    outer loop
      vertex -13.35 2.75 0.219999
      vertex -19.85 2.75 0.200001
      vertex -13.35 2.75 0.200001
    endloop
  endfacet
  facet normal 0 1 -0
    outer loop
      vertex -13.35 -2.75 0.200001
      vertex -19.85 -2.75 0.219999
      vertex -13.35 -2.75 0.219999
    endloop
  endfacet
  facet normal 0 1 0
    outer loop
      vertex -19.85 -2.75 0.219999
      vertex -13.35 -2.75 0.200001
      vertex -19.85 -2.75 0.200001
    endloop
  endfacet
endsolid OpenSCAD_Model
