solid OpenSCAD_Model
  facet normal 1 -0 0
    outer loop
      vertex 3.75 -3.25 0.219999
      vertex 3.75 3.25 0.200001
      vertex 3.75 3.25 0.219999
    endloop
  endfacet
  facet normal 1 0 0
    outer loop
      vertex 3.75 3.25 0.200001
      vertex 3.75 -3.25 0.219999
      vertex 3.75 -3.25 0.200001
    endloop
  endfacet
  facet normal 0 0 1
    outer loop
      vertex 3.75 3.25 0.219999
      vertex 3.25 2.75 0.219999
      vertex 3.75 -3.25 0.219999
    endloop
  endfacet
  facet normal 0 0 1
    outer loop
      vertex 3.75 3.25 0.219999
      vertex -3.25 2.75 0.219999
      vertex 3.25 2.75 0.219999
    endloop
  endfacet
  facet normal 0 0 1
    outer loop
      vertex -3.25 2.75 0.219999
      vertex -3.75 3.25 0.219999
      vertex -3.25 -2.75 0.219999
    endloop
  endfacet
  facet normal -0 0 1
    outer loop
      vertex -3.75 3.25 0.219999
      vertex -3.25 2.75 0.219999
      vertex 3.75 3.25 0.219999
    endloop
  endfacet
  facet normal -0 0 1
    outer loop
      vertex 3.25 -2.75 0.219999
      vertex 3.75 -3.25 0.219999
      vertex 3.25 2.75 0.219999
    endloop
  endfacet
  facet normal -0 0 1
    outer loop
      vertex -3.25 -2.75 0.219999
      vertex 3.75 -3.25 0.219999
      vertex 3.25 -2.75 0.219999
    endloop
  endfacet
  facet normal 0 0 1
    outer loop
      vertex -3.25 -2.75 0.219999
      vertex -3.75 -3.25 0.219999
      vertex 3.75 -3.25 0.219999
    endloop
  endfacet
  facet normal 0 0 1
    outer loop
      vertex -3.75 -3.25 0.219999
      vertex -3.25 -2.75 0.219999
      vertex -3.75 3.25 0.219999
    endloop
  endfacet
  facet normal 0 0 -1
    outer loop
      vertex 3.75 -3.25 0.200001
      vertex 3.25 -2.75 0.200001
      vertex 3.75 3.25 0.200001
    endloop
  endfacet
  facet normal 0 0 -1
    outer loop
      vertex 3.75 -3.25 0.200001
      vertex -3.25 -2.75 0.200001
      vertex 3.25 -2.75 0.200001
    endloop
  endfacet
  facet normal -0 0 -1
    outer loop
      vertex -3.25 -2.75 0.200001
      vertex -3.75 -3.25 0.200001
      vertex -3.25 2.75 0.200001
    endloop
  endfacet
  facet normal 0 0 -1
    outer loop
      vertex -3.75 -3.25 0.200001
      vertex -3.25 -2.75 0.200001
      vertex 3.75 -3.25 0.200001
    endloop
  endfacet
  facet normal 0 0 -1
    outer loop
      vertex 3.25 2.75 0.200001
      vertex 3.75 3.25 0.200001
      vertex 3.25 -2.75 0.200001
    endloop
  endfacet
  facet normal 0 0 -1
    outer loop
      vertex -3.25 2.75 0.200001
      vertex 3.75 3.25 0.200001
      vertex 3.25 2.75 0.200001
    endloop
  endfacet
  facet normal 0 0 -1
    outer loop
      vertex -3.25 2.75 0.200001
      vertex -3.75 3.25 0.200001
      vertex 3.75 3.25 0.200001
    endloop
  endfacet
  facet normal 0 0 -1
    outer loop
      vertex -3.75 3.25 0.200001
      vertex -3.25 2.75 0.200001
      vertex -3.75 -3.25 0.200001
    endloop
  endfacet
  facet normal -1 0 0
    outer loop
      vertex -3.75 -3.25 0.200001
      vertex -3.75 3.25 0.219999
      vertex -3.75 3.25 0.200001
    endloop
  endfacet
  facet normal -1 -0 0
    outer loop
      vertex -3.75 3.25 0.219999
      vertex -3.75 -3.25 0.200001
      vertex -3.75 -3.25 0.219999
    endloop
  endfacet
  facet normal 0 1 -0
    outer loop
      vertex 3.75 3.25 0.200001
      vertex -3.75 3.25 0.219999
      vertex 3.75 3.25 0.219999
    endloop
  endfacet
  facet normal 0 1 0
    outer loop
      vertex -3.75 3.25 0.219999
      vertex 3.75 3.25 0.200001
      vertex -3.75 3.25 0.200001
    endloop
  endfacet
  facet normal 0 -1 0
    outer loop
      vertex -3.75 -3.25 0.200001
      vertex 3.75 -3.25 0.219999
      vertex -3.75 -3.25 0.219999
    endloop
  endfacet
  facet normal 0 -1 -0
    outer loop
      vertex 3.75 -3.25 0.219999
      vertex -3.75 -3.25 0.200001
      vertex 3.75 -3.25 0.200001
    endloop
  endfacet
  facet normal -1 0 0
    outer loop
      vertex 3.25 -2.75 0.200001
      vertex 3.25 2.75 0.219999
      vertex 3.25 2.75 0.200001
    endloop
  endfacet
  facet normal -1 -0 0
    outer loop
      vertex 3.25 2.75 0.219999
      vertex 3.25 -2.75 0.200001
      vertex 3.25 -2.75 0.219999
    endloop
  endfacet
  facet normal 1 -0 0
    outer loop
      vertex -3.25 -2.75 0.219999
      vertex -3.25 2.75 0.200001
      vertex -3.25 2.75 0.219999
    endloop
  endfacet
  facet normal 1 0 0
    outer loop
      vertex -3.25 2.75 0.200001
      vertex -3.25 -2.75 0.219999
      vertex -3.25 -2.75 0.200001
    endloop
  endfacet
  facet normal 0 -1 0
    outer loop
      vertex -3.25 2.75 0.200001
      vertex 3.25 2.75 0.219999
      vertex -3.25 2.75 0.219999
    endloop
  endfacet
  facet normal 0 -1 -0
    outer loop
      vertex 3.25 2.75 0.219999
      vertex -3.25 2.75 0.200001
      vertex 3.25 2.75 0.200001
    endloop
  endfacet
  facet normal 0 1 -0
    outer loop
      vertex 3.25 -2.75 0.200001
      vertex -3.25 -2.75 0.219999
      vertex 3.25 -2.75 0.219999
    endloop
  endfacet
  facet normal 0 1 0
    outer loop
      vertex -3.25 -2.75 0.219999
      vertex 3.25 -2.75 0.200001
      vertex -3.25 -2.75 0.200001
    endloop
  endfacet
endsolid OpenSCAD_Model
