solid OpenSCAD_Model
  facet normal 1 -0 0
    outer loop
      vertex -24 -32 0
      vertex -24 -12 -2
      vertex -24 -12 0
    endloop
  endfacet
  facet normal 1 0 0
    outer loop
      vertex -24 -12 -2
      vertex -24 -32 0
      vertex -24 -32 -2
    endloop
  endfacet
  facet normal 0 0 -1
    outer loop
      vertex -40 -32 -2
      vertex -24 -12 -2
      vertex -24 -32 -2
    endloop
  endfacet
  facet normal -0 0 -1
    outer loop
      vertex -24 -12 -2
      vertex -40 -32 -2
      vertex -40 -12 -2
    endloop
  endfacet
  facet normal -1 0 0
    outer loop
      vertex -52 -32 -7
      vertex -52 -12 0
      vertex -52 -12 -7
    endloop
  endfacet
  facet normal -1 -0 0
    outer loop
      vertex -52 -12 0
      vertex -52 -32 -7
      vertex -52 -32 0
    endloop
  endfacet
  facet normal 0 1 0
    outer loop
      vertex -40 -12 -2
      vertex -24 -12 0
      vertex -24 -12 -2
    endloop
  endfacet
  facet normal 0 1 0
    outer loop
      vertex -24 -12 0
      vertex -40 -12 -2
      vertex -52 -12 0
    endloop
  endfacet
  facet normal 0 1 0
    outer loop
      vertex -52 -12 -7
      vertex -40 -12 -2
      vertex -40 -12 -7
    endloop
  endfacet
  facet normal 0 1 0
    outer loop
      vertex -40 -12 -2
      vertex -52 -12 -7
      vertex -52 -12 0
    endloop
  endfacet
  facet normal 0 -1 0
    outer loop
      vertex -52 -32 0
      vertex -40 -32 -2
      vertex -24 -32 0
    endloop
  endfacet
  facet normal 0 -1 0
    outer loop
      vertex -52 -32 -7
      vertex -40 -32 -2
      vertex -52 -32 0
    endloop
  endfacet
  facet normal 0 -1 -0
    outer loop
      vertex -40 -32 -2
      vertex -52 -32 -7
      vertex -40 -32 -7
    endloop
  endfacet
  facet normal 0 -1 -0
    outer loop
      vertex -24 -32 0
      vertex -40 -32 -2
      vertex -24 -32 -2
    endloop
  endfacet
  facet normal 1 -0 0
    outer loop
      vertex -40 -32 -2
      vertex -40 -12 -7
      vertex -40 -12 -2
    endloop
  endfacet
  facet normal 1 0 0
    outer loop
      vertex -40 -12 -7
      vertex -40 -32 -2
      vertex -40 -32 -7
    endloop
  endfacet
  facet normal 0 0 -1
    outer loop
      vertex -52 -32 -7
      vertex -40 -12 -7
      vertex -40 -32 -7
    endloop
  endfacet
  facet normal -0 0 -1
    outer loop
      vertex -40 -12 -7
      vertex -52 -32 -7
      vertex -52 -12 -7
    endloop
  endfacet
  facet normal 1 -0 0
    outer loop
      vertex -24 12 0
      vertex -24 32 -2
      vertex -24 32 0
    endloop
  endfacet
  facet normal 1 0 0
    outer loop
      vertex -24 32 -2
      vertex -24 12 0
      vertex -24 12 -2
    endloop
  endfacet
  facet normal 0 0 -1
    outer loop
      vertex -40 12 -2
      vertex -24 32 -2
      vertex -24 12 -2
    endloop
  endfacet
  facet normal -0 0 -1
    outer loop
      vertex -24 32 -2
      vertex -40 12 -2
      vertex -40 32 -2
    endloop
  endfacet
  facet normal -1 0 0
    outer loop
      vertex -52 12 -7
      vertex -52 32 0
      vertex -52 32 -7
    endloop
  endfacet
  facet normal -1 -0 0
    outer loop
      vertex -52 32 0
      vertex -52 12 -7
      vertex -52 12 0
    endloop
  endfacet
  facet normal 0 1 0
    outer loop
      vertex -40 32 -2
      vertex -24 32 0
      vertex -24 32 -2
    endloop
  endfacet
  facet normal 0 1 0
    outer loop
      vertex -24 32 0
      vertex -40 32 -2
      vertex -52 32 0
    endloop
  endfacet
  facet normal 0 1 0
    outer loop
      vertex -52 32 -7
      vertex -40 32 -2
      vertex -40 32 -7
    endloop
  endfacet
  facet normal 0 1 0
    outer loop
      vertex -40 32 -2
      vertex -52 32 -7
      vertex -52 32 0
    endloop
  endfacet
  facet normal 0 -1 0
    outer loop
      vertex -52 12 0
      vertex -40 12 -2
      vertex -24 12 0
    endloop
  endfacet
  facet normal 0 -1 0
    outer loop
      vertex -52 12 -7
      vertex -40 12 -2
      vertex -52 12 0
    endloop
  endfacet
  facet normal 0 -1 -0
    outer loop
      vertex -40 12 -2
      vertex -52 12 -7
      vertex -40 12 -7
    endloop
  endfacet
  facet normal 0 -1 -0
    outer loop
      vertex -24 12 0
      vertex -40 12 -2
      vertex -24 12 -2
    endloop
  endfacet
  facet normal 1 -0 0
    outer loop
      vertex -40 12 -2
      vertex -40 32 -7
      vertex -40 32 -2
    endloop
  endfacet
  facet normal 1 0 0
    outer loop
      vertex -40 32 -7
      vertex -40 12 -2
      vertex -40 12 -7
    endloop
  endfacet
  facet normal 0 0 -1
    outer loop
      vertex -52 12 -7
      vertex -40 32 -7
      vertex -40 12 -7
    endloop
  endfacet
  facet normal -0 0 -1
    outer loop
      vertex -40 32 -7
      vertex -52 12 -7
      vertex -52 32 -7
    endloop
  endfacet
  facet normal 1 -0 0
    outer loop
      vertex 52 -32 0
      vertex 52 -12 -7
      vertex 52 -12 0
    endloop
  endfacet
  facet normal 1 0 0
    outer loop
      vertex 52 -12 -7
      vertex 52 -32 0
      vertex 52 -32 -7
    endloop
  endfacet
  facet normal 0 0 -1
    outer loop
      vertex 24 -32 -2
      vertex 40 -12 -2
      vertex 40 -32 -2
    endloop
  endfacet
  facet normal -0 0 -1
    outer loop
      vertex 40 -12 -2
      vertex 24 -32 -2
      vertex 24 -12 -2
    endloop
  endfacet
  facet normal -1 0 0
    outer loop
      vertex 24 -32 -2
      vertex 24 -12 0
      vertex 24 -12 -2
    endloop
  endfacet
  facet normal -1 -0 0
    outer loop
      vertex 24 -12 0
      vertex 24 -32 -2
      vertex 24 -32 0
    endloop
  endfacet
  facet normal 0 1 0
    outer loop
      vertex 52 -12 0
      vertex 40 -12 -2
      vertex 24 -12 0
    endloop
  endfacet
  facet normal 0 1 -0
    outer loop
      vertex 52 -12 -7
      vertex 40 -12 -2
      vertex 52 -12 0
    endloop
  endfacet
  facet normal 0 1 0
    outer loop
      vertex 40 -12 -2
      vertex 52 -12 -7
      vertex 40 -12 -7
    endloop
  endfacet
  facet normal 0 1 0
    outer loop
      vertex 24 -12 0
      vertex 40 -12 -2
      vertex 24 -12 -2
    endloop
  endfacet
  facet normal 0 -1 0
    outer loop
      vertex 40 -32 -2
      vertex 24 -32 0
      vertex 24 -32 -2
    endloop
  endfacet
  facet normal 0 -1 0
    outer loop
      vertex 24 -32 0
      vertex 40 -32 -2
      vertex 52 -32 0
    endloop
  endfacet
  facet normal 0 -1 0
    outer loop
      vertex 52 -32 -7
      vertex 40 -32 -2
      vertex 40 -32 -7
    endloop
  endfacet
  facet normal 0 -1 0
    outer loop
      vertex 40 -32 -2
      vertex 52 -32 -7
      vertex 52 -32 0
    endloop
  endfacet
  facet normal 0 0 -1
    outer loop
      vertex 40 -32 -7
      vertex 52 -12 -7
      vertex 52 -32 -7
    endloop
  endfacet
  facet normal -0 0 -1
    outer loop
      vertex 52 -12 -7
      vertex 40 -32 -7
      vertex 40 -12 -7
    endloop
  endfacet
  facet normal -1 0 0
    outer loop
      vertex 40 -32 -7
      vertex 40 -12 -2
      vertex 40 -12 -7
    endloop
  endfacet
  facet normal -1 -0 0
    outer loop
      vertex 40 -12 -2
      vertex 40 -32 -7
      vertex 40 -32 -2
    endloop
  endfacet
  facet normal 1 -0 0
    outer loop
      vertex 52 12 0
      vertex 52 32 -7
      vertex 52 32 0
    endloop
  endfacet
  facet normal 1 0 0
    outer loop
      vertex 52 32 -7
      vertex 52 12 0
      vertex 52 12 -7
    endloop
  endfacet
  facet normal 0 0 -1
    outer loop
      vertex 24 12 -2
      vertex 40 32 -2
      vertex 40 12 -2
    endloop
  endfacet
  facet normal -0 0 -1
    outer loop
      vertex 40 32 -2
      vertex 24 12 -2
      vertex 24 32 -2
    endloop
  endfacet
  facet normal -1 0 0
    outer loop
      vertex 24 12 -2
      vertex 24 32 0
      vertex 24 32 -2
    endloop
  endfacet
  facet normal -1 -0 0
    outer loop
      vertex 24 32 0
      vertex 24 12 -2
      vertex 24 12 0
    endloop
  endfacet
  facet normal 0 1 0
    outer loop
      vertex 52 32 0
      vertex 40 32 -2
      vertex 24 32 0
    endloop
  endfacet
  facet normal 0 1 -0
    outer loop
      vertex 52 32 -7
      vertex 40 32 -2
      vertex 52 32 0
    endloop
  endfacet
  facet normal 0 1 0
    outer loop
      vertex 40 32 -2
      vertex 52 32 -7
      vertex 40 32 -7
    endloop
  endfacet
  facet normal 0 1 0
    outer loop
      vertex 24 32 0
      vertex 40 32 -2
      vertex 24 32 -2
    endloop
  endfacet
  facet normal 0 -1 0
    outer loop
      vertex 40 12 -2
      vertex 24 12 0
      vertex 24 12 -2
    endloop
  endfacet
  facet normal 0 -1 0
    outer loop
      vertex 24 12 0
      vertex 40 12 -2
      vertex 52 12 0
    endloop
  endfacet
  facet normal 0 -1 0
    outer loop
      vertex 52 12 -7
      vertex 40 12 -2
      vertex 40 12 -7
    endloop
  endfacet
  facet normal 0 -1 0
    outer loop
      vertex 40 12 -2
      vertex 52 12 -7
      vertex 52 12 0
    endloop
  endfacet
  facet normal 0 0 -1
    outer loop
      vertex 40 12 -7
      vertex 52 32 -7
      vertex 52 12 -7
    endloop
  endfacet
  facet normal -0 0 -1
    outer loop
      vertex 52 32 -7
      vertex 40 12 -7
      vertex 40 32 -7
    endloop
  endfacet
  facet normal -1 0 0
    outer loop
      vertex 40 12 -7
      vertex 40 32 -2
      vertex 40 32 -7
    endloop
  endfacet
  facet normal -1 -0 0
    outer loop
      vertex 40 32 -2
      vertex 40 12 -7
      vertex 40 12 -2
    endloop
  endfacet
  facet normal 1 -0 0
    outer loop
      vertex 60 -40 6
      vertex 60 40 0
      vertex 60 40 6
    endloop
  endfacet
  facet normal 1 0 0
    outer loop
      vertex 60 40 0
      vertex 60 -40 6
      vertex 60 -40 0
    endloop
  endfacet
  facet normal -0 0 1
    outer loop
      vertex -60 40 6
      vertex 60 -40 6
      vertex 60 40 6
    endloop
  endfacet
  facet normal 0 0 1
    outer loop
      vertex 60 -40 6
      vertex -60 40 6
      vertex -60 -40 6
    endloop
  endfacet
  facet normal 0 0 -1
    outer loop
      vertex -52 -12 0
      vertex -24 12 0
      vertex -24 -12 0
    endloop
  endfacet
  facet normal -0 0 -1
    outer loop
      vertex -24 12 0
      vertex -52 -12 0
      vertex -52 12 0
    endloop
  endfacet
  facet normal 0 0 -1
    outer loop
      vertex 24 -12 0
      vertex 52 12 0
      vertex 52 -12 0
    endloop
  endfacet
  facet normal -0 0 -1
    outer loop
      vertex 52 12 0
      vertex 24 -12 0
      vertex 24 12 0
    endloop
  endfacet
  facet normal 0 0 -1
    outer loop
      vertex 52 -12 0
      vertex 60 -40 0
      vertex 52 -32 0
    endloop
  endfacet
  facet normal 0 0 -1
    outer loop
      vertex 60 -40 0
      vertex 24 -32 0
      vertex 52 -32 0
    endloop
  endfacet
  facet normal 0 0 -1
    outer loop
      vertex -24 -12 0
      vertex 24 -12 0
      vertex 24 -32 0
    endloop
  endfacet
  facet normal 0 0 -1
    outer loop
      vertex 24 -12 0
      vertex -24 -12 0
      vertex 24 12 0
    endloop
  endfacet
  facet normal 0 0 -1
    outer loop
      vertex -24 -12 0
      vertex 24 -32 0
      vertex -24 -32 0
    endloop
  endfacet
  facet normal 0 0 -1
    outer loop
      vertex 60 -40 0
      vertex -24 -32 0
      vertex 24 -32 0
    endloop
  endfacet
  facet normal 0 0 -1
    outer loop
      vertex -60 -40 0
      vertex -24 -32 0
      vertex 60 -40 0
    endloop
  endfacet
  facet normal 0 0 -1
    outer loop
      vertex -60 -40 0
      vertex -52 -12 0
      vertex -52 -32 0
    endloop
  endfacet
  facet normal -0 0 -1
    outer loop
      vertex -52 -12 0
      vertex -60 -40 0
      vertex -52 12 0
    endloop
  endfacet
  facet normal 0 0 -1
    outer loop
      vertex -60 40 0
      vertex -52 12 0
      vertex -60 -40 0
    endloop
  endfacet
  facet normal -0 0 -1
    outer loop
      vertex -24 -32 0
      vertex -60 -40 0
      vertex -52 -32 0
    endloop
  endfacet
  facet normal 0 0 -1
    outer loop
      vertex 60 -40 0
      vertex 52 -12 0
      vertex 60 40 0
    endloop
  endfacet
  facet normal 0 0 -1
    outer loop
      vertex 52 12 0
      vertex 60 40 0
      vertex 52 -12 0
    endloop
  endfacet
  facet normal 0 0 -1
    outer loop
      vertex 52 32 0
      vertex 60 40 0
      vertex 52 12 0
    endloop
  endfacet
  facet normal 0 0 -1
    outer loop
      vertex 24 32 0
      vertex 60 40 0
      vertex 52 32 0
    endloop
  endfacet
  facet normal 0 0 -1
    outer loop
      vertex -24 12 0
      vertex 24 12 0
      vertex -24 -12 0
    endloop
  endfacet
  facet normal 0 0 -1
    outer loop
      vertex 24 12 0
      vertex -24 12 0
      vertex 24 32 0
    endloop
  endfacet
  facet normal 0 0 -1
    outer loop
      vertex -24 32 0
      vertex 24 32 0
      vertex -24 12 0
    endloop
  endfacet
  facet normal 0 0 -1
    outer loop
      vertex -24 32 0
      vertex 60 40 0
      vertex 24 32 0
    endloop
  endfacet
  facet normal 0 0 -1
    outer loop
      vertex -60 40 0
      vertex -24 32 0
      vertex -52 32 0
    endloop
  endfacet
  facet normal 0 0 -1
    outer loop
      vertex -24 32 0
      vertex -60 40 0
      vertex 60 40 0
    endloop
  endfacet
  facet normal 0 0 -1
    outer loop
      vertex -52 12 0
      vertex -60 40 0
      vertex -52 32 0
    endloop
  endfacet
  facet normal -1 0 0
    outer loop
      vertex -60 -40 0
      vertex -60 40 6
      vertex -60 40 0
    endloop
  endfacet
  facet normal -1 -0 0
    outer loop
      vertex -60 40 6
      vertex -60 -40 0
      vertex -60 -40 6
    endloop
  endfacet
  facet normal 0 1 -0
    outer loop
      vertex 60 40 0
      vertex -60 40 6
      vertex 60 40 6
    endloop
  endfacet
  facet normal 0 1 0
    outer loop
      vertex -60 40 6
      vertex 60 40 0
      vertex -60 40 0
    endloop
  endfacet
  facet normal 0 -1 0
    outer loop
      vertex -60 -40 0
      vertex 60 -40 6
      vertex -60 -40 6
    endloop
  endfacet
  facet normal 0 -1 -0
    outer loop
      vertex 60 -40 6
      vertex -60 -40 0
      vertex 60 -40 0
    endloop
  endfacet
endsolid OpenSCAD_Model
