solid exported
	facet normal 3.557634464546517e-18 0.04906786882460964 0.9987954466501191
		outer loop
			vertex -41.5 -12.249999999999991 26.217622392718752
			vertex 7.5 -12.249999999999995 26.217622392718752
			vertex -41.5 -11.759914308786385 26.19354593092676
		endloop
	endfacet
	facet normal 0 0.0490678688246093 0.9987954466501192
		outer loop
			vertex 7.5 -12.249999999999995 26.217622392718752
			vertex 7.5 -11.759914308786385 26.19354593092676
			vertex -41.5 -11.759914308786385 26.19354593092676
		endloop
	endfacet
	facet normal 0 0.146730346769883 0.9891765289051243
		outer loop
			vertex -41.5 -11.759914308786385 26.19354593092676
			vertex 7.5 -11.759914308786385 26.19354593092676
			vertex -41.5 -11.274548411369317 26.12154876524683
		endloop
	endfacet
	facet normal 0 0.146730346769883 0.9891765289051243
		outer loop
			vertex 7.5 -11.759914308786385 26.19354593092676
			vertex 7.5 -11.274548411369317 26.12154876524683
			vertex -41.5 -11.274548411369317 26.12154876524683
		endloop
	endfacet
	facet normal 0 0.24297982421159145 0.9700313422906006
		outer loop
			vertex -41.5 -11.274548411369317 26.12154876524683
			vertex 7.5 -11.274548411369317 26.12154876524683
			vertex -41.5 -10.79857659339904 26.002324216906985
		endloop
	endfacet
	facet normal 0 0.24297982421159145 0.9700313422906006
		outer loop
			vertex 7.5 -11.274548411369317 26.12154876524683
			vertex 7.5 -10.79857659339904 26.002324216906985
			vertex -41.5 -10.79857659339904 26.002324216906985
		endloop
	endfacet
	facet normal 0 0.33689013211610713 0.9415439654539728
		outer loop
			vertex -41.5 -10.79857659339904 26.002324216906985
			vertex 7.5 -10.79857659339904 26.002324216906985
			vertex -41.5 -10.336582779884331 25.837020032947024
		endloop
	endfacet
	facet normal 0 0.33689013211610713 0.9415439654539728
		outer loop
			vertex 7.5 -10.79857659339904 26.002324216906985
			vertex 7.5 -10.336582779884331 25.837020032947024
			vertex -41.5 -10.336582779884331 25.837020032947024
		endloop
	endfacet
	facet normal 0 0.4275548950049314 0.9039893869716182
		outer loop
			vertex -41.5 -10.336582779884331 25.837020032947024
			vertex 7.5 -10.336582779884331 25.837020032947024
			vertex -41.5 -9.893016338348382 25.627228849475344
		endloop
	endfacet
	facet normal 0 0.4275548950049314 0.9039893869716182
		outer loop
			vertex 7.5 -10.336582779884331 25.837020032947024
			vertex 7.5 -9.893016338348382 25.627228849475344
			vertex -41.5 -9.893016338348382 25.627228849475344
		endloop
	endfacet
	facet normal 0 0.5141028390402569 0.85772855315114
		outer loop
			vertex -41.5 -9.893016338348382 25.627228849475344
			vertex 7.5 -9.893016338348382 25.627228849475344
			vertex -41.5 -9.472148895263665 25.374970548694094
		endloop
	endfacet
	facet normal 0 0.5141028390402569 0.85772855315114
		outer loop
			vertex 7.5 -9.893016338348382 25.627228849475344
			vertex 7.5 -9.472148895263665 25.374970548694094
			vertex -41.5 -9.472148895263665 25.374970548694094
		endloop
	endfacet
	facet normal 0 0.5956995310208508 0.803207363475671
		outer loop
			vertex -41.5 -9.472148895263665 25.374970548694094
			vertex 7.5 -9.472148895263665 25.374970548694094
			vertex -41.5 -9.078033685684197 25.08267461592432
		endloop
	endfacet
	facet normal 0 0.5956995310208508 0.803207363475671
		outer loop
			vertex 7.5 -9.472148895263665 25.374970548694094
			vertex 7.5 -9.078033685684197 25.08267461592432
			vertex -41.5 -9.078033685684197 25.08267461592432
		endloop
	endfacet
	facet normal 0 0.6715587999782867 0.7409512657197663
		outer loop
			vertex -41.5 -9.078033685684197 25.08267461592432
			vertex 7.5 -9.078033685684197 25.08267461592432
			vertex -41.5 -8.714466094970696 24.75315629774805
		endloop
	endfacet
	facet normal 0 0.6715587999782867 0.7409512657197663
		outer loop
			vertex 7.5 -9.078033685684197 25.08267461592432
			vertex 7.5 -8.714466094970696 24.75315629774805
			vertex -41.5 -8.714466094970696 24.75315629774805
		endloop
	endfacet
	facet normal 0 0.7409512657197663 0.6715587999782867
		outer loop
			vertex -41.5 -8.714466094970696 24.75315629774805
			vertex 7.5 -8.714466094970696 24.75315629774805
			vertex -41.5 -8.384947776794426 24.389588707034548
		endloop
	endfacet
	facet normal 0 0.7409512657197663 0.6715587999782867
		outer loop
			vertex 7.5 -8.714466094970696 24.75315629774805
			vertex 7.5 -8.384947776794426 24.389588707034548
			vertex -41.5 -8.384947776794426 24.389588707034548
		endloop
	endfacet
	facet normal 0 0.803207363475671 0.5956995310208508
		outer loop
			vertex -41.5 -8.384947776794426 24.389588707034548
			vertex 7.5 -8.384947776794426 24.389588707034548
			vertex -41.5 -8.092651844024651 23.99547349745508
		endloop
	endfacet
	facet normal 0 0.803207363475671 0.5956995310208508
		outer loop
			vertex 7.5 -8.384947776794426 24.389588707034548
			vertex 7.5 -8.092651844024651 23.99547349745508
			vertex -41.5 -8.092651844024651 23.99547349745508
		endloop
	endfacet
	facet normal 0 0.85772855315114 0.5141028390402569
		outer loop
			vertex -41.5 -8.092651844024651 23.99547349745508
			vertex 7.5 -8.092651844024651 23.99547349745508
			vertex -41.5 -7.840393543243401 23.574606054370363
		endloop
	endfacet
	facet normal 0 0.85772855315114 0.5141028390402569
		outer loop
			vertex 7.5 -8.092651844024651 23.99547349745508
			vertex 7.5 -7.840393543243401 23.574606054370363
			vertex -41.5 -7.840393543243401 23.574606054370363
		endloop
	endfacet
	facet normal 0 0.9039893869716182 0.4275548950049314
		outer loop
			vertex -41.5 -7.840393543243401 23.574606054370363
			vertex 7.5 -7.840393543243401 23.574606054370363
			vertex -41.5 -7.630602359771721 23.131039612834414
		endloop
	endfacet
	facet normal 0 0.9039893869716182 0.4275548950049314
		outer loop
			vertex 7.5 -7.840393543243401 23.574606054370363
			vertex 7.5 -7.630602359771721 23.131039612834414
			vertex -41.5 -7.630602359771721 23.131039612834414
		endloop
	endfacet
	facet normal 0 0.9415439654539728 0.33689013211610713
		outer loop
			vertex -41.5 -7.630602359771721 23.131039612834414
			vertex 7.5 -7.630602359771721 23.131039612834414
			vertex -41.5 -7.4652981758117605 22.669045799319704
		endloop
	endfacet
	facet normal 0 0.9415439654539728 0.33689013211610713
		outer loop
			vertex 7.5 -7.630602359771721 23.131039612834414
			vertex 7.5 -7.4652981758117605 22.669045799319704
			vertex -41.5 -7.4652981758117605 22.669045799319704
		endloop
	endfacet
	facet normal 0 0.9700313422906006 0.24297982421159145
		outer loop
			vertex -41.5 -7.4652981758117605 22.669045799319704
			vertex 7.5 -7.4652981758117605 22.669045799319704
			vertex -41.5 -7.346073627471917 22.19307398134943
		endloop
	endfacet
	facet normal 0 0.9700313422906006 0.24297982421159145
		outer loop
			vertex 7.5 -7.4652981758117605 22.669045799319704
			vertex 7.5 -7.346073627471917 22.19307398134943
			vertex -41.5 -7.346073627471917 22.19307398134943
		endloop
	endfacet
	facet normal 0 0.9891765289051243 0.146730346769883
		outer loop
			vertex -41.5 -7.346073627471917 22.19307398134943
			vertex 7.5 -7.346073627471917 22.19307398134943
			vertex -41.5 -7.274076461791985 21.70770808393236
		endloop
	endfacet
	facet normal 0 0.9891765289051243 0.146730346769883
		outer loop
			vertex 7.5 -7.346073627471917 22.19307398134943
			vertex 7.5 -7.274076461791985 21.70770808393236
			vertex -41.5 -7.274076461791985 21.70770808393236
		endloop
	endfacet
	facet normal 0 0.9987954466501192 0.049067868824609465
		outer loop
			vertex -41.5 -7.274076461791985 21.70770808393236
			vertex 7.5 -7.274076461791985 21.70770808393236
			vertex -41.5 -7.249999999999993 21.217622392718752
		endloop
	endfacet
	facet normal 0 0.9987954466501192 0.049067868824609465
		outer loop
			vertex 7.5 -7.274076461791985 21.70770808393236
			vertex 7.5 -7.249999999999993 21.217622392718752
			vertex -41.5 -7.249999999999993 21.217622392718752
		endloop
	endfacet
	facet normal 0 0.9987954466501192 -0.049067868824609465
		outer loop
			vertex -41.5 -7.249999999999993 21.217622392718752
			vertex 7.5 -7.249999999999993 21.217622392718752
			vertex -41.5 -7.274076461791985 20.727536701505144
		endloop
	endfacet
	facet normal 0 0.9987954466501192 -0.049067868824609465
		outer loop
			vertex 7.5 -7.249999999999993 21.217622392718752
			vertex 7.5 -7.274076461791985 20.727536701505144
			vertex -41.5 -7.274076461791985 20.727536701505144
		endloop
	endfacet
	facet normal 0 0.9891765289051243 -0.146730346769883
		outer loop
			vertex -41.5 -7.274076461791985 20.727536701505144
			vertex 7.5 -7.274076461791985 20.727536701505144
			vertex -41.5 -7.346073627471917 20.242170804088076
		endloop
	endfacet
	facet normal 0 0.9891765289051243 -0.146730346769883
		outer loop
			vertex 7.5 -7.274076461791985 20.727536701505144
			vertex 7.5 -7.346073627471917 20.242170804088076
			vertex -41.5 -7.346073627471917 20.242170804088076
		endloop
	endfacet
	facet normal 0 0.9700313422906006 -0.24297982421159145
		outer loop
			vertex -41.5 -7.346073627471917 20.242170804088076
			vertex 7.5 -7.346073627471917 20.242170804088076
			vertex -41.5 -7.4652981758117605 19.7661989861178
		endloop
	endfacet
	facet normal 0 0.9700313422906006 -0.24297982421159145
		outer loop
			vertex 7.5 -7.346073627471917 20.242170804088076
			vertex 7.5 -7.4652981758117605 19.7661989861178
			vertex -41.5 -7.4652981758117605 19.7661989861178
		endloop
	endfacet
	facet normal 0 0.9415439654539728 -0.33689013211610713
		outer loop
			vertex -41.5 -7.4652981758117605 19.7661989861178
			vertex 7.5 -7.4652981758117605 19.7661989861178
			vertex -41.5 -7.630602359771721 19.30420517260309
		endloop
	endfacet
	facet normal 0 0.9415439654539728 -0.33689013211610713
		outer loop
			vertex 7.5 -7.4652981758117605 19.7661989861178
			vertex 7.5 -7.630602359771721 19.30420517260309
			vertex -41.5 -7.630602359771721 19.30420517260309
		endloop
	endfacet
	facet normal 0 0.9039893869716182 -0.4275548950049314
		outer loop
			vertex -41.5 -7.630602359771721 19.30420517260309
			vertex 7.5 -7.630602359771721 19.30420517260309
			vertex -41.5 -7.840393543243401 18.86063873106714
		endloop
	endfacet
	facet normal 0 0.9039893869716182 -0.4275548950049314
		outer loop
			vertex 7.5 -7.630602359771721 19.30420517260309
			vertex 7.5 -7.840393543243401 18.86063873106714
			vertex -41.5 -7.840393543243401 18.86063873106714
		endloop
	endfacet
	facet normal 0 0.85772855315114 -0.5141028390402569
		outer loop
			vertex -41.5 -7.840393543243401 18.86063873106714
			vertex 7.5 -7.840393543243401 18.86063873106714
			vertex -41.5 -8.092651844024651 18.439771287982424
		endloop
	endfacet
	facet normal 0 0.85772855315114 -0.5141028390402569
		outer loop
			vertex 7.5 -7.840393543243401 18.86063873106714
			vertex 7.5 -8.092651844024651 18.439771287982424
			vertex -41.5 -8.092651844024651 18.439771287982424
		endloop
	endfacet
	facet normal 0 0.803207363475671 -0.5956995310208508
		outer loop
			vertex -41.5 -8.092651844024651 18.439771287982424
			vertex 7.5 -8.092651844024651 18.439771287982424
			vertex -41.5 -8.384947776794426 18.045656078402956
		endloop
	endfacet
	facet normal 0 0.803207363475671 -0.5956995310208508
		outer loop
			vertex 7.5 -8.092651844024651 18.439771287982424
			vertex 7.5 -8.384947776794426 18.045656078402956
			vertex -41.5 -8.384947776794426 18.045656078402956
		endloop
	endfacet
	facet normal 0 0.7409512657197663 -0.6715587999782867
		outer loop
			vertex -41.5 -8.384947776794426 18.045656078402956
			vertex 7.5 -8.384947776794426 18.045656078402956
			vertex -41.5 -8.714466094970696 17.682088487689455
		endloop
	endfacet
	facet normal 0 0.7409512657197663 -0.6715587999782867
		outer loop
			vertex 7.5 -8.384947776794426 18.045656078402956
			vertex 7.5 -8.714466094970696 17.682088487689455
			vertex -41.5 -8.714466094970696 17.682088487689455
		endloop
	endfacet
	facet normal 0 0.6715587999782867 -0.7409512657197663
		outer loop
			vertex -41.5 -8.714466094970696 17.682088487689455
			vertex 7.5 -8.714466094970696 17.682088487689455
			vertex -41.5 -9.078033685684197 17.352570169513186
		endloop
	endfacet
	facet normal 0 0.6715587999782867 -0.7409512657197663
		outer loop
			vertex 7.5 -8.714466094970696 17.682088487689455
			vertex 7.5 -9.078033685684197 17.352570169513186
			vertex -41.5 -9.078033685684197 17.352570169513186
		endloop
	endfacet
	facet normal 0 0.5956995310208508 -0.803207363475671
		outer loop
			vertex -41.5 -9.078033685684197 17.352570169513186
			vertex 7.5 -9.078033685684197 17.352570169513186
			vertex -41.5 -9.472148895263665 17.06027423674341
		endloop
	endfacet
	facet normal 0 0.5956995310208508 -0.803207363475671
		outer loop
			vertex 7.5 -9.078033685684197 17.352570169513186
			vertex 7.5 -9.472148895263665 17.06027423674341
			vertex -41.5 -9.472148895263665 17.06027423674341
		endloop
	endfacet
	facet normal 0 0.5141028390402569 -0.85772855315114
		outer loop
			vertex -41.5 -9.472148895263665 17.06027423674341
			vertex 7.5 -9.472148895263665 17.06027423674341
			vertex -41.5 -9.893016338348382 16.80801593596216
		endloop
	endfacet
	facet normal 0 0.5141028390402569 -0.85772855315114
		outer loop
			vertex 7.5 -9.472148895263665 17.06027423674341
			vertex 7.5 -9.893016338348382 16.80801593596216
			vertex -41.5 -9.893016338348382 16.80801593596216
		endloop
	endfacet
	facet normal 0 0.4275548950049314 -0.9039893869716182
		outer loop
			vertex -41.5 -9.893016338348382 16.80801593596216
			vertex 7.5 -9.893016338348382 16.80801593596216
			vertex -41.5 -10.336582779884331 16.59822475249048
		endloop
	endfacet
	facet normal 0 0.4275548950049314 -0.9039893869716182
		outer loop
			vertex 7.5 -9.893016338348382 16.80801593596216
			vertex 7.5 -10.336582779884331 16.59822475249048
			vertex -41.5 -10.336582779884331 16.59822475249048
		endloop
	endfacet
	facet normal 0 0.33689013211610713 -0.9415439654539728
		outer loop
			vertex -41.5 -10.336582779884331 16.59822475249048
			vertex 7.5 -10.336582779884331 16.59822475249048
			vertex -41.5 -10.79857659339904 16.43292056853052
		endloop
	endfacet
	facet normal 0 0.33689013211610713 -0.9415439654539728
		outer loop
			vertex 7.5 -10.336582779884331 16.59822475249048
			vertex 7.5 -10.79857659339904 16.43292056853052
			vertex -41.5 -10.79857659339904 16.43292056853052
		endloop
	endfacet
	facet normal 0 0.24297982421159145 -0.9700313422906006
		outer loop
			vertex -41.5 -10.79857659339904 16.43292056853052
			vertex 7.5 -10.79857659339904 16.43292056853052
			vertex -41.5 -11.274548411369317 16.313696020190676
		endloop
	endfacet
	facet normal 0 0.24297982421159145 -0.9700313422906006
		outer loop
			vertex 7.5 -10.79857659339904 16.43292056853052
			vertex 7.5 -11.274548411369317 16.313696020190676
			vertex -41.5 -11.274548411369317 16.313696020190676
		endloop
	endfacet
	facet normal 0 0.146730346769883 -0.9891765289051243
		outer loop
			vertex -41.5 -11.274548411369317 16.313696020190676
			vertex 7.5 -11.274548411369317 16.313696020190676
			vertex -41.5 -11.759914308786385 16.241698854510744
		endloop
	endfacet
	facet normal 0 0.146730346769883 -0.9891765289051243
		outer loop
			vertex 7.5 -11.274548411369317 16.313696020190676
			vertex 7.5 -11.759914308786385 16.241698854510744
			vertex -41.5 -11.759914308786385 16.241698854510744
		endloop
	endfacet
	facet normal 0 0.04906786882460963 -0.9987954466501191
		outer loop
			vertex -41.5 -11.759914308786385 16.241698854510744
			vertex 7.5 -11.759914308786385 16.241698854510744
			vertex -41.5 -12.249999999999991 16.217622392718752
		endloop
	endfacet
	facet normal 1.778817232273252e-18 0.049067868824609465 -0.9987954466501192
		outer loop
			vertex 7.5 -11.759914308786385 16.241698854510744
			vertex 7.5 -12.249999999999993 16.217622392718752
			vertex -41.5 -12.249999999999991 16.217622392718752
		endloop
	endfacet
	facet normal -1.778817232273246e-18 -0.0490678688246093 -0.9987954466501192
		outer loop
			vertex -41.5 -12.249999999999991 16.217622392718752
			vertex 7.5 -12.249999999999993 16.217622392718752
			vertex -41.5 -12.7400856912136 16.241698854510744
		endloop
	endfacet
	facet normal 0 -0.049067868824609465 -0.9987954466501192
		outer loop
			vertex 7.5 -12.249999999999993 16.217622392718752
			vertex 7.5 -12.7400856912136 16.241698854510744
			vertex -41.5 -12.7400856912136 16.241698854510744
		endloop
	endfacet
	facet normal 0 -0.146730346769883 -0.9891765289051243
		outer loop
			vertex -41.5 -12.7400856912136 16.241698854510744
			vertex 7.5 -12.7400856912136 16.241698854510744
			vertex -41.5 -13.22545158863067 16.313696020190676
		endloop
	endfacet
	facet normal 0 -0.146730346769883 -0.9891765289051243
		outer loop
			vertex 7.5 -12.7400856912136 16.241698854510744
			vertex 7.5 -13.22545158863067 16.313696020190676
			vertex -41.5 -13.22545158863067 16.313696020190676
		endloop
	endfacet
	facet normal 0 -0.24297982421159145 -0.9700313422906006
		outer loop
			vertex -41.5 -13.22545158863067 16.313696020190676
			vertex 7.5 -13.22545158863067 16.313696020190676
			vertex -41.5 -13.701423406600945 16.43292056853052
		endloop
	endfacet
	facet normal 0 -0.24297982421159145 -0.9700313422906006
		outer loop
			vertex 7.5 -13.22545158863067 16.313696020190676
			vertex 7.5 -13.701423406600945 16.43292056853052
			vertex -41.5 -13.701423406600945 16.43292056853052
		endloop
	endfacet
	facet normal 0 -0.33689013211610713 -0.9415439654539728
		outer loop
			vertex -41.5 -13.701423406600945 16.43292056853052
			vertex 7.5 -13.701423406600945 16.43292056853052
			vertex -41.5 -14.163417220115655 16.59822475249048
		endloop
	endfacet
	facet normal 0 -0.33689013211610713 -0.9415439654539728
		outer loop
			vertex 7.5 -13.701423406600945 16.43292056853052
			vertex 7.5 -14.163417220115655 16.59822475249048
			vertex -41.5 -14.163417220115655 16.59822475249048
		endloop
	endfacet
	facet normal 0 -0.4275548950049314 -0.9039893869716182
		outer loop
			vertex -41.5 -14.163417220115655 16.59822475249048
			vertex 7.5 -14.163417220115655 16.59822475249048
			vertex -41.5 -14.606983661651604 16.80801593596216
		endloop
	endfacet
	facet normal 0 -0.4275548950049314 -0.9039893869716182
		outer loop
			vertex 7.5 -14.163417220115655 16.59822475249048
			vertex 7.5 -14.606983661651604 16.80801593596216
			vertex -41.5 -14.606983661651604 16.80801593596216
		endloop
	endfacet
	facet normal 0 -0.5141028390402569 -0.85772855315114
		outer loop
			vertex -41.5 -14.606983661651604 16.80801593596216
			vertex 7.5 -14.606983661651604 16.80801593596216
			vertex -41.5 -15.027851104736321 17.06027423674341
		endloop
	endfacet
	facet normal 0 -0.5141028390402569 -0.85772855315114
		outer loop
			vertex 7.5 -14.606983661651604 16.80801593596216
			vertex 7.5 -15.027851104736321 17.06027423674341
			vertex -41.5 -15.027851104736321 17.06027423674341
		endloop
	endfacet
	facet normal 0 -0.5956995310208508 -0.803207363475671
		outer loop
			vertex -41.5 -15.027851104736321 17.06027423674341
			vertex 7.5 -15.027851104736321 17.06027423674341
			vertex -41.5 -15.421966314315789 17.352570169513186
		endloop
	endfacet
	facet normal 0 -0.5956995310208508 -0.803207363475671
		outer loop
			vertex 7.5 -15.027851104736321 17.06027423674341
			vertex 7.5 -15.421966314315789 17.352570169513186
			vertex -41.5 -15.421966314315789 17.352570169513186
		endloop
	endfacet
	facet normal 0 -0.6715587999782867 -0.7409512657197663
		outer loop
			vertex -41.5 -15.421966314315789 17.352570169513186
			vertex 7.5 -15.421966314315789 17.352570169513186
			vertex -41.5 -15.78553390502929 17.682088487689455
		endloop
	endfacet
	facet normal 0 -0.6715587999782867 -0.7409512657197663
		outer loop
			vertex 7.5 -15.421966314315789 17.352570169513186
			vertex 7.5 -15.78553390502929 17.682088487689455
			vertex -41.5 -15.78553390502929 17.682088487689455
		endloop
	endfacet
	facet normal 0 -0.7409512657197663 -0.6715587999782867
		outer loop
			vertex -41.5 -15.78553390502929 17.682088487689455
			vertex 7.5 -15.78553390502929 17.682088487689455
			vertex -41.5 -16.11505222320556 18.045656078402956
		endloop
	endfacet
	facet normal 0 -0.7409512657197663 -0.6715587999782867
		outer loop
			vertex 7.5 -15.78553390502929 17.682088487689455
			vertex 7.5 -16.11505222320556 18.045656078402956
			vertex -41.5 -16.11505222320556 18.045656078402956
		endloop
	endfacet
	facet normal 0 -0.803207363475671 -0.5956995310208508
		outer loop
			vertex -41.5 -16.11505222320556 18.045656078402956
			vertex 7.5 -16.11505222320556 18.045656078402956
			vertex -41.5 -16.407348155975335 18.439771287982424
		endloop
	endfacet
	facet normal 0 -0.803207363475671 -0.5956995310208508
		outer loop
			vertex 7.5 -16.11505222320556 18.045656078402956
			vertex 7.5 -16.407348155975335 18.439771287982424
			vertex -41.5 -16.407348155975335 18.439771287982424
		endloop
	endfacet
	facet normal 0 -0.85772855315114 -0.5141028390402569
		outer loop
			vertex -41.5 -16.407348155975335 18.439771287982424
			vertex 7.5 -16.407348155975335 18.439771287982424
			vertex -41.5 -16.659606456756585 18.86063873106714
		endloop
	endfacet
	facet normal 0 -0.85772855315114 -0.5141028390402569
		outer loop
			vertex 7.5 -16.407348155975335 18.439771287982424
			vertex 7.5 -16.659606456756585 18.86063873106714
			vertex -41.5 -16.659606456756585 18.86063873106714
		endloop
	endfacet
	facet normal 0 -0.9039893869716182 -0.4275548950049314
		outer loop
			vertex -41.5 -16.659606456756585 18.86063873106714
			vertex 7.5 -16.659606456756585 18.86063873106714
			vertex -41.5 -16.869397640228264 19.30420517260309
		endloop
	endfacet
	facet normal 0 -0.9039893869716182 -0.4275548950049314
		outer loop
			vertex 7.5 -16.659606456756585 18.86063873106714
			vertex 7.5 -16.869397640228264 19.30420517260309
			vertex -41.5 -16.869397640228264 19.30420517260309
		endloop
	endfacet
	facet normal 0 -0.9415439654539728 -0.33689013211610713
		outer loop
			vertex -41.5 -16.869397640228264 19.30420517260309
			vertex 7.5 -16.869397640228264 19.30420517260309
			vertex -41.5 -17.034701824188225 19.7661989861178
		endloop
	endfacet
	facet normal 0 -0.9415439654539728 -0.33689013211610713
		outer loop
			vertex 7.5 -16.869397640228264 19.30420517260309
			vertex 7.5 -17.034701824188225 19.7661989861178
			vertex -41.5 -17.034701824188225 19.7661989861178
		endloop
	endfacet
	facet normal 0 -0.9700313422906006 -0.24297982421159145
		outer loop
			vertex -41.5 -17.034701824188225 19.7661989861178
			vertex 7.5 -17.034701824188225 19.7661989861178
			vertex -41.5 -17.15392637252807 20.242170804088076
		endloop
	endfacet
	facet normal 0 -0.9700313422906006 -0.24297982421159145
		outer loop
			vertex 7.5 -17.034701824188225 19.7661989861178
			vertex 7.5 -17.15392637252807 20.242170804088076
			vertex -41.5 -17.15392637252807 20.242170804088076
		endloop
	endfacet
	facet normal 0 -0.9891765289051243 -0.146730346769883
		outer loop
			vertex -41.5 -17.15392637252807 20.242170804088076
			vertex 7.5 -17.15392637252807 20.242170804088076
			vertex -41.5 -17.225923538208 20.727536701505144
		endloop
	endfacet
	facet normal 0 -0.9891765289051243 -0.146730346769883
		outer loop
			vertex 7.5 -17.15392637252807 20.242170804088076
			vertex 7.5 -17.225923538208 20.727536701505144
			vertex -41.5 -17.225923538208 20.727536701505144
		endloop
	endfacet
	facet normal 0 -0.9987954466501192 -0.049067868824609465
		outer loop
			vertex -41.5 -17.225923538208 20.727536701505144
			vertex 7.5 -17.225923538208 20.727536701505144
			vertex -41.5 -17.249999999999993 21.217622392718752
		endloop
	endfacet
	facet normal 0 -0.9987954466501192 -0.049067868824609465
		outer loop
			vertex 7.5 -17.225923538208 20.727536701505144
			vertex 7.5 -17.249999999999993 21.217622392718752
			vertex -41.5 -17.249999999999993 21.217622392718752
		endloop
	endfacet
	facet normal 0 -0.9987954466501192 0.049067868824609465
		outer loop
			vertex -41.5 -17.249999999999993 21.217622392718752
			vertex 7.5 -17.249999999999993 21.217622392718752
			vertex -41.5 -17.225923538208 21.70770808393236
		endloop
	endfacet
	facet normal 0 -0.9987954466501192 0.049067868824609465
		outer loop
			vertex 7.5 -17.249999999999993 21.217622392718752
			vertex 7.5 -17.225923538208 21.70770808393236
			vertex -41.5 -17.225923538208 21.70770808393236
		endloop
	endfacet
	facet normal 0 -0.9891765289051243 0.146730346769883
		outer loop
			vertex -41.5 -17.225923538208 21.70770808393236
			vertex 7.5 -17.225923538208 21.70770808393236
			vertex -41.5 -17.15392637252807 22.19307398134943
		endloop
	endfacet
	facet normal 0 -0.9891765289051243 0.146730346769883
		outer loop
			vertex 7.5 -17.225923538208 21.70770808393236
			vertex 7.5 -17.15392637252807 22.19307398134943
			vertex -41.5 -17.15392637252807 22.19307398134943
		endloop
	endfacet
	facet normal 0 -0.9700313422906006 0.24297982421159145
		outer loop
			vertex -41.5 -17.15392637252807 22.19307398134943
			vertex 7.5 -17.15392637252807 22.19307398134943
			vertex -41.5 -17.034701824188225 22.669045799319704
		endloop
	endfacet
	facet normal 0 -0.9700313422906006 0.24297982421159145
		outer loop
			vertex 7.5 -17.15392637252807 22.19307398134943
			vertex 7.5 -17.034701824188225 22.669045799319704
			vertex -41.5 -17.034701824188225 22.669045799319704
		endloop
	endfacet
	facet normal 0 -0.9415439654539728 0.33689013211610713
		outer loop
			vertex -41.5 -17.034701824188225 22.669045799319704
			vertex 7.5 -17.034701824188225 22.669045799319704
			vertex -41.5 -16.869397640228264 23.131039612834414
		endloop
	endfacet
	facet normal 0 -0.9415439654539728 0.33689013211610713
		outer loop
			vertex 7.5 -17.034701824188225 22.669045799319704
			vertex 7.5 -16.869397640228264 23.131039612834414
			vertex -41.5 -16.869397640228264 23.131039612834414
		endloop
	endfacet
	facet normal 0 -0.9039893869716182 0.4275548950049314
		outer loop
			vertex -41.5 -16.869397640228264 23.131039612834414
			vertex 7.5 -16.869397640228264 23.131039612834414
			vertex -41.5 -16.659606456756585 23.574606054370363
		endloop
	endfacet
	facet normal 0 -0.9039893869716182 0.4275548950049314
		outer loop
			vertex 7.5 -16.869397640228264 23.131039612834414
			vertex 7.5 -16.659606456756585 23.574606054370363
			vertex -41.5 -16.659606456756585 23.574606054370363
		endloop
	endfacet
	facet normal 0 -0.85772855315114 0.5141028390402569
		outer loop
			vertex -41.5 -16.659606456756585 23.574606054370363
			vertex 7.5 -16.659606456756585 23.574606054370363
			vertex -41.5 -16.407348155975335 23.99547349745508
		endloop
	endfacet
	facet normal 0 -0.85772855315114 0.5141028390402569
		outer loop
			vertex 7.5 -16.659606456756585 23.574606054370363
			vertex 7.5 -16.407348155975335 23.99547349745508
			vertex -41.5 -16.407348155975335 23.99547349745508
		endloop
	endfacet
	facet normal 0 -0.803207363475671 0.5956995310208508
		outer loop
			vertex -41.5 -16.407348155975335 23.99547349745508
			vertex 7.5 -16.407348155975335 23.99547349745508
			vertex -41.5 -16.11505222320556 24.389588707034548
		endloop
	endfacet
	facet normal 0 -0.803207363475671 0.5956995310208508
		outer loop
			vertex 7.5 -16.407348155975335 23.99547349745508
			vertex 7.5 -16.11505222320556 24.389588707034548
			vertex -41.5 -16.11505222320556 24.389588707034548
		endloop
	endfacet
	facet normal 0 -0.7409512657197663 0.6715587999782867
		outer loop
			vertex -41.5 -16.11505222320556 24.389588707034548
			vertex 7.5 -16.11505222320556 24.389588707034548
			vertex -41.5 -15.78553390502929 24.75315629774805
		endloop
	endfacet
	facet normal 0 -0.7409512657197663 0.6715587999782867
		outer loop
			vertex 7.5 -16.11505222320556 24.389588707034548
			vertex 7.5 -15.78553390502929 24.75315629774805
			vertex -41.5 -15.78553390502929 24.75315629774805
		endloop
	endfacet
	facet normal 0 -0.6715587999782867 0.7409512657197663
		outer loop
			vertex -41.5 -15.78553390502929 24.75315629774805
			vertex 7.5 -15.78553390502929 24.75315629774805
			vertex -41.5 -15.421966314315789 25.08267461592432
		endloop
	endfacet
	facet normal 0 -0.6715587999782867 0.7409512657197663
		outer loop
			vertex 7.5 -15.78553390502929 24.75315629774805
			vertex 7.5 -15.421966314315789 25.08267461592432
			vertex -41.5 -15.421966314315789 25.08267461592432
		endloop
	endfacet
	facet normal 0 -0.5956995310208508 0.803207363475671
		outer loop
			vertex -41.5 -15.421966314315789 25.08267461592432
			vertex 7.5 -15.421966314315789 25.08267461592432
			vertex -41.5 -15.027851104736321 25.374970548694094
		endloop
	endfacet
	facet normal 0 -0.5956995310208508 0.803207363475671
		outer loop
			vertex 7.5 -15.421966314315789 25.08267461592432
			vertex 7.5 -15.027851104736321 25.374970548694094
			vertex -41.5 -15.027851104736321 25.374970548694094
		endloop
	endfacet
	facet normal 0 -0.5141028390402569 0.85772855315114
		outer loop
			vertex -41.5 -15.027851104736321 25.374970548694094
			vertex 7.5 -15.027851104736321 25.374970548694094
			vertex -41.5 -14.606983661651604 25.627228849475344
		endloop
	endfacet
	facet normal 0 -0.5141028390402569 0.85772855315114
		outer loop
			vertex 7.5 -15.027851104736321 25.374970548694094
			vertex 7.5 -14.606983661651604 25.627228849475344
			vertex -41.5 -14.606983661651604 25.627228849475344
		endloop
	endfacet
	facet normal 0 -0.4275548950049314 0.9039893869716182
		outer loop
			vertex -41.5 -14.606983661651604 25.627228849475344
			vertex 7.5 -14.606983661651604 25.627228849475344
			vertex -41.5 -14.163417220115655 25.837020032947024
		endloop
	endfacet
	facet normal 0 -0.4275548950049314 0.9039893869716182
		outer loop
			vertex 7.5 -14.606983661651604 25.627228849475344
			vertex 7.5 -14.163417220115655 25.837020032947024
			vertex -41.5 -14.163417220115655 25.837020032947024
		endloop
	endfacet
	facet normal 0 -0.33689013211610713 0.9415439654539728
		outer loop
			vertex -41.5 -14.163417220115655 25.837020032947024
			vertex 7.5 -14.163417220115655 25.837020032947024
			vertex -41.5 -13.701423406600945 26.002324216906985
		endloop
	endfacet
	facet normal 0 -0.33689013211610713 0.9415439654539728
		outer loop
			vertex 7.5 -14.163417220115655 25.837020032947024
			vertex 7.5 -13.701423406600945 26.002324216906985
			vertex -41.5 -13.701423406600945 26.002324216906985
		endloop
	endfacet
	facet normal 0 -0.24297982421159145 0.9700313422906006
		outer loop
			vertex -41.5 -13.701423406600945 26.002324216906985
			vertex 7.5 -13.701423406600945 26.002324216906985
			vertex -41.5 -13.22545158863067 26.12154876524683
		endloop
	endfacet
	facet normal 0 -0.24297982421159145 0.9700313422906006
		outer loop
			vertex 7.5 -13.701423406600945 26.002324216906985
			vertex 7.5 -13.22545158863067 26.12154876524683
			vertex -41.5 -13.22545158863067 26.12154876524683
		endloop
	endfacet
	facet normal 0 -0.146730346769883 0.9891765289051243
		outer loop
			vertex -41.5 -13.22545158863067 26.12154876524683
			vertex 7.5 -13.22545158863067 26.12154876524683
			vertex -41.5 -12.7400856912136 26.19354593092676
		endloop
	endfacet
	facet normal 0 -0.146730346769883 0.9891765289051243
		outer loop
			vertex 7.5 -13.22545158863067 26.12154876524683
			vertex 7.5 -12.7400856912136 26.19354593092676
			vertex -41.5 -12.7400856912136 26.19354593092676
		endloop
	endfacet
	facet normal 0 -0.049067868824609465 0.9987954466501192
		outer loop
			vertex -41.5 -12.7400856912136 26.19354593092676
			vertex 7.5 -12.7400856912136 26.19354593092676
			vertex -41.5 -12.249999999999993 26.217622392718752
		endloop
	endfacet
	facet normal -3.55763446454653e-18 -0.04906786882460981 0.9987954466501191
		outer loop
			vertex 7.5 -12.7400856912136 26.19354593092676
			vertex 7.5 -12.249999999999996 26.217622392718752
			vertex -41.5 -12.249999999999993 26.217622392718752
		endloop
	endfacet
	facet normal -1 0 0
		outer loop
			vertex -41.5 -12.249999999999991 26.217622392718752
			vertex -41.5 -11.759914308786385 26.19354593092676
			vertex -41.5 -12.249999999999991 21.217622392718752
		endloop
	endfacet
	facet normal -1 0 0
		outer loop
			vertex -41.5 -11.759914308786385 26.19354593092676
			vertex -41.5 -11.274548411369317 26.12154876524683
			vertex -41.5 -12.249999999999991 21.217622392718752
		endloop
	endfacet
	facet normal -1 0 0
		outer loop
			vertex -41.5 -11.274548411369317 26.12154876524683
			vertex -41.5 -10.79857659339904 26.002324216906985
			vertex -41.5 -12.249999999999991 21.217622392718752
		endloop
	endfacet
	facet normal -1 0 0
		outer loop
			vertex -41.5 -10.79857659339904 26.002324216906985
			vertex -41.5 -10.336582779884331 25.837020032947024
			vertex -41.5 -12.249999999999991 21.217622392718752
		endloop
	endfacet
	facet normal -1 0 0
		outer loop
			vertex -41.5 -10.336582779884331 25.837020032947024
			vertex -41.5 -9.893016338348382 25.627228849475344
			vertex -41.5 -12.249999999999991 21.217622392718752
		endloop
	endfacet
	facet normal -1 0 0
		outer loop
			vertex -41.5 -9.893016338348382 25.627228849475344
			vertex -41.5 -9.472148895263665 25.374970548694094
			vertex -41.5 -12.249999999999991 21.217622392718752
		endloop
	endfacet
	facet normal -1 0 0
		outer loop
			vertex -41.5 -9.472148895263665 25.374970548694094
			vertex -41.5 -9.078033685684197 25.08267461592432
			vertex -41.5 -12.249999999999991 21.217622392718752
		endloop
	endfacet
	facet normal -1 0 0
		outer loop
			vertex -41.5 -9.078033685684197 25.08267461592432
			vertex -41.5 -8.714466094970696 24.75315629774805
			vertex -41.5 -12.249999999999991 21.217622392718752
		endloop
	endfacet
	facet normal -1 0 0
		outer loop
			vertex -41.5 -8.714466094970696 24.75315629774805
			vertex -41.5 -8.384947776794426 24.389588707034548
			vertex -41.5 -12.249999999999991 21.217622392718752
		endloop
	endfacet
	facet normal -1 0 0
		outer loop
			vertex -41.5 -8.384947776794426 24.389588707034548
			vertex -41.5 -8.092651844024651 23.99547349745508
			vertex -41.5 -12.249999999999991 21.217622392718752
		endloop
	endfacet
	facet normal -1 0 0
		outer loop
			vertex -41.5 -8.092651844024651 23.99547349745508
			vertex -41.5 -7.840393543243401 23.574606054370363
			vertex -41.5 -12.249999999999991 21.217622392718752
		endloop
	endfacet
	facet normal -1 0 0
		outer loop
			vertex -41.5 -7.840393543243401 23.574606054370363
			vertex -41.5 -7.630602359771721 23.131039612834414
			vertex -41.5 -12.249999999999991 21.217622392718752
		endloop
	endfacet
	facet normal -1 0 0
		outer loop
			vertex -41.5 -7.630602359771721 23.131039612834414
			vertex -41.5 -7.4652981758117605 22.669045799319704
			vertex -41.5 -12.249999999999991 21.217622392718752
		endloop
	endfacet
	facet normal -1 0 0
		outer loop
			vertex -41.5 -7.4652981758117605 22.669045799319704
			vertex -41.5 -7.346073627471917 22.19307398134943
			vertex -41.5 -12.249999999999991 21.217622392718752
		endloop
	endfacet
	facet normal -1 0 0
		outer loop
			vertex -41.5 -7.346073627471917 22.19307398134943
			vertex -41.5 -7.274076461791985 21.70770808393236
			vertex -41.5 -12.249999999999991 21.217622392718752
		endloop
	endfacet
	facet normal -1 0 0
		outer loop
			vertex -41.5 -7.274076461791985 21.70770808393236
			vertex -41.5 -7.249999999999993 21.217622392718752
			vertex -41.5 -12.249999999999991 21.217622392718752
		endloop
	endfacet
	facet normal -1 0 0
		outer loop
			vertex -41.5 -7.249999999999993 21.217622392718752
			vertex -41.5 -7.274076461791985 20.727536701505144
			vertex -41.5 -12.249999999999991 21.217622392718752
		endloop
	endfacet
	facet normal -1 0 0
		outer loop
			vertex -41.5 -7.274076461791985 20.727536701505144
			vertex -41.5 -7.346073627471917 20.242170804088076
			vertex -41.5 -12.249999999999991 21.217622392718752
		endloop
	endfacet
	facet normal -1 0 0
		outer loop
			vertex -41.5 -7.346073627471917 20.242170804088076
			vertex -41.5 -7.4652981758117605 19.7661989861178
			vertex -41.5 -12.249999999999991 21.217622392718752
		endloop
	endfacet
	facet normal -1 0 0
		outer loop
			vertex -41.5 -7.4652981758117605 19.7661989861178
			vertex -41.5 -7.630602359771721 19.30420517260309
			vertex -41.5 -12.249999999999991 21.217622392718752
		endloop
	endfacet
	facet normal -1 0 0
		outer loop
			vertex -41.5 -7.630602359771721 19.30420517260309
			vertex -41.5 -7.840393543243401 18.86063873106714
			vertex -41.5 -12.249999999999991 21.217622392718752
		endloop
	endfacet
	facet normal -1 0 0
		outer loop
			vertex -41.5 -7.840393543243401 18.86063873106714
			vertex -41.5 -8.092651844024651 18.439771287982424
			vertex -41.5 -12.249999999999991 21.217622392718752
		endloop
	endfacet
	facet normal -1 0 0
		outer loop
			vertex -41.5 -8.092651844024651 18.439771287982424
			vertex -41.5 -8.384947776794426 18.045656078402956
			vertex -41.5 -12.249999999999991 21.217622392718752
		endloop
	endfacet
	facet normal -1 0 0
		outer loop
			vertex -41.5 -8.384947776794426 18.045656078402956
			vertex -41.5 -8.714466094970696 17.682088487689455
			vertex -41.5 -12.249999999999991 21.217622392718752
		endloop
	endfacet
	facet normal -1 0 0
		outer loop
			vertex -41.5 -8.714466094970696 17.682088487689455
			vertex -41.5 -9.078033685684197 17.352570169513186
			vertex -41.5 -12.249999999999991 21.217622392718752
		endloop
	endfacet
	facet normal -1 0 0
		outer loop
			vertex -41.5 -9.078033685684197 17.352570169513186
			vertex -41.5 -9.472148895263665 17.06027423674341
			vertex -41.5 -12.249999999999991 21.217622392718752
		endloop
	endfacet
	facet normal -1 0 0
		outer loop
			vertex -41.5 -9.472148895263665 17.06027423674341
			vertex -41.5 -9.893016338348382 16.80801593596216
			vertex -41.5 -12.249999999999991 21.217622392718752
		endloop
	endfacet
	facet normal -1 0 0
		outer loop
			vertex -41.5 -9.893016338348382 16.80801593596216
			vertex -41.5 -10.336582779884331 16.59822475249048
			vertex -41.5 -12.249999999999991 21.217622392718752
		endloop
	endfacet
	facet normal -1 0 0
		outer loop
			vertex -41.5 -10.336582779884331 16.59822475249048
			vertex -41.5 -10.79857659339904 16.43292056853052
			vertex -41.5 -12.249999999999991 21.217622392718752
		endloop
	endfacet
	facet normal -1 0 0
		outer loop
			vertex -41.5 -10.79857659339904 16.43292056853052
			vertex -41.5 -11.274548411369317 16.313696020190676
			vertex -41.5 -12.249999999999991 21.217622392718752
		endloop
	endfacet
	facet normal -1 0 0
		outer loop
			vertex -41.5 -11.274548411369317 16.313696020190676
			vertex -41.5 -11.759914308786385 16.241698854510744
			vertex -41.5 -12.249999999999991 21.217622392718752
		endloop
	endfacet
	facet normal -1 0 0
		outer loop
			vertex -41.5 -11.759914308786385 16.241698854510744
			vertex -41.5 -12.249999999999991 16.217622392718752
			vertex -41.5 -12.249999999999991 21.217622392718752
		endloop
	endfacet
	facet normal -1 0 0
		outer loop
			vertex -41.5 -12.249999999999991 16.217622392718752
			vertex -41.5 -12.7400856912136 16.241698854510744
			vertex -41.5 -12.249999999999991 21.217622392718752
		endloop
	endfacet
	facet normal -1 0 0
		outer loop
			vertex -41.5 -12.7400856912136 16.241698854510744
			vertex -41.5 -13.22545158863067 16.313696020190676
			vertex -41.5 -12.249999999999991 21.217622392718752
		endloop
	endfacet
	facet normal -1 0 0
		outer loop
			vertex -41.5 -13.22545158863067 16.313696020190676
			vertex -41.5 -13.701423406600945 16.43292056853052
			vertex -41.5 -12.249999999999991 21.217622392718752
		endloop
	endfacet
	facet normal -1 0 0
		outer loop
			vertex -41.5 -13.701423406600945 16.43292056853052
			vertex -41.5 -14.163417220115655 16.59822475249048
			vertex -41.5 -12.249999999999991 21.217622392718752
		endloop
	endfacet
	facet normal -1 0 0
		outer loop
			vertex -41.5 -14.163417220115655 16.59822475249048
			vertex -41.5 -14.606983661651604 16.80801593596216
			vertex -41.5 -12.249999999999991 21.217622392718752
		endloop
	endfacet
	facet normal -1 0 0
		outer loop
			vertex -41.5 -14.606983661651604 16.80801593596216
			vertex -41.5 -15.027851104736321 17.06027423674341
			vertex -41.5 -12.249999999999991 21.217622392718752
		endloop
	endfacet
	facet normal -1 0 0
		outer loop
			vertex -41.5 -15.027851104736321 17.06027423674341
			vertex -41.5 -15.421966314315789 17.352570169513186
			vertex -41.5 -12.249999999999991 21.217622392718752
		endloop
	endfacet
	facet normal -1 0 0
		outer loop
			vertex -41.5 -15.421966314315789 17.352570169513186
			vertex -41.5 -15.78553390502929 17.682088487689455
			vertex -41.5 -12.249999999999991 21.217622392718752
		endloop
	endfacet
	facet normal -1 0 0
		outer loop
			vertex -41.5 -15.78553390502929 17.682088487689455
			vertex -41.5 -16.11505222320556 18.045656078402956
			vertex -41.5 -12.249999999999991 21.217622392718752
		endloop
	endfacet
	facet normal -1 0 0
		outer loop
			vertex -41.5 -16.11505222320556 18.045656078402956
			vertex -41.5 -16.407348155975335 18.439771287982424
			vertex -41.5 -12.249999999999991 21.217622392718752
		endloop
	endfacet
	facet normal -1 0 0
		outer loop
			vertex -41.5 -16.407348155975335 18.439771287982424
			vertex -41.5 -16.659606456756585 18.86063873106714
			vertex -41.5 -12.249999999999991 21.217622392718752
		endloop
	endfacet
	facet normal -1 0 0
		outer loop
			vertex -41.5 -16.659606456756585 18.86063873106714
			vertex -41.5 -16.869397640228264 19.30420517260309
			vertex -41.5 -12.249999999999991 21.217622392718752
		endloop
	endfacet
	facet normal -1 0 0
		outer loop
			vertex -41.5 -16.869397640228264 19.30420517260309
			vertex -41.5 -17.034701824188225 19.7661989861178
			vertex -41.5 -12.249999999999991 21.217622392718752
		endloop
	endfacet
	facet normal -1 0 0
		outer loop
			vertex -41.5 -17.034701824188225 19.7661989861178
			vertex -41.5 -17.15392637252807 20.242170804088076
			vertex -41.5 -12.249999999999991 21.217622392718752
		endloop
	endfacet
	facet normal -1 0 0
		outer loop
			vertex -41.5 -17.15392637252807 20.242170804088076
			vertex -41.5 -17.225923538208 20.727536701505144
			vertex -41.5 -12.249999999999991 21.217622392718752
		endloop
	endfacet
	facet normal -1 0 0
		outer loop
			vertex -41.5 -17.225923538208 20.727536701505144
			vertex -41.5 -17.249999999999993 21.217622392718752
			vertex -41.5 -12.249999999999991 21.217622392718752
		endloop
	endfacet
	facet normal -1 0 0
		outer loop
			vertex -41.5 -17.249999999999993 21.217622392718752
			vertex -41.5 -17.225923538208 21.70770808393236
			vertex -41.5 -12.249999999999991 21.217622392718752
		endloop
	endfacet
	facet normal -1 0 0
		outer loop
			vertex -41.5 -17.225923538208 21.70770808393236
			vertex -41.5 -17.15392637252807 22.19307398134943
			vertex -41.5 -12.249999999999991 21.217622392718752
		endloop
	endfacet
	facet normal -1 0 0
		outer loop
			vertex -41.5 -17.15392637252807 22.19307398134943
			vertex -41.5 -17.034701824188225 22.669045799319704
			vertex -41.5 -12.249999999999991 21.217622392718752
		endloop
	endfacet
	facet normal -1 0 0
		outer loop
			vertex -41.5 -17.034701824188225 22.669045799319704
			vertex -41.5 -16.869397640228264 23.131039612834414
			vertex -41.5 -12.249999999999991 21.217622392718752
		endloop
	endfacet
	facet normal -1 0 0
		outer loop
			vertex -41.5 -16.869397640228264 23.131039612834414
			vertex -41.5 -16.659606456756585 23.574606054370363
			vertex -41.5 -12.249999999999991 21.217622392718752
		endloop
	endfacet
	facet normal -1 0 0
		outer loop
			vertex -41.5 -16.659606456756585 23.574606054370363
			vertex -41.5 -16.407348155975335 23.99547349745508
			vertex -41.5 -12.249999999999991 21.217622392718752
		endloop
	endfacet
	facet normal -1 0 0
		outer loop
			vertex -41.5 -16.407348155975335 23.99547349745508
			vertex -41.5 -16.11505222320556 24.389588707034548
			vertex -41.5 -12.249999999999991 21.217622392718752
		endloop
	endfacet
	facet normal -1 0 0
		outer loop
			vertex -41.5 -16.11505222320556 24.389588707034548
			vertex -41.5 -15.78553390502929 24.75315629774805
			vertex -41.5 -12.249999999999991 21.217622392718752
		endloop
	endfacet
	facet normal -1 0 0
		outer loop
			vertex -41.5 -15.78553390502929 24.75315629774805
			vertex -41.5 -15.421966314315789 25.08267461592432
			vertex -41.5 -12.249999999999991 21.217622392718752
		endloop
	endfacet
	facet normal -1 0 0
		outer loop
			vertex -41.5 -15.421966314315789 25.08267461592432
			vertex -41.5 -15.027851104736321 25.374970548694094
			vertex -41.5 -12.249999999999991 21.217622392718752
		endloop
	endfacet
	facet normal -1 0 0
		outer loop
			vertex -41.5 -15.027851104736321 25.374970548694094
			vertex -41.5 -14.606983661651604 25.627228849475344
			vertex -41.5 -12.249999999999991 21.217622392718752
		endloop
	endfacet
	facet normal -1 0 0
		outer loop
			vertex -41.5 -14.606983661651604 25.627228849475344
			vertex -41.5 -14.163417220115655 25.837020032947024
			vertex -41.5 -12.249999999999991 21.217622392718752
		endloop
	endfacet
	facet normal -1 0 0
		outer loop
			vertex -41.5 -14.163417220115655 25.837020032947024
			vertex -41.5 -13.701423406600945 26.002324216906985
			vertex -41.5 -12.249999999999991 21.217622392718752
		endloop
	endfacet
	facet normal -1 0 0
		outer loop
			vertex -41.5 -13.701423406600945 26.002324216906985
			vertex -41.5 -13.22545158863067 26.12154876524683
			vertex -41.5 -12.249999999999991 21.217622392718752
		endloop
	endfacet
	facet normal -1 0 0
		outer loop
			vertex -41.5 -13.22545158863067 26.12154876524683
			vertex -41.5 -12.7400856912136 26.19354593092676
			vertex -41.5 -12.249999999999991 21.217622392718752
		endloop
	endfacet
	facet normal -1 0 0
		outer loop
			vertex -41.5 -12.7400856912136 26.19354593092676
			vertex -41.5 -12.249999999999993 26.217622392718752
			vertex -41.5 -12.249999999999991 21.217622392718752
		endloop
	endfacet
	facet normal 1 0 0
		outer loop
			vertex 7.5 -11.759914308786385 26.19354593092676
			vertex 7.5 -12.249999999999995 26.217622392718752
			vertex 7.5 -12.249999999999995 21.217622392718752
		endloop
	endfacet
	facet normal 1 0 0
		outer loop
			vertex 7.5 -11.274548411369317 26.12154876524683
			vertex 7.5 -11.759914308786385 26.19354593092676
			vertex 7.5 -12.249999999999995 21.217622392718752
		endloop
	endfacet
	facet normal 1 0 0
		outer loop
			vertex 7.5 -10.79857659339904 26.002324216906985
			vertex 7.5 -11.274548411369317 26.12154876524683
			vertex 7.5 -12.249999999999995 21.217622392718752
		endloop
	endfacet
	facet normal 1 0 0
		outer loop
			vertex 7.5 -10.336582779884331 25.837020032947024
			vertex 7.5 -10.79857659339904 26.002324216906985
			vertex 7.5 -12.249999999999995 21.217622392718752
		endloop
	endfacet
	facet normal 1 0 0
		outer loop
			vertex 7.5 -9.893016338348382 25.627228849475344
			vertex 7.5 -10.336582779884331 25.837020032947024
			vertex 7.5 -12.249999999999995 21.217622392718752
		endloop
	endfacet
	facet normal 1 0 0
		outer loop
			vertex 7.5 -9.472148895263665 25.374970548694094
			vertex 7.5 -9.893016338348382 25.627228849475344
			vertex 7.5 -12.249999999999995 21.217622392718752
		endloop
	endfacet
	facet normal 1 0 0
		outer loop
			vertex 7.5 -9.078033685684197 25.08267461592432
			vertex 7.5 -9.472148895263665 25.374970548694094
			vertex 7.5 -12.249999999999995 21.217622392718752
		endloop
	endfacet
	facet normal 1 0 0
		outer loop
			vertex 7.5 -8.714466094970696 24.75315629774805
			vertex 7.5 -9.078033685684197 25.08267461592432
			vertex 7.5 -12.249999999999995 21.217622392718752
		endloop
	endfacet
	facet normal 1 0 0
		outer loop
			vertex 7.5 -8.384947776794426 24.389588707034548
			vertex 7.5 -8.714466094970696 24.75315629774805
			vertex 7.5 -12.249999999999995 21.217622392718752
		endloop
	endfacet
	facet normal 1 0 0
		outer loop
			vertex 7.5 -8.092651844024651 23.99547349745508
			vertex 7.5 -8.384947776794426 24.389588707034548
			vertex 7.5 -12.249999999999995 21.217622392718752
		endloop
	endfacet
	facet normal 1 0 0
		outer loop
			vertex 7.5 -7.840393543243401 23.574606054370363
			vertex 7.5 -8.092651844024651 23.99547349745508
			vertex 7.5 -12.249999999999995 21.217622392718752
		endloop
	endfacet
	facet normal 1 0 0
		outer loop
			vertex 7.5 -7.630602359771721 23.131039612834414
			vertex 7.5 -7.840393543243401 23.574606054370363
			vertex 7.5 -12.249999999999995 21.217622392718752
		endloop
	endfacet
	facet normal 1 0 0
		outer loop
			vertex 7.5 -7.4652981758117605 22.669045799319704
			vertex 7.5 -7.630602359771721 23.131039612834414
			vertex 7.5 -12.249999999999995 21.217622392718752
		endloop
	endfacet
	facet normal 1 0 0
		outer loop
			vertex 7.5 -7.346073627471917 22.19307398134943
			vertex 7.5 -7.4652981758117605 22.669045799319704
			vertex 7.5 -12.249999999999995 21.217622392718752
		endloop
	endfacet
	facet normal 1 0 0
		outer loop
			vertex 7.5 -7.274076461791985 21.70770808393236
			vertex 7.5 -7.346073627471917 22.19307398134943
			vertex 7.5 -12.249999999999995 21.217622392718752
		endloop
	endfacet
	facet normal 1 0 0
		outer loop
			vertex 7.5 -7.249999999999993 21.217622392718752
			vertex 7.5 -7.274076461791985 21.70770808393236
			vertex 7.5 -12.249999999999995 21.217622392718752
		endloop
	endfacet
	facet normal 1 0 0
		outer loop
			vertex 7.5 -7.274076461791985 20.727536701505144
			vertex 7.5 -7.249999999999993 21.217622392718752
			vertex 7.5 -12.249999999999995 21.217622392718752
		endloop
	endfacet
	facet normal 1 0 0
		outer loop
			vertex 7.5 -7.346073627471917 20.242170804088076
			vertex 7.5 -7.274076461791985 20.727536701505144
			vertex 7.5 -12.249999999999995 21.217622392718752
		endloop
	endfacet
	facet normal 1 0 0
		outer loop
			vertex 7.5 -7.4652981758117605 19.7661989861178
			vertex 7.5 -7.346073627471917 20.242170804088076
			vertex 7.5 -12.249999999999995 21.217622392718752
		endloop
	endfacet
	facet normal 1 0 0
		outer loop
			vertex 7.5 -7.630602359771721 19.30420517260309
			vertex 7.5 -7.4652981758117605 19.7661989861178
			vertex 7.5 -12.249999999999995 21.217622392718752
		endloop
	endfacet
	facet normal 1 0 0
		outer loop
			vertex 7.5 -7.840393543243401 18.86063873106714
			vertex 7.5 -7.630602359771721 19.30420517260309
			vertex 7.5 -12.249999999999995 21.217622392718752
		endloop
	endfacet
	facet normal 1 0 0
		outer loop
			vertex 7.5 -8.092651844024651 18.439771287982424
			vertex 7.5 -7.840393543243401 18.86063873106714
			vertex 7.5 -12.249999999999995 21.217622392718752
		endloop
	endfacet
	facet normal 1 0 0
		outer loop
			vertex 7.5 -8.384947776794426 18.045656078402956
			vertex 7.5 -8.092651844024651 18.439771287982424
			vertex 7.5 -12.249999999999995 21.217622392718752
		endloop
	endfacet
	facet normal 1 0 0
		outer loop
			vertex 7.5 -8.714466094970696 17.682088487689455
			vertex 7.5 -8.384947776794426 18.045656078402956
			vertex 7.5 -12.249999999999995 21.217622392718752
		endloop
	endfacet
	facet normal 1 0 0
		outer loop
			vertex 7.5 -9.078033685684197 17.352570169513186
			vertex 7.5 -8.714466094970696 17.682088487689455
			vertex 7.5 -12.249999999999995 21.217622392718752
		endloop
	endfacet
	facet normal 1 0 0
		outer loop
			vertex 7.5 -9.472148895263665 17.06027423674341
			vertex 7.5 -9.078033685684197 17.352570169513186
			vertex 7.5 -12.249999999999995 21.217622392718752
		endloop
	endfacet
	facet normal 1 0 0
		outer loop
			vertex 7.5 -9.893016338348382 16.80801593596216
			vertex 7.5 -9.472148895263665 17.06027423674341
			vertex 7.5 -12.249999999999995 21.217622392718752
		endloop
	endfacet
	facet normal 1 0 0
		outer loop
			vertex 7.5 -10.336582779884331 16.59822475249048
			vertex 7.5 -9.893016338348382 16.80801593596216
			vertex 7.5 -12.249999999999995 21.217622392718752
		endloop
	endfacet
	facet normal 1 0 0
		outer loop
			vertex 7.5 -10.79857659339904 16.43292056853052
			vertex 7.5 -10.336582779884331 16.59822475249048
			vertex 7.5 -12.249999999999995 21.217622392718752
		endloop
	endfacet
	facet normal 1 0 0
		outer loop
			vertex 7.5 -11.274548411369317 16.313696020190676
			vertex 7.5 -10.79857659339904 16.43292056853052
			vertex 7.5 -12.249999999999995 21.217622392718752
		endloop
	endfacet
	facet normal 1 0 0
		outer loop
			vertex 7.5 -11.759914308786385 16.241698854510744
			vertex 7.5 -11.274548411369317 16.313696020190676
			vertex 7.5 -12.249999999999995 21.217622392718752
		endloop
	endfacet
	facet normal 1 0 0
		outer loop
			vertex 7.5 -12.249999999999993 16.217622392718752
			vertex 7.5 -11.759914308786385 16.241698854510744
			vertex 7.5 -12.249999999999995 21.217622392718752
		endloop
	endfacet
	facet normal 1 0 0
		outer loop
			vertex 7.5 -12.7400856912136 16.241698854510744
			vertex 7.5 -12.249999999999993 16.217622392718752
			vertex 7.5 -12.249999999999995 21.217622392718752
		endloop
	endfacet
	facet normal 1 0 0
		outer loop
			vertex 7.5 -13.22545158863067 16.313696020190676
			vertex 7.5 -12.7400856912136 16.241698854510744
			vertex 7.5 -12.249999999999995 21.217622392718752
		endloop
	endfacet
	facet normal 1 0 0
		outer loop
			vertex 7.5 -13.701423406600945 16.43292056853052
			vertex 7.5 -13.22545158863067 16.313696020190676
			vertex 7.5 -12.249999999999995 21.217622392718752
		endloop
	endfacet
	facet normal 1 0 0
		outer loop
			vertex 7.5 -14.163417220115655 16.59822475249048
			vertex 7.5 -13.701423406600945 16.43292056853052
			vertex 7.5 -12.249999999999995 21.217622392718752
		endloop
	endfacet
	facet normal 1 0 0
		outer loop
			vertex 7.5 -14.606983661651604 16.80801593596216
			vertex 7.5 -14.163417220115655 16.59822475249048
			vertex 7.5 -12.249999999999995 21.217622392718752
		endloop
	endfacet
	facet normal 1 0 0
		outer loop
			vertex 7.5 -15.027851104736321 17.06027423674341
			vertex 7.5 -14.606983661651604 16.80801593596216
			vertex 7.5 -12.249999999999995 21.217622392718752
		endloop
	endfacet
	facet normal 1 0 0
		outer loop
			vertex 7.5 -15.421966314315789 17.352570169513186
			vertex 7.5 -15.027851104736321 17.06027423674341
			vertex 7.5 -12.249999999999995 21.217622392718752
		endloop
	endfacet
	facet normal 1 0 0
		outer loop
			vertex 7.5 -15.78553390502929 17.682088487689455
			vertex 7.5 -15.421966314315789 17.352570169513186
			vertex 7.5 -12.249999999999995 21.217622392718752
		endloop
	endfacet
	facet normal 1 0 0
		outer loop
			vertex 7.5 -16.11505222320556 18.045656078402956
			vertex 7.5 -15.78553390502929 17.682088487689455
			vertex 7.5 -12.249999999999995 21.217622392718752
		endloop
	endfacet
	facet normal 1 0 0
		outer loop
			vertex 7.5 -16.407348155975335 18.439771287982424
			vertex 7.5 -16.11505222320556 18.045656078402956
			vertex 7.5 -12.249999999999995 21.217622392718752
		endloop
	endfacet
	facet normal 1 0 0
		outer loop
			vertex 7.5 -16.659606456756585 18.86063873106714
			vertex 7.5 -16.407348155975335 18.439771287982424
			vertex 7.5 -12.249999999999995 21.217622392718752
		endloop
	endfacet
	facet normal 1 0 0
		outer loop
			vertex 7.5 -16.869397640228264 19.30420517260309
			vertex 7.5 -16.659606456756585 18.86063873106714
			vertex 7.5 -12.249999999999995 21.217622392718752
		endloop
	endfacet
	facet normal 1 0 0
		outer loop
			vertex 7.5 -17.034701824188225 19.7661989861178
			vertex 7.5 -16.869397640228264 19.30420517260309
			vertex 7.5 -12.249999999999995 21.217622392718752
		endloop
	endfacet
	facet normal 1 0 0
		outer loop
			vertex 7.5 -17.15392637252807 20.242170804088076
			vertex 7.5 -17.034701824188225 19.7661989861178
			vertex 7.5 -12.249999999999995 21.217622392718752
		endloop
	endfacet
	facet normal 1 0 0
		outer loop
			vertex 7.5 -17.225923538208 20.727536701505144
			vertex 7.5 -17.15392637252807 20.242170804088076
			vertex 7.5 -12.249999999999995 21.217622392718752
		endloop
	endfacet
	facet normal 1 0 0
		outer loop
			vertex 7.5 -17.249999999999993 21.217622392718752
			vertex 7.5 -17.225923538208 20.727536701505144
			vertex 7.5 -12.249999999999995 21.217622392718752
		endloop
	endfacet
	facet normal 1 0 0
		outer loop
			vertex 7.5 -17.225923538208 21.70770808393236
			vertex 7.5 -17.249999999999993 21.217622392718752
			vertex 7.5 -12.249999999999995 21.217622392718752
		endloop
	endfacet
	facet normal 1 0 0
		outer loop
			vertex 7.5 -17.15392637252807 22.19307398134943
			vertex 7.5 -17.225923538208 21.70770808393236
			vertex 7.5 -12.249999999999995 21.217622392718752
		endloop
	endfacet
	facet normal 1 0 0
		outer loop
			vertex 7.5 -17.034701824188225 22.669045799319704
			vertex 7.5 -17.15392637252807 22.19307398134943
			vertex 7.5 -12.249999999999995 21.217622392718752
		endloop
	endfacet
	facet normal 1 0 0
		outer loop
			vertex 7.5 -16.869397640228264 23.131039612834414
			vertex 7.5 -17.034701824188225 22.669045799319704
			vertex 7.5 -12.249999999999995 21.217622392718752
		endloop
	endfacet
	facet normal 1 0 0
		outer loop
			vertex 7.5 -16.659606456756585 23.574606054370363
			vertex 7.5 -16.869397640228264 23.131039612834414
			vertex 7.5 -12.249999999999995 21.217622392718752
		endloop
	endfacet
	facet normal 1 0 0
		outer loop
			vertex 7.5 -16.407348155975335 23.99547349745508
			vertex 7.5 -16.659606456756585 23.574606054370363
			vertex 7.5 -12.249999999999995 21.217622392718752
		endloop
	endfacet
	facet normal 1 0 0
		outer loop
			vertex 7.5 -16.11505222320556 24.389588707034548
			vertex 7.5 -16.407348155975335 23.99547349745508
			vertex 7.5 -12.249999999999995 21.217622392718752
		endloop
	endfacet
	facet normal 1 0 0
		outer loop
			vertex 7.5 -15.78553390502929 24.75315629774805
			vertex 7.5 -16.11505222320556 24.389588707034548
			vertex 7.5 -12.249999999999995 21.217622392718752
		endloop
	endfacet
	facet normal 1 0 0
		outer loop
			vertex 7.5 -15.421966314315789 25.08267461592432
			vertex 7.5 -15.78553390502929 24.75315629774805
			vertex 7.5 -12.249999999999995 21.217622392718752
		endloop
	endfacet
	facet normal 1 0 0
		outer loop
			vertex 7.5 -15.027851104736321 25.374970548694094
			vertex 7.5 -15.421966314315789 25.08267461592432
			vertex 7.5 -12.249999999999995 21.217622392718752
		endloop
	endfacet
	facet normal 1 0 0
		outer loop
			vertex 7.5 -14.606983661651604 25.627228849475344
			vertex 7.5 -15.027851104736321 25.374970548694094
			vertex 7.5 -12.249999999999995 21.217622392718752
		endloop
	endfacet
	facet normal 1 0 0
		outer loop
			vertex 7.5 -14.163417220115655 25.837020032947024
			vertex 7.5 -14.606983661651604 25.627228849475344
			vertex 7.5 -12.249999999999995 21.217622392718752
		endloop
	endfacet
	facet normal 1 0 0
		outer loop
			vertex 7.5 -13.701423406600945 26.002324216906985
			vertex 7.5 -14.163417220115655 25.837020032947024
			vertex 7.5 -12.249999999999995 21.217622392718752
		endloop
	endfacet
	facet normal 1 0 0
		outer loop
			vertex 7.5 -13.22545158863067 26.12154876524683
			vertex 7.5 -13.701423406600945 26.002324216906985
			vertex 7.5 -12.249999999999995 21.217622392718752
		endloop
	endfacet
	facet normal 1 0 0
		outer loop
			vertex 7.5 -12.7400856912136 26.19354593092676
			vertex 7.5 -13.22545158863067 26.12154876524683
			vertex 7.5 -12.249999999999995 21.217622392718752
		endloop
	endfacet
	facet normal 1 0 0
		outer loop
			vertex 7.5 -12.249999999999996 26.217622392718752
			vertex 7.5 -12.7400856912136 26.19354593092676
			vertex 7.5 -12.249999999999995 21.217622392718752
		endloop
	endfacet
endsolid exported
