solid exported
	facet normal 2.670939580813009e-18 0.04361975342050595 0.9990482055994767
		outer loop
			vertex -42.5 1.5001923348598265e-15 5.5
			vertex 6.5 -1.5001923348598265e-15 5.5
			vertex -42.5 0.479356586933136 5.479070663452148
		endloop
	endfacet
	facet normal 0 0.043619753420505676 0.9990482055994767
		outer loop
			vertex 6.5 -1.5001923348598265e-15 5.5
			vertex 6.5 0.479356586933136 5.479070663452148
			vertex -42.5 0.479356586933136 5.479070663452148
		endloop
	endfacet
	facet normal 0 0.13052536851429908 0.991444969816382
		outer loop
			vertex -42.5 0.479356586933136 5.479070663452148
			vertex 6.5 0.479356586933136 5.479070663452148
			vertex -42.5 0.9550649523735046 5.41644287109375
		endloop
	endfacet
	facet normal 0 0.13052536851429908 0.991444969816382
		outer loop
			vertex 6.5 0.479356586933136 5.479070663452148
			vertex 6.5 0.9550649523735046 5.41644287109375
			vertex -42.5 0.9550649523735046 5.41644287109375
		endloop
	endfacet
	facet normal 0 0.21644010548585077 0.9762958981462916
		outer loop
			vertex -42.5 0.9550649523735046 5.41644287109375
			vertex 6.5 0.9550649523735046 5.41644287109375
			vertex -42.5 1.4235047101974487 5.312592029571533
		endloop
	endfacet
	facet normal 0 0.21644010548585077 0.9762958981462916
		outer loop
			vertex 6.5 0.9550649523735046 5.41644287109375
			vertex 6.5 1.4235047101974487 5.312592029571533
			vertex -42.5 1.4235047101974487 5.312592029571533
		endloop
	endfacet
	facet normal 0 0.30070613298895216 0.9537168456008475
		outer loop
			vertex -42.5 1.4235047101974487 5.312592029571533
			vertex 6.5 1.4235047101974487 5.312592029571533
			vertex -42.5 1.8811107873916626 5.168309211730957
		endloop
	endfacet
	facet normal 0 0.30070613298895216 0.9537168456008475
		outer loop
			vertex 6.5 1.4235047101974487 5.312592029571533
			vertex 6.5 1.8811107873916626 5.168309211730957
			vertex -42.5 1.8811107873916626 5.168309211730957
		endloop
	endfacet
	facet normal 0 0.3826826877183007 0.9238798409537344
		outer loop
			vertex -42.5 1.8811107873916626 5.168309211730957
			vertex 6.5 1.8811107873916626 5.168309211730957
			vertex -42.5 2.3244004249572754 4.9846930503845215
		endloop
	endfacet
	facet normal 0 0.3826826877183007 0.9238798409537344
		outer loop
			vertex 6.5 1.8811107873916626 5.168309211730957
			vertex 6.5 2.3244004249572754 4.9846930503845215
			vertex -42.5 2.3244004249572754 4.9846930503845215
		endloop
	endfacet
	facet normal 0 0.4617489578461896 0.8870106537849238
		outer loop
			vertex -42.5 2.3244004249572754 4.9846930503845215
			vertex 6.5 2.3244004249572754 4.9846930503845215
			vertex -42.5 2.75 4.763139724731445
		endloop
	endfacet
	facet normal 0 0.4617489578461896 0.8870106537849238
		outer loop
			vertex 6.5 2.3244004249572754 4.9846930503845215
			vertex 6.5 2.75 4.763139724731445
			vertex -42.5 2.75 4.763139724731445
		endloop
	endfacet
	facet normal 0 0.5372994805958732 0.8433915271992037
		outer loop
			vertex -42.5 2.75 4.763139724731445
			vertex 6.5 2.75 4.763139724731445
			vertex -42.5 3.154670476913452 4.505336284637451
		endloop
	endfacet
	facet normal 0 0.5372994805958732 0.8433915271992037
		outer loop
			vertex 6.5 2.75 4.763139724731445
			vertex 6.5 3.154670476913452 4.505336284637451
			vertex -42.5 3.154670476913452 4.505336284637451
		endloop
	endfacet
	facet normal 0 0.608761447061719 0.7933533264386822
		outer loop
			vertex -42.5 3.154670476913452 4.505336284637451
			vertex 6.5 3.154670476913452 4.505336284637451
			vertex -42.5 3.535331964492798 4.213244438171387
		endloop
	endfacet
	facet normal 0 0.608761447061719 0.7933533264386822
		outer loop
			vertex 6.5 3.154670476913452 4.505336284637451
			vertex 6.5 3.535331964492798 4.213244438171387
			vertex -42.5 3.535331964492798 4.213244438171387
		endloop
	endfacet
	facet normal 0 0.6755905334230788 0.7372770382624974
		outer loop
			vertex -42.5 3.535331964492798 4.213244438171387
			vertex 6.5 3.535331964492798 4.213244438171387
			vertex -42.5 3.889087200164795 3.889087200164795
		endloop
	endfacet
	facet normal 0 0.6755905334230788 0.7372770382624974
		outer loop
			vertex 6.5 3.535331964492798 4.213244438171387
			vertex 6.5 3.889087200164795 3.889087200164795
			vertex -42.5 3.889087200164795 3.889087200164795
		endloop
	endfacet
	facet normal 0 0.7372770382624974 0.6755905334230788
		outer loop
			vertex -42.5 3.889087200164795 3.889087200164795
			vertex 6.5 3.889087200164795 3.889087200164795
			vertex -42.5 4.213244438171387 3.535331964492798
		endloop
	endfacet
	facet normal 0 0.7372770382624974 0.6755905334230788
		outer loop
			vertex 6.5 3.889087200164795 3.889087200164795
			vertex 6.5 4.213244438171387 3.535331964492798
			vertex -42.5 4.213244438171387 3.535331964492798
		endloop
	endfacet
	facet normal 0 0.7933533264386822 0.608761447061719
		outer loop
			vertex -42.5 4.213244438171387 3.535331964492798
			vertex 6.5 4.213244438171387 3.535331964492798
			vertex -42.5 4.505336284637451 3.154670476913452
		endloop
	endfacet
	facet normal 0 0.7933533264386822 0.608761447061719
		outer loop
			vertex 6.5 4.213244438171387 3.535331964492798
			vertex 6.5 4.505336284637451 3.154670476913452
			vertex -42.5 4.505336284637451 3.154670476913452
		endloop
	endfacet
	facet normal 0 0.8433915271992037 0.5372994805958732
		outer loop
			vertex -42.5 4.505336284637451 3.154670476913452
			vertex 6.5 4.505336284637451 3.154670476913452
			vertex -42.5 4.763139724731445 2.75
		endloop
	endfacet
	facet normal 0 0.8433915271992037 0.5372994805958732
		outer loop
			vertex 6.5 4.505336284637451 3.154670476913452
			vertex 6.5 4.763139724731445 2.75
			vertex -42.5 4.763139724731445 2.75
		endloop
	endfacet
	facet normal 0 0.8870106537849238 0.4617489578461896
		outer loop
			vertex -42.5 4.763139724731445 2.75
			vertex 6.5 4.763139724731445 2.75
			vertex -42.5 4.9846930503845215 2.3244004249572754
		endloop
	endfacet
	facet normal 0 0.8870106537849238 0.4617489578461896
		outer loop
			vertex 6.5 4.763139724731445 2.75
			vertex 6.5 4.9846930503845215 2.3244004249572754
			vertex -42.5 4.9846930503845215 2.3244004249572754
		endloop
	endfacet
	facet normal 0 0.9238798409537344 0.3826826877183007
		outer loop
			vertex -42.5 4.9846930503845215 2.3244004249572754
			vertex 6.5 4.9846930503845215 2.3244004249572754
			vertex -42.5 5.168309211730957 1.8811107873916626
		endloop
	endfacet
	facet normal 0 0.9238798409537344 0.3826826877183007
		outer loop
			vertex 6.5 4.9846930503845215 2.3244004249572754
			vertex 6.5 5.168309211730957 1.8811107873916626
			vertex -42.5 5.168309211730957 1.8811107873916626
		endloop
	endfacet
	facet normal 0 0.9537168456008475 0.30070613298895216
		outer loop
			vertex -42.5 5.168309211730957 1.8811107873916626
			vertex 6.5 5.168309211730957 1.8811107873916626
			vertex -42.5 5.312592029571533 1.4235047101974487
		endloop
	endfacet
	facet normal 0 0.9537168456008475 0.30070613298895216
		outer loop
			vertex 6.5 5.168309211730957 1.8811107873916626
			vertex 6.5 5.312592029571533 1.4235047101974487
			vertex -42.5 5.312592029571533 1.4235047101974487
		endloop
	endfacet
	facet normal 0 0.9762958981462916 0.21644010548585077
		outer loop
			vertex -42.5 5.312592029571533 1.4235047101974487
			vertex 6.5 5.312592029571533 1.4235047101974487
			vertex -42.5 5.41644287109375 0.9550649523735046
		endloop
	endfacet
	facet normal 0 0.9762958981462916 0.21644010548585077
		outer loop
			vertex 6.5 5.312592029571533 1.4235047101974487
			vertex 6.5 5.41644287109375 0.9550649523735046
			vertex -42.5 5.41644287109375 0.9550649523735046
		endloop
	endfacet
	facet normal 0 0.991444969816382 0.13052536851429908
		outer loop
			vertex -42.5 5.41644287109375 0.9550649523735046
			vertex 6.5 5.41644287109375 0.9550649523735046
			vertex -42.5 5.479070663452148 0.479356586933136
		endloop
	endfacet
	facet normal 0 0.991444969816382 0.13052536851429908
		outer loop
			vertex 6.5 5.41644287109375 0.9550649523735046
			vertex 6.5 5.479070663452148 0.479356586933136
			vertex -42.5 5.479070663452148 0.479356586933136
		endloop
	endfacet
	facet normal 0 0.9990482055994767 0.04361975342050584
		outer loop
			vertex -42.5 5.479070663452148 0.479356586933136
			vertex 6.5 5.479070663452148 0.479356586933136
			vertex -42.5 5.5 3.3677786460858646e-16
		endloop
	endfacet
	facet normal 0 0.9990482055994767 0.04361975342050584
		outer loop
			vertex 6.5 5.479070663452148 0.479356586933136
			vertex 6.5 5.5 3.3677786460858646e-16
			vertex -42.5 5.5 3.3677786460858646e-16
		endloop
	endfacet
	facet normal 0 0.9990482055994768 -0.04361975342050578
		outer loop
			vertex -42.5 5.5 3.3677786460858646e-16
			vertex 6.5 5.5 3.3677786460858646e-16
			vertex -42.5 5.479070663452148 -0.479356586933136
		endloop
	endfacet
	facet normal 0 0.9990482055994768 -0.04361975342050578
		outer loop
			vertex 6.5 5.5 3.3677786460858646e-16
			vertex 6.5 5.479070663452148 -0.479356586933136
			vertex -42.5 5.479070663452148 -0.479356586933136
		endloop
	endfacet
	facet normal 0 0.991444969816382 -0.13052536851429908
		outer loop
			vertex -42.5 5.479070663452148 -0.479356586933136
			vertex 6.5 5.479070663452148 -0.479356586933136
			vertex -42.5 5.41644287109375 -0.9550649523735046
		endloop
	endfacet
	facet normal 0 0.991444969816382 -0.13052536851429908
		outer loop
			vertex 6.5 5.479070663452148 -0.479356586933136
			vertex 6.5 5.41644287109375 -0.9550649523735046
			vertex -42.5 5.41644287109375 -0.9550649523735046
		endloop
	endfacet
	facet normal 0 0.9762958981462916 -0.21644010548585077
		outer loop
			vertex -42.5 5.41644287109375 -0.9550649523735046
			vertex 6.5 5.41644287109375 -0.9550649523735046
			vertex -42.5 5.312592029571533 -1.4235047101974487
		endloop
	endfacet
	facet normal 0 0.9762958981462916 -0.21644010548585077
		outer loop
			vertex 6.5 5.41644287109375 -0.9550649523735046
			vertex 6.5 5.312592029571533 -1.4235047101974487
			vertex -42.5 5.312592029571533 -1.4235047101974487
		endloop
	endfacet
	facet normal 0 0.9537168456008475 -0.30070613298895216
		outer loop
			vertex -42.5 5.312592029571533 -1.4235047101974487
			vertex 6.5 5.312592029571533 -1.4235047101974487
			vertex -42.5 5.168309211730957 -1.8811107873916626
		endloop
	endfacet
	facet normal 0 0.9537168456008475 -0.30070613298895216
		outer loop
			vertex 6.5 5.312592029571533 -1.4235047101974487
			vertex 6.5 5.168309211730957 -1.8811107873916626
			vertex -42.5 5.168309211730957 -1.8811107873916626
		endloop
	endfacet
	facet normal 0 0.9238798409537344 -0.3826826877183007
		outer loop
			vertex -42.5 5.168309211730957 -1.8811107873916626
			vertex 6.5 5.168309211730957 -1.8811107873916626
			vertex -42.5 4.9846930503845215 -2.3244004249572754
		endloop
	endfacet
	facet normal 0 0.9238798409537344 -0.3826826877183007
		outer loop
			vertex 6.5 5.168309211730957 -1.8811107873916626
			vertex 6.5 4.9846930503845215 -2.3244004249572754
			vertex -42.5 4.9846930503845215 -2.3244004249572754
		endloop
	endfacet
	facet normal 0 0.8870106537849238 -0.4617489578461896
		outer loop
			vertex -42.5 4.9846930503845215 -2.3244004249572754
			vertex 6.5 4.9846930503845215 -2.3244004249572754
			vertex -42.5 4.763139724731445 -2.75
		endloop
	endfacet
	facet normal 0 0.8870106537849238 -0.4617489578461896
		outer loop
			vertex 6.5 4.9846930503845215 -2.3244004249572754
			vertex 6.5 4.763139724731445 -2.75
			vertex -42.5 4.763139724731445 -2.75
		endloop
	endfacet
	facet normal 0 0.8433915271992037 -0.5372994805958732
		outer loop
			vertex -42.5 4.763139724731445 -2.75
			vertex 6.5 4.763139724731445 -2.75
			vertex -42.5 4.505336284637451 -3.154670476913452
		endloop
	endfacet
	facet normal 0 0.8433915271992037 -0.5372994805958732
		outer loop
			vertex 6.5 4.763139724731445 -2.75
			vertex 6.5 4.505336284637451 -3.154670476913452
			vertex -42.5 4.505336284637451 -3.154670476913452
		endloop
	endfacet
	facet normal 0 0.7933533264386822 -0.608761447061719
		outer loop
			vertex -42.5 4.505336284637451 -3.154670476913452
			vertex 6.5 4.505336284637451 -3.154670476913452
			vertex -42.5 4.213244438171387 -3.535331964492798
		endloop
	endfacet
	facet normal 0 0.7933533264386822 -0.608761447061719
		outer loop
			vertex 6.5 4.505336284637451 -3.154670476913452
			vertex 6.5 4.213244438171387 -3.535331964492798
			vertex -42.5 4.213244438171387 -3.535331964492798
		endloop
	endfacet
	facet normal 0 0.7372770382624974 -0.6755905334230788
		outer loop
			vertex -42.5 4.213244438171387 -3.535331964492798
			vertex 6.5 4.213244438171387 -3.535331964492798
			vertex -42.5 3.889087200164795 -3.889087200164795
		endloop
	endfacet
	facet normal 0 0.7372770382624974 -0.6755905334230788
		outer loop
			vertex 6.5 4.213244438171387 -3.535331964492798
			vertex 6.5 3.889087200164795 -3.889087200164795
			vertex -42.5 3.889087200164795 -3.889087200164795
		endloop
	endfacet
	facet normal 0 0.6755905334230788 -0.7372770382624974
		outer loop
			vertex -42.5 3.889087200164795 -3.889087200164795
			vertex 6.5 3.889087200164795 -3.889087200164795
			vertex -42.5 3.535331964492798 -4.213244438171387
		endloop
	endfacet
	facet normal 0 0.6755905334230788 -0.7372770382624974
		outer loop
			vertex 6.5 3.889087200164795 -3.889087200164795
			vertex 6.5 3.535331964492798 -4.213244438171387
			vertex -42.5 3.535331964492798 -4.213244438171387
		endloop
	endfacet
	facet normal 0 0.608761447061719 -0.7933533264386822
		outer loop
			vertex -42.5 3.535331964492798 -4.213244438171387
			vertex 6.5 3.535331964492798 -4.213244438171387
			vertex -42.5 3.154670476913452 -4.505336284637451
		endloop
	endfacet
	facet normal 0 0.608761447061719 -0.7933533264386822
		outer loop
			vertex 6.5 3.535331964492798 -4.213244438171387
			vertex 6.5 3.154670476913452 -4.505336284637451
			vertex -42.5 3.154670476913452 -4.505336284637451
		endloop
	endfacet
	facet normal 0 0.5372994805958732 -0.8433915271992037
		outer loop
			vertex -42.5 3.154670476913452 -4.505336284637451
			vertex 6.5 3.154670476913452 -4.505336284637451
			vertex -42.5 2.75 -4.763139724731445
		endloop
	endfacet
	facet normal 0 0.5372994805958732 -0.8433915271992037
		outer loop
			vertex 6.5 3.154670476913452 -4.505336284637451
			vertex 6.5 2.75 -4.763139724731445
			vertex -42.5 2.75 -4.763139724731445
		endloop
	endfacet
	facet normal 0 0.4617489578461896 -0.8870106537849238
		outer loop
			vertex -42.5 2.75 -4.763139724731445
			vertex 6.5 2.75 -4.763139724731445
			vertex -42.5 2.3244004249572754 -4.9846930503845215
		endloop
	endfacet
	facet normal 0 0.4617489578461896 -0.8870106537849238
		outer loop
			vertex 6.5 2.75 -4.763139724731445
			vertex 6.5 2.3244004249572754 -4.9846930503845215
			vertex -42.5 2.3244004249572754 -4.9846930503845215
		endloop
	endfacet
	facet normal 0 0.3826826877183007 -0.9238798409537344
		outer loop
			vertex -42.5 2.3244004249572754 -4.9846930503845215
			vertex 6.5 2.3244004249572754 -4.9846930503845215
			vertex -42.5 1.8811107873916626 -5.168309211730957
		endloop
	endfacet
	facet normal 0 0.3826826877183007 -0.9238798409537344
		outer loop
			vertex 6.5 2.3244004249572754 -4.9846930503845215
			vertex 6.5 1.8811107873916626 -5.168309211730957
			vertex -42.5 1.8811107873916626 -5.168309211730957
		endloop
	endfacet
	facet normal 0 0.30070613298895216 -0.9537168456008475
		outer loop
			vertex -42.5 1.8811107873916626 -5.168309211730957
			vertex 6.5 1.8811107873916626 -5.168309211730957
			vertex -42.5 1.4235047101974487 -5.312592029571533
		endloop
	endfacet
	facet normal 0 0.30070613298895216 -0.9537168456008475
		outer loop
			vertex 6.5 1.8811107873916626 -5.168309211730957
			vertex 6.5 1.4235047101974487 -5.312592029571533
			vertex -42.5 1.4235047101974487 -5.312592029571533
		endloop
	endfacet
	facet normal 0 0.21644010548585077 -0.9762958981462916
		outer loop
			vertex -42.5 1.4235047101974487 -5.312592029571533
			vertex 6.5 1.4235047101974487 -5.312592029571533
			vertex -42.5 0.9550649523735046 -5.41644287109375
		endloop
	endfacet
	facet normal 0 0.21644010548585077 -0.9762958981462916
		outer loop
			vertex 6.5 1.4235047101974487 -5.312592029571533
			vertex 6.5 0.9550649523735046 -5.41644287109375
			vertex -42.5 0.9550649523735046 -5.41644287109375
		endloop
	endfacet
	facet normal 0 0.13052536851429908 -0.991444969816382
		outer loop
			vertex -42.5 0.9550649523735046 -5.41644287109375
			vertex 6.5 0.9550649523735046 -5.41644287109375
			vertex -42.5 0.479356586933136 -5.479070663452148
		endloop
	endfacet
	facet normal 0 0.13052536851429908 -0.991444969816382
		outer loop
			vertex 6.5 0.9550649523735046 -5.41644287109375
			vertex 6.5 0.479356586933136 -5.479070663452148
			vertex -42.5 0.479356586933136 -5.479070663452148
		endloop
	endfacet
	facet normal 0 0.04361975342050601 -0.9990482055994767
		outer loop
			vertex -42.5 0.479356586933136 -5.479070663452148
			vertex 6.5 0.479356586933136 -5.479070663452148
			vertex -42.5 2.1737480640769994e-15 -5.5
		endloop
	endfacet
	facet normal 2.6709395808129963e-18 0.04361975342050574 -0.9990482055994767
		outer loop
			vertex 6.5 0.479356586933136 -5.479070663452148
			vertex 6.5 -8.266366056426536e-16 -5.5
			vertex -42.5 2.1737480640769994e-15 -5.5
		endloop
	endfacet
	facet normal -2.6709395808129894e-18 -0.04361975342050562 -0.9990482055994768
		outer loop
			vertex -42.5 2.1737480640769994e-15 -5.5
			vertex 6.5 -8.266366056426536e-16 -5.5
			vertex -42.5 -0.479356586933136 -5.479070663452148
		endloop
	endfacet
	facet normal 0 -0.04361975342050589 -0.9990482055994768
		outer loop
			vertex 6.5 -8.266366056426536e-16 -5.5
			vertex 6.5 -0.479356586933136 -5.479070663452148
			vertex -42.5 -0.479356586933136 -5.479070663452148
		endloop
	endfacet
	facet normal 0 -0.13052536851429908 -0.991444969816382
		outer loop
			vertex -42.5 -0.479356586933136 -5.479070663452148
			vertex 6.5 -0.479356586933136 -5.479070663452148
			vertex -42.5 -0.9550649523735046 -5.41644287109375
		endloop
	endfacet
	facet normal 0 -0.13052536851429908 -0.991444969816382
		outer loop
			vertex 6.5 -0.479356586933136 -5.479070663452148
			vertex 6.5 -0.9550649523735046 -5.41644287109375
			vertex -42.5 -0.9550649523735046 -5.41644287109375
		endloop
	endfacet
	facet normal 0 -0.21644010548585077 -0.9762958981462916
		outer loop
			vertex -42.5 -0.9550649523735046 -5.41644287109375
			vertex 6.5 -0.9550649523735046 -5.41644287109375
			vertex -42.5 -1.4235047101974487 -5.312592029571533
		endloop
	endfacet
	facet normal 0 -0.21644010548585077 -0.9762958981462916
		outer loop
			vertex 6.5 -0.9550649523735046 -5.41644287109375
			vertex 6.5 -1.4235047101974487 -5.312592029571533
			vertex -42.5 -1.4235047101974487 -5.312592029571533
		endloop
	endfacet
	facet normal 0 -0.30070613298895216 -0.9537168456008475
		outer loop
			vertex -42.5 -1.4235047101974487 -5.312592029571533
			vertex 6.5 -1.4235047101974487 -5.312592029571533
			vertex -42.5 -1.8811107873916626 -5.168309211730957
		endloop
	endfacet
	facet normal 0 -0.30070613298895216 -0.9537168456008475
		outer loop
			vertex 6.5 -1.4235047101974487 -5.312592029571533
			vertex 6.5 -1.8811107873916626 -5.168309211730957
			vertex -42.5 -1.8811107873916626 -5.168309211730957
		endloop
	endfacet
	facet normal 0 -0.3826826877183007 -0.9238798409537344
		outer loop
			vertex -42.5 -1.8811107873916626 -5.168309211730957
			vertex 6.5 -1.8811107873916626 -5.168309211730957
			vertex -42.5 -2.3244004249572754 -4.9846930503845215
		endloop
	endfacet
	facet normal 0 -0.3826826877183007 -0.9238798409537344
		outer loop
			vertex 6.5 -1.8811107873916626 -5.168309211730957
			vertex 6.5 -2.3244004249572754 -4.9846930503845215
			vertex -42.5 -2.3244004249572754 -4.9846930503845215
		endloop
	endfacet
	facet normal 0 -0.4617489578461896 -0.8870106537849238
		outer loop
			vertex -42.5 -2.3244004249572754 -4.9846930503845215
			vertex 6.5 -2.3244004249572754 -4.9846930503845215
			vertex -42.5 -2.75 -4.763139724731445
		endloop
	endfacet
	facet normal 0 -0.4617489578461896 -0.8870106537849238
		outer loop
			vertex 6.5 -2.3244004249572754 -4.9846930503845215
			vertex 6.5 -2.75 -4.763139724731445
			vertex -42.5 -2.75 -4.763139724731445
		endloop
	endfacet
	facet normal 0 -0.5372994805958732 -0.8433915271992037
		outer loop
			vertex -42.5 -2.75 -4.763139724731445
			vertex 6.5 -2.75 -4.763139724731445
			vertex -42.5 -3.154670476913452 -4.505336284637451
		endloop
	endfacet
	facet normal 0 -0.5372994805958732 -0.8433915271992037
		outer loop
			vertex 6.5 -2.75 -4.763139724731445
			vertex 6.5 -3.154670476913452 -4.505336284637451
			vertex -42.5 -3.154670476913452 -4.505336284637451
		endloop
	endfacet
	facet normal 0 -0.608761447061719 -0.7933533264386822
		outer loop
			vertex -42.5 -3.154670476913452 -4.505336284637451
			vertex 6.5 -3.154670476913452 -4.505336284637451
			vertex -42.5 -3.535331964492798 -4.213244438171387
		endloop
	endfacet
	facet normal 0 -0.608761447061719 -0.7933533264386822
		outer loop
			vertex 6.5 -3.154670476913452 -4.505336284637451
			vertex 6.5 -3.535331964492798 -4.213244438171387
			vertex -42.5 -3.535331964492798 -4.213244438171387
		endloop
	endfacet
	facet normal 0 -0.6755905334230788 -0.7372770382624974
		outer loop
			vertex -42.5 -3.535331964492798 -4.213244438171387
			vertex 6.5 -3.535331964492798 -4.213244438171387
			vertex -42.5 -3.889087200164795 -3.889087200164795
		endloop
	endfacet
	facet normal 0 -0.6755905334230788 -0.7372770382624974
		outer loop
			vertex 6.5 -3.535331964492798 -4.213244438171387
			vertex 6.5 -3.889087200164795 -3.889087200164795
			vertex -42.5 -3.889087200164795 -3.889087200164795
		endloop
	endfacet
	facet normal 0 -0.7372770382624974 -0.6755905334230788
		outer loop
			vertex -42.5 -3.889087200164795 -3.889087200164795
			vertex 6.5 -3.889087200164795 -3.889087200164795
			vertex -42.5 -4.213244438171387 -3.535331964492798
		endloop
	endfacet
	facet normal 0 -0.7372770382624974 -0.6755905334230788
		outer loop
			vertex 6.5 -3.889087200164795 -3.889087200164795
			vertex 6.5 -4.213244438171387 -3.535331964492798
			vertex -42.5 -4.213244438171387 -3.535331964492798
		endloop
	endfacet
	facet normal 0 -0.7933533264386822 -0.608761447061719
		outer loop
			vertex -42.5 -4.213244438171387 -3.535331964492798
			vertex 6.5 -4.213244438171387 -3.535331964492798
			vertex -42.5 -4.505336284637451 -3.154670476913452
		endloop
	endfacet
	facet normal 0 -0.7933533264386822 -0.608761447061719
		outer loop
			vertex 6.5 -4.213244438171387 -3.535331964492798
			vertex 6.5 -4.505336284637451 -3.154670476913452
			vertex -42.5 -4.505336284637451 -3.154670476913452
		endloop
	endfacet
	facet normal 0 -0.8433915271992037 -0.5372994805958732
		outer loop
			vertex -42.5 -4.505336284637451 -3.154670476913452
			vertex 6.5 -4.505336284637451 -3.154670476913452
			vertex -42.5 -4.763139724731445 -2.75
		endloop
	endfacet
	facet normal 0 -0.8433915271992037 -0.5372994805958732
		outer loop
			vertex 6.5 -4.505336284637451 -3.154670476913452
			vertex 6.5 -4.763139724731445 -2.75
			vertex -42.5 -4.763139724731445 -2.75
		endloop
	endfacet
	facet normal 0 -0.8870106537849238 -0.4617489578461896
		outer loop
			vertex -42.5 -4.763139724731445 -2.75
			vertex 6.5 -4.763139724731445 -2.75
			vertex -42.5 -4.9846930503845215 -2.3244004249572754
		endloop
	endfacet
	facet normal 0 -0.8870106537849238 -0.4617489578461896
		outer loop
			vertex 6.5 -4.763139724731445 -2.75
			vertex 6.5 -4.9846930503845215 -2.3244004249572754
			vertex -42.5 -4.9846930503845215 -2.3244004249572754
		endloop
	endfacet
	facet normal 0 -0.9238798409537344 -0.3826826877183007
		outer loop
			vertex -42.5 -4.9846930503845215 -2.3244004249572754
			vertex 6.5 -4.9846930503845215 -2.3244004249572754
			vertex -42.5 -5.168309211730957 -1.8811107873916626
		endloop
	endfacet
	facet normal 0 -0.9238798409537344 -0.3826826877183007
		outer loop
			vertex 6.5 -4.9846930503845215 -2.3244004249572754
			vertex 6.5 -5.168309211730957 -1.8811107873916626
			vertex -42.5 -5.168309211730957 -1.8811107873916626
		endloop
	endfacet
	facet normal 0 -0.9537168456008475 -0.30070613298895216
		outer loop
			vertex -42.5 -5.168309211730957 -1.8811107873916626
			vertex 6.5 -5.168309211730957 -1.8811107873916626
			vertex -42.5 -5.312592029571533 -1.4235047101974487
		endloop
	endfacet
	facet normal 0 -0.9537168456008475 -0.30070613298895216
		outer loop
			vertex 6.5 -5.168309211730957 -1.8811107873916626
			vertex 6.5 -5.312592029571533 -1.4235047101974487
			vertex -42.5 -5.312592029571533 -1.4235047101974487
		endloop
	endfacet
	facet normal 0 -0.9762958981462916 -0.21644010548585077
		outer loop
			vertex -42.5 -5.312592029571533 -1.4235047101974487
			vertex 6.5 -5.312592029571533 -1.4235047101974487
			vertex -42.5 -5.41644287109375 -0.9550649523735046
		endloop
	endfacet
	facet normal 0 -0.9762958981462916 -0.21644010548585077
		outer loop
			vertex 6.5 -5.312592029571533 -1.4235047101974487
			vertex 6.5 -5.41644287109375 -0.9550649523735046
			vertex -42.5 -5.41644287109375 -0.9550649523735046
		endloop
	endfacet
	facet normal 0 -0.991444969816382 -0.13052536851429908
		outer loop
			vertex -42.5 -5.41644287109375 -0.9550649523735046
			vertex 6.5 -5.41644287109375 -0.9550649523735046
			vertex -42.5 -5.479070663452148 -0.479356586933136
		endloop
	endfacet
	facet normal 0 -0.991444969816382 -0.13052536851429908
		outer loop
			vertex 6.5 -5.41644287109375 -0.9550649523735046
			vertex 6.5 -5.479070663452148 -0.479356586933136
			vertex -42.5 -5.479070663452148 -0.479356586933136
		endloop
	endfacet
	facet normal 0 -0.9990482055994767 -0.043619753420505905
		outer loop
			vertex -42.5 -5.479070663452148 -0.479356586933136
			vertex 6.5 -5.479070663452148 -0.479356586933136
			vertex -42.5 -5.5 -1.0103335938257594e-15
		endloop
	endfacet
	facet normal 0 -0.9990482055994767 -0.043619753420505905
		outer loop
			vertex 6.5 -5.479070663452148 -0.479356586933136
			vertex 6.5 -5.5 -1.0103335938257594e-15
			vertex -42.5 -5.5 -1.0103335938257594e-15
		endloop
	endfacet
	facet normal 0 -0.9990482055994767 0.04361975342050572
		outer loop
			vertex -42.5 -5.5 -1.0103335938257594e-15
			vertex 6.5 -5.5 -1.0103335938257594e-15
			vertex -42.5 -5.479070663452148 0.479356586933136
		endloop
	endfacet
	facet normal 0 -0.9990482055994767 0.04361975342050572
		outer loop
			vertex 6.5 -5.5 -1.0103335938257594e-15
			vertex 6.5 -5.479070663452148 0.479356586933136
			vertex -42.5 -5.479070663452148 0.479356586933136
		endloop
	endfacet
	facet normal 0 -0.991444969816382 0.13052536851429908
		outer loop
			vertex -42.5 -5.479070663452148 0.479356586933136
			vertex 6.5 -5.479070663452148 0.479356586933136
			vertex -42.5 -5.41644287109375 0.9550649523735046
		endloop
	endfacet
	facet normal 0 -0.991444969816382 0.13052536851429908
		outer loop
			vertex 6.5 -5.479070663452148 0.479356586933136
			vertex 6.5 -5.41644287109375 0.9550649523735046
			vertex -42.5 -5.41644287109375 0.9550649523735046
		endloop
	endfacet
	facet normal 0 -0.9762958981462916 0.21644010548585077
		outer loop
			vertex -42.5 -5.41644287109375 0.9550649523735046
			vertex 6.5 -5.41644287109375 0.9550649523735046
			vertex -42.5 -5.312592029571533 1.4235047101974487
		endloop
	endfacet
	facet normal 0 -0.9762958981462916 0.21644010548585077
		outer loop
			vertex 6.5 -5.41644287109375 0.9550649523735046
			vertex 6.5 -5.312592029571533 1.4235047101974487
			vertex -42.5 -5.312592029571533 1.4235047101974487
		endloop
	endfacet
	facet normal 0 -0.9537168456008475 0.30070613298895216
		outer loop
			vertex -42.5 -5.312592029571533 1.4235047101974487
			vertex 6.5 -5.312592029571533 1.4235047101974487
			vertex -42.5 -5.168309211730957 1.8811107873916626
		endloop
	endfacet
	facet normal 0 -0.9537168456008475 0.30070613298895216
		outer loop
			vertex 6.5 -5.312592029571533 1.4235047101974487
			vertex 6.5 -5.168309211730957 1.8811107873916626
			vertex -42.5 -5.168309211730957 1.8811107873916626
		endloop
	endfacet
	facet normal 0 -0.9238798409537344 0.3826826877183007
		outer loop
			vertex -42.5 -5.168309211730957 1.8811107873916626
			vertex 6.5 -5.168309211730957 1.8811107873916626
			vertex -42.5 -4.9846930503845215 2.3244004249572754
		endloop
	endfacet
	facet normal 0 -0.9238798409537344 0.3826826877183007
		outer loop
			vertex 6.5 -5.168309211730957 1.8811107873916626
			vertex 6.5 -4.9846930503845215 2.3244004249572754
			vertex -42.5 -4.9846930503845215 2.3244004249572754
		endloop
	endfacet
	facet normal 0 -0.8870106537849238 0.4617489578461896
		outer loop
			vertex -42.5 -4.9846930503845215 2.3244004249572754
			vertex 6.5 -4.9846930503845215 2.3244004249572754
			vertex -42.5 -4.763139724731445 2.75
		endloop
	endfacet
	facet normal 0 -0.8870106537849238 0.4617489578461896
		outer loop
			vertex 6.5 -4.9846930503845215 2.3244004249572754
			vertex 6.5 -4.763139724731445 2.75
			vertex -42.5 -4.763139724731445 2.75
		endloop
	endfacet
	facet normal 0 -0.8433915271992037 0.5372994805958732
		outer loop
			vertex -42.5 -4.763139724731445 2.75
			vertex 6.5 -4.763139724731445 2.75
			vertex -42.5 -4.505336284637451 3.154670476913452
		endloop
	endfacet
	facet normal 0 -0.8433915271992037 0.5372994805958732
		outer loop
			vertex 6.5 -4.763139724731445 2.75
			vertex 6.5 -4.505336284637451 3.154670476913452
			vertex -42.5 -4.505336284637451 3.154670476913452
		endloop
	endfacet
	facet normal 0 -0.7933533264386822 0.608761447061719
		outer loop
			vertex -42.5 -4.505336284637451 3.154670476913452
			vertex 6.5 -4.505336284637451 3.154670476913452
			vertex -42.5 -4.213244438171387 3.535331964492798
		endloop
	endfacet
	facet normal 0 -0.7933533264386822 0.608761447061719
		outer loop
			vertex 6.5 -4.505336284637451 3.154670476913452
			vertex 6.5 -4.213244438171387 3.535331964492798
			vertex -42.5 -4.213244438171387 3.535331964492798
		endloop
	endfacet
	facet normal 0 -0.7372770382624974 0.6755905334230788
		outer loop
			vertex -42.5 -4.213244438171387 3.535331964492798
			vertex 6.5 -4.213244438171387 3.535331964492798
			vertex -42.5 -3.889087200164795 3.889087200164795
		endloop
	endfacet
	facet normal 0 -0.7372770382624974 0.6755905334230788
		outer loop
			vertex 6.5 -4.213244438171387 3.535331964492798
			vertex 6.5 -3.889087200164795 3.889087200164795
			vertex -42.5 -3.889087200164795 3.889087200164795
		endloop
	endfacet
	facet normal 0 -0.6755905334230788 0.7372770382624974
		outer loop
			vertex -42.5 -3.889087200164795 3.889087200164795
			vertex 6.5 -3.889087200164795 3.889087200164795
			vertex -42.5 -3.535331964492798 4.213244438171387
		endloop
	endfacet
	facet normal 0 -0.6755905334230788 0.7372770382624974
		outer loop
			vertex 6.5 -3.889087200164795 3.889087200164795
			vertex 6.5 -3.535331964492798 4.213244438171387
			vertex -42.5 -3.535331964492798 4.213244438171387
		endloop
	endfacet
	facet normal 0 -0.608761447061719 0.7933533264386822
		outer loop
			vertex -42.5 -3.535331964492798 4.213244438171387
			vertex 6.5 -3.535331964492798 4.213244438171387
			vertex -42.5 -3.154670476913452 4.505336284637451
		endloop
	endfacet
	facet normal 0 -0.608761447061719 0.7933533264386822
		outer loop
			vertex 6.5 -3.535331964492798 4.213244438171387
			vertex 6.5 -3.154670476913452 4.505336284637451
			vertex -42.5 -3.154670476913452 4.505336284637451
		endloop
	endfacet
	facet normal 0 -0.5372994805958732 0.8433915271992037
		outer loop
			vertex -42.5 -3.154670476913452 4.505336284637451
			vertex 6.5 -3.154670476913452 4.505336284637451
			vertex -42.5 -2.75 4.763139724731445
		endloop
	endfacet
	facet normal 0 -0.5372994805958732 0.8433915271992037
		outer loop
			vertex 6.5 -3.154670476913452 4.505336284637451
			vertex 6.5 -2.75 4.763139724731445
			vertex -42.5 -2.75 4.763139724731445
		endloop
	endfacet
	facet normal 0 -0.4617489578461896 0.8870106537849238
		outer loop
			vertex -42.5 -2.75 4.763139724731445
			vertex 6.5 -2.75 4.763139724731445
			vertex -42.5 -2.3244004249572754 4.9846930503845215
		endloop
	endfacet
	facet normal 0 -0.4617489578461896 0.8870106537849238
		outer loop
			vertex 6.5 -2.75 4.763139724731445
			vertex 6.5 -2.3244004249572754 4.9846930503845215
			vertex -42.5 -2.3244004249572754 4.9846930503845215
		endloop
	endfacet
	facet normal 0 -0.3826826877183007 0.9238798409537344
		outer loop
			vertex -42.5 -2.3244004249572754 4.9846930503845215
			vertex 6.5 -2.3244004249572754 4.9846930503845215
			vertex -42.5 -1.8811107873916626 5.168309211730957
		endloop
	endfacet
	facet normal 0 -0.3826826877183007 0.9238798409537344
		outer loop
			vertex 6.5 -2.3244004249572754 4.9846930503845215
			vertex 6.5 -1.8811107873916626 5.168309211730957
			vertex -42.5 -1.8811107873916626 5.168309211730957
		endloop
	endfacet
	facet normal 0 -0.30070613298895216 0.9537168456008475
		outer loop
			vertex -42.5 -1.8811107873916626 5.168309211730957
			vertex 6.5 -1.8811107873916626 5.168309211730957
			vertex -42.5 -1.4235047101974487 5.312592029571533
		endloop
	endfacet
	facet normal 0 -0.30070613298895216 0.9537168456008475
		outer loop
			vertex 6.5 -1.8811107873916626 5.168309211730957
			vertex 6.5 -1.4235047101974487 5.312592029571533
			vertex -42.5 -1.4235047101974487 5.312592029571533
		endloop
	endfacet
	facet normal 0 -0.21644010548585077 0.9762958981462916
		outer loop
			vertex -42.5 -1.4235047101974487 5.312592029571533
			vertex 6.5 -1.4235047101974487 5.312592029571533
			vertex -42.5 -0.9550649523735046 5.41644287109375
		endloop
	endfacet
	facet normal 0 -0.21644010548585077 0.9762958981462916
		outer loop
			vertex 6.5 -1.4235047101974487 5.312592029571533
			vertex 6.5 -0.9550649523735046 5.41644287109375
			vertex -42.5 -0.9550649523735046 5.41644287109375
		endloop
	endfacet
	facet normal 0 -0.13052536851429908 0.991444969816382
		outer loop
			vertex -42.5 -0.9550649523735046 5.41644287109375
			vertex 6.5 -0.9550649523735046 5.41644287109375
			vertex -42.5 -0.479356586933136 5.479070663452148
		endloop
	endfacet
	facet normal 0 -0.13052536851429908 0.991444969816382
		outer loop
			vertex 6.5 -0.9550649523735046 5.41644287109375
			vertex 6.5 -0.479356586933136 5.479070663452148
			vertex -42.5 -0.479356586933136 5.479070663452148
		endloop
	endfacet
	facet normal 0 -0.0436197534205058 0.9990482055994768
		outer loop
			vertex -42.5 -0.479356586933136 5.479070663452148
			vertex 6.5 -0.479356586933136 5.479070663452148
			vertex -42.5 1.5308087642548068e-16 5.5
		endloop
	endfacet
	facet normal -2.670939580813017e-18 -0.04361975342050607 0.9990482055994768
		outer loop
			vertex 6.5 -0.479356586933136 5.479070663452148
			vertex 6.5 -2.8473037932941724e-15 5.5
			vertex -42.5 1.5308087642548068e-16 5.5
		endloop
	endfacet
	facet normal -1 0 0
		outer loop
			vertex -42.5 1.5001923348598265e-15 5.5
			vertex -42.5 0.479356586933136 5.479070663452148
			vertex -42.5 1.5001923348598265e-15 0
		endloop
	endfacet
	facet normal -1 0 0
		outer loop
			vertex -42.5 0.479356586933136 5.479070663452148
			vertex -42.5 0.9550649523735046 5.41644287109375
			vertex -42.5 1.5001923348598265e-15 0
		endloop
	endfacet
	facet normal -1 0 0
		outer loop
			vertex -42.5 0.9550649523735046 5.41644287109375
			vertex -42.5 1.4235047101974487 5.312592029571533
			vertex -42.5 1.5001923348598265e-15 0
		endloop
	endfacet
	facet normal -1 0 0
		outer loop
			vertex -42.5 1.4235047101974487 5.312592029571533
			vertex -42.5 1.8811107873916626 5.168309211730957
			vertex -42.5 1.5001923348598265e-15 0
		endloop
	endfacet
	facet normal -1 0 0
		outer loop
			vertex -42.5 1.8811107873916626 5.168309211730957
			vertex -42.5 2.3244004249572754 4.9846930503845215
			vertex -42.5 1.5001923348598265e-15 0
		endloop
	endfacet
	facet normal -1 0 0
		outer loop
			vertex -42.5 2.3244004249572754 4.9846930503845215
			vertex -42.5 2.75 4.763139724731445
			vertex -42.5 1.5001923348598265e-15 0
		endloop
	endfacet
	facet normal -1 0 0
		outer loop
			vertex -42.5 2.75 4.763139724731445
			vertex -42.5 3.154670476913452 4.505336284637451
			vertex -42.5 1.5001923348598265e-15 0
		endloop
	endfacet
	facet normal -1 0 0
		outer loop
			vertex -42.5 3.154670476913452 4.505336284637451
			vertex -42.5 3.535331964492798 4.213244438171387
			vertex -42.5 1.5001923348598265e-15 0
		endloop
	endfacet
	facet normal -1 0 0
		outer loop
			vertex -42.5 3.535331964492798 4.213244438171387
			vertex -42.5 3.889087200164795 3.889087200164795
			vertex -42.5 1.5001923348598265e-15 0
		endloop
	endfacet
	facet normal -1 0 0
		outer loop
			vertex -42.5 3.889087200164795 3.889087200164795
			vertex -42.5 4.213244438171387 3.535331964492798
			vertex -42.5 1.5001923348598265e-15 0
		endloop
	endfacet
	facet normal -1 0 0
		outer loop
			vertex -42.5 4.213244438171387 3.535331964492798
			vertex -42.5 4.505336284637451 3.154670476913452
			vertex -42.5 1.5001923348598265e-15 0
		endloop
	endfacet
	facet normal -1 0 0
		outer loop
			vertex -42.5 4.505336284637451 3.154670476913452
			vertex -42.5 4.763139724731445 2.75
			vertex -42.5 1.5001923348598265e-15 0
		endloop
	endfacet
	facet normal -1 0 0
		outer loop
			vertex -42.5 4.763139724731445 2.75
			vertex -42.5 4.9846930503845215 2.3244004249572754
			vertex -42.5 1.5001923348598265e-15 0
		endloop
	endfacet
	facet normal -1 0 0
		outer loop
			vertex -42.5 4.9846930503845215 2.3244004249572754
			vertex -42.5 5.168309211730957 1.8811107873916626
			vertex -42.5 1.5001923348598265e-15 0
		endloop
	endfacet
	facet normal -1 0 0
		outer loop
			vertex -42.5 5.168309211730957 1.8811107873916626
			vertex -42.5 5.312592029571533 1.4235047101974487
			vertex -42.5 1.5001923348598265e-15 0
		endloop
	endfacet
	facet normal -1 0 0
		outer loop
			vertex -42.5 5.312592029571533 1.4235047101974487
			vertex -42.5 5.41644287109375 0.9550649523735046
			vertex -42.5 1.5001923348598265e-15 0
		endloop
	endfacet
	facet normal -1 0 0
		outer loop
			vertex -42.5 5.41644287109375 0.9550649523735046
			vertex -42.5 5.479070663452148 0.479356586933136
			vertex -42.5 1.5001923348598265e-15 0
		endloop
	endfacet
	facet normal -1 0 0
		outer loop
			vertex -42.5 5.479070663452148 0.479356586933136
			vertex -42.5 5.5 3.3677786460858646e-16
			vertex -42.5 1.5001923348598265e-15 0
		endloop
	endfacet
	facet normal -1 0 0
		outer loop
			vertex -42.5 5.5 3.3677786460858646e-16
			vertex -42.5 5.479070663452148 -0.479356586933136
			vertex -42.5 1.5001923348598265e-15 0
		endloop
	endfacet
	facet normal -1 0 0
		outer loop
			vertex -42.5 5.479070663452148 -0.479356586933136
			vertex -42.5 5.41644287109375 -0.9550649523735046
			vertex -42.5 1.5001923348598265e-15 0
		endloop
	endfacet
	facet normal -1 0 0
		outer loop
			vertex -42.5 5.41644287109375 -0.9550649523735046
			vertex -42.5 5.312592029571533 -1.4235047101974487
			vertex -42.5 1.5001923348598265e-15 0
		endloop
	endfacet
	facet normal -1 0 0
		outer loop
			vertex -42.5 5.312592029571533 -1.4235047101974487
			vertex -42.5 5.168309211730957 -1.8811107873916626
			vertex -42.5 1.5001923348598265e-15 0
		endloop
	endfacet
	facet normal -1 0 0
		outer loop
			vertex -42.5 5.168309211730957 -1.8811107873916626
			vertex -42.5 4.9846930503845215 -2.3244004249572754
			vertex -42.5 1.5001923348598265e-15 0
		endloop
	endfacet
	facet normal -1 0 0
		outer loop
			vertex -42.5 4.9846930503845215 -2.3244004249572754
			vertex -42.5 4.763139724731445 -2.75
			vertex -42.5 1.5001923348598265e-15 0
		endloop
	endfacet
	facet normal -1 0 0
		outer loop
			vertex -42.5 4.763139724731445 -2.75
			vertex -42.5 4.505336284637451 -3.154670476913452
			vertex -42.5 1.5001923348598265e-15 0
		endloop
	endfacet
	facet normal -1 0 0
		outer loop
			vertex -42.5 4.505336284637451 -3.154670476913452
			vertex -42.5 4.213244438171387 -3.535331964492798
			vertex -42.5 1.5001923348598265e-15 0
		endloop
	endfacet
	facet normal -1 0 0
		outer loop
			vertex -42.5 4.213244438171387 -3.535331964492798
			vertex -42.5 3.889087200164795 -3.889087200164795
			vertex -42.5 1.5001923348598265e-15 0
		endloop
	endfacet
	facet normal -1 0 0
		outer loop
			vertex -42.5 3.889087200164795 -3.889087200164795
			vertex -42.5 3.535331964492798 -4.213244438171387
			vertex -42.5 1.5001923348598265e-15 0
		endloop
	endfacet
	facet normal -1 0 0
		outer loop
			vertex -42.5 3.535331964492798 -4.213244438171387
			vertex -42.5 3.154670476913452 -4.505336284637451
			vertex -42.5 1.5001923348598265e-15 0
		endloop
	endfacet
	facet normal -1 0 0
		outer loop
			vertex -42.5 3.154670476913452 -4.505336284637451
			vertex -42.5 2.75 -4.763139724731445
			vertex -42.5 1.5001923348598265e-15 0
		endloop
	endfacet
	facet normal -1 0 0
		outer loop
			vertex -42.5 2.75 -4.763139724731445
			vertex -42.5 2.3244004249572754 -4.9846930503845215
			vertex -42.5 1.5001923348598265e-15 0
		endloop
	endfacet
	facet normal -1 0 0
		outer loop
			vertex -42.5 2.3244004249572754 -4.9846930503845215
			vertex -42.5 1.8811107873916626 -5.168309211730957
			vertex -42.5 1.5001923348598265e-15 0
		endloop
	endfacet
	facet normal -1 0 0
		outer loop
			vertex -42.5 1.8811107873916626 -5.168309211730957
			vertex -42.5 1.4235047101974487 -5.312592029571533
			vertex -42.5 1.5001923348598265e-15 0
		endloop
	endfacet
	facet normal -1 0 0
		outer loop
			vertex -42.5 1.4235047101974487 -5.312592029571533
			vertex -42.5 0.9550649523735046 -5.41644287109375
			vertex -42.5 1.5001923348598265e-15 0
		endloop
	endfacet
	facet normal -1 0 0
		outer loop
			vertex -42.5 0.9550649523735046 -5.41644287109375
			vertex -42.5 0.479356586933136 -5.479070663452148
			vertex -42.5 1.5001923348598265e-15 0
		endloop
	endfacet
	facet normal -1 0 0
		outer loop
			vertex -42.5 0.479356586933136 -5.479070663452148
			vertex -42.5 2.1737480640769994e-15 -5.5
			vertex -42.5 1.5001923348598265e-15 0
		endloop
	endfacet
	facet normal -1 0 0
		outer loop
			vertex -42.5 2.1737480640769994e-15 -5.5
			vertex -42.5 -0.479356586933136 -5.479070663452148
			vertex -42.5 1.5001923348598265e-15 0
		endloop
	endfacet
	facet normal -1 0 0
		outer loop
			vertex -42.5 -0.479356586933136 -5.479070663452148
			vertex -42.5 -0.9550649523735046 -5.41644287109375
			vertex -42.5 1.5001923348598265e-15 0
		endloop
	endfacet
	facet normal -1 0 0
		outer loop
			vertex -42.5 -0.9550649523735046 -5.41644287109375
			vertex -42.5 -1.4235047101974487 -5.312592029571533
			vertex -42.5 1.5001923348598265e-15 0
		endloop
	endfacet
	facet normal -1 0 0
		outer loop
			vertex -42.5 -1.4235047101974487 -5.312592029571533
			vertex -42.5 -1.8811107873916626 -5.168309211730957
			vertex -42.5 1.5001923348598265e-15 0
		endloop
	endfacet
	facet normal -1 0 0
		outer loop
			vertex -42.5 -1.8811107873916626 -5.168309211730957
			vertex -42.5 -2.3244004249572754 -4.9846930503845215
			vertex -42.5 1.5001923348598265e-15 0
		endloop
	endfacet
	facet normal -1 0 0
		outer loop
			vertex -42.5 -2.3244004249572754 -4.9846930503845215
			vertex -42.5 -2.75 -4.763139724731445
			vertex -42.5 1.5001923348598265e-15 0
		endloop
	endfacet
	facet normal -1 0 0
		outer loop
			vertex -42.5 -2.75 -4.763139724731445
			vertex -42.5 -3.154670476913452 -4.505336284637451
			vertex -42.5 1.5001923348598265e-15 0
		endloop
	endfacet
	facet normal -1 0 0
		outer loop
			vertex -42.5 -3.154670476913452 -4.505336284637451
			vertex -42.5 -3.535331964492798 -4.213244438171387
			vertex -42.5 1.5001923348598265e-15 0
		endloop
	endfacet
	facet normal -1 0 0
		outer loop
			vertex -42.5 -3.535331964492798 -4.213244438171387
			vertex -42.5 -3.889087200164795 -3.889087200164795
			vertex -42.5 1.5001923348598265e-15 0
		endloop
	endfacet
	facet normal -1 0 0
		outer loop
			vertex -42.5 -3.889087200164795 -3.889087200164795
			vertex -42.5 -4.213244438171387 -3.535331964492798
			vertex -42.5 1.5001923348598265e-15 0
		endloop
	endfacet
	facet normal -1 0 0
		outer loop
			vertex -42.5 -4.213244438171387 -3.535331964492798
			vertex -42.5 -4.505336284637451 -3.154670476913452
			vertex -42.5 1.5001923348598265e-15 0
		endloop
	endfacet
	facet normal -1 0 0
		outer loop
			vertex -42.5 -4.505336284637451 -3.154670476913452
			vertex -42.5 -4.763139724731445 -2.75
			vertex -42.5 1.5001923348598265e-15 0
		endloop
	endfacet
	facet normal -1 0 0
		outer loop
			vertex -42.5 -4.763139724731445 -2.75
			vertex -42.5 -4.9846930503845215 -2.3244004249572754
			vertex -42.5 1.5001923348598265e-15 0
		endloop
	endfacet
	facet normal -1 0 0
		outer loop
			vertex -42.5 -4.9846930503845215 -2.3244004249572754
			vertex -42.5 -5.168309211730957 -1.8811107873916626
			vertex -42.5 1.5001923348598265e-15 0
		endloop
	endfacet
	facet normal -1 0 0
		outer loop
			vertex -42.5 -5.168309211730957 -1.8811107873916626
			vertex -42.5 -5.312592029571533 -1.4235047101974487
			vertex -42.5 1.5001923348598265e-15 0
		endloop
	endfacet
	facet normal -1 0 0
		outer loop
			vertex -42.5 -5.312592029571533 -1.4235047101974487
			vertex -42.5 -5.41644287109375 -0.9550649523735046
			vertex -42.5 1.5001923348598265e-15 0
		endloop
	endfacet
	facet normal -1 0 0
		outer loop
			vertex -42.5 -5.41644287109375 -0.9550649523735046
			vertex -42.5 -5.479070663452148 -0.479356586933136
			vertex -42.5 1.5001923348598265e-15 0
		endloop
	endfacet
	facet normal -1 0 0
		outer loop
			vertex -42.5 -5.479070663452148 -0.479356586933136
			vertex -42.5 -5.5 -1.0103335938257594e-15
			vertex -42.5 1.5001923348598265e-15 0
		endloop
	endfacet
	facet normal -1 0 0
		outer loop
			vertex -42.5 -5.5 -1.0103335938257594e-15
			vertex -42.5 -5.479070663452148 0.479356586933136
			vertex -42.5 1.5001923348598265e-15 0
		endloop
	endfacet
	facet normal -1 0 0
		outer loop
			vertex -42.5 -5.479070663452148 0.479356586933136
			vertex -42.5 -5.41644287109375 0.9550649523735046
			vertex -42.5 1.5001923348598265e-15 0
		endloop
	endfacet
	facet normal -1 0 0
		outer loop
			vertex -42.5 -5.41644287109375 0.9550649523735046
			vertex -42.5 -5.312592029571533 1.4235047101974487
			vertex -42.5 1.5001923348598265e-15 0
		endloop
	endfacet
	facet normal -1 0 0
		outer loop
			vertex -42.5 -5.312592029571533 1.4235047101974487
			vertex -42.5 -5.168309211730957 1.8811107873916626
			vertex -42.5 1.5001923348598265e-15 0
		endloop
	endfacet
	facet normal -1 0 0
		outer loop
			vertex -42.5 -5.168309211730957 1.8811107873916626
			vertex -42.5 -4.9846930503845215 2.3244004249572754
			vertex -42.5 1.5001923348598265e-15 0
		endloop
	endfacet
	facet normal -1 0 0
		outer loop
			vertex -42.5 -4.9846930503845215 2.3244004249572754
			vertex -42.5 -4.763139724731445 2.75
			vertex -42.5 1.5001923348598265e-15 0
		endloop
	endfacet
	facet normal -1 0 0
		outer loop
			vertex -42.5 -4.763139724731445 2.75
			vertex -42.5 -4.505336284637451 3.154670476913452
			vertex -42.5 1.5001923348598265e-15 0
		endloop
	endfacet
	facet normal -1 0 0
		outer loop
			vertex -42.5 -4.505336284637451 3.154670476913452
			vertex -42.5 -4.213244438171387 3.535331964492798
			vertex -42.5 1.5001923348598265e-15 0
		endloop
	endfacet
	facet normal -1 0 0
		outer loop
			vertex -42.5 -4.213244438171387 3.535331964492798
			vertex -42.5 -3.889087200164795 3.889087200164795
			vertex -42.5 1.5001923348598265e-15 0
		endloop
	endfacet
	facet normal -1 0 0
		outer loop
			vertex -42.5 -3.889087200164795 3.889087200164795
			vertex -42.5 -3.535331964492798 4.213244438171387
			vertex -42.5 1.5001923348598265e-15 0
		endloop
	endfacet
	facet normal -1 0 0
		outer loop
			vertex -42.5 -3.535331964492798 4.213244438171387
			vertex -42.5 -3.154670476913452 4.505336284637451
			vertex -42.5 1.5001923348598265e-15 0
		endloop
	endfacet
	facet normal -1 0 0
		outer loop
			vertex -42.5 -3.154670476913452 4.505336284637451
			vertex -42.5 -2.75 4.763139724731445
			vertex -42.5 1.5001923348598265e-15 0
		endloop
	endfacet
	facet normal -1 0 0
		outer loop
			vertex -42.5 -2.75 4.763139724731445
			vertex -42.5 -2.3244004249572754 4.9846930503845215
			vertex -42.5 1.5001923348598265e-15 0
		endloop
	endfacet
	facet normal -1 0 0
		outer loop
			vertex -42.5 -2.3244004249572754 4.9846930503845215
			vertex -42.5 -1.8811107873916626 5.168309211730957
			vertex -42.5 1.5001923348598265e-15 0
		endloop
	endfacet
	facet normal -1 0 0
		outer loop
			vertex -42.5 -1.8811107873916626 5.168309211730957
			vertex -42.5 -1.4235047101974487 5.312592029571533
			vertex -42.5 1.5001923348598265e-15 0
		endloop
	endfacet
	facet normal -1 0 0
		outer loop
			vertex -42.5 -1.4235047101974487 5.312592029571533
			vertex -42.5 -0.9550649523735046 5.41644287109375
			vertex -42.5 1.5001923348598265e-15 0
		endloop
	endfacet
	facet normal -1 0 0
		outer loop
			vertex -42.5 -0.9550649523735046 5.41644287109375
			vertex -42.5 -0.479356586933136 5.479070663452148
			vertex -42.5 1.5001923348598265e-15 0
		endloop
	endfacet
	facet normal -1 0 0
		outer loop
			vertex -42.5 -0.479356586933136 5.479070663452148
			vertex -42.5 1.5308087642548068e-16 5.5
			vertex -42.5 1.5001923348598265e-15 0
		endloop
	endfacet
	facet normal 1 0 0
		outer loop
			vertex 6.5 0.479356586933136 5.479070663452148
			vertex 6.5 -1.5001923348598265e-15 5.5
			vertex 6.5 -1.5001923348598265e-15 0
		endloop
	endfacet
	facet normal 1 0 0
		outer loop
			vertex 6.5 0.9550649523735046 5.41644287109375
			vertex 6.5 0.479356586933136 5.479070663452148
			vertex 6.5 -1.5001923348598265e-15 0
		endloop
	endfacet
	facet normal 1 0 0
		outer loop
			vertex 6.5 1.4235047101974487 5.312592029571533
			vertex 6.5 0.9550649523735046 5.41644287109375
			vertex 6.5 -1.5001923348598265e-15 0
		endloop
	endfacet
	facet normal 1 0 0
		outer loop
			vertex 6.5 1.8811107873916626 5.168309211730957
			vertex 6.5 1.4235047101974487 5.312592029571533
			vertex 6.5 -1.5001923348598265e-15 0
		endloop
	endfacet
	facet normal 1 0 0
		outer loop
			vertex 6.5 2.3244004249572754 4.9846930503845215
			vertex 6.5 1.8811107873916626 5.168309211730957
			vertex 6.5 -1.5001923348598265e-15 0
		endloop
	endfacet
	facet normal 1 0 0
		outer loop
			vertex 6.5 2.75 4.763139724731445
			vertex 6.5 2.3244004249572754 4.9846930503845215
			vertex 6.5 -1.5001923348598265e-15 0
		endloop
	endfacet
	facet normal 1 0 0
		outer loop
			vertex 6.5 3.154670476913452 4.505336284637451
			vertex 6.5 2.75 4.763139724731445
			vertex 6.5 -1.5001923348598265e-15 0
		endloop
	endfacet
	facet normal 1 0 0
		outer loop
			vertex 6.5 3.535331964492798 4.213244438171387
			vertex 6.5 3.154670476913452 4.505336284637451
			vertex 6.5 -1.5001923348598265e-15 0
		endloop
	endfacet
	facet normal 1 0 0
		outer loop
			vertex 6.5 3.889087200164795 3.889087200164795
			vertex 6.5 3.535331964492798 4.213244438171387
			vertex 6.5 -1.5001923348598265e-15 0
		endloop
	endfacet
	facet normal 1 0 0
		outer loop
			vertex 6.5 4.213244438171387 3.535331964492798
			vertex 6.5 3.889087200164795 3.889087200164795
			vertex 6.5 -1.5001923348598265e-15 0
		endloop
	endfacet
	facet normal 1 0 0
		outer loop
			vertex 6.5 4.505336284637451 3.154670476913452
			vertex 6.5 4.213244438171387 3.535331964492798
			vertex 6.5 -1.5001923348598265e-15 0
		endloop
	endfacet
	facet normal 1 0 0
		outer loop
			vertex 6.5 4.763139724731445 2.75
			vertex 6.5 4.505336284637451 3.154670476913452
			vertex 6.5 -1.5001923348598265e-15 0
		endloop
	endfacet
	facet normal 1 0 0
		outer loop
			vertex 6.5 4.9846930503845215 2.3244004249572754
			vertex 6.5 4.763139724731445 2.75
			vertex 6.5 -1.5001923348598265e-15 0
		endloop
	endfacet
	facet normal 1 0 0
		outer loop
			vertex 6.5 5.168309211730957 1.8811107873916626
			vertex 6.5 4.9846930503845215 2.3244004249572754
			vertex 6.5 -1.5001923348598265e-15 0
		endloop
	endfacet
	facet normal 1 0 0
		outer loop
			vertex 6.5 5.312592029571533 1.4235047101974487
			vertex 6.5 5.168309211730957 1.8811107873916626
			vertex 6.5 -1.5001923348598265e-15 0
		endloop
	endfacet
	facet normal 1 0 0
		outer loop
			vertex 6.5 5.41644287109375 0.9550649523735046
			vertex 6.5 5.312592029571533 1.4235047101974487
			vertex 6.5 -1.5001923348598265e-15 0
		endloop
	endfacet
	facet normal 1 0 0
		outer loop
			vertex 6.5 5.479070663452148 0.479356586933136
			vertex 6.5 5.41644287109375 0.9550649523735046
			vertex 6.5 -1.5001923348598265e-15 0
		endloop
	endfacet
	facet normal 1 0 0
		outer loop
			vertex 6.5 5.5 3.3677786460858646e-16
			vertex 6.5 5.479070663452148 0.479356586933136
			vertex 6.5 -1.5001923348598265e-15 0
		endloop
	endfacet
	facet normal 1 0 0
		outer loop
			vertex 6.5 5.479070663452148 -0.479356586933136
			vertex 6.5 5.5 3.3677786460858646e-16
			vertex 6.5 -1.5001923348598265e-15 0
		endloop
	endfacet
	facet normal 1 0 0
		outer loop
			vertex 6.5 5.41644287109375 -0.9550649523735046
			vertex 6.5 5.479070663452148 -0.479356586933136
			vertex 6.5 -1.5001923348598265e-15 0
		endloop
	endfacet
	facet normal 1 0 0
		outer loop
			vertex 6.5 5.312592029571533 -1.4235047101974487
			vertex 6.5 5.41644287109375 -0.9550649523735046
			vertex 6.5 -1.5001923348598265e-15 0
		endloop
	endfacet
	facet normal 1 0 0
		outer loop
			vertex 6.5 5.168309211730957 -1.8811107873916626
			vertex 6.5 5.312592029571533 -1.4235047101974487
			vertex 6.5 -1.5001923348598265e-15 0
		endloop
	endfacet
	facet normal 1 0 0
		outer loop
			vertex 6.5 4.9846930503845215 -2.3244004249572754
			vertex 6.5 5.168309211730957 -1.8811107873916626
			vertex 6.5 -1.5001923348598265e-15 0
		endloop
	endfacet
	facet normal 1 0 0
		outer loop
			vertex 6.5 4.763139724731445 -2.75
			vertex 6.5 4.9846930503845215 -2.3244004249572754
			vertex 6.5 -1.5001923348598265e-15 0
		endloop
	endfacet
	facet normal 1 0 0
		outer loop
			vertex 6.5 4.505336284637451 -3.154670476913452
			vertex 6.5 4.763139724731445 -2.75
			vertex 6.5 -1.5001923348598265e-15 0
		endloop
	endfacet
	facet normal 1 0 0
		outer loop
			vertex 6.5 4.213244438171387 -3.535331964492798
			vertex 6.5 4.505336284637451 -3.154670476913452
			vertex 6.5 -1.5001923348598265e-15 0
		endloop
	endfacet
	facet normal 1 0 0
		outer loop
			vertex 6.5 3.889087200164795 -3.889087200164795
			vertex 6.5 4.213244438171387 -3.535331964492798
			vertex 6.5 -1.5001923348598265e-15 0
		endloop
	endfacet
	facet normal 1 0 0
		outer loop
			vertex 6.5 3.535331964492798 -4.213244438171387
			vertex 6.5 3.889087200164795 -3.889087200164795
			vertex 6.5 -1.5001923348598265e-15 0
		endloop
	endfacet
	facet normal 1 0 0
		outer loop
			vertex 6.5 3.154670476913452 -4.505336284637451
			vertex 6.5 3.535331964492798 -4.213244438171387
			vertex 6.5 -1.5001923348598265e-15 0
		endloop
	endfacet
	facet normal 1 0 0
		outer loop
			vertex 6.5 2.75 -4.763139724731445
			vertex 6.5 3.154670476913452 -4.505336284637451
			vertex 6.5 -1.5001923348598265e-15 0
		endloop
	endfacet
	facet normal 1 0 0
		outer loop
			vertex 6.5 2.3244004249572754 -4.9846930503845215
			vertex 6.5 2.75 -4.763139724731445
			vertex 6.5 -1.5001923348598265e-15 0
		endloop
	endfacet
	facet normal 1 0 0
		outer loop
			vertex 6.5 1.8811107873916626 -5.168309211730957
			vertex 6.5 2.3244004249572754 -4.9846930503845215
			vertex 6.5 -1.5001923348598265e-15 0
		endloop
	endfacet
	facet normal 1 0 0
		outer loop
			vertex 6.5 1.4235047101974487 -5.312592029571533
			vertex 6.5 1.8811107873916626 -5.168309211730957
			vertex 6.5 -1.5001923348598265e-15 0
		endloop
	endfacet
	facet normal 1 0 0
		outer loop
			vertex 6.5 0.9550649523735046 -5.41644287109375
			vertex 6.5 1.4235047101974487 -5.312592029571533
			vertex 6.5 -1.5001923348598265e-15 0
		endloop
	endfacet
	facet normal 1 0 0
		outer loop
			vertex 6.5 0.479356586933136 -5.479070663452148
			vertex 6.5 0.9550649523735046 -5.41644287109375
			vertex 6.5 -1.5001923348598265e-15 0
		endloop
	endfacet
	facet normal 1 0 0
		outer loop
			vertex 6.5 -8.266366056426536e-16 -5.5
			vertex 6.5 0.479356586933136 -5.479070663452148
			vertex 6.5 -1.5001923348598265e-15 0
		endloop
	endfacet
	facet normal 1 0 0
		outer loop
			vertex 6.5 -0.479356586933136 -5.479070663452148
			vertex 6.5 -8.266366056426536e-16 -5.5
			vertex 6.5 -1.5001923348598265e-15 0
		endloop
	endfacet
	facet normal 1 0 0
		outer loop
			vertex 6.5 -0.9550649523735046 -5.41644287109375
			vertex 6.5 -0.479356586933136 -5.479070663452148
			vertex 6.5 -1.5001923348598265e-15 0
		endloop
	endfacet
	facet normal 1 0 0
		outer loop
			vertex 6.5 -1.4235047101974487 -5.312592029571533
			vertex 6.5 -0.9550649523735046 -5.41644287109375
			vertex 6.5 -1.5001923348598265e-15 0
		endloop
	endfacet
	facet normal 1 0 0
		outer loop
			vertex 6.5 -1.8811107873916626 -5.168309211730957
			vertex 6.5 -1.4235047101974487 -5.312592029571533
			vertex 6.5 -1.5001923348598265e-15 0
		endloop
	endfacet
	facet normal 1 0 0
		outer loop
			vertex 6.5 -2.3244004249572754 -4.9846930503845215
			vertex 6.5 -1.8811107873916626 -5.168309211730957
			vertex 6.5 -1.5001923348598265e-15 0
		endloop
	endfacet
	facet normal 1 0 0
		outer loop
			vertex 6.5 -2.75 -4.763139724731445
			vertex 6.5 -2.3244004249572754 -4.9846930503845215
			vertex 6.5 -1.5001923348598265e-15 0
		endloop
	endfacet
	facet normal 1 0 0
		outer loop
			vertex 6.5 -3.154670476913452 -4.505336284637451
			vertex 6.5 -2.75 -4.763139724731445
			vertex 6.5 -1.5001923348598265e-15 0
		endloop
	endfacet
	facet normal 1 0 0
		outer loop
			vertex 6.5 -3.535331964492798 -4.213244438171387
			vertex 6.5 -3.154670476913452 -4.505336284637451
			vertex 6.5 -1.5001923348598265e-15 0
		endloop
	endfacet
	facet normal 1 0 0
		outer loop
			vertex 6.5 -3.889087200164795 -3.889087200164795
			vertex 6.5 -3.535331964492798 -4.213244438171387
			vertex 6.5 -1.5001923348598265e-15 0
		endloop
	endfacet
	facet normal 1 0 0
		outer loop
			vertex 6.5 -4.213244438171387 -3.535331964492798
			vertex 6.5 -3.889087200164795 -3.889087200164795
			vertex 6.5 -1.5001923348598265e-15 0
		endloop
	endfacet
	facet normal 1 0 0
		outer loop
			vertex 6.5 -4.505336284637451 -3.154670476913452
			vertex 6.5 -4.213244438171387 -3.535331964492798
			vertex 6.5 -1.5001923348598265e-15 0
		endloop
	endfacet
	facet normal 1 0 0
		outer loop
			vertex 6.5 -4.763139724731445 -2.75
			vertex 6.5 -4.505336284637451 -3.154670476913452
			vertex 6.5 -1.5001923348598265e-15 0
		endloop
	endfacet
	facet normal 1 0 0
		outer loop
			vertex 6.5 -4.9846930503845215 -2.3244004249572754
			vertex 6.5 -4.763139724731445 -2.75
			vertex 6.5 -1.5001923348598265e-15 0
		endloop
	endfacet
	facet normal 1 0 0
		outer loop
			vertex 6.5 -5.168309211730957 -1.8811107873916626
			vertex 6.5 -4.9846930503845215 -2.3244004249572754
			vertex 6.5 -1.5001923348598265e-15 0
		endloop
	endfacet
	facet normal 1 0 0
		outer loop
			vertex 6.5 -5.312592029571533 -1.4235047101974487
			vertex 6.5 -5.168309211730957 -1.8811107873916626
			vertex 6.5 -1.5001923348598265e-15 0
		endloop
	endfacet
	facet normal 1 0 0
		outer loop
			vertex 6.5 -5.41644287109375 -0.9550649523735046
			vertex 6.5 -5.312592029571533 -1.4235047101974487
			vertex 6.5 -1.5001923348598265e-15 0
		endloop
	endfacet
	facet normal 1 0 0
		outer loop
			vertex 6.5 -5.479070663452148 -0.479356586933136
			vertex 6.5 -5.41644287109375 -0.9550649523735046
			vertex 6.5 -1.5001923348598265e-15 0
		endloop
	endfacet
	facet normal 1 0 0
		outer loop
			vertex 6.5 -5.5 -1.0103335938257594e-15
			vertex 6.5 -5.479070663452148 -0.479356586933136
			vertex 6.5 -1.5001923348598265e-15 0
		endloop
	endfacet
	facet normal 1 0 0
		outer loop
			vertex 6.5 -5.479070663452148 0.479356586933136
			vertex 6.5 -5.5 -1.0103335938257594e-15
			vertex 6.5 -1.5001923348598265e-15 0
		endloop
	endfacet
	facet normal 1 0 0
		outer loop
			vertex 6.5 -5.41644287109375 0.9550649523735046
			vertex 6.5 -5.479070663452148 0.479356586933136
			vertex 6.5 -1.5001923348598265e-15 0
		endloop
	endfacet
	facet normal 1 0 0
		outer loop
			vertex 6.5 -5.312592029571533 1.4235047101974487
			vertex 6.5 -5.41644287109375 0.9550649523735046
			vertex 6.5 -1.5001923348598265e-15 0
		endloop
	endfacet
	facet normal 1 0 0
		outer loop
			vertex 6.5 -5.168309211730957 1.8811107873916626
			vertex 6.5 -5.312592029571533 1.4235047101974487
			vertex 6.5 -1.5001923348598265e-15 0
		endloop
	endfacet
	facet normal 1 0 0
		outer loop
			vertex 6.5 -4.9846930503845215 2.3244004249572754
			vertex 6.5 -5.168309211730957 1.8811107873916626
			vertex 6.5 -1.5001923348598265e-15 0
		endloop
	endfacet
	facet normal 1 0 0
		outer loop
			vertex 6.5 -4.763139724731445 2.75
			vertex 6.5 -4.9846930503845215 2.3244004249572754
			vertex 6.5 -1.5001923348598265e-15 0
		endloop
	endfacet
	facet normal 1 0 0
		outer loop
			vertex 6.5 -4.505336284637451 3.154670476913452
			vertex 6.5 -4.763139724731445 2.75
			vertex 6.5 -1.5001923348598265e-15 0
		endloop
	endfacet
	facet normal 1 0 0
		outer loop
			vertex 6.5 -4.213244438171387 3.535331964492798
			vertex 6.5 -4.505336284637451 3.154670476913452
			vertex 6.5 -1.5001923348598265e-15 0
		endloop
	endfacet
	facet normal 1 0 0
		outer loop
			vertex 6.5 -3.889087200164795 3.889087200164795
			vertex 6.5 -4.213244438171387 3.535331964492798
			vertex 6.5 -1.5001923348598265e-15 0
		endloop
	endfacet
	facet normal 1 0 0
		outer loop
			vertex 6.5 -3.535331964492798 4.213244438171387
			vertex 6.5 -3.889087200164795 3.889087200164795
			vertex 6.5 -1.5001923348598265e-15 0
		endloop
	endfacet
	facet normal 1 0 0
		outer loop
			vertex 6.5 -3.154670476913452 4.505336284637451
			vertex 6.5 -3.535331964492798 4.213244438171387
			vertex 6.5 -1.5001923348598265e-15 0
		endloop
	endfacet
	facet normal 1 0 0
		outer loop
			vertex 6.5 -2.75 4.763139724731445
			vertex 6.5 -3.154670476913452 4.505336284637451
			vertex 6.5 -1.5001923348598265e-15 0
		endloop
	endfacet
	facet normal 1 0 0
		outer loop
			vertex 6.5 -2.3244004249572754 4.9846930503845215
			vertex 6.5 -2.75 4.763139724731445
			vertex 6.5 -1.5001923348598265e-15 0
		endloop
	endfacet
	facet normal 1 0 0
		outer loop
			vertex 6.5 -1.8811107873916626 5.168309211730957
			vertex 6.5 -2.3244004249572754 4.9846930503845215
			vertex 6.5 -1.5001923348598265e-15 0
		endloop
	endfacet
	facet normal 1 0 0
		outer loop
			vertex 6.5 -1.4235047101974487 5.312592029571533
			vertex 6.5 -1.8811107873916626 5.168309211730957
			vertex 6.5 -1.5001923348598265e-15 0
		endloop
	endfacet
	facet normal 1 0 0
		outer loop
			vertex 6.5 -0.9550649523735046 5.41644287109375
			vertex 6.5 -1.4235047101974487 5.312592029571533
			vertex 6.5 -1.5001923348598265e-15 0
		endloop
	endfacet
	facet normal 1 0 0
		outer loop
			vertex 6.5 -0.479356586933136 5.479070663452148
			vertex 6.5 -0.9550649523735046 5.41644287109375
			vertex 6.5 -1.5001923348598265e-15 0
		endloop
	endfacet
	facet normal 1 0 0
		outer loop
			vertex 6.5 -2.8473037932941724e-15 5.5
			vertex 6.5 -0.479356586933136 5.479070663452148
			vertex 6.5 -1.5001923348598265e-15 0
		endloop
	endfacet
endsolid exported
