<svg xmlns="http://www.w3.org/2000/svg" width="2240" height="1160" viewBox="0 0 2240 1160">
<defs>
  <pattern id="hatch-1" patternUnits="userSpaceOnUse" width="5.5" height="5.5" patternTransform="rotate(45)">
    <line x1="0" y1="0" x2="0" y2="5.5" stroke="#FFFFFF" stroke-width="1.6" stroke-opacity="0.55"/>
  </pattern>
  <pattern id="hatch-2" patternUnits="userSpaceOnUse" width="3.2" height="3.2" patternTransform="rotate(45)">
    <line x1="0" y1="0" x2="0" y2="3.2" stroke="#FFFFFF" stroke-width="1.3" stroke-opacity="0.7"/>
  </pattern>
</defs>
<rect width="100%" height="100%" fill="#FFFFFF"/>
<line x1="180.00" y1="990.00" x2="2208.00" y2="990.00" stroke="#E6EAF0" stroke-width="0.75"/>
<text x="170.00" y="990.00" fill="#000000" font-family="Times New Roman" font-size="40.0" font-weight="400" text-anchor="end" dominant-baseline="middle">0</text>
<line x1="180.00" y1="822.00" x2="2208.00" y2="822.00" stroke="#E6EAF0" stroke-width="0.75"/>
<text x="170.00" y="822.00" fill="#000000" font-family="Times New Roman" font-size="40.0" font-weight="400" text-anchor="end" dominant-baseline="middle">20</text>
<line x1="180.00" y1="654.00" x2="2208.00" y2="654.00" stroke="#E6EAF0" stroke-width="0.75"/>
<text x="170.00" y="654.00" fill="#000000" font-family="Times New Roman" font-size="40.0" font-weight="400" text-anchor="end" dominant-baseline="middle">40</text>
<line x1="180.00" y1="486.00" x2="2208.00" y2="486.00" stroke="#E6EAF0" stroke-width="0.75"/>
<text x="170.00" y="486.00" fill="#000000" font-family="Times New Roman" font-size="40.0" font-weight="400" text-anchor="end" dominant-baseline="middle">60</text>
<line x1="180.00" y1="318.00" x2="2208.00" y2="318.00" stroke="#E6EAF0" stroke-width="0.75"/>
<text x="170.00" y="318.00" fill="#000000" font-family="Times New Roman" font-size="40.0" font-weight="400" text-anchor="end" dominant-baseline="middle">80</text>
<line x1="180.00" y1="150.00" x2="2208.00" y2="150.00" stroke="#E6EAF0" stroke-width="0.75"/>
<text x="170.00" y="150.00" fill="#000000" font-family="Times New Roman" font-size="40.0" font-weight="400" text-anchor="end" dominant-baseline="middle">100</text>
<line x1="180.00" y1="150.00" x2="180.00" y2="990.00" stroke="#CAD2DD" stroke-width="0.9"/>
<line x1="180.00" y1="990.00" x2="2208.00" y2="990.00" stroke="#CAD2DD" stroke-width="0.9"/>
<text x="70.00" y="570.00" fill="#000000" font-family="Times New Roman" font-size="42.0" font-weight="600" text-anchor="middle" dominant-baseline="middle" transform="rotate(-90 70.00 570.00)">Score</text>
<rect x="246.00" y="278.10" width="56.00" height="711.90" fill="#304771"/>
<text x="274.00" y="260.10" fill="#000000" font-family="Times New Roman" font-size="32.0" font-weight="600" text-anchor="middle" dominant-baseline="middle">84.7</text>
<g transform="translate(253.0000 1011.0000) scale(1.750000)" fill-rule="evenodd" fill="#202123"><path d="M9.205 8.658v-2.26c0-.19.072-.333.238-.428l4.543-2.616c.619-.357 1.356-.523 2.117-.523 2.854 0 4.662 2.212 4.662 4.566 0 .167 0 .357-.024.547l-4.71-2.759a.797.797 0 00-.856 0l-5.97 3.473zm10.609 8.8V12.06c0-.333-.143-.57-.429-.737l-5.97-3.473 1.95-1.118a.433.433 0 01.476 0l4.543 2.617c1.309.76 2.189 2.378 2.189 3.948 0 1.808-1.07 3.473-2.76 4.163zM7.802 12.703l-1.95-1.142c-.167-.095-.239-.238-.239-.428V5.899c0-2.545 1.95-4.472 4.591-4.472 1 0 1.927.333 2.712.928L8.23 5.067c-.285.166-.428.404-.428.737v6.898zM12 15.128l-2.795-1.57v-3.33L12 8.658l2.795 1.57v3.33L12 15.128zm1.796 7.23c-1 0-1.927-.332-2.712-.927l4.686-2.712c.285-.166.428-.404.428-.737v-6.898l1.974 1.142c.167.095.238.238.238.428v5.233c0 2.545-1.974 4.472-4.614 4.472zm-5.637-5.303l-4.544-2.617c-1.308-.761-2.188-2.378-2.188-3.948A4.482 4.482 0 014.21 6.327v5.423c0 .333.143.571.428.738l5.947 3.449-1.95 1.118a.432.432 0 01-.476 0zm-.262 3.9c-2.688 0-4.662-2.021-4.662-4.519 0-.19.024-.38.047-.57l4.686 2.71c.286.167.571.167.856 0l5.97-3.448v2.26c0 .19-.07.333-.237.428l-4.543 2.616c-.619.357-1.356.523-2.117.523zm5.899 2.83a5.947 5.947 0 005.827-4.756C22.287 18.339 24 15.84 24 13.296c0-1.665-.713-3.282-1.998-4.448.119-.5.19-.999.19-1.498 0-3.401-2.759-5.947-5.946-5.947-.642 0-1.26.095-1.88.31A5.962 5.962 0 0010.205 0a5.947 5.947 0 00-5.827 4.757C1.713 5.447 0 7.945 0 10.49c0 1.666.713 3.283 1.998 4.448-.119.5-.19 1-.19 1.499 0 3.401 2.759 5.946 5.946 5.946.642 0 1.26-.095 1.88-.309a5.96 5.96 0 004.162 1.713z"></path></g>
<rect x="316.00" y="289.02" width="56.00" height="700.98" fill="#3F5E8B"/>
<text x="344.00" y="271.02" fill="#000000" font-family="Times New Roman" font-size="32.0" font-weight="600" text-anchor="middle" dominant-baseline="middle">83.5</text>
<g transform="translate(323.0000 1011.0000) scale(1.750000)" fill-rule="evenodd" fill="#14B86A"><path d="M20.616 10.835a14.147 14.147 0 01-4.45-3.001 14.111 14.111 0 01-3.678-6.452.503.503 0 00-.975 0 14.134 14.134 0 01-3.679 6.452 14.155 14.155 0 01-4.45 3.001c-.65.28-1.318.505-2.002.678a.502.502 0 000 .975c.684.172 1.35.397 2.002.677a14.147 14.147 0 014.45 3.001 14.112 14.112 0 013.679 6.453.502.502 0 00.975 0c.172-.685.397-1.351.677-2.003a14.145 14.145 0 013.001-4.45 14.113 14.113 0 016.453-3.678.503.503 0 000-.975 13.245 13.245 0 01-2.003-.678z" fill="#3186FF"></path><path d="M20.616 10.835a14.147 14.147 0 01-4.45-3.001 14.111 14.111 0 01-3.678-6.452.503.503 0 00-.975 0 14.134 14.134 0 01-3.679 6.452 14.155 14.155 0 01-4.45 3.001c-.65.28-1.318.505-2.002.678a.502.502 0 000 .975c.684.172 1.35.397 2.002.677a14.147 14.147 0 014.45 3.001 14.112 14.112 0 013.679 6.453.502.502 0 00.975 0c.172-.685.397-1.351.677-2.003a14.145 14.145 0 013.001-4.45 14.113 14.113 0 016.453-3.678.503.503 0 000-.975 13.245 13.245 0 01-2.003-.678z" fill="url(#gemini-s0-1-lobe-icons-gemini-0-_R_0_)"></path><path d="M20.616 10.835a14.147 14.147 0 01-4.45-3.001 14.111 14.111 0 01-3.678-6.452.503.503 0 00-.975 0 14.134 14.134 0 01-3.679 6.452 14.155 14.155 0 01-4.45 3.001c-.65.28-1.318.505-2.002.678a.502.502 0 000 .975c.684.172 1.35.397 2.002.677a14.147 14.147 0 014.45 3.001 14.112 14.112 0 013.679 6.453.502.502 0 00.975 0c.172-.685.397-1.351.677-2.003a14.145 14.145 0 013.001-4.45 14.113 14.113 0 016.453-3.678.503.503 0 000-.975 13.245 13.245 0 01-2.003-.678z" fill="url(#gemini-s0-1-lobe-icons-gemini-1-_R_0_)"></path><path d="M20.616 10.835a14.147 14.147 0 01-4.45-3.001 14.111 14.111 0 01-3.678-6.452.503.503 0 00-.975 0 14.134 14.134 0 01-3.679 6.452 14.155 14.155 0 01-4.45 3.001c-.65.28-1.318.505-2.002.678a.502.502 0 000 .975c.684.172 1.35.397 2.002.677a14.147 14.147 0 014.45 3.001 14.112 14.112 0 013.679 6.453.502.502 0 00.975 0c.172-.685.397-1.351.677-2.003a14.145 14.145 0 013.001-4.45 14.113 14.113 0 016.453-3.678.503.503 0 000-.975 13.245 13.245 0 01-2.003-.678z" fill="url(#gemini-s0-1-lobe-icons-gemini-2-_R_0_)"></path><defs><linearGradient gradientUnits="userSpaceOnUse" id="gemini-s0-1-lobe-icons-gemini-0-_R_0_" x1="7" x2="11" y1="15.5" y2="12"><stop stop-color="#08B962"></stop><stop offset="1" stop-color="#08B962" stop-opacity="0"></stop></linearGradient><linearGradient gradientUnits="userSpaceOnUse" id="gemini-s0-1-lobe-icons-gemini-1-_R_0_" x1="8" x2="11.5" y1="5.5" y2="11"><stop stop-color="#F94543"></stop><stop offset="1" stop-color="#F94543" stop-opacity="0"></stop></linearGradient><linearGradient gradientUnits="userSpaceOnUse" id="gemini-s0-1-lobe-icons-gemini-2-_R_0_" x1="3.5" x2="17.5" y1="13.5" y2="12"><stop stop-color="#FABC12"></stop><stop offset=".46" stop-color="#FABC12" stop-opacity="0"></stop></linearGradient></defs></g>
<rect x="386.00" y="292.17" width="56.00" height="697.83" fill="#4E779E"/>
<text x="414.00" y="274.17" fill="#000000" font-family="Times New Roman" font-size="32.0" font-weight="600" text-anchor="middle" dominant-baseline="middle">83.1</text>
<g transform="translate(393.0000 1011.0000) scale(1.750000)" fill-rule="evenodd" fill="#D97757"><path d="M4.709 15.955l4.72-2.647.08-.23-.08-.128H9.2l-.79-.048-2.698-.073-2.339-.097-2.266-.122-.571-.121L0 11.784l.055-.352.48-.321.686.06 1.52.103 2.278.158 1.652.097 2.449.255h.389l.055-.157-.134-.098-.103-.097-2.358-1.596-2.552-1.688-1.336-.972-.724-.491-.364-.462-.158-1.008.656-.722.881.06.225.061.893.686 1.908 1.476 2.491 1.833.365.304.145-.103.019-.073-.164-.274-1.355-2.446-1.446-2.49-.644-1.032-.17-.619a2.97 2.97 0 01-.104-.729L6.283.134 6.696 0l.996.134.42.364.62 1.414 1.002 2.229 1.555 3.03.456.898.243.832.091.255h.158V9.01l.128-1.706.237-2.095.23-2.695.08-.76.376-.91.747-.492.584.28.48.685-.067.444-.286 1.851-.559 2.903-.364 1.942h.212l.243-.242.985-1.306 1.652-2.064.73-.82.85-.904.547-.431h1.033l.76 1.129-.34 1.166-1.064 1.347-.881 1.142-1.264 1.7-.79 1.36.073.11.188-.02 2.856-.606 1.543-.28 1.841-.315.833.388.091.395-.328.807-1.969.486-2.309.462-3.439.813-.042.03.049.061 1.549.146.662.036h1.622l3.02.225.79.522.474.638-.079.485-1.215.62-1.64-.389-3.829-.91-1.312-.329h-.182v.11l1.093 1.068 2.006 1.81 2.509 2.33.127.578-.322.455-.34-.049-2.205-1.657-.851-.747-1.926-1.62h-.128v.17l.444.649 2.345 3.521.122 1.08-.17.353-.608.213-.668-.122-1.374-1.925-1.415-2.167-1.143-1.943-.14.08-.674 7.254-.316.37-.729.28-.607-.461-.322-.747.322-1.476.389-1.924.315-1.53.286-1.9.17-.632-.012-.042-.14.018-1.434 1.967-2.18 2.945-1.726 1.845-.414.164-.717-.37.067-.662.401-.589 2.388-3.036 1.44-1.882.93-1.086-.006-.158h-.055L4.132 18.56l-1.13.146-.487-.456.061-.746.231-.243 1.908-1.312-.006.006z" fill="#D97757" fill-rule="nonzero"></path></g>
<rect x="456.00" y="320.94" width="56.00" height="669.06" fill="#6993AB"/>
<text x="484.00" y="302.94" fill="#000000" font-family="Times New Roman" font-size="32.0" font-weight="600" text-anchor="middle" dominant-baseline="middle">79.7</text>
<rect x="463.00" y="1011.00" width="42.00" height="42.00" fill="#050505" rx="9.24" ry="9.24"/>
<g transform="translate(468.4600 1016.4600) scale(1.295000)" fill-rule="evenodd" fill="#1783FF"><path d="M21.846 0a1.923 1.923 0 110 3.846H20.15a.226.226 0 01-.227-.226V1.923C19.923.861 20.784 0 21.846 0z" fill="#1783FF"></path><path d="M11.065 11.199l7.257-7.2c.137-.136.06-.41-.116-.41H14.3a.164.164 0 00-.117.051l-7.82 7.756c-.122.12-.302.013-.302-.179V3.82c0-.127-.083-.23-.185-.23H3.186c-.103 0-.186.103-.186.23V19.77c0 .128.083.23.186.23h2.69c.103 0 .186-.102.186-.23v-3.25c0-.069.025-.135.069-.178l2.424-2.406a.158.158 0 01.205-.023l6.484 4.772a7.677 7.677 0 003.453 1.283c.108.012.2-.095.2-.23v-3.06c0-.117-.07-.212-.164-.227a5.028 5.028 0 01-2.027-.807l-5.613-4.064c-.117-.078-.132-.279-.028-.381z" fill="#fff"></path></g>
<rect x="526.00" y="333.33" width="56.00" height="656.67" fill="#83ADB4"/>
<text x="554.00" y="315.33" fill="#000000" font-family="Times New Roman" font-size="32.0" font-weight="600" text-anchor="middle" dominant-baseline="middle">78.2</text>
<g transform="translate(533.8400 1011.8400) scale(1.680000)" fill-rule="evenodd"><path d="M12.105 2L9.927 4.953H.653L2.83 2h9.276zM23.254 19.048L21.078 22h-9.242l2.174-2.952h9.244zM24 2L9.264 22H0L14.736 2H24z"></path></g>
<rect x="596.00" y="362.10" width="56.00" height="627.90" fill="#B0C2B8"/>
<text x="624.00" y="344.10" fill="#000000" font-family="Times New Roman" font-size="32.0" font-weight="600" text-anchor="middle" dominant-baseline="middle">74.8</text>
<g transform="translate(603.0000 1011.0000) scale(1.750000)" fill-rule="evenodd" fill="#FF6003"><path d="M12.604 1.34c.393.69.784 1.382 1.174 2.075a.18.18 0 00.157.091h5.552c.174 0 .322.11.446.327l1.454 2.57c.19.337.24.478.024.837-.26.43-.513.864-.76 1.3l-.367.658c-.106.196-.223.28-.04.512l2.652 4.637c.172.301.111.494-.043.77-.437.785-.882 1.564-1.335 2.34-.159.272-.352.375-.68.37-.777-.016-1.552-.01-2.327.016a.099.099 0 00-.081.05 575.097 575.097 0 01-2.705 4.74c-.169.293-.38.363-.725.364-.997.003-2.002.004-3.017.002a.537.537 0 01-.465-.271l-1.335-2.323a.09.09 0 00-.083-.049H4.982c-.285.03-.553-.001-.805-.092l-1.603-2.77a.543.543 0 01-.002-.54l1.207-2.12a.198.198 0 000-.197 550.951 550.951 0 01-1.875-3.272l-.79-1.395c-.16-.31-.173-.496.095-.965.465-.813.927-1.625 1.387-2.436.132-.234.304-.334.584-.335a338.3 338.3 0 012.589-.001.124.124 0 00.107-.063l2.806-4.895a.488.488 0 01.422-.246c.524-.001 1.053 0 1.583-.006L11.704 1c.341-.003.724.032.9.34zm-3.432.403a.06.06 0 00-.052.03L6.254 6.788a.157.157 0 01-.135.078H3.253c-.056 0-.07.025-.041.074l5.81 10.156c.025.042.013.062-.034.063l-2.795.015a.218.218 0 00-.2.116l-1.32 2.31c-.044.078-.021.118.068.118l5.716.008c.046 0 .08.02.104.061l1.403 2.454c.046.081.092.082.139 0l5.006-8.76.783-1.382a.055.055 0 01.096 0l1.424 2.53a.122.122 0 00.107.062l2.763-.02a.04.04 0 00.035-.02.041.041 0 000-.04l-2.9-5.086a.108.108 0 010-.113l.293-.507 1.12-1.977c.024-.041.012-.062-.035-.062H9.2c-.059 0-.073-.026-.043-.077l1.434-2.505a.107.107 0 000-.114L9.225 1.774a.06.06 0 00-.053-.031zm6.29 8.02c.046 0 .058.02.034.06l-.832 1.465-2.613 4.585a.056.056 0 01-.05.029.058.058 0 01-.05-.029L8.498 9.841c-.02-.034-.01-.052.028-.054l.216-.012 6.722-.012z" fill="url(#qwen-s0-5-lobe-icons-qwen-_R_0_)" fill-rule="nonzero"></path><defs><linearGradient id="qwen-s0-5-lobe-icons-qwen-_R_0_" x1="0%" x2="100%" y1="0%" y2="0%"><stop offset="0%" stop-color="#6336E7" stop-opacity=".84"></stop><stop offset="100%" stop-color="#6F69F7" stop-opacity=".84"></stop></linearGradient></defs></g>
<rect x="666.00" y="364.83" width="56.00" height="625.17" fill="#DCC8AE"/>
<text x="694.00" y="346.83" fill="#000000" font-family="Times New Roman" font-size="32.0" font-weight="600" text-anchor="middle" dominant-baseline="middle">74.4</text>
<g transform="translate(676.3600 1014.3600) scale(1.470000)" fill-rule="evenodd" fill="#202123"><path d="M.958 15.936a.459.459 0 01.459.44v2.729a.46.46 0 01-.918 0v-2.729a.459.459 0 01.459-.44zm4.814-2.035a.46.46 0 01.553.45v4.754a.458.458 0 11-.918 0V15.48L3.74 17.202a.462.462 0 01-.655.016.462.462 0 01-.065-.082L.628 14.67a.459.459 0 01.658-.637l2.124 2.187 2.127-2.188a.46.46 0 01.235-.13zm2.068.004a.46.46 0 01.458.445v4.755a.46.46 0 01-.458.458.459.459 0 01-.458-.458V14.35a.459.459 0 01.458-.445zm1.973 2.014a.46.46 0 01.46.457v2.729a.46.46 0 01-.784.324.46.46 0 01-.134-.324v-2.729a.46.46 0 01.458-.458zm.002-2.045a.458.458 0 01.328.157l2.127 2.19 2.125-2.19a.459.459 0 01.784.318v4.756a.46.46 0 01-.455.458.46.46 0 01-.458-.458V15.48l-1.667 1.723a.46.46 0 01-.65.008l-.005-.005c0-.002-.002-.002-.004-.003l-2.455-2.534a.46.46 0 01-.008-.667.461.461 0 01.338-.128zm6.797 1.206a.46.46 0 01.53.651A1.966 1.966 0 0019.81 18.4a.462.462 0 01.623.18.46.46 0 01-.181.624 2.863 2.863 0 01-1.38.353l-.142-.004a2.88 2.88 0 01-2.393-4.263.461.461 0 01.274-.21zm.864-.931a2.884 2.884 0 013.915 3.914.46.46 0 01-.402.24l-.057-.004a.458.458 0 01-.164-.055.46.46 0 01-.182-.622 1.967 1.967 0 00-2.669-2.67.459.459 0 11-.441-.803zM9.59 6.368c1.481 0 1.696 1.202 1.696 1.654v2.648h-.917v-.432c-.26.346-.792.535-1.36.535-.133 0-1.289-.03-1.384-1.136-.082-.932.675-1.61 2.053-1.61h.691c0-.563-.367-.886-.983-.886-.44.013-.864.174-1.2.458l-.36-.664c.484-.379 1.012-.567 1.764-.567zm4.427.1c1.263 0 2.082.97 2.083 2.15 0 1.181-.824 2.154-2.083 2.154-1.26 0-2.084-.972-2.084-2.152 0-1.18.82-2.153 2.084-2.153zm6.801.015c.68 0 1.202.465 1.197 1.548v2.642H21.1V8.29c0-.312-.002-.98-.63-.98s-.628.667-.628.838v2.524h-.89V8.148c0-.17-.001-.838-.63-.838-.628 0-.628.668-.628.98v2.383h-.917v-4.03h.917V7a1.22 1.22 0 01.947-.516c.398 0 .76.193.982.686a1.321 1.321 0 011.195-.686zm-18.093.872l1.457-1.772H5.32L3.311 8.07l2.14 2.602H4.24L2.725 8.796 1.21 10.672H0L2.138 8.07.13 5.583h1.138l1.458 1.772zm4.149 3.317h-.916V6.644h.916v4.028zm16.99 0h-.916V6.644h.916v4.028zM9.925 8.71c-1.055 0-1.359.412-1.326.742.032.329.324.537.757.537a1.013 1.013 0 001.014-.968l.002-.31h-.447zM14.018 7.3c-.663 0-1.184.487-1.184 1.32 0 .832.52 1.32 1.184 1.32.662 0 1.182-.49 1.182-1.32 0-.832-.52-1.32-1.182-1.32zM6.417 5.001a.568.568 0 01.587.582.588.588 0 01-1.175 0A.57.57 0 016.417 5zm16.991 0a.57.57 0 01.592.582.588.588 0 01-1.174 0 .57.57 0 01.357-.542.572.572 0 01.225-.04z"></path></g>
<rect x="736.00" y="349.50" width="56.00" height="640.50" fill="#EDD7C0"/>
<text x="764.00" y="331.50" fill="#000000" font-family="Times New Roman" font-size="32.0" font-weight="600" text-anchor="middle" dominant-baseline="middle">76.2</text>
<g transform="translate(743.0000 1011.0000) scale(1.750000)" fill-rule="evenodd" fill="#00A6B8"><path d="M5.31 15.756c.172-3.75 1.883-5.999 2.549-6.739-3.26 2.058-5.425 5.658-6.358 8.308v1.12C1.501 21.513 4.226 24 7.59 24a6.59 6.59 0 002.2-.375c.353-.12.7-.248 1.039-.378.913-.899 1.65-1.91 2.243-2.992-4.877 2.431-7.974.072-7.763-4.5l.002.001z" fill="#1E37FC"></path><path d="M22.57 10.283c-1.212-.901-4.109-2.404-7.397-2.8.295 3.792.093 8.766-2.1 12.773a12.782 12.782 0 01-2.244 2.992c3.764-1.448 6.746-3.457 8.596-5.219 2.82-2.683 3.353-5.178 3.361-6.66a2.737 2.737 0 00-.216-1.084v-.002z" fill="#37E1BE"></path><path d="M14.303 1.867C12.955.7 11.248 0 9.39 0 7.532 0 5.883.677 4.545 1.807 2.791 3.29 1.627 5.557 1.5 8.125v9.201c.932-2.65 3.097-6.25 6.357-8.307.5-.318 1.025-.595 1.569-.829 1.883-.801 3.878-.932 5.746-.706-.222-2.83-.718-5.002-.87-5.617h.001z" fill="#A569FF"></path><path d="M17.305 4.961a199.47 199.47 0 01-1.08-1.094c-.202-.213-.398-.419-.586-.622l-1.333-1.378c.151.615.648 2.786.869 5.617 3.288.395 6.185 1.898 7.396 2.8-1.306-1.275-3.475-3.487-5.266-5.323z" fill="#1E37FC"></path></g>
<rect x="806.00" y="350.13" width="56.00" height="639.87" fill="#E3C49C"/>
<text x="834.00" y="332.13" fill="#000000" font-family="Times New Roman" font-size="32.0" font-weight="600" text-anchor="middle" dominant-baseline="middle">76.2</text>
<g transform="translate(813.0000 1011.0000) scale(1.750000)" fill-rule="evenodd" fill="#4D6BFE"><path d="M23.748 4.482c-.254-.124-.364.113-.512.234-.051.039-.094.09-.137.136-.372.397-.806.657-1.373.626-.829-.046-1.537.214-2.163.848-.133-.782-.575-1.248-1.247-1.548-.352-.156-.708-.311-.955-.65-.172-.241-.219-.51-.305-.774-.055-.16-.11-.323-.293-.35-.2-.031-.278.136-.356.276-.313.572-.434 1.202-.422 1.84.027 1.436.633 2.58 1.838 3.393.137.093.172.187.129.323-.082.28-.18.552-.266.833-.055.179-.137.217-.329.14a5.526 5.526 0 01-1.736-1.18c-.857-.828-1.631-1.742-2.597-2.458a11.365 11.365 0 00-.689-.471c-.985-.957.13-1.743.388-1.836.27-.098.093-.432-.779-.428-.872.004-1.67.295-2.687.684a3.055 3.055 0 01-.465.137 9.597 9.597 0 00-2.883-.102c-1.885.21-3.39 1.102-4.497 2.623C.082 8.606-.231 10.684.152 12.85c.403 2.284 1.569 4.175 3.36 5.653 1.858 1.533 3.997 2.284 6.438 2.14 1.482-.085 3.133-.284 4.994-1.86.47.234.962.327 1.78.397.63.059 1.236-.03 1.705-.128.735-.156.684-.837.419-.961-2.155-1.004-1.682-.595-2.113-.926 1.096-1.296 2.746-2.642 3.392-7.003.05-.347.007-.565 0-.845-.004-.17.035-.237.23-.256a4.173 4.173 0 001.545-.475c1.396-.763 1.96-2.015 2.093-3.517.02-.23-.004-.467-.247-.588zM11.581 18c-2.089-1.642-3.102-2.183-3.52-2.16-.392.024-.321.471-.235.763.09.288.207.486.371.739.114.167.192.416-.113.603-.673.416-1.842-.14-1.897-.167-1.361-.802-2.5-1.86-3.301-3.307-.774-1.393-1.224-2.887-1.298-4.482-.02-.386.093-.522.477-.592a4.696 4.696 0 011.529-.039c2.132.312 3.946 1.265 5.468 2.774.868.86 1.525 1.887 2.202 2.891.72 1.066 1.494 2.082 2.48 2.914.348.292.625.514.891.677-.802.09-2.14.11-3.054-.614zm1-6.44a.306.306 0 01.415-.287.302.302 0 01.2.288.306.306 0 01-.31.307.303.303 0 01-.304-.308zm3.11 1.596c-.2.081-.399.151-.59.16a1.245 1.245 0 01-.798-.254c-.274-.23-.47-.358-.552-.758a1.73 1.73 0 01.016-.588c.07-.327-.008-.537-.239-.727-.187-.156-.426-.199-.688-.199a.559.559 0 01-.254-.078c-.11-.054-.2-.19-.114-.358.028-.054.16-.186.192-.21.356-.202.767-.136 1.146.016.352.144.618.408 1.001.782.391.451.462.576.685.914.176.265.336.537.445.848.067.195-.019.354-.25.452z" fill="#4D6BFE"></path></g>
<text x="554.00" y="1112.00" fill="#000000" font-family="Times New Roman" font-size="44.0" font-weight="700" text-anchor="middle" dominant-baseline="middle">Text-to-3D</text>
<line x1="909.00" y1="150.00" x2="909.00" y2="990.00" stroke="#E6EAF0" stroke-width="0.8" stroke-dasharray="3 3"/>
<rect x="956.00" y="423.00" width="56.00" height="567.00" fill="#304771"/>
<text x="984.00" y="405.00" fill="#000000" font-family="Times New Roman" font-size="32.0" font-weight="600" text-anchor="middle" dominant-baseline="middle">67.5</text>
<g transform="translate(963.0000 1011.0000) scale(1.750000)" fill-rule="evenodd" fill="#202123"><path d="M9.205 8.658v-2.26c0-.19.072-.333.238-.428l4.543-2.616c.619-.357 1.356-.523 2.117-.523 2.854 0 4.662 2.212 4.662 4.566 0 .167 0 .357-.024.547l-4.71-2.759a.797.797 0 00-.856 0l-5.97 3.473zm10.609 8.8V12.06c0-.333-.143-.57-.429-.737l-5.97-3.473 1.95-1.118a.433.433 0 01.476 0l4.543 2.617c1.309.76 2.189 2.378 2.189 3.948 0 1.808-1.07 3.473-2.76 4.163zM7.802 12.703l-1.95-1.142c-.167-.095-.239-.238-.239-.428V5.899c0-2.545 1.95-4.472 4.591-4.472 1 0 1.927.333 2.712.928L8.23 5.067c-.285.166-.428.404-.428.737v6.898zM12 15.128l-2.795-1.57v-3.33L12 8.658l2.795 1.57v3.33L12 15.128zm1.796 7.23c-1 0-1.927-.332-2.712-.927l4.686-2.712c.285-.166.428-.404.428-.737v-6.898l1.974 1.142c.167.095.238.238.238.428v5.233c0 2.545-1.974 4.472-4.614 4.472zm-5.637-5.303l-4.544-2.617c-1.308-.761-2.188-2.378-2.188-3.948A4.482 4.482 0 014.21 6.327v5.423c0 .333.143.571.428.738l5.947 3.449-1.95 1.118a.432.432 0 01-.476 0zm-.262 3.9c-2.688 0-4.662-2.021-4.662-4.519 0-.19.024-.38.047-.57l4.686 2.71c.286.167.571.167.856 0l5.97-3.448v2.26c0 .19-.07.333-.237.428l-4.543 2.616c-.619.357-1.356.523-2.117.523zm5.899 2.83a5.947 5.947 0 005.827-4.756C22.287 18.339 24 15.84 24 13.296c0-1.665-.713-3.282-1.998-4.448.119-.5.19-.999.19-1.498 0-3.401-2.759-5.947-5.946-5.947-.642 0-1.26.095-1.88.31A5.962 5.962 0 0010.205 0a5.947 5.947 0 00-5.827 4.757C1.713 5.447 0 7.945 0 10.49c0 1.666.713 3.283 1.998 4.448-.119.5-.19 1-.19 1.499 0 3.401 2.759 5.946 5.946 5.946.642 0 1.26-.095 1.88-.309a5.96 5.96 0 004.162 1.713z"></path></g>
<rect x="1026.00" y="429.44" width="56.00" height="560.56" fill="#3F5E8B"/>
<text x="1054.00" y="411.44" fill="#000000" font-family="Times New Roman" font-size="32.0" font-weight="600" text-anchor="middle" dominant-baseline="middle">66.7</text>
<g transform="translate(1033.0000 1011.0000) scale(1.750000)" fill-rule="evenodd" fill="#14B86A"><path d="M20.616 10.835a14.147 14.147 0 01-4.45-3.001 14.111 14.111 0 01-3.678-6.452.503.503 0 00-.975 0 14.134 14.134 0 01-3.679 6.452 14.155 14.155 0 01-4.45 3.001c-.65.28-1.318.505-2.002.678a.502.502 0 000 .975c.684.172 1.35.397 2.002.677a14.147 14.147 0 014.45 3.001 14.112 14.112 0 013.679 6.453.502.502 0 00.975 0c.172-.685.397-1.351.677-2.003a14.145 14.145 0 013.001-4.45 14.113 14.113 0 016.453-3.678.503.503 0 000-.975 13.245 13.245 0 01-2.003-.678z" fill="#3186FF"></path><path d="M20.616 10.835a14.147 14.147 0 01-4.45-3.001 14.111 14.111 0 01-3.678-6.452.503.503 0 00-.975 0 14.134 14.134 0 01-3.679 6.452 14.155 14.155 0 01-4.45 3.001c-.65.28-1.318.505-2.002.678a.502.502 0 000 .975c.684.172 1.35.397 2.002.677a14.147 14.147 0 014.45 3.001 14.112 14.112 0 013.679 6.453.502.502 0 00.975 0c.172-.685.397-1.351.677-2.003a14.145 14.145 0 013.001-4.45 14.113 14.113 0 016.453-3.678.503.503 0 000-.975 13.245 13.245 0 01-2.003-.678z" fill="url(#gemini-s1-1-lobe-icons-gemini-0-_R_0_)"></path><path d="M20.616 10.835a14.147 14.147 0 01-4.45-3.001 14.111 14.111 0 01-3.678-6.452.503.503 0 00-.975 0 14.134 14.134 0 01-3.679 6.452 14.155 14.155 0 01-4.45 3.001c-.65.28-1.318.505-2.002.678a.502.502 0 000 .975c.684.172 1.35.397 2.002.677a14.147 14.147 0 014.45 3.001 14.112 14.112 0 013.679 6.453.502.502 0 00.975 0c.172-.685.397-1.351.677-2.003a14.145 14.145 0 013.001-4.45 14.113 14.113 0 016.453-3.678.503.503 0 000-.975 13.245 13.245 0 01-2.003-.678z" fill="url(#gemini-s1-1-lobe-icons-gemini-1-_R_0_)"></path><path d="M20.616 10.835a14.147 14.147 0 01-4.45-3.001 14.111 14.111 0 01-3.678-6.452.503.503 0 00-.975 0 14.134 14.134 0 01-3.679 6.452 14.155 14.155 0 01-4.45 3.001c-.65.28-1.318.505-2.002.678a.502.502 0 000 .975c.684.172 1.35.397 2.002.677a14.147 14.147 0 014.45 3.001 14.112 14.112 0 013.679 6.453.502.502 0 00.975 0c.172-.685.397-1.351.677-2.003a14.145 14.145 0 013.001-4.45 14.113 14.113 0 016.453-3.678.503.503 0 000-.975 13.245 13.245 0 01-2.003-.678z" fill="url(#gemini-s1-1-lobe-icons-gemini-2-_R_0_)"></path><defs><linearGradient gradientUnits="userSpaceOnUse" id="gemini-s1-1-lobe-icons-gemini-0-_R_0_" x1="7" x2="11" y1="15.5" y2="12"><stop stop-color="#08B962"></stop><stop offset="1" stop-color="#08B962" stop-opacity="0"></stop></linearGradient><linearGradient gradientUnits="userSpaceOnUse" id="gemini-s1-1-lobe-icons-gemini-1-_R_0_" x1="8" x2="11.5" y1="5.5" y2="11"><stop stop-color="#F94543"></stop><stop offset="1" stop-color="#F94543" stop-opacity="0"></stop></linearGradient><linearGradient gradientUnits="userSpaceOnUse" id="gemini-s1-1-lobe-icons-gemini-2-_R_0_" x1="3.5" x2="17.5" y1="13.5" y2="12"><stop stop-color="#FABC12"></stop><stop offset=".46" stop-color="#FABC12" stop-opacity="0"></stop></linearGradient></defs></g>
<rect x="1096.00" y="469.48" width="56.00" height="520.52" fill="#4E779E"/>
<text x="1124.00" y="451.48" fill="#000000" font-family="Times New Roman" font-size="32.0" font-weight="600" text-anchor="middle" dominant-baseline="middle">62.0</text>
<g transform="translate(1103.0000 1011.0000) scale(1.750000)" fill-rule="evenodd" fill="#D97757"><path d="M4.709 15.955l4.72-2.647.08-.23-.08-.128H9.2l-.79-.048-2.698-.073-2.339-.097-2.266-.122-.571-.121L0 11.784l.055-.352.48-.321.686.06 1.52.103 2.278.158 1.652.097 2.449.255h.389l.055-.157-.134-.098-.103-.097-2.358-1.596-2.552-1.688-1.336-.972-.724-.491-.364-.462-.158-1.008.656-.722.881.06.225.061.893.686 1.908 1.476 2.491 1.833.365.304.145-.103.019-.073-.164-.274-1.355-2.446-1.446-2.49-.644-1.032-.17-.619a2.97 2.97 0 01-.104-.729L6.283.134 6.696 0l.996.134.42.364.62 1.414 1.002 2.229 1.555 3.03.456.898.243.832.091.255h.158V9.01l.128-1.706.237-2.095.23-2.695.08-.76.376-.91.747-.492.584.28.48.685-.067.444-.286 1.851-.559 2.903-.364 1.942h.212l.243-.242.985-1.306 1.652-2.064.73-.82.85-.904.547-.431h1.033l.76 1.129-.34 1.166-1.064 1.347-.881 1.142-1.264 1.7-.79 1.36.073.11.188-.02 2.856-.606 1.543-.28 1.841-.315.833.388.091.395-.328.807-1.969.486-2.309.462-3.439.813-.042.03.049.061 1.549.146.662.036h1.622l3.02.225.79.522.474.638-.079.485-1.215.62-1.64-.389-3.829-.91-1.312-.329h-.182v.11l1.093 1.068 2.006 1.81 2.509 2.33.127.578-.322.455-.34-.049-2.205-1.657-.851-.747-1.926-1.62h-.128v.17l.444.649 2.345 3.521.122 1.08-.17.353-.608.213-.668-.122-1.374-1.925-1.415-2.167-1.143-1.943-.14.08-.674 7.254-.316.37-.729.28-.607-.461-.322-.747.322-1.476.389-1.924.315-1.53.286-1.9.17-.632-.012-.042-.14.018-1.434 1.967-2.18 2.945-1.726 1.845-.414.164-.717-.37.067-.662.401-.589 2.388-3.036 1.44-1.882.93-1.086-.006-.158h-.055L4.132 18.56l-1.13.146-.487-.456.061-.746.231-.243 1.908-1.312-.006.006z" fill="#D97757" fill-rule="nonzero"></path></g>
<rect x="1166.00" y="492.44" width="56.00" height="497.56" fill="#6993AB"/>
<text x="1194.00" y="474.44" fill="#000000" font-family="Times New Roman" font-size="32.0" font-weight="600" text-anchor="middle" dominant-baseline="middle">59.2</text>
<rect x="1173.00" y="1011.00" width="42.00" height="42.00" fill="#050505" rx="9.24" ry="9.24"/>
<g transform="translate(1178.4600 1016.4600) scale(1.295000)" fill-rule="evenodd" fill="#1783FF"><path d="M21.846 0a1.923 1.923 0 110 3.846H20.15a.226.226 0 01-.227-.226V1.923C19.923.861 20.784 0 21.846 0z" fill="#1783FF"></path><path d="M11.065 11.199l7.257-7.2c.137-.136.06-.41-.116-.41H14.3a.164.164 0 00-.117.051l-7.82 7.756c-.122.12-.302.013-.302-.179V3.82c0-.127-.083-.23-.185-.23H3.186c-.103 0-.186.103-.186.23V19.77c0 .128.083.23.186.23h2.69c.103 0 .186-.102.186-.23v-3.25c0-.069.025-.135.069-.178l2.424-2.406a.158.158 0 01.205-.023l6.484 4.772a7.677 7.677 0 003.453 1.283c.108.012.2-.095.2-.23v-3.06c0-.117-.07-.212-.164-.227a5.028 5.028 0 01-2.027-.807l-5.613-4.064c-.117-.078-.132-.279-.028-.381z" fill="#fff"></path></g>
<rect x="1236.00" y="577.56" width="56.00" height="412.44" fill="#83ADB4"/>
<text x="1264.00" y="559.56" fill="#000000" font-family="Times New Roman" font-size="32.0" font-weight="600" text-anchor="middle" dominant-baseline="middle">49.1</text>
<g transform="translate(1243.8400 1011.8400) scale(1.680000)" fill-rule="evenodd"><path d="M12.105 2L9.927 4.953H.653L2.83 2h9.276zM23.254 19.048L21.078 22h-9.242l2.174-2.952h9.244zM24 2L9.264 22H0L14.736 2H24z"></path></g>
<rect x="1306.00" y="591.28" width="56.00" height="398.72" fill="#B0C2B8"/>
<text x="1334.00" y="573.28" fill="#000000" font-family="Times New Roman" font-size="32.0" font-weight="600" text-anchor="middle" dominant-baseline="middle">47.5</text>
<g transform="translate(1313.0000 1011.0000) scale(1.750000)" fill-rule="evenodd" fill="#FF6003"><path d="M12.604 1.34c.393.69.784 1.382 1.174 2.075a.18.18 0 00.157.091h5.552c.174 0 .322.11.446.327l1.454 2.57c.19.337.24.478.024.837-.26.43-.513.864-.76 1.3l-.367.658c-.106.196-.223.28-.04.512l2.652 4.637c.172.301.111.494-.043.77-.437.785-.882 1.564-1.335 2.34-.159.272-.352.375-.68.37-.777-.016-1.552-.01-2.327.016a.099.099 0 00-.081.05 575.097 575.097 0 01-2.705 4.74c-.169.293-.38.363-.725.364-.997.003-2.002.004-3.017.002a.537.537 0 01-.465-.271l-1.335-2.323a.09.09 0 00-.083-.049H4.982c-.285.03-.553-.001-.805-.092l-1.603-2.77a.543.543 0 01-.002-.54l1.207-2.12a.198.198 0 000-.197 550.951 550.951 0 01-1.875-3.272l-.79-1.395c-.16-.31-.173-.496.095-.965.465-.813.927-1.625 1.387-2.436.132-.234.304-.334.584-.335a338.3 338.3 0 012.589-.001.124.124 0 00.107-.063l2.806-4.895a.488.488 0 01.422-.246c.524-.001 1.053 0 1.583-.006L11.704 1c.341-.003.724.032.9.34zm-3.432.403a.06.06 0 00-.052.03L6.254 6.788a.157.157 0 01-.135.078H3.253c-.056 0-.07.025-.041.074l5.81 10.156c.025.042.013.062-.034.063l-2.795.015a.218.218 0 00-.2.116l-1.32 2.31c-.044.078-.021.118.068.118l5.716.008c.046 0 .08.02.104.061l1.403 2.454c.046.081.092.082.139 0l5.006-8.76.783-1.382a.055.055 0 01.096 0l1.424 2.53a.122.122 0 00.107.062l2.763-.02a.04.04 0 00.035-.02.041.041 0 000-.04l-2.9-5.086a.108.108 0 010-.113l.293-.507 1.12-1.977c.024-.041.012-.062-.035-.062H9.2c-.059 0-.073-.026-.043-.077l1.434-2.505a.107.107 0 000-.114L9.225 1.774a.06.06 0 00-.053-.031zm6.29 8.02c.046 0 .058.02.034.06l-.832 1.465-2.613 4.585a.056.056 0 01-.05.029.058.058 0 01-.05-.029L8.498 9.841c-.02-.034-.01-.052.028-.054l.216-.012 6.722-.012z" fill="url(#qwen-s1-5-lobe-icons-qwen-_R_0_)" fill-rule="nonzero"></path><defs><linearGradient id="qwen-s1-5-lobe-icons-qwen-_R_0_" x1="0%" x2="100%" y1="0%" y2="0%"><stop offset="0%" stop-color="#6336E7" stop-opacity=".84"></stop><stop offset="100%" stop-color="#6F69F7" stop-opacity=".84"></stop></linearGradient></defs></g>
<rect x="1376.00" y="610.32" width="56.00" height="379.68" fill="#DCC8AE"/>
<text x="1404.00" y="592.32" fill="#000000" font-family="Times New Roman" font-size="32.0" font-weight="600" text-anchor="middle" dominant-baseline="middle">45.2</text>
<g transform="translate(1386.3600 1014.3600) scale(1.470000)" fill-rule="evenodd" fill="#202123"><path d="M.958 15.936a.459.459 0 01.459.44v2.729a.46.46 0 01-.918 0v-2.729a.459.459 0 01.459-.44zm4.814-2.035a.46.46 0 01.553.45v4.754a.458.458 0 11-.918 0V15.48L3.74 17.202a.462.462 0 01-.655.016.462.462 0 01-.065-.082L.628 14.67a.459.459 0 01.658-.637l2.124 2.187 2.127-2.188a.46.46 0 01.235-.13zm2.068.004a.46.46 0 01.458.445v4.755a.46.46 0 01-.458.458.459.459 0 01-.458-.458V14.35a.459.459 0 01.458-.445zm1.973 2.014a.46.46 0 01.46.457v2.729a.46.46 0 01-.784.324.46.46 0 01-.134-.324v-2.729a.46.46 0 01.458-.458zm.002-2.045a.458.458 0 01.328.157l2.127 2.19 2.125-2.19a.459.459 0 01.784.318v4.756a.46.46 0 01-.455.458.46.46 0 01-.458-.458V15.48l-1.667 1.723a.46.46 0 01-.65.008l-.005-.005c0-.002-.002-.002-.004-.003l-2.455-2.534a.46.46 0 01-.008-.667.461.461 0 01.338-.128zm6.797 1.206a.46.46 0 01.53.651A1.966 1.966 0 0019.81 18.4a.462.462 0 01.623.18.46.46 0 01-.181.624 2.863 2.863 0 01-1.38.353l-.142-.004a2.88 2.88 0 01-2.393-4.263.461.461 0 01.274-.21zm.864-.931a2.884 2.884 0 013.915 3.914.46.46 0 01-.402.24l-.057-.004a.458.458 0 01-.164-.055.46.46 0 01-.182-.622 1.967 1.967 0 00-2.669-2.67.459.459 0 11-.441-.803zM9.59 6.368c1.481 0 1.696 1.202 1.696 1.654v2.648h-.917v-.432c-.26.346-.792.535-1.36.535-.133 0-1.289-.03-1.384-1.136-.082-.932.675-1.61 2.053-1.61h.691c0-.563-.367-.886-.983-.886-.44.013-.864.174-1.2.458l-.36-.664c.484-.379 1.012-.567 1.764-.567zm4.427.1c1.263 0 2.082.97 2.083 2.15 0 1.181-.824 2.154-2.083 2.154-1.26 0-2.084-.972-2.084-2.152 0-1.18.82-2.153 2.084-2.153zm6.801.015c.68 0 1.202.465 1.197 1.548v2.642H21.1V8.29c0-.312-.002-.98-.63-.98s-.628.667-.628.838v2.524h-.89V8.148c0-.17-.001-.838-.63-.838-.628 0-.628.668-.628.98v2.383h-.917v-4.03h.917V7a1.22 1.22 0 01.947-.516c.398 0 .76.193.982.686a1.321 1.321 0 011.195-.686zm-18.093.872l1.457-1.772H5.32L3.311 8.07l2.14 2.602H4.24L2.725 8.796 1.21 10.672H0L2.138 8.07.13 5.583h1.138l1.458 1.772zm4.149 3.317h-.916V6.644h.916v4.028zm16.99 0h-.916V6.644h.916v4.028zM9.925 8.71c-1.055 0-1.359.412-1.326.742.032.329.324.537.757.537a1.013 1.013 0 001.014-.968l.002-.31h-.447zM14.018 7.3c-.663 0-1.184.487-1.184 1.32 0 .832.52 1.32 1.184 1.32.662 0 1.182-.49 1.182-1.32 0-.832-.52-1.32-1.182-1.32zM6.417 5.001a.568.568 0 01.587.582.588.588 0 01-1.175 0A.57.57 0 016.417 5zm16.991 0a.57.57 0 01.592.582.588.588 0 01-1.174 0 .57.57 0 01.357-.542.572.572 0 01.225-.04z"></path></g>
<rect x="1446.00" y="622.92" width="56.00" height="367.08" fill="#EDD7C0"/>
<text x="1474.00" y="604.92" fill="#000000" font-family="Times New Roman" font-size="32.0" font-weight="600" text-anchor="middle" dominant-baseline="middle">43.7</text>
<g transform="translate(1453.0000 1011.0000) scale(1.750000)" fill-rule="evenodd" fill="#00A6B8"><path d="M5.31 15.756c.172-3.75 1.883-5.999 2.549-6.739-3.26 2.058-5.425 5.658-6.358 8.308v1.12C1.501 21.513 4.226 24 7.59 24a6.59 6.59 0 002.2-.375c.353-.12.7-.248 1.039-.378.913-.899 1.65-1.91 2.243-2.992-4.877 2.431-7.974.072-7.763-4.5l.002.001z" fill="#1E37FC"></path><path d="M22.57 10.283c-1.212-.901-4.109-2.404-7.397-2.8.295 3.792.093 8.766-2.1 12.773a12.782 12.782 0 01-2.244 2.992c3.764-1.448 6.746-3.457 8.596-5.219 2.82-2.683 3.353-5.178 3.361-6.66a2.737 2.737 0 00-.216-1.084v-.002z" fill="#37E1BE"></path><path d="M14.303 1.867C12.955.7 11.248 0 9.39 0 7.532 0 5.883.677 4.545 1.807 2.791 3.29 1.627 5.557 1.5 8.125v9.201c.932-2.65 3.097-6.25 6.357-8.307.5-.318 1.025-.595 1.569-.829 1.883-.801 3.878-.932 5.746-.706-.222-2.83-.718-5.002-.87-5.617h.001z" fill="#A569FF"></path><path d="M17.305 4.961a199.47 199.47 0 01-1.08-1.094c-.202-.213-.398-.419-.586-.622l-1.333-1.378c.151.615.648 2.786.869 5.617 3.288.395 6.185 1.898 7.396 2.8-1.306-1.275-3.475-3.487-5.266-5.323z" fill="#1E37FC"></path></g>
<text x="1229.00" y="1112.00" fill="#000000" font-family="Times New Roman" font-size="44.0" font-weight="700" text-anchor="middle" dominant-baseline="middle">Image-to-3D</text>
<line x1="1549.00" y1="150.00" x2="1549.00" y2="990.00" stroke="#E6EAF0" stroke-width="0.8" stroke-dasharray="3 3"/>
<rect x="1596.00" y="418.38" width="56.00" height="571.62" fill="#304771"/>
<text x="1624.00" y="400.38" fill="#000000" font-family="Times New Roman" font-size="32.0" font-weight="600" text-anchor="middle" dominant-baseline="middle">68.0</text>
<g transform="translate(1603.0000 1011.0000) scale(1.750000)" fill-rule="evenodd" fill="#202123"><path d="M9.205 8.658v-2.26c0-.19.072-.333.238-.428l4.543-2.616c.619-.357 1.356-.523 2.117-.523 2.854 0 4.662 2.212 4.662 4.566 0 .167 0 .357-.024.547l-4.71-2.759a.797.797 0 00-.856 0l-5.97 3.473zm10.609 8.8V12.06c0-.333-.143-.57-.429-.737l-5.97-3.473 1.95-1.118a.433.433 0 01.476 0l4.543 2.617c1.309.76 2.189 2.378 2.189 3.948 0 1.808-1.07 3.473-2.76 4.163zM7.802 12.703l-1.95-1.142c-.167-.095-.239-.238-.239-.428V5.899c0-2.545 1.95-4.472 4.591-4.472 1 0 1.927.333 2.712.928L8.23 5.067c-.285.166-.428.404-.428.737v6.898zM12 15.128l-2.795-1.57v-3.33L12 8.658l2.795 1.57v3.33L12 15.128zm1.796 7.23c-1 0-1.927-.332-2.712-.927l4.686-2.712c.285-.166.428-.404.428-.737v-6.898l1.974 1.142c.167.095.238.238.238.428v5.233c0 2.545-1.974 4.472-4.614 4.472zm-5.637-5.303l-4.544-2.617c-1.308-.761-2.188-2.378-2.188-3.948A4.482 4.482 0 014.21 6.327v5.423c0 .333.143.571.428.738l5.947 3.449-1.95 1.118a.432.432 0 01-.476 0zm-.262 3.9c-2.688 0-4.662-2.021-4.662-4.519 0-.19.024-.38.047-.57l4.686 2.71c.286.167.571.167.856 0l5.97-3.448v2.26c0 .19-.07.333-.237.428l-4.543 2.616c-.619.357-1.356.523-2.117.523zm5.899 2.83a5.947 5.947 0 005.827-4.756C22.287 18.339 24 15.84 24 13.296c0-1.665-.713-3.282-1.998-4.448.119-.5.19-.999.19-1.498 0-3.401-2.759-5.947-5.946-5.947-.642 0-1.26.095-1.88.31A5.962 5.962 0 0010.205 0a5.947 5.947 0 00-5.827 4.757C1.713 5.447 0 7.945 0 10.49c0 1.666.713 3.283 1.998 4.448-.119.5-.19 1-.19 1.499 0 3.401 2.759 5.946 5.946 5.946.642 0 1.26-.095 1.88-.309a5.96 5.96 0 004.162 1.713z"></path></g>
<rect x="1666.00" y="436.65" width="56.00" height="553.35" fill="#3F5E8B"/>
<text x="1694.00" y="418.65" fill="#000000" font-family="Times New Roman" font-size="32.0" font-weight="600" text-anchor="middle" dominant-baseline="middle">65.9</text>
<g transform="translate(1673.0000 1011.0000) scale(1.750000)" fill-rule="evenodd" fill="#14B86A"><path d="M20.616 10.835a14.147 14.147 0 01-4.45-3.001 14.111 14.111 0 01-3.678-6.452.503.503 0 00-.975 0 14.134 14.134 0 01-3.679 6.452 14.155 14.155 0 01-4.45 3.001c-.65.28-1.318.505-2.002.678a.502.502 0 000 .975c.684.172 1.35.397 2.002.677a14.147 14.147 0 014.45 3.001 14.112 14.112 0 013.679 6.453.502.502 0 00.975 0c.172-.685.397-1.351.677-2.003a14.145 14.145 0 013.001-4.45 14.113 14.113 0 016.453-3.678.503.503 0 000-.975 13.245 13.245 0 01-2.003-.678z" fill="#3186FF"></path><path d="M20.616 10.835a14.147 14.147 0 01-4.45-3.001 14.111 14.111 0 01-3.678-6.452.503.503 0 00-.975 0 14.134 14.134 0 01-3.679 6.452 14.155 14.155 0 01-4.45 3.001c-.65.28-1.318.505-2.002.678a.502.502 0 000 .975c.684.172 1.35.397 2.002.677a14.147 14.147 0 014.45 3.001 14.112 14.112 0 013.679 6.453.502.502 0 00.975 0c.172-.685.397-1.351.677-2.003a14.145 14.145 0 013.001-4.45 14.113 14.113 0 016.453-3.678.503.503 0 000-.975 13.245 13.245 0 01-2.003-.678z" fill="url(#gemini-s2-1-lobe-icons-gemini-0-_R_0_)"></path><path d="M20.616 10.835a14.147 14.147 0 01-4.45-3.001 14.111 14.111 0 01-3.678-6.452.503.503 0 00-.975 0 14.134 14.134 0 01-3.679 6.452 14.155 14.155 0 01-4.45 3.001c-.65.28-1.318.505-2.002.678a.502.502 0 000 .975c.684.172 1.35.397 2.002.677a14.147 14.147 0 014.45 3.001 14.112 14.112 0 013.679 6.453.502.502 0 00.975 0c.172-.685.397-1.351.677-2.003a14.145 14.145 0 013.001-4.45 14.113 14.113 0 016.453-3.678.503.503 0 000-.975 13.245 13.245 0 01-2.003-.678z" fill="url(#gemini-s2-1-lobe-icons-gemini-1-_R_0_)"></path><path d="M20.616 10.835a14.147 14.147 0 01-4.45-3.001 14.111 14.111 0 01-3.678-6.452.503.503 0 00-.975 0 14.134 14.134 0 01-3.679 6.452 14.155 14.155 0 01-4.45 3.001c-.65.28-1.318.505-2.002.678a.502.502 0 000 .975c.684.172 1.35.397 2.002.677a14.147 14.147 0 014.45 3.001 14.112 14.112 0 013.679 6.453.502.502 0 00.975 0c.172-.685.397-1.351.677-2.003a14.145 14.145 0 013.001-4.45 14.113 14.113 0 016.453-3.678.503.503 0 000-.975 13.245 13.245 0 01-2.003-.678z" fill="url(#gemini-s2-1-lobe-icons-gemini-2-_R_0_)"></path><defs><linearGradient gradientUnits="userSpaceOnUse" id="gemini-s2-1-lobe-icons-gemini-0-_R_0_" x1="7" x2="11" y1="15.5" y2="12"><stop stop-color="#08B962"></stop><stop offset="1" stop-color="#08B962" stop-opacity="0"></stop></linearGradient><linearGradient gradientUnits="userSpaceOnUse" id="gemini-s2-1-lobe-icons-gemini-1-_R_0_" x1="8" x2="11.5" y1="5.5" y2="11"><stop stop-color="#F94543"></stop><stop offset="1" stop-color="#F94543" stop-opacity="0"></stop></linearGradient><linearGradient gradientUnits="userSpaceOnUse" id="gemini-s2-1-lobe-icons-gemini-2-_R_0_" x1="3.5" x2="17.5" y1="13.5" y2="12"><stop stop-color="#FABC12"></stop><stop offset=".46" stop-color="#FABC12" stop-opacity="0"></stop></linearGradient></defs></g>
<rect x="1736.00" y="486.00" width="56.00" height="504.00" fill="#4E779E"/>
<text x="1764.00" y="468.00" fill="#000000" font-family="Times New Roman" font-size="32.0" font-weight="600" text-anchor="middle" dominant-baseline="middle">60.0</text>
<g transform="translate(1743.0000 1011.0000) scale(1.750000)" fill-rule="evenodd" fill="#D97757"><path d="M4.709 15.955l4.72-2.647.08-.23-.08-.128H9.2l-.79-.048-2.698-.073-2.339-.097-2.266-.122-.571-.121L0 11.784l.055-.352.48-.321.686.06 1.52.103 2.278.158 1.652.097 2.449.255h.389l.055-.157-.134-.098-.103-.097-2.358-1.596-2.552-1.688-1.336-.972-.724-.491-.364-.462-.158-1.008.656-.722.881.06.225.061.893.686 1.908 1.476 2.491 1.833.365.304.145-.103.019-.073-.164-.274-1.355-2.446-1.446-2.49-.644-1.032-.17-.619a2.97 2.97 0 01-.104-.729L6.283.134 6.696 0l.996.134.42.364.62 1.414 1.002 2.229 1.555 3.03.456.898.243.832.091.255h.158V9.01l.128-1.706.237-2.095.23-2.695.08-.76.376-.91.747-.492.584.28.48.685-.067.444-.286 1.851-.559 2.903-.364 1.942h.212l.243-.242.985-1.306 1.652-2.064.73-.82.85-.904.547-.431h1.033l.76 1.129-.34 1.166-1.064 1.347-.881 1.142-1.264 1.7-.79 1.36.073.11.188-.02 2.856-.606 1.543-.28 1.841-.315.833.388.091.395-.328.807-1.969.486-2.309.462-3.439.813-.042.03.049.061 1.549.146.662.036h1.622l3.02.225.79.522.474.638-.079.485-1.215.62-1.64-.389-3.829-.91-1.312-.329h-.182v.11l1.093 1.068 2.006 1.81 2.509 2.33.127.578-.322.455-.34-.049-2.205-1.657-.851-.747-1.926-1.62h-.128v.17l.444.649 2.345 3.521.122 1.08-.17.353-.608.213-.668-.122-1.374-1.925-1.415-2.167-1.143-1.943-.14.08-.674 7.254-.316.37-.729.28-.607-.461-.322-.747.322-1.476.389-1.924.315-1.53.286-1.9.17-.632-.012-.042-.14.018-1.434 1.967-2.18 2.945-1.726 1.845-.414.164-.717-.37.067-.662.401-.589 2.388-3.036 1.44-1.882.93-1.086-.006-.158h-.055L4.132 18.56l-1.13.146-.487-.456.061-.746.231-.243 1.908-1.312-.006.006z" fill="#D97757" fill-rule="nonzero"></path></g>
<rect x="1806.00" y="526.53" width="56.00" height="463.47" fill="#6993AB"/>
<text x="1834.00" y="508.53" fill="#000000" font-family="Times New Roman" font-size="32.0" font-weight="600" text-anchor="middle" dominant-baseline="middle">55.2</text>
<rect x="1813.00" y="1011.00" width="42.00" height="42.00" fill="#050505" rx="9.24" ry="9.24"/>
<g transform="translate(1818.4600 1016.4600) scale(1.295000)" fill-rule="evenodd" fill="#1783FF"><path d="M21.846 0a1.923 1.923 0 110 3.846H20.15a.226.226 0 01-.227-.226V1.923C19.923.861 20.784 0 21.846 0z" fill="#1783FF"></path><path d="M11.065 11.199l7.257-7.2c.137-.136.06-.41-.116-.41H14.3a.164.164 0 00-.117.051l-7.82 7.756c-.122.12-.302.013-.302-.179V3.82c0-.127-.083-.23-.185-.23H3.186c-.103 0-.186.103-.186.23V19.77c0 .128.083.23.186.23h2.69c.103 0 .186-.102.186-.23v-3.25c0-.069.025-.135.069-.178l2.424-2.406a.158.158 0 01.205-.023l6.484 4.772a7.677 7.677 0 003.453 1.283c.108.012.2-.095.2-.23v-3.06c0-.117-.07-.212-.164-.227a5.028 5.028 0 01-2.027-.807l-5.613-4.064c-.117-.078-.132-.279-.028-.381z" fill="#fff"></path></g>
<rect x="1876.00" y="703.14" width="56.00" height="286.86" fill="#83ADB4"/>
<text x="1904.00" y="685.14" fill="#000000" font-family="Times New Roman" font-size="32.0" font-weight="600" text-anchor="middle" dominant-baseline="middle">34.2</text>
<g transform="translate(1883.8400 1011.8400) scale(1.680000)" fill-rule="evenodd"><path d="M12.105 2L9.927 4.953H.653L2.83 2h9.276zM23.254 19.048L21.078 22h-9.242l2.174-2.952h9.244zM24 2L9.264 22H0L14.736 2H24z"></path></g>
<rect x="1946.00" y="682.56" width="56.00" height="307.44" fill="#B0C2B8"/>
<text x="1974.00" y="664.56" fill="#000000" font-family="Times New Roman" font-size="32.0" font-weight="600" text-anchor="middle" dominant-baseline="middle">36.6</text>
<g transform="translate(1953.0000 1011.0000) scale(1.750000)" fill-rule="evenodd" fill="#FF6003"><path d="M12.604 1.34c.393.69.784 1.382 1.174 2.075a.18.18 0 00.157.091h5.552c.174 0 .322.11.446.327l1.454 2.57c.19.337.24.478.024.837-.26.43-.513.864-.76 1.3l-.367.658c-.106.196-.223.28-.04.512l2.652 4.637c.172.301.111.494-.043.77-.437.785-.882 1.564-1.335 2.34-.159.272-.352.375-.68.37-.777-.016-1.552-.01-2.327.016a.099.099 0 00-.081.05 575.097 575.097 0 01-2.705 4.74c-.169.293-.38.363-.725.364-.997.003-2.002.004-3.017.002a.537.537 0 01-.465-.271l-1.335-2.323a.09.09 0 00-.083-.049H4.982c-.285.03-.553-.001-.805-.092l-1.603-2.77a.543.543 0 01-.002-.54l1.207-2.12a.198.198 0 000-.197 550.951 550.951 0 01-1.875-3.272l-.79-1.395c-.16-.31-.173-.496.095-.965.465-.813.927-1.625 1.387-2.436.132-.234.304-.334.584-.335a338.3 338.3 0 012.589-.001.124.124 0 00.107-.063l2.806-4.895a.488.488 0 01.422-.246c.524-.001 1.053 0 1.583-.006L11.704 1c.341-.003.724.032.9.34zm-3.432.403a.06.06 0 00-.052.03L6.254 6.788a.157.157 0 01-.135.078H3.253c-.056 0-.07.025-.041.074l5.81 10.156c.025.042.013.062-.034.063l-2.795.015a.218.218 0 00-.2.116l-1.32 2.31c-.044.078-.021.118.068.118l5.716.008c.046 0 .08.02.104.061l1.403 2.454c.046.081.092.082.139 0l5.006-8.76.783-1.382a.055.055 0 01.096 0l1.424 2.53a.122.122 0 00.107.062l2.763-.02a.04.04 0 00.035-.02.041.041 0 000-.04l-2.9-5.086a.108.108 0 010-.113l.293-.507 1.12-1.977c.024-.041.012-.062-.035-.062H9.2c-.059 0-.073-.026-.043-.077l1.434-2.505a.107.107 0 000-.114L9.225 1.774a.06.06 0 00-.053-.031zm6.29 8.02c.046 0 .058.02.034.06l-.832 1.465-2.613 4.585a.056.056 0 01-.05.029.058.058 0 01-.05-.029L8.498 9.841c-.02-.034-.01-.052.028-.054l.216-.012 6.722-.012z" fill="url(#qwen-s2-5-lobe-icons-qwen-_R_0_)" fill-rule="nonzero"></path><defs><linearGradient id="qwen-s2-5-lobe-icons-qwen-_R_0_" x1="0%" x2="100%" y1="0%" y2="0%"><stop offset="0%" stop-color="#6336E7" stop-opacity=".84"></stop><stop offset="100%" stop-color="#6F69F7" stop-opacity=".84"></stop></linearGradient></defs></g>
<rect x="2016.00" y="671.64" width="56.00" height="318.36" fill="#DCC8AE"/>
<text x="2044.00" y="653.64" fill="#000000" font-family="Times New Roman" font-size="32.0" font-weight="600" text-anchor="middle" dominant-baseline="middle">37.9</text>
<g transform="translate(2026.3600 1014.3600) scale(1.470000)" fill-rule="evenodd" fill="#202123"><path d="M.958 15.936a.459.459 0 01.459.44v2.729a.46.46 0 01-.918 0v-2.729a.459.459 0 01.459-.44zm4.814-2.035a.46.46 0 01.553.45v4.754a.458.458 0 11-.918 0V15.48L3.74 17.202a.462.462 0 01-.655.016.462.462 0 01-.065-.082L.628 14.67a.459.459 0 01.658-.637l2.124 2.187 2.127-2.188a.46.46 0 01.235-.13zm2.068.004a.46.46 0 01.458.445v4.755a.46.46 0 01-.458.458.459.459 0 01-.458-.458V14.35a.459.459 0 01.458-.445zm1.973 2.014a.46.46 0 01.46.457v2.729a.46.46 0 01-.784.324.46.46 0 01-.134-.324v-2.729a.46.46 0 01.458-.458zm.002-2.045a.458.458 0 01.328.157l2.127 2.19 2.125-2.19a.459.459 0 01.784.318v4.756a.46.46 0 01-.455.458.46.46 0 01-.458-.458V15.48l-1.667 1.723a.46.46 0 01-.65.008l-.005-.005c0-.002-.002-.002-.004-.003l-2.455-2.534a.46.46 0 01-.008-.667.461.461 0 01.338-.128zm6.797 1.206a.46.46 0 01.53.651A1.966 1.966 0 0019.81 18.4a.462.462 0 01.623.18.46.46 0 01-.181.624 2.863 2.863 0 01-1.38.353l-.142-.004a2.88 2.88 0 01-2.393-4.263.461.461 0 01.274-.21zm.864-.931a2.884 2.884 0 013.915 3.914.46.46 0 01-.402.24l-.057-.004a.458.458 0 01-.164-.055.46.46 0 01-.182-.622 1.967 1.967 0 00-2.669-2.67.459.459 0 11-.441-.803zM9.59 6.368c1.481 0 1.696 1.202 1.696 1.654v2.648h-.917v-.432c-.26.346-.792.535-1.36.535-.133 0-1.289-.03-1.384-1.136-.082-.932.675-1.61 2.053-1.61h.691c0-.563-.367-.886-.983-.886-.44.013-.864.174-1.2.458l-.36-.664c.484-.379 1.012-.567 1.764-.567zm4.427.1c1.263 0 2.082.97 2.083 2.15 0 1.181-.824 2.154-2.083 2.154-1.26 0-2.084-.972-2.084-2.152 0-1.18.82-2.153 2.084-2.153zm6.801.015c.68 0 1.202.465 1.197 1.548v2.642H21.1V8.29c0-.312-.002-.98-.63-.98s-.628.667-.628.838v2.524h-.89V8.148c0-.17-.001-.838-.63-.838-.628 0-.628.668-.628.98v2.383h-.917v-4.03h.917V7a1.22 1.22 0 01.947-.516c.398 0 .76.193.982.686a1.321 1.321 0 011.195-.686zm-18.093.872l1.457-1.772H5.32L3.311 8.07l2.14 2.602H4.24L2.725 8.796 1.21 10.672H0L2.138 8.07.13 5.583h1.138l1.458 1.772zm4.149 3.317h-.916V6.644h.916v4.028zm16.99 0h-.916V6.644h.916v4.028zM9.925 8.71c-1.055 0-1.359.412-1.326.742.032.329.324.537.757.537a1.013 1.013 0 001.014-.968l.002-.31h-.447zM14.018 7.3c-.663 0-1.184.487-1.184 1.32 0 .832.52 1.32 1.184 1.32.662 0 1.182-.49 1.182-1.32 0-.832-.52-1.32-1.182-1.32zM6.417 5.001a.568.568 0 01.587.582.588.588 0 01-1.175 0A.57.57 0 016.417 5zm16.991 0a.57.57 0 01.592.582.588.588 0 01-1.174 0 .57.57 0 01.357-.542.572.572 0 01.225-.04z"></path></g>
<rect x="2086.00" y="715.32" width="56.00" height="274.68" fill="#EDD7C0"/>
<text x="2114.00" y="697.32" fill="#000000" font-family="Times New Roman" font-size="32.0" font-weight="600" text-anchor="middle" dominant-baseline="middle">32.7</text>
<g transform="translate(2093.0000 1011.0000) scale(1.750000)" fill-rule="evenodd" fill="#00A6B8"><path d="M5.31 15.756c.172-3.75 1.883-5.999 2.549-6.739-3.26 2.058-5.425 5.658-6.358 8.308v1.12C1.501 21.513 4.226 24 7.59 24a6.59 6.59 0 002.2-.375c.353-.12.7-.248 1.039-.378.913-.899 1.65-1.91 2.243-2.992-4.877 2.431-7.974.072-7.763-4.5l.002.001z" fill="#1E37FC"></path><path d="M22.57 10.283c-1.212-.901-4.109-2.404-7.397-2.8.295 3.792.093 8.766-2.1 12.773a12.782 12.782 0 01-2.244 2.992c3.764-1.448 6.746-3.457 8.596-5.219 2.82-2.683 3.353-5.178 3.361-6.66a2.737 2.737 0 00-.216-1.084v-.002z" fill="#37E1BE"></path><path d="M14.303 1.867C12.955.7 11.248 0 9.39 0 7.532 0 5.883.677 4.545 1.807 2.791 3.29 1.627 5.557 1.5 8.125v9.201c.932-2.65 3.097-6.25 6.357-8.307.5-.318 1.025-.595 1.569-.829 1.883-.801 3.878-.932 5.746-.706-.222-2.83-.718-5.002-.87-5.617h.001z" fill="#A569FF"></path><path d="M17.305 4.961a199.47 199.47 0 01-1.08-1.094c-.202-.213-.398-.419-.586-.622l-1.333-1.378c.151.615.648 2.786.869 5.617 3.288.395 6.185 1.898 7.396 2.8-1.306-1.275-3.475-3.487-5.266-5.323z" fill="#1E37FC"></path></g>
<text x="1869.00" y="1112.00" fill="#000000" font-family="Times New Roman" font-size="44.0" font-weight="700" text-anchor="middle" dominant-baseline="middle">Assembly-3D</text>
<rect x="321.80" y="26.00" width="28.00" height="20.00" fill="#304771"/>
<text x="359.80" y="36.00" fill="#000000" font-family="Times New Roman" font-size="40.0" font-weight="500" text-anchor="start" dominant-baseline="middle">GPT-5.5</text>
<rect x="529.40" y="26.00" width="28.00" height="20.00" fill="#3F5E8B"/>
<text x="567.40" y="36.00" fill="#000000" font-family="Times New Roman" font-size="40.0" font-weight="500" text-anchor="start" dominant-baseline="middle">Gemini 3.1 Pro</text>
<rect x="882.60" y="26.00" width="28.00" height="20.00" fill="#4E779E"/>
<text x="920.60" y="36.00" fill="#000000" font-family="Times New Roman" font-size="40.0" font-weight="500" text-anchor="start" dominant-baseline="middle">Claude Opus 4.6</text>
<rect x="1256.60" y="26.00" width="28.00" height="20.00" fill="#6993AB"/>
<text x="1294.60" y="36.00" fill="#000000" font-family="Times New Roman" font-size="40.0" font-weight="500" text-anchor="start" dominant-baseline="middle">Kimi K2.6</text>
<rect x="1505.80" y="26.00" width="28.00" height="20.00" fill="#83ADB4"/>
<text x="1543.80" y="36.00" fill="#000000" font-family="Times New Roman" font-size="40.0" font-weight="500" text-anchor="start" dominant-baseline="middle">GLM-5.1 / 5V Turbo</text>
<rect x="332.00" y="80.00" width="28.00" height="20.00" fill="#E3C49C"/>
<text x="370.00" y="90.00" fill="#000000" font-family="Times New Roman" font-size="40.0" font-weight="500" text-anchor="start" dominant-baseline="middle">DeepSeek V4 Pro</text>
<rect x="706.00" y="80.00" width="28.00" height="20.00" fill="#B0C2B8"/>
<text x="744.00" y="90.00" fill="#000000" font-family="Times New Roman" font-size="40.0" font-weight="500" text-anchor="start" dominant-baseline="middle">Qwen3.6-Plus</text>
<rect x="1017.60" y="80.00" width="28.00" height="20.00" fill="#DCC8AE"/>
<text x="1055.60" y="90.00" fill="#000000" font-family="Times New Roman" font-size="40.0" font-weight="500" text-anchor="start" dominant-baseline="middle">MiMo v2.5 Pro / v2-Omni</text>
<rect x="1558.00" y="80.00" width="28.00" height="20.00" fill="#EDD7C0"/>
<text x="1596.00" y="90.00" fill="#000000" font-family="Times New Roman" font-size="40.0" font-weight="500" text-anchor="start" dominant-baseline="middle">Doubao Seed 2.0</text>
</svg>