solid OpenSCAD_Model
  facet normal 1 0 0
    outer loop
      vertex 40 -4 25
      vertex 40 -30 25
      vertex 40 -4 -0.5
    endloop
  endfacet
  facet normal 1 0 0
    outer loop
      vertex 40 4 -0.5
      vertex 40 30 25
      vertex 40 4 25
    endloop
  endfacet
  facet normal 1 0 0
    outer loop
      vertex 40 30 25
      vertex 40 4 -0.5
      vertex 40 30 -25
    endloop
  endfacet
  facet normal 1 -0 0
    outer loop
      vertex 40 -4 -0.5
      vertex 40 30 -25
      vertex 40 4 -0.5
    endloop
  endfacet
  facet normal 1 0 0
    outer loop
      vertex 40 -4 -0.5
      vertex 40 -30 -25
      vertex 40 30 -25
    endloop
  endfacet
  facet normal 1 0 0
    outer loop
      vertex 40 -30 -25
      vertex 40 -4 -0.5
      vertex 40 -30 25
    endloop
  endfacet
  facet normal 0 0 1
    outer loop
      vertex 36 -26 25
      vertex -20 -27.5 25
      vertex 20 -27.5 25
    endloop
  endfacet
  facet normal -0 0 1
    outer loop
      vertex -36 -26 25
      vertex -20 -27.5 25
      vertex 36 -26 25
    endloop
  endfacet
  facet normal 0 0 1
    outer loop
      vertex -36 -26 25
      vertex -20 -30 25
      vertex -20 -27.5 25
    endloop
  endfacet
  facet normal 0 0 1
    outer loop
      vertex -36 -26 25
      vertex -40 -30 25
      vertex -20 -30 25
    endloop
  endfacet
  facet normal 0 0 1
    outer loop
      vertex -40 -30 25
      vertex -36 -26 25
      vertex -40 30 25
    endloop
  endfacet
  facet normal -0 0 1
    outer loop
      vertex 36 26 25
      vertex 40 4 25
      vertex 40 30 25
    endloop
  endfacet
  facet normal 0 0 1
    outer loop
      vertex 37.5 4 25
      vertex 36 26 25
      vertex 37.5 -4 25
    endloop
  endfacet
  facet normal 0 0 1
    outer loop
      vertex 40 4 25
      vertex 36 26 25
      vertex 37.5 4 25
    endloop
  endfacet
  facet normal 0 0 1
    outer loop
      vertex 40 30 25
      vertex 25 26 25
      vertex 36 26 25
    endloop
  endfacet
  facet normal 0 0 1
    outer loop
      vertex 40 30 25
      vertex -25 26 25
      vertex 25 26 25
    endloop
  endfacet
  facet normal -0 0 1
    outer loop
      vertex -40 30 25
      vertex -25 26 25
      vertex 40 30 25
    endloop
  endfacet
  facet normal 0 0 1
    outer loop
      vertex -36 26 25
      vertex -40 30 25
      vertex -36 -26 25
    endloop
  endfacet
  facet normal 0 0 1
    outer loop
      vertex -25 26 25
      vertex -40 30 25
      vertex -36 26 25
    endloop
  endfacet
  facet normal 0 0 1
    outer loop
      vertex 36 -26 25
      vertex 40 -4 25
      vertex 37.5 -4 25
    endloop
  endfacet
  facet normal 0 0 1
    outer loop
      vertex 36 -26 25
      vertex 37.5 -4 25
      vertex 36 26 25
    endloop
  endfacet
  facet normal 0 0 1
    outer loop
      vertex 40 -4 25
      vertex 36 -26 25
      vertex 40 -30 25
    endloop
  endfacet
  facet normal 0 0 1
    outer loop
      vertex 20 -30 25
      vertex 36 -26 25
      vertex 20 -27.5 25
    endloop
  endfacet
  facet normal 0 0 1
    outer loop
      vertex 36 -26 25
      vertex 20 -30 25
      vertex 40 -30 25
    endloop
  endfacet
  facet normal 0 0 -1
    outer loop
      vertex -40 -30 -25
      vertex 40 30 -25
      vertex 40 -30 -25
    endloop
  endfacet
  facet normal -0 0 -1
    outer loop
      vertex 40 30 -25
      vertex -40 -30 -25
      vertex -40 30 -25
    endloop
  endfacet
  facet normal -1 0 0
    outer loop
      vertex -40 -30 -25
      vertex -40 30 25
      vertex -40 30 -25
    endloop
  endfacet
  facet normal -1 -0 0
    outer loop
      vertex -40 30 25
      vertex -40 -30 -25
      vertex -40 -30 25
    endloop
  endfacet
  facet normal 0 1 -0
    outer loop
      vertex 40 30 -25
      vertex -40 30 25
      vertex 40 30 25
    endloop
  endfacet
  facet normal 0 1 0
    outer loop
      vertex -40 30 25
      vertex 40 30 -25
      vertex -40 30 -25
    endloop
  endfacet
  facet normal 0 -1 0
    outer loop
      vertex -40 -30 25
      vertex -20 -30 14.5
      vertex -20 -30 25
    endloop
  endfacet
  facet normal 0 -1 -0
    outer loop
      vertex -20 -30 14.5
      vertex -40 -30 -25
      vertex 20 -30 14.5
    endloop
  endfacet
  facet normal 0 -1 0
    outer loop
      vertex -40 -30 -25
      vertex -20 -30 14.5
      vertex -40 -30 25
    endloop
  endfacet
  facet normal 0 -1 0
    outer loop
      vertex 20 -30 14.5
      vertex 40 -30 25
      vertex 20 -30 25
    endloop
  endfacet
  facet normal 0 -1 0
    outer loop
      vertex 40 -30 -25
      vertex 20 -30 14.5
      vertex -40 -30 -25
    endloop
  endfacet
  facet normal 0 -1 0
    outer loop
      vertex 20 -30 14.5
      vertex 40 -30 -25
      vertex 40 -30 25
    endloop
  endfacet
  facet normal -1 0 0
    outer loop
      vertex 36 -26 -19.005
      vertex 36 26 25
      vertex 36 26 -19.005
    endloop
  endfacet
  facet normal -1 -0 0
    outer loop
      vertex 36 26 25
      vertex 36 -26 -19.005
      vertex 36 -26 25
    endloop
  endfacet
  facet normal -0 0 1
    outer loop
      vertex -36 26 -19.005
      vertex 36 -26 -19.005
      vertex 36 26 -19.005
    endloop
  endfacet
  facet normal 0 0 1
    outer loop
      vertex 36 -26 -19.005
      vertex -36 26 -19.005
      vertex -36 -26 -19.005
    endloop
  endfacet
  facet normal 1 -0 0
    outer loop
      vertex -36 -26 25
      vertex -36 26 -19.005
      vertex -36 26 25
    endloop
  endfacet
  facet normal 1 0 0
    outer loop
      vertex -36 26 -19.005
      vertex -36 -26 25
      vertex -36 -26 -19.005
    endloop
  endfacet
  facet normal 0 -1 0
    outer loop
      vertex -36 26 -19.005
      vertex -25 26 25
      vertex -36 26 25
    endloop
  endfacet
  facet normal 0 -1 -0
    outer loop
      vertex -25 26 25
      vertex -36 26 -19.005
      vertex 25 26 25
    endloop
  endfacet
  facet normal 0 -1 0
    outer loop
      vertex 36 26 -19.005
      vertex 25 26 25
      vertex -36 26 -19.005
    endloop
  endfacet
  facet normal 0 -1 0
    outer loop
      vertex 25 26 25
      vertex 36 26 -19.005
      vertex 36 26 25
    endloop
  endfacet
  facet normal 0 1 -0
    outer loop
      vertex 36 -26 -19.005
      vertex -36 -26 25
      vertex 36 -26 25
    endloop
  endfacet
  facet normal 0 1 0
    outer loop
      vertex -36 -26 25
      vertex 36 -26 -19.005
      vertex -36 -26 -19.005
    endloop
  endfacet
  facet normal -1 0 0
    outer loop
      vertex 20 -30 14.5
      vertex 20 -27.5 25
      vertex 20 -27.5 14.5
    endloop
  endfacet
  facet normal -1 -0 0
    outer loop
      vertex 20 -27.5 25
      vertex 20 -30 14.5
      vertex 20 -30 25
    endloop
  endfacet
  facet normal -0 0 1
    outer loop
      vertex -20 -27.5 14.5
      vertex 20 -30 14.5
      vertex 20 -27.5 14.5
    endloop
  endfacet
  facet normal 0 0 1
    outer loop
      vertex 20 -30 14.5
      vertex -20 -27.5 14.5
      vertex -20 -30 14.5
    endloop
  endfacet
  facet normal 1 -0 0
    outer loop
      vertex -20 -30 25
      vertex -20 -27.5 14.5
      vertex -20 -27.5 25
    endloop
  endfacet
  facet normal 1 0 0
    outer loop
      vertex -20 -27.5 14.5
      vertex -20 -30 25
      vertex -20 -30 14.5
    endloop
  endfacet
  facet normal 0 -1 0
    outer loop
      vertex -20 -27.5 14.5
      vertex 20 -27.5 25
      vertex -20 -27.5 25
    endloop
  endfacet
  facet normal 0 -1 -0
    outer loop
      vertex 20 -27.5 25
      vertex -20 -27.5 14.5
      vertex 20 -27.5 14.5
    endloop
  endfacet
  facet normal -0 0 1
    outer loop
      vertex 37.5 4 -0.5
      vertex 40 -4 -0.5
      vertex 40 4 -0.5
    endloop
  endfacet
  facet normal 0 0 1
    outer loop
      vertex 40 -4 -0.5
      vertex 37.5 4 -0.5
      vertex 37.5 -4 -0.5
    endloop
  endfacet
  facet normal 1 -0 0
    outer loop
      vertex 37.5 -4 25
      vertex 37.5 4 -0.5
      vertex 37.5 4 25
    endloop
  endfacet
  facet normal 1 0 0
    outer loop
      vertex 37.5 4 -0.5
      vertex 37.5 -4 25
      vertex 37.5 -4 -0.5
    endloop
  endfacet
  facet normal 0 -1 0
    outer loop
      vertex 37.5 4 -0.5
      vertex 40 4 25
      vertex 37.5 4 25
    endloop
  endfacet
  facet normal 0 -1 -0
    outer loop
      vertex 40 4 25
      vertex 37.5 4 -0.5
      vertex 40 4 -0.5
    endloop
  endfacet
  facet normal 0 1 -0
    outer loop
      vertex 40 -4 -0.5
      vertex 37.5 -4 25
      vertex 40 -4 25
    endloop
  endfacet
  facet normal 0 1 0
    outer loop
      vertex 37.5 -4 25
      vertex 40 -4 -0.5
      vertex 37.5 -4 -0.5
    endloop
  endfacet
  facet normal 1 -0 0
    outer loop
      vertex 25 24 29
      vertex 25 26 25
      vertex 25 26 29
    endloop
  endfacet
  facet normal 1 0 0
    outer loop
      vertex 25 26 25
      vertex 25 24 29
      vertex 25 24 25
    endloop
  endfacet
  facet normal -0 0 1
    outer loop
      vertex -25 26 29
      vertex 25 24 29
      vertex 25 26 29
    endloop
  endfacet
  facet normal 0 0 1
    outer loop
      vertex 25 24 29
      vertex -25 26 29
      vertex -25 24 29
    endloop
  endfacet
  facet normal 0 0 -1
    outer loop
      vertex -25 24 25
      vertex 25 26 25
      vertex 25 24 25
    endloop
  endfacet
  facet normal -0 0 -1
    outer loop
      vertex 25 26 25
      vertex -25 24 25
      vertex -25 26 25
    endloop
  endfacet
  facet normal -1 0 0
    outer loop
      vertex -25 24 25
      vertex -25 26 29
      vertex -25 26 25
    endloop
  endfacet
  facet normal -1 -0 0
    outer loop
      vertex -25 26 29
      vertex -25 24 25
      vertex -25 24 29
    endloop
  endfacet
  facet normal 0 1 -0
    outer loop
      vertex 25 26 25
      vertex -25 26 29
      vertex 25 26 29
    endloop
  endfacet
  facet normal 0 1 0
    outer loop
      vertex -25 26 29
      vertex 25 26 25
      vertex -25 26 25
    endloop
  endfacet
  facet normal 0 -1 0
    outer loop
      vertex -25 24 25
      vertex 25 24 29
      vertex -25 24 29
    endloop
  endfacet
  facet normal 0 -1 -0
    outer loop
      vertex 25 24 29
      vertex -25 24 25
      vertex 25 24 25
    endloop
  endfacet
endsolid OpenSCAD_Model
