solid OpenSCAD_Model
  facet normal 1 -0 0
    outer loop
      vertex 32 8 11
      vertex 32 24 8
      vertex 32 24 11
    endloop
  endfacet
  facet normal 1 0 0
    outer loop
      vertex 32 24 8
      vertex 32 8 11
      vertex 32 8 8
    endloop
  endfacet
  facet normal 0 0 -1
    outer loop
      vertex 8 24 11
      vertex 32 56 11
      vertex 32 24 11
    endloop
  endfacet
  facet normal -0 0 -1
    outer loop
      vertex 32 56 11
      vertex 8 24 11
      vertex 8 56 11
    endloop
  endfacet
  facet normal 0 0 -1
    outer loop
      vertex 88 24 11
      vertex 112 56 11
      vertex 112 24 11
    endloop
  endfacet
  facet normal -0 0 -1
    outer loop
      vertex 112 56 11
      vertex 88 24 11
      vertex 88 56 11
    endloop
  endfacet
  facet normal 0 0 -1
    outer loop
      vertex 112 24 11
      vertex 120 0 11
      vertex 112 8 11
    endloop
  endfacet
  facet normal 0 0 -1
    outer loop
      vertex 120 0 11
      vertex 88 8 11
      vertex 112 8 11
    endloop
  endfacet
  facet normal 0 0 -1
    outer loop
      vertex 32 24 11
      vertex 88 24 11
      vertex 88 8 11
    endloop
  endfacet
  facet normal 0 0 -1
    outer loop
      vertex 88 24 11
      vertex 32 24 11
      vertex 88 56 11
    endloop
  endfacet
  facet normal 0 0 -1
    outer loop
      vertex 32 24 11
      vertex 88 8 11
      vertex 32 8 11
    endloop
  endfacet
  facet normal 0 0 -1
    outer loop
      vertex 120 0 11
      vertex 32 8 11
      vertex 88 8 11
    endloop
  endfacet
  facet normal 0 0 -1
    outer loop
      vertex 0 0 11
      vertex 32 8 11
      vertex 120 0 11
    endloop
  endfacet
  facet normal 0 0 -1
    outer loop
      vertex 0 0 11
      vertex 8 24 11
      vertex 8 8 11
    endloop
  endfacet
  facet normal -0 0 -1
    outer loop
      vertex 8 24 11
      vertex 0 0 11
      vertex 8 56 11
    endloop
  endfacet
  facet normal 0 0 -1
    outer loop
      vertex 0 80 11
      vertex 8 56 11
      vertex 0 0 11
    endloop
  endfacet
  facet normal -0 0 -1
    outer loop
      vertex 32 8 11
      vertex 0 0 11
      vertex 8 8 11
    endloop
  endfacet
  facet normal 0 0 -1
    outer loop
      vertex 120 0 11
      vertex 112 24 11
      vertex 120 80 11
    endloop
  endfacet
  facet normal 0 0 -1
    outer loop
      vertex 112 56 11
      vertex 120 80 11
      vertex 112 24 11
    endloop
  endfacet
  facet normal 0 0 -1
    outer loop
      vertex 112 72 11
      vertex 120 80 11
      vertex 112 56 11
    endloop
  endfacet
  facet normal 0 0 -1
    outer loop
      vertex 88 72 11
      vertex 120 80 11
      vertex 112 72 11
    endloop
  endfacet
  facet normal 0 0 -1
    outer loop
      vertex 32 56 11
      vertex 88 56 11
      vertex 32 24 11
    endloop
  endfacet
  facet normal 0 0 -1
    outer loop
      vertex 88 56 11
      vertex 32 56 11
      vertex 88 72 11
    endloop
  endfacet
  facet normal 0 0 -1
    outer loop
      vertex 32 72 11
      vertex 88 72 11
      vertex 32 56 11
    endloop
  endfacet
  facet normal 0 0 -1
    outer loop
      vertex 32 72 11
      vertex 120 80 11
      vertex 88 72 11
    endloop
  endfacet
  facet normal 0 0 -1
    outer loop
      vertex 0 80 11
      vertex 32 72 11
      vertex 8 72 11
    endloop
  endfacet
  facet normal 0 0 -1
    outer loop
      vertex 32 72 11
      vertex 0 80 11
      vertex 120 80 11
    endloop
  endfacet
  facet normal 0 0 -1
    outer loop
      vertex 8 56 11
      vertex 0 80 11
      vertex 8 72 11
    endloop
  endfacet
  facet normal 0 0 -1
    outer loop
      vertex 22 8 8
      vertex 32 24 8
      vertex 32 8 8
    endloop
  endfacet
  facet normal -0 0 -1
    outer loop
      vertex 32 24 8
      vertex 22 8 8
      vertex 22 24 8
    endloop
  endfacet
  facet normal -1 0 0
    outer loop
      vertex 8 8 0
      vertex 8 24 11
      vertex 8 24 0
    endloop
  endfacet
  facet normal -1 -0 0
    outer loop
      vertex 8 24 11
      vertex 8 8 0
      vertex 8 8 11
    endloop
  endfacet
  facet normal 0 1 0
    outer loop
      vertex 22 24 8
      vertex 32 24 11
      vertex 32 24 8
    endloop
  endfacet
  facet normal 0 1 0
    outer loop
      vertex 32 24 11
      vertex 22 24 8
      vertex 8 24 11
    endloop
  endfacet
  facet normal 0 1 0
    outer loop
      vertex 8 24 0
      vertex 22 24 8
      vertex 22 24 0
    endloop
  endfacet
  facet normal 0 1 0
    outer loop
      vertex 22 24 8
      vertex 8 24 0
      vertex 8 24 11
    endloop
  endfacet
  facet normal 0 -1 0
    outer loop
      vertex 8 8 11
      vertex 22 8 8
      vertex 32 8 11
    endloop
  endfacet
  facet normal 0 -1 0
    outer loop
      vertex 8 8 0
      vertex 22 8 8
      vertex 8 8 11
    endloop
  endfacet
  facet normal 0 -1 -0
    outer loop
      vertex 22 8 8
      vertex 8 8 0
      vertex 22 8 0
    endloop
  endfacet
  facet normal 0 -1 -0
    outer loop
      vertex 32 8 11
      vertex 22 8 8
      vertex 32 8 8
    endloop
  endfacet
  facet normal 1 -0 0
    outer loop
      vertex 22 8 8
      vertex 22 24 0
      vertex 22 24 8
    endloop
  endfacet
  facet normal 1 0 0
    outer loop
      vertex 22 24 0
      vertex 22 8 8
      vertex 22 8 0
    endloop
  endfacet
  facet normal 0 0 -1
    outer loop
      vertex 8 8 0
      vertex 22 24 0
      vertex 22 8 0
    endloop
  endfacet
  facet normal -0 0 -1
    outer loop
      vertex 22 24 0
      vertex 8 8 0
      vertex 8 24 0
    endloop
  endfacet
  facet normal 1 -0 0
    outer loop
      vertex 112 8 11
      vertex 112 24 0
      vertex 112 24 11
    endloop
  endfacet
  facet normal 1 0 0
    outer loop
      vertex 112 24 0
      vertex 112 8 11
      vertex 112 8 0
    endloop
  endfacet
  facet normal 0 0 -1
    outer loop
      vertex 88 8 8
      vertex 98 24 8
      vertex 98 8 8
    endloop
  endfacet
  facet normal -0 0 -1
    outer loop
      vertex 98 24 8
      vertex 88 8 8
      vertex 88 24 8
    endloop
  endfacet
  facet normal -1 0 0
    outer loop
      vertex 88 8 8
      vertex 88 24 11
      vertex 88 24 8
    endloop
  endfacet
  facet normal -1 -0 0
    outer loop
      vertex 88 24 11
      vertex 88 8 8
      vertex 88 8 11
    endloop
  endfacet
  facet normal 0 1 0
    outer loop
      vertex 112 24 11
      vertex 98 24 8
      vertex 88 24 11
    endloop
  endfacet
  facet normal 0 1 -0
    outer loop
      vertex 112 24 0
      vertex 98 24 8
      vertex 112 24 11
    endloop
  endfacet
  facet normal 0 1 0
    outer loop
      vertex 98 24 8
      vertex 112 24 0
      vertex 98 24 0
    endloop
  endfacet
  facet normal 0 1 0
    outer loop
      vertex 88 24 11
      vertex 98 24 8
      vertex 88 24 8
    endloop
  endfacet
  facet normal 0 -1 0
    outer loop
      vertex 98 8 8
      vertex 88 8 11
      vertex 88 8 8
    endloop
  endfacet
  facet normal 0 -1 0
    outer loop
      vertex 88 8 11
      vertex 98 8 8
      vertex 112 8 11
    endloop
  endfacet
  facet normal 0 -1 0
    outer loop
      vertex 112 8 0
      vertex 98 8 8
      vertex 98 8 0
    endloop
  endfacet
  facet normal 0 -1 0
    outer loop
      vertex 98 8 8
      vertex 112 8 0
      vertex 112 8 11
    endloop
  endfacet
  facet normal 0 0 -1
    outer loop
      vertex 98 8 0
      vertex 112 24 0
      vertex 112 8 0
    endloop
  endfacet
  facet normal -0 0 -1
    outer loop
      vertex 112 24 0
      vertex 98 8 0
      vertex 98 24 0
    endloop
  endfacet
  facet normal -1 0 0
    outer loop
      vertex 98 8 0
      vertex 98 24 8
      vertex 98 24 0
    endloop
  endfacet
  facet normal -1 -0 0
    outer loop
      vertex 98 24 8
      vertex 98 8 0
      vertex 98 8 8
    endloop
  endfacet
  facet normal 1 -0 0
    outer loop
      vertex 32 56 11
      vertex 32 72 8
      vertex 32 72 11
    endloop
  endfacet
  facet normal 1 0 0
    outer loop
      vertex 32 72 8
      vertex 32 56 11
      vertex 32 56 8
    endloop
  endfacet
  facet normal 0 0 -1
    outer loop
      vertex 22 56 8
      vertex 32 72 8
      vertex 32 56 8
    endloop
  endfacet
  facet normal -0 0 -1
    outer loop
      vertex 32 72 8
      vertex 22 56 8
      vertex 22 72 8
    endloop
  endfacet
  facet normal -1 0 0
    outer loop
      vertex 8 56 0
      vertex 8 72 11
      vertex 8 72 0
    endloop
  endfacet
  facet normal -1 -0 0
    outer loop
      vertex 8 72 11
      vertex 8 56 0
      vertex 8 56 11
    endloop
  endfacet
  facet normal 0 1 0
    outer loop
      vertex 22 72 8
      vertex 32 72 11
      vertex 32 72 8
    endloop
  endfacet
  facet normal 0 1 0
    outer loop
      vertex 32 72 11
      vertex 22 72 8
      vertex 8 72 11
    endloop
  endfacet
  facet normal 0 1 0
    outer loop
      vertex 8 72 0
      vertex 22 72 8
      vertex 22 72 0
    endloop
  endfacet
  facet normal 0 1 0
    outer loop
      vertex 22 72 8
      vertex 8 72 0
      vertex 8 72 11
    endloop
  endfacet
  facet normal 0 -1 0
    outer loop
      vertex 8 56 11
      vertex 22 56 8
      vertex 32 56 11
    endloop
  endfacet
  facet normal 0 -1 0
    outer loop
      vertex 8 56 0
      vertex 22 56 8
      vertex 8 56 11
    endloop
  endfacet
  facet normal 0 -1 -0
    outer loop
      vertex 22 56 8
      vertex 8 56 0
      vertex 22 56 0
    endloop
  endfacet
  facet normal 0 -1 -0
    outer loop
      vertex 32 56 11
      vertex 22 56 8
      vertex 32 56 8
    endloop
  endfacet
  facet normal 1 -0 0
    outer loop
      vertex 22 56 8
      vertex 22 72 0
      vertex 22 72 8
    endloop
  endfacet
  facet normal 1 0 0
    outer loop
      vertex 22 72 0
      vertex 22 56 8
      vertex 22 56 0
    endloop
  endfacet
  facet normal 0 0 -1
    outer loop
      vertex 8 56 0
      vertex 22 72 0
      vertex 22 56 0
    endloop
  endfacet
  facet normal -0 0 -1
    outer loop
      vertex 22 72 0
      vertex 8 56 0
      vertex 8 72 0
    endloop
  endfacet
  facet normal 1 -0 0
    outer loop
      vertex 112 56 11
      vertex 112 72 0
      vertex 112 72 11
    endloop
  endfacet
  facet normal 1 0 0
    outer loop
      vertex 112 72 0
      vertex 112 56 11
      vertex 112 56 0
    endloop
  endfacet
  facet normal 0 0 -1
    outer loop
      vertex 88 56 8
      vertex 98 72 8
      vertex 98 56 8
    endloop
  endfacet
  facet normal -0 0 -1
    outer loop
      vertex 98 72 8
      vertex 88 56 8
      vertex 88 72 8
    endloop
  endfacet
  facet normal -1 0 0
    outer loop
      vertex 88 56 8
      vertex 88 72 11
      vertex 88 72 8
    endloop
  endfacet
  facet normal -1 -0 0
    outer loop
      vertex 88 72 11
      vertex 88 56 8
      vertex 88 56 11
    endloop
  endfacet
  facet normal 0 1 0
    outer loop
      vertex 112 72 11
      vertex 98 72 8
      vertex 88 72 11
    endloop
  endfacet
  facet normal 0 1 -0
    outer loop
      vertex 112 72 0
      vertex 98 72 8
      vertex 112 72 11
    endloop
  endfacet
  facet normal 0 1 0
    outer loop
      vertex 98 72 8
      vertex 112 72 0
      vertex 98 72 0
    endloop
  endfacet
  facet normal 0 1 0
    outer loop
      vertex 88 72 11
      vertex 98 72 8
      vertex 88 72 8
    endloop
  endfacet
  facet normal 0 -1 0
    outer loop
      vertex 98 56 8
      vertex 88 56 11
      vertex 88 56 8
    endloop
  endfacet
  facet normal 0 -1 0
    outer loop
      vertex 88 56 11
      vertex 98 56 8
      vertex 112 56 11
    endloop
  endfacet
  facet normal 0 -1 0
    outer loop
      vertex 112 56 0
      vertex 98 56 8
      vertex 98 56 0
    endloop
  endfacet
  facet normal 0 -1 0
    outer loop
      vertex 98 56 8
      vertex 112 56 0
      vertex 112 56 11
    endloop
  endfacet
  facet normal 0 0 -1
    outer loop
      vertex 98 56 0
      vertex 112 72 0
      vertex 112 56 0
    endloop
  endfacet
  facet normal -0 0 -1
    outer loop
      vertex 112 72 0
      vertex 98 56 0
      vertex 98 72 0
    endloop
  endfacet
  facet normal -1 0 0
    outer loop
      vertex 98 56 0
      vertex 98 72 8
      vertex 98 72 0
    endloop
  endfacet
  facet normal -1 -0 0
    outer loop
      vertex 98 72 8
      vertex 98 56 0
      vertex 98 56 8
    endloop
  endfacet
  facet normal 1 -0 0
    outer loop
      vertex 120 0 17
      vertex 120 80 11
      vertex 120 80 17
    endloop
  endfacet
  facet normal 1 0 0
    outer loop
      vertex 120 80 11
      vertex 120 0 17
      vertex 120 0 11
    endloop
  endfacet
  facet normal -0 0 1
    outer loop
      vertex 0 80 17
      vertex 120 0 17
      vertex 120 80 17
    endloop
  endfacet
  facet normal 0 0 1
    outer loop
      vertex 120 0 17
      vertex 0 80 17
      vertex 0 0 17
    endloop
  endfacet
  facet normal -1 0 0
    outer loop
      vertex 0 0 11
      vertex 0 80 17
      vertex 0 80 11
    endloop
  endfacet
  facet normal -1 -0 0
    outer loop
      vertex 0 80 17
      vertex 0 0 11
      vertex 0 0 17
    endloop
  endfacet
  facet normal 0 1 -0
    outer loop
      vertex 120 80 11
      vertex 0 80 17
      vertex 120 80 17
    endloop
  endfacet
  facet normal 0 1 0
    outer loop
      vertex 0 80 17
      vertex 120 80 11
      vertex 0 80 11
    endloop
  endfacet
  facet normal 0 -1 0
    outer loop
      vertex 0 0 11
      vertex 120 0 17
      vertex 0 0 17
    endloop
  endfacet
  facet normal 0 -1 -0
    outer loop
      vertex 120 0 17
      vertex 0 0 11
      vertex 120 0 11
    endloop
  endfacet
endsolid OpenSCAD_Model
