solid OpenSCAD_Model
  facet normal -1 0 0
    outer loop
      vertex 0 0.333888 0.0879059
      vertex 0 0.444699 0.111891
      vertex 0 0.444699 0
    endloop
  endfacet
  facet normal -1 0 0
    outer loop
      vertex 0 0.444699 0.111891
      vertex 0 0.337914 0.103587
      vertex 0 0.337999 0.106299
    endloop
  endfacet
  facet normal -1 0 0
    outer loop
      vertex 0 0.444699 0.111891
      vertex 0 0.337659 0.100885
      vertex 0 0.337914 0.103587
    endloop
  endfacet
  facet normal -1 0 0
    outer loop
      vertex 0 0.444699 0.111891
      vertex 0 0.337234 0.0982046
      vertex 0 0.337659 0.100885
    endloop
  endfacet
  facet normal -1 0 0
    outer loop
      vertex 0 0.444699 0.111891
      vertex 0 0.336642 0.0955563
      vertex 0 0.337234 0.0982046
    endloop
  endfacet
  facet normal -1 0 0
    outer loop
      vertex 0 0.444699 0.111891
      vertex 0 0.335885 0.0929499
      vertex 0 0.336642 0.0955563
    endloop
  endfacet
  facet normal -1 0 0
    outer loop
      vertex 0 0.444699 0.111891
      vertex 0 0.334966 0.0903969
      vertex 0 0.335885 0.0929499
    endloop
  endfacet
  facet normal -1 0 0
    outer loop
      vertex 0 0.444699 0.111891
      vertex 0 0.333888 0.0879059
      vertex 0 0.334966 0.0903969
    endloop
  endfacet
  facet normal -1 0 0
    outer loop
      vertex 0 0.444699 0
      vertex 0 0.332656 0.0854874
      vertex 0 0.333888 0.0879059
    endloop
  endfacet
  facet normal -1 0 0
    outer loop
      vertex 0 0.444699 0
      vertex 0 0.331274 0.0831518
      vertex 0 0.332656 0.0854874
    endloop
  endfacet
  facet normal -1 0 0
    outer loop
      vertex 0 0.444699 0
      vertex 0 0.329749 0.0809069
      vertex 0 0.331274 0.0831518
    endloop
  endfacet
  facet normal -1 0 0
    outer loop
      vertex 0 0.444699 0
      vertex 0 0.328086 0.078763
      vertex 0 0.329749 0.0809069
    endloop
  endfacet
  facet normal -1 0 0
    outer loop
      vertex 0 0.444699 0
      vertex 0 0.326291 0.0767269
      vertex 0 0.328086 0.078763
    endloop
  endfacet
  facet normal -1 0 0
    outer loop
      vertex 0 0.444699 0
      vertex 0 0.324372 0.0748081
      vertex 0 0.326291 0.0767269
    endloop
  endfacet
  facet normal -1 0 0
    outer loop
      vertex 0 0.444699 0
      vertex 0 0.322336 0.0730133
      vertex 0 0.324372 0.0748081
    endloop
  endfacet
  facet normal -1 0 0
    outer loop
      vertex 0 0.444699 0
      vertex 0 0.320191 0.0713501
      vertex 0 0.322336 0.0730133
    endloop
  endfacet
  facet normal -1 0 0
    outer loop
      vertex 0 0.444699 0
      vertex 0 0.317947 0.0698242
      vertex 0 0.320191 0.0713501
    endloop
  endfacet
  facet normal -1 0 0
    outer loop
      vertex 0 0.444699 0
      vertex 0 0.315611 0.0684433
      vertex 0 0.317947 0.0698242
    endloop
  endfacet
  facet normal -1 0 0
    outer loop
      vertex 0 0.444699 0
      vertex 0 0.313193 0.0672112
      vertex 0 0.315611 0.0684433
    endloop
  endfacet
  facet normal -1 0 0
    outer loop
      vertex 0 0.444699 0
      vertex 0 0.310702 0.0661335
      vertex 0 0.313193 0.0672112
    endloop
  endfacet
  facet normal -1 0 0
    outer loop
      vertex 0 0.444699 0
      vertex 0 0.308149 0.0652142
      vertex 0 0.310702 0.0661335
    endloop
  endfacet
  facet normal -1 0 0
    outer loop
      vertex 0 0.444699 0
      vertex 0 0.305543 0.0644569
      vertex 0 0.308149 0.0652142
    endloop
  endfacet
  facet normal -1 0 0
    outer loop
      vertex 0 0.444699 0
      vertex 0 0.302895 0.0638647
      vertex 0 0.305543 0.0644569
    endloop
  endfacet
  facet normal -1 0 0
    outer loop
      vertex 0 0.444699 0
      vertex 0 0.300214 0.0634403
      vertex 0 0.302895 0.0638647
    endloop
  endfacet
  facet normal -1 0 0
    outer loop
      vertex 0 0.444699 0
      vertex 0 0.297512 0.0631847
      vertex 0 0.300214 0.0634403
    endloop
  endfacet
  facet normal -1 0 0
    outer loop
      vertex 0 0.444699 0
      vertex 0 0.2948 0.0630999
      vertex 0 0.297512 0.0631847
    endloop
  endfacet
  facet normal -1 0 0
    outer loop
      vertex 0 0.444699 0
      vertex 0 0.292087 0.0631847
      vertex 0 0.2948 0.0630999
    endloop
  endfacet
  facet normal -1 0 0
    outer loop
      vertex 0 0.444699 0
      vertex 0 0.289385 0.0634403
      vertex 0 0.292087 0.0631847
    endloop
  endfacet
  facet normal -1 0 0
    outer loop
      vertex 0 0.444699 0
      vertex 0 0.286705 0.0638647
      vertex 0 0.289385 0.0634403
    endloop
  endfacet
  facet normal -1 0 0
    outer loop
      vertex 0 0 0
      vertex 0 0.286705 0.0638647
      vertex 0 0.444699 0
    endloop
  endfacet
  facet normal -1 -0 0
    outer loop
      vertex 0 0.286705 0.0638647
      vertex 0 0 0
      vertex 0 0.284056 0.0644569
    endloop
  endfacet
  facet normal -1 -0 0
    outer loop
      vertex 0 0.284056 0.0644569
      vertex 0 0 0
      vertex 0 0.28145 0.0652142
    endloop
  endfacet
  facet normal -1 -0 0
    outer loop
      vertex 0 0.251685 0.103587
      vertex 0 0.134521 0.0991993
      vertex 0 0.251599 0.106299
    endloop
  endfacet
  facet normal -1 -0 0
    outer loop
      vertex 0 0.25194 0.100885
      vertex 0 0.134521 0.0991993
      vertex 0 0.251685 0.103587
    endloop
  endfacet
  facet normal -1 0 0
    outer loop
      vertex 0 0.252365 0.0982046
      vertex 0 0.134521 0.0991993
      vertex 0 0.25194 0.100885
    endloop
  endfacet
  facet normal -1 0 0
    outer loop
      vertex 0 0.252956 0.0955563
      vertex 0 0.134521 0.0991993
      vertex 0 0.252365 0.0982046
    endloop
  endfacet
  facet normal -1 0 0
    outer loop
      vertex 0 0.253714 0.0929499
      vertex 0 0.134521 0.0991993
      vertex 0 0.252956 0.0955563
    endloop
  endfacet
  facet normal -1 0 0
    outer loop
      vertex 0 0.254633 0.0903969
      vertex 0 0.134521 0.0991993
      vertex 0 0.253714 0.0929499
    endloop
  endfacet
  facet normal -1 0 0
    outer loop
      vertex 0 0.255711 0.0879059
      vertex 0 0.134521 0.0991993
      vertex 0 0.254633 0.0903969
    endloop
  endfacet
  facet normal -1 0 0
    outer loop
      vertex 0 0.256943 0.0854874
      vertex 0 0.134521 0.0991993
      vertex 0 0.255711 0.0879059
    endloop
  endfacet
  facet normal -1 0 0
    outer loop
      vertex 0 0.258325 0.0831518
      vertex 0 0.134521 0.0991993
      vertex 0 0.256943 0.0854874
    endloop
  endfacet
  facet normal -1 0 0
    outer loop
      vertex 0 0.25985 0.0809069
      vertex 0 0.134521 0.0991993
      vertex 0 0.258325 0.0831518
    endloop
  endfacet
  facet normal -1 0 0
    outer loop
      vertex 0 0.261514 0.078763
      vertex 0 0.134521 0.0991993
      vertex 0 0.25985 0.0809069
    endloop
  endfacet
  facet normal -1 0 0
    outer loop
      vertex 0 0.263309 0.0767269
      vertex 0 0.134521 0.0991993
      vertex 0 0.261514 0.078763
    endloop
  endfacet
  facet normal -1 0 0
    outer loop
      vertex 0 0.265227 0.0748081
      vertex 0 0.134521 0.0991993
      vertex 0 0.263309 0.0767269
    endloop
  endfacet
  facet normal -1 0 0
    outer loop
      vertex 0 0.267262 0.0730133
      vertex 0 0.134521 0.0991993
      vertex 0 0.265227 0.0748081
    endloop
  endfacet
  facet normal -1 0 0
    outer loop
      vertex 0 0.269407 0.0713501
      vertex 0 0.134521 0.0991993
      vertex 0 0.267262 0.0730133
    endloop
  endfacet
  facet normal -1 0 0
    outer loop
      vertex 0 0.271652 0.0698242
      vertex 0 0.134521 0.0991993
      vertex 0 0.269407 0.0713501
    endloop
  endfacet
  facet normal -1 0 0
    outer loop
      vertex 0 0 0
      vertex 0 0.271652 0.0698242
      vertex 0 0.273988 0.0684433
    endloop
  endfacet
  facet normal -1 0 0
    outer loop
      vertex 0 0 0
      vertex 0 0.273988 0.0684433
      vertex 0 0.276406 0.0672112
    endloop
  endfacet
  facet normal -1 0 0
    outer loop
      vertex 0 0 0
      vertex 0 0.276406 0.0672112
      vertex 0 0.278896 0.0661335
    endloop
  endfacet
  facet normal -1 -0 0
    outer loop
      vertex 0 0.28145 0.0652142
      vertex 0 0 0
      vertex 0 0.278896 0.0661335
    endloop
  endfacet
  facet normal -1 -0 0
    outer loop
      vertex 0 0.271652 0.0698242
      vertex 0 0 0
      vertex 0 0.134521 0.0991993
    endloop
  endfacet
  facet normal -1 0 0
    outer loop
      vertex 0 0 0.193749
      vertex 0 0.0909996 0.0991993
      vertex 0 0 0
    endloop
  endfacet
  facet normal -1 -0 0
    outer loop
      vertex 0 0.134521 0.0991993
      vertex 0 0 0
      vertex 0 0.0909996 0.0991993
    endloop
  endfacet
  facet normal -1 0 0
    outer loop
      vertex 0 0.525803 0.111891
      vertex 0 0.625 0
      vertex 0 0.525803 0
    endloop
  endfacet
  facet normal -1 0 0
    outer loop
      vertex 0 0.625 0
      vertex 0 0.525803 0.111891
      vertex 0 0.625 0.193749
    endloop
  endfacet
  facet normal -1 0 0
    outer loop
      vertex 0 0.444699 0.111891
      vertex 0 0.625 0.193749
      vertex 0 0.525803 0.111891
    endloop
  endfacet
  facet normal -1 0 0
    outer loop
      vertex 0 0.337914 0.109012
      vertex 0 0.444699 0.111891
      vertex 0 0.337999 0.106299
    endloop
  endfacet
  facet normal -1 0 0
    outer loop
      vertex 0 0.337659 0.111714
      vertex 0 0.444699 0.111891
      vertex 0 0.337914 0.109012
    endloop
  endfacet
  facet normal -1 0 0
    outer loop
      vertex 0 0.337234 0.114394
      vertex 0 0.444699 0.111891
      vertex 0 0.337659 0.111714
    endloop
  endfacet
  facet normal -1 0 0
    outer loop
      vertex 0 0.336642 0.117043
      vertex 0 0.444699 0.111891
      vertex 0 0.337234 0.114394
    endloop
  endfacet
  facet normal -1 0 0
    outer loop
      vertex 0 0.335885 0.119649
      vertex 0 0.444699 0.111891
      vertex 0 0.336642 0.117043
    endloop
  endfacet
  facet normal -1 0 0
    outer loop
      vertex 0 0.334966 0.122203
      vertex 0 0.444699 0.111891
      vertex 0 0.335885 0.119649
    endloop
  endfacet
  facet normal -1 0 0
    outer loop
      vertex 0 0.333888 0.124693
      vertex 0 0.444699 0.111891
      vertex 0 0.334966 0.122203
    endloop
  endfacet
  facet normal -1 0 0
    outer loop
      vertex 0 0.332656 0.127111
      vertex 0 0.444699 0.111891
      vertex 0 0.333888 0.124693
    endloop
  endfacet
  facet normal -1 0 0
    outer loop
      vertex 0 0.331274 0.129447
      vertex 0 0.444699 0.111891
      vertex 0 0.332656 0.127111
    endloop
  endfacet
  facet normal -1 0 0
    outer loop
      vertex 0 0.329749 0.131692
      vertex 0 0.444699 0.111891
      vertex 0 0.331274 0.129447
    endloop
  endfacet
  facet normal -1 0 0
    outer loop
      vertex 0 0.328086 0.133836
      vertex 0 0.444699 0.111891
      vertex 0 0.329749 0.131692
    endloop
  endfacet
  facet normal -1 0 0
    outer loop
      vertex 0 0.326291 0.135872
      vertex 0 0.444699 0.111891
      vertex 0 0.328086 0.133836
    endloop
  endfacet
  facet normal -1 0 0
    outer loop
      vertex 0 0.324372 0.137791
      vertex 0 0.444699 0.111891
      vertex 0 0.326291 0.135872
    endloop
  endfacet
  facet normal -1 0 0
    outer loop
      vertex 0 0.322336 0.139585
      vertex 0 0.444699 0.111891
      vertex 0 0.324372 0.137791
    endloop
  endfacet
  facet normal -1 0 0
    outer loop
      vertex 0 0.320191 0.141249
      vertex 0 0.444699 0.111891
      vertex 0 0.322336 0.139585
    endloop
  endfacet
  facet normal -1 0 0
    outer loop
      vertex 0 0.317947 0.142775
      vertex 0 0.444699 0.111891
      vertex 0 0.320191 0.141249
    endloop
  endfacet
  facet normal -1 0 0
    outer loop
      vertex 0 0.315611 0.144156
      vertex 0 0.444699 0.111891
      vertex 0 0.317947 0.142775
    endloop
  endfacet
  facet normal -1 0 0
    outer loop
      vertex 0 0.444699 0.111891
      vertex 0 0.315611 0.144156
      vertex 0 0.625 0.193749
    endloop
  endfacet
  facet normal -1 0 0
    outer loop
      vertex 0 0.313193 0.145388
      vertex 0 0.625 0.193749
      vertex 0 0.315611 0.144156
    endloop
  endfacet
  facet normal -1 0 0
    outer loop
      vertex 0 0.310702 0.146466
      vertex 0 0.625 0.193749
      vertex 0 0.313193 0.145388
    endloop
  endfacet
  facet normal -1 0 0
    outer loop
      vertex 0 0.308149 0.147386
      vertex 0 0.625 0.193749
      vertex 0 0.310702 0.146466
    endloop
  endfacet
  facet normal -1 0 0
    outer loop
      vertex 0 0.305543 0.148142
      vertex 0 0.625 0.193749
      vertex 0 0.308149 0.147386
    endloop
  endfacet
  facet normal -1 0 0
    outer loop
      vertex 0 0.302895 0.148734
      vertex 0 0.625 0.193749
      vertex 0 0.305543 0.148142
    endloop
  endfacet
  facet normal -1 0 0
    outer loop
      vertex 0 0.300214 0.149158
      vertex 0 0.625 0.193749
      vertex 0 0.302895 0.148734
    endloop
  endfacet
  facet normal -1 0 0
    outer loop
      vertex 0 0.297512 0.149414
      vertex 0 0.625 0.193749
      vertex 0 0.300214 0.149158
    endloop
  endfacet
  facet normal -1 0 0
    outer loop
      vertex 0 0.2948 0.1495
      vertex 0 0.625 0.193749
      vertex 0 0.297512 0.149414
    endloop
  endfacet
  facet normal -1 0 0
    outer loop
      vertex 0 0 0.193749
      vertex 0 0.2948 0.1495
      vertex 0 0.292087 0.149414
    endloop
  endfacet
  facet normal -1 0 0
    outer loop
      vertex 0 0 0.193749
      vertex 0 0.292087 0.149414
      vertex 0 0.289385 0.149158
    endloop
  endfacet
  facet normal -1 0 0
    outer loop
      vertex 0 0.134521 0.0991993
      vertex 0 0.251685 0.109012
      vertex 0 0.251599 0.106299
    endloop
  endfacet
  facet normal -1 0 0
    outer loop
      vertex 0 0.134521 0.0991993
      vertex 0 0.25194 0.111714
      vertex 0 0.251685 0.109012
    endloop
  endfacet
  facet normal -1 0 0
    outer loop
      vertex 0 0.134521 0.143308
      vertex 0 0.25194 0.111714
      vertex 0 0.134521 0.0991993
    endloop
  endfacet
  facet normal -1 0 0
    outer loop
      vertex 0 0.25194 0.111714
      vertex 0 0.134521 0.143308
      vertex 0 0.252365 0.114394
    endloop
  endfacet
  facet normal -1 0 0
    outer loop
      vertex 0 0.252365 0.114394
      vertex 0 0.134521 0.143308
      vertex 0 0.252956 0.117043
    endloop
  endfacet
  facet normal -1 0 0
    outer loop
      vertex 0 0.252956 0.117043
      vertex 0 0.134521 0.143308
      vertex 0 0.253714 0.119649
    endloop
  endfacet
  facet normal -1 0 0
    outer loop
      vertex 0 0.253714 0.119649
      vertex 0 0.134521 0.143308
      vertex 0 0.254633 0.122203
    endloop
  endfacet
  facet normal -1 0 0
    outer loop
      vertex 0 0.254633 0.122203
      vertex 0 0.134521 0.143308
      vertex 0 0.255711 0.124693
    endloop
  endfacet
  facet normal -1 0 0
    outer loop
      vertex 0 0.255711 0.124693
      vertex 0 0.134521 0.143308
      vertex 0 0.256943 0.127111
    endloop
  endfacet
  facet normal -1 0 0
    outer loop
      vertex 0 0.256943 0.127111
      vertex 0 0.134521 0.143308
      vertex 0 0.258325 0.129447
    endloop
  endfacet
  facet normal -1 0 0
    outer loop
      vertex 0 0.258325 0.129447
      vertex 0 0.134521 0.143308
      vertex 0 0.25985 0.131692
    endloop
  endfacet
  facet normal -1 0 0
    outer loop
      vertex 0 0.25985 0.131692
      vertex 0 0.134521 0.143308
      vertex 0 0.261514 0.133836
    endloop
  endfacet
  facet normal -1 0 0
    outer loop
      vertex 0 0.261514 0.133836
      vertex 0 0.134521 0.143308
      vertex 0 0.263309 0.135872
    endloop
  endfacet
  facet normal -1 0 0
    outer loop
      vertex 0 0.263309 0.135872
      vertex 0 0.134521 0.143308
      vertex 0 0.265227 0.137791
    endloop
  endfacet
  facet normal -1 0 0
    outer loop
      vertex 0 0.265227 0.137791
      vertex 0 0.134521 0.143308
      vertex 0 0.267262 0.139585
    endloop
  endfacet
  facet normal -1 0 0
    outer loop
      vertex 0 0.267262 0.139585
      vertex 0 0.134521 0.143308
      vertex 0 0.269407 0.141249
    endloop
  endfacet
  facet normal -1 0 0
    outer loop
      vertex 0 0.269407 0.141249
      vertex 0 0.134521 0.143308
      vertex 0 0.271652 0.142775
    endloop
  endfacet
  facet normal -1 0 0
    outer loop
      vertex 0 0.271652 0.142775
      vertex 0 0.134521 0.143308
      vertex 0 0.273988 0.144156
    endloop
  endfacet
  facet normal -1 -0 0
    outer loop
      vertex 0 0.273988 0.144156
      vertex 0 0.134521 0.143308
      vertex 0 0.276406 0.145388
    endloop
  endfacet
  facet normal -1 -0 0
    outer loop
      vertex 0 0.276406 0.145388
      vertex 0 0.134521 0.143308
      vertex 0 0.278896 0.146466
    endloop
  endfacet
  facet normal -1 -0 0
    outer loop
      vertex 0 0.278896 0.146466
      vertex 0 0.134521 0.143308
      vertex 0 0.28145 0.147386
    endloop
  endfacet
  facet normal -1 0 0
    outer loop
      vertex 0 0.134521 0.143308
      vertex 0 0.284056 0.148142
      vertex 0 0.28145 0.147386
    endloop
  endfacet
  facet normal -1 0 0
    outer loop
      vertex 0 0 0.193749
      vertex 0 0.284056 0.148142
      vertex 0 0.134521 0.143308
    endloop
  endfacet
  facet normal -1 0 0
    outer loop
      vertex 0 0.284056 0.148142
      vertex 0 0 0.193749
      vertex 0 0.286705 0.148734
    endloop
  endfacet
  facet normal -1 0 0
    outer loop
      vertex 0 0.286705 0.148734
      vertex 0 0 0.193749
      vertex 0 0.289385 0.149158
    endloop
  endfacet
  facet normal -1 0 0
    outer loop
      vertex 0 0 0.193749
      vertex 0 0.134521 0.143308
      vertex 0 0.0909996 0.143308
    endloop
  endfacet
  facet normal -1 0 0
    outer loop
      vertex 0 0.2948 0.1495
      vertex 0 0 0.193749
      vertex 0 0.625 0.193749
    endloop
  endfacet
  facet normal -1 0 0
    outer loop
      vertex 0 0.0909996 0.0991993
      vertex 0 0 0.193749
      vertex 0 0.0909996 0.143308
    endloop
  endfacet
  facet normal 0 0 1
    outer loop
      vertex 0.577168 0.207299 0.00624943
      vertex 0.75 0.625 0.00624943
      vertex 0.577168 0.613549 0.00624943
    endloop
  endfacet
  facet normal 0 0 1
    outer loop
      vertex 0.75 0.625 0.00624943
      vertex 0.3125 0.613549 0.00624943
      vertex 0.577168 0.613549 0.00624943
    endloop
  endfacet
  facet normal 0 0 1
    outer loop
      vertex 0.3125 0.613549 0.00624943
      vertex 0.00629997 0.625 0.00624943
      vertex 0.3125 0.207299 0.00624943
    endloop
  endfacet
  facet normal -0 0 1
    outer loop
      vertex 0.00629997 0.625 0.00624943
      vertex 0.3125 0.613549 0.00624943
      vertex 0.75 0.625 0.00624943
    endloop
  endfacet
  facet normal 0 0 1
    outer loop
      vertex 0.75 0.625 0.00624943
      vertex 0.577168 0.207299 0.00624943
      vertex 0.75 0 0.00624943
    endloop
  endfacet
  facet normal -0 0 1
    outer loop
      vertex 0.3125 0.207299 0.00624943
      vertex 0.75 0 0.00624943
      vertex 0.577168 0.207299 0.00624943
    endloop
  endfacet
  facet normal 0 0 1
    outer loop
      vertex 0.3125 0.207299 0.00624943
      vertex 0.00629997 0 0.00624943
      vertex 0.75 0 0.00624943
    endloop
  endfacet
  facet normal 0 0 1
    outer loop
      vertex 0.00629997 0 0.00624943
      vertex 0.3125 0.207299 0.00624943
      vertex 0.00629997 0.625 0.00624943
    endloop
  endfacet
  facet normal 1 -0 0
    outer loop
      vertex 0.75 0 0.00624943
      vertex 0.75 0.625 0
      vertex 0.75 0.625 0.00624943
    endloop
  endfacet
  facet normal 1 0 0
    outer loop
      vertex 0.75 0.625 0
      vertex 0.75 0 0.00624943
      vertex 0.75 0 0
    endloop
  endfacet
  facet normal 0 1 0
    outer loop
      vertex 0.75 0.625 0.00624943
      vertex 0.75 0.625 0
      vertex 0.00629997 0.625 0.00624943
    endloop
  endfacet
  facet normal 0 1 -0
    outer loop
      vertex 0.00629997 0.625 0.00624943
      vertex 0 0.625 0.193749
      vertex 0.00629997 0.625 0.193749
    endloop
  endfacet
  facet normal 0 1 0
    outer loop
      vertex 0.00629997 0.625 0.00624943
      vertex 0 0.625 0
      vertex 0 0.625 0.193749
    endloop
  endfacet
  facet normal 0 1 0
    outer loop
      vertex 0 0.625 0
      vertex 0.00629997 0.625 0.00624943
      vertex 0.75 0.625 0
    endloop
  endfacet
  facet normal 0 0 -1
    outer loop
      vertex 0.75 0 0
      vertex 0.577168 0.207299 0
      vertex 0.75 0.625 0
    endloop
  endfacet
  facet normal 0 0 -1
    outer loop
      vertex 0.75 0 0
      vertex 0.3125 0.207299 0
      vertex 0.577168 0.207299 0
    endloop
  endfacet
  facet normal 0 0 -1
    outer loop
      vertex 0.3125 0.207299 0
      vertex 0.00619984 0.444699 0
      vertex 0.3125 0.613549 0
    endloop
  endfacet
  facet normal 0 0 -1
    outer loop
      vertex 0 0 0
      vertex 0.3125 0.207299 0
      vertex 0.75 0 0
    endloop
  endfacet
  facet normal 0 0 -1
    outer loop
      vertex 0 0 0
      vertex 0.00619984 0.444699 0
      vertex 0.3125 0.207299 0
    endloop
  endfacet
  facet normal -0 0 -1
    outer loop
      vertex 0.00619984 0.444699 0
      vertex 0 0 0
      vertex 0 0.444699 0
    endloop
  endfacet
  facet normal 0 0 -1
    outer loop
      vertex 0.577168 0.613549 0
      vertex 0.75 0.625 0
      vertex 0.577168 0.207299 0
    endloop
  endfacet
  facet normal 0 0 -1
    outer loop
      vertex 0.3125 0.613549 0
      vertex 0.75 0.625 0
      vertex 0.577168 0.613549 0
    endloop
  endfacet
  facet normal 0 0 -1
    outer loop
      vertex 0.00619984 0.525803 0
      vertex 0.3125 0.613549 0
      vertex 0.00619984 0.444699 0
    endloop
  endfacet
  facet normal 0 0 -1
    outer loop
      vertex 0 0.625 0
      vertex 0.00619984 0.525803 0
      vertex 0 0.525803 0
    endloop
  endfacet
  facet normal 0 0 -1
    outer loop
      vertex 0.3125 0.613549 0
      vertex 0 0.625 0
      vertex 0.75 0.625 0
    endloop
  endfacet
  facet normal 0 0 -1
    outer loop
      vertex 0.00619984 0.525803 0
      vertex 0 0.625 0
      vertex 0.3125 0.613549 0
    endloop
  endfacet
  facet normal 0 -1 0
    outer loop
      vertex 0 0 0.193749
      vertex 0.00629997 0 0.00624943
      vertex 0.00629997 0 0.193749
    endloop
  endfacet
  facet normal 0 -1 0
    outer loop
      vertex 0 0 0
      vertex 0.00629997 0 0.00624943
      vertex 0 0 0.193749
    endloop
  endfacet
  facet normal 0 -1 0
    outer loop
      vertex 0.75 0 0
      vertex 0.00629997 0 0.00624943
      vertex 0 0 0
    endloop
  endfacet
  facet normal 0 -1 0
    outer loop
      vertex 0.00629997 0 0.00624943
      vertex 0.75 0 0
      vertex 0.75 0 0.00624943
    endloop
  endfacet
  facet normal -0 0 1
    outer loop
      vertex 0 0.625 0.193749
      vertex 0.00629997 0 0.193749
      vertex 0.00629997 0.625 0.193749
    endloop
  endfacet
  facet normal 0 0 1
    outer loop
      vertex 0.00629997 0 0.193749
      vertex 0 0.625 0.193749
      vertex 0 0 0.193749
    endloop
  endfacet
  facet normal 1 0 0
    outer loop
      vertex 0.00629997 0.625 0.193749
      vertex 0.00629997 0.337999 0.106299
      vertex 0.00629997 0.625 0.00624943
    endloop
  endfacet
  facet normal 1 0 0
    outer loop
      vertex 0.00629997 0.625 0.193749
      vertex 0.00629997 0.337914 0.109012
      vertex 0.00629997 0.337999 0.106299
    endloop
  endfacet
  facet normal 1 0 0
    outer loop
      vertex 0.00629997 0.625 0.193749
      vertex 0.00629997 0.337659 0.111714
      vertex 0.00629997 0.337914 0.109012
    endloop
  endfacet
  facet normal 1 0 0
    outer loop
      vertex 0.00629997 0.625 0.193749
      vertex 0.00629997 0.337234 0.114394
      vertex 0.00629997 0.337659 0.111714
    endloop
  endfacet
  facet normal 1 0 0
    outer loop
      vertex 0.00629997 0.625 0.193749
      vertex 0.00629997 0.336642 0.117043
      vertex 0.00629997 0.337234 0.114394
    endloop
  endfacet
  facet normal 1 0 0
    outer loop
      vertex 0.00629997 0.625 0.193749
      vertex 0.00629997 0.335885 0.119649
      vertex 0.00629997 0.336642 0.117043
    endloop
  endfacet
  facet normal 1 0 0
    outer loop
      vertex 0.00629997 0.625 0.193749
      vertex 0.00629997 0.334966 0.122203
      vertex 0.00629997 0.335885 0.119649
    endloop
  endfacet
  facet normal 1 0 0
    outer loop
      vertex 0.00629997 0.625 0.193749
      vertex 0.00629997 0.333888 0.124693
      vertex 0.00629997 0.334966 0.122203
    endloop
  endfacet
  facet normal 1 0 0
    outer loop
      vertex 0.00629997 0.625 0.193749
      vertex 0.00629997 0.332656 0.127111
      vertex 0.00629997 0.333888 0.124693
    endloop
  endfacet
  facet normal 1 0 0
    outer loop
      vertex 0.00629997 0.625 0.193749
      vertex 0.00629997 0.331274 0.129447
      vertex 0.00629997 0.332656 0.127111
    endloop
  endfacet
  facet normal 1 0 0
    outer loop
      vertex 0.00629997 0.625 0.193749
      vertex 0.00629997 0.329749 0.131692
      vertex 0.00629997 0.331274 0.129447
    endloop
  endfacet
  facet normal 1 0 0
    outer loop
      vertex 0.00629997 0.625 0.193749
      vertex 0.00629997 0.328086 0.133836
      vertex 0.00629997 0.329749 0.131692
    endloop
  endfacet
  facet normal 1 0 0
    outer loop
      vertex 0.00629997 0.625 0.193749
      vertex 0.00629997 0.326291 0.135872
      vertex 0.00629997 0.328086 0.133836
    endloop
  endfacet
  facet normal 1 0 0
    outer loop
      vertex 0.00629997 0.625 0.193749
      vertex 0.00629997 0.324372 0.137791
      vertex 0.00629997 0.326291 0.135872
    endloop
  endfacet
  facet normal 1 0 0
    outer loop
      vertex 0.00629997 0.625 0.193749
      vertex 0.00629997 0.322336 0.139585
      vertex 0.00629997 0.324372 0.137791
    endloop
  endfacet
  facet normal 1 0 0
    outer loop
      vertex 0.00629997 0.625 0.193749
      vertex 0.00629997 0.320191 0.141249
      vertex 0.00629997 0.322336 0.139585
    endloop
  endfacet
  facet normal 1 0 0
    outer loop
      vertex 0.00629997 0.625 0.193749
      vertex 0.00629997 0.317947 0.142775
      vertex 0.00629997 0.320191 0.141249
    endloop
  endfacet
  facet normal 1 0 0
    outer loop
      vertex 0.00629997 0.625 0.193749
      vertex 0.00629997 0.315611 0.144156
      vertex 0.00629997 0.317947 0.142775
    endloop
  endfacet
  facet normal 1 0 0
    outer loop
      vertex 0.00629997 0.625 0.193749
      vertex 0.00629997 0.313193 0.145388
      vertex 0.00629997 0.315611 0.144156
    endloop
  endfacet
  facet normal 1 0 0
    outer loop
      vertex 0.00629997 0.625 0.193749
      vertex 0.00629997 0.310702 0.146466
      vertex 0.00629997 0.313193 0.145388
    endloop
  endfacet
  facet normal 1 0 0
    outer loop
      vertex 0.00629997 0.625 0.193749
      vertex 0.00629997 0.308149 0.147386
      vertex 0.00629997 0.310702 0.146466
    endloop
  endfacet
  facet normal 1 0 0
    outer loop
      vertex 0.00629997 0.625 0.193749
      vertex 0.00629997 0.305543 0.148142
      vertex 0.00629997 0.308149 0.147386
    endloop
  endfacet
  facet normal 1 0 0
    outer loop
      vertex 0.00629997 0.625 0.193749
      vertex 0.00629997 0.302895 0.148734
      vertex 0.00629997 0.305543 0.148142
    endloop
  endfacet
  facet normal 1 0 0
    outer loop
      vertex 0.00629997 0.625 0.193749
      vertex 0.00629997 0.300214 0.149158
      vertex 0.00629997 0.302895 0.148734
    endloop
  endfacet
  facet normal 1 0 0
    outer loop
      vertex 0.00629997 0.625 0.193749
      vertex 0.00629997 0.297512 0.149414
      vertex 0.00629997 0.300214 0.149158
    endloop
  endfacet
  facet normal 1 0 0
    outer loop
      vertex 0.00629997 0.625 0.193749
      vertex 0.00629997 0.2948 0.1495
      vertex 0.00629997 0.297512 0.149414
    endloop
  endfacet
  facet normal 1 -0 0
    outer loop
      vertex 0.00629997 0 0.193749
      vertex 0.00629997 0.2948 0.1495
      vertex 0.00629997 0.625 0.193749
    endloop
  endfacet
  facet normal 1 0 0
    outer loop
      vertex 0.00629997 0.2948 0.1495
      vertex 0.00629997 0 0.193749
      vertex 0.00629997 0.292087 0.149414
    endloop
  endfacet
  facet normal 1 0 0
    outer loop
      vertex 0.00629997 0.25194 0.111714
      vertex 0.00629997 0.134521 0.0991993
      vertex 0.00629997 0.251685 0.109012
    endloop
  endfacet
  facet normal 1 0 0
    outer loop
      vertex 0.00629997 0.134521 0.0991993
      vertex 0.00629997 0.25194 0.111714
      vertex 0.00629997 0.134521 0.143308
    endloop
  endfacet
  facet normal 1 0 0
    outer loop
      vertex 0.00629997 0.252365 0.114394
      vertex 0.00629997 0.134521 0.143308
      vertex 0.00629997 0.25194 0.111714
    endloop
  endfacet
  facet normal 1 0 0
    outer loop
      vertex 0.00629997 0.252956 0.117043
      vertex 0.00629997 0.134521 0.143308
      vertex 0.00629997 0.252365 0.114394
    endloop
  endfacet
  facet normal 1 0 0
    outer loop
      vertex 0.00629997 0.253714 0.119649
      vertex 0.00629997 0.134521 0.143308
      vertex 0.00629997 0.252956 0.117043
    endloop
  endfacet
  facet normal 1 0 0
    outer loop
      vertex 0.00629997 0.254633 0.122203
      vertex 0.00629997 0.134521 0.143308
      vertex 0.00629997 0.253714 0.119649
    endloop
  endfacet
  facet normal 1 0 0
    outer loop
      vertex 0.00629997 0.255711 0.124693
      vertex 0.00629997 0.134521 0.143308
      vertex 0.00629997 0.254633 0.122203
    endloop
  endfacet
  facet normal 1 0 0
    outer loop
      vertex 0.00629997 0.256943 0.127111
      vertex 0.00629997 0.134521 0.143308
      vertex 0.00629997 0.255711 0.124693
    endloop
  endfacet
  facet normal 1 0 0
    outer loop
      vertex 0.00629997 0.258325 0.129447
      vertex 0.00629997 0.134521 0.143308
      vertex 0.00629997 0.256943 0.127111
    endloop
  endfacet
  facet normal 1 0 0
    outer loop
      vertex 0.00629997 0.25985 0.131692
      vertex 0.00629997 0.134521 0.143308
      vertex 0.00629997 0.258325 0.129447
    endloop
  endfacet
  facet normal 1 0 0
    outer loop
      vertex 0.00629997 0.261514 0.133836
      vertex 0.00629997 0.134521 0.143308
      vertex 0.00629997 0.25985 0.131692
    endloop
  endfacet
  facet normal 1 0 0
    outer loop
      vertex 0.00629997 0.263309 0.135872
      vertex 0.00629997 0.134521 0.143308
      vertex 0.00629997 0.261514 0.133836
    endloop
  endfacet
  facet normal 1 0 0
    outer loop
      vertex 0.00629997 0.265227 0.137791
      vertex 0.00629997 0.134521 0.143308
      vertex 0.00629997 0.263309 0.135872
    endloop
  endfacet
  facet normal 1 0 0
    outer loop
      vertex 0.00629997 0.267262 0.139585
      vertex 0.00629997 0.134521 0.143308
      vertex 0.00629997 0.265227 0.137791
    endloop
  endfacet
  facet normal 1 0 0
    outer loop
      vertex 0.00629997 0.269407 0.141249
      vertex 0.00629997 0.134521 0.143308
      vertex 0.00629997 0.267262 0.139585
    endloop
  endfacet
  facet normal 1 0 0
    outer loop
      vertex 0.00629997 0.271652 0.142775
      vertex 0.00629997 0.134521 0.143308
      vertex 0.00629997 0.269407 0.141249
    endloop
  endfacet
  facet normal 1 0 0
    outer loop
      vertex 0.00629997 0.273988 0.144156
      vertex 0.00629997 0.134521 0.143308
      vertex 0.00629997 0.271652 0.142775
    endloop
  endfacet
  facet normal 1 0 0
    outer loop
      vertex 0.00629997 0.276406 0.145388
      vertex 0.00629997 0.134521 0.143308
      vertex 0.00629997 0.273988 0.144156
    endloop
  endfacet
  facet normal 1 0 0
    outer loop
      vertex 0.00629997 0.278896 0.146466
      vertex 0.00629997 0.134521 0.143308
      vertex 0.00629997 0.276406 0.145388
    endloop
  endfacet
  facet normal 1 0 0
    outer loop
      vertex 0.00629997 0.28145 0.147386
      vertex 0.00629997 0.134521 0.143308
      vertex 0.00629997 0.278896 0.146466
    endloop
  endfacet
  facet normal 1 0 0
    outer loop
      vertex 0.00629997 0.284056 0.148142
      vertex 0.00629997 0.134521 0.143308
      vertex 0.00629997 0.28145 0.147386
    endloop
  endfacet
  facet normal 1 0 0
    outer loop
      vertex 0.00629997 0 0.193749
      vertex 0.00629997 0.284056 0.148142
      vertex 0.00629997 0.286705 0.148734
    endloop
  endfacet
  facet normal 1 0 0
    outer loop
      vertex 0.00629997 0 0.193749
      vertex 0.00629997 0.286705 0.148734
      vertex 0.00629997 0.289385 0.149158
    endloop
  endfacet
  facet normal 1 0 0
    outer loop
      vertex 0.00629997 0.292087 0.149414
      vertex 0.00629997 0 0.193749
      vertex 0.00629997 0.289385 0.149158
    endloop
  endfacet
  facet normal 1 0 0
    outer loop
      vertex 0.00629997 0.284056 0.148142
      vertex 0.00629997 0 0.193749
      vertex 0.00629997 0.134521 0.143308
    endloop
  endfacet
  facet normal 1 0 0
    outer loop
      vertex 0.00629997 0.0909996 0.143308
      vertex 0.00629997 0 0.193749
      vertex 0.00629997 0.0909996 0.0991993
    endloop
  endfacet
  facet normal 1 0 0
    outer loop
      vertex 0.00629997 0.134521 0.143308
      vertex 0.00629997 0 0.193749
      vertex 0.00629997 0.0909996 0.143308
    endloop
  endfacet
  facet normal 1 -0 0
    outer loop
      vertex 0.00629997 0.337914 0.103587
      vertex 0.00629997 0.625 0.00624943
      vertex 0.00629997 0.337999 0.106299
    endloop
  endfacet
  facet normal 1 -0 0
    outer loop
      vertex 0.00629997 0.337659 0.100885
      vertex 0.00629997 0.625 0.00624943
      vertex 0.00629997 0.337914 0.103587
    endloop
  endfacet
  facet normal 1 -0 0
    outer loop
      vertex 0.00629997 0.337234 0.0982046
      vertex 0.00629997 0.625 0.00624943
      vertex 0.00629997 0.337659 0.100885
    endloop
  endfacet
  facet normal 1 -0 0
    outer loop
      vertex 0.00629997 0.336642 0.0955563
      vertex 0.00629997 0.625 0.00624943
      vertex 0.00629997 0.337234 0.0982046
    endloop
  endfacet
  facet normal 1 -0 0
    outer loop
      vertex 0.00629997 0.335885 0.0929499
      vertex 0.00629997 0.625 0.00624943
      vertex 0.00629997 0.336642 0.0955563
    endloop
  endfacet
  facet normal 1 -0 0
    outer loop
      vertex 0.00629997 0.334966 0.0903969
      vertex 0.00629997 0.625 0.00624943
      vertex 0.00629997 0.335885 0.0929499
    endloop
  endfacet
  facet normal 1 -0 0
    outer loop
      vertex 0.00629997 0.333888 0.0879059
      vertex 0.00629997 0.625 0.00624943
      vertex 0.00629997 0.334966 0.0903969
    endloop
  endfacet
  facet normal 1 -0 0
    outer loop
      vertex 0.00629997 0.332656 0.0854874
      vertex 0.00629997 0.625 0.00624943
      vertex 0.00629997 0.333888 0.0879059
    endloop
  endfacet
  facet normal 1 -0 0
    outer loop
      vertex 0.00629997 0.331274 0.0831518
      vertex 0.00629997 0.625 0.00624943
      vertex 0.00629997 0.332656 0.0854874
    endloop
  endfacet
  facet normal 1 -0 0
    outer loop
      vertex 0.00629997 0.329749 0.0809069
      vertex 0.00629997 0.625 0.00624943
      vertex 0.00629997 0.331274 0.0831518
    endloop
  endfacet
  facet normal 1 -0 0
    outer loop
      vertex 0.00629997 0.328086 0.078763
      vertex 0.00629997 0.625 0.00624943
      vertex 0.00629997 0.329749 0.0809069
    endloop
  endfacet
  facet normal 1 -0 0
    outer loop
      vertex 0.00629997 0.326291 0.0767269
      vertex 0.00629997 0.625 0.00624943
      vertex 0.00629997 0.328086 0.078763
    endloop
  endfacet
  facet normal 1 -0 0
    outer loop
      vertex 0.00629997 0.324372 0.0748081
      vertex 0.00629997 0.625 0.00624943
      vertex 0.00629997 0.326291 0.0767269
    endloop
  endfacet
  facet normal 1 -0 0
    outer loop
      vertex 0.00629997 0.322336 0.0730133
      vertex 0.00629997 0.625 0.00624943
      vertex 0.00629997 0.324372 0.0748081
    endloop
  endfacet
  facet normal 1 -0 0
    outer loop
      vertex 0.00629997 0.320191 0.0713501
      vertex 0.00629997 0.625 0.00624943
      vertex 0.00629997 0.322336 0.0730133
    endloop
  endfacet
  facet normal 1 -0 0
    outer loop
      vertex 0.00629997 0.317947 0.0698242
      vertex 0.00629997 0.625 0.00624943
      vertex 0.00629997 0.320191 0.0713501
    endloop
  endfacet
  facet normal 1 -0 0
    outer loop
      vertex 0.00629997 0.315611 0.0684433
      vertex 0.00629997 0.625 0.00624943
      vertex 0.00629997 0.317947 0.0698242
    endloop
  endfacet
  facet normal 1 -0 0
    outer loop
      vertex 0.00629997 0.313193 0.0672112
      vertex 0.00629997 0.625 0.00624943
      vertex 0.00629997 0.315611 0.0684433
    endloop
  endfacet
  facet normal 1 -0 0
    outer loop
      vertex 0.00629997 0.310702 0.0661335
      vertex 0.00629997 0.625 0.00624943
      vertex 0.00629997 0.313193 0.0672112
    endloop
  endfacet
  facet normal 1 -0 0
    outer loop
      vertex 0.00629997 0.308149 0.0652142
      vertex 0.00629997 0.625 0.00624943
      vertex 0.00629997 0.310702 0.0661335
    endloop
  endfacet
  facet normal 1 -0 0
    outer loop
      vertex 0.00629997 0.305543 0.0644569
      vertex 0.00629997 0.625 0.00624943
      vertex 0.00629997 0.308149 0.0652142
    endloop
  endfacet
  facet normal 1 -0 0
    outer loop
      vertex 0.00629997 0.302895 0.0638647
      vertex 0.00629997 0.625 0.00624943
      vertex 0.00629997 0.305543 0.0644569
    endloop
  endfacet
  facet normal 1 -0 0
    outer loop
      vertex 0.00629997 0.300214 0.0634403
      vertex 0.00629997 0.625 0.00624943
      vertex 0.00629997 0.302895 0.0638647
    endloop
  endfacet
  facet normal 1 -0 0
    outer loop
      vertex 0.00629997 0.297512 0.0631847
      vertex 0.00629997 0.625 0.00624943
      vertex 0.00629997 0.300214 0.0634403
    endloop
  endfacet
  facet normal 1 -0 0
    outer loop
      vertex 0.00629997 0.2948 0.0630999
      vertex 0.00629997 0.625 0.00624943
      vertex 0.00629997 0.297512 0.0631847
    endloop
  endfacet
  facet normal 1 0 0
    outer loop
      vertex 0.00629997 0 0.00624943
      vertex 0.00629997 0.2948 0.0630999
      vertex 0.00629997 0.292087 0.0631847
    endloop
  endfacet
  facet normal 1 0 0
    outer loop
      vertex 0.00629997 0 0.00624943
      vertex 0.00629997 0.292087 0.0631847
      vertex 0.00629997 0.289385 0.0634403
    endloop
  endfacet
  facet normal 1 0 0
    outer loop
      vertex 0.00629997 0 0.00624943
      vertex 0.00629997 0.289385 0.0634403
      vertex 0.00629997 0.286705 0.0638647
    endloop
  endfacet
  facet normal 1 0 0
    outer loop
      vertex 0.00629997 0.251685 0.109012
      vertex 0.00629997 0.134521 0.0991993
      vertex 0.00629997 0.251599 0.106299
    endloop
  endfacet
  facet normal 1 0 0
    outer loop
      vertex 0.00629997 0.251599 0.106299
      vertex 0.00629997 0.134521 0.0991993
      vertex 0.00629997 0.251685 0.103587
    endloop
  endfacet
  facet normal 1 0 0
    outer loop
      vertex 0.00629997 0.251685 0.103587
      vertex 0.00629997 0.134521 0.0991993
      vertex 0.00629997 0.25194 0.100885
    endloop
  endfacet
  facet normal 1 0 0
    outer loop
      vertex 0.00629997 0.25194 0.100885
      vertex 0.00629997 0.134521 0.0991993
      vertex 0.00629997 0.252365 0.0982046
    endloop
  endfacet
  facet normal 1 0 0
    outer loop
      vertex 0.00629997 0.252365 0.0982046
      vertex 0.00629997 0.134521 0.0991993
      vertex 0.00629997 0.252956 0.0955563
    endloop
  endfacet
  facet normal 1 0 0
    outer loop
      vertex 0.00629997 0.252956 0.0955563
      vertex 0.00629997 0.134521 0.0991993
      vertex 0.00629997 0.253714 0.0929499
    endloop
  endfacet
  facet normal 1 0 0
    outer loop
      vertex 0.00629997 0.253714 0.0929499
      vertex 0.00629997 0.134521 0.0991993
      vertex 0.00629997 0.254633 0.0903969
    endloop
  endfacet
  facet normal 1 0 0
    outer loop
      vertex 0.00629997 0.254633 0.0903969
      vertex 0.00629997 0.134521 0.0991993
      vertex 0.00629997 0.255711 0.0879059
    endloop
  endfacet
  facet normal 1 0 0
    outer loop
      vertex 0.00629997 0.255711 0.0879059
      vertex 0.00629997 0.134521 0.0991993
      vertex 0.00629997 0.256943 0.0854874
    endloop
  endfacet
  facet normal 1 0 0
    outer loop
      vertex 0.00629997 0.256943 0.0854874
      vertex 0.00629997 0.134521 0.0991993
      vertex 0.00629997 0.258325 0.0831518
    endloop
  endfacet
  facet normal 1 0 0
    outer loop
      vertex 0.00629997 0.258325 0.0831518
      vertex 0.00629997 0.134521 0.0991993
      vertex 0.00629997 0.25985 0.0809069
    endloop
  endfacet
  facet normal 1 0 0
    outer loop
      vertex 0.00629997 0.25985 0.0809069
      vertex 0.00629997 0.134521 0.0991993
      vertex 0.00629997 0.261514 0.078763
    endloop
  endfacet
  facet normal 1 0 0
    outer loop
      vertex 0.00629997 0.261514 0.078763
      vertex 0.00629997 0.134521 0.0991993
      vertex 0.00629997 0.263309 0.0767269
    endloop
  endfacet
  facet normal 1 0 0
    outer loop
      vertex 0.00629997 0.263309 0.0767269
      vertex 0.00629997 0.134521 0.0991993
      vertex 0.00629997 0.265227 0.0748081
    endloop
  endfacet
  facet normal 1 0 0
    outer loop
      vertex 0.00629997 0.265227 0.0748081
      vertex 0.00629997 0.134521 0.0991993
      vertex 0.00629997 0.267262 0.0730133
    endloop
  endfacet
  facet normal 1 0 0
    outer loop
      vertex 0.00629997 0.267262 0.0730133
      vertex 0.00629997 0.134521 0.0991993
      vertex 0.00629997 0.269407 0.0713501
    endloop
  endfacet
  facet normal 1 0 0
    outer loop
      vertex 0.00629997 0.269407 0.0713501
      vertex 0.00629997 0.134521 0.0991993
      vertex 0.00629997 0.271652 0.0698242
    endloop
  endfacet
  facet normal 1 0 0
    outer loop
      vertex 0.00629997 0 0.00624943
      vertex 0.00629997 0.271652 0.0698242
      vertex 0.00629997 0.134521 0.0991993
    endloop
  endfacet
  facet normal 1 0 0
    outer loop
      vertex 0.00629997 0.271652 0.0698242
      vertex 0.00629997 0 0.00624943
      vertex 0.00629997 0.273988 0.0684433
    endloop
  endfacet
  facet normal 1 0 0
    outer loop
      vertex 0.00629997 0.273988 0.0684433
      vertex 0.00629997 0 0.00624943
      vertex 0.00629997 0.276406 0.0672112
    endloop
  endfacet
  facet normal 1 0 0
    outer loop
      vertex 0.00629997 0.276406 0.0672112
      vertex 0.00629997 0 0.00624943
      vertex 0.00629997 0.278896 0.0661335
    endloop
  endfacet
  facet normal 1 0 0
    outer loop
      vertex 0.00629997 0.278896 0.0661335
      vertex 0.00629997 0 0.00624943
      vertex 0.00629997 0.28145 0.0652142
    endloop
  endfacet
  facet normal 1 0 0
    outer loop
      vertex 0.00629997 0 0.00624943
      vertex 0.00629997 0.134521 0.0991993
      vertex 0.00629997 0.0909996 0.0991993
    endloop
  endfacet
  facet normal 1 0 0
    outer loop
      vertex 0.00629997 0.28145 0.0652142
      vertex 0.00629997 0 0.00624943
      vertex 0.00629997 0.284056 0.0644569
    endloop
  endfacet
  facet normal 1 0 0
    outer loop
      vertex 0.00629997 0.2948 0.0630999
      vertex 0.00629997 0 0.00624943
      vertex 0.00629997 0.625 0.00624943
    endloop
  endfacet
  facet normal 1 0 0
    outer loop
      vertex 0.00629997 0.284056 0.0644569
      vertex 0.00629997 0 0.00624943
      vertex 0.00629997 0.286705 0.0638647
    endloop
  endfacet
  facet normal 1 0 0
    outer loop
      vertex 0.00629997 0 0.00624943
      vertex 0.00629997 0.0909996 0.0991993
      vertex 0.00629997 0 0.193749
    endloop
  endfacet
  facet normal 0 0 -1
    outer loop
      vertex 0 0.444699 0.111891
      vertex 0.00619984 0.525803 0.111891
      vertex 0.00619984 0.444699 0.111891
    endloop
  endfacet
  facet normal -0 0 -1
    outer loop
      vertex 0.00619984 0.525803 0.111891
      vertex 0 0.444699 0.111891
      vertex 0 0.525803 0.111891
    endloop
  endfacet
  facet normal -1 0 0
    outer loop
      vertex 0.00619984 0.444699 0
      vertex 0.00619984 0.525803 0.111891
      vertex 0.00619984 0.525803 0
    endloop
  endfacet
  facet normal -1 -0 0
    outer loop
      vertex 0.00619984 0.525803 0.111891
      vertex 0.00619984 0.444699 0
      vertex 0.00619984 0.444699 0.111891
    endloop
  endfacet
  facet normal 0 1 -0
    outer loop
      vertex 0.00619984 0.444699 0
      vertex 0 0.444699 0.111891
      vertex 0.00619984 0.444699 0.111891
    endloop
  endfacet
  facet normal 0 1 0
    outer loop
      vertex 0 0.444699 0.111891
      vertex 0.00619984 0.444699 0
      vertex 0 0.444699 0
    endloop
  endfacet
  facet normal 0 -1 0
    outer loop
      vertex 0 0.525803 0
      vertex 0.00619984 0.525803 0.111891
      vertex 0 0.525803 0.111891
    endloop
  endfacet
  facet normal 0 -1 -0
    outer loop
      vertex 0.00619984 0.525803 0.111891
      vertex 0 0.525803 0
      vertex 0.00619984 0.525803 0
    endloop
  endfacet
  facet normal 0 -0.0312532 0.999512
    outer loop
      vertex 0 0.297512 0.0631847
      vertex 0.00629997 0.2948 0.0630999
      vertex 0.00629997 0.297512 0.0631847
    endloop
  endfacet
  facet normal 0 -0.0312532 0.999512
    outer loop
      vertex 0.00629997 0.2948 0.0630999
      vertex 0 0.297512 0.0631847
      vertex 0 0.2948 0.0630999
    endloop
  endfacet
  facet normal 0 -0.031695 -0.999498
    outer loop
      vertex 0 0.2948 0.1495
      vertex 0.00629997 0.297512 0.149414
      vertex 0.00629997 0.2948 0.1495
    endloop
  endfacet
  facet normal -0 -0.031695 -0.999498
    outer loop
      vertex 0.00629997 0.297512 0.149414
      vertex 0 0.2948 0.1495
      vertex 0 0.297512 0.149414
    endloop
  endfacet
  facet normal 0 -0.99951 -0.0313153
    outer loop
      vertex 0 0.337999 0.106299
      vertex 0.00629997 0.337914 0.109012
      vertex 0 0.337914 0.109012
    endloop
  endfacet
  facet normal 0 -0.99951 -0.0313153
    outer loop
      vertex 0.00629997 0.337914 0.109012
      vertex 0 0.337999 0.106299
      vertex 0.00629997 0.337999 0.106299
    endloop
  endfacet
  facet normal 0 0.999498 -0.0316833
    outer loop
      vertex 0.00629997 0.251599 0.106299
      vertex 0 0.251685 0.109012
      vertex 0.00629997 0.251685 0.109012
    endloop
  endfacet
  facet normal 0 0.999498 -0.0316833
    outer loop
      vertex 0 0.251685 0.109012
      vertex 0.00629997 0.251599 0.106299
      vertex 0 0.251599 0.106299
    endloop
  endfacet
  facet normal 0 0.661292 -0.750128
    outer loop
      vertex 0 0.265227 0.137791
      vertex 0.00629997 0.267262 0.139585
      vertex 0.00629997 0.265227 0.137791
    endloop
  endfacet
  facet normal 0 0.661292 -0.750128
    outer loop
      vertex 0.00629997 0.267262 0.139585
      vertex 0 0.265227 0.137791
      vertex 0 0.267262 0.139585
    endloop
  endfacet
  facet normal 0 -0.707107 -0.707107
    outer loop
      vertex 0 0.326291 0.135872
      vertex 0.00629997 0.324372 0.137791
      vertex 0 0.324372 0.137791
    endloop
  endfacet
  facet normal 0 -0.707107 -0.707107
    outer loop
      vertex 0.00629997 0.324372 0.137791
      vertex 0 0.326291 0.135872
      vertex 0.00629997 0.326291 0.135872
    endloop
  endfacet
  facet normal 0 -0.91769 -0.397297
    outer loop
      vertex 0 0.334966 0.122203
      vertex 0.00629997 0.333888 0.124693
      vertex 0 0.333888 0.124693
    endloop
  endfacet
  facet normal 0 -0.91769 -0.397297
    outer loop
      vertex 0.00629997 0.333888 0.124693
      vertex 0 0.334966 0.122203
      vertex 0.00629997 0.334966 0.122203
    endloop
  endfacet
  facet normal 0 0.338902 -0.940822
    outer loop
      vertex 0 0.278896 0.146466
      vertex 0.00629997 0.28145 0.147386
      vertex 0.00629997 0.278896 0.146466
    endloop
  endfacet
  facet normal 0 0.338902 -0.940822
    outer loop
      vertex 0.00629997 0.28145 0.147386
      vertex 0 0.278896 0.146466
      vertex 0 0.28145 0.147386
    endloop
  endfacet
  facet normal 0 -0.397163 -0.917748
    outer loop
      vertex 0 0.310702 0.146466
      vertex 0.00629997 0.313193 0.145388
      vertex 0.00629997 0.310702 0.146466
    endloop
  endfacet
  facet normal -0 -0.397163 -0.917748
    outer loop
      vertex 0.00629997 0.313193 0.145388
      vertex 0 0.310702 0.146466
      vertex 0 0.313193 0.145388
    endloop
  endfacet
  facet normal 0 -0.975926 -0.218101
    outer loop
      vertex 0 0.337234 0.114394
      vertex 0.00629997 0.336642 0.117043
      vertex 0 0.336642 0.117043
    endloop
  endfacet
  facet normal 0 -0.975926 -0.218101
    outer loop
      vertex 0.00629997 0.336642 0.117043
      vertex 0 0.337234 0.114394
      vertex 0.00629997 0.337234 0.114394
    endloop
  endfacet
  facet normal 0 0.91769 -0.397297
    outer loop
      vertex 0.00629997 0.254633 0.122203
      vertex 0 0.255711 0.124693
      vertex 0.00629997 0.255711 0.124693
    endloop
  endfacet
  facet normal 0 0.91769 -0.397297
    outer loop
      vertex 0 0.255711 0.124693
      vertex 0.00629997 0.254633 0.122203
      vertex 0 0.254633 0.122203
    endloop
  endfacet
  facet normal 0 0.156265 -0.987715
    outer loop
      vertex 0 0.286705 0.148734
      vertex 0.00629997 0.289385 0.149158
      vertex 0.00629997 0.286705 0.148734
    endloop
  endfacet
  facet normal 0 0.156265 -0.987715
    outer loop
      vertex 0.00629997 0.289385 0.149158
      vertex 0 0.286705 0.148734
      vertex 0 0.289385 0.149158
    endloop
  endfacet
  facet normal 0 -0.279055 0.960275
    outer loop
      vertex 0 0.308149 0.0652142
      vertex 0.00629997 0.305543 0.0644569
      vertex 0.00629997 0.308149 0.0652142
    endloop
  endfacet
  facet normal 0 -0.279055 0.960275
    outer loop
      vertex 0.00629997 0.305543 0.0644569
      vertex 0 0.308149 0.0652142
      vertex 0 0.305543 0.0644569
    endloop
  endfacet
  facet normal 0 -0.612762 0.790268
    outer loop
      vertex 0 0.322336 0.0730133
      vertex 0.00629997 0.320191 0.0713501
      vertex 0.00629997 0.322336 0.0730133
    endloop
  endfacet
  facet normal 0 -0.612762 0.790268
    outer loop
      vertex 0.00629997 0.320191 0.0713501
      vertex 0 0.322336 0.0730133
      vertex 0 0.320191 0.0713501
    endloop
  endfacet
  facet normal 0 -0.995576 0.093957
    outer loop
      vertex 0 0.337659 0.100885
      vertex 0.00629997 0.337914 0.103587
      vertex 0 0.337914 0.103587
    endloop
  endfacet
  facet normal 0 -0.995576 0.093957
    outer loop
      vertex 0.00629997 0.337914 0.103587
      vertex 0 0.337659 0.100885
      vertex 0.00629997 0.337659 0.100885
    endloop
  endfacet
  facet normal 0 -0.891049 0.453906
    outer loop
      vertex 0 0.332656 0.0854874
      vertex 0.00629997 0.333888 0.0879059
      vertex 0 0.333888 0.0879059
    endloop
  endfacet
  facet normal 0 -0.891049 0.453906
    outer loop
      vertex 0.00629997 0.333888 0.0879059
      vertex 0 0.332656 0.0854874
      vertex 0.00629997 0.332656 0.0854874
    endloop
  endfacet
  facet normal 0 -0.218179 -0.975909
    outer loop
      vertex 0 0.302895 0.148734
      vertex 0.00629997 0.305543 0.148142
      vertex 0.00629997 0.302895 0.148734
    endloop
  endfacet
  facet normal -0 -0.218179 -0.975909
    outer loop
      vertex 0.00629997 0.305543 0.148142
      vertex 0 0.302895 0.148734
      vertex 0 0.305543 0.148142
    endloop
  endfacet
  facet normal 0 -0.56233 -0.826913
    outer loop
      vertex 0 0.317947 0.142775
      vertex 0.00629997 0.320191 0.141249
      vertex 0.00629997 0.317947 0.142775
    endloop
  endfacet
  facet normal -0 -0.56233 -0.826913
    outer loop
      vertex 0.00629997 0.320191 0.141249
      vertex 0 0.317947 0.142775
      vertex 0 0.320191 0.141249
    endloop
  endfacet
  facet normal 0 -0.66111 -0.750289
    outer loop
      vertex 0 0.322336 0.139585
      vertex 0.00629997 0.324372 0.137791
      vertex 0.00629997 0.322336 0.139585
    endloop
  endfacet
  facet normal -0 -0.66111 -0.750289
    outer loop
      vertex 0.00629997 0.324372 0.137791
      vertex 0 0.322336 0.139585
      vertex 0 0.324372 0.137791
    endloop
  endfacet
  facet normal 0 -0.33902 -0.940779
    outer loop
      vertex 0 0.308149 0.147386
      vertex 0.00629997 0.310702 0.146466
      vertex 0.00629997 0.308149 0.147386
    endloop
  endfacet
  facet normal -0 -0.33902 -0.940779
    outer loop
      vertex 0.00629997 0.310702 0.146466
      vertex 0 0.308149 0.147386
      vertex 0 0.310702 0.146466
    endloop
  endfacet
  facet normal 0 -0.156209 -0.987724
    outer loop
      vertex 0 0.300214 0.149158
      vertex 0.00629997 0.302895 0.148734
      vertex 0.00629997 0.300214 0.149158
    endloop
  endfacet
  facet normal -0 -0.156209 -0.987724
    outer loop
      vertex 0.00629997 0.302895 0.148734
      vertex 0 0.300214 0.149158
      vertex 0 0.302895 0.148734
    endloop
  endfacet
  facet normal 0 -0.827201 -0.561907
    outer loop
      vertex 0 0.331274 0.129447
      vertex 0.00629997 0.329749 0.131692
      vertex 0 0.329749 0.131692
    endloop
  endfacet
  facet normal 0 -0.827201 -0.561907
    outer loop
      vertex 0.00629997 0.329749 0.131692
      vertex 0 0.331274 0.129447
      vertex 0.00629997 0.331274 0.129447
    endloop
  endfacet
  facet normal 0 -0.891011 -0.453981
    outer loop
      vertex 0 0.333888 0.124693
      vertex 0.00629997 0.332656 0.127111
      vertex 0 0.332656 0.127111
    endloop
  endfacet
  facet normal 0 -0.891011 -0.453981
    outer loop
      vertex 0.00629997 0.332656 0.127111
      vertex 0 0.333888 0.124693
      vertex 0.00629997 0.333888 0.124693
    endloop
  endfacet
  facet normal 0 -0.987658 -0.156625
    outer loop
      vertex 0 0.337659 0.111714
      vertex 0.00629997 0.337234 0.114394
      vertex 0 0.337234 0.114394
    endloop
  endfacet
  facet normal 0 -0.987658 -0.156625
    outer loop
      vertex 0.00629997 0.337234 0.114394
      vertex 0 0.337659 0.111714
      vertex 0.00629997 0.337659 0.111714
    endloop
  endfacet
  facet normal 0 0.960218 0.279253
    outer loop
      vertex 0.00629997 0.253714 0.0929499
      vertex 0 0.252956 0.0955563
      vertex 0.00629997 0.252956 0.0955563
    endloop
  endfacet
  facet normal 0 0.960218 0.279253
    outer loop
      vertex 0 0.252956 0.0955563
      vertex 0.00629997 0.253714 0.0929499
      vertex 0 0.253714 0.0929499
    endloop
  endfacet
  facet normal 0 0.891049 0.453906
    outer loop
      vertex 0.00629997 0.256943 0.0854874
      vertex 0 0.255711 0.0879059
      vertex 0.00629997 0.255711 0.0879059
    endloop
  endfacet
  facet normal 0 0.891049 0.453906
    outer loop
      vertex 0 0.255711 0.0879059
      vertex 0.00629997 0.256943 0.0854874
      vertex 0 0.256943 0.0854874
    endloop
  endfacet
  facet normal -0 0.661458 0.749982
    outer loop
      vertex 0 0.267262 0.0730133
      vertex 0.00629997 0.265227 0.0748081
      vertex 0.00629997 0.267262 0.0730133
    endloop
  endfacet
  facet normal 0 0.661458 0.749982
    outer loop
      vertex 0.00629997 0.265227 0.0748081
      vertex 0 0.267262 0.0730133
      vertex 0 0.265227 0.0748081
    endloop
  endfacet
  facet normal -0 0.508876 0.86084
    outer loop
      vertex 0 0.273988 0.0684433
      vertex 0.00629997 0.271652 0.0698242
      vertex 0.00629997 0.273988 0.0684433
    endloop
  endfacet
  facet normal 0 0.508876 0.86084
    outer loop
      vertex 0.00629997 0.271652 0.0698242
      vertex 0 0.273988 0.0684433
      vertex 0 0.271652 0.0698242
    endloop
  endfacet
  facet normal 0 0.976005 -0.21775
    outer loop
      vertex 0.00629997 0.252365 0.114394
      vertex 0 0.252956 0.117043
      vertex 0.00629997 0.252956 0.117043
    endloop
  endfacet
  facet normal 0 0.976005 -0.21775
    outer loop
      vertex 0 0.252956 0.117043
      vertex 0.00629997 0.252365 0.114394
      vertex 0 0.252365 0.114394
    endloop
  endfacet
  facet normal 0 0.789987 -0.613124
    outer loop
      vertex 0.00629997 0.25985 0.131692
      vertex 0 0.261514 0.133836
      vertex 0.00629997 0.261514 0.133836
    endloop
  endfacet
  facet normal 0 0.789987 -0.613124
    outer loop
      vertex 0 0.261514 0.133836
      vertex 0.00629997 0.25985 0.131692
      vertex 0 0.25985 0.131692
    endloop
  endfacet
  facet normal 0 0.707291 -0.706922
    outer loop
      vertex 0.00629997 0.263309 0.135872
      vertex 0 0.265227 0.137791
      vertex 0.00629997 0.265227 0.137791
    endloop
  endfacet
  facet normal 0 0.707291 -0.706922
    outer loop
      vertex 0 0.265227 0.137791
      vertex 0.00629997 0.263309 0.135872
      vertex 0 0.263309 0.135872
    endloop
  endfacet
  facet normal 0 0.987658 -0.156625
    outer loop
      vertex 0.00629997 0.25194 0.111714
      vertex 0 0.252365 0.114394
      vertex 0.00629997 0.252365 0.114394
    endloop
  endfacet
  facet normal 0 0.987658 -0.156625
    outer loop
      vertex 0 0.252365 0.114394
      vertex 0.00629997 0.25194 0.111714
      vertex 0 0.25194 0.111714
    endloop
  endfacet
  facet normal 0 0.508903 -0.860824
    outer loop
      vertex 0 0.271652 0.142775
      vertex 0.00629997 0.273988 0.144156
      vertex 0.00629997 0.271652 0.142775
    endloop
  endfacet
  facet normal 0 0.508903 -0.860824
    outer loop
      vertex 0.00629997 0.273988 0.144156
      vertex 0 0.271652 0.142775
      vertex 0 0.273988 0.144156
    endloop
  endfacet
  facet normal 0 0.0943222 -0.995542
    outer loop
      vertex 0 0.289385 0.149158
      vertex 0.00629997 0.292087 0.149414
      vertex 0.00629997 0.289385 0.149158
    endloop
  endfacet
  facet normal 0 0.0943222 -0.995542
    outer loop
      vertex 0.00629997 0.292087 0.149414
      vertex 0 0.289385 0.149158
      vertex 0 0.292087 0.149414
    endloop
  endfacet
  facet normal 0 -0.0941762 0.995556
    outer loop
      vertex 0 0.300214 0.0634403
      vertex 0.00629997 0.297512 0.0631847
      vertex 0.00629997 0.300214 0.0634403
    endloop
  endfacet
  facet normal 0 -0.0941762 0.995556
    outer loop
      vertex 0.00629997 0.297512 0.0631847
      vertex 0 0.300214 0.0634403
      vertex 0 0.297512 0.0631847
    endloop
  endfacet
  facet normal 0 -0.218249 0.975893
    outer loop
      vertex 0 0.305543 0.0644569
      vertex 0.00629997 0.302895 0.0638647
      vertex 0.00629997 0.305543 0.0644569
    endloop
  endfacet
  facet normal 0 -0.218249 0.975893
    outer loop
      vertex 0.00629997 0.302895 0.0638647
      vertex 0 0.305543 0.0644569
      vertex 0 0.302895 0.0638647
    endloop
  endfacet
  facet normal 0 -0.338791 0.940862
    outer loop
      vertex 0 0.310702 0.0661335
      vertex 0.00629997 0.308149 0.0652142
      vertex 0.00629997 0.310702 0.0661335
    endloop
  endfacet
  facet normal 0 -0.338791 0.940862
    outer loop
      vertex 0.00629997 0.308149 0.0652142
      vertex 0 0.310702 0.0661335
      vertex 0 0.308149 0.0652142
    endloop
  endfacet
  facet normal 0 -0.661275 0.750143
    outer loop
      vertex 0 0.324372 0.0748081
      vertex 0.00629997 0.322336 0.0730133
      vertex 0.00629997 0.324372 0.0748081
    endloop
  endfacet
  facet normal 0 -0.661275 0.750143
    outer loop
      vertex 0.00629997 0.322336 0.0730133
      vertex 0 0.324372 0.0748081
      vertex 0 0.322336 0.0730133
    endloop
  endfacet
  facet normal 0 -0.562305 0.82693
    outer loop
      vertex 0 0.320191 0.0713501
      vertex 0.00629997 0.317947 0.0698242
      vertex 0.00629997 0.320191 0.0713501
    endloop
  endfacet
  facet normal 0 -0.562305 0.82693
    outer loop
      vertex 0.00629997 0.317947 0.0698242
      vertex 0 0.320191 0.0713501
      vertex 0 0.317947 0.0698242
    endloop
  endfacet
  facet normal 0 -0.45401 0.890996
    outer loop
      vertex 0 0.315611 0.0684433
      vertex 0.00629997 0.313193 0.0672112
      vertex 0.00629997 0.315611 0.0684433
    endloop
  endfacet
  facet normal 0 -0.45401 0.890996
    outer loop
      vertex 0.00629997 0.313193 0.0672112
      vertex 0 0.315611 0.0684433
      vertex 0 0.313193 0.0672112
    endloop
  endfacet
  facet normal 0 -0.960316 0.278913
    outer loop
      vertex 0 0.335885 0.0929499
      vertex 0.00629997 0.336642 0.0955563
      vertex 0 0.336642 0.0955563
    endloop
  endfacet
  facet normal 0 -0.960316 0.278913
    outer loop
      vertex 0.00629997 0.336642 0.0955563
      vertex 0 0.335885 0.0929499
      vertex 0.00629997 0.335885 0.0929499
    endloop
  endfacet
  facet normal 0 -0.987662 0.156602
    outer loop
      vertex 0 0.337234 0.0982046
      vertex 0.00629997 0.337659 0.100885
      vertex 0 0.337659 0.100885
    endloop
  endfacet
  facet normal 0 -0.987662 0.156602
    outer loop
      vertex 0.00629997 0.337659 0.100885
      vertex 0 0.337234 0.0982046
      vertex 0.00629997 0.337234 0.0982046
    endloop
  endfacet
  facet normal 0 -0.999509 0.0313268
    outer loop
      vertex 0 0.337914 0.103587
      vertex 0.00629997 0.337999 0.106299
      vertex 0 0.337999 0.106299
    endloop
  endfacet
  facet normal 0 -0.999509 0.0313268
    outer loop
      vertex 0.00629997 0.337999 0.106299
      vertex 0 0.337914 0.103587
      vertex 0.00629997 0.337914 0.103587
    endloop
  endfacet
  facet normal 0 -0.917748 0.397163
    outer loop
      vertex 0 0.333888 0.0879059
      vertex 0.00629997 0.334966 0.0903969
      vertex 0 0.334966 0.0903969
    endloop
  endfacet
  facet normal 0 -0.917748 0.397163
    outer loop
      vertex 0.00629997 0.334966 0.0903969
      vertex 0 0.333888 0.0879059
      vertex 0.00629997 0.333888 0.0879059
    endloop
  endfacet
  facet normal 0 -0.827189 0.561924
    outer loop
      vertex 0 0.329749 0.0809069
      vertex 0.00629997 0.331274 0.0831518
      vertex 0 0.331274 0.0831518
    endloop
  endfacet
  facet normal 0 -0.827189 0.561924
    outer loop
      vertex 0.00629997 0.331274 0.0831518
      vertex 0 0.329749 0.0809069
      vertex 0.00629997 0.329749 0.0809069
    endloop
  endfacet
  facet normal 0 -0.750123 0.661299
    outer loop
      vertex 0 0.326291 0.0767269
      vertex 0.00629997 0.328086 0.078763
      vertex 0 0.328086 0.078763
    endloop
  endfacet
  facet normal 0 -0.750123 0.661299
    outer loop
      vertex 0.00629997 0.328086 0.078763
      vertex 0 0.326291 0.0767269
      vertex 0.00629997 0.326291 0.0767269
    endloop
  endfacet
  facet normal 0 -0.612946 -0.790125
    outer loop
      vertex 0 0.320191 0.141249
      vertex 0.00629997 0.322336 0.139585
      vertex 0.00629997 0.320191 0.141249
    endloop
  endfacet
  facet normal -0 -0.612946 -0.790125
    outer loop
      vertex 0.00629997 0.322336 0.139585
      vertex 0 0.320191 0.141249
      vertex 0 0.322336 0.139585
    endloop
  endfacet
  facet normal 0 -0.453981 -0.891011
    outer loop
      vertex 0 0.313193 0.145388
      vertex 0.00629997 0.315611 0.144156
      vertex 0.00629997 0.313193 0.145388
    endloop
  endfacet
  facet normal -0 -0.453981 -0.891011
    outer loop
      vertex 0.00629997 0.315611 0.144156
      vertex 0 0.313193 0.145388
      vertex 0 0.315611 0.144156
    endloop
  endfacet
  facet normal 0 -0.508903 -0.860824
    outer loop
      vertex 0 0.315611 0.144156
      vertex 0.00629997 0.317947 0.142775
      vertex 0.00629997 0.315611 0.144156
    endloop
  endfacet
  facet normal -0 -0.508903 -0.860824
    outer loop
      vertex 0.00629997 0.317947 0.142775
      vertex 0 0.315611 0.144156
      vertex 0 0.317947 0.142775
    endloop
  endfacet
  facet normal 0 -0.278613 -0.960404
    outer loop
      vertex 0 0.305543 0.148142
      vertex 0.00629997 0.308149 0.147386
      vertex 0.00629997 0.305543 0.148142
    endloop
  endfacet
  facet normal -0 -0.278613 -0.960404
    outer loop
      vertex 0.00629997 0.308149 0.147386
      vertex 0 0.305543 0.148142
      vertex 0 0.308149 0.147386
    endloop
  endfacet
  facet normal 0 -0.0943222 -0.995542
    outer loop
      vertex 0 0.297512 0.149414
      vertex 0.00629997 0.300214 0.149158
      vertex 0.00629997 0.297512 0.149414
    endloop
  endfacet
  facet normal -0 -0.0943222 -0.995542
    outer loop
      vertex 0.00629997 0.300214 0.149158
      vertex 0 0.297512 0.149414
      vertex 0 0.300214 0.149158
    endloop
  endfacet
  facet normal 0 -0.860662 -0.509176
    outer loop
      vertex 0 0.332656 0.127111
      vertex 0.00629997 0.331274 0.129447
      vertex 0 0.331274 0.129447
    endloop
  endfacet
  facet normal 0 -0.860662 -0.509176
    outer loop
      vertex 0.00629997 0.331274 0.129447
      vertex 0 0.332656 0.127111
      vertex 0.00629997 0.332656 0.127111
    endloop
  endfacet
  facet normal 0 -0.790165 -0.612894
    outer loop
      vertex 0 0.329749 0.131692
      vertex 0.00629997 0.328086 0.133836
      vertex 0 0.328086 0.133836
    endloop
  endfacet
  facet normal 0 -0.790165 -0.612894
    outer loop
      vertex 0.00629997 0.328086 0.133836
      vertex 0 0.329749 0.131692
      vertex 0.00629997 0.329749 0.131692
    endloop
  endfacet
  facet normal 0 -0.750107 -0.661317
    outer loop
      vertex 0 0.328086 0.133836
      vertex 0.00629997 0.326291 0.135872
      vertex 0 0.326291 0.135872
    endloop
  endfacet
  facet normal 0 -0.750107 -0.661317
    outer loop
      vertex 0.00629997 0.326291 0.135872
      vertex 0 0.328086 0.133836
      vertex 0.00629997 0.328086 0.133836
    endloop
  endfacet
  facet normal 0 -0.960305 -0.278953
    outer loop
      vertex 0 0.336642 0.117043
      vertex 0.00629997 0.335885 0.119649
      vertex 0 0.335885 0.119649
    endloop
  endfacet
  facet normal 0 -0.960305 -0.278953
    outer loop
      vertex 0.00629997 0.335885 0.119649
      vertex 0 0.336642 0.117043
      vertex 0.00629997 0.336642 0.117043
    endloop
  endfacet
  facet normal 0 -0.940939 -0.338576
    outer loop
      vertex 0 0.335885 0.119649
      vertex 0.00629997 0.334966 0.122203
      vertex 0 0.334966 0.122203
    endloop
  endfacet
  facet normal 0 -0.940939 -0.338576
    outer loop
      vertex 0.00629997 0.334966 0.122203
      vertex 0 0.335885 0.119649
      vertex 0.00629997 0.335885 0.119649
    endloop
  endfacet
  facet normal 0 -0.995576 -0.093957
    outer loop
      vertex 0 0.337914 0.109012
      vertex 0.00629997 0.337659 0.111714
      vertex 0 0.337659 0.111714
    endloop
  endfacet
  facet normal 0 -0.995576 -0.093957
    outer loop
      vertex 0.00629997 0.337659 0.111714
      vertex 0 0.337914 0.109012
      vertex 0.00629997 0.337914 0.109012
    endloop
  endfacet
  facet normal -0 0.0312417 0.999512
    outer loop
      vertex 0 0.2948 0.0630999
      vertex 0.00629997 0.292087 0.0631847
      vertex 0.00629997 0.2948 0.0630999
    endloop
  endfacet
  facet normal 0 0.0312417 0.999512
    outer loop
      vertex 0.00629997 0.292087 0.0631847
      vertex 0 0.2948 0.0630999
      vertex 0 0.292087 0.0631847
    endloop
  endfacet
  facet normal 0 0.999498 0.031695
    outer loop
      vertex 0.00629997 0.251685 0.103587
      vertex 0 0.251599 0.106299
      vertex 0.00629997 0.251599 0.106299
    endloop
  endfacet
  facet normal 0 0.999498 0.031695
    outer loop
      vertex 0 0.251599 0.106299
      vertex 0.00629997 0.251685 0.103587
      vertex 0 0.251685 0.103587
    endloop
  endfacet
  facet normal 0 0.987662 0.156602
    outer loop
      vertex 0.00629997 0.252365 0.0982046
      vertex 0 0.25194 0.100885
      vertex 0.00629997 0.25194 0.100885
    endloop
  endfacet
  facet normal 0 0.987662 0.156602
    outer loop
      vertex 0 0.25194 0.100885
      vertex 0.00629997 0.252365 0.0982046
      vertex 0 0.252365 0.0982046
    endloop
  endfacet
  facet normal 0 0.940897 0.338693
    outer loop
      vertex 0.00629997 0.254633 0.0903969
      vertex 0 0.253714 0.0929499
      vertex 0.00629997 0.253714 0.0929499
    endloop
  endfacet
  facet normal 0 0.940897 0.338693
    outer loop
      vertex 0 0.253714 0.0929499
      vertex 0.00629997 0.254633 0.0903969
      vertex 0 0.254633 0.0903969
    endloop
  endfacet
  facet normal 0 0.789973 0.613142
    outer loop
      vertex 0.00629997 0.261514 0.078763
      vertex 0 0.25985 0.0809069
      vertex 0.00629997 0.25985 0.0809069
    endloop
  endfacet
  facet normal 0 0.789973 0.613142
    outer loop
      vertex 0 0.25985 0.0809069
      vertex 0.00629997 0.261514 0.078763
      vertex 0 0.261514 0.078763
    endloop
  endfacet
  facet normal 0 0.707254 0.706959
    outer loop
      vertex 0.00629997 0.265227 0.0748081
      vertex 0 0.263309 0.0767269
      vertex 0.00629997 0.263309 0.0767269
    endloop
  endfacet
  facet normal 0 0.707254 0.706959
    outer loop
      vertex 0 0.263309 0.0767269
      vertex 0.00629997 0.265227 0.0748081
      vertex 0 0.265227 0.0748081
    endloop
  endfacet
  facet normal 0 0.860624 0.509241
    outer loop
      vertex 0.00629997 0.258325 0.0831518
      vertex 0 0.256943 0.0854874
      vertex 0.00629997 0.256943 0.0854874
    endloop
  endfacet
  facet normal 0 0.860624 0.509241
    outer loop
      vertex 0 0.256943 0.0854874
      vertex 0.00629997 0.258325 0.0831518
      vertex 0 0.258325 0.0831518
    endloop
  endfacet
  facet normal -0 0.612762 0.790268
    outer loop
      vertex 0 0.269407 0.0713501
      vertex 0.00629997 0.267262 0.0730133
      vertex 0.00629997 0.269407 0.0713501
    endloop
  endfacet
  facet normal 0 0.612762 0.790268
    outer loop
      vertex 0.00629997 0.267262 0.0730133
      vertex 0 0.269407 0.0713501
      vertex 0 0.267262 0.0730133
    endloop
  endfacet
  facet normal -0 0.45401 0.890996
    outer loop
      vertex 0 0.276406 0.0672112
      vertex 0.00629997 0.273988 0.0684433
      vertex 0.00629997 0.276406 0.0672112
    endloop
  endfacet
  facet normal 0 0.45401 0.890996
    outer loop
      vertex 0.00629997 0.273988 0.0684433
      vertex 0 0.276406 0.0672112
      vertex 0 0.273988 0.0684433
    endloop
  endfacet
  facet normal -0 0.338674 0.940904
    outer loop
      vertex 0 0.28145 0.0652142
      vertex 0.00629997 0.278896 0.0661335
      vertex 0.00629997 0.28145 0.0652142
    endloop
  endfacet
  facet normal 0 0.338674 0.940904
    outer loop
      vertex 0.00629997 0.278896 0.0661335
      vertex 0 0.28145 0.0652142
      vertex 0 0.278896 0.0661335
    endloop
  endfacet
  facet normal -0 0.218171 0.975911
    outer loop
      vertex 0 0.286705 0.0638647
      vertex 0.00629997 0.284056 0.0644569
      vertex 0.00629997 0.286705 0.0638647
    endloop
  endfacet
  facet normal 0 0.218171 0.975911
    outer loop
      vertex 0.00629997 0.284056 0.0644569
      vertex 0 0.286705 0.0638647
      vertex 0 0.284056 0.0644569
    endloop
  endfacet
  facet normal -0 0.156409 0.987692
    outer loop
      vertex 0 0.289385 0.0634403
      vertex 0.00629997 0.286705 0.0638647
      vertex 0.00629997 0.289385 0.0634403
    endloop
  endfacet
  facet normal 0 0.156409 0.987692
    outer loop
      vertex 0.00629997 0.286705 0.0638647
      vertex 0 0.289385 0.0634403
      vertex 0 0.286705 0.0638647
    endloop
  endfacet
  facet normal 0 0.750107 -0.661317
    outer loop
      vertex 0.00629997 0.261514 0.133836
      vertex 0 0.263309 0.135872
      vertex 0.00629997 0.263309 0.135872
    endloop
  endfacet
  facet normal 0 0.750107 -0.661317
    outer loop
      vertex 0 0.263309 0.135872
      vertex 0.00629997 0.261514 0.133836
      vertex 0 0.261514 0.133836
    endloop
  endfacet
  facet normal 0 0.860662 -0.509176
    outer loop
      vertex 0.00629997 0.256943 0.127111
      vertex 0 0.258325 0.129447
      vertex 0.00629997 0.258325 0.129447
    endloop
  endfacet
  facet normal 0 0.860662 -0.509176
    outer loop
      vertex 0 0.258325 0.129447
      vertex 0.00629997 0.256943 0.127111
      vertex 0 0.256943 0.127111
    endloop
  endfacet
  facet normal 0 0.891011 -0.453981
    outer loop
      vertex 0.00629997 0.255711 0.124693
      vertex 0 0.256943 0.127111
      vertex 0.00629997 0.256943 0.127111
    endloop
  endfacet
  facet normal 0 0.891011 -0.453981
    outer loop
      vertex 0 0.256943 0.127111
      vertex 0.00629997 0.255711 0.124693
      vertex 0 0.255711 0.124693
    endloop
  endfacet
  facet normal 0 0.827201 -0.561907
    outer loop
      vertex 0.00629997 0.258325 0.129447
      vertex 0 0.25985 0.131692
      vertex 0.00629997 0.25985 0.131692
    endloop
  endfacet
  facet normal 0 0.827201 -0.561907
    outer loop
      vertex 0 0.25985 0.131692
      vertex 0.00629997 0.258325 0.129447
      vertex 0 0.258325 0.129447
    endloop
  endfacet
  facet normal 0 0.960206 -0.279292
    outer loop
      vertex 0.00629997 0.252956 0.117043
      vertex 0 0.253714 0.119649
      vertex 0.00629997 0.253714 0.119649
    endloop
  endfacet
  facet normal 0 0.960206 -0.279292
    outer loop
      vertex 0 0.253714 0.119649
      vertex 0.00629997 0.252956 0.117043
      vertex 0 0.252956 0.117043
    endloop
  endfacet
  facet normal 0 0.940939 -0.338576
    outer loop
      vertex 0.00629997 0.253714 0.119649
      vertex 0 0.254633 0.122203
      vertex 0.00629997 0.254633 0.122203
    endloop
  endfacet
  facet normal 0 0.940939 -0.338576
    outer loop
      vertex 0 0.254633 0.122203
      vertex 0.00629997 0.253714 0.119649
      vertex 0 0.253714 0.119649
    endloop
  endfacet
  facet normal 0 0.995576 -0.093957
    outer loop
      vertex 0.00629997 0.251685 0.109012
      vertex 0 0.25194 0.111714
      vertex 0.00629997 0.25194 0.111714
    endloop
  endfacet
  facet normal 0 0.995576 -0.093957
    outer loop
      vertex 0 0.25194 0.111714
      vertex 0.00629997 0.251685 0.109012
      vertex 0 0.251685 0.109012
    endloop
  endfacet
  facet normal 0 0.453981 -0.891011
    outer loop
      vertex 0 0.273988 0.144156
      vertex 0.00629997 0.276406 0.145388
      vertex 0.00629997 0.273988 0.144156
    endloop
  endfacet
  facet normal 0 0.453981 -0.891011
    outer loop
      vertex 0.00629997 0.276406 0.145388
      vertex 0 0.273988 0.144156
      vertex 0 0.276406 0.145388
    endloop
  endfacet
  facet normal 0 0.397297 -0.91769
    outer loop
      vertex 0 0.276406 0.145388
      vertex 0.00629997 0.278896 0.146466
      vertex 0.00629997 0.276406 0.145388
    endloop
  endfacet
  facet normal 0 0.397297 -0.91769
    outer loop
      vertex 0.00629997 0.278896 0.146466
      vertex 0 0.276406 0.145388
      vertex 0 0.278896 0.146466
    endloop
  endfacet
  facet normal 0 0.562159 -0.827029
    outer loop
      vertex 0 0.269407 0.141249
      vertex 0.00629997 0.271652 0.142775
      vertex 0.00629997 0.269407 0.141249
    endloop
  endfacet
  facet normal 0 0.562159 -0.827029
    outer loop
      vertex 0.00629997 0.271652 0.142775
      vertex 0 0.269407 0.141249
      vertex 0 0.271652 0.142775
    endloop
  endfacet
  facet normal 0 0.612946 -0.790125
    outer loop
      vertex 0 0.267262 0.139585
      vertex 0.00629997 0.269407 0.141249
      vertex 0.00629997 0.267262 0.139585
    endloop
  endfacet
  facet normal 0 0.612946 -0.790125
    outer loop
      vertex 0.00629997 0.269407 0.141249
      vertex 0 0.267262 0.139585
      vertex 0 0.269407 0.141249
    endloop
  endfacet
  facet normal 0 0.218101 -0.975926
    outer loop
      vertex 0 0.284056 0.148142
      vertex 0.00629997 0.286705 0.148734
      vertex 0.00629997 0.284056 0.148142
    endloop
  endfacet
  facet normal 0 0.218101 -0.975926
    outer loop
      vertex 0.00629997 0.286705 0.148734
      vertex 0 0.284056 0.148142
      vertex 0 0.286705 0.148734
    endloop
  endfacet
  facet normal 0 0.278613 -0.960404
    outer loop
      vertex 0 0.28145 0.147386
      vertex 0.00629997 0.284056 0.148142
      vertex 0.00629997 0.28145 0.147386
    endloop
  endfacet
  facet normal 0 0.278613 -0.960404
    outer loop
      vertex 0.00629997 0.284056 0.148142
      vertex 0 0.28145 0.147386
      vertex 0 0.284056 0.148142
    endloop
  endfacet
  facet normal 0 0.0316833 -0.999498
    outer loop
      vertex 0 0.292087 0.149414
      vertex 0.00629997 0.2948 0.1495
      vertex 0.00629997 0.292087 0.149414
    endloop
  endfacet
  facet normal 0 0.0316833 -0.999498
    outer loop
      vertex 0.00629997 0.2948 0.1495
      vertex 0 0.292087 0.149414
      vertex 0 0.2948 0.1495
    endloop
  endfacet
  facet normal 0 -0.156352 0.987701
    outer loop
      vertex 0 0.302895 0.0638647
      vertex 0.00629997 0.300214 0.0634403
      vertex 0.00629997 0.302895 0.0638647
    endloop
  endfacet
  facet normal 0 -0.156352 0.987701
    outer loop
      vertex 0.00629997 0.300214 0.0634403
      vertex 0 0.302895 0.0638647
      vertex 0 0.300214 0.0634403
    endloop
  endfacet
  facet normal 0 -0.39707 0.917788
    outer loop
      vertex 0 0.313193 0.0672112
      vertex 0.00629997 0.310702 0.0661335
      vertex 0.00629997 0.313193 0.0672112
    endloop
  endfacet
  facet normal 0 -0.39707 0.917788
    outer loop
      vertex 0.00629997 0.310702 0.0661335
      vertex 0 0.313193 0.0672112
      vertex 0 0.310702 0.0661335
    endloop
  endfacet
  facet normal 0 -0.70707 0.707144
    outer loop
      vertex 0 0.324372 0.0748081
      vertex 0.00629997 0.326291 0.0767269
      vertex 0 0.326291 0.0767269
    endloop
  endfacet
  facet normal 0 -0.70707 0.707144
    outer loop
      vertex 0.00629997 0.326291 0.0767269
      vertex 0 0.324372 0.0748081
      vertex 0.00629997 0.324372 0.0748081
    endloop
  endfacet
  facet normal 0 -0.508876 0.86084
    outer loop
      vertex 0 0.317947 0.0698242
      vertex 0.00629997 0.315611 0.0684433
      vertex 0.00629997 0.317947 0.0698242
    endloop
  endfacet
  facet normal 0 -0.508876 0.86084
    outer loop
      vertex 0.00629997 0.315611 0.0684433
      vertex 0 0.317947 0.0698242
      vertex 0 0.315611 0.0684433
    endloop
  endfacet
  facet normal 0 -0.975914 0.218155
    outer loop
      vertex 0 0.336642 0.0955563
      vertex 0.00629997 0.337234 0.0982046
      vertex 0 0.337234 0.0982046
    endloop
  endfacet
  facet normal 0 -0.975914 0.218155
    outer loop
      vertex 0.00629997 0.337234 0.0982046
      vertex 0 0.336642 0.0955563
      vertex 0.00629997 0.336642 0.0955563
    endloop
  endfacet
  facet normal 0 -0.940897 0.338693
    outer loop
      vertex 0 0.334966 0.0903969
      vertex 0.00629997 0.335885 0.0929499
      vertex 0 0.335885 0.0929499
    endloop
  endfacet
  facet normal 0 -0.940897 0.338693
    outer loop
      vertex 0.00629997 0.335885 0.0929499
      vertex 0 0.334966 0.0903969
      vertex 0.00629997 0.334966 0.0903969
    endloop
  endfacet
  facet normal 0 -0.860624 0.509241
    outer loop
      vertex 0 0.331274 0.0831518
      vertex 0.00629997 0.332656 0.0854874
      vertex 0 0.332656 0.0854874
    endloop
  endfacet
  facet normal 0 -0.860624 0.509241
    outer loop
      vertex 0.00629997 0.332656 0.0854874
      vertex 0 0.331274 0.0831518
      vertex 0.00629997 0.331274 0.0831518
    endloop
  endfacet
  facet normal 0 -0.790151 0.612912
    outer loop
      vertex 0 0.328086 0.078763
      vertex 0.00629997 0.329749 0.0809069
      vertex 0 0.329749 0.0809069
    endloop
  endfacet
  facet normal 0 -0.790151 0.612912
    outer loop
      vertex 0.00629997 0.329749 0.0809069
      vertex 0 0.328086 0.078763
      vertex 0.00629997 0.328086 0.078763
    endloop
  endfacet
  facet normal 0 0.995576 0.093957
    outer loop
      vertex 0.00629997 0.25194 0.100885
      vertex 0 0.251685 0.103587
      vertex 0.00629997 0.251685 0.103587
    endloop
  endfacet
  facet normal 0 0.995576 0.093957
    outer loop
      vertex 0 0.251685 0.103587
      vertex 0.00629997 0.25194 0.100885
      vertex 0 0.25194 0.100885
    endloop
  endfacet
  facet normal 0 0.975992 0.217804
    outer loop
      vertex 0.00629997 0.252956 0.0955563
      vertex 0 0.252365 0.0982046
      vertex 0.00629997 0.252365 0.0982046
    endloop
  endfacet
  facet normal 0 0.975992 0.217804
    outer loop
      vertex 0 0.252365 0.0982046
      vertex 0.00629997 0.252956 0.0955563
      vertex 0 0.252956 0.0955563
    endloop
  endfacet
  facet normal 0 0.917748 0.397163
    outer loop
      vertex 0.00629997 0.255711 0.0879059
      vertex 0 0.254633 0.0903969
      vertex 0.00629997 0.254633 0.0903969
    endloop
  endfacet
  facet normal 0 0.917748 0.397163
    outer loop
      vertex 0 0.254633 0.0903969
      vertex 0.00629997 0.255711 0.0879059
      vertex 0 0.255711 0.0879059
    endloop
  endfacet
  facet normal 0 0.750123 0.661299
    outer loop
      vertex 0.00629997 0.263309 0.0767269
      vertex 0 0.261514 0.078763
      vertex 0.00629997 0.261514 0.078763
    endloop
  endfacet
  facet normal 0 0.750123 0.661299
    outer loop
      vertex 0 0.261514 0.078763
      vertex 0.00629997 0.263309 0.0767269
      vertex 0 0.263309 0.0767269
    endloop
  endfacet
  facet normal 0 0.827189 0.561924
    outer loop
      vertex 0.00629997 0.25985 0.0809069
      vertex 0 0.258325 0.0831518
      vertex 0.00629997 0.258325 0.0831518
    endloop
  endfacet
  facet normal 0 0.827189 0.561924
    outer loop
      vertex 0 0.258325 0.0831518
      vertex 0.00629997 0.25985 0.0809069
      vertex 0 0.25985 0.0809069
    endloop
  endfacet
  facet normal -0 0.562134 0.827046
    outer loop
      vertex 0 0.271652 0.0698242
      vertex 0.00629997 0.269407 0.0713501
      vertex 0.00629997 0.271652 0.0698242
    endloop
  endfacet
  facet normal 0 0.562134 0.827046
    outer loop
      vertex 0.00629997 0.269407 0.0713501
      vertex 0 0.271652 0.0698242
      vertex 0 0.269407 0.0713501
    endloop
  endfacet
  facet normal -0 0.397204 0.91773
    outer loop
      vertex 0 0.278896 0.0661335
      vertex 0.00629997 0.276406 0.0672112
      vertex 0.00629997 0.278896 0.0661335
    endloop
  endfacet
  facet normal 0 0.397204 0.91773
    outer loop
      vertex 0.00629997 0.276406 0.0672112
      vertex 0 0.278896 0.0661335
      vertex 0 0.276406 0.0672112
    endloop
  endfacet
  facet normal -0 0.279055 0.960275
    outer loop
      vertex 0 0.284056 0.0644569
      vertex 0.00629997 0.28145 0.0652142
      vertex 0.00629997 0.284056 0.0644569
    endloop
  endfacet
  facet normal 0 0.279055 0.960275
    outer loop
      vertex 0.00629997 0.28145 0.0652142
      vertex 0 0.284056 0.0644569
      vertex 0 0.28145 0.0652142
    endloop
  endfacet
  facet normal -0 0.0941762 0.995556
    outer loop
      vertex 0 0.292087 0.0631847
      vertex 0.00629997 0.289385 0.0634403
      vertex 0.00629997 0.292087 0.0631847
    endloop
  endfacet
  facet normal 0 0.0941762 0.995556
    outer loop
      vertex 0.00629997 0.289385 0.0634403
      vertex 0 0.292087 0.0631847
      vertex 0 0.289385 0.0634403
    endloop
  endfacet
  facet normal 0 0 -1
    outer loop
      vertex 0 0.0909996 0.143308
      vertex 0.00629997 0.134521 0.143308
      vertex 0.00629997 0.0909996 0.143308
    endloop
  endfacet
  facet normal -0 0 -1
    outer loop
      vertex 0.00629997 0.134521 0.143308
      vertex 0 0.0909996 0.143308
      vertex 0 0.134521 0.143308
    endloop
  endfacet
  facet normal -0 0 1
    outer loop
      vertex 0 0.134521 0.0991993
      vertex 0.00629997 0.0909996 0.0991993
      vertex 0.00629997 0.134521 0.0991993
    endloop
  endfacet
  facet normal 0 0 1
    outer loop
      vertex 0.00629997 0.0909996 0.0991993
      vertex 0 0.134521 0.0991993
      vertex 0 0.0909996 0.0991993
    endloop
  endfacet
  facet normal 0 1 -0
    outer loop
      vertex 0.00629997 0.0909996 0.0991993
      vertex 0 0.0909996 0.143308
      vertex 0.00629997 0.0909996 0.143308
    endloop
  endfacet
  facet normal 0 1 0
    outer loop
      vertex 0 0.0909996 0.143308
      vertex 0.00629997 0.0909996 0.0991993
      vertex 0 0.0909996 0.0991993
    endloop
  endfacet
  facet normal 0 -1 0
    outer loop
      vertex 0 0.134521 0.0991993
      vertex 0.00629997 0.134521 0.143308
      vertex 0 0.134521 0.143308
    endloop
  endfacet
  facet normal 0 -1 -0
    outer loop
      vertex 0.00629997 0.134521 0.143308
      vertex 0 0.134521 0.0991993
      vertex 0.00629997 0.134521 0.0991993
    endloop
  endfacet
  facet normal 1 -0 0
    outer loop
      vertex 0.3125 0.207299 0.00624943
      vertex 0.3125 0.613549 0
      vertex 0.3125 0.613549 0.00624943
    endloop
  endfacet
  facet normal 1 0 0
    outer loop
      vertex 0.3125 0.613549 0
      vertex 0.3125 0.207299 0.00624943
      vertex 0.3125 0.207299 0
    endloop
  endfacet
  facet normal -1 0 0
    outer loop
      vertex 0.577168 0.207299 0
      vertex 0.577168 0.613549 0.00624943
      vertex 0.577168 0.613549 0
    endloop
  endfacet
  facet normal -1 -0 0
    outer loop
      vertex 0.577168 0.613549 0.00624943
      vertex 0.577168 0.207299 0
      vertex 0.577168 0.207299 0.00624943
    endloop
  endfacet
  facet normal 0 -1 0
    outer loop
      vertex 0.3125 0.613549 0
      vertex 0.577168 0.613549 0.00624943
      vertex 0.3125 0.613549 0.00624943
    endloop
  endfacet
  facet normal 0 -1 -0
    outer loop
      vertex 0.577168 0.613549 0.00624943
      vertex 0.3125 0.613549 0
      vertex 0.577168 0.613549 0
    endloop
  endfacet
  facet normal 0 1 -0
    outer loop
      vertex 0.577168 0.207299 0
      vertex 0.3125 0.207299 0.00624943
      vertex 0.577168 0.207299 0.00624943
    endloop
  endfacet
  facet normal 0 1 0
    outer loop
      vertex 0.3125 0.207299 0.00624943
      vertex 0.577168 0.207299 0
      vertex 0.3125 0.207299 0
    endloop
  endfacet
endsolid OpenSCAD_Model
