solid OpenSCAD_Model
  facet normal 1 -0 0
    outer loop
      vertex 28 -13 6.5
      vertex 28 -9 2.5
      vertex 28 -9 6.5
    endloop
  endfacet
  facet normal 1 0 0
    outer loop
      vertex 28 -9 2.5
      vertex 28 -13 6.5
      vertex 28 -13 2.5
    endloop
  endfacet
  facet normal -0 0 1
    outer loop
      vertex -28 -9 6.5
      vertex 28 -13 6.5
      vertex 28 -9 6.5
    endloop
  endfacet
  facet normal 0 0 1
    outer loop
      vertex 28 -13 6.5
      vertex -28 -9 6.5
      vertex -28 -13 6.5
    endloop
  endfacet
  facet normal -0 0 1
    outer loop
      vertex -28 9 2.5
      vertex 28 -9 2.5
      vertex 28 9 2.5
    endloop
  endfacet
  facet normal 0 0 1
    outer loop
      vertex 28 -9 2.5
      vertex -28 9 2.5
      vertex -28 -9 2.5
    endloop
  endfacet
  facet normal 0 0 1
    outer loop
      vertex 28 9 2.5
      vertex 40 20 2.5
      vertex 28 13 2.5
    endloop
  endfacet
  facet normal 0 0 1
    outer loop
      vertex 40 20 2.5
      vertex -28 13 2.5
      vertex 28 13 2.5
    endloop
  endfacet
  facet normal 0 0 1
    outer loop
      vertex -40 20 2.5
      vertex -28 9 2.5
      vertex -28 13 2.5
    endloop
  endfacet
  facet normal 0 0 1
    outer loop
      vertex -28 9 2.5
      vertex -40 20 2.5
      vertex -28 -9 2.5
    endloop
  endfacet
  facet normal 0 0 1
    outer loop
      vertex -40 -20 2.5
      vertex -28 -9 2.5
      vertex -40 20 2.5
    endloop
  endfacet
  facet normal -0 0 1
    outer loop
      vertex -40 20 2.5
      vertex -28 13 2.5
      vertex 40 20 2.5
    endloop
  endfacet
  facet normal 0 0 1
    outer loop
      vertex 40 20 2.5
      vertex 28 9 2.5
      vertex 40 -20 2.5
    endloop
  endfacet
  facet normal -0 0 1
    outer loop
      vertex 28 -9 2.5
      vertex 40 -20 2.5
      vertex 28 9 2.5
    endloop
  endfacet
  facet normal -0 0 1
    outer loop
      vertex 28 -13 2.5
      vertex 40 -20 2.5
      vertex 28 -9 2.5
    endloop
  endfacet
  facet normal -0 0 1
    outer loop
      vertex -28 -13 2.5
      vertex 40 -20 2.5
      vertex 28 -13 2.5
    endloop
  endfacet
  facet normal 0 0 1
    outer loop
      vertex -28 -13 2.5
      vertex -40 -20 2.5
      vertex 40 -20 2.5
    endloop
  endfacet
  facet normal 0 0 1
    outer loop
      vertex -28 -9 2.5
      vertex -40 -20 2.5
      vertex -28 -13 2.5
    endloop
  endfacet
  facet normal -1 0 0
    outer loop
      vertex -28 -13 2.5
      vertex -28 -9 6.5
      vertex -28 -9 2.5
    endloop
  endfacet
  facet normal -1 -0 0
    outer loop
      vertex -28 -9 6.5
      vertex -28 -13 2.5
      vertex -28 -13 6.5
    endloop
  endfacet
  facet normal 0 1 -0
    outer loop
      vertex 28 -9 2.5
      vertex -28 -9 6.5
      vertex 28 -9 6.5
    endloop
  endfacet
  facet normal 0 1 0
    outer loop
      vertex -28 -9 6.5
      vertex 28 -9 2.5
      vertex -28 -9 2.5
    endloop
  endfacet
  facet normal 0 -1 0
    outer loop
      vertex -28 -13 2.5
      vertex 28 -13 6.5
      vertex -28 -13 6.5
    endloop
  endfacet
  facet normal 0 -1 -0
    outer loop
      vertex 28 -13 6.5
      vertex -28 -13 2.5
      vertex 28 -13 2.5
    endloop
  endfacet
  facet normal 1 -0 0
    outer loop
      vertex 28 9 6.5
      vertex 28 13 2.5
      vertex 28 13 6.5
    endloop
  endfacet
  facet normal 1 0 0
    outer loop
      vertex 28 13 2.5
      vertex 28 9 6.5
      vertex 28 9 2.5
    endloop
  endfacet
  facet normal -0 0 1
    outer loop
      vertex -28 13 6.5
      vertex 28 9 6.5
      vertex 28 13 6.5
    endloop
  endfacet
  facet normal 0 0 1
    outer loop
      vertex 28 9 6.5
      vertex -28 13 6.5
      vertex -28 9 6.5
    endloop
  endfacet
  facet normal -1 0 0
    outer loop
      vertex -28 9 2.5
      vertex -28 13 6.5
      vertex -28 13 2.5
    endloop
  endfacet
  facet normal -1 -0 0
    outer loop
      vertex -28 13 6.5
      vertex -28 9 2.5
      vertex -28 9 6.5
    endloop
  endfacet
  facet normal 0 1 -0
    outer loop
      vertex 28 13 2.5
      vertex -28 13 6.5
      vertex 28 13 6.5
    endloop
  endfacet
  facet normal 0 1 0
    outer loop
      vertex -28 13 6.5
      vertex 28 13 2.5
      vertex -28 13 2.5
    endloop
  endfacet
  facet normal 0 -1 0
    outer loop
      vertex -28 9 2.5
      vertex 28 9 6.5
      vertex -28 9 6.5
    endloop
  endfacet
  facet normal 0 -1 -0
    outer loop
      vertex 28 9 6.5
      vertex -28 9 2.5
      vertex 28 9 2.5
    endloop
  endfacet
  facet normal 1 -0 0
    outer loop
      vertex 40 -20 2.5
      vertex 40 20 -2.5
      vertex 40 20 2.5
    endloop
  endfacet
  facet normal 1 0 0
    outer loop
      vertex 40 20 -2.5
      vertex 40 -20 2.5
      vertex 40 -20 -2.5
    endloop
  endfacet
  facet normal 0 0 -1
    outer loop
      vertex -40 -20 -2.5
      vertex 40 20 -2.5
      vertex 40 -20 -2.5
    endloop
  endfacet
  facet normal -0 0 -1
    outer loop
      vertex 40 20 -2.5
      vertex -40 -20 -2.5
      vertex -40 20 -2.5
    endloop
  endfacet
  facet normal -1 0 0
    outer loop
      vertex -40 -20 -2.5
      vertex -40 20 2.5
      vertex -40 20 -2.5
    endloop
  endfacet
  facet normal -1 -0 0
    outer loop
      vertex -40 20 2.5
      vertex -40 -20 -2.5
      vertex -40 -20 2.5
    endloop
  endfacet
  facet normal 0 1 -0
    outer loop
      vertex 40 20 -2.5
      vertex -40 20 2.5
      vertex 40 20 2.5
    endloop
  endfacet
  facet normal 0 1 0
    outer loop
      vertex -40 20 2.5
      vertex 40 20 -2.5
      vertex -40 20 -2.5
    endloop
  endfacet
  facet normal 0 -1 0
    outer loop
      vertex -40 -20 -2.5
      vertex 40 -20 2.5
      vertex -40 -20 2.5
    endloop
  endfacet
  facet normal 0 -1 -0
    outer loop
      vertex 40 -20 2.5
      vertex -40 -20 -2.5
      vertex 40 -20 -2.5
    endloop
  endfacet
endsolid OpenSCAD_Model
