solid OpenSCAD_Model
  facet normal -1 0 0
    outer loop
      vertex 0 0.2 0
      vertex 0 0 0
      vertex 0 0.2 0.5
    endloop
  endfacet
  facet normal -1 0 0
    outer loop
      vertex 0 0.424999 0.5
      vertex 0 0.625 0
      vertex 0 0.424999 0
    endloop
  endfacet
  facet normal -1 0 0
    outer loop
      vertex 0 0.625 0
      vertex 0 0.424999 0.5
      vertex 0 0.625 0.549999
    endloop
  endfacet
  facet normal -1 0 0
    outer loop
      vertex 0 0.2 0.5
      vertex 0 0.625 0.549999
      vertex 0 0.424999 0.5
    endloop
  endfacet
  facet normal -1 0 0
    outer loop
      vertex 0 0.2 0.5
      vertex 0 0 0.549999
      vertex 0 0.625 0.549999
    endloop
  endfacet
  facet normal -1 0 0
    outer loop
      vertex 0 0 0.549999
      vertex 0 0.2 0.5
      vertex 0 0 0
    endloop
  endfacet
  facet normal 0 0 1
    outer loop
      vertex 0.75 0.625 0.549999
      vertex 0.7 0.575 0.549999
      vertex 0.75 0 0.549999
    endloop
  endfacet
  facet normal 0 0 1
    outer loop
      vertex 0.75 0.625 0.549999
      vertex 0.0499992 0.575 0.549999
      vertex 0.7 0.575 0.549999
    endloop
  endfacet
  facet normal 0 0 1
    outer loop
      vertex 0.0499992 0.575 0.549999
      vertex 0 0.625 0.549999
      vertex 0.0499992 0.0499992 0.549999
    endloop
  endfacet
  facet normal -0 0 1
    outer loop
      vertex 0 0.625 0.549999
      vertex 0.0499992 0.575 0.549999
      vertex 0.75 0.625 0.549999
    endloop
  endfacet
  facet normal -0 0 1
    outer loop
      vertex 0.7 0.0499992 0.549999
      vertex 0.75 0 0.549999
      vertex 0.7 0.575 0.549999
    endloop
  endfacet
  facet normal -0 0 1
    outer loop
      vertex 0.0499992 0.0499992 0.549999
      vertex 0.75 0 0.549999
      vertex 0.7 0.0499992 0.549999
    endloop
  endfacet
  facet normal 0 0 1
    outer loop
      vertex 0.0499992 0.0499992 0.549999
      vertex 0 0 0.549999
      vertex 0.75 0 0.549999
    endloop
  endfacet
  facet normal 0 0 1
    outer loop
      vertex 0 0 0.549999
      vertex 0.0499992 0.0499992 0.549999
      vertex 0 0.625 0.549999
    endloop
  endfacet
  facet normal 1 -0 0
    outer loop
      vertex 0.75 0 0.549999
      vertex 0.75 0.625 0
      vertex 0.75 0.625 0.549999
    endloop
  endfacet
  facet normal 1 0 0
    outer loop
      vertex 0.75 0.625 0
      vertex 0.75 0 0.549999
      vertex 0.75 0 0
    endloop
  endfacet
  facet normal 0 1 -0
    outer loop
      vertex 0.75 0.625 0
      vertex 0 0.625 0.549999
      vertex 0.75 0.625 0.549999
    endloop
  endfacet
  facet normal 0 1 0
    outer loop
      vertex 0 0.625 0.549999
      vertex 0.75 0.625 0
      vertex 0 0.625 0
    endloop
  endfacet
  facet normal 0 0 -1
    outer loop
      vertex 0.75 0 0
      vertex 0.0749998 0.2 0
      vertex 0.75 0.625 0
    endloop
  endfacet
  facet normal 0 0 -1
    outer loop
      vertex 0 0 0
      vertex 0.0749998 0.2 0
      vertex 0.75 0 0
    endloop
  endfacet
  facet normal -0 0 -1
    outer loop
      vertex 0.0749998 0.2 0
      vertex 0 0 0
      vertex 0 0.2 0
    endloop
  endfacet
  facet normal 0 0 -1
    outer loop
      vertex 0.0749998 0.424999 0
      vertex 0.75 0.625 0
      vertex 0.0749998 0.2 0
    endloop
  endfacet
  facet normal 0 0 -1
    outer loop
      vertex 0 0.625 0
      vertex 0.0749998 0.424999 0
      vertex 0 0.424999 0
    endloop
  endfacet
  facet normal 0 0 -1
    outer loop
      vertex 0.0749998 0.424999 0
      vertex 0 0.625 0
      vertex 0.75 0.625 0
    endloop
  endfacet
  facet normal 0 -1 0
    outer loop
      vertex 0 0 0.549999
      vertex 0.125 0 0.45
      vertex 0.75 0 0.549999
    endloop
  endfacet
  facet normal 0 -1 0
    outer loop
      vertex 0 0 0.549999
      vertex 0.125 0 0.25
      vertex 0.125 0 0.45
    endloop
  endfacet
  facet normal 0 -1 -0
    outer loop
      vertex 0.125 0 0.25
      vertex 0 0 0
      vertex 0.625 0 0.25
    endloop
  endfacet
  facet normal 0 -1 0
    outer loop
      vertex 0 0 0
      vertex 0.125 0 0.25
      vertex 0 0 0.549999
    endloop
  endfacet
  facet normal 0 -1 0
    outer loop
      vertex 0.625 0 0.45
      vertex 0.75 0 0.549999
      vertex 0.125 0 0.45
    endloop
  endfacet
  facet normal 0 -1 0
    outer loop
      vertex 0.625 0 0.25
      vertex 0.75 0 0.549999
      vertex 0.625 0 0.45
    endloop
  endfacet
  facet normal 0 -1 0
    outer loop
      vertex 0.625 0 0.25
      vertex 0.75 0 0
      vertex 0.75 0 0.549999
    endloop
  endfacet
  facet normal 0 -1 0
    outer loop
      vertex 0.75 0 0
      vertex 0.625 0 0.25
      vertex 0 0 0
    endloop
  endfacet
  facet normal 1 0 0
    outer loop
      vertex 0.0499992 0.575 0.549999
      vertex 0.0499992 0.424999 0.5
      vertex 0.0499992 0.575 0.0499992
    endloop
  endfacet
  facet normal 1 0 0
    outer loop
      vertex 0.0499992 0.575 0.549999
      vertex 0.0499992 0.2 0.5
      vertex 0.0499992 0.424999 0.5
    endloop
  endfacet
  facet normal 1 -0 0
    outer loop
      vertex 0.0499992 0.0499992 0.549999
      vertex 0.0499992 0.2 0.5
      vertex 0.0499992 0.575 0.549999
    endloop
  endfacet
  facet normal 1 0 0
    outer loop
      vertex 0.0499992 0.0499992 0.0499992
      vertex 0.0499992 0.2 0.5
      vertex 0.0499992 0.0499992 0.549999
    endloop
  endfacet
  facet normal 1 0 0
    outer loop
      vertex 0.0499992 0.2 0.5
      vertex 0.0499992 0.0499992 0.0499992
      vertex 0.0499992 0.2 0.0499992
    endloop
  endfacet
  facet normal 1 0 0
    outer loop
      vertex 0.0499992 0.575 0.0499992
      vertex 0.0499992 0.424999 0.5
      vertex 0.0499992 0.424999 0.0499992
    endloop
  endfacet
  facet normal -1 0 0
    outer loop
      vertex 0.7 0.0499992 0.0499992
      vertex 0.7 0.575 0.549999
      vertex 0.7 0.575 0.0499992
    endloop
  endfacet
  facet normal -1 -0 0
    outer loop
      vertex 0.7 0.575 0.549999
      vertex 0.7 0.0499992 0.0499992
      vertex 0.7 0.0499992 0.549999
    endloop
  endfacet
  facet normal 0 -1 0
    outer loop
      vertex 0.0499992 0.575 0.0499992
      vertex 0.7 0.575 0.549999
      vertex 0.0499992 0.575 0.549999
    endloop
  endfacet
  facet normal 0 -1 -0
    outer loop
      vertex 0.7 0.575 0.549999
      vertex 0.0499992 0.575 0.0499992
      vertex 0.7 0.575 0.0499992
    endloop
  endfacet
  facet normal 0 0 1
    outer loop
      vertex 0.7 0.575 0.0499992
      vertex 0.0749998 0.424999 0.0499992
      vertex 0.7 0.0499992 0.0499992
    endloop
  endfacet
  facet normal -0 0 1
    outer loop
      vertex 0.0499992 0.575 0.0499992
      vertex 0.0749998 0.424999 0.0499992
      vertex 0.7 0.575 0.0499992
    endloop
  endfacet
  facet normal 0 0 1
    outer loop
      vertex 0.0749998 0.424999 0.0499992
      vertex 0.0499992 0.575 0.0499992
      vertex 0.0499992 0.424999 0.0499992
    endloop
  endfacet
  facet normal -0 0 1
    outer loop
      vertex 0.0749998 0.2 0.0499992
      vertex 0.7 0.0499992 0.0499992
      vertex 0.0749998 0.424999 0.0499992
    endloop
  endfacet
  facet normal 0 0 1
    outer loop
      vertex 0.0499992 0.0499992 0.0499992
      vertex 0.0749998 0.2 0.0499992
      vertex 0.0499992 0.2 0.0499992
    endloop
  endfacet
  facet normal 0 0 1
    outer loop
      vertex 0.0749998 0.2 0.0499992
      vertex 0.0499992 0.0499992 0.0499992
      vertex 0.7 0.0499992 0.0499992
    endloop
  endfacet
  facet normal 0 1 0
    outer loop
      vertex 0.7 0.0499992 0.549999
      vertex 0.625 0.0499992 0.45
      vertex 0.0499992 0.0499992 0.549999
    endloop
  endfacet
  facet normal 0 1 0
    outer loop
      vertex 0.7 0.0499992 0.549999
      vertex 0.625 0.0499992 0.4375
      vertex 0.625 0.0499992 0.45
    endloop
  endfacet
  facet normal 0 1 0
    outer loop
      vertex 0.7 0.0499992 0.549999
      vertex 0.625 0.0499992 0.25
      vertex 0.625 0.0499992 0.4375
    endloop
  endfacet
  facet normal 0 1 0
    outer loop
      vertex 0.625 0.0499992 0.25
      vertex 0.7 0.0499992 0.0499992
      vertex 0.125 0.0499992 0.25
    endloop
  endfacet
  facet normal 0 1 -0
    outer loop
      vertex 0.7 0.0499992 0.0499992
      vertex 0.625 0.0499992 0.25
      vertex 0.7 0.0499992 0.549999
    endloop
  endfacet
  facet normal 0 1 -0
    outer loop
      vertex 0.125 0.0499992 0.45
      vertex 0.0499992 0.0499992 0.549999
      vertex 0.625 0.0499992 0.45
    endloop
  endfacet
  facet normal 0 1 -0
    outer loop
      vertex 0.125 0.0499992 0.4375
      vertex 0.0499992 0.0499992 0.549999
      vertex 0.125 0.0499992 0.45
    endloop
  endfacet
  facet normal 0 1 -0
    outer loop
      vertex 0.125 0.0499992 0.25
      vertex 0.0499992 0.0499992 0.549999
      vertex 0.125 0.0499992 0.4375
    endloop
  endfacet
  facet normal 0 1 0
    outer loop
      vertex 0.125 0.0499992 0.25
      vertex 0.0499992 0.0499992 0.0499992
      vertex 0.0499992 0.0499992 0.549999
    endloop
  endfacet
  facet normal 0 1 0
    outer loop
      vertex 0.0499992 0.0499992 0.0499992
      vertex 0.125 0.0499992 0.25
      vertex 0.7 0.0499992 0.0499992
    endloop
  endfacet
  facet normal 1 -0 0
    outer loop
      vertex 0.125 0 0.45
      vertex 0.125 0.0499992 0.4375
      vertex 0.125 0.0499992 0.45
    endloop
  endfacet
  facet normal 1 0 0
    outer loop
      vertex 0.125 0 0.25
      vertex 0.125 0.0499992 0.4375
      vertex 0.125 0 0.45
    endloop
  endfacet
  facet normal 1 0 0
    outer loop
      vertex 0.125 0.0499992 0.4375
      vertex 0.125 0 0.25
      vertex 0.125 0.0499992 0.25
    endloop
  endfacet
  facet normal 0 0 -1
    outer loop
      vertex 0.125 0 0.45
      vertex 0.625 0.0499992 0.45
      vertex 0.625 0 0.45
    endloop
  endfacet
  facet normal -0 0 -1
    outer loop
      vertex 0.625 0.0499992 0.45
      vertex 0.125 0 0.45
      vertex 0.125 0.0499992 0.45
    endloop
  endfacet
  facet normal -1 0 0
    outer loop
      vertex 0.625 0 0.25
      vertex 0.625 0.0499992 0.4375
      vertex 0.625 0.0499992 0.25
    endloop
  endfacet
  facet normal -1 0 0
    outer loop
      vertex 0.625 0 0.45
      vertex 0.625 0.0499992 0.4375
      vertex 0.625 0 0.25
    endloop
  endfacet
  facet normal -1 0 0
    outer loop
      vertex 0.625 0.0499992 0.4375
      vertex 0.625 0 0.45
      vertex 0.625 0.0499992 0.45
    endloop
  endfacet
  facet normal -0 0 1
    outer loop
      vertex 0.125 0.0499992 0.25
      vertex 0.625 0 0.25
      vertex 0.625 0.0499992 0.25
    endloop
  endfacet
  facet normal 0 0 1
    outer loop
      vertex 0.625 0 0.25
      vertex 0.125 0.0499992 0.25
      vertex 0.125 0 0.25
    endloop
  endfacet
  facet normal 0 0 -1
    outer loop
      vertex 0 0.2 0.5
      vertex 0.0499992 0.424999 0.5
      vertex 0.0499992 0.2 0.5
    endloop
  endfacet
  facet normal -0 0 -1
    outer loop
      vertex 0.0499992 0.424999 0.5
      vertex 0 0.2 0.5
      vertex 0 0.424999 0.5
    endloop
  endfacet
  facet normal -1 0 0
    outer loop
      vertex 0.0749998 0.2 0
      vertex 0.0749998 0.424999 0.0499992
      vertex 0.0749998 0.424999 0
    endloop
  endfacet
  facet normal -1 -0 0
    outer loop
      vertex 0.0749998 0.424999 0.0499992
      vertex 0.0749998 0.2 0
      vertex 0.0749998 0.2 0.0499992
    endloop
  endfacet
  facet normal 0 1 0
    outer loop
      vertex 0.0749998 0.2 0.0499992
      vertex 0.0749998 0.2 0
      vertex 0.0499992 0.2 0.0499992
    endloop
  endfacet
  facet normal 0 1 -0
    outer loop
      vertex 0.0499992 0.2 0.0499992
      vertex 0 0.2 0.5
      vertex 0.0499992 0.2 0.5
    endloop
  endfacet
  facet normal 0 1 0
    outer loop
      vertex 0.0499992 0.2 0.0499992
      vertex 0 0.2 0
      vertex 0 0.2 0.5
    endloop
  endfacet
  facet normal 0 1 0
    outer loop
      vertex 0 0.2 0
      vertex 0.0499992 0.2 0.0499992
      vertex 0.0749998 0.2 0
    endloop
  endfacet
  facet normal 0 -1 0
    outer loop
      vertex 0 0.424999 0.5
      vertex 0.0499992 0.424999 0.0499992
      vertex 0.0499992 0.424999 0.5
    endloop
  endfacet
  facet normal 0 -1 0
    outer loop
      vertex 0 0.424999 0
      vertex 0.0499992 0.424999 0.0499992
      vertex 0 0.424999 0.5
    endloop
  endfacet
  facet normal 0 -1 0
    outer loop
      vertex 0.0749998 0.424999 0
      vertex 0.0499992 0.424999 0.0499992
      vertex 0 0.424999 0
    endloop
  endfacet
  facet normal 0 -1 0
    outer loop
      vertex 0.0499992 0.424999 0.0499992
      vertex 0.0749998 0.424999 0
      vertex 0.0749998 0.424999 0.0499992
    endloop
  endfacet
  facet normal -1 0 0
    outer loop
      vertex 0.125 0.0499992 0.4375
      vertex 0.125 0.15 0.45
      vertex 0.125 0.15 0.4375
    endloop
  endfacet
  facet normal -1 -0 0
    outer loop
      vertex 0.125 0.15 0.45
      vertex 0.125 0.0499992 0.4375
      vertex 0.125 0.0499992 0.45
    endloop
  endfacet
  facet normal -0 0 1
    outer loop
      vertex 0.125 0.15 0.45
      vertex 0.625 0.0499992 0.45
      vertex 0.625 0.15 0.45
    endloop
  endfacet
  facet normal 0 0 1
    outer loop
      vertex 0.625 0.0499992 0.45
      vertex 0.125 0.15 0.45
      vertex 0.125 0.0499992 0.45
    endloop
  endfacet
  facet normal 1 -0 0
    outer loop
      vertex 0.625 0.0499992 0.45
      vertex 0.625 0.15 0.4375
      vertex 0.625 0.15 0.45
    endloop
  endfacet
  facet normal 1 0 0
    outer loop
      vertex 0.625 0.15 0.4375
      vertex 0.625 0.0499992 0.45
      vertex 0.625 0.0499992 0.4375
    endloop
  endfacet
  facet normal 0 1 -0
    outer loop
      vertex 0.625 0.15 0.4375
      vertex 0.125 0.15 0.45
      vertex 0.625 0.15 0.45
    endloop
  endfacet
  facet normal 0 1 0
    outer loop
      vertex 0.125 0.15 0.45
      vertex 0.625 0.15 0.4375
      vertex 0.125 0.15 0.4375
    endloop
  endfacet
  facet normal 0 0 -1
    outer loop
      vertex 0.125 0.0499992 0.4375
      vertex 0.625 0.15 0.4375
      vertex 0.625 0.0499992 0.4375
    endloop
  endfacet
  facet normal -0 0 -1
    outer loop
      vertex 0.625 0.15 0.4375
      vertex 0.125 0.0499992 0.4375
      vertex 0.125 0.15 0.4375
    endloop
  endfacet
  facet normal 0 -1 0
    outer loop
      vertex 0.125 0.0499992 0.4375
      vertex 0.625 0.0499992 0.45
      vertex 0.125 0.0499992 0.45
    endloop
  endfacet
  facet normal 0 -1 -0
    outer loop
      vertex 0.625 0.0499992 0.45
      vertex 0.125 0.0499992 0.4375
      vertex 0.625 0.0499992 0.4375
    endloop
  endfacet
endsolid OpenSCAD_Model
