solid OpenSCAD_Model
  facet normal 1 0 0
    outer loop
      vertex 80 20 16
      vertex 80 17 16
      vertex 80 20 10
    endloop
  endfacet
  facet normal 1 -0 0
    outer loop
      vertex 80 20 10
      vertex 80 60 0
      vertex 80 60 10
    endloop
  endfacet
  facet normal 1 0 0
    outer loop
      vertex 80 17 4
      vertex 80 20 10
      vertex 80 17 16
    endloop
  endfacet
  facet normal 1 -0 0
    outer loop
      vertex 80 17 4
      vertex 80 60 0
      vertex 80 20 10
    endloop
  endfacet
  facet normal 1 0 0
    outer loop
      vertex 80 0 0
      vertex 80 17 4
      vertex 80 0 4
    endloop
  endfacet
  facet normal 1 0 0
    outer loop
      vertex 80 17 4
      vertex 80 0 0
      vertex 80 60 0
    endloop
  endfacet
  facet normal -0 0 1
    outer loop
      vertex 0 20 16
      vertex 80 17 16
      vertex 80 20 16
    endloop
  endfacet
  facet normal 0 0 1
    outer loop
      vertex 80 17 16
      vertex 0 20 16
      vertex 0 17 16
    endloop
  endfacet
  facet normal -0 0 1
    outer loop
      vertex 60 60 4
      vertex 75 20 4
      vertex 75 60 4
    endloop
  endfacet
  facet normal 0 0 1
    outer loop
      vertex 75 20 4
      vertex 60 60 4
      vertex 60 20 4
    endloop
  endfacet
  facet normal -0 0 1
    outer loop
      vertex 0 17 4
      vertex 80 0 4
      vertex 80 17 4
    endloop
  endfacet
  facet normal 0 0 1
    outer loop
      vertex 80 0 4
      vertex 0 17 4
      vertex 0 0 4
    endloop
  endfacet
  facet normal -1 0 0
    outer loop
      vertex 0 60 0
      vertex 0 20 12
      vertex 0 60 12
    endloop
  endfacet
  facet normal -1 0 0
    outer loop
      vertex 0 17 16
      vertex 0 20 12
      vertex 0 17 4
    endloop
  endfacet
  facet normal -1 0 0
    outer loop
      vertex 0 60 0
      vertex 0 17 4
      vertex 0 20 12
    endloop
  endfacet
  facet normal -1 0 0
    outer loop
      vertex 0 0 0
      vertex 0 17 4
      vertex 0 60 0
    endloop
  endfacet
  facet normal -1 -0 0
    outer loop
      vertex 0 17 4
      vertex 0 0 0
      vertex 0 0 4
    endloop
  endfacet
  facet normal -1 0 0
    outer loop
      vertex 0 20 12
      vertex 0 17 16
      vertex 0 20 16
    endloop
  endfacet
  facet normal 0 1 0
    outer loop
      vertex 80 20 16
      vertex 55 20 13
      vertex 0 20 16
    endloop
  endfacet
  facet normal 0 1 0
    outer loop
      vertex 80 20 16
      vertex 60 20 12
      vertex 55 20 13
    endloop
  endfacet
  facet normal 0 1 0
    outer loop
      vertex 75 20 10
      vertex 80 20 16
      vertex 80 20 10
    endloop
  endfacet
  facet normal 0 1 0
    outer loop
      vertex 80 20 16
      vertex 75 20 10
      vertex 60 20 12
    endloop
  endfacet
  facet normal 0 1 0
    outer loop
      vertex 60 20 4
      vertex 75 20 10
      vertex 75 20 4
    endloop
  endfacet
  facet normal 0 1 0
    outer loop
      vertex 75 20 10
      vertex 60 20 4
      vertex 60 20 12
    endloop
  endfacet
  facet normal 0 1 -0
    outer loop
      vertex 25 20 13
      vertex 0 20 16
      vertex 55 20 13
    endloop
  endfacet
  facet normal 0 1 0
    outer loop
      vertex 0 20 12
      vertex 25 20 13
      vertex 25 20 12
    endloop
  endfacet
  facet normal 0 1 0
    outer loop
      vertex 25 20 13
      vertex 0 20 12
      vertex 0 20 16
    endloop
  endfacet
  facet normal 0 1 0
    outer loop
      vertex 55 20 13
      vertex 60 20 12
      vertex 55 20 12
    endloop
  endfacet
  facet normal 0 -1 0
    outer loop
      vertex 25 20 7
      vertex 55 20 12
      vertex 25 20 12
    endloop
  endfacet
  facet normal 0 -1 -0
    outer loop
      vertex 55 20 12
      vertex 25 20 7
      vertex 55 20 7
    endloop
  endfacet
  facet normal 0 -1 0
    outer loop
      vertex 0 17 16
      vertex 25 17 13
      vertex 80 17 16
    endloop
  endfacet
  facet normal 0 -1 0
    outer loop
      vertex 0 17 16
      vertex 25 17 7
      vertex 25 17 13
    endloop
  endfacet
  facet normal 0 -1 -0
    outer loop
      vertex 25 17 7
      vertex 0 17 4
      vertex 55 17 7
    endloop
  endfacet
  facet normal 0 -1 0
    outer loop
      vertex 0 17 4
      vertex 25 17 7
      vertex 0 17 16
    endloop
  endfacet
  facet normal 0 -1 0
    outer loop
      vertex 55 17 13
      vertex 80 17 16
      vertex 25 17 13
    endloop
  endfacet
  facet normal 0 -1 0
    outer loop
      vertex 55 17 7
      vertex 80 17 16
      vertex 55 17 13
    endloop
  endfacet
  facet normal 0 -1 0
    outer loop
      vertex 55 17 7
      vertex 80 17 4
      vertex 80 17 16
    endloop
  endfacet
  facet normal 0 -1 0
    outer loop
      vertex 80 17 4
      vertex 55 17 7
      vertex 0 17 4
    endloop
  endfacet
  facet normal -1 0 0
    outer loop
      vertex 55 17 7
      vertex 55 20 12
      vertex 55 20 7
    endloop
  endfacet
  facet normal -1 0 0
    outer loop
      vertex 55 17 13
      vertex 55 20 12
      vertex 55 17 7
    endloop
  endfacet
  facet normal -1 0 0
    outer loop
      vertex 55 20 12
      vertex 55 17 13
      vertex 55 20 13
    endloop
  endfacet
  facet normal 0 0 -1
    outer loop
      vertex 25 17 13
      vertex 55 20 13
      vertex 55 17 13
    endloop
  endfacet
  facet normal -0 0 -1
    outer loop
      vertex 55 20 13
      vertex 25 17 13
      vertex 25 20 13
    endloop
  endfacet
  facet normal -0 0 1
    outer loop
      vertex 25 20 7
      vertex 55 17 7
      vertex 55 20 7
    endloop
  endfacet
  facet normal 0 0 1
    outer loop
      vertex 55 17 7
      vertex 25 20 7
      vertex 25 17 7
    endloop
  endfacet
  facet normal 1 -0 0
    outer loop
      vertex 25 17 13
      vertex 25 20 12
      vertex 25 20 13
    endloop
  endfacet
  facet normal 1 0 0
    outer loop
      vertex 25 17 7
      vertex 25 20 12
      vertex 25 17 13
    endloop
  endfacet
  facet normal 1 0 0
    outer loop
      vertex 25 20 12
      vertex 25 17 7
      vertex 25 20 7
    endloop
  endfacet
  facet normal 0 0 -1
    outer loop
      vertex 0 0 0
      vertex 80 60 0
      vertex 80 0 0
    endloop
  endfacet
  facet normal -0 0 -1
    outer loop
      vertex 80 60 0
      vertex 0 0 0
      vertex 0 60 0
    endloop
  endfacet
  facet normal 0 1 0
    outer loop
      vertex 80 60 10
      vertex 75 60 4
      vertex 75 60 10
    endloop
  endfacet
  facet normal 0 1 0
    outer loop
      vertex 75 60 4
      vertex 80 60 0
      vertex 60 60 4
    endloop
  endfacet
  facet normal 0 1 -0
    outer loop
      vertex 80 60 0
      vertex 75 60 4
      vertex 80 60 10
    endloop
  endfacet
  facet normal 0 1 -0
    outer loop
      vertex 60 60 4
      vertex 0 60 12
      vertex 60 60 12
    endloop
  endfacet
  facet normal 0 1 0
    outer loop
      vertex 0 60 0
      vertex 60 60 4
      vertex 80 60 0
    endloop
  endfacet
  facet normal 0 1 0
    outer loop
      vertex 60 60 4
      vertex 0 60 0
      vertex 0 60 12
    endloop
  endfacet
  facet normal 0 -1 0
    outer loop
      vertex 0 0 0
      vertex 80 0 4
      vertex 0 0 4
    endloop
  endfacet
  facet normal 0 -1 -0
    outer loop
      vertex 80 0 4
      vertex 0 0 0
      vertex 80 0 0
    endloop
  endfacet
  facet normal 1 -0 0
    outer loop
      vertex 60 20 12
      vertex 60 60 4
      vertex 60 60 12
    endloop
  endfacet
  facet normal 1 0 0
    outer loop
      vertex 60 60 4
      vertex 60 20 12
      vertex 60 20 4
    endloop
  endfacet
  facet normal 0 0 1
    outer loop
      vertex 60 60 12
      vertex 55 20 12
      vertex 60 20 12
    endloop
  endfacet
  facet normal 0 0 1
    outer loop
      vertex 60 60 12
      vertex 25 20 12
      vertex 55 20 12
    endloop
  endfacet
  facet normal -0 0 1
    outer loop
      vertex 0 60 12
      vertex 25 20 12
      vertex 60 60 12
    endloop
  endfacet
  facet normal 0 0 1
    outer loop
      vertex 25 20 12
      vertex 0 60 12
      vertex 0 20 12
    endloop
  endfacet
  facet normal -0 0 1
    outer loop
      vertex 75 60 10
      vertex 80 20 10
      vertex 80 60 10
    endloop
  endfacet
  facet normal 0 0 1
    outer loop
      vertex 80 20 10
      vertex 75 60 10
      vertex 75 20 10
    endloop
  endfacet
  facet normal -1 0 0
    outer loop
      vertex 75 20 4
      vertex 75 60 10
      vertex 75 60 4
    endloop
  endfacet
  facet normal -1 -0 0
    outer loop
      vertex 75 60 10
      vertex 75 20 4
      vertex 75 20 10
    endloop
  endfacet
endsolid OpenSCAD_Model
