solid OpenSCAD_Model
  facet normal 1 0 0
    outer loop
      vertex 60 65 2
      vertex 60 70 42
      vertex 60 65 42
    endloop
  endfacet
  facet normal 1 0 0
    outer loop
      vertex 60 70 42
      vertex 60 65 2
      vertex 60 70 0
    endloop
  endfacet
  facet normal 1 0 0
    outer loop
      vertex 60 0 0
      vertex 60 65 2
      vertex 60 0 2
    endloop
  endfacet
  facet normal 1 0 0
    outer loop
      vertex 60 65 2
      vertex 60 0 0
      vertex 60 70 0
    endloop
  endfacet
  facet normal 0 0 1
    outer loop
      vertex 60 65 2
      vertex -11 41 2
      vertex 60 0 2
    endloop
  endfacet
  facet normal -0 0 1
    outer loop
      vertex -60 65 2
      vertex -11 41 2
      vertex 60 65 2
    endloop
  endfacet
  facet normal 0 0 1
    outer loop
      vertex -60 0 2
      vertex -45 41 2
      vertex -60 65 2
    endloop
  endfacet
  facet normal 0 0 1
    outer loop
      vertex -11 41 2
      vertex -60 65 2
      vertex -45 41 2
    endloop
  endfacet
  facet normal -0 0 1
    outer loop
      vertex -11 19 2
      vertex 60 0 2
      vertex -11 41 2
    endloop
  endfacet
  facet normal 0 0 1
    outer loop
      vertex -60 0 2
      vertex -11 19 2
      vertex -45 19 2
    endloop
  endfacet
  facet normal 0 0 1
    outer loop
      vertex -11 19 2
      vertex -60 0 2
      vertex 60 0 2
    endloop
  endfacet
  facet normal 0 0 1
    outer loop
      vertex -45 41 2
      vertex -60 0 2
      vertex -45 19 2
    endloop
  endfacet
  facet normal 0 0 -1
    outer loop
      vertex -11 41 0
      vertex 60 0 0
      vertex -11 19 0
    endloop
  endfacet
  facet normal 0 0 -1
    outer loop
      vertex -60 0 0
      vertex -11 19 0
      vertex 60 0 0
    endloop
  endfacet
  facet normal -0 0 -1
    outer loop
      vertex -45 19 0
      vertex -60 0 0
      vertex -45 41 0
    endloop
  endfacet
  facet normal -0 0 -1
    outer loop
      vertex -11 19 0
      vertex -60 0 0
      vertex -45 19 0
    endloop
  endfacet
  facet normal 0 0 -1
    outer loop
      vertex 60 0 0
      vertex -11 41 0
      vertex 60 70 0
    endloop
  endfacet
  facet normal 0 0 -1
    outer loop
      vertex -60 70 0
      vertex -11 41 0
      vertex -45 41 0
    endloop
  endfacet
  facet normal 0 0 -1
    outer loop
      vertex -11 41 0
      vertex -60 70 0
      vertex 60 70 0
    endloop
  endfacet
  facet normal 0 0 -1
    outer loop
      vertex -60 70 0
      vertex -45 41 0
      vertex -60 0 0
    endloop
  endfacet
  facet normal -1 0 0
    outer loop
      vertex -60 70 0
      vertex -60 65 2
      vertex -60 70 42
    endloop
  endfacet
  facet normal -1 0 0
    outer loop
      vertex -60 0 0
      vertex -60 65 2
      vertex -60 70 0
    endloop
  endfacet
  facet normal -1 -0 0
    outer loop
      vertex -60 65 2
      vertex -60 0 0
      vertex -60 0 2
    endloop
  endfacet
  facet normal -1 -0 0
    outer loop
      vertex -60 70 42
      vertex -60 65 2
      vertex -60 65 42
    endloop
  endfacet
  facet normal 0 1 0
    outer loop
      vertex 37.5385 70 17.4126
      vertex 12 70 27
      vertex 37.5096 70 17.7057
    endloop
  endfacet
  facet normal 0 1 0
    outer loop
      vertex 37.5865 70 17.1221
      vertex 12 70 27
      vertex 37.5385 70 17.4126
    endloop
  endfacet
  facet normal 0 1 0
    outer loop
      vertex 37.6533 70 16.8353
      vertex 12 70 27
      vertex 37.5865 70 17.1221
    endloop
  endfacet
  facet normal 0 1 0
    outer loop
      vertex 37.7388 70 16.5535
      vertex 12 70 27
      vertex 37.6533 70 16.8353
    endloop
  endfacet
  facet normal 0 1 0
    outer loop
      vertex 37.8425 70 16.2779
      vertex 12 70 27
      vertex 37.7388 70 16.5535
    endloop
  endfacet
  facet normal 0 1 0
    outer loop
      vertex 12 70 27
      vertex 37.8425 70 16.2779
      vertex -1 70 5
    endloop
  endfacet
  facet normal 0 1 0
    outer loop
      vertex -1 70 5
      vertex 37.8425 70 16.2779
      vertex 37.9641 70 16.0097
    endloop
  endfacet
  facet normal 0 1 0
    outer loop
      vertex -1 70 5
      vertex 37.9641 70 16.0097
      vertex 38.1029 70 15.75
    endloop
  endfacet
  facet normal 0 1 0
    outer loop
      vertex -1 70 5
      vertex 38.1029 70 15.75
      vertex 38.2584 70 15.4999
    endloop
  endfacet
  facet normal 0 1 0
    outer loop
      vertex -1 70 5
      vertex 38.2584 70 15.4999
      vertex 38.4299 70 15.2606
    endloop
  endfacet
  facet normal 0 1 0
    outer loop
      vertex -1 70 5
      vertex 38.4299 70 15.2606
      vertex 38.6167 70 15.0329
    endloop
  endfacet
  facet normal 0 1 0
    outer loop
      vertex -1 70 5
      vertex 38.6167 70 15.0329
      vertex 38.818 70 14.818
    endloop
  endfacet
  facet normal 0 1 0
    outer loop
      vertex -1 70 5
      vertex 38.818 70 14.818
      vertex 39.0329 70 14.6167
    endloop
  endfacet
  facet normal 0 1 0
    outer loop
      vertex -1 70 5
      vertex 39.0329 70 14.6167
      vertex 39.2606 70 14.4299
    endloop
  endfacet
  facet normal 0 1 0
    outer loop
      vertex -1 70 5
      vertex 39.2606 70 14.4299
      vertex 39.4999 70 14.2584
    endloop
  endfacet
  facet normal 0 1 0
    outer loop
      vertex -1 70 5
      vertex 39.4999 70 14.2584
      vertex 39.75 70 14.1029
    endloop
  endfacet
  facet normal 0 1 0
    outer loop
      vertex -1 70 5
      vertex 39.75 70 14.1029
      vertex 40.0097 70 13.9641
    endloop
  endfacet
  facet normal 0 1 0
    outer loop
      vertex -1 70 5
      vertex 40.0097 70 13.9641
      vertex 40.2779 70 13.8425
    endloop
  endfacet
  facet normal 0 1 0
    outer loop
      vertex -1 70 5
      vertex 40.2779 70 13.8425
      vertex 40.5535 70 13.7388
    endloop
  endfacet
  facet normal 0 1 0
    outer loop
      vertex 60 70 0
      vertex 40.5535 70 13.7388
      vertex 40.8353 70 13.6533
    endloop
  endfacet
  facet normal 0 1 0
    outer loop
      vertex 60 70 0
      vertex 40.8353 70 13.6533
      vertex 41.1221 70 13.5865
    endloop
  endfacet
  facet normal 0 1 0
    outer loop
      vertex 60 70 0
      vertex 41.1221 70 13.5865
      vertex 41.4126 70 13.5385
    endloop
  endfacet
  facet normal 0 1 0
    outer loop
      vertex 12 70 27
      vertex -1 70 5
      vertex -1 70 18
    endloop
  endfacet
  facet normal 0 1 0
    outer loop
      vertex 60 70 0
      vertex 41.4126 70 13.5385
      vertex 41.7057 70 13.5096
    endloop
  endfacet
  facet normal 0 1 0
    outer loop
      vertex 60 70 0
      vertex 41.7057 70 13.5096
      vertex 42 70 13.5
    endloop
  endfacet
  facet normal 0 1 0
    outer loop
      vertex 12 70 35
      vertex 60 70 42
      vertex 36 70 35
    endloop
  endfacet
  facet normal 0 1 -0
    outer loop
      vertex 43.7221 70 22.1575
      vertex 36 70 35
      vertex 60 70 42
    endloop
  endfacet
  facet normal 0 1 -0
    outer loop
      vertex 41.7057 70 22.4904
      vertex 36 70 27
      vertex 42 70 22.5
    endloop
  endfacet
  facet normal -0 1 -0
    outer loop
      vertex 42.8779 70 22.4135
      vertex 36 70 35
      vertex 43.1647 70 22.3467
    endloop
  endfacet
  facet normal 0 1 0
    outer loop
      vertex 36 70 27
      vertex 42.2943 70 22.4904
      vertex 42 70 22.5
    endloop
  endfacet
  facet normal 0 1 0
    outer loop
      vertex 36 70 27
      vertex 42.5874 70 22.4615
      vertex 42.2943 70 22.4904
    endloop
  endfacet
  facet normal 0 1 0
    outer loop
      vertex 36 70 35
      vertex 42.5874 70 22.4615
      vertex 36 70 27
    endloop
  endfacet
  facet normal -0 1 -0
    outer loop
      vertex 42.5874 70 22.4615
      vertex 36 70 35
      vertex 42.8779 70 22.4135
    endloop
  endfacet
  facet normal 0 1 0
    outer loop
      vertex 36 70 35
      vertex 43.4465 70 22.2612
      vertex 43.1647 70 22.3467
    endloop
  endfacet
  facet normal 0 1 0
    outer loop
      vertex 36 70 35
      vertex 43.7221 70 22.1575
      vertex 43.4465 70 22.2612
    endloop
  endfacet
  facet normal 0 1 0
    outer loop
      vertex 60 70 42
      vertex 43.9903 70 22.0359
      vertex 43.7221 70 22.1575
    endloop
  endfacet
  facet normal 0 1 0
    outer loop
      vertex 60 70 42
      vertex 44.25 70 21.8971
      vertex 43.9903 70 22.0359
    endloop
  endfacet
  facet normal 0 1 0
    outer loop
      vertex 60 70 42
      vertex 44.5001 70 21.7416
      vertex 44.25 70 21.8971
    endloop
  endfacet
  facet normal 0 1 0
    outer loop
      vertex 60 70 42
      vertex 44.7394 70 21.5701
      vertex 44.5001 70 21.7416
    endloop
  endfacet
  facet normal 0 1 0
    outer loop
      vertex 60 70 42
      vertex 44.9671 70 21.3833
      vertex 44.7394 70 21.5701
    endloop
  endfacet
  facet normal 0 1 0
    outer loop
      vertex 60 70 42
      vertex 45.182 70 21.182
      vertex 44.9671 70 21.3833
    endloop
  endfacet
  facet normal 0 1 0
    outer loop
      vertex 60 70 42
      vertex 45.3833 70 20.9671
      vertex 45.182 70 21.182
    endloop
  endfacet
  facet normal 0 1 0
    outer loop
      vertex 60 70 42
      vertex 45.5701 70 20.7394
      vertex 45.3833 70 20.9671
    endloop
  endfacet
  facet normal 0 1 0
    outer loop
      vertex 60 70 42
      vertex 45.7416 70 20.5001
      vertex 45.5701 70 20.7394
    endloop
  endfacet
  facet normal 0 1 0
    outer loop
      vertex 60 70 42
      vertex 45.8971 70 20.25
      vertex 45.7416 70 20.5001
    endloop
  endfacet
  facet normal 0 1 0
    outer loop
      vertex 60 70 42
      vertex 46.0359 70 19.9903
      vertex 45.8971 70 20.25
    endloop
  endfacet
  facet normal 0 1 0
    outer loop
      vertex 60 70 42
      vertex 46.1575 70 19.7221
      vertex 46.0359 70 19.9903
    endloop
  endfacet
  facet normal 0 1 0
    outer loop
      vertex 60 70 42
      vertex 46.2612 70 19.4465
      vertex 46.1575 70 19.7221
    endloop
  endfacet
  facet normal 0 1 0
    outer loop
      vertex 60 70 42
      vertex 46.3467 70 19.1647
      vertex 46.2612 70 19.4465
    endloop
  endfacet
  facet normal 0 1 0
    outer loop
      vertex 60 70 42
      vertex 46.4135 70 18.8779
      vertex 46.3467 70 19.1647
    endloop
  endfacet
  facet normal 0 1 0
    outer loop
      vertex 60 70 42
      vertex 46.4615 70 18.5874
      vertex 46.4135 70 18.8779
    endloop
  endfacet
  facet normal 0 1 -0
    outer loop
      vertex 60 70 0
      vertex 46.4615 70 18.5874
      vertex 60 70 42
    endloop
  endfacet
  facet normal 0 1 0
    outer loop
      vertex 46.4615 70 18.5874
      vertex 60 70 0
      vertex 46.4904 70 18.2943
    endloop
  endfacet
  facet normal 0 1 0
    outer loop
      vertex 46.4904 70 18.2943
      vertex 60 70 0
      vertex 46.5 70 18
    endloop
  endfacet
  facet normal 0 1 0
    outer loop
      vertex 46.5 70 18
      vertex 60 70 0
      vertex 46.4904 70 17.7057
    endloop
  endfacet
  facet normal 0 1 0
    outer loop
      vertex 46.4904 70 17.7057
      vertex 60 70 0
      vertex 46.4615 70 17.4126
    endloop
  endfacet
  facet normal 0 1 0
    outer loop
      vertex 46.4615 70 17.4126
      vertex 60 70 0
      vertex 46.4135 70 17.1221
    endloop
  endfacet
  facet normal 0 1 0
    outer loop
      vertex 46.4135 70 17.1221
      vertex 60 70 0
      vertex 46.3467 70 16.8353
    endloop
  endfacet
  facet normal 0 1 0
    outer loop
      vertex 46.3467 70 16.8353
      vertex 60 70 0
      vertex 46.2612 70 16.5535
    endloop
  endfacet
  facet normal 0 1 0
    outer loop
      vertex 46.2612 70 16.5535
      vertex 60 70 0
      vertex 46.1575 70 16.2779
    endloop
  endfacet
  facet normal 0 1 0
    outer loop
      vertex 46.1575 70 16.2779
      vertex 60 70 0
      vertex 46.0359 70 16.0097
    endloop
  endfacet
  facet normal 0 1 0
    outer loop
      vertex 60 70 0
      vertex 42 70 13.5
      vertex 42.2943 70 13.5096
    endloop
  endfacet
  facet normal 0 1 0
    outer loop
      vertex 60 70 0
      vertex 42.2943 70 13.5096
      vertex 42.5874 70 13.5385
    endloop
  endfacet
  facet normal 0 1 0
    outer loop
      vertex 60 70 0
      vertex 42.5874 70 13.5385
      vertex 42.8779 70 13.5865
    endloop
  endfacet
  facet normal 0 1 0
    outer loop
      vertex -60 70 0
      vertex -1 70 5
      vertex 60 70 0
    endloop
  endfacet
  facet normal 0 1 0
    outer loop
      vertex 40.5535 70 13.7388
      vertex 60 70 0
      vertex -1 70 5
    endloop
  endfacet
  facet normal 0 1 0
    outer loop
      vertex 43.1647 70 13.6533
      vertex 60 70 0
      vertex 42.8779 70 13.5865
    endloop
  endfacet
  facet normal 0 1 0
    outer loop
      vertex 43.4465 70 13.7388
      vertex 60 70 0
      vertex 43.1647 70 13.6533
    endloop
  endfacet
  facet normal 0 1 0
    outer loop
      vertex 43.7221 70 13.8425
      vertex 60 70 0
      vertex 43.4465 70 13.7388
    endloop
  endfacet
  facet normal 0 1 0
    outer loop
      vertex 43.9903 70 13.9641
      vertex 60 70 0
      vertex 43.7221 70 13.8425
    endloop
  endfacet
  facet normal 0 1 0
    outer loop
      vertex 44.25 70 14.1029
      vertex 60 70 0
      vertex 43.9903 70 13.9641
    endloop
  endfacet
  facet normal 0 1 0
    outer loop
      vertex 44.5001 70 14.2584
      vertex 60 70 0
      vertex 44.25 70 14.1029
    endloop
  endfacet
  facet normal 0 1 0
    outer loop
      vertex 44.7394 70 14.4299
      vertex 60 70 0
      vertex 44.5001 70 14.2584
    endloop
  endfacet
  facet normal 0 1 0
    outer loop
      vertex 44.9671 70 14.6167
      vertex 60 70 0
      vertex 44.7394 70 14.4299
    endloop
  endfacet
  facet normal 0 1 0
    outer loop
      vertex 45.182 70 14.818
      vertex 60 70 0
      vertex 44.9671 70 14.6167
    endloop
  endfacet
  facet normal 0 1 0
    outer loop
      vertex 45.3833 70 15.0329
      vertex 60 70 0
      vertex 45.182 70 14.818
    endloop
  endfacet
  facet normal 0 1 0
    outer loop
      vertex 45.5701 70 15.2606
      vertex 60 70 0
      vertex 45.3833 70 15.0329
    endloop
  endfacet
  facet normal 0 1 0
    outer loop
      vertex 45.7416 70 15.4999
      vertex 60 70 0
      vertex 45.5701 70 15.2606
    endloop
  endfacet
  facet normal 0 1 0
    outer loop
      vertex 45.8971 70 15.75
      vertex 60 70 0
      vertex 45.7416 70 15.4999
    endloop
  endfacet
  facet normal 0 1 0
    outer loop
      vertex 46.0359 70 16.0097
      vertex 60 70 0
      vertex 45.8971 70 15.75
    endloop
  endfacet
  facet normal 0 1 0
    outer loop
      vertex 60 70 42
      vertex 12 70 35
      vertex -60 70 42
    endloop
  endfacet
  facet normal 0 1 0
    outer loop
      vertex -1 70 18
      vertex 12 70 35
      vertex 12 70 27
    endloop
  endfacet
  facet normal 0 1 -0
    outer loop
      vertex 41.4126 70 22.4615
      vertex 36 70 27
      vertex 41.7057 70 22.4904
    endloop
  endfacet
  facet normal 0 1 -0
    outer loop
      vertex 41.1221 70 22.4135
      vertex 36 70 27
      vertex 41.4126 70 22.4615
    endloop
  endfacet
  facet normal 0 1 -0
    outer loop
      vertex 40.8353 70 22.3467
      vertex 36 70 27
      vertex 41.1221 70 22.4135
    endloop
  endfacet
  facet normal 0 1 -0
    outer loop
      vertex 40.5535 70 22.2612
      vertex 36 70 27
      vertex 40.8353 70 22.3467
    endloop
  endfacet
  facet normal 0 1 -0
    outer loop
      vertex 40.2779 70 22.1575
      vertex 36 70 27
      vertex 40.5535 70 22.2612
    endloop
  endfacet
  facet normal 0 1 -0
    outer loop
      vertex 40.0097 70 22.0359
      vertex 36 70 27
      vertex 40.2779 70 22.1575
    endloop
  endfacet
  facet normal 0 1 -0
    outer loop
      vertex 39.75 70 21.8971
      vertex 36 70 27
      vertex 40.0097 70 22.0359
    endloop
  endfacet
  facet normal 0 1 -0
    outer loop
      vertex 39.4999 70 21.7416
      vertex 36 70 27
      vertex 39.75 70 21.8971
    endloop
  endfacet
  facet normal 0 1 -0
    outer loop
      vertex 39.2606 70 21.5701
      vertex 36 70 27
      vertex 39.4999 70 21.7416
    endloop
  endfacet
  facet normal 0 1 -0
    outer loop
      vertex 39.0329 70 21.3833
      vertex 36 70 27
      vertex 39.2606 70 21.5701
    endloop
  endfacet
  facet normal 0 1 -0
    outer loop
      vertex 38.818 70 21.182
      vertex 36 70 27
      vertex 39.0329 70 21.3833
    endloop
  endfacet
  facet normal 0 1 -0
    outer loop
      vertex 38.6167 70 20.9671
      vertex 36 70 27
      vertex 38.818 70 21.182
    endloop
  endfacet
  facet normal 0 1 -0
    outer loop
      vertex 38.4299 70 20.7394
      vertex 36 70 27
      vertex 38.6167 70 20.9671
    endloop
  endfacet
  facet normal 0 1 -0
    outer loop
      vertex 38.2584 70 20.5001
      vertex 36 70 27
      vertex 38.4299 70 20.7394
    endloop
  endfacet
  facet normal 0 1 -0
    outer loop
      vertex 38.1029 70 20.25
      vertex 36 70 27
      vertex 38.2584 70 20.5001
    endloop
  endfacet
  facet normal 0 1 -0
    outer loop
      vertex 37.9641 70 19.9903
      vertex 36 70 27
      vertex 38.1029 70 20.25
    endloop
  endfacet
  facet normal 0 1 -0
    outer loop
      vertex 37.8425 70 19.7221
      vertex 36 70 27
      vertex 37.9641 70 19.9903
    endloop
  endfacet
  facet normal 0 1 -0
    outer loop
      vertex 37.7388 70 19.4465
      vertex 36 70 27
      vertex 37.8425 70 19.7221
    endloop
  endfacet
  facet normal 0 1 -0
    outer loop
      vertex 37.6533 70 19.1647
      vertex 36 70 27
      vertex 37.7388 70 19.4465
    endloop
  endfacet
  facet normal 0 1 -0
    outer loop
      vertex 37.5865 70 18.8779
      vertex 36 70 27
      vertex 37.6533 70 19.1647
    endloop
  endfacet
  facet normal 0 1 -0
    outer loop
      vertex 37.5385 70 18.5874
      vertex 36 70 27
      vertex 37.5865 70 18.8779
    endloop
  endfacet
  facet normal 0 1 0
    outer loop
      vertex 36 70 27
      vertex 37.5385 70 18.5874
      vertex 12 70 27
    endloop
  endfacet
  facet normal 0 1 -0
    outer loop
      vertex 37.5096 70 18.2943
      vertex 12 70 27
      vertex 37.5385 70 18.5874
    endloop
  endfacet
  facet normal 0 1 -0
    outer loop
      vertex 37.5 70 18
      vertex 12 70 27
      vertex 37.5096 70 18.2943
    endloop
  endfacet
  facet normal 0 1 0
    outer loop
      vertex 37.5096 70 17.7057
      vertex 12 70 27
      vertex 37.5 70 18
    endloop
  endfacet
  facet normal 0 1 0
    outer loop
      vertex 12 70 35
      vertex -1 70 18
      vertex -60 70 42
    endloop
  endfacet
  facet normal 0 1 -0
    outer loop
      vertex -47 70 18
      vertex -60 70 42
      vertex -1 70 18
    endloop
  endfacet
  facet normal 0 1 0
    outer loop
      vertex -60 70 0
      vertex -47 70 18
      vertex -47 70 5
    endloop
  endfacet
  facet normal 0 1 0
    outer loop
      vertex -47 70 18
      vertex -60 70 0
      vertex -60 70 42
    endloop
  endfacet
  facet normal 0 1 0
    outer loop
      vertex -1 70 5
      vertex -60 70 0
      vertex -47 70 5
    endloop
  endfacet
  facet normal 0 -1 0
    outer loop
      vertex -60 0 0
      vertex 60 0 2
      vertex -60 0 2
    endloop
  endfacet
  facet normal 0 -1 -0
    outer loop
      vertex 60 0 2
      vertex -60 0 0
      vertex 60 0 0
    endloop
  endfacet
  facet normal -0 0 1
    outer loop
      vertex -60 70 42
      vertex 60 65 42
      vertex 60 70 42
    endloop
  endfacet
  facet normal 0 0 1
    outer loop
      vertex 60 65 42
      vertex -60 70 42
      vertex -60 65 42
    endloop
  endfacet
  facet normal 0 -1 0
    outer loop
      vertex -60 65 42
      vertex 12 65 35
      vertex 60 65 42
    endloop
  endfacet
  facet normal 0 -1 0
    outer loop
      vertex -1 65 18
      vertex 12 65 35
      vertex -60 65 42
    endloop
  endfacet
  facet normal 0 -1 0
    outer loop
      vertex 37.5385 65 18.5874
      vertex 36 65 27
      vertex 12 65 27
    endloop
  endfacet
  facet normal 0 -1 0
    outer loop
      vertex 36 65 27
      vertex 41.7057 65 22.4904
      vertex 42 65 22.5
    endloop
  endfacet
  facet normal 0 -1 0
    outer loop
      vertex 36 65 27
      vertex 41.4126 65 22.4615
      vertex 41.7057 65 22.4904
    endloop
  endfacet
  facet normal 0 -1 0
    outer loop
      vertex 36 65 27
      vertex 41.1221 65 22.4135
      vertex 41.4126 65 22.4615
    endloop
  endfacet
  facet normal 0 -1 0
    outer loop
      vertex 36 65 27
      vertex 40.8353 65 22.3467
      vertex 41.1221 65 22.4135
    endloop
  endfacet
  facet normal 0 -1 0
    outer loop
      vertex 36 65 27
      vertex 40.5535 65 22.2612
      vertex 40.8353 65 22.3467
    endloop
  endfacet
  facet normal 0 -1 0
    outer loop
      vertex 36 65 27
      vertex 40.2779 65 22.1575
      vertex 40.5535 65 22.2612
    endloop
  endfacet
  facet normal 0 -1 0
    outer loop
      vertex 36 65 27
      vertex 40.0097 65 22.0359
      vertex 40.2779 65 22.1575
    endloop
  endfacet
  facet normal 0 -1 0
    outer loop
      vertex 36 65 27
      vertex 39.75 65 21.8971
      vertex 40.0097 65 22.0359
    endloop
  endfacet
  facet normal 0 -1 0
    outer loop
      vertex 36 65 27
      vertex 39.4999 65 21.7416
      vertex 39.75 65 21.8971
    endloop
  endfacet
  facet normal 0 -1 0
    outer loop
      vertex 36 65 27
      vertex 39.2606 65 21.5701
      vertex 39.4999 65 21.7416
    endloop
  endfacet
  facet normal 0 -1 0
    outer loop
      vertex 36 65 27
      vertex 39.0329 65 21.3833
      vertex 39.2606 65 21.5701
    endloop
  endfacet
  facet normal 0 -1 0
    outer loop
      vertex 36 65 27
      vertex 38.818 65 21.182
      vertex 39.0329 65 21.3833
    endloop
  endfacet
  facet normal 0 -1 -0
    outer loop
      vertex 12 65 35
      vertex -1 65 18
      vertex 12 65 27
    endloop
  endfacet
  facet normal 0 -1 0
    outer loop
      vertex -1 65 5
      vertex 12 65 27
      vertex -1 65 18
    endloop
  endfacet
  facet normal 0 -1 0
    outer loop
      vertex 36 65 27
      vertex 38.6167 65 20.9671
      vertex 38.818 65 21.182
    endloop
  endfacet
  facet normal 0 -1 0
    outer loop
      vertex 36 65 27
      vertex 38.4299 65 20.7394
      vertex 38.6167 65 20.9671
    endloop
  endfacet
  facet normal 0 -1 0
    outer loop
      vertex 36 65 27
      vertex 38.2584 65 20.5001
      vertex 38.4299 65 20.7394
    endloop
  endfacet
  facet normal 0 -1 0
    outer loop
      vertex 36 65 27
      vertex 38.1029 65 20.25
      vertex 38.2584 65 20.5001
    endloop
  endfacet
  facet normal 0 -1 0
    outer loop
      vertex 36 65 27
      vertex 37.9641 65 19.9903
      vertex 38.1029 65 20.25
    endloop
  endfacet
  facet normal 0 -1 0
    outer loop
      vertex 36 65 27
      vertex 37.8425 65 19.7221
      vertex 37.9641 65 19.9903
    endloop
  endfacet
  facet normal 0 -1 0
    outer loop
      vertex 36 65 27
      vertex 37.7388 65 19.4465
      vertex 37.8425 65 19.7221
    endloop
  endfacet
  facet normal 0 -1 0
    outer loop
      vertex 36 65 27
      vertex 37.6533 65 19.1647
      vertex 37.7388 65 19.4465
    endloop
  endfacet
  facet normal 0 -1 0
    outer loop
      vertex 36 65 27
      vertex 37.5865 65 18.8779
      vertex 37.6533 65 19.1647
    endloop
  endfacet
  facet normal 0 -1 0
    outer loop
      vertex 36 65 27
      vertex 37.5385 65 18.5874
      vertex 37.5865 65 18.8779
    endloop
  endfacet
  facet normal 0 -1 0
    outer loop
      vertex -1 65 18
      vertex -60 65 42
      vertex -47 65 18
    endloop
  endfacet
  facet normal 0 -1 0
    outer loop
      vertex -60 65 2
      vertex -47 65 18
      vertex -60 65 42
    endloop
  endfacet
  facet normal 0 -1 -0
    outer loop
      vertex -47 65 5
      vertex -60 65 2
      vertex -1 65 5
    endloop
  endfacet
  facet normal 0 -1 -0
    outer loop
      vertex -47 65 18
      vertex -60 65 2
      vertex -47 65 5
    endloop
  endfacet
  facet normal 0 -1 0
    outer loop
      vertex 36 65 35
      vertex 60 65 42
      vertex 12 65 35
    endloop
  endfacet
  facet normal 0 -1 0
    outer loop
      vertex 42.5874 65 22.4615
      vertex 36 65 35
      vertex 36 65 27
    endloop
  endfacet
  facet normal 0 -1 0
    outer loop
      vertex 42.2943 65 22.4904
      vertex 36 65 27
      vertex 42 65 22.5
    endloop
  endfacet
  facet normal 0 -1 0
    outer loop
      vertex 42.5874 65 22.4615
      vertex 36 65 27
      vertex 42.2943 65 22.4904
    endloop
  endfacet
  facet normal 0 -1 0
    outer loop
      vertex 36 65 35
      vertex 42.5874 65 22.4615
      vertex 42.8779 65 22.4135
    endloop
  endfacet
  facet normal 0 -1 0
    outer loop
      vertex 36 65 35
      vertex 42.8779 65 22.4135
      vertex 43.1647 65 22.3467
    endloop
  endfacet
  facet normal 0 -1 0
    outer loop
      vertex 43.4465 65 22.2612
      vertex 36 65 35
      vertex 43.1647 65 22.3467
    endloop
  endfacet
  facet normal 0 -1 0
    outer loop
      vertex 43.7221 65 22.1575
      vertex 36 65 35
      vertex 43.4465 65 22.2612
    endloop
  endfacet
  facet normal 0 -1 0
    outer loop
      vertex 36 65 35
      vertex 43.7221 65 22.1575
      vertex 60 65 42
    endloop
  endfacet
  facet normal 0 -1 0
    outer loop
      vertex 43.9903 65 22.0359
      vertex 60 65 42
      vertex 43.7221 65 22.1575
    endloop
  endfacet
  facet normal 0 -1 0
    outer loop
      vertex 44.25 65 21.8971
      vertex 60 65 42
      vertex 43.9903 65 22.0359
    endloop
  endfacet
  facet normal 0 -1 0
    outer loop
      vertex 44.5001 65 21.7416
      vertex 60 65 42
      vertex 44.25 65 21.8971
    endloop
  endfacet
  facet normal 0 -1 0
    outer loop
      vertex 44.7394 65 21.5701
      vertex 60 65 42
      vertex 44.5001 65 21.7416
    endloop
  endfacet
  facet normal 0 -1 0
    outer loop
      vertex 44.9671 65 21.3833
      vertex 60 65 42
      vertex 44.7394 65 21.5701
    endloop
  endfacet
  facet normal 0 -1 0
    outer loop
      vertex 45.182 65 21.182
      vertex 60 65 42
      vertex 44.9671 65 21.3833
    endloop
  endfacet
  facet normal 0 -1 0
    outer loop
      vertex 45.3833 65 20.9671
      vertex 60 65 42
      vertex 45.182 65 21.182
    endloop
  endfacet
  facet normal 0 -1 0
    outer loop
      vertex 45.5701 65 20.7394
      vertex 60 65 42
      vertex 45.3833 65 20.9671
    endloop
  endfacet
  facet normal 0 -1 0
    outer loop
      vertex 45.7416 65 20.5001
      vertex 60 65 42
      vertex 45.5701 65 20.7394
    endloop
  endfacet
  facet normal 0 -1 0
    outer loop
      vertex 45.8971 65 20.25
      vertex 60 65 42
      vertex 45.7416 65 20.5001
    endloop
  endfacet
  facet normal 0 -1 0
    outer loop
      vertex 46.0359 65 19.9903
      vertex 60 65 42
      vertex 45.8971 65 20.25
    endloop
  endfacet
  facet normal 0 -1 0
    outer loop
      vertex 46.1575 65 19.7221
      vertex 60 65 42
      vertex 46.0359 65 19.9903
    endloop
  endfacet
  facet normal 0 -1 0
    outer loop
      vertex 46.2612 65 19.4465
      vertex 60 65 42
      vertex 46.1575 65 19.7221
    endloop
  endfacet
  facet normal 0 -1 0
    outer loop
      vertex 46.3467 65 19.1647
      vertex 60 65 42
      vertex 46.2612 65 19.4465
    endloop
  endfacet
  facet normal 0 -1 0
    outer loop
      vertex 46.4135 65 18.8779
      vertex 60 65 42
      vertex 46.3467 65 19.1647
    endloop
  endfacet
  facet normal 0 -1 0
    outer loop
      vertex 46.4615 65 18.5874
      vertex 60 65 42
      vertex 46.4135 65 18.8779
    endloop
  endfacet
  facet normal 0 -1 0
    outer loop
      vertex 60 65 2
      vertex 46.4615 65 18.5874
      vertex 46.4904 65 18.2943
    endloop
  endfacet
  facet normal 0 -1 0
    outer loop
      vertex 60 65 2
      vertex 46.4904 65 18.2943
      vertex 46.5 65 18
    endloop
  endfacet
  facet normal 0 -1 0
    outer loop
      vertex 60 65 2
      vertex 46.5 65 18
      vertex 46.4904 65 17.7057
    endloop
  endfacet
  facet normal 0 -1 0
    outer loop
      vertex 60 65 2
      vertex 46.4904 65 17.7057
      vertex 46.4615 65 17.4126
    endloop
  endfacet
  facet normal 0 -1 0
    outer loop
      vertex 60 65 2
      vertex 46.4615 65 17.4126
      vertex 46.4135 65 17.1221
    endloop
  endfacet
  facet normal 0 -1 0
    outer loop
      vertex 60 65 2
      vertex 46.4135 65 17.1221
      vertex 46.3467 65 16.8353
    endloop
  endfacet
  facet normal 0 -1 0
    outer loop
      vertex 60 65 2
      vertex 46.3467 65 16.8353
      vertex 46.2612 65 16.5535
    endloop
  endfacet
  facet normal 0 -1 0
    outer loop
      vertex 60 65 2
      vertex 46.2612 65 16.5535
      vertex 46.1575 65 16.2779
    endloop
  endfacet
  facet normal 0 -1 0
    outer loop
      vertex 60 65 2
      vertex 46.1575 65 16.2779
      vertex 46.0359 65 16.0097
    endloop
  endfacet
  facet normal 0 -1 0
    outer loop
      vertex 60 65 2
      vertex 46.0359 65 16.0097
      vertex 45.8971 65 15.75
    endloop
  endfacet
  facet normal 0 -1 0
    outer loop
      vertex 41.7057 65 13.5096
      vertex 60 65 2
      vertex 42 65 13.5
    endloop
  endfacet
  facet normal 0 -1 0
    outer loop
      vertex 42 65 13.5
      vertex 60 65 2
      vertex 42.2943 65 13.5096
    endloop
  endfacet
  facet normal 0 -1 0
    outer loop
      vertex 42.2943 65 13.5096
      vertex 60 65 2
      vertex 42.5874 65 13.5385
    endloop
  endfacet
  facet normal 0 -1 0
    outer loop
      vertex 46.4615 65 18.5874
      vertex 60 65 2
      vertex 60 65 42
    endloop
  endfacet
  facet normal 0 -1 0
    outer loop
      vertex 45.7416 65 15.4999
      vertex 60 65 2
      vertex 45.8971 65 15.75
    endloop
  endfacet
  facet normal 0 -1 0
    outer loop
      vertex 45.5701 65 15.2606
      vertex 60 65 2
      vertex 45.7416 65 15.4999
    endloop
  endfacet
  facet normal 0 -1 0
    outer loop
      vertex 45.3833 65 15.0329
      vertex 60 65 2
      vertex 45.5701 65 15.2606
    endloop
  endfacet
  facet normal 0 -1 0
    outer loop
      vertex 45.182 65 14.818
      vertex 60 65 2
      vertex 45.3833 65 15.0329
    endloop
  endfacet
  facet normal 0 -1 0
    outer loop
      vertex 44.9671 65 14.6167
      vertex 60 65 2
      vertex 45.182 65 14.818
    endloop
  endfacet
  facet normal 0 -1 0
    outer loop
      vertex 44.7394 65 14.4299
      vertex 60 65 2
      vertex 44.9671 65 14.6167
    endloop
  endfacet
  facet normal 0 -1 0
    outer loop
      vertex 44.5001 65 14.2584
      vertex 60 65 2
      vertex 44.7394 65 14.4299
    endloop
  endfacet
  facet normal 0 -1 0
    outer loop
      vertex 44.25 65 14.1029
      vertex 60 65 2
      vertex 44.5001 65 14.2584
    endloop
  endfacet
  facet normal 0 -1 0
    outer loop
      vertex 43.9903 65 13.9641
      vertex 60 65 2
      vertex 44.25 65 14.1029
    endloop
  endfacet
  facet normal 0 -1 0
    outer loop
      vertex 43.7221 65 13.8425
      vertex 60 65 2
      vertex 43.9903 65 13.9641
    endloop
  endfacet
  facet normal 0 -1 0
    outer loop
      vertex 43.4465 65 13.7388
      vertex 60 65 2
      vertex 43.7221 65 13.8425
    endloop
  endfacet
  facet normal 0 -1 0
    outer loop
      vertex 43.1647 65 13.6533
      vertex 60 65 2
      vertex 43.4465 65 13.7388
    endloop
  endfacet
  facet normal 0 -1 0
    outer loop
      vertex 42.8779 65 13.5865
      vertex 60 65 2
      vertex 43.1647 65 13.6533
    endloop
  endfacet
  facet normal 0 -1 0
    outer loop
      vertex 42.5874 65 13.5385
      vertex 60 65 2
      vertex 42.8779 65 13.5865
    endloop
  endfacet
  facet normal 0 -1 0
    outer loop
      vertex 60 65 2
      vertex -1 65 5
      vertex -60 65 2
    endloop
  endfacet
  facet normal 0 -1 0
    outer loop
      vertex 12 65 27
      vertex 37.5096 65 18.2943
      vertex 37.5385 65 18.5874
    endloop
  endfacet
  facet normal 0 -1 0
    outer loop
      vertex 12 65 27
      vertex 37.5 65 18
      vertex 37.5096 65 18.2943
    endloop
  endfacet
  facet normal 0 -1 0
    outer loop
      vertex 12 65 27
      vertex 37.5096 65 17.7057
      vertex 37.5 65 18
    endloop
  endfacet
  facet normal 0 -1 0
    outer loop
      vertex 12 65 27
      vertex 37.5385 65 17.4126
      vertex 37.5096 65 17.7057
    endloop
  endfacet
  facet normal 0 -1 0
    outer loop
      vertex 12 65 27
      vertex 37.5865 65 17.1221
      vertex 37.5385 65 17.4126
    endloop
  endfacet
  facet normal 0 -1 0
    outer loop
      vertex 12 65 27
      vertex 37.6533 65 16.8353
      vertex 37.5865 65 17.1221
    endloop
  endfacet
  facet normal -0 -1 0
    outer loop
      vertex 37.8425 65 16.2779
      vertex 12 65 27
      vertex -1 65 5
    endloop
  endfacet
  facet normal 0 -1 0
    outer loop
      vertex 12 65 27
      vertex 37.7388 65 16.5535
      vertex 37.6533 65 16.8353
    endloop
  endfacet
  facet normal 0 -1 0
    outer loop
      vertex 12 65 27
      vertex 37.8425 65 16.2779
      vertex 37.7388 65 16.5535
    endloop
  endfacet
  facet normal 0 -1 -0
    outer loop
      vertex 37.8425 65 16.2779
      vertex -1 65 5
      vertex 37.9641 65 16.0097
    endloop
  endfacet
  facet normal 0 -1 -0
    outer loop
      vertex 37.9641 65 16.0097
      vertex -1 65 5
      vertex 38.1029 65 15.75
    endloop
  endfacet
  facet normal 0 -1 -0
    outer loop
      vertex 38.1029 65 15.75
      vertex -1 65 5
      vertex 38.2584 65 15.4999
    endloop
  endfacet
  facet normal 0 -1 -0
    outer loop
      vertex 38.2584 65 15.4999
      vertex -1 65 5
      vertex 38.4299 65 15.2606
    endloop
  endfacet
  facet normal 0 -1 -0
    outer loop
      vertex 38.4299 65 15.2606
      vertex -1 65 5
      vertex 38.6167 65 15.0329
    endloop
  endfacet
  facet normal 0 -1 -0
    outer loop
      vertex 38.6167 65 15.0329
      vertex -1 65 5
      vertex 38.818 65 14.818
    endloop
  endfacet
  facet normal 0 -1 -0
    outer loop
      vertex 38.818 65 14.818
      vertex -1 65 5
      vertex 39.0329 65 14.6167
    endloop
  endfacet
  facet normal 0 -1 -0
    outer loop
      vertex 39.0329 65 14.6167
      vertex -1 65 5
      vertex 39.2606 65 14.4299
    endloop
  endfacet
  facet normal 0 -1 -0
    outer loop
      vertex 39.2606 65 14.4299
      vertex -1 65 5
      vertex 39.4999 65 14.2584
    endloop
  endfacet
  facet normal 0 -1 -0
    outer loop
      vertex 39.4999 65 14.2584
      vertex -1 65 5
      vertex 39.75 65 14.1029
    endloop
  endfacet
  facet normal 0 -1 -0
    outer loop
      vertex 39.75 65 14.1029
      vertex -1 65 5
      vertex 40.0097 65 13.9641
    endloop
  endfacet
  facet normal 0 -1 -0
    outer loop
      vertex 40.0097 65 13.9641
      vertex -1 65 5
      vertex 40.2779 65 13.8425
    endloop
  endfacet
  facet normal 0 -1 -0
    outer loop
      vertex 40.2779 65 13.8425
      vertex -1 65 5
      vertex 40.5535 65 13.7388
    endloop
  endfacet
  facet normal 0 -1 -0
    outer loop
      vertex 40.5535 65 13.7388
      vertex -1 65 5
      vertex 40.8353 65 13.6533
    endloop
  endfacet
  facet normal 0 -1 0
    outer loop
      vertex 60 65 2
      vertex 40.8353 65 13.6533
      vertex -1 65 5
    endloop
  endfacet
  facet normal 0 -1 0
    outer loop
      vertex 41.4126 65 13.5385
      vertex 60 65 2
      vertex 41.7057 65 13.5096
    endloop
  endfacet
  facet normal 0 -1 0
    outer loop
      vertex 41.1221 65 13.5865
      vertex 60 65 2
      vertex 41.4126 65 13.5385
    endloop
  endfacet
  facet normal 0 -1 0
    outer loop
      vertex 40.8353 65 13.6533
      vertex 60 65 2
      vertex 41.1221 65 13.5865
    endloop
  endfacet
  facet normal -1 0 0
    outer loop
      vertex -11 19 0
      vertex -11 41 2
      vertex -11 41 0
    endloop
  endfacet
  facet normal -1 -0 0
    outer loop
      vertex -11 41 2
      vertex -11 19 0
      vertex -11 19 2
    endloop
  endfacet
  facet normal 1 -0 0
    outer loop
      vertex -45 19 2
      vertex -45 41 0
      vertex -45 41 2
    endloop
  endfacet
  facet normal 1 0 0
    outer loop
      vertex -45 41 0
      vertex -45 19 2
      vertex -45 19 0
    endloop
  endfacet
  facet normal 0 -1 0
    outer loop
      vertex -45 41 0
      vertex -11 41 2
      vertex -45 41 2
    endloop
  endfacet
  facet normal 0 -1 -0
    outer loop
      vertex -11 41 2
      vertex -45 41 0
      vertex -11 41 0
    endloop
  endfacet
  facet normal 0 1 -0
    outer loop
      vertex -11 19 0
      vertex -45 19 2
      vertex -11 19 2
    endloop
  endfacet
  facet normal 0 1 0
    outer loop
      vertex -45 19 2
      vertex -11 19 0
      vertex -45 19 0
    endloop
  endfacet
  facet normal -1 0 0
    outer loop
      vertex -1 65 5
      vertex -1 70 18
      vertex -1 70 5
    endloop
  endfacet
  facet normal -1 -0 0
    outer loop
      vertex -1 70 18
      vertex -1 65 5
      vertex -1 65 18
    endloop
  endfacet
  facet normal 0 0 -1
    outer loop
      vertex -47 65 18
      vertex -1 70 18
      vertex -1 65 18
    endloop
  endfacet
  facet normal -0 0 -1
    outer loop
      vertex -1 70 18
      vertex -47 65 18
      vertex -47 70 18
    endloop
  endfacet
  facet normal -0 0 1
    outer loop
      vertex -47 70 5
      vertex -1 65 5
      vertex -1 70 5
    endloop
  endfacet
  facet normal 0 0 1
    outer loop
      vertex -1 65 5
      vertex -47 70 5
      vertex -47 65 5
    endloop
  endfacet
  facet normal 1 -0 0
    outer loop
      vertex -47 65 18
      vertex -47 70 5
      vertex -47 70 18
    endloop
  endfacet
  facet normal 1 0 0
    outer loop
      vertex -47 70 5
      vertex -47 65 18
      vertex -47 65 5
    endloop
  endfacet
  facet normal -1 0 0
    outer loop
      vertex 36 65 27
      vertex 36 70 35
      vertex 36 70 27
    endloop
  endfacet
  facet normal -1 -0 0
    outer loop
      vertex 36 70 35
      vertex 36 65 27
      vertex 36 65 35
    endloop
  endfacet
  facet normal 0 0 -1
    outer loop
      vertex 12 65 35
      vertex 36 70 35
      vertex 36 65 35
    endloop
  endfacet
  facet normal -0 0 -1
    outer loop
      vertex 36 70 35
      vertex 12 65 35
      vertex 12 70 35
    endloop
  endfacet
  facet normal -0 0 1
    outer loop
      vertex 12 70 27
      vertex 36 65 27
      vertex 36 70 27
    endloop
  endfacet
  facet normal 0 0 1
    outer loop
      vertex 36 65 27
      vertex 12 70 27
      vertex 12 65 27
    endloop
  endfacet
  facet normal 1 -0 0
    outer loop
      vertex 12 65 35
      vertex 12 70 27
      vertex 12 70 35
    endloop
  endfacet
  facet normal 1 0 0
    outer loop
      vertex 12 70 27
      vertex 12 65 35
      vertex 12 65 27
    endloop
  endfacet
  facet normal -0.995174 0 -0.0981253
    outer loop
      vertex 46.4904 65 18.2943
      vertex 46.4615 70 18.5874
      vertex 46.4904 70 18.2943
    endloop
  endfacet
  facet normal -0.995174 -0 -0.0981253
    outer loop
      vertex 46.4615 70 18.5874
      vertex 46.4904 65 18.2943
      vertex 46.4615 65 18.5874
    endloop
  endfacet
  facet normal -0.999468 0 -0.0326024
    outer loop
      vertex 46.5 65 18
      vertex 46.4904 70 18.2943
      vertex 46.5 70 18
    endloop
  endfacet
  facet normal -0.999468 -0 -0.0326024
    outer loop
      vertex 46.4904 70 18.2943
      vertex 46.5 65 18
      vertex 46.4904 65 18.2943
    endloop
  endfacet
  facet normal 0.683636 0 0.729823
    outer loop
      vertex 38.818 70 14.818
      vertex 39.0329 65 14.6167
      vertex 39.0329 70 14.6167
    endloop
  endfacet
  facet normal 0.683636 0 0.729823
    outer loop
      vertex 39.0329 65 14.6167
      vertex 38.818 70 14.818
      vertex 38.818 65 14.818
    endloop
  endfacet
  facet normal -0.634254 0 -0.773125
    outer loop
      vertex 44.7394 65 21.5701
      vertex 44.9671 70 21.3833
      vertex 44.9671 65 21.3833
    endloop
  endfacet
  facet normal -0.634254 0 -0.773125
    outer loop
      vertex 44.9671 70 21.3833
      vertex 44.7394 65 21.5701
      vertex 44.7394 70 21.5701
    endloop
  endfacet
  facet normal -0.528014 0 -0.849236
    outer loop
      vertex 44.25 65 21.8971
      vertex 44.5001 70 21.7416
      vertex 44.5001 65 21.7416
    endloop
  endfacet
  facet normal -0.528014 0 -0.849236
    outer loop
      vertex 44.5001 70 21.7416
      vertex 44.25 65 21.8971
      vertex 44.25 70 21.8971
    endloop
  endfacet
  facet normal 0.0326024 0 -0.999468
    outer loop
      vertex 41.7057 65 22.4904
      vertex 42 70 22.5
      vertex 42 65 22.5
    endloop
  endfacet
  facet normal 0.0326024 0 -0.999468
    outer loop
      vertex 42 70 22.5
      vertex 41.7057 65 22.4904
      vertex 41.7057 70 22.4904
    endloop
  endfacet
  facet normal -0.471364 0 -0.881939
    outer loop
      vertex 43.9903 65 22.0359
      vertex 44.25 70 21.8971
      vertex 44.25 65 21.8971
    endloop
  endfacet
  facet normal -0.471364 0 -0.881939
    outer loop
      vertex 44.25 70 21.8971
      vertex 43.9903 65 22.0359
      vertex 43.9903 70 22.0359
    endloop
  endfacet
  facet normal 0.0981253 0 -0.995174
    outer loop
      vertex 41.4126 65 22.4615
      vertex 41.7057 70 22.4904
      vertex 41.7057 65 22.4904
    endloop
  endfacet
  facet normal 0.0981253 0 -0.995174
    outer loop
      vertex 41.7057 70 22.4904
      vertex 41.4126 65 22.4615
      vertex 41.4126 70 22.4615
    endloop
  endfacet
  facet normal 0.634254 0 0.773125
    outer loop
      vertex 39.0329 70 14.6167
      vertex 39.2606 65 14.4299
      vertex 39.2606 70 14.4299
    endloop
  endfacet
  facet normal 0.634254 0 0.773125
    outer loop
      vertex 39.2606 65 14.4299
      vertex 39.0329 70 14.6167
      vertex 39.0329 65 14.6167
    endloop
  endfacet
  facet normal -0.986622 0 -0.163022
    outer loop
      vertex 46.4615 65 18.5874
      vertex 46.4135 70 18.8779
      vertex 46.4615 70 18.5874
    endloop
  endfacet
  facet normal -0.986622 -0 -0.163022
    outer loop
      vertex 46.4135 70 18.8779
      vertex 46.4615 65 18.5874
      vertex 46.4135 65 18.8779
    endloop
  endfacet
  facet normal 0.986622 0 -0.163022
    outer loop
      vertex 37.5865 65 18.8779
      vertex 37.5385 70 18.5874
      vertex 37.5865 70 18.8779
    endloop
  endfacet
  facet normal 0.986622 0 -0.163022
    outer loop
      vertex 37.5385 70 18.5874
      vertex 37.5865 65 18.8779
      vertex 37.5385 65 18.5874
    endloop
  endfacet
  facet normal 0.849236 0 -0.528014
    outer loop
      vertex 38.2584 65 20.5001
      vertex 38.1029 70 20.25
      vertex 38.2584 70 20.5001
    endloop
  endfacet
  facet normal 0.849236 0 -0.528014
    outer loop
      vertex 38.1029 70 20.25
      vertex 38.2584 65 20.5001
      vertex 38.1029 65 20.25
    endloop
  endfacet
  facet normal 0.973931 0 -0.226843
    outer loop
      vertex 37.6533 65 19.1647
      vertex 37.5865 70 18.8779
      vertex 37.6533 70 19.1647
    endloop
  endfacet
  facet normal 0.973931 0 -0.226843
    outer loop
      vertex 37.5865 70 18.8779
      vertex 37.6533 65 19.1647
      vertex 37.5865 65 18.8779
    endloop
  endfacet
  facet normal 0.634254 0 -0.773125
    outer loop
      vertex 39.0329 65 21.3833
      vertex 39.2606 70 21.5701
      vertex 39.2606 65 21.5701
    endloop
  endfacet
  facet normal 0.634254 0 -0.773125
    outer loop
      vertex 39.2606 70 21.5701
      vertex 39.0329 65 21.3833
      vertex 39.0329 70 21.3833
    endloop
  endfacet
  facet normal 0.471364 0 -0.881939
    outer loop
      vertex 39.75 65 21.8971
      vertex 40.0097 70 22.0359
      vertex 40.0097 65 22.0359
    endloop
  endfacet
  facet normal 0.471364 0 -0.881939
    outer loop
      vertex 40.0097 70 22.0359
      vertex 39.75 65 21.8971
      vertex 39.75 70 21.8971
    endloop
  endfacet
  facet normal -0.956924 0 0.290337
    outer loop
      vertex 46.2612 65 16.5535
      vertex 46.3467 70 16.8353
      vertex 46.2612 70 16.5535
    endloop
  endfacet
  facet normal -0.956924 0 0.290337
    outer loop
      vertex 46.3467 70 16.8353
      vertex 46.2612 65 16.5535
      vertex 46.3467 65 16.8353
    endloop
  endfacet
  facet normal -0.163022 0 -0.986622
    outer loop
      vertex 42.5874 65 22.4615
      vertex 42.8779 70 22.4135
      vertex 42.8779 65 22.4135
    endloop
  endfacet
  facet normal -0.163022 0 -0.986622
    outer loop
      vertex 42.8779 70 22.4135
      vertex 42.5874 65 22.4615
      vertex 42.5874 70 22.4615
    endloop
  endfacet
  facet normal -0.935938 0 -0.352165
    outer loop
      vertex 46.2612 65 19.4465
      vertex 46.1575 70 19.7221
      vertex 46.2612 70 19.4465
    endloop
  endfacet
  facet normal -0.935938 -0 -0.352165
    outer loop
      vertex 46.1575 70 19.7221
      vertex 46.2612 65 19.4465
      vertex 46.1575 65 19.7221
    endloop
  endfacet
  facet normal -0.226843 0 0.973931
    outer loop
      vertex 42.8779 70 13.5865
      vertex 43.1647 65 13.6533
      vertex 43.1647 70 13.6533
    endloop
  endfacet
  facet normal -0.226843 0 0.973931
    outer loop
      vertex 43.1647 65 13.6533
      vertex 42.8779 70 13.5865
      vertex 42.8779 65 13.5865
    endloop
  endfacet
  facet normal 0.729823 0 -0.683636
    outer loop
      vertex 38.818 65 21.182
      vertex 38.6167 70 20.9671
      vertex 38.818 70 21.182
    endloop
  endfacet
  facet normal 0.729823 0 -0.683636
    outer loop
      vertex 38.6167 70 20.9671
      vertex 38.818 65 21.182
      vertex 38.6167 65 20.9671
    endloop
  endfacet
  facet normal 0.226843 0 0.973931
    outer loop
      vertex 40.8353 70 13.6533
      vertex 41.1221 65 13.5865
      vertex 41.1221 70 13.5865
    endloop
  endfacet
  facet normal 0.226843 0 0.973931
    outer loop
      vertex 41.1221 65 13.5865
      vertex 40.8353 70 13.6533
      vertex 40.8353 65 13.6533
    endloop
  endfacet
  facet normal 0.973931 -0 0.226843
    outer loop
      vertex 37.5865 65 17.1221
      vertex 37.6533 70 16.8353
      vertex 37.5865 70 17.1221
    endloop
  endfacet
  facet normal 0.973931 0 0.226843
    outer loop
      vertex 37.6533 70 16.8353
      vertex 37.5865 65 17.1221
      vertex 37.6533 65 16.8353
    endloop
  endfacet
  facet normal -0.849236 0 0.528014
    outer loop
      vertex 45.7416 65 15.4999
      vertex 45.8971 70 15.75
      vertex 45.7416 70 15.4999
    endloop
  endfacet
  facet normal -0.849236 0 0.528014
    outer loop
      vertex 45.8971 70 15.75
      vertex 45.7416 65 15.4999
      vertex 45.8971 65 15.75
    endloop
  endfacet
  facet normal -0.634254 0 0.773125
    outer loop
      vertex 44.7394 70 14.4299
      vertex 44.9671 65 14.6167
      vertex 44.9671 70 14.6167
    endloop
  endfacet
  facet normal -0.634254 0 0.773125
    outer loop
      vertex 44.9671 65 14.6167
      vertex 44.7394 70 14.4299
      vertex 44.7394 65 14.4299
    endloop
  endfacet
  facet normal -0.729823 0 -0.683636
    outer loop
      vertex 45.3833 65 20.9671
      vertex 45.182 70 21.182
      vertex 45.3833 70 20.9671
    endloop
  endfacet
  facet normal -0.729823 -0 -0.683636
    outer loop
      vertex 45.182 70 21.182
      vertex 45.3833 65 20.9671
      vertex 45.182 65 21.182
    endloop
  endfacet
  facet normal -0.910761 0 -0.412933
    outer loop
      vertex 46.1575 65 19.7221
      vertex 46.0359 70 19.9903
      vertex 46.1575 70 19.7221
    endloop
  endfacet
  facet normal -0.910761 -0 -0.412933
    outer loop
      vertex 46.0359 70 19.9903
      vertex 46.1575 65 19.7221
      vertex 46.0359 65 19.9903
    endloop
  endfacet
  facet normal -0.471364 0 0.881939
    outer loop
      vertex 43.9903 70 13.9641
      vertex 44.25 65 14.1029
      vertex 44.25 70 14.1029
    endloop
  endfacet
  facet normal -0.471364 0 0.881939
    outer loop
      vertex 44.25 65 14.1029
      vertex 43.9903 70 13.9641
      vertex 43.9903 65 13.9641
    endloop
  endfacet
  facet normal -0.582523 0 -0.812814
    outer loop
      vertex 44.5001 65 21.7416
      vertex 44.7394 70 21.5701
      vertex 44.7394 65 21.5701
    endloop
  endfacet
  facet normal -0.582523 0 -0.812814
    outer loop
      vertex 44.7394 70 21.5701
      vertex 44.5001 65 21.7416
      vertex 44.5001 70 21.7416
    endloop
  endfacet
  facet normal 0.0326024 0 0.999468
    outer loop
      vertex 41.7057 70 13.5096
      vertex 42 65 13.5
      vertex 42 70 13.5
    endloop
  endfacet
  facet normal 0.0326024 0 0.999468
    outer loop
      vertex 42 65 13.5
      vertex 41.7057 70 13.5096
      vertex 41.7057 65 13.5096
    endloop
  endfacet
  facet normal 0.352165 0 0.935938
    outer loop
      vertex 40.2779 70 13.8425
      vertex 40.5535 65 13.7388
      vertex 40.5535 70 13.7388
    endloop
  endfacet
  facet normal 0.352165 0 0.935938
    outer loop
      vertex 40.5535 65 13.7388
      vertex 40.2779 70 13.8425
      vertex 40.2779 65 13.8425
    endloop
  endfacet
  facet normal -0.995174 0 0.0981253
    outer loop
      vertex 46.4615 65 17.4126
      vertex 46.4904 70 17.7057
      vertex 46.4615 70 17.4126
    endloop
  endfacet
  facet normal -0.995174 0 0.0981253
    outer loop
      vertex 46.4904 70 17.7057
      vertex 46.4615 65 17.4126
      vertex 46.4904 65 17.7057
    endloop
  endfacet
  facet normal -0.973931 0 -0.226843
    outer loop
      vertex 46.4135 65 18.8779
      vertex 46.3467 70 19.1647
      vertex 46.4135 70 18.8779
    endloop
  endfacet
  facet normal -0.973931 -0 -0.226843
    outer loop
      vertex 46.3467 70 19.1647
      vertex 46.4135 65 18.8779
      vertex 46.3467 65 19.1647
    endloop
  endfacet
  facet normal -0.849236 0 -0.528014
    outer loop
      vertex 45.8971 65 20.25
      vertex 45.7416 70 20.5001
      vertex 45.8971 70 20.25
    endloop
  endfacet
  facet normal -0.849236 -0 -0.528014
    outer loop
      vertex 45.7416 70 20.5001
      vertex 45.8971 65 20.25
      vertex 45.7416 65 20.5001
    endloop
  endfacet
  facet normal 0.528014 0 0.849236
    outer loop
      vertex 39.4999 70 14.2584
      vertex 39.75 65 14.1029
      vertex 39.75 70 14.1029
    endloop
  endfacet
  facet normal 0.528014 0 0.849236
    outer loop
      vertex 39.75 65 14.1029
      vertex 39.4999 70 14.2584
      vertex 39.4999 65 14.2584
    endloop
  endfacet
  facet normal 0.956924 -0 0.290337
    outer loop
      vertex 37.6533 65 16.8353
      vertex 37.7388 70 16.5535
      vertex 37.6533 70 16.8353
    endloop
  endfacet
  facet normal 0.956924 0 0.290337
    outer loop
      vertex 37.7388 70 16.5535
      vertex 37.6533 65 16.8353
      vertex 37.7388 65 16.5535
    endloop
  endfacet
  facet normal -0.352165 0 -0.935938
    outer loop
      vertex 43.4465 65 22.2612
      vertex 43.7221 70 22.1575
      vertex 43.7221 65 22.1575
    endloop
  endfacet
  facet normal -0.352165 0 -0.935938
    outer loop
      vertex 43.7221 70 22.1575
      vertex 43.4465 65 22.2612
      vertex 43.4465 70 22.2612
    endloop
  endfacet
  facet normal -0.683636 0 0.729823
    outer loop
      vertex 44.9671 70 14.6167
      vertex 45.182 65 14.818
      vertex 45.182 70 14.818
    endloop
  endfacet
  facet normal -0.683636 0 0.729823
    outer loop
      vertex 45.182 65 14.818
      vertex 44.9671 70 14.6167
      vertex 44.9671 65 14.6167
    endloop
  endfacet
  facet normal -0.582523 0 0.812814
    outer loop
      vertex 44.5001 70 14.2584
      vertex 44.7394 65 14.4299
      vertex 44.7394 70 14.4299
    endloop
  endfacet
  facet normal -0.582523 0 0.812814
    outer loop
      vertex 44.7394 65 14.4299
      vertex 44.5001 70 14.2584
      vertex 44.5001 65 14.2584
    endloop
  endfacet
  facet normal -0.956924 0 -0.290337
    outer loop
      vertex 46.3467 65 19.1647
      vertex 46.2612 70 19.4465
      vertex 46.3467 70 19.1647
    endloop
  endfacet
  facet normal -0.956924 -0 -0.290337
    outer loop
      vertex 46.2612 70 19.4465
      vertex 46.3467 65 19.1647
      vertex 46.2612 65 19.4465
    endloop
  endfacet
  facet normal 0.812814 -0 0.582523
    outer loop
      vertex 38.2584 65 15.4999
      vertex 38.4299 70 15.2606
      vertex 38.2584 70 15.4999
    endloop
  endfacet
  facet normal 0.812814 0 0.582523
    outer loop
      vertex 38.4299 70 15.2606
      vertex 38.2584 65 15.4999
      vertex 38.4299 65 15.2606
    endloop
  endfacet
  facet normal -0.352165 0 0.935938
    outer loop
      vertex 43.4465 70 13.7388
      vertex 43.7221 65 13.8425
      vertex 43.7221 70 13.8425
    endloop
  endfacet
  facet normal -0.352165 0 0.935938
    outer loop
      vertex 43.7221 65 13.8425
      vertex 43.4465 70 13.7388
      vertex 43.4465 65 13.7388
    endloop
  endfacet
  facet normal 0.412933 0 -0.910761
    outer loop
      vertex 40.0097 65 22.0359
      vertex 40.2779 70 22.1575
      vertex 40.2779 65 22.1575
    endloop
  endfacet
  facet normal 0.412933 0 -0.910761
    outer loop
      vertex 40.2779 70 22.1575
      vertex 40.0097 65 22.0359
      vertex 40.0097 70 22.0359
    endloop
  endfacet
  facet normal -0.163022 0 0.986622
    outer loop
      vertex 42.5874 70 13.5385
      vertex 42.8779 65 13.5865
      vertex 42.8779 70 13.5865
    endloop
  endfacet
  facet normal -0.163022 0 0.986622
    outer loop
      vertex 42.8779 65 13.5865
      vertex 42.5874 70 13.5385
      vertex 42.5874 65 13.5385
    endloop
  endfacet
  facet normal -0.999468 0 0.0326024
    outer loop
      vertex 46.4904 65 17.7057
      vertex 46.5 70 18
      vertex 46.4904 70 17.7057
    endloop
  endfacet
  facet normal -0.999468 0 0.0326024
    outer loop
      vertex 46.5 70 18
      vertex 46.4904 65 17.7057
      vertex 46.5 65 18
    endloop
  endfacet
  facet normal 0.352165 0 -0.935938
    outer loop
      vertex 40.2779 65 22.1575
      vertex 40.5535 70 22.2612
      vertex 40.5535 65 22.2612
    endloop
  endfacet
  facet normal 0.352165 0 -0.935938
    outer loop
      vertex 40.5535 70 22.2612
      vertex 40.2779 65 22.1575
      vertex 40.2779 70 22.1575
    endloop
  endfacet
  facet normal 0.582523 0 -0.812814
    outer loop
      vertex 39.2606 65 21.5701
      vertex 39.4999 70 21.7416
      vertex 39.4999 65 21.7416
    endloop
  endfacet
  facet normal 0.582523 0 -0.812814
    outer loop
      vertex 39.4999 70 21.7416
      vertex 39.2606 65 21.5701
      vertex 39.2606 70 21.5701
    endloop
  endfacet
  facet normal -0.773125 0 0.634254
    outer loop
      vertex 45.3833 65 15.0329
      vertex 45.5701 70 15.2606
      vertex 45.3833 70 15.0329
    endloop
  endfacet
  facet normal -0.773125 0 0.634254
    outer loop
      vertex 45.5701 70 15.2606
      vertex 45.3833 65 15.0329
      vertex 45.5701 65 15.2606
    endloop
  endfacet
  facet normal -0.0981253 0 0.995174
    outer loop
      vertex 42.2943 70 13.5096
      vertex 42.5874 65 13.5385
      vertex 42.5874 70 13.5385
    endloop
  endfacet
  facet normal -0.0981253 0 0.995174
    outer loop
      vertex 42.5874 65 13.5385
      vertex 42.2943 70 13.5096
      vertex 42.2943 65 13.5096
    endloop
  endfacet
  facet normal 0.935938 0 -0.352165
    outer loop
      vertex 37.8425 65 19.7221
      vertex 37.7388 70 19.4465
      vertex 37.8425 70 19.7221
    endloop
  endfacet
  facet normal 0.935938 0 -0.352165
    outer loop
      vertex 37.7388 70 19.4465
      vertex 37.8425 65 19.7221
      vertex 37.7388 65 19.4465
    endloop
  endfacet
  facet normal -0.0326024 0 0.999468
    outer loop
      vertex 42 70 13.5
      vertex 42.2943 65 13.5096
      vertex 42.2943 70 13.5096
    endloop
  endfacet
  facet normal -0.0326024 0 0.999468
    outer loop
      vertex 42.2943 65 13.5096
      vertex 42 70 13.5
      vertex 42 65 13.5
    endloop
  endfacet
  facet normal 0.812814 0 -0.582523
    outer loop
      vertex 38.4299 65 20.7394
      vertex 38.2584 70 20.5001
      vertex 38.4299 70 20.7394
    endloop
  endfacet
  facet normal 0.812814 0 -0.582523
    outer loop
      vertex 38.2584 70 20.5001
      vertex 38.4299 65 20.7394
      vertex 38.2584 65 20.5001
    endloop
  endfacet
  facet normal -0.773125 0 -0.634254
    outer loop
      vertex 45.5701 65 20.7394
      vertex 45.3833 70 20.9671
      vertex 45.5701 70 20.7394
    endloop
  endfacet
  facet normal -0.773125 -0 -0.634254
    outer loop
      vertex 45.3833 70 20.9671
      vertex 45.5701 65 20.7394
      vertex 45.3833 65 20.9671
    endloop
  endfacet
  facet normal -0.528014 0 0.849236
    outer loop
      vertex 44.25 70 14.1029
      vertex 44.5001 65 14.2584
      vertex 44.5001 70 14.2584
    endloop
  endfacet
  facet normal -0.528014 0 0.849236
    outer loop
      vertex 44.5001 65 14.2584
      vertex 44.25 70 14.1029
      vertex 44.25 65 14.1029
    endloop
  endfacet
  facet normal 0.935938 -0 0.352165
    outer loop
      vertex 37.7388 65 16.5535
      vertex 37.8425 70 16.2779
      vertex 37.7388 70 16.5535
    endloop
  endfacet
  facet normal 0.935938 0 0.352165
    outer loop
      vertex 37.8425 70 16.2779
      vertex 37.7388 65 16.5535
      vertex 37.8425 65 16.2779
    endloop
  endfacet
  facet normal -0.881939 0 -0.471364
    outer loop
      vertex 46.0359 65 19.9903
      vertex 45.8971 70 20.25
      vertex 46.0359 70 19.9903
    endloop
  endfacet
  facet normal -0.881939 -0 -0.471364
    outer loop
      vertex 45.8971 70 20.25
      vertex 46.0359 65 19.9903
      vertex 45.8971 65 20.25
    endloop
  endfacet
  facet normal -0.812814 0 0.582523
    outer loop
      vertex 45.5701 65 15.2606
      vertex 45.7416 70 15.4999
      vertex 45.5701 70 15.2606
    endloop
  endfacet
  facet normal -0.812814 0 0.582523
    outer loop
      vertex 45.7416 70 15.4999
      vertex 45.5701 65 15.2606
      vertex 45.7416 65 15.4999
    endloop
  endfacet
  facet normal -0.226843 0 -0.973931
    outer loop
      vertex 42.8779 65 22.4135
      vertex 43.1647 70 22.3467
      vertex 43.1647 65 22.3467
    endloop
  endfacet
  facet normal -0.226843 0 -0.973931
    outer loop
      vertex 43.1647 70 22.3467
      vertex 42.8779 65 22.4135
      vertex 42.8779 70 22.4135
    endloop
  endfacet
  facet normal -0.0981253 0 -0.995174
    outer loop
      vertex 42.2943 65 22.4904
      vertex 42.5874 70 22.4615
      vertex 42.5874 65 22.4615
    endloop
  endfacet
  facet normal -0.0981253 0 -0.995174
    outer loop
      vertex 42.5874 70 22.4615
      vertex 42.2943 65 22.4904
      vertex 42.2943 70 22.4904
    endloop
  endfacet
  facet normal 0.849236 -0 0.528014
    outer loop
      vertex 38.1029 65 15.75
      vertex 38.2584 70 15.4999
      vertex 38.1029 70 15.75
    endloop
  endfacet
  facet normal 0.849236 0 0.528014
    outer loop
      vertex 38.2584 70 15.4999
      vertex 38.1029 65 15.75
      vertex 38.2584 65 15.4999
    endloop
  endfacet
  facet normal -0.729823 0 0.683636
    outer loop
      vertex 45.182 65 14.818
      vertex 45.3833 70 15.0329
      vertex 45.182 70 14.818
    endloop
  endfacet
  facet normal -0.729823 0 0.683636
    outer loop
      vertex 45.3833 70 15.0329
      vertex 45.182 65 14.818
      vertex 45.3833 65 15.0329
    endloop
  endfacet
  facet normal 0.881939 0 -0.471364
    outer loop
      vertex 38.1029 65 20.25
      vertex 37.9641 70 19.9903
      vertex 38.1029 70 20.25
    endloop
  endfacet
  facet normal 0.881939 0 -0.471364
    outer loop
      vertex 37.9641 70 19.9903
      vertex 38.1029 65 20.25
      vertex 37.9641 65 19.9903
    endloop
  endfacet
  facet normal -0.683636 0 -0.729823
    outer loop
      vertex 44.9671 65 21.3833
      vertex 45.182 70 21.182
      vertex 45.182 65 21.182
    endloop
  endfacet
  facet normal -0.683636 0 -0.729823
    outer loop
      vertex 45.182 70 21.182
      vertex 44.9671 65 21.3833
      vertex 44.9671 70 21.3833
    endloop
  endfacet
  facet normal 0.0981253 0 0.995174
    outer loop
      vertex 41.4126 70 13.5385
      vertex 41.7057 65 13.5096
      vertex 41.7057 70 13.5096
    endloop
  endfacet
  facet normal 0.0981253 0 0.995174
    outer loop
      vertex 41.7057 65 13.5096
      vertex 41.4126 70 13.5385
      vertex 41.4126 65 13.5385
    endloop
  endfacet
  facet normal 0.226843 0 -0.973931
    outer loop
      vertex 40.8353 65 22.3467
      vertex 41.1221 70 22.4135
      vertex 41.1221 65 22.4135
    endloop
  endfacet
  facet normal 0.226843 0 -0.973931
    outer loop
      vertex 41.1221 70 22.4135
      vertex 40.8353 65 22.3467
      vertex 40.8353 70 22.3467
    endloop
  endfacet
  facet normal 0.910761 -0 0.412933
    outer loop
      vertex 37.8425 65 16.2779
      vertex 37.9641 70 16.0097
      vertex 37.8425 70 16.2779
    endloop
  endfacet
  facet normal 0.910761 0 0.412933
    outer loop
      vertex 37.9641 70 16.0097
      vertex 37.8425 65 16.2779
      vertex 37.9641 65 16.0097
    endloop
  endfacet
  facet normal 0.910761 0 -0.412933
    outer loop
      vertex 37.9641 65 19.9903
      vertex 37.8425 70 19.7221
      vertex 37.9641 70 19.9903
    endloop
  endfacet
  facet normal 0.910761 0 -0.412933
    outer loop
      vertex 37.8425 70 19.7221
      vertex 37.9641 65 19.9903
      vertex 37.8425 65 19.7221
    endloop
  endfacet
  facet normal 0.163022 0 0.986622
    outer loop
      vertex 41.1221 70 13.5865
      vertex 41.4126 65 13.5385
      vertex 41.4126 70 13.5385
    endloop
  endfacet
  facet normal 0.163022 0 0.986622
    outer loop
      vertex 41.4126 65 13.5385
      vertex 41.1221 70 13.5865
      vertex 41.1221 65 13.5865
    endloop
  endfacet
  facet normal -0.0326024 0 -0.999468
    outer loop
      vertex 42 65 22.5
      vertex 42.2943 70 22.4904
      vertex 42.2943 65 22.4904
    endloop
  endfacet
  facet normal -0.0326024 0 -0.999468
    outer loop
      vertex 42.2943 70 22.4904
      vertex 42 65 22.5
      vertex 42 70 22.5
    endloop
  endfacet
  facet normal -0.812814 0 -0.582523
    outer loop
      vertex 45.7416 65 20.5001
      vertex 45.5701 70 20.7394
      vertex 45.7416 70 20.5001
    endloop
  endfacet
  facet normal -0.812814 -0 -0.582523
    outer loop
      vertex 45.5701 70 20.7394
      vertex 45.7416 65 20.5001
      vertex 45.5701 65 20.7394
    endloop
  endfacet
  facet normal -0.412933 0 0.910761
    outer loop
      vertex 43.7221 70 13.8425
      vertex 43.9903 65 13.9641
      vertex 43.9903 70 13.9641
    endloop
  endfacet
  facet normal -0.412933 0 0.910761
    outer loop
      vertex 43.9903 65 13.9641
      vertex 43.7221 70 13.8425
      vertex 43.7221 65 13.8425
    endloop
  endfacet
  facet normal 0.956924 0 -0.290337
    outer loop
      vertex 37.7388 65 19.4465
      vertex 37.6533 70 19.1647
      vertex 37.7388 70 19.4465
    endloop
  endfacet
  facet normal 0.956924 0 -0.290337
    outer loop
      vertex 37.6533 70 19.1647
      vertex 37.7388 65 19.4465
      vertex 37.6533 65 19.1647
    endloop
  endfacet
  facet normal -0.935938 0 0.352165
    outer loop
      vertex 46.1575 65 16.2779
      vertex 46.2612 70 16.5535
      vertex 46.1575 70 16.2779
    endloop
  endfacet
  facet normal -0.935938 0 0.352165
    outer loop
      vertex 46.2612 70 16.5535
      vertex 46.1575 65 16.2779
      vertex 46.2612 65 16.5535
    endloop
  endfacet
  facet normal 0.999468 0 -0.0326024
    outer loop
      vertex 37.5096 65 18.2943
      vertex 37.5 70 18
      vertex 37.5096 70 18.2943
    endloop
  endfacet
  facet normal 0.999468 0 -0.0326024
    outer loop
      vertex 37.5 70 18
      vertex 37.5096 65 18.2943
      vertex 37.5 65 18
    endloop
  endfacet
  facet normal 0.163022 0 -0.986622
    outer loop
      vertex 41.1221 65 22.4135
      vertex 41.4126 70 22.4615
      vertex 41.4126 65 22.4615
    endloop
  endfacet
  facet normal 0.163022 0 -0.986622
    outer loop
      vertex 41.4126 70 22.4615
      vertex 41.1221 65 22.4135
      vertex 41.1221 70 22.4135
    endloop
  endfacet
  facet normal -0.910761 0 0.412933
    outer loop
      vertex 46.0359 65 16.0097
      vertex 46.1575 70 16.2779
      vertex 46.0359 70 16.0097
    endloop
  endfacet
  facet normal -0.910761 0 0.412933
    outer loop
      vertex 46.1575 70 16.2779
      vertex 46.0359 65 16.0097
      vertex 46.1575 65 16.2779
    endloop
  endfacet
  facet normal -0.973931 0 0.226843
    outer loop
      vertex 46.3467 65 16.8353
      vertex 46.4135 70 17.1221
      vertex 46.3467 70 16.8353
    endloop
  endfacet
  facet normal -0.973931 0 0.226843
    outer loop
      vertex 46.4135 70 17.1221
      vertex 46.3467 65 16.8353
      vertex 46.4135 65 17.1221
    endloop
  endfacet
  facet normal -0.290337 0 0.956924
    outer loop
      vertex 43.1647 70 13.6533
      vertex 43.4465 65 13.7388
      vertex 43.4465 70 13.7388
    endloop
  endfacet
  facet normal -0.290337 0 0.956924
    outer loop
      vertex 43.4465 65 13.7388
      vertex 43.1647 70 13.6533
      vertex 43.1647 65 13.6533
    endloop
  endfacet
  facet normal 0.995174 0 -0.0981253
    outer loop
      vertex 37.5385 65 18.5874
      vertex 37.5096 70 18.2943
      vertex 37.5385 70 18.5874
    endloop
  endfacet
  facet normal 0.995174 0 -0.0981253
    outer loop
      vertex 37.5096 70 18.2943
      vertex 37.5385 65 18.5874
      vertex 37.5096 65 18.2943
    endloop
  endfacet
  facet normal -0.986622 0 0.163022
    outer loop
      vertex 46.4135 65 17.1221
      vertex 46.4615 70 17.4126
      vertex 46.4135 70 17.1221
    endloop
  endfacet
  facet normal -0.986622 0 0.163022
    outer loop
      vertex 46.4615 70 17.4126
      vertex 46.4135 65 17.1221
      vertex 46.4615 65 17.4126
    endloop
  endfacet
  facet normal 0.582523 0 0.812814
    outer loop
      vertex 39.2606 70 14.4299
      vertex 39.4999 65 14.2584
      vertex 39.4999 70 14.2584
    endloop
  endfacet
  facet normal 0.582523 0 0.812814
    outer loop
      vertex 39.4999 65 14.2584
      vertex 39.2606 70 14.4299
      vertex 39.2606 65 14.4299
    endloop
  endfacet
  facet normal 0.528014 0 -0.849236
    outer loop
      vertex 39.4999 65 21.7416
      vertex 39.75 70 21.8971
      vertex 39.75 65 21.8971
    endloop
  endfacet
  facet normal 0.528014 0 -0.849236
    outer loop
      vertex 39.75 70 21.8971
      vertex 39.4999 65 21.7416
      vertex 39.4999 70 21.7416
    endloop
  endfacet
  facet normal 0.995174 -0 0.0981253
    outer loop
      vertex 37.5096 65 17.7057
      vertex 37.5385 70 17.4126
      vertex 37.5096 70 17.7057
    endloop
  endfacet
  facet normal 0.995174 0 0.0981253
    outer loop
      vertex 37.5385 70 17.4126
      vertex 37.5096 65 17.7057
      vertex 37.5385 65 17.4126
    endloop
  endfacet
  facet normal 0.986622 -0 0.163022
    outer loop
      vertex 37.5385 65 17.4126
      vertex 37.5865 70 17.1221
      vertex 37.5385 70 17.4126
    endloop
  endfacet
  facet normal 0.986622 0 0.163022
    outer loop
      vertex 37.5865 70 17.1221
      vertex 37.5385 65 17.4126
      vertex 37.5865 65 17.1221
    endloop
  endfacet
  facet normal -0.881939 0 0.471364
    outer loop
      vertex 45.8971 65 15.75
      vertex 46.0359 70 16.0097
      vertex 45.8971 70 15.75
    endloop
  endfacet
  facet normal -0.881939 0 0.471364
    outer loop
      vertex 46.0359 70 16.0097
      vertex 45.8971 65 15.75
      vertex 46.0359 65 16.0097
    endloop
  endfacet
  facet normal 0.773125 -0 0.634254
    outer loop
      vertex 38.4299 65 15.2606
      vertex 38.6167 70 15.0329
      vertex 38.4299 70 15.2606
    endloop
  endfacet
  facet normal 0.773125 0 0.634254
    outer loop
      vertex 38.6167 70 15.0329
      vertex 38.4299 65 15.2606
      vertex 38.6167 65 15.0329
    endloop
  endfacet
  facet normal 0.412933 0 0.910761
    outer loop
      vertex 40.0097 70 13.9641
      vertex 40.2779 65 13.8425
      vertex 40.2779 70 13.8425
    endloop
  endfacet
  facet normal 0.412933 0 0.910761
    outer loop
      vertex 40.2779 65 13.8425
      vertex 40.0097 70 13.9641
      vertex 40.0097 65 13.9641
    endloop
  endfacet
  facet normal -0.412933 0 -0.910761
    outer loop
      vertex 43.7221 65 22.1575
      vertex 43.9903 70 22.0359
      vertex 43.9903 65 22.0359
    endloop
  endfacet
  facet normal -0.412933 0 -0.910761
    outer loop
      vertex 43.9903 70 22.0359
      vertex 43.7221 65 22.1575
      vertex 43.7221 70 22.1575
    endloop
  endfacet
  facet normal 0.773125 0 -0.634254
    outer loop
      vertex 38.6167 65 20.9671
      vertex 38.4299 70 20.7394
      vertex 38.6167 70 20.9671
    endloop
  endfacet
  facet normal 0.773125 0 -0.634254
    outer loop
      vertex 38.4299 70 20.7394
      vertex 38.6167 65 20.9671
      vertex 38.4299 65 20.7394
    endloop
  endfacet
  facet normal 0.881939 -0 0.471364
    outer loop
      vertex 37.9641 65 16.0097
      vertex 38.1029 70 15.75
      vertex 37.9641 70 16.0097
    endloop
  endfacet
  facet normal 0.881939 0 0.471364
    outer loop
      vertex 38.1029 70 15.75
      vertex 37.9641 65 16.0097
      vertex 38.1029 65 15.75
    endloop
  endfacet
  facet normal 0.290337 0 -0.956924
    outer loop
      vertex 40.5535 65 22.2612
      vertex 40.8353 70 22.3467
      vertex 40.8353 65 22.3467
    endloop
  endfacet
  facet normal 0.290337 0 -0.956924
    outer loop
      vertex 40.8353 70 22.3467
      vertex 40.5535 65 22.2612
      vertex 40.5535 70 22.2612
    endloop
  endfacet
  facet normal 0.729823 -0 0.683636
    outer loop
      vertex 38.6167 65 15.0329
      vertex 38.818 70 14.818
      vertex 38.6167 70 15.0329
    endloop
  endfacet
  facet normal 0.729823 0 0.683636
    outer loop
      vertex 38.818 70 14.818
      vertex 38.6167 65 15.0329
      vertex 38.818 65 14.818
    endloop
  endfacet
  facet normal -0.290337 0 -0.956924
    outer loop
      vertex 43.1647 65 22.3467
      vertex 43.4465 70 22.2612
      vertex 43.4465 65 22.2612
    endloop
  endfacet
  facet normal -0.290337 0 -0.956924
    outer loop
      vertex 43.4465 70 22.2612
      vertex 43.1647 65 22.3467
      vertex 43.1647 70 22.3467
    endloop
  endfacet
  facet normal 0.683636 0 -0.729823
    outer loop
      vertex 38.818 65 21.182
      vertex 39.0329 70 21.3833
      vertex 39.0329 65 21.3833
    endloop
  endfacet
  facet normal 0.683636 0 -0.729823
    outer loop
      vertex 39.0329 70 21.3833
      vertex 38.818 65 21.182
      vertex 38.818 70 21.182
    endloop
  endfacet
  facet normal 0.999468 -0 0.0326024
    outer loop
      vertex 37.5 65 18
      vertex 37.5096 70 17.7057
      vertex 37.5 70 18
    endloop
  endfacet
  facet normal 0.999468 0 0.0326024
    outer loop
      vertex 37.5096 70 17.7057
      vertex 37.5 65 18
      vertex 37.5096 65 17.7057
    endloop
  endfacet
  facet normal 0.290337 0 0.956924
    outer loop
      vertex 40.5535 70 13.7388
      vertex 40.8353 65 13.6533
      vertex 40.8353 70 13.6533
    endloop
  endfacet
  facet normal 0.290337 0 0.956924
    outer loop
      vertex 40.8353 65 13.6533
      vertex 40.5535 70 13.7388
      vertex 40.5535 65 13.7388
    endloop
  endfacet
  facet normal 0.471364 0 0.881939
    outer loop
      vertex 39.75 70 14.1029
      vertex 40.0097 65 13.9641
      vertex 40.0097 70 13.9641
    endloop
  endfacet
  facet normal 0.471364 0 0.881939
    outer loop
      vertex 40.0097 65 13.9641
      vertex 39.75 70 14.1029
      vertex 39.75 65 14.1029
    endloop
  endfacet
endsolid OpenSCAD_Model
