solid OpenSCAD_Model
  facet normal 0 1 0
    outer loop
      vertex 0.399521 0 0.280426
      vertex 0.350464 0 0.280426
      vertex 0.375 0 0.281189
    endloop
  endfacet
  facet normal 0 1 0
    outer loop
      vertex 0.42395 0 0.278107
      vertex 0.350464 0 0.280426
      vertex 0.399521 0 0.280426
    endloop
  endfacet
  facet normal 0 1 0
    outer loop
      vertex 0.42395 0 0.278107
      vertex 0.326035 0 0.278107
      vertex 0.350464 0 0.280426
    endloop
  endfacet
  facet normal 0 1 0
    outer loop
      vertex 0.448196 0 0.274277
      vertex 0.326035 0 0.278107
      vertex 0.42395 0 0.278107
    endloop
  endfacet
  facet normal 0 1 0
    outer loop
      vertex 0.448196 0 0.274277
      vertex 0.301788 0 0.274277
      vertex 0.326035 0 0.278107
    endloop
  endfacet
  facet normal 0 1 0
    outer loop
      vertex 0.472137 0 0.268921
      vertex 0.301788 0 0.274277
      vertex 0.448196 0 0.274277
    endloop
  endfacet
  facet normal 0 1 0
    outer loop
      vertex 0.472137 0 0.268921
      vertex 0.277847 0 0.268921
      vertex 0.301788 0 0.274277
    endloop
  endfacet
  facet normal 0 1 0
    outer loop
      vertex 0.495712 0 0.26207
      vertex 0.277847 0 0.268921
      vertex 0.472137 0 0.268921
    endloop
  endfacet
  facet normal 0 1 0
    outer loop
      vertex 0.495712 0 0.26207
      vertex 0.254272 0 0.26207
      vertex 0.277847 0 0.268921
    endloop
  endfacet
  facet normal 0 1 0
    outer loop
      vertex 0.518799 0 0.253754
      vertex 0.254272 0 0.26207
      vertex 0.495712 0 0.26207
    endloop
  endfacet
  facet normal 0 1 0
    outer loop
      vertex 0.518799 0 0.253754
      vertex 0.231186 0 0.253754
      vertex 0.254272 0 0.26207
    endloop
  endfacet
  facet normal 0 1 0
    outer loop
      vertex 0.541321 0 0.244019
      vertex 0.231186 0 0.253754
      vertex 0.518799 0 0.253754
    endloop
  endfacet
  facet normal 0 1 0
    outer loop
      vertex 0.541321 0 0.244019
      vertex 0.208664 0 0.244019
      vertex 0.231186 0 0.253754
    endloop
  endfacet
  facet normal 0 1 0
    outer loop
      vertex 0.563187 0 0.23288
      vertex 0.208664 0 0.244019
      vertex 0.541321 0 0.244019
    endloop
  endfacet
  facet normal 0 1 0
    outer loop
      vertex 0.563187 0 0.23288
      vertex 0.186798 0 0.23288
      vertex 0.208664 0 0.244019
    endloop
  endfacet
  facet normal 0 1 0
    outer loop
      vertex 0.584305 0 0.220383
      vertex 0.186798 0 0.23288
      vertex 0.563187 0 0.23288
    endloop
  endfacet
  facet normal 0 1 0
    outer loop
      vertex 0.584305 0 0.220383
      vertex 0.16568 0 0.220383
      vertex 0.186798 0 0.23288
    endloop
  endfacet
  facet normal 0 1 0
    outer loop
      vertex 0.604614 0 0.206589
      vertex 0.16568 0 0.220383
      vertex 0.584305 0 0.220383
    endloop
  endfacet
  facet normal 0 1 0
    outer loop
      vertex 0.604614 0 0.206589
      vertex 0.14537 0 0.206589
      vertex 0.16568 0 0.220383
    endloop
  endfacet
  facet normal 0 1 0
    outer loop
      vertex 0.623993 0 0.191544
      vertex 0.14537 0 0.206589
      vertex 0.604614 0 0.206589
    endloop
  endfacet
  facet normal 0 1 0
    outer loop
      vertex 0.623993 0 0.191544
      vertex 0.125992 0 0.191544
      vertex 0.14537 0 0.206589
    endloop
  endfacet
  facet normal 0 1 0
    outer loop
      vertex 0.64241 0 0.175308
      vertex 0.125992 0 0.191544
      vertex 0.623993 0 0.191544
    endloop
  endfacet
  facet normal 0 1 0
    outer loop
      vertex 0.64241 0 0.175308
      vertex 0.107574 0 0.175308
      vertex 0.125992 0 0.191544
    endloop
  endfacet
  facet normal 0 1 0
    outer loop
      vertex 0.65976 0 0.157959
      vertex 0.107574 0 0.175308
      vertex 0.64241 0 0.175308
    endloop
  endfacet
  facet normal 0 1 0
    outer loop
      vertex 0.65976 0 0.157959
      vertex 0.0902252 0 0.157959
      vertex 0.107574 0 0.175308
    endloop
  endfacet
  facet normal 0 1 0
    outer loop
      vertex 0.675995 0 0.139557
      vertex 0.0902252 0 0.157959
      vertex 0.65976 0 0.157959
    endloop
  endfacet
  facet normal 0 1 0
    outer loop
      vertex 0.675995 0 0.139557
      vertex 0.0739899 0 0.139557
      vertex 0.0902252 0 0.157959
    endloop
  endfacet
  facet normal 0 1 0
    outer loop
      vertex 0.691025 0 0.120163
      vertex 0.0739899 0 0.139557
      vertex 0.675995 0 0.139557
    endloop
  endfacet
  facet normal 0 1 0
    outer loop
      vertex 0.691025 0 0.120163
      vertex 0.05896 0 0.120163
      vertex 0.0739899 0 0.139557
    endloop
  endfacet
  facet normal 0 1 0
    outer loop
      vertex 0.704819 0 0.0998688
      vertex 0.05896 0 0.120163
      vertex 0.691025 0 0.120163
    endloop
  endfacet
  facet normal 0 1 0
    outer loop
      vertex 0.704819 0 0.0998688
      vertex 0.045166 0 0.0998688
      vertex 0.05896 0 0.120163
    endloop
  endfacet
  facet normal 0 1 0
    outer loop
      vertex 0.717316 0 0.0787354
      vertex 0.045166 0 0.0998688
      vertex 0.704819 0 0.0998688
    endloop
  endfacet
  facet normal 0 1 0
    outer loop
      vertex 0.717316 0 0.0787354
      vertex 0.0326691 0 0.0787354
      vertex 0.045166 0 0.0998688
    endloop
  endfacet
  facet normal 0 1 0
    outer loop
      vertex 0.728455 0 0.0568695
      vertex 0.0326691 0 0.0787354
      vertex 0.717316 0 0.0787354
    endloop
  endfacet
  facet normal 0 1 0
    outer loop
      vertex 0.728455 0 0.0568695
      vertex 0.0215302 0 0.0568695
      vertex 0.0326691 0 0.0787354
    endloop
  endfacet
  facet normal 0 1 0
    outer loop
      vertex 0.738205 0 0.0343475
      vertex 0.0215302 0 0.0568695
      vertex 0.728455 0 0.0568695
    endloop
  endfacet
  facet normal 0 1 0
    outer loop
      vertex 0.738205 0 0.0343475
      vertex 0.0117798 0 0.0343475
      vertex 0.0215302 0 0.0568695
    endloop
  endfacet
  facet normal 0 1 0
    outer loop
      vertex 0.749786 0 0
      vertex 0.738205 0 0.0343475
      vertex 0.746521 0 0.011261
    endloop
  endfacet
  facet normal 0 1 0
    outer loop
      vertex 0.738205 0 0.0343475
      vertex 0.749786 0 0
      vertex 0.0117798 0 0.0343475
    endloop
  endfacet
  facet normal 0 1 0
    outer loop
      vertex 0.000198364 0 0
      vertex 0.0117798 0 0.0343475
      vertex 0.749786 0 0
    endloop
  endfacet
  facet normal 0 1 0
    outer loop
      vertex 0.0117798 0 0.0343475
      vertex 0.000198364 0 0
      vertex 0.00346375 0 0.011261
    endloop
  endfacet
  facet normal 0.960445 -0 0.27847
    outer loop
      vertex 0.746521 -100 0.011261
      vertex 0.749786 0 0
      vertex 0.746521 0 0.011261
    endloop
  endfacet
  facet normal 0.960445 0 0.27847
    outer loop
      vertex 0.749786 0 0
      vertex 0.746521 -100 0.011261
      vertex 0.749786 -100 0
    endloop
  endfacet
  facet normal 0 0 -1
    outer loop
      vertex 0.000198364 -100 0
      vertex 0.749786 0 0
      vertex 0.749786 -100 0
    endloop
  endfacet
  facet normal -0 0 -1
    outer loop
      vertex 0.749786 0 0
      vertex 0.000198364 -100 0
      vertex 0.000198364 0 0
    endloop
  endfacet
  facet normal -0.960436 0 0.278501
    outer loop
      vertex 0.000198364 -100 0
      vertex 0.00346375 0 0.011261
      vertex 0.000198364 0 0
    endloop
  endfacet
  facet normal -0.960436 0 0.278501
    outer loop
      vertex 0.00346375 0 0.011261
      vertex 0.000198364 -100 0
      vertex 0.00346375 -100 0.011261
    endloop
  endfacet
  facet normal 0.561861 0 0.827232
    outer loop
      vertex 0.584305 0 0.220383
      vertex 0.604614 -100 0.206589
      vertex 0.604614 0 0.206589
    endloop
  endfacet
  facet normal 0.561861 0 0.827232
    outer loop
      vertex 0.604614 -100 0.206589
      vertex 0.584305 0 0.220383
      vertex 0.584305 -100 0.220383
    endloop
  endfacet
  facet normal 0.790422 -0 0.612563
    outer loop
      vertex 0.675995 -100 0.139557
      vertex 0.691025 0 0.120163
      vertex 0.675995 0 0.139557
    endloop
  endfacet
  facet normal 0.790422 0 0.612563
    outer loop
      vertex 0.691025 0 0.120163
      vertex 0.675995 -100 0.139557
      vertex 0.691025 -100 0.120163
    endloop
  endfacet
  facet normal 0.891043 -0 0.453918
    outer loop
      vertex 0.717316 -100 0.0787354
      vertex 0.728455 0 0.0568695
      vertex 0.717316 0 0.0787354
    endloop
  endfacet
  facet normal 0.891043 0 0.453918
    outer loop
      vertex 0.728455 0 0.0568695
      vertex 0.717316 -100 0.0787354
      vertex 0.728455 -100 0.0568695
    endloop
  endfacet
  facet normal -0.891045 0 0.453915
    outer loop
      vertex 0.0215302 -100 0.0568695
      vertex 0.0326691 0 0.0787354
      vertex 0.0215302 0 0.0568695
    endloop
  endfacet
  facet normal -0.891045 0 0.453915
    outer loop
      vertex 0.0326691 0 0.0787354
      vertex 0.0215302 -100 0.0568695
      vertex 0.0326691 -100 0.0787354
    endloop
  endfacet
  facet normal -0.827041 0 0.562141
    outer loop
      vertex 0.045166 -100 0.0998688
      vertex 0.05896 0 0.120163
      vertex 0.045166 0 0.0998688
    endloop
  endfacet
  facet normal -0.827041 0 0.562141
    outer loop
      vertex 0.05896 0 0.120163
      vertex 0.045166 -100 0.0998688
      vertex 0.05896 -100 0.120163
    endloop
  endfacet
  facet normal -0.61326 0 0.789881
    outer loop
      vertex 0.125992 0 0.191544
      vertex 0.14537 -100 0.206589
      vertex 0.14537 0 0.206589
    endloop
  endfacet
  facet normal -0.61326 0 0.789881
    outer loop
      vertex 0.14537 -100 0.206589
      vertex 0.125992 0 0.191544
      vertex 0.125992 -100 0.191544
    endloop
  endfacet
  facet normal -0.453917 0 0.891044
    outer loop
      vertex 0.186798 0 0.23288
      vertex 0.208664 -100 0.244019
      vertex 0.208664 0 0.244019
    endloop
  endfacet
  facet normal -0.453917 0 0.891044
    outer loop
      vertex 0.208664 -100 0.244019
      vertex 0.186798 0 0.23288
      vertex 0.186798 -100 0.23288
    endloop
  endfacet
  facet normal -0.338901 0 0.940822
    outer loop
      vertex 0.231186 0 0.253754
      vertex 0.254272 -100 0.26207
      vertex 0.254272 0 0.26207
    endloop
  endfacet
  facet normal -0.338901 0 0.940822
    outer loop
      vertex 0.254272 -100 0.26207
      vertex 0.231186 0 0.253754
      vertex 0.231186 -100 0.253754
    endloop
  endfacet
  facet normal -0.156023 0 0.987753
    outer loop
      vertex 0.301788 0 0.274277
      vertex 0.326035 -100 0.278107
      vertex 0.326035 0 0.278107
    endloop
  endfacet
  facet normal -0.156023 0 0.987753
    outer loop
      vertex 0.326035 -100 0.278107
      vertex 0.301788 0 0.274277
      vertex 0.301788 -100 0.274277
    endloop
  endfacet
  facet normal 0.613241 0 0.789896
    outer loop
      vertex 0.604614 0 0.206589
      vertex 0.623993 -100 0.191544
      vertex 0.623993 0 0.191544
    endloop
  endfacet
  facet normal 0.613241 0 0.789896
    outer loop
      vertex 0.623993 -100 0.191544
      vertex 0.604614 0 0.206589
      vertex 0.604614 -100 0.206589
    endloop
  endfacet
  facet normal 0.940824 -0 0.338895
    outer loop
      vertex 0.738205 -100 0.0343475
      vertex 0.746521 0 0.011261
      vertex 0.738205 0 0.0343475
    endloop
  endfacet
  facet normal 0.940824 0 0.338895
    outer loop
      vertex 0.746521 0 0.011261
      vertex 0.738205 -100 0.0343475
      vertex 0.746521 -100 0.011261
    endloop
  endfacet
  facet normal 0 -1 0
    outer loop
      vertex 0.350464 -100 0.280426
      vertex 0.399521 -100 0.280426
      vertex 0.375 -100 0.281189
    endloop
  endfacet
  facet normal 0 -1 0
    outer loop
      vertex 0.326035 -100 0.278107
      vertex 0.399521 -100 0.280426
      vertex 0.350464 -100 0.280426
    endloop
  endfacet
  facet normal 0 -1 0
    outer loop
      vertex 0.326035 -100 0.278107
      vertex 0.42395 -100 0.278107
      vertex 0.399521 -100 0.280426
    endloop
  endfacet
  facet normal 0 -1 0
    outer loop
      vertex 0.301788 -100 0.274277
      vertex 0.42395 -100 0.278107
      vertex 0.326035 -100 0.278107
    endloop
  endfacet
  facet normal 0 -1 0
    outer loop
      vertex 0.301788 -100 0.274277
      vertex 0.448196 -100 0.274277
      vertex 0.42395 -100 0.278107
    endloop
  endfacet
  facet normal 0 -1 0
    outer loop
      vertex 0.277847 -100 0.268921
      vertex 0.448196 -100 0.274277
      vertex 0.301788 -100 0.274277
    endloop
  endfacet
  facet normal 0 -1 0
    outer loop
      vertex 0.277847 -100 0.268921
      vertex 0.472137 -100 0.268921
      vertex 0.448196 -100 0.274277
    endloop
  endfacet
  facet normal 0 -1 0
    outer loop
      vertex 0.254272 -100 0.26207
      vertex 0.472137 -100 0.268921
      vertex 0.277847 -100 0.268921
    endloop
  endfacet
  facet normal 0 -1 0
    outer loop
      vertex 0.254272 -100 0.26207
      vertex 0.495712 -100 0.26207
      vertex 0.472137 -100 0.268921
    endloop
  endfacet
  facet normal 0 -1 0
    outer loop
      vertex 0.231186 -100 0.253754
      vertex 0.495712 -100 0.26207
      vertex 0.254272 -100 0.26207
    endloop
  endfacet
  facet normal 0 -1 0
    outer loop
      vertex 0.231186 -100 0.253754
      vertex 0.518799 -100 0.253754
      vertex 0.495712 -100 0.26207
    endloop
  endfacet
  facet normal 0 -1 0
    outer loop
      vertex 0.208664 -100 0.244019
      vertex 0.518799 -100 0.253754
      vertex 0.231186 -100 0.253754
    endloop
  endfacet
  facet normal 0 -1 0
    outer loop
      vertex 0.208664 -100 0.244019
      vertex 0.541321 -100 0.244019
      vertex 0.518799 -100 0.253754
    endloop
  endfacet
  facet normal 0 -1 0
    outer loop
      vertex 0.186798 -100 0.23288
      vertex 0.541321 -100 0.244019
      vertex 0.208664 -100 0.244019
    endloop
  endfacet
  facet normal 0 -1 0
    outer loop
      vertex 0.186798 -100 0.23288
      vertex 0.563187 -100 0.23288
      vertex 0.541321 -100 0.244019
    endloop
  endfacet
  facet normal 0 -1 0
    outer loop
      vertex 0.16568 -100 0.220383
      vertex 0.563187 -100 0.23288
      vertex 0.186798 -100 0.23288
    endloop
  endfacet
  facet normal 0 -1 0
    outer loop
      vertex 0.16568 -100 0.220383
      vertex 0.584305 -100 0.220383
      vertex 0.563187 -100 0.23288
    endloop
  endfacet
  facet normal 0 -1 0
    outer loop
      vertex 0.14537 -100 0.206589
      vertex 0.584305 -100 0.220383
      vertex 0.16568 -100 0.220383
    endloop
  endfacet
  facet normal 0 -1 0
    outer loop
      vertex 0.14537 -100 0.206589
      vertex 0.604614 -100 0.206589
      vertex 0.584305 -100 0.220383
    endloop
  endfacet
  facet normal 0 -1 0
    outer loop
      vertex 0.125992 -100 0.191544
      vertex 0.604614 -100 0.206589
      vertex 0.14537 -100 0.206589
    endloop
  endfacet
  facet normal 0 -1 0
    outer loop
      vertex 0.125992 -100 0.191544
      vertex 0.623993 -100 0.191544
      vertex 0.604614 -100 0.206589
    endloop
  endfacet
  facet normal 0 -1 0
    outer loop
      vertex 0.107574 -100 0.175308
      vertex 0.623993 -100 0.191544
      vertex 0.125992 -100 0.191544
    endloop
  endfacet
  facet normal 0 -1 0
    outer loop
      vertex 0.107574 -100 0.175308
      vertex 0.64241 -100 0.175308
      vertex 0.623993 -100 0.191544
    endloop
  endfacet
  facet normal 0 -1 0
    outer loop
      vertex 0.0902252 -100 0.157959
      vertex 0.64241 -100 0.175308
      vertex 0.107574 -100 0.175308
    endloop
  endfacet
  facet normal 0 -1 0
    outer loop
      vertex 0.0902252 -100 0.157959
      vertex 0.65976 -100 0.157959
      vertex 0.64241 -100 0.175308
    endloop
  endfacet
  facet normal 0 -1 0
    outer loop
      vertex 0.0739899 -100 0.139557
      vertex 0.65976 -100 0.157959
      vertex 0.0902252 -100 0.157959
    endloop
  endfacet
  facet normal 0 -1 0
    outer loop
      vertex 0.0739899 -100 0.139557
      vertex 0.675995 -100 0.139557
      vertex 0.65976 -100 0.157959
    endloop
  endfacet
  facet normal 0 -1 0
    outer loop
      vertex 0.05896 -100 0.120163
      vertex 0.675995 -100 0.139557
      vertex 0.0739899 -100 0.139557
    endloop
  endfacet
  facet normal 0 -1 0
    outer loop
      vertex 0.05896 -100 0.120163
      vertex 0.691025 -100 0.120163
      vertex 0.675995 -100 0.139557
    endloop
  endfacet
  facet normal 0 -1 0
    outer loop
      vertex 0.045166 -100 0.0998688
      vertex 0.691025 -100 0.120163
      vertex 0.05896 -100 0.120163
    endloop
  endfacet
  facet normal 0 -1 0
    outer loop
      vertex 0.045166 -100 0.0998688
      vertex 0.704819 -100 0.0998688
      vertex 0.691025 -100 0.120163
    endloop
  endfacet
  facet normal 0 -1 0
    outer loop
      vertex 0.0326691 -100 0.0787354
      vertex 0.704819 -100 0.0998688
      vertex 0.045166 -100 0.0998688
    endloop
  endfacet
  facet normal 0 -1 0
    outer loop
      vertex 0.0326691 -100 0.0787354
      vertex 0.717316 -100 0.0787354
      vertex 0.704819 -100 0.0998688
    endloop
  endfacet
  facet normal 0 -1 0
    outer loop
      vertex 0.0215302 -100 0.0568695
      vertex 0.717316 -100 0.0787354
      vertex 0.0326691 -100 0.0787354
    endloop
  endfacet
  facet normal 0 -1 0
    outer loop
      vertex 0.0215302 -100 0.0568695
      vertex 0.728455 -100 0.0568695
      vertex 0.717316 -100 0.0787354
    endloop
  endfacet
  facet normal 0 -1 0
    outer loop
      vertex 0.0117798 -100 0.0343475
      vertex 0.728455 -100 0.0568695
      vertex 0.0215302 -100 0.0568695
    endloop
  endfacet
  facet normal 0 -1 0
    outer loop
      vertex 0.0117798 -100 0.0343475
      vertex 0.738205 -100 0.0343475
      vertex 0.728455 -100 0.0568695
    endloop
  endfacet
  facet normal 0 -1 0
    outer loop
      vertex 0.000198364 -100 0
      vertex 0.0117798 -100 0.0343475
      vertex 0.00346375 -100 0.011261
    endloop
  endfacet
  facet normal 0 -1 -0
    outer loop
      vertex 0.0117798 -100 0.0343475
      vertex 0.000198364 -100 0
      vertex 0.738205 -100 0.0343475
    endloop
  endfacet
  facet normal 0 -1 0
    outer loop
      vertex 0.749786 -100 0
      vertex 0.738205 -100 0.0343475
      vertex 0.000198364 -100 0
    endloop
  endfacet
  facet normal 0 -1 0
    outer loop
      vertex 0.738205 -100 0.0343475
      vertex 0.749786 -100 0
      vertex 0.746521 -100 0.011261
    endloop
  endfacet
  facet normal -0.917691 0 0.397294
    outer loop
      vertex 0.0117798 -100 0.0343475
      vertex 0.0215302 0 0.0568695
      vertex 0.0117798 0 0.0343475
    endloop
  endfacet
  facet normal -0.917691 0 0.397294
    outer loop
      vertex 0.0215302 0 0.0568695
      vertex 0.0117798 -100 0.0343475
      vertex 0.0215302 -100 0.0568695
    endloop
  endfacet
  facet normal -0.860766 0 0.509
    outer loop
      vertex 0.0326691 -100 0.0787354
      vertex 0.045166 0 0.0998688
      vertex 0.0326691 0 0.0787354
    endloop
  endfacet
  facet normal -0.860766 0 0.509
    outer loop
      vertex 0.045166 0 0.0998688
      vertex 0.0326691 -100 0.0787354
      vertex 0.045166 -100 0.0998688
    endloop
  endfacet
  facet normal -0.749873 0 0.661581
    outer loop
      vertex 0.0739899 -100 0.139557
      vertex 0.0902252 0 0.157959
      vertex 0.0739899 0 0.139557
    endloop
  endfacet
  facet normal -0.749873 0 0.661581
    outer loop
      vertex 0.0902252 0 0.157959
      vertex 0.0739899 -100 0.139557
      vertex 0.0902252 -100 0.157959
    endloop
  endfacet
  facet normal -0.661274 0 0.750144
    outer loop
      vertex 0.107574 0 0.175308
      vertex 0.125992 -100 0.191544
      vertex 0.125992 0 0.191544
    endloop
  endfacet
  facet normal -0.661274 0 0.750144
    outer loop
      vertex 0.125992 -100 0.191544
      vertex 0.107574 0 0.175308
      vertex 0.107574 -100 0.175308
    endloop
  endfacet
  facet normal -0.790424 0 0.61256
    outer loop
      vertex 0.05896 -100 0.120163
      vertex 0.0739899 0 0.139557
      vertex 0.05896 0 0.120163
    endloop
  endfacet
  facet normal -0.790424 0 0.61256
    outer loop
      vertex 0.0739899 0 0.139557
      vertex 0.05896 -100 0.120163
      vertex 0.0739899 -100 0.139557
    endloop
  endfacet
  facet normal -0.561842 0 0.827245
    outer loop
      vertex 0.14537 0 0.206589
      vertex 0.16568 -100 0.220383
      vertex 0.16568 0 0.220383
    endloop
  endfacet
  facet normal -0.561842 0 0.827245
    outer loop
      vertex 0.16568 -100 0.220383
      vertex 0.14537 0 0.206589
      vertex 0.14537 -100 0.206589
    endloop
  endfacet
  facet normal -0.396765 0 0.91792
    outer loop
      vertex 0.208664 0 0.244019
      vertex 0.231186 -100 0.253754
      vertex 0.231186 0 0.253754
    endloop
  endfacet
  facet normal -0.396765 0 0.91792
    outer loop
      vertex 0.231186 -100 0.253754
      vertex 0.208664 0 0.244019
      vertex 0.208664 -100 0.244019
    endloop
  endfacet
  facet normal -0.27906 0 0.960274
    outer loop
      vertex 0.254272 0 0.26207
      vertex 0.277847 -100 0.268921
      vertex 0.277847 0 0.268921
    endloop
  endfacet
  facet normal -0.27906 0 0.960274
    outer loop
      vertex 0.277847 -100 0.268921
      vertex 0.254272 0 0.26207
      vertex 0.254272 -100 0.26207
    endloop
  endfacet
  facet normal -0.0945033 0 0.995525
    outer loop
      vertex 0.326035 0 0.278107
      vertex 0.350464 -100 0.280426
      vertex 0.350464 0 0.280426
    endloop
  endfacet
  facet normal -0.0945033 0 0.995525
    outer loop
      vertex 0.350464 -100 0.280426
      vertex 0.326035 0 0.278107
      vertex 0.326035 -100 0.278107
    endloop
  endfacet
  facet normal 0.27906 0 0.960274
    outer loop
      vertex 0.472137 0 0.268921
      vertex 0.495712 -100 0.26207
      vertex 0.495712 0 0.26207
    endloop
  endfacet
  facet normal 0.27906 0 0.960274
    outer loop
      vertex 0.495712 -100 0.26207
      vertex 0.472137 0 0.268921
      vertex 0.472137 -100 0.268921
    endloop
  endfacet
  facet normal 0.0945033 0 0.995525
    outer loop
      vertex 0.399521 0 0.280426
      vertex 0.42395 -100 0.278107
      vertex 0.42395 0 0.278107
    endloop
  endfacet
  facet normal 0.0945033 0 0.995525
    outer loop
      vertex 0.42395 -100 0.278107
      vertex 0.399521 0 0.280426
      vertex 0.399521 -100 0.280426
    endloop
  endfacet
  facet normal 0.21832 0 0.975877
    outer loop
      vertex 0.448196 0 0.274277
      vertex 0.472137 -100 0.268921
      vertex 0.472137 0 0.268921
    endloop
  endfacet
  facet normal 0.21832 0 0.975877
    outer loop
      vertex 0.472137 -100 0.268921
      vertex 0.448196 0 0.274277
      vertex 0.448196 -100 0.274277
    endloop
  endfacet
  facet normal 0.707086 -0 0.707127
    outer loop
      vertex 0.64241 -100 0.175308
      vertex 0.65976 0 0.157959
      vertex 0.64241 0 0.175308
    endloop
  endfacet
  facet normal 0.707086 0 0.707127
    outer loop
      vertex 0.65976 0 0.157959
      vertex 0.64241 -100 0.175308
      vertex 0.65976 -100 0.157959
    endloop
  endfacet
  facet normal 0.827041 -0 0.562141
    outer loop
      vertex 0.691025 -100 0.120163
      vertex 0.704819 0 0.0998688
      vertex 0.691025 0 0.120163
    endloop
  endfacet
  facet normal 0.827041 0 0.562141
    outer loop
      vertex 0.704819 0 0.0998688
      vertex 0.691025 -100 0.120163
      vertex 0.704819 -100 0.0998688
    endloop
  endfacet
  facet normal -0.940824 0 0.338897
    outer loop
      vertex 0.00346375 -100 0.011261
      vertex 0.0117798 0 0.0343475
      vertex 0.00346375 0 0.011261
    endloop
  endfacet
  facet normal -0.940824 0 0.338897
    outer loop
      vertex 0.0117798 0 0.0343475
      vertex 0.00346375 -100 0.011261
      vertex 0.0117798 -100 0.0343475
    endloop
  endfacet
  facet normal -0.707111 0 0.707103
    outer loop
      vertex 0.0902252 -100 0.157959
      vertex 0.107574 0 0.175308
      vertex 0.0902252 0 0.157959
    endloop
  endfacet
  facet normal -0.707111 0 0.707103
    outer loop
      vertex 0.107574 0 0.175308
      vertex 0.0902252 -100 0.157959
      vertex 0.107574 -100 0.175308
    endloop
  endfacet
  facet normal -0.509278 0 0.860602
    outer loop
      vertex 0.16568 0 0.220383
      vertex 0.186798 -100 0.23288
      vertex 0.186798 0 0.23288
    endloop
  endfacet
  facet normal -0.509278 0 0.860602
    outer loop
      vertex 0.186798 -100 0.23288
      vertex 0.16568 0 0.220383
      vertex 0.16568 -100 0.220383
    endloop
  endfacet
  facet normal -0.21832 0 0.975877
    outer loop
      vertex 0.277847 0 0.268921
      vertex 0.301788 -100 0.274277
      vertex 0.301788 0 0.274277
    endloop
  endfacet
  facet normal -0.21832 0 0.975877
    outer loop
      vertex 0.301788 -100 0.274277
      vertex 0.277847 0 0.268921
      vertex 0.277847 -100 0.268921
    endloop
  endfacet
  facet normal 0.453917 0 0.891044
    outer loop
      vertex 0.541321 0 0.244019
      vertex 0.563187 -100 0.23288
      vertex 0.563187 0 0.23288
    endloop
  endfacet
  facet normal 0.453917 0 0.891044
    outer loop
      vertex 0.563187 -100 0.23288
      vertex 0.541321 0 0.244019
      vertex 0.541321 -100 0.244019
    endloop
  endfacet
  facet normal 0.0311011 0 0.999516
    outer loop
      vertex 0.375 0 0.281189
      vertex 0.399521 -100 0.280426
      vertex 0.399521 0 0.280426
    endloop
  endfacet
  facet normal 0.0311011 0 0.999516
    outer loop
      vertex 0.399521 -100 0.280426
      vertex 0.375 0 0.281189
      vertex 0.375 -100 0.281189
    endloop
  endfacet
  facet normal -0.0310821 0 0.999517
    outer loop
      vertex 0.350464 0 0.280426
      vertex 0.375 -100 0.281189
      vertex 0.375 0 0.281189
    endloop
  endfacet
  facet normal -0.0310821 0 0.999517
    outer loop
      vertex 0.375 -100 0.281189
      vertex 0.350464 0 0.280426
      vertex 0.350464 -100 0.280426
    endloop
  endfacet
  facet normal 0.749879 -0 0.661574
    outer loop
      vertex 0.65976 -100 0.157959
      vertex 0.675995 0 0.139557
      vertex 0.65976 0 0.157959
    endloop
  endfacet
  facet normal 0.749879 0 0.661574
    outer loop
      vertex 0.675995 0 0.139557
      vertex 0.65976 -100 0.157959
      vertex 0.675995 -100 0.139557
    endloop
  endfacet
  facet normal 0.860764 -0 0.509003
    outer loop
      vertex 0.704819 -100 0.0998688
      vertex 0.717316 0 0.0787354
      vertex 0.704819 0 0.0998688
    endloop
  endfacet
  facet normal 0.860764 0 0.509003
    outer loop
      vertex 0.717316 0 0.0787354
      vertex 0.704819 -100 0.0998688
      vertex 0.717316 -100 0.0787354
    endloop
  endfacet
  facet normal 0.917697 -0 0.39728
    outer loop
      vertex 0.728455 -100 0.0568695
      vertex 0.738205 0 0.0343475
      vertex 0.728455 0 0.0568695
    endloop
  endfacet
  facet normal 0.917697 0 0.39728
    outer loop
      vertex 0.738205 0 0.0343475
      vertex 0.728455 -100 0.0568695
      vertex 0.738205 -100 0.0343475
    endloop
  endfacet
  facet normal 0.509278 0 0.860602
    outer loop
      vertex 0.563187 0 0.23288
      vertex 0.584305 -100 0.220383
      vertex 0.584305 0 0.220383
    endloop
  endfacet
  facet normal 0.509278 0 0.860602
    outer loop
      vertex 0.584305 -100 0.220383
      vertex 0.563187 0 0.23288
      vertex 0.563187 -100 0.23288
    endloop
  endfacet
  facet normal 0.338888 0 0.940827
    outer loop
      vertex 0.495712 0 0.26207
      vertex 0.518799 -100 0.253754
      vertex 0.518799 0 0.253754
    endloop
  endfacet
  facet normal 0.338888 0 0.940827
    outer loop
      vertex 0.518799 -100 0.253754
      vertex 0.495712 0 0.26207
      vertex 0.495712 -100 0.26207
    endloop
  endfacet
  facet normal 0.15603 0 0.987752
    outer loop
      vertex 0.42395 0 0.278107
      vertex 0.448196 -100 0.274277
      vertex 0.448196 0 0.274277
    endloop
  endfacet
  facet normal 0.15603 0 0.987752
    outer loop
      vertex 0.448196 -100 0.274277
      vertex 0.42395 0 0.278107
      vertex 0.42395 -100 0.278107
    endloop
  endfacet
  facet normal 0.661294 0 0.750127
    outer loop
      vertex 0.623993 0 0.191544
      vertex 0.64241 -100 0.175308
      vertex 0.64241 0 0.175308
    endloop
  endfacet
  facet normal 0.661294 0 0.750127
    outer loop
      vertex 0.64241 -100 0.175308
      vertex 0.623993 0 0.191544
      vertex 0.623993 -100 0.191544
    endloop
  endfacet
  facet normal 0.396765 0 0.91792
    outer loop
      vertex 0.518799 0 0.253754
      vertex 0.541321 -100 0.244019
      vertex 0.541321 0 0.244019
    endloop
  endfacet
  facet normal 0.396765 0 0.91792
    outer loop
      vertex 0.541321 -100 0.244019
      vertex 0.518799 0 0.253754
      vertex 0.518799 -100 0.253754
    endloop
  endfacet
endsolid OpenSCAD_Model
