solid OpenSCAD_Model
  facet normal 1 0 0
    outer loop
      vertex 3 50 18
      vertex 3 16.5 12
      vertex 3 50 8
    endloop
  endfacet
  facet normal 1 -0 0
    outer loop
      vertex 3 15 18
      vertex 3 16.5 12
      vertex 3 50 18
    endloop
  endfacet
  facet normal 1 0 0
    outer loop
      vertex 3 16.5 12
      vertex 3 15 18
      vertex 3 15 12
    endloop
  endfacet
  facet normal 1 0 0
    outer loop
      vertex 3 50 8
      vertex 3 16.5 12
      vertex 3 16.5 8
    endloop
  endfacet
  facet normal -0 0 1
    outer loop
      vertex 0 50 18
      vertex 3 15 18
      vertex 3 50 18
    endloop
  endfacet
  facet normal 0 0 1
    outer loop
      vertex 3 15 18
      vertex 0 50 18
      vertex 0 15 18
    endloop
  endfacet
  facet normal -0 0 1
    outer loop
      vertex 3 50 8
      vertex 77 16.5 8
      vertex 77 50 8
    endloop
  endfacet
  facet normal 0 0 1
    outer loop
      vertex 77 16.5 8
      vertex 3 50 8
      vertex 3 16.5 8
    endloop
  endfacet
  facet normal -1 0 0
    outer loop
      vertex 0 0 0
      vertex 0 15 2
      vertex 0 15 0
    endloop
  endfacet
  facet normal -1 -0 0
    outer loop
      vertex 0 15 2
      vertex 0 0 0
      vertex 0 0 2
    endloop
  endfacet
  facet normal -1 0 0
    outer loop
      vertex 0 15 0
      vertex 0 50 -5
      vertex 0 15 -5
    endloop
  endfacet
  facet normal -1 0 0
    outer loop
      vertex 0 15 2
      vertex 0 50 -5
      vertex 0 15 0
    endloop
  endfacet
  facet normal -1 0 0
    outer loop
      vertex 0 50 -5
      vertex 0 15 2
      vertex 0 50 18
    endloop
  endfacet
  facet normal -1 -0 0
    outer loop
      vertex 0 50 18
      vertex 0 15 2
      vertex 0 15 18
    endloop
  endfacet
  facet normal 0 1 0
    outer loop
      vertex 80 50 18
      vertex 77 50 8
      vertex 77 50 18
    endloop
  endfacet
  facet normal 0 1 0
    outer loop
      vertex 77 50 8
      vertex 77 50 0
      vertex 3 50 8
    endloop
  endfacet
  facet normal 0 1 -0
    outer loop
      vertex 80 50 -5
      vertex 77 50 8
      vertex 80 50 18
    endloop
  endfacet
  facet normal 0 1 0
    outer loop
      vertex 77 50 8
      vertex 80 50 -5
      vertex 77 50 0
    endloop
  endfacet
  facet normal 0 1 0
    outer loop
      vertex 77 50 0
      vertex 80 50 -5
      vertex 77 50 -5
    endloop
  endfacet
  facet normal 0 1 -0
    outer loop
      vertex 3 50 8
      vertex 0 50 18
      vertex 3 50 18
    endloop
  endfacet
  facet normal 0 1 0
    outer loop
      vertex 3 50 0
      vertex 3 50 8
      vertex 77 50 0
    endloop
  endfacet
  facet normal 0 1 0
    outer loop
      vertex 0 50 -5
      vertex 3 50 8
      vertex 3 50 0
    endloop
  endfacet
  facet normal 0 1 0
    outer loop
      vertex 0 50 -5
      vertex 3 50 0
      vertex 3 50 -5
    endloop
  endfacet
  facet normal 0 1 0
    outer loop
      vertex 3 50 8
      vertex 0 50 -5
      vertex 0 50 18
    endloop
  endfacet
  facet normal 0 -1 0
    outer loop
      vertex 0 15 18
      vertex 3 15 12
      vertex 3 15 18
    endloop
  endfacet
  facet normal 0 -1 0
    outer loop
      vertex 3 15 12
      vertex 25 15 11
      vertex 77 15 12
    endloop
  endfacet
  facet normal 0 -1 0
    outer loop
      vertex 3 15 12
      vertex 25 15 9
      vertex 25 15 11
    endloop
  endfacet
  facet normal 0 -1 -0
    outer loop
      vertex 25 15 9
      vertex 0 15 2
      vertex 55 15 9
    endloop
  endfacet
  facet normal 0 -1 -0
    outer loop
      vertex 3 15 12
      vertex 0 15 2
      vertex 25 15 9
    endloop
  endfacet
  facet normal 0 -1 0
    outer loop
      vertex 0 15 2
      vertex 3 15 12
      vertex 0 15 18
    endloop
  endfacet
  facet normal 0 -1 0
    outer loop
      vertex 77 15 12
      vertex 80 15 18
      vertex 77 15 18
    endloop
  endfacet
  facet normal 0 -1 0
    outer loop
      vertex 55 15 11
      vertex 77 15 12
      vertex 25 15 11
    endloop
  endfacet
  facet normal 0 -1 0
    outer loop
      vertex 55 15 9
      vertex 77 15 12
      vertex 55 15 11
    endloop
  endfacet
  facet normal 0 -1 0
    outer loop
      vertex 77 15 12
      vertex 80 15 2
      vertex 80 15 18
    endloop
  endfacet
  facet normal 0 -1 0
    outer loop
      vertex 55 15 9
      vertex 80 15 2
      vertex 77 15 12
    endloop
  endfacet
  facet normal 0 -1 0
    outer loop
      vertex 80 15 2
      vertex 55 15 9
      vertex 0 15 2
    endloop
  endfacet
  facet normal 1 -0 0
    outer loop
      vertex 80 0 2
      vertex 80 15 0
      vertex 80 15 2
    endloop
  endfacet
  facet normal 1 0 0
    outer loop
      vertex 80 15 0
      vertex 80 0 2
      vertex 80 0 0
    endloop
  endfacet
  facet normal 1 0 0
    outer loop
      vertex 80 15 2
      vertex 80 50 18
      vertex 80 15 18
    endloop
  endfacet
  facet normal 1 0 0
    outer loop
      vertex 80 50 18
      vertex 80 15 2
      vertex 80 50 -5
    endloop
  endfacet
  facet normal 1 -0 0
    outer loop
      vertex 80 15 0
      vertex 80 50 -5
      vertex 80 15 2
    endloop
  endfacet
  facet normal 1 0 0
    outer loop
      vertex 80 50 -5
      vertex 80 15 0
      vertex 80 15 -5
    endloop
  endfacet
  facet normal -0 0 1
    outer loop
      vertex 77 50 18
      vertex 80 15 18
      vertex 80 50 18
    endloop
  endfacet
  facet normal 0 0 1
    outer loop
      vertex 80 15 18
      vertex 77 50 18
      vertex 77 15 18
    endloop
  endfacet
  facet normal -1 0 0
    outer loop
      vertex 77 16.5 12
      vertex 77 50 8
      vertex 77 16.5 8
    endloop
  endfacet
  facet normal -1 0 0
    outer loop
      vertex 77 50 8
      vertex 77 16.5 12
      vertex 77 50 18
    endloop
  endfacet
  facet normal -1 0 0
    outer loop
      vertex 77 15 18
      vertex 77 16.5 12
      vertex 77 15 12
    endloop
  endfacet
  facet normal -1 0 0
    outer loop
      vertex 77 16.5 12
      vertex 77 15 18
      vertex 77 50 18
    endloop
  endfacet
  facet normal -0 0 1
    outer loop
      vertex 3 16.5 12
      vertex 77 15 12
      vertex 77 16.5 12
    endloop
  endfacet
  facet normal 0 0 1
    outer loop
      vertex 77 15 12
      vertex 3 16.5 12
      vertex 3 15 12
    endloop
  endfacet
  facet normal 0 1 0
    outer loop
      vertex 77 16.5 12
      vertex 55 16.5 11
      vertex 3 16.5 12
    endloop
  endfacet
  facet normal 0 1 0
    outer loop
      vertex 77 16.5 12
      vertex 55 16.5 9
      vertex 55 16.5 11
    endloop
  endfacet
  facet normal 0 1 0
    outer loop
      vertex 55 16.5 9
      vertex 77 16.5 8
      vertex 25 16.5 9
    endloop
  endfacet
  facet normal 0 1 -0
    outer loop
      vertex 77 16.5 8
      vertex 55 16.5 9
      vertex 77 16.5 12
    endloop
  endfacet
  facet normal 0 1 -0
    outer loop
      vertex 25 16.5 11
      vertex 3 16.5 12
      vertex 55 16.5 11
    endloop
  endfacet
  facet normal 0 1 -0
    outer loop
      vertex 25 16.5 9
      vertex 3 16.5 12
      vertex 25 16.5 11
    endloop
  endfacet
  facet normal 0 1 0
    outer loop
      vertex 25 16.5 9
      vertex 3 16.5 8
      vertex 3 16.5 12
    endloop
  endfacet
  facet normal 0 1 0
    outer loop
      vertex 3 16.5 8
      vertex 25 16.5 9
      vertex 77 16.5 8
    endloop
  endfacet
  facet normal -1 0 0
    outer loop
      vertex 55 15 9
      vertex 55 16.5 11
      vertex 55 16.5 9
    endloop
  endfacet
  facet normal -1 -0 0
    outer loop
      vertex 55 16.5 11
      vertex 55 15 9
      vertex 55 15 11
    endloop
  endfacet
  facet normal 0 0 -1
    outer loop
      vertex 25 15 11
      vertex 55 16.5 11
      vertex 55 15 11
    endloop
  endfacet
  facet normal -0 0 -1
    outer loop
      vertex 55 16.5 11
      vertex 25 15 11
      vertex 25 16.5 11
    endloop
  endfacet
  facet normal -0 0 1
    outer loop
      vertex 25 16.5 9
      vertex 55 15 9
      vertex 55 16.5 9
    endloop
  endfacet
  facet normal 0 0 1
    outer loop
      vertex 55 15 9
      vertex 25 16.5 9
      vertex 25 15 9
    endloop
  endfacet
  facet normal 1 -0 0
    outer loop
      vertex 25 15 11
      vertex 25 16.5 9
      vertex 25 16.5 11
    endloop
  endfacet
  facet normal 1 0 0
    outer loop
      vertex 25 16.5 9
      vertex 25 15 11
      vertex 25 15 9
    endloop
  endfacet
  facet normal 1 -0 0
    outer loop
      vertex 3 15 0
      vertex 3 50 -5
      vertex 3 50 0
    endloop
  endfacet
  facet normal 1 0 0
    outer loop
      vertex 3 50 -5
      vertex 3 15 0
      vertex 3 15 -5
    endloop
  endfacet
  facet normal 0 0 -1
    outer loop
      vertex 80 0 0
      vertex 77 15 0
      vertex 80 15 0
    endloop
  endfacet
  facet normal 0 0 -1
    outer loop
      vertex 77 15 0
      vertex 3 15 0
      vertex 77 50 0
    endloop
  endfacet
  facet normal 0 0 -1
    outer loop
      vertex 80 0 0
      vertex 3 15 0
      vertex 77 15 0
    endloop
  endfacet
  facet normal 0 0 -1
    outer loop
      vertex 0 0 0
      vertex 3 15 0
      vertex 80 0 0
    endloop
  endfacet
  facet normal -0 0 -1
    outer loop
      vertex 3 15 0
      vertex 0 0 0
      vertex 0 15 0
    endloop
  endfacet
  facet normal -0 0 -1
    outer loop
      vertex 77 50 0
      vertex 3 15 0
      vertex 3 50 0
    endloop
  endfacet
  facet normal 0 0 -1
    outer loop
      vertex 0 15 -5
      vertex 3 50 -5
      vertex 3 15 -5
    endloop
  endfacet
  facet normal -0 0 -1
    outer loop
      vertex 3 50 -5
      vertex 0 15 -5
      vertex 0 50 -5
    endloop
  endfacet
  facet normal 0 -1 0
    outer loop
      vertex 0 15 -5
      vertex 3 15 0
      vertex 0 15 0
    endloop
  endfacet
  facet normal 0 -1 -0
    outer loop
      vertex 3 15 0
      vertex 0 15 -5
      vertex 3 15 -5
    endloop
  endfacet
  facet normal 0 0 -1
    outer loop
      vertex 77 15 -5
      vertex 80 50 -5
      vertex 80 15 -5
    endloop
  endfacet
  facet normal -0 0 -1
    outer loop
      vertex 80 50 -5
      vertex 77 15 -5
      vertex 77 50 -5
    endloop
  endfacet
  facet normal -1 0 0
    outer loop
      vertex 77 15 -5
      vertex 77 50 0
      vertex 77 50 -5
    endloop
  endfacet
  facet normal -1 -0 0
    outer loop
      vertex 77 50 0
      vertex 77 15 -5
      vertex 77 15 0
    endloop
  endfacet
  facet normal 0 -1 0
    outer loop
      vertex 77 15 -5
      vertex 80 15 0
      vertex 77 15 0
    endloop
  endfacet
  facet normal 0 -1 -0
    outer loop
      vertex 80 15 0
      vertex 77 15 -5
      vertex 80 15 -5
    endloop
  endfacet
  facet normal -0 0 1
    outer loop
      vertex 0 15 2
      vertex 80 0 2
      vertex 80 15 2
    endloop
  endfacet
  facet normal 0 0 1
    outer loop
      vertex 80 0 2
      vertex 0 15 2
      vertex 0 0 2
    endloop
  endfacet
  facet normal 0 -1 0
    outer loop
      vertex 0 0 0
      vertex 80 0 2
      vertex 0 0 2
    endloop
  endfacet
  facet normal 0 -1 -0
    outer loop
      vertex 80 0 2
      vertex 0 0 0
      vertex 80 0 0
    endloop
  endfacet
endsolid OpenSCAD_Model
