solid OpenSCAD_Model
  facet normal 1 0 0
    outer loop
      vertex 40 20 3
      vertex 40 60 13
      vertex 40 20 13
    endloop
  endfacet
  facet normal 1 0 0
    outer loop
      vertex 40 60 13
      vertex 40 20 3
      vertex 40 60 0
    endloop
  endfacet
  facet normal 1 0 0
    outer loop
      vertex 40 0 0
      vertex 40 20 3
      vertex 40 0 3
    endloop
  endfacet
  facet normal 1 0 0
    outer loop
      vertex 40 20 3
      vertex 40 0 0
      vertex 40 60 0
    endloop
  endfacet
  facet normal -0 0 1
    outer loop
      vertex 0 60 13
      vertex 4 37 13
      vertex 4 60 13
    endloop
  endfacet
  facet normal 0 0 1
    outer loop
      vertex 0 20 13
      vertex 4 37 13
      vertex 0 60 13
    endloop
  endfacet
  facet normal 0 0 1
    outer loop
      vertex 4 37 13
      vertex 0 20 13
      vertex 4 35 13
    endloop
  endfacet
  facet normal 0 0 1
    outer loop
      vertex 4 35 13
      vertex 0 20 13
      vertex 4 20 13
    endloop
  endfacet
  facet normal -0 0 1
    outer loop
      vertex 4 37 13
      vertex 36 35 13
      vertex 36 37 13
    endloop
  endfacet
  facet normal 0 0 1
    outer loop
      vertex 36 35 13
      vertex 4 37 13
      vertex 4 35 13
    endloop
  endfacet
  facet normal 0 0 1
    outer loop
      vertex 36 37 13
      vertex 40 60 13
      vertex 36 60 13
    endloop
  endfacet
  facet normal 0 0 1
    outer loop
      vertex 40 60 13
      vertex 36 37 13
      vertex 40 20 13
    endloop
  endfacet
  facet normal -0 0 1
    outer loop
      vertex 36 35 13
      vertex 40 20 13
      vertex 36 37 13
    endloop
  endfacet
  facet normal 0 0 1
    outer loop
      vertex 40 20 13
      vertex 36 35 13
      vertex 36 20 13
    endloop
  endfacet
  facet normal -1 0 0
    outer loop
      vertex 0 60 0
      vertex 0 20 3
      vertex 0 60 13
    endloop
  endfacet
  facet normal -1 0 0
    outer loop
      vertex 0 0 0
      vertex 0 20 3
      vertex 0 60 0
    endloop
  endfacet
  facet normal -1 -0 0
    outer loop
      vertex 0 20 3
      vertex 0 0 0
      vertex 0 0 3
    endloop
  endfacet
  facet normal -1 -0 0
    outer loop
      vertex 0 60 13
      vertex 0 20 3
      vertex 0 20 13
    endloop
  endfacet
  facet normal 0 1 0
    outer loop
      vertex 36 37 13
      vertex 20 37 12
      vertex 4 37 13
    endloop
  endfacet
  facet normal 0 1 0
    outer loop
      vertex 36 37 13
      vertex 20.3138 37 11.9877
      vertex 20 37 12
    endloop
  endfacet
  facet normal 0 1 0
    outer loop
      vertex 36 37 13
      vertex 20.6257 37 11.9508
      vertex 20.3138 37 11.9877
    endloop
  endfacet
  facet normal 0 1 0
    outer loop
      vertex 36 37 13
      vertex 20.9338 37 11.8895
      vertex 20.6257 37 11.9508
    endloop
  endfacet
  facet normal 0 1 0
    outer loop
      vertex 36 37 13
      vertex 21.2361 37 11.8042
      vertex 20.9338 37 11.8895
    endloop
  endfacet
  facet normal 0 1 0
    outer loop
      vertex 36 37 13
      vertex 21.5307 37 11.6955
      vertex 21.2361 37 11.8042
    endloop
  endfacet
  facet normal 0 1 0
    outer loop
      vertex 36 37 13
      vertex 21.816 37 11.564
      vertex 21.5307 37 11.6955
    endloop
  endfacet
  facet normal 0 1 0
    outer loop
      vertex 36 37 13
      vertex 22.09 37 11.4106
      vertex 21.816 37 11.564
    endloop
  endfacet
  facet normal 0 1 0
    outer loop
      vertex 36 37 13
      vertex 22.3511 37 11.2361
      vertex 22.09 37 11.4106
    endloop
  endfacet
  facet normal 0 1 0
    outer loop
      vertex 36 37 13
      vertex 22.5978 37 11.0416
      vertex 22.3511 37 11.2361
    endloop
  endfacet
  facet normal 0 1 0
    outer loop
      vertex 36 37 13
      vertex 22.8284 37 10.8284
      vertex 22.5978 37 11.0416
    endloop
  endfacet
  facet normal 0 1 0
    outer loop
      vertex 36 37 13
      vertex 23.0416 37 10.5978
      vertex 22.8284 37 10.8284
    endloop
  endfacet
  facet normal 0 1 0
    outer loop
      vertex 36 37 13
      vertex 23.2361 37 10.3511
      vertex 23.0416 37 10.5978
    endloop
  endfacet
  facet normal 0 1 0
    outer loop
      vertex 36 37 13
      vertex 23.4106 37 10.09
      vertex 23.2361 37 10.3511
    endloop
  endfacet
  facet normal 0 1 0
    outer loop
      vertex 36 37 13
      vertex 23.564 37 9.81596
      vertex 23.4106 37 10.09
    endloop
  endfacet
  facet normal 0 1 0
    outer loop
      vertex 36 37 13
      vertex 23.6955 37 9.53073
      vertex 23.564 37 9.81596
    endloop
  endfacet
  facet normal 0 1 0
    outer loop
      vertex 36 37 13
      vertex 23.8042 37 9.23607
      vertex 23.6955 37 9.53073
    endloop
  endfacet
  facet normal 0 1 -0
    outer loop
      vertex 36 37 9
      vertex 23.8042 37 9.23607
      vertex 36 37 13
    endloop
  endfacet
  facet normal 0 1 0
    outer loop
      vertex 23.8042 37 9.23607
      vertex 36 37 9
      vertex 23.8708 37 9
    endloop
  endfacet
  facet normal 0 1 -0
    outer loop
      vertex 19.6862 37 11.9877
      vertex 4 37 13
      vertex 20 37 12
    endloop
  endfacet
  facet normal 0 1 -0
    outer loop
      vertex 19.3743 37 11.9508
      vertex 4 37 13
      vertex 19.6862 37 11.9877
    endloop
  endfacet
  facet normal 0 1 -0
    outer loop
      vertex 19.0662 37 11.8895
      vertex 4 37 13
      vertex 19.3743 37 11.9508
    endloop
  endfacet
  facet normal 0 1 -0
    outer loop
      vertex 18.7639 37 11.8042
      vertex 4 37 13
      vertex 19.0662 37 11.8895
    endloop
  endfacet
  facet normal 0 1 -0
    outer loop
      vertex 18.4693 37 11.6955
      vertex 4 37 13
      vertex 18.7639 37 11.8042
    endloop
  endfacet
  facet normal 0 1 -0
    outer loop
      vertex 18.184 37 11.564
      vertex 4 37 13
      vertex 18.4693 37 11.6955
    endloop
  endfacet
  facet normal 0 1 -0
    outer loop
      vertex 17.91 37 11.4106
      vertex 4 37 13
      vertex 18.184 37 11.564
    endloop
  endfacet
  facet normal 0 1 -0
    outer loop
      vertex 17.6489 37 11.2361
      vertex 4 37 13
      vertex 17.91 37 11.4106
    endloop
  endfacet
  facet normal 0 1 -0
    outer loop
      vertex 17.4022 37 11.0416
      vertex 4 37 13
      vertex 17.6489 37 11.2361
    endloop
  endfacet
  facet normal 0 1 -0
    outer loop
      vertex 17.1716 37 10.8284
      vertex 4 37 13
      vertex 17.4022 37 11.0416
    endloop
  endfacet
  facet normal 0 1 -0
    outer loop
      vertex 16.9584 37 10.5978
      vertex 4 37 13
      vertex 17.1716 37 10.8284
    endloop
  endfacet
  facet normal 0 1 -0
    outer loop
      vertex 16.7639 37 10.3511
      vertex 4 37 13
      vertex 16.9584 37 10.5978
    endloop
  endfacet
  facet normal 0 1 -0
    outer loop
      vertex 16.5894 37 10.09
      vertex 4 37 13
      vertex 16.7639 37 10.3511
    endloop
  endfacet
  facet normal 0 1 -0
    outer loop
      vertex 16.436 37 9.81596
      vertex 4 37 13
      vertex 16.5894 37 10.09
    endloop
  endfacet
  facet normal 0 1 -0
    outer loop
      vertex 16.3045 37 9.53073
      vertex 4 37 13
      vertex 16.436 37 9.81596
    endloop
  endfacet
  facet normal 0 1 -0
    outer loop
      vertex 16.1958 37 9.23607
      vertex 4 37 13
      vertex 16.3045 37 9.53073
    endloop
  endfacet
  facet normal 0 1 0
    outer loop
      vertex 4 37 9
      vertex 16.1958 37 9.23607
      vertex 16.1292 37 9
    endloop
  endfacet
  facet normal 0 1 0
    outer loop
      vertex 16.1958 37 9.23607
      vertex 4 37 9
      vertex 4 37 13
    endloop
  endfacet
  facet normal 0 -1 0
    outer loop
      vertex 4 35 13
      vertex 20 35 12
      vertex 36 35 13
    endloop
  endfacet
  facet normal 0 -1 0
    outer loop
      vertex 4 35 13
      vertex 19.6862 35 11.9877
      vertex 20 35 12
    endloop
  endfacet
  facet normal 0 -1 0
    outer loop
      vertex 4 35 13
      vertex 19.3743 35 11.9508
      vertex 19.6862 35 11.9877
    endloop
  endfacet
  facet normal 0 -1 0
    outer loop
      vertex 4 35 13
      vertex 19.0662 35 11.8895
      vertex 19.3743 35 11.9508
    endloop
  endfacet
  facet normal 0 -1 0
    outer loop
      vertex 4 35 13
      vertex 18.7639 35 11.8042
      vertex 19.0662 35 11.8895
    endloop
  endfacet
  facet normal 0 -1 0
    outer loop
      vertex 4 35 13
      vertex 18.4693 35 11.6955
      vertex 18.7639 35 11.8042
    endloop
  endfacet
  facet normal 0 -1 0
    outer loop
      vertex 4 35 13
      vertex 18.184 35 11.564
      vertex 18.4693 35 11.6955
    endloop
  endfacet
  facet normal 0 -1 0
    outer loop
      vertex 4 35 13
      vertex 17.91 35 11.4106
      vertex 18.184 35 11.564
    endloop
  endfacet
  facet normal 0 -1 0
    outer loop
      vertex 4 35 13
      vertex 17.6489 35 11.2361
      vertex 17.91 35 11.4106
    endloop
  endfacet
  facet normal 0 -1 0
    outer loop
      vertex 4 35 13
      vertex 17.4022 35 11.0416
      vertex 17.6489 35 11.2361
    endloop
  endfacet
  facet normal 0 -1 0
    outer loop
      vertex 4 35 13
      vertex 17.1716 35 10.8284
      vertex 17.4022 35 11.0416
    endloop
  endfacet
  facet normal 0 -1 0
    outer loop
      vertex 4 35 13
      vertex 16.9584 35 10.5978
      vertex 17.1716 35 10.8284
    endloop
  endfacet
  facet normal 0 -1 0
    outer loop
      vertex 4 35 13
      vertex 16.7639 35 10.3511
      vertex 16.9584 35 10.5978
    endloop
  endfacet
  facet normal 0 -1 0
    outer loop
      vertex 4 35 13
      vertex 16.5894 35 10.09
      vertex 16.7639 35 10.3511
    endloop
  endfacet
  facet normal 0 -1 0
    outer loop
      vertex 4 35 13
      vertex 16.436 35 9.81596
      vertex 16.5894 35 10.09
    endloop
  endfacet
  facet normal 0 -1 0
    outer loop
      vertex 4 35 13
      vertex 16.3045 35 9.53073
      vertex 16.436 35 9.81596
    endloop
  endfacet
  facet normal 0 -1 0
    outer loop
      vertex 4 35 13
      vertex 16.1958 35 9.23607
      vertex 16.3045 35 9.53073
    endloop
  endfacet
  facet normal 0 -1 0
    outer loop
      vertex 4 35 9
      vertex 16.1958 35 9.23607
      vertex 4 35 13
    endloop
  endfacet
  facet normal 0 -1 0
    outer loop
      vertex 16.1958 35 9.23607
      vertex 4 35 9
      vertex 16.1292 35 9
    endloop
  endfacet
  facet normal 0 -1 0
    outer loop
      vertex 20.3138 35 11.9877
      vertex 36 35 13
      vertex 20 35 12
    endloop
  endfacet
  facet normal 0 -1 0
    outer loop
      vertex 20.6257 35 11.9508
      vertex 36 35 13
      vertex 20.3138 35 11.9877
    endloop
  endfacet
  facet normal 0 -1 0
    outer loop
      vertex 20.9338 35 11.8895
      vertex 36 35 13
      vertex 20.6257 35 11.9508
    endloop
  endfacet
  facet normal 0 -1 0
    outer loop
      vertex 21.2361 35 11.8042
      vertex 36 35 13
      vertex 20.9338 35 11.8895
    endloop
  endfacet
  facet normal 0 -1 0
    outer loop
      vertex 21.5307 35 11.6955
      vertex 36 35 13
      vertex 21.2361 35 11.8042
    endloop
  endfacet
  facet normal 0 -1 0
    outer loop
      vertex 21.816 35 11.564
      vertex 36 35 13
      vertex 21.5307 35 11.6955
    endloop
  endfacet
  facet normal 0 -1 0
    outer loop
      vertex 22.09 35 11.4106
      vertex 36 35 13
      vertex 21.816 35 11.564
    endloop
  endfacet
  facet normal 0 -1 0
    outer loop
      vertex 22.3511 35 11.2361
      vertex 36 35 13
      vertex 22.09 35 11.4106
    endloop
  endfacet
  facet normal 0 -1 0
    outer loop
      vertex 22.5978 35 11.0416
      vertex 36 35 13
      vertex 22.3511 35 11.2361
    endloop
  endfacet
  facet normal 0 -1 0
    outer loop
      vertex 22.8284 35 10.8284
      vertex 36 35 13
      vertex 22.5978 35 11.0416
    endloop
  endfacet
  facet normal 0 -1 0
    outer loop
      vertex 23.0416 35 10.5978
      vertex 36 35 13
      vertex 22.8284 35 10.8284
    endloop
  endfacet
  facet normal 0 -1 0
    outer loop
      vertex 23.2361 35 10.3511
      vertex 36 35 13
      vertex 23.0416 35 10.5978
    endloop
  endfacet
  facet normal 0 -1 0
    outer loop
      vertex 23.4106 35 10.09
      vertex 36 35 13
      vertex 23.2361 35 10.3511
    endloop
  endfacet
  facet normal 0 -1 0
    outer loop
      vertex 23.564 35 9.81596
      vertex 36 35 13
      vertex 23.4106 35 10.09
    endloop
  endfacet
  facet normal 0 -1 0
    outer loop
      vertex 23.6955 35 9.53073
      vertex 36 35 13
      vertex 23.564 35 9.81596
    endloop
  endfacet
  facet normal 0 -1 0
    outer loop
      vertex 23.8042 35 9.23607
      vertex 36 35 13
      vertex 23.6955 35 9.53073
    endloop
  endfacet
  facet normal 0 -1 0
    outer loop
      vertex 36 35 9
      vertex 23.8042 35 9.23607
      vertex 23.8708 35 9
    endloop
  endfacet
  facet normal 0 -1 0
    outer loop
      vertex 23.8042 35 9.23607
      vertex 36 35 9
      vertex 36 35 13
    endloop
  endfacet
  facet normal -0.908134 0 -0.418679
    outer loop
      vertex 23.6955 35 9.53073
      vertex 23.564 37 9.81596
      vertex 23.6955 37 9.53073
    endloop
  endfacet
  facet normal -0.908134 -0 -0.418679
    outer loop
      vertex 23.564 37 9.81596
      vertex 23.6955 35 9.53073
      vertex 23.564 35 9.81596
    endloop
  endfacet
  facet normal -0.555655 0 -0.831413
    outer loop
      vertex 22.09 35 11.4106
      vertex 22.3511 37 11.2361
      vertex 22.3511 35 11.2361
    endloop
  endfacet
  facet normal -0.555655 0 -0.831413
    outer loop
      vertex 22.3511 37 11.2361
      vertex 22.09 35 11.4106
      vertex 22.09 37 11.4106
    endloop
  endfacet
  facet normal 0.488506 0 -0.87256
    outer loop
      vertex 17.91 35 11.4106
      vertex 18.184 37 11.564
      vertex 18.184 35 11.564
    endloop
  endfacet
  facet normal 0.488506 0 -0.87256
    outer loop
      vertex 18.184 37 11.564
      vertex 17.91 35 11.4106
      vertex 17.91 37 11.4106
    endloop
  endfacet
  facet normal -0.195137 0 -0.980776
    outer loop
      vertex 20.6257 35 11.9508
      vertex 20.9338 37 11.8895
      vertex 20.9338 35 11.8895
    endloop
  endfacet
  facet normal -0.195137 0 -0.980776
    outer loop
      vertex 20.9338 37 11.8895
      vertex 20.6257 35 11.9508
      vertex 20.6257 37 11.9508
    endloop
  endfacet
  facet normal 0.117488 0 -0.993074
    outer loop
      vertex 19.3743 35 11.9508
      vertex 19.6862 37 11.9877
      vertex 19.6862 35 11.9877
    endloop
  endfacet
  facet normal 0.117488 0 -0.993074
    outer loop
      vertex 19.6862 37 11.9877
      vertex 19.3743 35 11.9508
      vertex 19.3743 37 11.9508
    endloop
  endfacet
  facet normal 0.678862 0 -0.734266
    outer loop
      vertex 17.1716 35 10.8284
      vertex 17.4022 37 11.0416
      vertex 17.4022 35 11.0416
    endloop
  endfacet
  facet normal 0.678862 0 -0.734266
    outer loop
      vertex 17.4022 37 11.0416
      vertex 17.1716 35 10.8284
      vertex 17.1716 37 10.8284
    endloop
  endfacet
  facet normal 0.346163 0 -0.938174
    outer loop
      vertex 18.4693 35 11.6955
      vertex 18.7639 37 11.8042
      vertex 18.7639 35 11.8042
    endloop
  endfacet
  facet normal 0.346163 0 -0.938174
    outer loop
      vertex 18.7639 37 11.8042
      vertex 18.4693 35 11.6955
      vertex 18.4693 37 11.6955
    endloop
  endfacet
  facet normal -0.962432 0 -0.271521
    outer loop
      vertex 23.8708 35 9
      vertex 23.8042 37 9.23607
      vertex 23.8708 37 9
    endloop
  endfacet
  facet normal -0.962432 -0 -0.271521
    outer loop
      vertex 23.8042 37 9.23607
      vertex 23.8708 35 9
      vertex 23.8042 35 9.23607
    endloop
  endfacet
  facet normal 0.734266 0 -0.678862
    outer loop
      vertex 17.1716 35 10.8284
      vertex 16.9584 37 10.5978
      vertex 17.1716 37 10.8284
    endloop
  endfacet
  facet normal 0.734266 0 -0.678862
    outer loop
      vertex 16.9584 37 10.5978
      vertex 17.1716 35 10.8284
      vertex 16.9584 35 10.5978
    endloop
  endfacet
  facet normal 0.195137 0 -0.980776
    outer loop
      vertex 19.0662 35 11.8895
      vertex 19.3743 37 11.9508
      vertex 19.3743 35 11.9508
    endloop
  endfacet
  facet normal 0.195137 0 -0.980776
    outer loop
      vertex 19.3743 37 11.9508
      vertex 19.0662 35 11.8895
      vertex 19.0662 37 11.8895
    endloop
  endfacet
  facet normal 0.271566 0 -0.96242
    outer loop
      vertex 18.7639 35 11.8042
      vertex 19.0662 37 11.8895
      vertex 19.0662 35 11.8895
    endloop
  endfacet
  facet normal 0.271566 0 -0.96242
    outer loop
      vertex 19.0662 37 11.8895
      vertex 18.7639 35 11.8042
      vertex 18.7639 37 11.8042
    endloop
  endfacet
  facet normal -0.872591 0 -0.488452
    outer loop
      vertex 23.564 35 9.81596
      vertex 23.4106 37 10.09
      vertex 23.564 37 9.81596
    endloop
  endfacet
  facet normal -0.872591 -0 -0.488452
    outer loop
      vertex 23.4106 37 10.09
      vertex 23.564 35 9.81596
      vertex 23.4106 35 10.09
    endloop
  endfacet
  facet normal -0.938197 0 -0.346101
    outer loop
      vertex 23.8042 35 9.23607
      vertex 23.6955 37 9.53073
      vertex 23.8042 37 9.23607
    endloop
  endfacet
  facet normal -0.938197 -0 -0.346101
    outer loop
      vertex 23.6955 37 9.53073
      vertex 23.8042 35 9.23607
      vertex 23.6955 35 9.53073
    endloop
  endfacet
  facet normal -0.831413 0 -0.555655
    outer loop
      vertex 23.4106 35 10.09
      vertex 23.2361 37 10.3511
      vertex 23.4106 37 10.09
    endloop
  endfacet
  facet normal -0.831413 -0 -0.555655
    outer loop
      vertex 23.2361 37 10.3511
      vertex 23.4106 35 10.09
      vertex 23.2361 35 10.3511
    endloop
  endfacet
  facet normal -0.418594 0 -0.908174
    outer loop
      vertex 21.5307 35 11.6955
      vertex 21.816 37 11.564
      vertex 21.816 35 11.564
    endloop
  endfacet
  facet normal -0.418594 0 -0.908174
    outer loop
      vertex 21.816 37 11.564
      vertex 21.5307 35 11.6955
      vertex 21.5307 37 11.6955
    endloop
  endfacet
  facet normal -0.346163 0 -0.938174
    outer loop
      vertex 21.2361 35 11.8042
      vertex 21.5307 37 11.6955
      vertex 21.5307 35 11.6955
    endloop
  endfacet
  facet normal -0.346163 0 -0.938174
    outer loop
      vertex 21.5307 37 11.6955
      vertex 21.2361 35 11.8042
      vertex 21.2361 37 11.8042
    endloop
  endfacet
  facet normal -0.619128 0 -0.78529
    outer loop
      vertex 22.3511 35 11.2361
      vertex 22.5978 37 11.0416
      vertex 22.5978 35 11.0416
    endloop
  endfacet
  facet normal -0.619128 0 -0.78529
    outer loop
      vertex 22.5978 37 11.0416
      vertex 22.3511 35 11.2361
      vertex 22.3511 37 11.2361
    endloop
  endfacet
  facet normal 0.555655 0 -0.831413
    outer loop
      vertex 17.6489 35 11.2361
      vertex 17.91 37 11.4106
      vertex 17.91 35 11.4106
    endloop
  endfacet
  facet normal 0.555655 0 -0.831413
    outer loop
      vertex 17.91 37 11.4106
      vertex 17.6489 35 11.2361
      vertex 17.6489 37 11.2361
    endloop
  endfacet
  facet normal 0.0391669 0 -0.999233
    outer loop
      vertex 19.6862 35 11.9877
      vertex 20 37 12
      vertex 20 35 12
    endloop
  endfacet
  facet normal 0.0391669 0 -0.999233
    outer loop
      vertex 20 37 12
      vertex 19.6862 35 11.9877
      vertex 19.6862 37 11.9877
    endloop
  endfacet
  facet normal 0.78529 0 -0.619128
    outer loop
      vertex 16.9584 35 10.5978
      vertex 16.7639 37 10.3511
      vertex 16.9584 37 10.5978
    endloop
  endfacet
  facet normal 0.78529 0 -0.619128
    outer loop
      vertex 16.7639 37 10.3511
      vertex 16.9584 35 10.5978
      vertex 16.7639 35 10.3511
    endloop
  endfacet
  facet normal -0.78529 0 -0.619128
    outer loop
      vertex 23.2361 35 10.3511
      vertex 23.0416 37 10.5978
      vertex 23.2361 37 10.3511
    endloop
  endfacet
  facet normal -0.78529 -0 -0.619128
    outer loop
      vertex 23.0416 37 10.5978
      vertex 23.2361 35 10.3511
      vertex 23.0416 35 10.5978
    endloop
  endfacet
  facet normal 0.962432 0 -0.271521
    outer loop
      vertex 16.1958 35 9.23607
      vertex 16.1292 37 9
      vertex 16.1958 37 9.23607
    endloop
  endfacet
  facet normal 0.962432 0 -0.271521
    outer loop
      vertex 16.1292 37 9
      vertex 16.1958 35 9.23607
      vertex 16.1292 35 9
    endloop
  endfacet
  facet normal -0.488506 0 -0.87256
    outer loop
      vertex 21.816 35 11.564
      vertex 22.09 37 11.4106
      vertex 22.09 35 11.4106
    endloop
  endfacet
  facet normal -0.488506 0 -0.87256
    outer loop
      vertex 22.09 37 11.4106
      vertex 21.816 35 11.564
      vertex 21.816 37 11.564
    endloop
  endfacet
  facet normal 0.418594 0 -0.908174
    outer loop
      vertex 18.184 35 11.564
      vertex 18.4693 37 11.6955
      vertex 18.4693 35 11.6955
    endloop
  endfacet
  facet normal 0.418594 0 -0.908174
    outer loop
      vertex 18.4693 37 11.6955
      vertex 18.184 35 11.564
      vertex 18.184 37 11.564
    endloop
  endfacet
  facet normal 0.619128 0 -0.78529
    outer loop
      vertex 17.4022 35 11.0416
      vertex 17.6489 37 11.2361
      vertex 17.6489 35 11.2361
    endloop
  endfacet
  facet normal 0.619128 0 -0.78529
    outer loop
      vertex 17.6489 37 11.2361
      vertex 17.4022 35 11.0416
      vertex 17.4022 37 11.0416
    endloop
  endfacet
  facet normal -0.678862 0 -0.734266
    outer loop
      vertex 22.5978 35 11.0416
      vertex 22.8284 37 10.8284
      vertex 22.8284 35 10.8284
    endloop
  endfacet
  facet normal -0.678862 0 -0.734266
    outer loop
      vertex 22.8284 37 10.8284
      vertex 22.5978 35 11.0416
      vertex 22.5978 37 11.0416
    endloop
  endfacet
  facet normal -0.271566 0 -0.96242
    outer loop
      vertex 20.9338 35 11.8895
      vertex 21.2361 37 11.8042
      vertex 21.2361 35 11.8042
    endloop
  endfacet
  facet normal -0.271566 0 -0.96242
    outer loop
      vertex 21.2361 37 11.8042
      vertex 20.9338 35 11.8895
      vertex 20.9338 37 11.8895
    endloop
  endfacet
  facet normal -0.0391669 0 -0.999233
    outer loop
      vertex 20 35 12
      vertex 20.3138 37 11.9877
      vertex 20.3138 35 11.9877
    endloop
  endfacet
  facet normal -0.0391669 0 -0.999233
    outer loop
      vertex 20.3138 37 11.9877
      vertex 20 35 12
      vertex 20 37 12
    endloop
  endfacet
  facet normal 0.938197 0 -0.346101
    outer loop
      vertex 16.3045 35 9.53073
      vertex 16.1958 37 9.23607
      vertex 16.3045 37 9.53073
    endloop
  endfacet
  facet normal 0.938197 0 -0.346101
    outer loop
      vertex 16.1958 37 9.23607
      vertex 16.3045 35 9.53073
      vertex 16.1958 35 9.23607
    endloop
  endfacet
  facet normal 0.908134 0 -0.418679
    outer loop
      vertex 16.436 35 9.81596
      vertex 16.3045 37 9.53073
      vertex 16.436 37 9.81596
    endloop
  endfacet
  facet normal 0.908134 0 -0.418679
    outer loop
      vertex 16.3045 37 9.53073
      vertex 16.436 35 9.81596
      vertex 16.3045 35 9.53073
    endloop
  endfacet
  facet normal -0.117488 0 -0.993074
    outer loop
      vertex 20.3138 35 11.9877
      vertex 20.6257 37 11.9508
      vertex 20.6257 35 11.9508
    endloop
  endfacet
  facet normal -0.117488 0 -0.993074
    outer loop
      vertex 20.6257 37 11.9508
      vertex 20.3138 35 11.9877
      vertex 20.3138 37 11.9877
    endloop
  endfacet
  facet normal 0.831413 0 -0.555655
    outer loop
      vertex 16.7639 35 10.3511
      vertex 16.5894 37 10.09
      vertex 16.7639 37 10.3511
    endloop
  endfacet
  facet normal 0.831413 0 -0.555655
    outer loop
      vertex 16.5894 37 10.09
      vertex 16.7639 35 10.3511
      vertex 16.5894 35 10.09
    endloop
  endfacet
  facet normal -0.734266 0 -0.678862
    outer loop
      vertex 23.0416 35 10.5978
      vertex 22.8284 37 10.8284
      vertex 23.0416 37 10.5978
    endloop
  endfacet
  facet normal -0.734266 -0 -0.678862
    outer loop
      vertex 22.8284 37 10.8284
      vertex 23.0416 35 10.5978
      vertex 22.8284 35 10.8284
    endloop
  endfacet
  facet normal 0.872591 0 -0.488452
    outer loop
      vertex 16.5894 35 10.09
      vertex 16.436 37 9.81596
      vertex 16.5894 37 10.09
    endloop
  endfacet
  facet normal 0.872591 0 -0.488452
    outer loop
      vertex 16.436 37 9.81596
      vertex 16.5894 35 10.09
      vertex 16.436 35 9.81596
    endloop
  endfacet
  facet normal -0 0 1
    outer loop
      vertex 0 20 3
      vertex 40 0 3
      vertex 40 20 3
    endloop
  endfacet
  facet normal 0 0 1
    outer loop
      vertex 40 0 3
      vertex 0 20 3
      vertex 0 0 3
    endloop
  endfacet
  facet normal 0 0 -1
    outer loop
      vertex 40 0 0
      vertex 35 20 0
      vertex 40 60 0
    endloop
  endfacet
  facet normal 0 0 -1
    outer loop
      vertex 40 0 0
      vertex 5 20 0
      vertex 35 20 0
    endloop
  endfacet
  facet normal 0 0 -1
    outer loop
      vertex 0 60 0
      vertex 5 20 0
      vertex 0 0 0
    endloop
  endfacet
  facet normal 0 0 -1
    outer loop
      vertex 0 0 0
      vertex 5 20 0
      vertex 40 0 0
    endloop
  endfacet
  facet normal 0 0 -1
    outer loop
      vertex 35 45 0
      vertex 40 60 0
      vertex 35 20 0
    endloop
  endfacet
  facet normal 0 0 -1
    outer loop
      vertex 5 45 0
      vertex 40 60 0
      vertex 35 45 0
    endloop
  endfacet
  facet normal 0 0 -1
    outer loop
      vertex 5 45 0
      vertex 0 60 0
      vertex 40 60 0
    endloop
  endfacet
  facet normal 0 0 -1
    outer loop
      vertex 5 20 0
      vertex 0 60 0
      vertex 5 45 0
    endloop
  endfacet
  facet normal 0 1 0
    outer loop
      vertex 40 60 13
      vertex 36 60 9
      vertex 36 60 13
    endloop
  endfacet
  facet normal 0 1 0
    outer loop
      vertex 36 60 9
      vertex 40 60 0
      vertex 4 60 9
    endloop
  endfacet
  facet normal 0 1 -0
    outer loop
      vertex 40 60 0
      vertex 36 60 9
      vertex 40 60 13
    endloop
  endfacet
  facet normal 0 1 -0
    outer loop
      vertex 4 60 9
      vertex 0 60 13
      vertex 4 60 13
    endloop
  endfacet
  facet normal 0 1 0
    outer loop
      vertex 4 60 9
      vertex 0 60 0
      vertex 0 60 13
    endloop
  endfacet
  facet normal 0 1 0
    outer loop
      vertex 0 60 0
      vertex 4 60 9
      vertex 40 60 0
    endloop
  endfacet
  facet normal 0 -1 0
    outer loop
      vertex 0 0 0
      vertex 40 0 3
      vertex 0 0 3
    endloop
  endfacet
  facet normal 0 -1 -0
    outer loop
      vertex 40 0 3
      vertex 0 0 0
      vertex 40 0 0
    endloop
  endfacet
  facet normal 0 0 1
    outer loop
      vertex 36 60 9
      vertex 23.8708 37 9
      vertex 36 37 9
    endloop
  endfacet
  facet normal 0 0 1
    outer loop
      vertex 23.8708 37 9
      vertex 16.1292 37 9
      vertex 23.8708 35 9
    endloop
  endfacet
  facet normal 0 0 1
    outer loop
      vertex 36 60 9
      vertex 16.1292 37 9
      vertex 23.8708 37 9
    endloop
  endfacet
  facet normal -0 0 1
    outer loop
      vertex 4 60 9
      vertex 16.1292 37 9
      vertex 36 60 9
    endloop
  endfacet
  facet normal 0 0 1
    outer loop
      vertex 16.1292 37 9
      vertex 4 60 9
      vertex 4 37 9
    endloop
  endfacet
  facet normal -0 0 1
    outer loop
      vertex 23.8708 35 9
      vertex 36 20 9
      vertex 36 35 9
    endloop
  endfacet
  facet normal 0 0 1
    outer loop
      vertex 16.1292 35 9
      vertex 23.8708 35 9
      vertex 16.1292 37 9
    endloop
  endfacet
  facet normal 0 0 1
    outer loop
      vertex 23.8708 35 9
      vertex 16.1292 35 9
      vertex 36 20 9
    endloop
  endfacet
  facet normal 0 0 1
    outer loop
      vertex 4 20 9
      vertex 16.1292 35 9
      vertex 4 35 9
    endloop
  endfacet
  facet normal 0 0 1
    outer loop
      vertex 16.1292 35 9
      vertex 4 20 9
      vertex 36 20 9
    endloop
  endfacet
  facet normal 0 -1 0
    outer loop
      vertex 0 20 13
      vertex 4 20 9
      vertex 4 20 13
    endloop
  endfacet
  facet normal 0 -1 -0
    outer loop
      vertex 4 20 9
      vertex 0 20 3
      vertex 36 20 9
    endloop
  endfacet
  facet normal 0 -1 0
    outer loop
      vertex 0 20 3
      vertex 4 20 9
      vertex 0 20 13
    endloop
  endfacet
  facet normal 0 -1 0
    outer loop
      vertex 36 20 9
      vertex 40 20 13
      vertex 36 20 13
    endloop
  endfacet
  facet normal 0 -1 0
    outer loop
      vertex 36 20 9
      vertex 40 20 3
      vertex 40 20 13
    endloop
  endfacet
  facet normal 0 -1 0
    outer loop
      vertex 40 20 3
      vertex 36 20 9
      vertex 0 20 3
    endloop
  endfacet
  facet normal 1 -0 0
    outer loop
      vertex 4 37 13
      vertex 4 60 9
      vertex 4 60 13
    endloop
  endfacet
  facet normal 1 0 0
    outer loop
      vertex 4 60 9
      vertex 4 37 13
      vertex 4 37 9
    endloop
  endfacet
  facet normal 1 -0 0
    outer loop
      vertex 4 20 13
      vertex 4 35 9
      vertex 4 35 13
    endloop
  endfacet
  facet normal 1 0 0
    outer loop
      vertex 4 35 9
      vertex 4 20 13
      vertex 4 20 9
    endloop
  endfacet
  facet normal -1 0 0
    outer loop
      vertex 36 37 9
      vertex 36 60 13
      vertex 36 60 9
    endloop
  endfacet
  facet normal -1 -0 0
    outer loop
      vertex 36 60 13
      vertex 36 37 9
      vertex 36 37 13
    endloop
  endfacet
  facet normal -1 0 0
    outer loop
      vertex 36 20 9
      vertex 36 35 13
      vertex 36 35 9
    endloop
  endfacet
  facet normal -1 -0 0
    outer loop
      vertex 36 35 13
      vertex 36 20 9
      vertex 36 20 13
    endloop
  endfacet
  facet normal 1 -0 0
    outer loop
      vertex 35 20 0
      vertex 35 45 -3
      vertex 35 45 0
    endloop
  endfacet
  facet normal 1 0 0
    outer loop
      vertex 35 45 -3
      vertex 35 20 0
      vertex 35 20 -3
    endloop
  endfacet
  facet normal 0 0 -1
    outer loop
      vertex 5 20 -3
      vertex 35 45 -3
      vertex 35 20 -3
    endloop
  endfacet
  facet normal -0 0 -1
    outer loop
      vertex 35 45 -3
      vertex 5 20 -3
      vertex 5 45 -3
    endloop
  endfacet
  facet normal -1 0 0
    outer loop
      vertex 5 20 -3
      vertex 5 45 0
      vertex 5 45 -3
    endloop
  endfacet
  facet normal -1 -0 0
    outer loop
      vertex 5 45 0
      vertex 5 20 -3
      vertex 5 20 0
    endloop
  endfacet
  facet normal 0 1 -0
    outer loop
      vertex 35 45 -3
      vertex 5 45 0
      vertex 35 45 0
    endloop
  endfacet
  facet normal 0 1 0
    outer loop
      vertex 5 45 0
      vertex 35 45 -3
      vertex 5 45 -3
    endloop
  endfacet
  facet normal 0 -1 0
    outer loop
      vertex 5 20 -3
      vertex 35 20 0
      vertex 5 20 0
    endloop
  endfacet
  facet normal 0 -1 -0
    outer loop
      vertex 35 20 0
      vertex 5 20 -3
      vertex 35 20 -3
    endloop
  endfacet
endsolid OpenSCAD_Model
