solid OpenSCAD_Model
  facet normal 1 -0 0
    outer loop
      vertex -32 -32 0
      vertex -32 -17 -4
      vertex -32 -17 0
    endloop
  endfacet
  facet normal 1 0 0
    outer loop
      vertex -32 -17 -4
      vertex -32 -32 0
      vertex -32 -32 -4
    endloop
  endfacet
  facet normal 0 0 -1
    outer loop
      vertex -44 -32 -4
      vertex -32 -17 -4
      vertex -32 -32 -4
    endloop
  endfacet
  facet normal -0 0 -1
    outer loop
      vertex -32 -17 -4
      vertex -44 -32 -4
      vertex -44 -17 -4
    endloop
  endfacet
  facet normal -1 0 0
    outer loop
      vertex -52 -32 -14
      vertex -52 -17 0
      vertex -52 -17 -14
    endloop
  endfacet
  facet normal -1 -0 0
    outer loop
      vertex -52 -17 0
      vertex -52 -32 -14
      vertex -52 -32 0
    endloop
  endfacet
  facet normal 0 1 0
    outer loop
      vertex -44 -17 -4
      vertex -32 -17 0
      vertex -32 -17 -4
    endloop
  endfacet
  facet normal 0 1 0
    outer loop
      vertex -32 -17 0
      vertex -44 -17 -4
      vertex -52 -17 0
    endloop
  endfacet
  facet normal 0 1 0
    outer loop
      vertex -52 -17 -14
      vertex -44 -17 -4
      vertex -44 -17 -14
    endloop
  endfacet
  facet normal 0 1 0
    outer loop
      vertex -44 -17 -4
      vertex -52 -17 -14
      vertex -52 -17 0
    endloop
  endfacet
  facet normal 0 -1 0
    outer loop
      vertex -52 -32 0
      vertex -44 -32 -4
      vertex -32 -32 0
    endloop
  endfacet
  facet normal 0 -1 0
    outer loop
      vertex -52 -32 -14
      vertex -44 -32 -4
      vertex -52 -32 0
    endloop
  endfacet
  facet normal 0 -1 -0
    outer loop
      vertex -44 -32 -4
      vertex -52 -32 -14
      vertex -44 -32 -14
    endloop
  endfacet
  facet normal 0 -1 -0
    outer loop
      vertex -32 -32 0
      vertex -44 -32 -4
      vertex -32 -32 -4
    endloop
  endfacet
  facet normal 1 -0 0
    outer loop
      vertex -44 -32 -4
      vertex -44 -17 -14
      vertex -44 -17 -4
    endloop
  endfacet
  facet normal 1 0 0
    outer loop
      vertex -44 -17 -14
      vertex -44 -32 -4
      vertex -44 -32 -14
    endloop
  endfacet
  facet normal 0 0 -1
    outer loop
      vertex -52 -32 -14
      vertex -44 -17 -14
      vertex -44 -32 -14
    endloop
  endfacet
  facet normal -0 0 -1
    outer loop
      vertex -44 -17 -14
      vertex -52 -32 -14
      vertex -52 -17 -14
    endloop
  endfacet
  facet normal 1 -0 0
    outer loop
      vertex -32 17 0
      vertex -32 32 -4
      vertex -32 32 0
    endloop
  endfacet
  facet normal 1 0 0
    outer loop
      vertex -32 32 -4
      vertex -32 17 0
      vertex -32 17 -4
    endloop
  endfacet
  facet normal 0 0 -1
    outer loop
      vertex -44 17 -4
      vertex -32 32 -4
      vertex -32 17 -4
    endloop
  endfacet
  facet normal -0 0 -1
    outer loop
      vertex -32 32 -4
      vertex -44 17 -4
      vertex -44 32 -4
    endloop
  endfacet
  facet normal -1 0 0
    outer loop
      vertex -52 17 -14
      vertex -52 32 0
      vertex -52 32 -14
    endloop
  endfacet
  facet normal -1 -0 0
    outer loop
      vertex -52 32 0
      vertex -52 17 -14
      vertex -52 17 0
    endloop
  endfacet
  facet normal 0 1 0
    outer loop
      vertex -44 32 -4
      vertex -32 32 0
      vertex -32 32 -4
    endloop
  endfacet
  facet normal 0 1 0
    outer loop
      vertex -32 32 0
      vertex -44 32 -4
      vertex -52 32 0
    endloop
  endfacet
  facet normal 0 1 0
    outer loop
      vertex -52 32 -14
      vertex -44 32 -4
      vertex -44 32 -14
    endloop
  endfacet
  facet normal 0 1 0
    outer loop
      vertex -44 32 -4
      vertex -52 32 -14
      vertex -52 32 0
    endloop
  endfacet
  facet normal 0 -1 0
    outer loop
      vertex -52 17 0
      vertex -44 17 -4
      vertex -32 17 0
    endloop
  endfacet
  facet normal 0 -1 0
    outer loop
      vertex -52 17 -14
      vertex -44 17 -4
      vertex -52 17 0
    endloop
  endfacet
  facet normal 0 -1 -0
    outer loop
      vertex -44 17 -4
      vertex -52 17 -14
      vertex -44 17 -14
    endloop
  endfacet
  facet normal 0 -1 -0
    outer loop
      vertex -32 17 0
      vertex -44 17 -4
      vertex -32 17 -4
    endloop
  endfacet
  facet normal 1 -0 0
    outer loop
      vertex -44 17 -4
      vertex -44 32 -14
      vertex -44 32 -4
    endloop
  endfacet
  facet normal 1 0 0
    outer loop
      vertex -44 32 -14
      vertex -44 17 -4
      vertex -44 17 -14
    endloop
  endfacet
  facet normal 0 0 -1
    outer loop
      vertex -52 17 -14
      vertex -44 32 -14
      vertex -44 17 -14
    endloop
  endfacet
  facet normal -0 0 -1
    outer loop
      vertex -44 32 -14
      vertex -52 17 -14
      vertex -52 32 -14
    endloop
  endfacet
  facet normal 1 -0 0
    outer loop
      vertex 52 -32 0
      vertex 52 -17 -14
      vertex 52 -17 0
    endloop
  endfacet
  facet normal 1 0 0
    outer loop
      vertex 52 -17 -14
      vertex 52 -32 0
      vertex 52 -32 -14
    endloop
  endfacet
  facet normal 0 0 -1
    outer loop
      vertex 32 -32 -4
      vertex 44 -17 -4
      vertex 44 -32 -4
    endloop
  endfacet
  facet normal -0 0 -1
    outer loop
      vertex 44 -17 -4
      vertex 32 -32 -4
      vertex 32 -17 -4
    endloop
  endfacet
  facet normal -1 0 0
    outer loop
      vertex 32 -32 -4
      vertex 32 -17 0
      vertex 32 -17 -4
    endloop
  endfacet
  facet normal -1 -0 0
    outer loop
      vertex 32 -17 0
      vertex 32 -32 -4
      vertex 32 -32 0
    endloop
  endfacet
  facet normal 0 1 0
    outer loop
      vertex 52 -17 0
      vertex 44 -17 -4
      vertex 32 -17 0
    endloop
  endfacet
  facet normal 0 1 -0
    outer loop
      vertex 52 -17 -14
      vertex 44 -17 -4
      vertex 52 -17 0
    endloop
  endfacet
  facet normal 0 1 0
    outer loop
      vertex 44 -17 -4
      vertex 52 -17 -14
      vertex 44 -17 -14
    endloop
  endfacet
  facet normal 0 1 0
    outer loop
      vertex 32 -17 0
      vertex 44 -17 -4
      vertex 32 -17 -4
    endloop
  endfacet
  facet normal 0 -1 0
    outer loop
      vertex 44 -32 -4
      vertex 32 -32 0
      vertex 32 -32 -4
    endloop
  endfacet
  facet normal 0 -1 0
    outer loop
      vertex 32 -32 0
      vertex 44 -32 -4
      vertex 52 -32 0
    endloop
  endfacet
  facet normal 0 -1 0
    outer loop
      vertex 52 -32 -14
      vertex 44 -32 -4
      vertex 44 -32 -14
    endloop
  endfacet
  facet normal 0 -1 0
    outer loop
      vertex 44 -32 -4
      vertex 52 -32 -14
      vertex 52 -32 0
    endloop
  endfacet
  facet normal 0 0 -1
    outer loop
      vertex 44 -32 -14
      vertex 52 -17 -14
      vertex 52 -32 -14
    endloop
  endfacet
  facet normal -0 0 -1
    outer loop
      vertex 52 -17 -14
      vertex 44 -32 -14
      vertex 44 -17 -14
    endloop
  endfacet
  facet normal -1 0 0
    outer loop
      vertex 44 -32 -14
      vertex 44 -17 -4
      vertex 44 -17 -14
    endloop
  endfacet
  facet normal -1 -0 0
    outer loop
      vertex 44 -17 -4
      vertex 44 -32 -14
      vertex 44 -32 -4
    endloop
  endfacet
  facet normal 1 -0 0
    outer loop
      vertex 52 17 0
      vertex 52 32 -14
      vertex 52 32 0
    endloop
  endfacet
  facet normal 1 0 0
    outer loop
      vertex 52 32 -14
      vertex 52 17 0
      vertex 52 17 -14
    endloop
  endfacet
  facet normal 0 0 -1
    outer loop
      vertex 32 17 -4
      vertex 44 32 -4
      vertex 44 17 -4
    endloop
  endfacet
  facet normal -0 0 -1
    outer loop
      vertex 44 32 -4
      vertex 32 17 -4
      vertex 32 32 -4
    endloop
  endfacet
  facet normal -1 0 0
    outer loop
      vertex 32 17 -4
      vertex 32 32 0
      vertex 32 32 -4
    endloop
  endfacet
  facet normal -1 -0 0
    outer loop
      vertex 32 32 0
      vertex 32 17 -4
      vertex 32 17 0
    endloop
  endfacet
  facet normal 0 1 0
    outer loop
      vertex 52 32 0
      vertex 44 32 -4
      vertex 32 32 0
    endloop
  endfacet
  facet normal 0 1 -0
    outer loop
      vertex 52 32 -14
      vertex 44 32 -4
      vertex 52 32 0
    endloop
  endfacet
  facet normal 0 1 0
    outer loop
      vertex 44 32 -4
      vertex 52 32 -14
      vertex 44 32 -14
    endloop
  endfacet
  facet normal 0 1 0
    outer loop
      vertex 32 32 0
      vertex 44 32 -4
      vertex 32 32 -4
    endloop
  endfacet
  facet normal 0 -1 0
    outer loop
      vertex 44 17 -4
      vertex 32 17 0
      vertex 32 17 -4
    endloop
  endfacet
  facet normal 0 -1 0
    outer loop
      vertex 32 17 0
      vertex 44 17 -4
      vertex 52 17 0
    endloop
  endfacet
  facet normal 0 -1 0
    outer loop
      vertex 52 17 -14
      vertex 44 17 -4
      vertex 44 17 -14
    endloop
  endfacet
  facet normal 0 -1 0
    outer loop
      vertex 44 17 -4
      vertex 52 17 -14
      vertex 52 17 0
    endloop
  endfacet
  facet normal 0 0 -1
    outer loop
      vertex 44 17 -14
      vertex 52 32 -14
      vertex 52 17 -14
    endloop
  endfacet
  facet normal -0 0 -1
    outer loop
      vertex 52 32 -14
      vertex 44 17 -14
      vertex 44 32 -14
    endloop
  endfacet
  facet normal -1 0 0
    outer loop
      vertex 44 17 -14
      vertex 44 32 -4
      vertex 44 32 -14
    endloop
  endfacet
  facet normal -1 -0 0
    outer loop
      vertex 44 32 -4
      vertex 44 17 -14
      vertex 44 17 -4
    endloop
  endfacet
  facet normal 1 -0 0
    outer loop
      vertex 60 -40 5
      vertex 60 40 0
      vertex 60 40 5
    endloop
  endfacet
  facet normal 1 0 0
    outer loop
      vertex 60 40 0
      vertex 60 -40 5
      vertex 60 -40 0
    endloop
  endfacet
  facet normal -0 0 1
    outer loop
      vertex -60 40 5
      vertex 60 -40 5
      vertex 60 40 5
    endloop
  endfacet
  facet normal 0 0 1
    outer loop
      vertex 60 -40 5
      vertex -60 40 5
      vertex -60 -40 5
    endloop
  endfacet
  facet normal 0 0 -1
    outer loop
      vertex -52 -17 0
      vertex -32 17 0
      vertex -32 -17 0
    endloop
  endfacet
  facet normal -0 0 -1
    outer loop
      vertex -32 17 0
      vertex -52 -17 0
      vertex -52 17 0
    endloop
  endfacet
  facet normal 0 0 -1
    outer loop
      vertex 32 -17 0
      vertex 52 17 0
      vertex 52 -17 0
    endloop
  endfacet
  facet normal -0 0 -1
    outer loop
      vertex 52 17 0
      vertex 32 -17 0
      vertex 32 17 0
    endloop
  endfacet
  facet normal 0 0 -1
    outer loop
      vertex 52 -17 0
      vertex 60 -40 0
      vertex 52 -32 0
    endloop
  endfacet
  facet normal 0 0 -1
    outer loop
      vertex 60 -40 0
      vertex 32 -32 0
      vertex 52 -32 0
    endloop
  endfacet
  facet normal 0 0 -1
    outer loop
      vertex -32 -17 0
      vertex 32 -17 0
      vertex 32 -32 0
    endloop
  endfacet
  facet normal 0 0 -1
    outer loop
      vertex 32 -17 0
      vertex -32 -17 0
      vertex 32 17 0
    endloop
  endfacet
  facet normal 0 0 -1
    outer loop
      vertex -32 -17 0
      vertex 32 -32 0
      vertex -32 -32 0
    endloop
  endfacet
  facet normal 0 0 -1
    outer loop
      vertex 60 -40 0
      vertex -32 -32 0
      vertex 32 -32 0
    endloop
  endfacet
  facet normal 0 0 -1
    outer loop
      vertex -60 -40 0
      vertex -32 -32 0
      vertex 60 -40 0
    endloop
  endfacet
  facet normal 0 0 -1
    outer loop
      vertex -60 -40 0
      vertex -52 -17 0
      vertex -52 -32 0
    endloop
  endfacet
  facet normal -0 0 -1
    outer loop
      vertex -52 -17 0
      vertex -60 -40 0
      vertex -52 17 0
    endloop
  endfacet
  facet normal 0 0 -1
    outer loop
      vertex -60 40 0
      vertex -52 17 0
      vertex -60 -40 0
    endloop
  endfacet
  facet normal -0 0 -1
    outer loop
      vertex -32 -32 0
      vertex -60 -40 0
      vertex -52 -32 0
    endloop
  endfacet
  facet normal 0 0 -1
    outer loop
      vertex 60 -40 0
      vertex 52 -17 0
      vertex 60 40 0
    endloop
  endfacet
  facet normal 0 0 -1
    outer loop
      vertex 52 17 0
      vertex 60 40 0
      vertex 52 -17 0
    endloop
  endfacet
  facet normal 0 0 -1
    outer loop
      vertex 52 32 0
      vertex 60 40 0
      vertex 52 17 0
    endloop
  endfacet
  facet normal 0 0 -1
    outer loop
      vertex 32 32 0
      vertex 60 40 0
      vertex 52 32 0
    endloop
  endfacet
  facet normal 0 0 -1
    outer loop
      vertex -32 17 0
      vertex 32 17 0
      vertex -32 -17 0
    endloop
  endfacet
  facet normal 0 0 -1
    outer loop
      vertex 32 17 0
      vertex -32 17 0
      vertex 32 32 0
    endloop
  endfacet
  facet normal 0 0 -1
    outer loop
      vertex -32 32 0
      vertex 32 32 0
      vertex -32 17 0
    endloop
  endfacet
  facet normal 0 0 -1
    outer loop
      vertex 32 32 0
      vertex -32 32 0
      vertex 60 40 0
    endloop
  endfacet
  facet normal 0 0 -1
    outer loop
      vertex -60 40 0
      vertex -32 32 0
      vertex -52 32 0
    endloop
  endfacet
  facet normal 0 0 -1
    outer loop
      vertex -32 32 0
      vertex -60 40 0
      vertex 60 40 0
    endloop
  endfacet
  facet normal 0 0 -1
    outer loop
      vertex -52 17 0
      vertex -60 40 0
      vertex -52 32 0
    endloop
  endfacet
  facet normal -1 0 0
    outer loop
      vertex -60 -40 0
      vertex -60 40 5
      vertex -60 40 0
    endloop
  endfacet
  facet normal -1 -0 0
    outer loop
      vertex -60 40 5
      vertex -60 -40 0
      vertex -60 -40 5
    endloop
  endfacet
  facet normal 0 1 -0
    outer loop
      vertex 60 40 0
      vertex -60 40 5
      vertex 60 40 5
    endloop
  endfacet
  facet normal 0 1 0
    outer loop
      vertex -60 40 5
      vertex 60 40 0
      vertex -60 40 0
    endloop
  endfacet
  facet normal 0 -1 0
    outer loop
      vertex -60 -40 0
      vertex 60 -40 5
      vertex -60 -40 5
    endloop
  endfacet
  facet normal 0 -1 -0
    outer loop
      vertex 60 -40 5
      vertex -60 -40 0
      vertex 60 -40 0
    endloop
  endfacet
endsolid OpenSCAD_Model
