solid OpenSCAD_Model
  facet normal 1 0 0
    outer loop
      vertex 80 60 50
      vertex 80 42.5 34.9
      vertex 80 60 0
    endloop
  endfacet
  facet normal 1 0 0
    outer loop
      vertex 80 60 50
      vertex 80 17.5 34.9
      vertex 80 42.5 34.9
    endloop
  endfacet
  facet normal 1 -0 0
    outer loop
      vertex 80 0 50
      vertex 80 17.5 34.9
      vertex 80 60 50
    endloop
  endfacet
  facet normal 1 0 0
    outer loop
      vertex 80 0 0
      vertex 80 17.5 34.9
      vertex 80 0 50
    endloop
  endfacet
  facet normal 1 0 0
    outer loop
      vertex 80 17.5 34.9
      vertex 80 0 0
      vertex 80 17.5 0
    endloop
  endfacet
  facet normal 1 0 0
    outer loop
      vertex 80 60 0
      vertex 80 42.5 34.9
      vertex 80 42.5 0
    endloop
  endfacet
  facet normal 0 0 1
    outer loop
      vertex 80 60 50
      vertex 79 59 50
      vertex 80 0 50
    endloop
  endfacet
  facet normal 0 0 1
    outer loop
      vertex 80 60 50
      vertex 1 59 50
      vertex 79 59 50
    endloop
  endfacet
  facet normal 0 0 1
    outer loop
      vertex 1 59 50
      vertex 0 60 50
      vertex 1 1 50
    endloop
  endfacet
  facet normal -0 0 1
    outer loop
      vertex 0 60 50
      vertex 1 59 50
      vertex 80 60 50
    endloop
  endfacet
  facet normal -0 0 1
    outer loop
      vertex 79 1 50
      vertex 80 0 50
      vertex 79 59 50
    endloop
  endfacet
  facet normal -0 0 1
    outer loop
      vertex 1 1 50
      vertex 80 0 50
      vertex 79 1 50
    endloop
  endfacet
  facet normal 0 0 1
    outer loop
      vertex 1 1 50
      vertex 0 0 50
      vertex 80 0 50
    endloop
  endfacet
  facet normal 0 0 1
    outer loop
      vertex 0 0 50
      vertex 1 1 50
      vertex 0 60 50
    endloop
  endfacet
  facet normal 0 0 -1
    outer loop
      vertex 80 0 0
      vertex 77 3 0
      vertex 80 17.5 0
    endloop
  endfacet
  facet normal 0 0 -1
    outer loop
      vertex 80 0 0
      vertex 3 3 0
      vertex 77 3 0
    endloop
  endfacet
  facet normal -0 0 -1
    outer loop
      vertex 3 3 0
      vertex 0 0 0
      vertex 3 57 0
    endloop
  endfacet
  facet normal 0 0 -1
    outer loop
      vertex 0 0 0
      vertex 3 3 0
      vertex 80 0 0
    endloop
  endfacet
  facet normal -0 0 -1
    outer loop
      vertex 80 17.5 0
      vertex 77 3 0
      vertex 77 17.5 0
    endloop
  endfacet
  facet normal 0 0 -1
    outer loop
      vertex 77 57 0
      vertex 80 42.5 0
      vertex 77 42.5 0
    endloop
  endfacet
  facet normal 0 0 -1
    outer loop
      vertex 80 42.5 0
      vertex 77 57 0
      vertex 80 60 0
    endloop
  endfacet
  facet normal 0 0 -1
    outer loop
      vertex 3 57 0
      vertex 80 60 0
      vertex 77 57 0
    endloop
  endfacet
  facet normal 0 0 -1
    outer loop
      vertex 3 57 0
      vertex 0 60 0
      vertex 80 60 0
    endloop
  endfacet
  facet normal 0 0 -1
    outer loop
      vertex 0 60 0
      vertex 3 57 0
      vertex 0 0 0
    endloop
  endfacet
  facet normal -1 0 0
    outer loop
      vertex 0 0 0
      vertex 0 60 50
      vertex 0 60 0
    endloop
  endfacet
  facet normal -1 -0 0
    outer loop
      vertex 0 60 50
      vertex 0 0 0
      vertex 0 0 50
    endloop
  endfacet
  facet normal 0 1 -0
    outer loop
      vertex 80 60 0
      vertex 0 60 50
      vertex 80 60 50
    endloop
  endfacet
  facet normal 0 1 0
    outer loop
      vertex 0 60 50
      vertex 80 60 0
      vertex 0 60 0
    endloop
  endfacet
  facet normal 0 -1 0
    outer loop
      vertex 0 0 50
      vertex 20 0 27
      vertex 80 0 50
    endloop
  endfacet
  facet normal 0 -1 0
    outer loop
      vertex 0 0 0
      vertex 20 0 27
      vertex 0 0 50
    endloop
  endfacet
  facet normal 0 -1 -0
    outer loop
      vertex 20 0 15
      vertex 0 0 0
      vertex 60 0 15
    endloop
  endfacet
  facet normal 0 -1 -0
    outer loop
      vertex 20 0 27
      vertex 0 0 0
      vertex 20 0 15
    endloop
  endfacet
  facet normal 0 -1 0
    outer loop
      vertex 60 0 27
      vertex 80 0 50
      vertex 20 0 27
    endloop
  endfacet
  facet normal 0 -1 0
    outer loop
      vertex 80 0 0
      vertex 60 0 27
      vertex 60 0 15
    endloop
  endfacet
  facet normal 0 -1 0
    outer loop
      vertex 60 0 27
      vertex 80 0 0
      vertex 80 0 50
    endloop
  endfacet
  facet normal 0 -1 0
    outer loop
      vertex 80 0 0
      vertex 60 0 15
      vertex 0 0 0
    endloop
  endfacet
  facet normal -1 0 0
    outer loop
      vertex 77 17.5 0
      vertex 77 7 25
      vertex 77 17.5 34.9
    endloop
  endfacet
  facet normal -1 0 0
    outer loop
      vertex 77 3 0
      vertex 77 7 25
      vertex 77 17.5 0
    endloop
  endfacet
  facet normal -1 -0 0
    outer loop
      vertex 77 7 25
      vertex 77 3 0
      vertex 77 3 25
    endloop
  endfacet
  facet normal -1 0 0
    outer loop
      vertex 77 42.5 34.9
      vertex 77 57 0
      vertex 77 42.5 0
    endloop
  endfacet
  facet normal -1 0 0
    outer loop
      vertex 77 57 0
      vertex 77 42.5 34.9
      vertex 77 57 46
    endloop
  endfacet
  facet normal -1 0 0
    outer loop
      vertex 77 17.5 34.9
      vertex 77 57 46
      vertex 77 42.5 34.9
    endloop
  endfacet
  facet normal -1 0 0
    outer loop
      vertex 77 7 26.5
      vertex 77 17.5 34.9
      vertex 77 7 25
    endloop
  endfacet
  facet normal -1 0 0
    outer loop
      vertex 77 3 46
      vertex 77 7 26.5
      vertex 77 3 26.5
    endloop
  endfacet
  facet normal -1 0 0
    outer loop
      vertex 77 17.5 34.9
      vertex 77 3 46
      vertex 77 57 46
    endloop
  endfacet
  facet normal -1 0 0
    outer loop
      vertex 77 7 26.5
      vertex 77 3 46
      vertex 77 17.5 34.9
    endloop
  endfacet
  facet normal 0 0 1
    outer loop
      vertex 79 59 46
      vertex 77 57 46
      vertex 79 1 46
    endloop
  endfacet
  facet normal 0 0 1
    outer loop
      vertex 79 59 46
      vertex 3 57 46
      vertex 77 57 46
    endloop
  endfacet
  facet normal 0 0 1
    outer loop
      vertex 3 57 46
      vertex 1 59 46
      vertex 3 3 46
    endloop
  endfacet
  facet normal -0 0 1
    outer loop
      vertex 1 59 46
      vertex 3 57 46
      vertex 79 59 46
    endloop
  endfacet
  facet normal -0 0 1
    outer loop
      vertex 77 3 46
      vertex 79 1 46
      vertex 77 57 46
    endloop
  endfacet
  facet normal -0 0 1
    outer loop
      vertex 3 3 46
      vertex 79 1 46
      vertex 77 3 46
    endloop
  endfacet
  facet normal 0 0 1
    outer loop
      vertex 3 3 46
      vertex 1 1 46
      vertex 79 1 46
    endloop
  endfacet
  facet normal 0 0 1
    outer loop
      vertex 1 1 46
      vertex 3 3 46
      vertex 1 59 46
    endloop
  endfacet
  facet normal 1 0 0
    outer loop
      vertex 3 7 25
      vertex 3 57 46
      vertex 3 7 26.5
    endloop
  endfacet
  facet normal 1 -0 0
    outer loop
      vertex 3 3 46
      vertex 3 7 26.5
      vertex 3 57 46
    endloop
  endfacet
  facet normal 1 0 0
    outer loop
      vertex 3 7 26.5
      vertex 3 3 46
      vertex 3 3 26.5
    endloop
  endfacet
  facet normal 1 0 0
    outer loop
      vertex 3 57 46
      vertex 3 7 25
      vertex 3 57 0
    endloop
  endfacet
  facet normal 1 0 0
    outer loop
      vertex 3 3 0
      vertex 3 7 25
      vertex 3 3 25
    endloop
  endfacet
  facet normal 1 0 0
    outer loop
      vertex 3 7 25
      vertex 3 3 0
      vertex 3 57 0
    endloop
  endfacet
  facet normal 0 -1 0
    outer loop
      vertex 3 57 0
      vertex 77 57 46
      vertex 3 57 46
    endloop
  endfacet
  facet normal 0 -1 -0
    outer loop
      vertex 77 57 46
      vertex 3 57 0
      vertex 77 57 0
    endloop
  endfacet
  facet normal 0 1 0
    outer loop
      vertex 77 3 46
      vertex 60 3 27
      vertex 3 3 46
    endloop
  endfacet
  facet normal 0 1 -0
    outer loop
      vertex 77 3 26.5
      vertex 60 3 27
      vertex 77 3 46
    endloop
  endfacet
  facet normal 0 1 0
    outer loop
      vertex 60 3 27
      vertex 77 3 26.5
      vertex 60 3 26.5
    endloop
  endfacet
  facet normal 0 1 -0
    outer loop
      vertex 20 3 27
      vertex 3 3 46
      vertex 60 3 27
    endloop
  endfacet
  facet normal 0 1 0
    outer loop
      vertex 3 3 26.5
      vertex 20 3 27
      vertex 20 3 26.5
    endloop
  endfacet
  facet normal 0 1 0
    outer loop
      vertex 20 3 27
      vertex 3 3 26.5
      vertex 3 3 46
    endloop
  endfacet
  facet normal 0 1 0
    outer loop
      vertex 77 3 25
      vertex 60 3 15
      vertex 60 3 25
    endloop
  endfacet
  facet normal 0 1 0
    outer loop
      vertex 60 3 15
      vertex 77 3 0
      vertex 20 3 15
    endloop
  endfacet
  facet normal 0 1 -0
    outer loop
      vertex 77 3 0
      vertex 60 3 15
      vertex 77 3 25
    endloop
  endfacet
  facet normal 0 1 -0
    outer loop
      vertex 20 3 15
      vertex 3 3 25
      vertex 20 3 25
    endloop
  endfacet
  facet normal 0 1 0
    outer loop
      vertex 20 3 15
      vertex 3 3 0
      vertex 3 3 25
    endloop
  endfacet
  facet normal 0 1 0
    outer loop
      vertex 3 3 0
      vertex 20 3 15
      vertex 77 3 0
    endloop
  endfacet
  facet normal 0 -1 0
    outer loop
      vertex 20 3 25
      vertex 60 3 26.5
      vertex 20 3 26.5
    endloop
  endfacet
  facet normal 0 -1 -0
    outer loop
      vertex 60 3 26.5
      vertex 20 3 25
      vertex 60 3 25
    endloop
  endfacet
  facet normal -1 0 0
    outer loop
      vertex 79 1 46
      vertex 79 59 50
      vertex 79 59 46
    endloop
  endfacet
  facet normal -1 -0 0
    outer loop
      vertex 79 59 50
      vertex 79 1 46
      vertex 79 1 50
    endloop
  endfacet
  facet normal 1 -0 0
    outer loop
      vertex 1 1 50
      vertex 1 59 46
      vertex 1 59 50
    endloop
  endfacet
  facet normal 1 0 0
    outer loop
      vertex 1 59 46
      vertex 1 1 50
      vertex 1 1 46
    endloop
  endfacet
  facet normal 0 -1 0
    outer loop
      vertex 1 59 46
      vertex 79 59 50
      vertex 1 59 50
    endloop
  endfacet
  facet normal 0 -1 -0
    outer loop
      vertex 79 59 50
      vertex 1 59 46
      vertex 79 59 46
    endloop
  endfacet
  facet normal 0 1 -0
    outer loop
      vertex 79 1 46
      vertex 1 1 50
      vertex 79 1 50
    endloop
  endfacet
  facet normal 0 1 0
    outer loop
      vertex 1 1 50
      vertex 79 1 46
      vertex 1 1 46
    endloop
  endfacet
  facet normal -1 0 0
    outer loop
      vertex 60 0 15
      vertex 60 3 25
      vertex 60 3 15
    endloop
  endfacet
  facet normal -1 0 0
    outer loop
      vertex 60 0 27
      vertex 60 3 25
      vertex 60 0 15
    endloop
  endfacet
  facet normal -1 0 0
    outer loop
      vertex 60 3 25
      vertex 60 0 27
      vertex 60 3 26.5
    endloop
  endfacet
  facet normal -1 0 0
    outer loop
      vertex 60 3 26.5
      vertex 60 0 27
      vertex 60 3 27
    endloop
  endfacet
  facet normal 0 0 -1
    outer loop
      vertex 20 0 27
      vertex 60 3 27
      vertex 60 0 27
    endloop
  endfacet
  facet normal -0 0 -1
    outer loop
      vertex 60 3 27
      vertex 20 0 27
      vertex 20 3 27
    endloop
  endfacet
  facet normal -0 0 1
    outer loop
      vertex 20 3 15
      vertex 60 0 15
      vertex 60 3 15
    endloop
  endfacet
  facet normal 0 0 1
    outer loop
      vertex 60 0 15
      vertex 20 3 15
      vertex 20 0 15
    endloop
  endfacet
  facet normal 1 -0 0
    outer loop
      vertex 20 0 27
      vertex 20 3 26.5
      vertex 20 3 27
    endloop
  endfacet
  facet normal 1 0 0
    outer loop
      vertex 20 3 26.5
      vertex 20 0 27
      vertex 20 3 25
    endloop
  endfacet
  facet normal 1 0 0
    outer loop
      vertex 20 0 15
      vertex 20 3 25
      vertex 20 0 27
    endloop
  endfacet
  facet normal 1 0 0
    outer loop
      vertex 20 3 25
      vertex 20 0 15
      vertex 20 3 15
    endloop
  endfacet
  facet normal 0 0 -1
    outer loop
      vertex 77 17.5 34.9
      vertex 80 42.5 34.9
      vertex 80 17.5 34.9
    endloop
  endfacet
  facet normal -0 0 -1
    outer loop
      vertex 80 42.5 34.9
      vertex 77 17.5 34.9
      vertex 77 42.5 34.9
    endloop
  endfacet
  facet normal 0 -1 0
    outer loop
      vertex 77 42.5 0
      vertex 80 42.5 34.9
      vertex 77 42.5 34.9
    endloop
  endfacet
  facet normal 0 -1 -0
    outer loop
      vertex 80 42.5 34.9
      vertex 77 42.5 0
      vertex 80 42.5 0
    endloop
  endfacet
  facet normal 0 1 -0
    outer loop
      vertex 80 17.5 0
      vertex 77 17.5 34.9
      vertex 80 17.5 34.9
    endloop
  endfacet
  facet normal 0 1 0
    outer loop
      vertex 77 17.5 34.9
      vertex 80 17.5 0
      vertex 77 17.5 0
    endloop
  endfacet
  facet normal 0 0 1
    outer loop
      vertex 77 7 26.5
      vertex 60 3 26.5
      vertex 77 3 26.5
    endloop
  endfacet
  facet normal 0 0 1
    outer loop
      vertex 77 7 26.5
      vertex 20 3 26.5
      vertex 60 3 26.5
    endloop
  endfacet
  facet normal -0 0 1
    outer loop
      vertex 3 7 26.5
      vertex 20 3 26.5
      vertex 77 7 26.5
    endloop
  endfacet
  facet normal 0 0 1
    outer loop
      vertex 20 3 26.5
      vertex 3 7 26.5
      vertex 3 3 26.5
    endloop
  endfacet
  facet normal 0 0 -1
    outer loop
      vertex 60 3 25
      vertex 77 7 25
      vertex 77 3 25
    endloop
  endfacet
  facet normal 0 0 -1
    outer loop
      vertex 20 3 25
      vertex 77 7 25
      vertex 60 3 25
    endloop
  endfacet
  facet normal 0 0 -1
    outer loop
      vertex 3 7 25
      vertex 20 3 25
      vertex 3 3 25
    endloop
  endfacet
  facet normal 0 0 -1
    outer loop
      vertex 20 3 25
      vertex 3 7 25
      vertex 77 7 25
    endloop
  endfacet
  facet normal 0 1 -0
    outer loop
      vertex 77 7 25
      vertex 3 7 26.5
      vertex 77 7 26.5
    endloop
  endfacet
  facet normal 0 1 0
    outer loop
      vertex 3 7 26.5
      vertex 77 7 25
      vertex 3 7 25
    endloop
  endfacet
endsolid OpenSCAD_Model
