solid OpenSCAD_Model
  facet normal 1 -0 0
    outer loop
      vertex 20 5 0
      vertex 20 17 -2
      vertex 20 17 0
    endloop
  endfacet
  facet normal 1 0 0
    outer loop
      vertex 20 17 -2
      vertex 20 5 0
      vertex 20 5 -2
    endloop
  endfacet
  facet normal 0 0 -1
    outer loop
      vertex 5 17 0
      vertex 20 43 0
      vertex 20 17 0
    endloop
  endfacet
  facet normal -0 0 -1
    outer loop
      vertex 20 43 0
      vertex 5 17 0
      vertex 5 43 0
    endloop
  endfacet
  facet normal 0 0 -1
    outer loop
      vertex 60 17 0
      vertex 75 43 0
      vertex 75 17 0
    endloop
  endfacet
  facet normal -0 0 -1
    outer loop
      vertex 75 43 0
      vertex 60 17 0
      vertex 60 43 0
    endloop
  endfacet
  facet normal 0 0 -1
    outer loop
      vertex 75 17 0
      vertex 80 0 0
      vertex 75 5 0
    endloop
  endfacet
  facet normal 0 0 -1
    outer loop
      vertex 80 0 0
      vertex 60 5 0
      vertex 75 5 0
    endloop
  endfacet
  facet normal 0 0 -1
    outer loop
      vertex 20 17 0
      vertex 60 17 0
      vertex 60 5 0
    endloop
  endfacet
  facet normal 0 0 -1
    outer loop
      vertex 60 17 0
      vertex 20 17 0
      vertex 60 43 0
    endloop
  endfacet
  facet normal 0 0 -1
    outer loop
      vertex 20 17 0
      vertex 60 5 0
      vertex 20 5 0
    endloop
  endfacet
  facet normal 0 0 -1
    outer loop
      vertex 80 0 0
      vertex 20 5 0
      vertex 60 5 0
    endloop
  endfacet
  facet normal 0 0 -1
    outer loop
      vertex 0 0 0
      vertex 20 5 0
      vertex 80 0 0
    endloop
  endfacet
  facet normal 0 0 -1
    outer loop
      vertex 0 0 0
      vertex 5 17 0
      vertex 5 5 0
    endloop
  endfacet
  facet normal -0 0 -1
    outer loop
      vertex 5 17 0
      vertex 0 0 0
      vertex 5 43 0
    endloop
  endfacet
  facet normal 0 0 -1
    outer loop
      vertex 0 60 0
      vertex 5 43 0
      vertex 0 0 0
    endloop
  endfacet
  facet normal -0 0 -1
    outer loop
      vertex 20 5 0
      vertex 0 0 0
      vertex 5 5 0
    endloop
  endfacet
  facet normal 0 0 -1
    outer loop
      vertex 80 0 0
      vertex 75 17 0
      vertex 80 60 0
    endloop
  endfacet
  facet normal 0 0 -1
    outer loop
      vertex 75 43 0
      vertex 80 60 0
      vertex 75 17 0
    endloop
  endfacet
  facet normal 0 0 -1
    outer loop
      vertex 75 55 0
      vertex 80 60 0
      vertex 75 43 0
    endloop
  endfacet
  facet normal 0 0 -1
    outer loop
      vertex 60 55 0
      vertex 80 60 0
      vertex 75 55 0
    endloop
  endfacet
  facet normal 0 0 -1
    outer loop
      vertex 20 43 0
      vertex 60 43 0
      vertex 20 17 0
    endloop
  endfacet
  facet normal 0 0 -1
    outer loop
      vertex 60 43 0
      vertex 20 43 0
      vertex 60 55 0
    endloop
  endfacet
  facet normal 0 0 -1
    outer loop
      vertex 20 55 0
      vertex 60 55 0
      vertex 20 43 0
    endloop
  endfacet
  facet normal 0 0 -1
    outer loop
      vertex 20 55 0
      vertex 80 60 0
      vertex 60 55 0
    endloop
  endfacet
  facet normal 0 0 -1
    outer loop
      vertex 0 60 0
      vertex 20 55 0
      vertex 5 55 0
    endloop
  endfacet
  facet normal 0 0 -1
    outer loop
      vertex 20 55 0
      vertex 0 60 0
      vertex 80 60 0
    endloop
  endfacet
  facet normal 0 0 -1
    outer loop
      vertex 5 43 0
      vertex 0 60 0
      vertex 5 55 0
    endloop
  endfacet
  facet normal 0 0 -1
    outer loop
      vertex 13 5 -2
      vertex 20 17 -2
      vertex 20 5 -2
    endloop
  endfacet
  facet normal -0 0 -1
    outer loop
      vertex 20 17 -2
      vertex 13 5 -2
      vertex 13 17 -2
    endloop
  endfacet
  facet normal -1 0 0
    outer loop
      vertex 5 5 -6
      vertex 5 17 0
      vertex 5 17 -6
    endloop
  endfacet
  facet normal -1 -0 0
    outer loop
      vertex 5 17 0
      vertex 5 5 -6
      vertex 5 5 0
    endloop
  endfacet
  facet normal 0 1 0
    outer loop
      vertex 13 17 -2
      vertex 20 17 0
      vertex 20 17 -2
    endloop
  endfacet
  facet normal 0 1 0
    outer loop
      vertex 20 17 0
      vertex 13 17 -2
      vertex 5 17 0
    endloop
  endfacet
  facet normal 0 1 0
    outer loop
      vertex 5 17 -6
      vertex 13 17 -2
      vertex 13 17 -6
    endloop
  endfacet
  facet normal 0 1 0
    outer loop
      vertex 13 17 -2
      vertex 5 17 -6
      vertex 5 17 0
    endloop
  endfacet
  facet normal 0 -1 0
    outer loop
      vertex 5 5 0
      vertex 13 5 -2
      vertex 20 5 0
    endloop
  endfacet
  facet normal 0 -1 0
    outer loop
      vertex 5 5 -6
      vertex 13 5 -2
      vertex 5 5 0
    endloop
  endfacet
  facet normal 0 -1 -0
    outer loop
      vertex 13 5 -2
      vertex 5 5 -6
      vertex 13 5 -6
    endloop
  endfacet
  facet normal 0 -1 -0
    outer loop
      vertex 20 5 0
      vertex 13 5 -2
      vertex 20 5 -2
    endloop
  endfacet
  facet normal 1 -0 0
    outer loop
      vertex 13 5 -2
      vertex 13 17 -6
      vertex 13 17 -2
    endloop
  endfacet
  facet normal 1 0 0
    outer loop
      vertex 13 17 -6
      vertex 13 5 -2
      vertex 13 5 -6
    endloop
  endfacet
  facet normal 0 0 -1
    outer loop
      vertex 5 5 -6
      vertex 13 17 -6
      vertex 13 5 -6
    endloop
  endfacet
  facet normal -0 0 -1
    outer loop
      vertex 13 17 -6
      vertex 5 5 -6
      vertex 5 17 -6
    endloop
  endfacet
  facet normal 1 -0 0
    outer loop
      vertex 75 5 0
      vertex 75 17 -6
      vertex 75 17 0
    endloop
  endfacet
  facet normal 1 0 0
    outer loop
      vertex 75 17 -6
      vertex 75 5 0
      vertex 75 5 -6
    endloop
  endfacet
  facet normal 0 0 -1
    outer loop
      vertex 60 5 -2
      vertex 67 17 -2
      vertex 67 5 -2
    endloop
  endfacet
  facet normal -0 0 -1
    outer loop
      vertex 67 17 -2
      vertex 60 5 -2
      vertex 60 17 -2
    endloop
  endfacet
  facet normal -1 0 0
    outer loop
      vertex 60 5 -2
      vertex 60 17 0
      vertex 60 17 -2
    endloop
  endfacet
  facet normal -1 -0 0
    outer loop
      vertex 60 17 0
      vertex 60 5 -2
      vertex 60 5 0
    endloop
  endfacet
  facet normal 0 1 0
    outer loop
      vertex 75 17 0
      vertex 67 17 -2
      vertex 60 17 0
    endloop
  endfacet
  facet normal 0 1 -0
    outer loop
      vertex 75 17 -6
      vertex 67 17 -2
      vertex 75 17 0
    endloop
  endfacet
  facet normal 0 1 0
    outer loop
      vertex 67 17 -2
      vertex 75 17 -6
      vertex 67 17 -6
    endloop
  endfacet
  facet normal 0 1 0
    outer loop
      vertex 60 17 0
      vertex 67 17 -2
      vertex 60 17 -2
    endloop
  endfacet
  facet normal 0 -1 0
    outer loop
      vertex 67 5 -2
      vertex 60 5 0
      vertex 60 5 -2
    endloop
  endfacet
  facet normal 0 -1 0
    outer loop
      vertex 60 5 0
      vertex 67 5 -2
      vertex 75 5 0
    endloop
  endfacet
  facet normal 0 -1 0
    outer loop
      vertex 75 5 -6
      vertex 67 5 -2
      vertex 67 5 -6
    endloop
  endfacet
  facet normal 0 -1 0
    outer loop
      vertex 67 5 -2
      vertex 75 5 -6
      vertex 75 5 0
    endloop
  endfacet
  facet normal 0 0 -1
    outer loop
      vertex 67 5 -6
      vertex 75 17 -6
      vertex 75 5 -6
    endloop
  endfacet
  facet normal -0 0 -1
    outer loop
      vertex 75 17 -6
      vertex 67 5 -6
      vertex 67 17 -6
    endloop
  endfacet
  facet normal -1 0 0
    outer loop
      vertex 67 5 -6
      vertex 67 17 -2
      vertex 67 17 -6
    endloop
  endfacet
  facet normal -1 -0 0
    outer loop
      vertex 67 17 -2
      vertex 67 5 -6
      vertex 67 5 -2
    endloop
  endfacet
  facet normal 1 -0 0
    outer loop
      vertex 20 43 0
      vertex 20 55 -2
      vertex 20 55 0
    endloop
  endfacet
  facet normal 1 0 0
    outer loop
      vertex 20 55 -2
      vertex 20 43 0
      vertex 20 43 -2
    endloop
  endfacet
  facet normal 0 0 -1
    outer loop
      vertex 13 43 -2
      vertex 20 55 -2
      vertex 20 43 -2
    endloop
  endfacet
  facet normal -0 0 -1
    outer loop
      vertex 20 55 -2
      vertex 13 43 -2
      vertex 13 55 -2
    endloop
  endfacet
  facet normal -1 0 0
    outer loop
      vertex 5 43 -6
      vertex 5 55 0
      vertex 5 55 -6
    endloop
  endfacet
  facet normal -1 -0 0
    outer loop
      vertex 5 55 0
      vertex 5 43 -6
      vertex 5 43 0
    endloop
  endfacet
  facet normal 0 1 0
    outer loop
      vertex 13 55 -2
      vertex 20 55 0
      vertex 20 55 -2
    endloop
  endfacet
  facet normal 0 1 0
    outer loop
      vertex 20 55 0
      vertex 13 55 -2
      vertex 5 55 0
    endloop
  endfacet
  facet normal 0 1 0
    outer loop
      vertex 5 55 -6
      vertex 13 55 -2
      vertex 13 55 -6
    endloop
  endfacet
  facet normal 0 1 0
    outer loop
      vertex 13 55 -2
      vertex 5 55 -6
      vertex 5 55 0
    endloop
  endfacet
  facet normal 0 -1 0
    outer loop
      vertex 5 43 0
      vertex 13 43 -2
      vertex 20 43 0
    endloop
  endfacet
  facet normal 0 -1 0
    outer loop
      vertex 5 43 -6
      vertex 13 43 -2
      vertex 5 43 0
    endloop
  endfacet
  facet normal 0 -1 -0
    outer loop
      vertex 13 43 -2
      vertex 5 43 -6
      vertex 13 43 -6
    endloop
  endfacet
  facet normal 0 -1 -0
    outer loop
      vertex 20 43 0
      vertex 13 43 -2
      vertex 20 43 -2
    endloop
  endfacet
  facet normal 1 -0 0
    outer loop
      vertex 13 43 -2
      vertex 13 55 -6
      vertex 13 55 -2
    endloop
  endfacet
  facet normal 1 0 0
    outer loop
      vertex 13 55 -6
      vertex 13 43 -2
      vertex 13 43 -6
    endloop
  endfacet
  facet normal 0 0 -1
    outer loop
      vertex 5 43 -6
      vertex 13 55 -6
      vertex 13 43 -6
    endloop
  endfacet
  facet normal -0 0 -1
    outer loop
      vertex 13 55 -6
      vertex 5 43 -6
      vertex 5 55 -6
    endloop
  endfacet
  facet normal 1 -0 0
    outer loop
      vertex 75 43 0
      vertex 75 55 -6
      vertex 75 55 0
    endloop
  endfacet
  facet normal 1 0 0
    outer loop
      vertex 75 55 -6
      vertex 75 43 0
      vertex 75 43 -6
    endloop
  endfacet
  facet normal 0 0 -1
    outer loop
      vertex 60 43 -2
      vertex 67 55 -2
      vertex 67 43 -2
    endloop
  endfacet
  facet normal -0 0 -1
    outer loop
      vertex 67 55 -2
      vertex 60 43 -2
      vertex 60 55 -2
    endloop
  endfacet
  facet normal -1 0 0
    outer loop
      vertex 60 43 -2
      vertex 60 55 0
      vertex 60 55 -2
    endloop
  endfacet
  facet normal -1 -0 0
    outer loop
      vertex 60 55 0
      vertex 60 43 -2
      vertex 60 43 0
    endloop
  endfacet
  facet normal 0 1 0
    outer loop
      vertex 75 55 0
      vertex 67 55 -2
      vertex 60 55 0
    endloop
  endfacet
  facet normal 0 1 -0
    outer loop
      vertex 75 55 -6
      vertex 67 55 -2
      vertex 75 55 0
    endloop
  endfacet
  facet normal 0 1 0
    outer loop
      vertex 67 55 -2
      vertex 75 55 -6
      vertex 67 55 -6
    endloop
  endfacet
  facet normal 0 1 0
    outer loop
      vertex 60 55 0
      vertex 67 55 -2
      vertex 60 55 -2
    endloop
  endfacet
  facet normal 0 -1 0
    outer loop
      vertex 67 43 -2
      vertex 60 43 0
      vertex 60 43 -2
    endloop
  endfacet
  facet normal 0 -1 0
    outer loop
      vertex 60 43 0
      vertex 67 43 -2
      vertex 75 43 0
    endloop
  endfacet
  facet normal 0 -1 0
    outer loop
      vertex 75 43 -6
      vertex 67 43 -2
      vertex 67 43 -6
    endloop
  endfacet
  facet normal 0 -1 0
    outer loop
      vertex 67 43 -2
      vertex 75 43 -6
      vertex 75 43 0
    endloop
  endfacet
  facet normal 0 0 -1
    outer loop
      vertex 67 43 -6
      vertex 75 55 -6
      vertex 75 43 -6
    endloop
  endfacet
  facet normal -0 0 -1
    outer loop
      vertex 75 55 -6
      vertex 67 43 -6
      vertex 67 55 -6
    endloop
  endfacet
  facet normal -1 0 0
    outer loop
      vertex 67 43 -6
      vertex 67 55 -2
      vertex 67 55 -6
    endloop
  endfacet
  facet normal -1 -0 0
    outer loop
      vertex 67 55 -2
      vertex 67 43 -6
      vertex 67 43 -2
    endloop
  endfacet
  facet normal 1 -0 0
    outer loop
      vertex 80 0 5
      vertex 80 60 0
      vertex 80 60 5
    endloop
  endfacet
  facet normal 1 0 0
    outer loop
      vertex 80 60 0
      vertex 80 0 5
      vertex 80 0 0
    endloop
  endfacet
  facet normal -0 0 1
    outer loop
      vertex 0 60 5
      vertex 80 0 5
      vertex 80 60 5
    endloop
  endfacet
  facet normal 0 0 1
    outer loop
      vertex 80 0 5
      vertex 0 60 5
      vertex 0 0 5
    endloop
  endfacet
  facet normal -1 0 0
    outer loop
      vertex 0 0 0
      vertex 0 60 5
      vertex 0 60 0
    endloop
  endfacet
  facet normal -1 -0 0
    outer loop
      vertex 0 60 5
      vertex 0 0 0
      vertex 0 0 5
    endloop
  endfacet
  facet normal 0 1 -0
    outer loop
      vertex 80 60 0
      vertex 0 60 5
      vertex 80 60 5
    endloop
  endfacet
  facet normal 0 1 0
    outer loop
      vertex 0 60 5
      vertex 80 60 0
      vertex 0 60 0
    endloop
  endfacet
  facet normal 0 -1 0
    outer loop
      vertex 0 0 0
      vertex 80 0 5
      vertex 0 0 5
    endloop
  endfacet
  facet normal 0 -1 -0
    outer loop
      vertex 80 0 5
      vertex 0 0 0
      vertex 80 0 0
    endloop
  endfacet
endsolid OpenSCAD_Model
