solid OpenSCAD_Model
  facet normal 1 0 0
    outer loop
      vertex 150 76 2
      vertex 150 80 62
      vertex 150 76 62
    endloop
  endfacet
  facet normal 1 0 0
    outer loop
      vertex 150 80 62
      vertex 150 76 2
      vertex 150 80 0
    endloop
  endfacet
  facet normal 1 0 0
    outer loop
      vertex 150 0 0
      vertex 150 76 2
      vertex 150 0 2
    endloop
  endfacet
  facet normal 1 0 0
    outer loop
      vertex 150 76 2
      vertex 150 0 0
      vertex 150 80 0
    endloop
  endfacet
  facet normal 0 0 1
    outer loop
      vertex 150 76 2
      vertex 70 55 2
      vertex 150 0 2
    endloop
  endfacet
  facet normal -0 0 1
    outer loop
      vertex 0 76 2
      vertex 70 55 2
      vertex 150 76 2
    endloop
  endfacet
  facet normal 0 0 1
    outer loop
      vertex 0 0 2
      vertex 20 55 2
      vertex 0 76 2
    endloop
  endfacet
  facet normal 0 0 1
    outer loop
      vertex 70 55 2
      vertex 0 76 2
      vertex 20 55 2
    endloop
  endfacet
  facet normal -0 0 1
    outer loop
      vertex 70 15 2
      vertex 150 0 2
      vertex 70 55 2
    endloop
  endfacet
  facet normal 0 0 1
    outer loop
      vertex 0 0 2
      vertex 70 15 2
      vertex 20 15 2
    endloop
  endfacet
  facet normal 0 0 1
    outer loop
      vertex 70 15 2
      vertex 0 0 2
      vertex 150 0 2
    endloop
  endfacet
  facet normal 0 0 1
    outer loop
      vertex 20 55 2
      vertex 0 0 2
      vertex 20 15 2
    endloop
  endfacet
  facet normal 0 0 -1
    outer loop
      vertex 70 55 0
      vertex 150 0 0
      vertex 70 15 0
    endloop
  endfacet
  facet normal 0 0 -1
    outer loop
      vertex 0 0 0
      vertex 70 15 0
      vertex 150 0 0
    endloop
  endfacet
  facet normal -0 0 -1
    outer loop
      vertex 20 15 0
      vertex 0 0 0
      vertex 20 55 0
    endloop
  endfacet
  facet normal -0 0 -1
    outer loop
      vertex 70 15 0
      vertex 0 0 0
      vertex 20 15 0
    endloop
  endfacet
  facet normal 0 0 -1
    outer loop
      vertex 150 0 0
      vertex 70 55 0
      vertex 150 80 0
    endloop
  endfacet
  facet normal 0 0 -1
    outer loop
      vertex 0 80 0
      vertex 70 55 0
      vertex 20 55 0
    endloop
  endfacet
  facet normal 0 0 -1
    outer loop
      vertex 70 55 0
      vertex 0 80 0
      vertex 150 80 0
    endloop
  endfacet
  facet normal 0 0 -1
    outer loop
      vertex 0 80 0
      vertex 20 55 0
      vertex 0 0 0
    endloop
  endfacet
  facet normal -1 0 0
    outer loop
      vertex 0 80 0
      vertex 0 76 2
      vertex 0 80 62
    endloop
  endfacet
  facet normal -1 0 0
    outer loop
      vertex 0 0 0
      vertex 0 76 2
      vertex 0 80 0
    endloop
  endfacet
  facet normal -1 -0 0
    outer loop
      vertex 0 76 2
      vertex 0 0 0
      vertex 0 0 2
    endloop
  endfacet
  facet normal -1 -0 0
    outer loop
      vertex 0 80 62
      vertex 0 76 2
      vertex 0 76 62
    endloop
  endfacet
  facet normal 0 1 0
    outer loop
      vertex 65 80 47
      vertex 150 80 62
      vertex 90 80 47
    endloop
  endfacet
  facet normal 0 1 0
    outer loop
      vertex 119.529 80 39.4852
      vertex 150 80 62
      vertex 120 80 39.5
    endloop
  endfacet
  facet normal 0 1 0
    outer loop
      vertex 150 80 62
      vertex 120.471 80 39.4852
      vertex 120 80 39.5
    endloop
  endfacet
  facet normal 0 1 0
    outer loop
      vertex 150 80 62
      vertex 120.94 80 39.4409
      vertex 120.471 80 39.4852
    endloop
  endfacet
  facet normal 0 1 0
    outer loop
      vertex 150 80 62
      vertex 121.405 80 39.3672
      vertex 120.94 80 39.4409
    endloop
  endfacet
  facet normal 0 1 0
    outer loop
      vertex 150 80 62
      vertex 121.865 80 39.2644
      vertex 121.405 80 39.3672
    endloop
  endfacet
  facet normal 0 1 0
    outer loop
      vertex 150 80 62
      vertex 122.318 80 39.1329
      vertex 121.865 80 39.2644
    endloop
  endfacet
  facet normal 0 1 0
    outer loop
      vertex 150 80 62
      vertex 122.761 80 38.9733
      vertex 122.318 80 39.1329
    endloop
  endfacet
  facet normal 0 1 0
    outer loop
      vertex 150 80 62
      vertex 123.193 80 38.7862
      vertex 122.761 80 38.9733
    endloop
  endfacet
  facet normal 0 1 0
    outer loop
      vertex 150 80 62
      vertex 123.613 80 38.5723
      vertex 123.193 80 38.7862
    endloop
  endfacet
  facet normal 0 1 0
    outer loop
      vertex 150 80 62
      vertex 124.019 80 38.3325
      vertex 123.613 80 38.5723
    endloop
  endfacet
  facet normal 0 1 0
    outer loop
      vertex 150 80 62
      vertex 124.408 80 38.0676
      vertex 124.019 80 38.3325
    endloop
  endfacet
  facet normal 0 1 0
    outer loop
      vertex 150 80 62
      vertex 124.781 80 37.7788
      vertex 124.408 80 38.0676
    endloop
  endfacet
  facet normal 0 1 0
    outer loop
      vertex 150 80 62
      vertex 125.134 80 37.4673
      vertex 124.781 80 37.7788
    endloop
  endfacet
  facet normal 0 1 0
    outer loop
      vertex 150 80 62
      vertex 125.467 80 37.1341
      vertex 125.134 80 37.4673
    endloop
  endfacet
  facet normal 0 1 0
    outer loop
      vertex 150 80 62
      vertex 125.779 80 36.7807
      vertex 125.467 80 37.1341
    endloop
  endfacet
  facet normal 0 1 0
    outer loop
      vertex 150 80 62
      vertex 126.068 80 36.4084
      vertex 125.779 80 36.7807
    endloop
  endfacet
  facet normal 0 1 0
    outer loop
      vertex 150 80 62
      vertex 126.332 80 36.0187
      vertex 126.068 80 36.4084
    endloop
  endfacet
  facet normal 0 1 0
    outer loop
      vertex 150 80 62
      vertex 126.572 80 35.6132
      vertex 126.332 80 36.0187
    endloop
  endfacet
  facet normal 0 1 0
    outer loop
      vertex 150 80 62
      vertex 126.786 80 35.1933
      vertex 126.572 80 35.6132
    endloop
  endfacet
  facet normal 0 1 0
    outer loop
      vertex 150 80 62
      vertex 126.973 80 34.7609
      vertex 126.786 80 35.1933
    endloop
  endfacet
  facet normal 0 1 0
    outer loop
      vertex 150 80 62
      vertex 127.133 80 34.3176
      vertex 126.973 80 34.7609
    endloop
  endfacet
  facet normal 0 1 0
    outer loop
      vertex 150 80 62
      vertex 127.264 80 33.8652
      vertex 127.133 80 34.3176
    endloop
  endfacet
  facet normal 0 1 0
    outer loop
      vertex 150 80 62
      vertex 127.367 80 33.4054
      vertex 127.264 80 33.8652
    endloop
  endfacet
  facet normal 0 1 0
    outer loop
      vertex 150 80 62
      vertex 127.441 80 32.94
      vertex 127.367 80 33.4054
    endloop
  endfacet
  facet normal 0 1 0
    outer loop
      vertex 150 80 62
      vertex 127.485 80 32.4709
      vertex 127.441 80 32.94
    endloop
  endfacet
  facet normal 0 1 0
    outer loop
      vertex 150 80 62
      vertex 127.5 80 32
      vertex 127.485 80 32.4709
    endloop
  endfacet
  facet normal 0 1 0
    outer loop
      vertex 150 80 62
      vertex 127.485 80 31.5291
      vertex 127.5 80 32
    endloop
  endfacet
  facet normal 0 1 -0
    outer loop
      vertex 150 80 0
      vertex 127.485 80 31.5291
      vertex 150 80 62
    endloop
  endfacet
  facet normal 0 1 0
    outer loop
      vertex 127.485 80 31.5291
      vertex 150 80 0
      vertex 127.441 80 31.06
    endloop
  endfacet
  facet normal 0 1 0
    outer loop
      vertex 127.441 80 31.06
      vertex 150 80 0
      vertex 127.367 80 30.5946
    endloop
  endfacet
  facet normal 0 1 0
    outer loop
      vertex 127.367 80 30.5946
      vertex 150 80 0
      vertex 127.264 80 30.1348
    endloop
  endfacet
  facet normal 0 1 0
    outer loop
      vertex 127.264 80 30.1348
      vertex 150 80 0
      vertex 127.133 80 29.6824
    endloop
  endfacet
  facet normal 0 1 0
    outer loop
      vertex 127.133 80 29.6824
      vertex 150 80 0
      vertex 126.973 80 29.2391
    endloop
  endfacet
  facet normal 0 1 0
    outer loop
      vertex 126.973 80 29.2391
      vertex 150 80 0
      vertex 126.786 80 28.8067
    endloop
  endfacet
  facet normal 0 1 0
    outer loop
      vertex 126.786 80 28.8067
      vertex 150 80 0
      vertex 126.572 80 28.3868
    endloop
  endfacet
  facet normal 0 1 0
    outer loop
      vertex 126.572 80 28.3868
      vertex 150 80 0
      vertex 126.332 80 27.9813
    endloop
  endfacet
  facet normal 0 1 0
    outer loop
      vertex 150 80 0
      vertex 120 80 24.5
      vertex 120.471 80 24.5148
    endloop
  endfacet
  facet normal 0 1 0
    outer loop
      vertex 120 80 24.5
      vertex 50 80 7
      vertex 50 80 22
    endloop
  endfacet
  facet normal 0 1 0
    outer loop
      vertex 150 80 0
      vertex 120.471 80 24.5148
      vertex 120.94 80 24.5591
    endloop
  endfacet
  facet normal 0 1 0
    outer loop
      vertex 150 80 0
      vertex 120.94 80 24.5591
      vertex 121.405 80 24.6328
    endloop
  endfacet
  facet normal 0 1 0
    outer loop
      vertex 150 80 0
      vertex 121.405 80 24.6328
      vertex 121.865 80 24.7356
    endloop
  endfacet
  facet normal 0 1 0
    outer loop
      vertex 0 80 0
      vertex 50 80 7
      vertex 150 80 0
    endloop
  endfacet
  facet normal 0 1 0
    outer loop
      vertex 120 80 24.5
      vertex 150 80 0
      vertex 50 80 7
    endloop
  endfacet
  facet normal 0 1 0
    outer loop
      vertex 122.318 80 24.8671
      vertex 150 80 0
      vertex 121.865 80 24.7356
    endloop
  endfacet
  facet normal 0 1 0
    outer loop
      vertex 122.761 80 25.0267
      vertex 150 80 0
      vertex 122.318 80 24.8671
    endloop
  endfacet
  facet normal 0 1 0
    outer loop
      vertex 123.193 80 25.2138
      vertex 150 80 0
      vertex 122.761 80 25.0267
    endloop
  endfacet
  facet normal 0 1 0
    outer loop
      vertex 123.613 80 25.4277
      vertex 150 80 0
      vertex 123.193 80 25.2138
    endloop
  endfacet
  facet normal 0 1 0
    outer loop
      vertex 124.019 80 25.6675
      vertex 150 80 0
      vertex 123.613 80 25.4277
    endloop
  endfacet
  facet normal 0 1 0
    outer loop
      vertex 124.408 80 25.9324
      vertex 150 80 0
      vertex 124.019 80 25.6675
    endloop
  endfacet
  facet normal 0 1 0
    outer loop
      vertex 124.781 80 26.2211
      vertex 150 80 0
      vertex 124.408 80 25.9324
    endloop
  endfacet
  facet normal 0 1 0
    outer loop
      vertex 125.134 80 26.5327
      vertex 150 80 0
      vertex 124.781 80 26.2211
    endloop
  endfacet
  facet normal 0 1 0
    outer loop
      vertex 125.467 80 26.8659
      vertex 150 80 0
      vertex 125.134 80 26.5327
    endloop
  endfacet
  facet normal 0 1 0
    outer loop
      vertex 125.779 80 27.2193
      vertex 150 80 0
      vertex 125.467 80 26.8659
    endloop
  endfacet
  facet normal 0 1 0
    outer loop
      vertex 126.068 80 27.5916
      vertex 150 80 0
      vertex 125.779 80 27.2193
    endloop
  endfacet
  facet normal 0 1 0
    outer loop
      vertex 126.332 80 27.9813
      vertex 150 80 0
      vertex 126.068 80 27.5916
    endloop
  endfacet
  facet normal 0 1 0
    outer loop
      vertex 150 80 62
      vertex 65 80 47
      vertex 0 80 62
    endloop
  endfacet
  facet normal 0 1 0
    outer loop
      vertex 50 80 22
      vertex 65 80 47
      vertex 65 80 37
    endloop
  endfacet
  facet normal 0 1 -0
    outer loop
      vertex 113.428 80 35.6132
      vertex 90 80 47
      vertex 113.668 80 36.0187
    endloop
  endfacet
  facet normal 0 1 0
    outer loop
      vertex 90 80 47
      vertex 113.428 80 35.6132
      vertex 90 80 37
    endloop
  endfacet
  facet normal 0 1 -0
    outer loop
      vertex 113.214 80 35.1933
      vertex 90 80 37
      vertex 113.428 80 35.6132
    endloop
  endfacet
  facet normal 0 1 -0
    outer loop
      vertex 113.027 80 34.7609
      vertex 90 80 37
      vertex 113.214 80 35.1933
    endloop
  endfacet
  facet normal 0 1 -0
    outer loop
      vertex 112.867 80 34.3176
      vertex 90 80 37
      vertex 113.027 80 34.7609
    endloop
  endfacet
  facet normal 0 1 -0
    outer loop
      vertex 112.736 80 33.8652
      vertex 90 80 37
      vertex 112.867 80 34.3176
    endloop
  endfacet
  facet normal 0 1 -0
    outer loop
      vertex 112.633 80 33.4054
      vertex 90 80 37
      vertex 112.736 80 33.8652
    endloop
  endfacet
  facet normal 0 1 -0
    outer loop
      vertex 112.559 80 32.94
      vertex 90 80 37
      vertex 112.633 80 33.4054
    endloop
  endfacet
  facet normal 0 1 -0
    outer loop
      vertex 112.515 80 32.4709
      vertex 90 80 37
      vertex 112.559 80 32.94
    endloop
  endfacet
  facet normal 0 1 -0
    outer loop
      vertex 112.5 80 32
      vertex 90 80 37
      vertex 112.515 80 32.4709
    endloop
  endfacet
  facet normal 0 1 0
    outer loop
      vertex 112.515 80 31.5291
      vertex 90 80 37
      vertex 112.5 80 32
    endloop
  endfacet
  facet normal 0 1 0
    outer loop
      vertex 112.559 80 31.06
      vertex 90 80 37
      vertex 112.515 80 31.5291
    endloop
  endfacet
  facet normal 0 1 0
    outer loop
      vertex 112.633 80 30.5946
      vertex 90 80 37
      vertex 112.559 80 31.06
    endloop
  endfacet
  facet normal 0 1 0
    outer loop
      vertex 112.736 80 30.1348
      vertex 90 80 37
      vertex 112.633 80 30.5946
    endloop
  endfacet
  facet normal 0 1 0
    outer loop
      vertex 112.867 80 29.6824
      vertex 90 80 37
      vertex 112.736 80 30.1348
    endloop
  endfacet
  facet normal 0 1 0
    outer loop
      vertex 113.027 80 29.2391
      vertex 90 80 37
      vertex 112.867 80 29.6824
    endloop
  endfacet
  facet normal 0 1 0
    outer loop
      vertex 113.214 80 28.8067
      vertex 90 80 37
      vertex 113.027 80 29.2391
    endloop
  endfacet
  facet normal 0 1 0
    outer loop
      vertex 113.428 80 28.3868
      vertex 90 80 37
      vertex 113.214 80 28.8067
    endloop
  endfacet
  facet normal 0 1 0
    outer loop
      vertex 113.668 80 27.9813
      vertex 90 80 37
      vertex 113.428 80 28.3868
    endloop
  endfacet
  facet normal 0 1 0
    outer loop
      vertex 113.932 80 27.5916
      vertex 90 80 37
      vertex 113.668 80 27.9813
    endloop
  endfacet
  facet normal 0 1 0
    outer loop
      vertex 114.221 80 27.2193
      vertex 90 80 37
      vertex 113.932 80 27.5916
    endloop
  endfacet
  facet normal 0 1 0
    outer loop
      vertex 114.533 80 26.8659
      vertex 90 80 37
      vertex 114.221 80 27.2193
    endloop
  endfacet
  facet normal 0 1 0
    outer loop
      vertex 114.866 80 26.5327
      vertex 90 80 37
      vertex 114.533 80 26.8659
    endloop
  endfacet
  facet normal 0 1 0
    outer loop
      vertex 115.219 80 26.2211
      vertex 90 80 37
      vertex 114.866 80 26.5327
    endloop
  endfacet
  facet normal 0 1 0
    outer loop
      vertex 90 80 37
      vertex 115.219 80 26.2211
      vertex 50 80 22
    endloop
  endfacet
  facet normal 0 1 0
    outer loop
      vertex 50 80 22
      vertex 115.219 80 26.2211
      vertex 115.592 80 25.9324
    endloop
  endfacet
  facet normal 0 1 0
    outer loop
      vertex 50 80 22
      vertex 115.592 80 25.9324
      vertex 115.981 80 25.6675
    endloop
  endfacet
  facet normal 0 1 0
    outer loop
      vertex 50 80 22
      vertex 115.981 80 25.6675
      vertex 116.387 80 25.4277
    endloop
  endfacet
  facet normal 0 1 0
    outer loop
      vertex 50 80 22
      vertex 116.387 80 25.4277
      vertex 116.807 80 25.2138
    endloop
  endfacet
  facet normal 0 1 0
    outer loop
      vertex 50 80 22
      vertex 116.807 80 25.2138
      vertex 117.239 80 25.0267
    endloop
  endfacet
  facet normal 0 1 0
    outer loop
      vertex 50 80 22
      vertex 117.239 80 25.0267
      vertex 117.682 80 24.8671
    endloop
  endfacet
  facet normal 0 1 0
    outer loop
      vertex 50 80 22
      vertex 117.682 80 24.8671
      vertex 118.135 80 24.7356
    endloop
  endfacet
  facet normal 0 1 0
    outer loop
      vertex 50 80 22
      vertex 119.529 80 24.5148
      vertex 120 80 24.5
    endloop
  endfacet
  facet normal 0 1 0
    outer loop
      vertex 50 80 22
      vertex 119.06 80 24.5591
      vertex 119.529 80 24.5148
    endloop
  endfacet
  facet normal 0 1 0
    outer loop
      vertex 50 80 22
      vertex 118.595 80 24.6328
      vertex 119.06 80 24.5591
    endloop
  endfacet
  facet normal 0 1 0
    outer loop
      vertex 50 80 22
      vertex 118.135 80 24.7356
      vertex 118.595 80 24.6328
    endloop
  endfacet
  facet normal 0 1 0
    outer loop
      vertex 90 80 37
      vertex 50 80 22
      vertex 65 80 37
    endloop
  endfacet
  facet normal 0 1 0
    outer loop
      vertex 65 80 47
      vertex 50 80 22
      vertex 0 80 62
    endloop
  endfacet
  facet normal 0 1 -0
    outer loop
      vertex 10 80 22
      vertex 0 80 62
      vertex 50 80 22
    endloop
  endfacet
  facet normal 0 1 0
    outer loop
      vertex 0 80 0
      vertex 10 80 22
      vertex 10 80 7
    endloop
  endfacet
  facet normal 0 1 0
    outer loop
      vertex 10 80 22
      vertex 0 80 0
      vertex 0 80 62
    endloop
  endfacet
  facet normal 0 1 0
    outer loop
      vertex 50 80 7
      vertex 0 80 0
      vertex 10 80 7
    endloop
  endfacet
  facet normal 0 1 0
    outer loop
      vertex 119.06 80 39.4409
      vertex 150 80 62
      vertex 119.529 80 39.4852
    endloop
  endfacet
  facet normal 0 1 0
    outer loop
      vertex 150 80 62
      vertex 119.06 80 39.4409
      vertex 90 80 47
    endloop
  endfacet
  facet normal 0 1 -0
    outer loop
      vertex 118.595 80 39.3672
      vertex 90 80 47
      vertex 119.06 80 39.4409
    endloop
  endfacet
  facet normal 0 1 -0
    outer loop
      vertex 118.135 80 39.2644
      vertex 90 80 47
      vertex 118.595 80 39.3672
    endloop
  endfacet
  facet normal 0 1 -0
    outer loop
      vertex 117.682 80 39.1329
      vertex 90 80 47
      vertex 118.135 80 39.2644
    endloop
  endfacet
  facet normal 0 1 -0
    outer loop
      vertex 117.239 80 38.9733
      vertex 90 80 47
      vertex 117.682 80 39.1329
    endloop
  endfacet
  facet normal 0 1 -0
    outer loop
      vertex 116.807 80 38.7862
      vertex 90 80 47
      vertex 117.239 80 38.9733
    endloop
  endfacet
  facet normal 0 1 -0
    outer loop
      vertex 116.387 80 38.5723
      vertex 90 80 47
      vertex 116.807 80 38.7862
    endloop
  endfacet
  facet normal 0 1 -0
    outer loop
      vertex 115.981 80 38.3325
      vertex 90 80 47
      vertex 116.387 80 38.5723
    endloop
  endfacet
  facet normal 0 1 -0
    outer loop
      vertex 115.592 80 38.0676
      vertex 90 80 47
      vertex 115.981 80 38.3325
    endloop
  endfacet
  facet normal 0 1 -0
    outer loop
      vertex 115.219 80 37.7788
      vertex 90 80 47
      vertex 115.592 80 38.0676
    endloop
  endfacet
  facet normal 0 1 -0
    outer loop
      vertex 114.866 80 37.4673
      vertex 90 80 47
      vertex 115.219 80 37.7788
    endloop
  endfacet
  facet normal 0 1 -0
    outer loop
      vertex 114.533 80 37.1341
      vertex 90 80 47
      vertex 114.866 80 37.4673
    endloop
  endfacet
  facet normal 0 1 -0
    outer loop
      vertex 114.221 80 36.7807
      vertex 90 80 47
      vertex 114.533 80 37.1341
    endloop
  endfacet
  facet normal 0 1 -0
    outer loop
      vertex 113.668 80 36.0187
      vertex 90 80 47
      vertex 113.932 80 36.4084
    endloop
  endfacet
  facet normal 0 1 -0
    outer loop
      vertex 113.932 80 36.4084
      vertex 90 80 47
      vertex 114.221 80 36.7807
    endloop
  endfacet
  facet normal 0 -1 0
    outer loop
      vertex 0 0 0
      vertex 150 0 2
      vertex 0 0 2
    endloop
  endfacet
  facet normal 0 -1 -0
    outer loop
      vertex 150 0 2
      vertex 0 0 0
      vertex 150 0 0
    endloop
  endfacet
  facet normal -0 0 1
    outer loop
      vertex 0 80 62
      vertex 150 76 62
      vertex 150 80 62
    endloop
  endfacet
  facet normal 0 0 1
    outer loop
      vertex 150 76 62
      vertex 0 80 62
      vertex 0 76 62
    endloop
  endfacet
  facet normal 0 -1 0
    outer loop
      vertex 150 76 62
      vertex 119.529 76 39.4852
      vertex 120 76 39.5
    endloop
  endfacet
  facet normal 0 -1 0
    outer loop
      vertex 150 76 62
      vertex 119.06 76 39.4409
      vertex 119.529 76 39.4852
    endloop
  endfacet
  facet normal 0 -1 0
    outer loop
      vertex 90 76 47
      vertex 118.595 76 39.3672
      vertex 119.06 76 39.4409
    endloop
  endfacet
  facet normal 0 -1 0
    outer loop
      vertex 90 76 47
      vertex 118.135 76 39.2644
      vertex 118.595 76 39.3672
    endloop
  endfacet
  facet normal 0 -1 0
    outer loop
      vertex 90 76 47
      vertex 117.682 76 39.1329
      vertex 118.135 76 39.2644
    endloop
  endfacet
  facet normal 0 -1 0
    outer loop
      vertex 90 76 47
      vertex 117.239 76 38.9733
      vertex 117.682 76 39.1329
    endloop
  endfacet
  facet normal 0 -1 0
    outer loop
      vertex 90 76 47
      vertex 116.807 76 38.7862
      vertex 117.239 76 38.9733
    endloop
  endfacet
  facet normal 0 -1 0
    outer loop
      vertex 90 76 47
      vertex 116.387 76 38.5723
      vertex 116.807 76 38.7862
    endloop
  endfacet
  facet normal 0 -1 0
    outer loop
      vertex 90 76 47
      vertex 115.981 76 38.3325
      vertex 116.387 76 38.5723
    endloop
  endfacet
  facet normal 0 -1 0
    outer loop
      vertex 90 76 47
      vertex 115.592 76 38.0676
      vertex 115.981 76 38.3325
    endloop
  endfacet
  facet normal 0 -1 0
    outer loop
      vertex 90 76 47
      vertex 115.219 76 37.7788
      vertex 115.592 76 38.0676
    endloop
  endfacet
  facet normal 0 -1 0
    outer loop
      vertex 90 76 47
      vertex 114.866 76 37.4673
      vertex 115.219 76 37.7788
    endloop
  endfacet
  facet normal 0 -1 0
    outer loop
      vertex 90 76 47
      vertex 114.533 76 37.1341
      vertex 114.866 76 37.4673
    endloop
  endfacet
  facet normal 0 -1 0
    outer loop
      vertex 113.428 76 35.6132
      vertex 90 76 47
      vertex 90 76 37
    endloop
  endfacet
  facet normal 0 -1 0
    outer loop
      vertex 90 76 47
      vertex 114.221 76 36.7807
      vertex 114.533 76 37.1341
    endloop
  endfacet
  facet normal 0 -1 0
    outer loop
      vertex 0 76 62
      vertex 65 76 47
      vertex 150 76 62
    endloop
  endfacet
  facet normal 0 -1 0
    outer loop
      vertex 50 76 22
      vertex 65 76 47
      vertex 0 76 62
    endloop
  endfacet
  facet normal 0 -1 0
    outer loop
      vertex 50 76 7
      vertex 90 76 37
      vertex 65 76 37
    endloop
  endfacet
  facet normal 0 -1 0
    outer loop
      vertex 90 76 47
      vertex 113.932 76 36.4084
      vertex 114.221 76 36.7807
    endloop
  endfacet
  facet normal 0 -1 0
    outer loop
      vertex 90 76 47
      vertex 113.668 76 36.0187
      vertex 113.932 76 36.4084
    endloop
  endfacet
  facet normal 0 -1 0
    outer loop
      vertex 90 76 47
      vertex 113.428 76 35.6132
      vertex 113.668 76 36.0187
    endloop
  endfacet
  facet normal 0 -1 0
    outer loop
      vertex 90 76 37
      vertex 113.214 76 35.1933
      vertex 113.428 76 35.6132
    endloop
  endfacet
  facet normal 0 -1 0
    outer loop
      vertex 90 76 37
      vertex 113.027 76 34.7609
      vertex 113.214 76 35.1933
    endloop
  endfacet
  facet normal 0 -1 0
    outer loop
      vertex 90 76 37
      vertex 112.867 76 34.3176
      vertex 113.027 76 34.7609
    endloop
  endfacet
  facet normal 0 -1 0
    outer loop
      vertex 90 76 37
      vertex 112.736 76 33.8652
      vertex 112.867 76 34.3176
    endloop
  endfacet
  facet normal 0 -1 0
    outer loop
      vertex 90 76 37
      vertex 112.633 76 33.4054
      vertex 112.736 76 33.8652
    endloop
  endfacet
  facet normal 0 -1 0
    outer loop
      vertex 90 76 37
      vertex 112.559 76 32.94
      vertex 112.633 76 33.4054
    endloop
  endfacet
  facet normal 0 -1 0
    outer loop
      vertex 90 76 37
      vertex 112.515 76 32.4709
      vertex 112.559 76 32.94
    endloop
  endfacet
  facet normal 0 -1 0
    outer loop
      vertex 90 76 37
      vertex 112.5 76 32
      vertex 112.515 76 32.4709
    endloop
  endfacet
  facet normal 0 -1 0
    outer loop
      vertex 90 76 37
      vertex 112.515 76 31.5291
      vertex 112.5 76 32
    endloop
  endfacet
  facet normal 0 -1 0
    outer loop
      vertex 90 76 37
      vertex 112.559 76 31.06
      vertex 112.515 76 31.5291
    endloop
  endfacet
  facet normal 0 -1 0
    outer loop
      vertex 90 76 37
      vertex 112.633 76 30.5946
      vertex 112.559 76 31.06
    endloop
  endfacet
  facet normal 0 -1 0
    outer loop
      vertex 90 76 37
      vertex 112.736 76 30.1348
      vertex 112.633 76 30.5946
    endloop
  endfacet
  facet normal 0 -1 0
    outer loop
      vertex 90 76 37
      vertex 112.867 76 29.6824
      vertex 112.736 76 30.1348
    endloop
  endfacet
  facet normal 0 -1 0
    outer loop
      vertex 90 76 37
      vertex 113.027 76 29.2391
      vertex 112.867 76 29.6824
    endloop
  endfacet
  facet normal 0 -1 0
    outer loop
      vertex 90 76 37
      vertex 113.214 76 28.8067
      vertex 113.027 76 29.2391
    endloop
  endfacet
  facet normal 0 -1 0
    outer loop
      vertex 90 76 37
      vertex 113.428 76 28.3868
      vertex 113.214 76 28.8067
    endloop
  endfacet
  facet normal 0 -1 0
    outer loop
      vertex 90 76 37
      vertex 113.668 76 27.9813
      vertex 113.428 76 28.3868
    endloop
  endfacet
  facet normal 0 -1 0
    outer loop
      vertex 90 76 37
      vertex 113.932 76 27.5916
      vertex 113.668 76 27.9813
    endloop
  endfacet
  facet normal -0 -1 0
    outer loop
      vertex 114.866 76 26.5327
      vertex 90 76 37
      vertex 50 76 7
    endloop
  endfacet
  facet normal 0 -1 0
    outer loop
      vertex 90 76 37
      vertex 114.221 76 27.2193
      vertex 113.932 76 27.5916
    endloop
  endfacet
  facet normal 0 -1 0
    outer loop
      vertex 90 76 37
      vertex 114.533 76 26.8659
      vertex 114.221 76 27.2193
    endloop
  endfacet
  facet normal 0 -1 0
    outer loop
      vertex 90 76 37
      vertex 114.866 76 26.5327
      vertex 114.533 76 26.8659
    endloop
  endfacet
  facet normal 0 -1 -0
    outer loop
      vertex 114.866 76 26.5327
      vertex 50 76 7
      vertex 115.219 76 26.2211
    endloop
  endfacet
  facet normal 0 -1 -0
    outer loop
      vertex 115.219 76 26.2211
      vertex 50 76 7
      vertex 115.592 76 25.9324
    endloop
  endfacet
  facet normal 0 -1 -0
    outer loop
      vertex 115.592 76 25.9324
      vertex 50 76 7
      vertex 115.981 76 25.6675
    endloop
  endfacet
  facet normal 0 -1 -0
    outer loop
      vertex 115.981 76 25.6675
      vertex 50 76 7
      vertex 116.387 76 25.4277
    endloop
  endfacet
  facet normal 0 -1 -0
    outer loop
      vertex 116.387 76 25.4277
      vertex 50 76 7
      vertex 116.807 76 25.2138
    endloop
  endfacet
  facet normal 0 -1 -0
    outer loop
      vertex 116.807 76 25.2138
      vertex 50 76 7
      vertex 117.239 76 25.0267
    endloop
  endfacet
  facet normal 0 -1 -0
    outer loop
      vertex 117.239 76 25.0267
      vertex 50 76 7
      vertex 117.682 76 24.8671
    endloop
  endfacet
  facet normal 0 -1 0
    outer loop
      vertex 118.135 76 24.7356
      vertex 150 76 2
      vertex 118.595 76 24.6328
    endloop
  endfacet
  facet normal 0 -1 0
    outer loop
      vertex 117.682 76 24.8671
      vertex 150 76 2
      vertex 118.135 76 24.7356
    endloop
  endfacet
  facet normal 0 -1 0
    outer loop
      vertex 150 76 2
      vertex 117.682 76 24.8671
      vertex 50 76 7
    endloop
  endfacet
  facet normal 0 -1 0
    outer loop
      vertex 50 76 7
      vertex 65 76 37
      vertex 50 76 22
    endloop
  endfacet
  facet normal 0 -1 -0
    outer loop
      vertex 65 76 47
      vertex 50 76 22
      vertex 65 76 37
    endloop
  endfacet
  facet normal 0 -1 0
    outer loop
      vertex 50 76 22
      vertex 0 76 62
      vertex 10 76 22
    endloop
  endfacet
  facet normal 0 -1 0
    outer loop
      vertex 0 76 2
      vertex 10 76 22
      vertex 0 76 62
    endloop
  endfacet
  facet normal 0 -1 -0
    outer loop
      vertex 10 76 7
      vertex 0 76 2
      vertex 50 76 7
    endloop
  endfacet
  facet normal 0 -1 -0
    outer loop
      vertex 10 76 22
      vertex 0 76 2
      vertex 10 76 7
    endloop
  endfacet
  facet normal 0 -1 0
    outer loop
      vertex 90 76 47
      vertex 150 76 62
      vertex 65 76 47
    endloop
  endfacet
  facet normal 0 -1 0
    outer loop
      vertex 119.06 76 39.4409
      vertex 150 76 62
      vertex 90 76 47
    endloop
  endfacet
  facet normal 0 -1 0
    outer loop
      vertex 120.471 76 39.4852
      vertex 150 76 62
      vertex 120 76 39.5
    endloop
  endfacet
  facet normal 0 -1 0
    outer loop
      vertex 120.94 76 39.4409
      vertex 150 76 62
      vertex 120.471 76 39.4852
    endloop
  endfacet
  facet normal 0 -1 0
    outer loop
      vertex 121.405 76 39.3672
      vertex 150 76 62
      vertex 120.94 76 39.4409
    endloop
  endfacet
  facet normal 0 -1 0
    outer loop
      vertex 121.865 76 39.2644
      vertex 150 76 62
      vertex 121.405 76 39.3672
    endloop
  endfacet
  facet normal 0 -1 0
    outer loop
      vertex 122.318 76 39.1329
      vertex 150 76 62
      vertex 121.865 76 39.2644
    endloop
  endfacet
  facet normal 0 -1 0
    outer loop
      vertex 122.761 76 38.9733
      vertex 150 76 62
      vertex 122.318 76 39.1329
    endloop
  endfacet
  facet normal 0 -1 0
    outer loop
      vertex 123.193 76 38.7862
      vertex 150 76 62
      vertex 122.761 76 38.9733
    endloop
  endfacet
  facet normal 0 -1 0
    outer loop
      vertex 123.613 76 38.5723
      vertex 150 76 62
      vertex 123.193 76 38.7862
    endloop
  endfacet
  facet normal 0 -1 0
    outer loop
      vertex 124.019 76 38.3325
      vertex 150 76 62
      vertex 123.613 76 38.5723
    endloop
  endfacet
  facet normal 0 -1 0
    outer loop
      vertex 124.408 76 38.0676
      vertex 150 76 62
      vertex 124.019 76 38.3325
    endloop
  endfacet
  facet normal 0 -1 0
    outer loop
      vertex 124.781 76 37.7788
      vertex 150 76 62
      vertex 124.408 76 38.0676
    endloop
  endfacet
  facet normal 0 -1 0
    outer loop
      vertex 125.134 76 37.4673
      vertex 150 76 62
      vertex 124.781 76 37.7788
    endloop
  endfacet
  facet normal 0 -1 0
    outer loop
      vertex 125.467 76 37.1341
      vertex 150 76 62
      vertex 125.134 76 37.4673
    endloop
  endfacet
  facet normal 0 -1 0
    outer loop
      vertex 125.779 76 36.7807
      vertex 150 76 62
      vertex 125.467 76 37.1341
    endloop
  endfacet
  facet normal 0 -1 0
    outer loop
      vertex 126.068 76 36.4084
      vertex 150 76 62
      vertex 125.779 76 36.7807
    endloop
  endfacet
  facet normal 0 -1 0
    outer loop
      vertex 126.332 76 36.0187
      vertex 150 76 62
      vertex 126.068 76 36.4084
    endloop
  endfacet
  facet normal 0 -1 0
    outer loop
      vertex 126.572 76 35.6132
      vertex 150 76 62
      vertex 126.332 76 36.0187
    endloop
  endfacet
  facet normal 0 -1 0
    outer loop
      vertex 126.786 76 35.1933
      vertex 150 76 62
      vertex 126.572 76 35.6132
    endloop
  endfacet
  facet normal 0 -1 0
    outer loop
      vertex 126.973 76 34.7609
      vertex 150 76 62
      vertex 126.786 76 35.1933
    endloop
  endfacet
  facet normal 0 -1 0
    outer loop
      vertex 127.133 76 34.3176
      vertex 150 76 62
      vertex 126.973 76 34.7609
    endloop
  endfacet
  facet normal 0 -1 0
    outer loop
      vertex 127.264 76 33.8652
      vertex 150 76 62
      vertex 127.133 76 34.3176
    endloop
  endfacet
  facet normal 0 -1 0
    outer loop
      vertex 127.367 76 33.4054
      vertex 150 76 62
      vertex 127.264 76 33.8652
    endloop
  endfacet
  facet normal 0 -1 0
    outer loop
      vertex 127.441 76 32.94
      vertex 150 76 62
      vertex 127.367 76 33.4054
    endloop
  endfacet
  facet normal 0 -1 0
    outer loop
      vertex 127.485 76 32.4709
      vertex 150 76 62
      vertex 127.441 76 32.94
    endloop
  endfacet
  facet normal 0 -1 0
    outer loop
      vertex 127.5 76 32
      vertex 150 76 62
      vertex 127.485 76 32.4709
    endloop
  endfacet
  facet normal 0 -1 0
    outer loop
      vertex 150 76 2
      vertex 127.5 76 32
      vertex 127.485 76 31.5291
    endloop
  endfacet
  facet normal 0 -1 0
    outer loop
      vertex 150 76 2
      vertex 127.485 76 31.5291
      vertex 127.441 76 31.06
    endloop
  endfacet
  facet normal 0 -1 0
    outer loop
      vertex 150 76 2
      vertex 127.441 76 31.06
      vertex 127.367 76 30.5946
    endloop
  endfacet
  facet normal 0 -1 0
    outer loop
      vertex 150 76 2
      vertex 127.367 76 30.5946
      vertex 127.264 76 30.1348
    endloop
  endfacet
  facet normal 0 -1 0
    outer loop
      vertex 150 76 2
      vertex 127.264 76 30.1348
      vertex 127.133 76 29.6824
    endloop
  endfacet
  facet normal 0 -1 0
    outer loop
      vertex 150 76 2
      vertex 127.133 76 29.6824
      vertex 126.973 76 29.2391
    endloop
  endfacet
  facet normal 0 -1 0
    outer loop
      vertex 150 76 2
      vertex 126.973 76 29.2391
      vertex 126.786 76 28.8067
    endloop
  endfacet
  facet normal 0 -1 0
    outer loop
      vertex 150 76 2
      vertex 126.786 76 28.8067
      vertex 126.572 76 28.3868
    endloop
  endfacet
  facet normal 0 -1 0
    outer loop
      vertex 150 76 2
      vertex 126.572 76 28.3868
      vertex 126.332 76 27.9813
    endloop
  endfacet
  facet normal 0 -1 0
    outer loop
      vertex 150 76 2
      vertex 126.332 76 27.9813
      vertex 126.068 76 27.5916
    endloop
  endfacet
  facet normal 0 -1 0
    outer loop
      vertex 118.595 76 24.6328
      vertex 150 76 2
      vertex 119.06 76 24.5591
    endloop
  endfacet
  facet normal 0 -1 0
    outer loop
      vertex 119.06 76 24.5591
      vertex 150 76 2
      vertex 119.529 76 24.5148
    endloop
  endfacet
  facet normal 0 -1 0
    outer loop
      vertex 119.529 76 24.5148
      vertex 150 76 2
      vertex 120 76 24.5
    endloop
  endfacet
  facet normal 0 -1 0
    outer loop
      vertex 120 76 24.5
      vertex 150 76 2
      vertex 120.471 76 24.5148
    endloop
  endfacet
  facet normal 0 -1 0
    outer loop
      vertex 120.471 76 24.5148
      vertex 150 76 2
      vertex 120.94 76 24.5591
    endloop
  endfacet
  facet normal 0 -1 0
    outer loop
      vertex 120.94 76 24.5591
      vertex 150 76 2
      vertex 121.405 76 24.6328
    endloop
  endfacet
  facet normal 0 -1 0
    outer loop
      vertex 127.5 76 32
      vertex 150 76 2
      vertex 150 76 62
    endloop
  endfacet
  facet normal 0 -1 0
    outer loop
      vertex 125.779 76 27.2193
      vertex 150 76 2
      vertex 126.068 76 27.5916
    endloop
  endfacet
  facet normal 0 -1 0
    outer loop
      vertex 125.467 76 26.8659
      vertex 150 76 2
      vertex 125.779 76 27.2193
    endloop
  endfacet
  facet normal 0 -1 0
    outer loop
      vertex 125.134 76 26.5327
      vertex 150 76 2
      vertex 125.467 76 26.8659
    endloop
  endfacet
  facet normal 0 -1 0
    outer loop
      vertex 124.781 76 26.2211
      vertex 150 76 2
      vertex 125.134 76 26.5327
    endloop
  endfacet
  facet normal 0 -1 0
    outer loop
      vertex 124.408 76 25.9324
      vertex 150 76 2
      vertex 124.781 76 26.2211
    endloop
  endfacet
  facet normal 0 -1 0
    outer loop
      vertex 124.019 76 25.6675
      vertex 150 76 2
      vertex 124.408 76 25.9324
    endloop
  endfacet
  facet normal 0 -1 0
    outer loop
      vertex 123.613 76 25.4277
      vertex 150 76 2
      vertex 124.019 76 25.6675
    endloop
  endfacet
  facet normal 0 -1 0
    outer loop
      vertex 123.193 76 25.2138
      vertex 150 76 2
      vertex 123.613 76 25.4277
    endloop
  endfacet
  facet normal 0 -1 0
    outer loop
      vertex 122.761 76 25.0267
      vertex 150 76 2
      vertex 123.193 76 25.2138
    endloop
  endfacet
  facet normal 0 -1 0
    outer loop
      vertex 122.318 76 24.8671
      vertex 150 76 2
      vertex 122.761 76 25.0267
    endloop
  endfacet
  facet normal 0 -1 0
    outer loop
      vertex 121.865 76 24.7356
      vertex 150 76 2
      vertex 122.318 76 24.8671
    endloop
  endfacet
  facet normal 0 -1 0
    outer loop
      vertex 121.405 76 24.6328
      vertex 150 76 2
      vertex 121.865 76 24.7356
    endloop
  endfacet
  facet normal 0 -1 0
    outer loop
      vertex 150 76 2
      vertex 50 76 7
      vertex 0 76 2
    endloop
  endfacet
  facet normal -1 0 0
    outer loop
      vertex 70 15 0
      vertex 70 55 2
      vertex 70 55 0
    endloop
  endfacet
  facet normal -1 -0 0
    outer loop
      vertex 70 55 2
      vertex 70 15 0
      vertex 70 15 2
    endloop
  endfacet
  facet normal 1 -0 0
    outer loop
      vertex 20 15 2
      vertex 20 55 0
      vertex 20 55 2
    endloop
  endfacet
  facet normal 1 0 0
    outer loop
      vertex 20 55 0
      vertex 20 15 2
      vertex 20 15 0
    endloop
  endfacet
  facet normal 0 -1 0
    outer loop
      vertex 20 55 0
      vertex 70 55 2
      vertex 20 55 2
    endloop
  endfacet
  facet normal 0 -1 -0
    outer loop
      vertex 70 55 2
      vertex 20 55 0
      vertex 70 55 0
    endloop
  endfacet
  facet normal 0 1 -0
    outer loop
      vertex 70 15 0
      vertex 20 15 2
      vertex 70 15 2
    endloop
  endfacet
  facet normal 0 1 0
    outer loop
      vertex 20 15 2
      vertex 70 15 0
      vertex 20 15 0
    endloop
  endfacet
  facet normal -1 0 0
    outer loop
      vertex 50 76 7
      vertex 50 80 22
      vertex 50 80 7
    endloop
  endfacet
  facet normal -1 -0 0
    outer loop
      vertex 50 80 22
      vertex 50 76 7
      vertex 50 76 22
    endloop
  endfacet
  facet normal 0 0 -1
    outer loop
      vertex 10 76 22
      vertex 50 80 22
      vertex 50 76 22
    endloop
  endfacet
  facet normal -0 0 -1
    outer loop
      vertex 50 80 22
      vertex 10 76 22
      vertex 10 80 22
    endloop
  endfacet
  facet normal -0 0 1
    outer loop
      vertex 10 80 7
      vertex 50 76 7
      vertex 50 80 7
    endloop
  endfacet
  facet normal 0 0 1
    outer loop
      vertex 50 76 7
      vertex 10 80 7
      vertex 10 76 7
    endloop
  endfacet
  facet normal 1 -0 0
    outer loop
      vertex 10 76 22
      vertex 10 80 7
      vertex 10 80 22
    endloop
  endfacet
  facet normal 1 0 0
    outer loop
      vertex 10 80 7
      vertex 10 76 22
      vertex 10 76 7
    endloop
  endfacet
  facet normal -1 0 0
    outer loop
      vertex 90 76 37
      vertex 90 80 47
      vertex 90 80 37
    endloop
  endfacet
  facet normal -1 -0 0
    outer loop
      vertex 90 80 47
      vertex 90 76 37
      vertex 90 76 47
    endloop
  endfacet
  facet normal 0 0 -1
    outer loop
      vertex 65 76 47
      vertex 90 80 47
      vertex 90 76 47
    endloop
  endfacet
  facet normal -0 0 -1
    outer loop
      vertex 90 80 47
      vertex 65 76 47
      vertex 65 80 47
    endloop
  endfacet
  facet normal -0 0 1
    outer loop
      vertex 65 80 37
      vertex 90 76 37
      vertex 90 80 37
    endloop
  endfacet
  facet normal 0 0 1
    outer loop
      vertex 90 76 37
      vertex 65 80 37
      vertex 65 76 37
    endloop
  endfacet
  facet normal 1 -0 0
    outer loop
      vertex 65 76 47
      vertex 65 80 37
      vertex 65 80 47
    endloop
  endfacet
  facet normal 1 0 0
    outer loop
      vertex 65 80 37
      vertex 65 76 47
      vertex 65 76 37
    endloop
  endfacet
  facet normal -0.99563 0 0.0933867
    outer loop
      vertex 127.441 76 31.06
      vertex 127.485 80 31.5291
      vertex 127.441 80 31.06
    endloop
  endfacet
  facet normal -0.99563 0 0.0933867
    outer loop
      vertex 127.485 80 31.5291
      vertex 127.441 76 31.06
      vertex 127.485 76 31.5291
    endloop
  endfacet
  facet normal -0.999493 0 0.0318377
    outer loop
      vertex 127.485 76 31.5291
      vertex 127.5 80 32
      vertex 127.485 80 31.5291
    endloop
  endfacet
  facet normal -0.999493 0 0.0318377
    outer loop
      vertex 127.5 80 32
      vertex 127.485 76 31.5291
      vertex 127.5 76 32
    endloop
  endfacet
  facet normal -0.987594 0 0.15703
    outer loop
      vertex 127.367 76 30.5946
      vertex 127.441 80 31.06
      vertex 127.367 80 30.5946
    endloop
  endfacet
  facet normal -0.987594 0 0.15703
    outer loop
      vertex 127.441 80 31.06
      vertex 127.367 76 30.5946
      vertex 127.441 76 31.06
    endloop
  endfacet
  facet normal -0.987594 0 -0.15703
    outer loop
      vertex 127.441 76 32.94
      vertex 127.367 80 33.4054
      vertex 127.441 80 32.94
    endloop
  endfacet
  facet normal -0.987594 -0 -0.15703
    outer loop
      vertex 127.367 80 33.4054
      vertex 127.441 76 32.94
      vertex 127.367 76 33.4054
    endloop
  endfacet
  facet normal -0.031407 0 -0.999507
    outer loop
      vertex 120 76 39.5
      vertex 120.471 80 39.4852
      vertex 120.471 76 39.4852
    endloop
  endfacet
  facet normal -0.031407 0 -0.999507
    outer loop
      vertex 120.471 80 39.4852
      vertex 120 76 39.5
      vertex 120 80 39.5
    endloop
  endfacet
  facet normal 0.749652 0 -0.661832
    outer loop
      vertex 114.533 76 37.1341
      vertex 114.221 80 36.7807
      vertex 114.533 80 37.1341
    endloop
  endfacet
  facet normal 0.749652 0 -0.661832
    outer loop
      vertex 114.221 80 36.7807
      vertex 114.533 76 37.1341
      vertex 114.221 76 36.7807
    endloop
  endfacet
  facet normal -0.975816 0 -0.218593
    outer loop
      vertex 127.367 76 33.4054
      vertex 127.264 80 33.8652
      vertex 127.367 80 33.4054
    endloop
  endfacet
  facet normal -0.975816 -0 -0.218593
    outer loop
      vertex 127.264 80 33.8652
      vertex 127.367 76 33.4054
      vertex 127.264 76 33.8652
    endloop
  endfacet
  facet normal 0.612075 0 0.7908
    outer loop
      vertex 115.219 80 26.2211
      vertex 115.592 76 25.9324
      vertex 115.592 80 25.9324
    endloop
  endfacet
  facet normal 0.612075 0 0.7908
    outer loop
      vertex 115.592 76 25.9324
      vertex 115.219 80 26.2211
      vertex 115.219 76 26.2211
    endloop
  endfacet
  facet normal -0.940608 0 0.339493
    outer loop
      vertex 126.973 76 29.2391
      vertex 127.133 80 29.6824
      vertex 126.973 80 29.2391
    endloop
  endfacet
  facet normal -0.940608 0 0.339493
    outer loop
      vertex 127.133 80 29.6824
      vertex 126.973 76 29.2391
      vertex 127.133 76 29.6824
    endloop
  endfacet
  facet normal 0.975816 0 -0.218593
    outer loop
      vertex 112.736 76 33.8652
      vertex 112.633 80 33.4054
      vertex 112.736 80 33.8652
    endloop
  endfacet
  facet normal 0.975816 0 -0.218593
    outer loop
      vertex 112.633 80 33.4054
      vertex 112.736 76 33.8652
      vertex 112.633 76 33.4054
    endloop
  endfacet
  facet normal 0.338945 0 0.940806
    outer loop
      vertex 117.239 80 25.0267
      vertex 117.682 76 24.8671
      vertex 117.682 80 24.8671
    endloop
  endfacet
  facet normal 0.338945 0 0.940806
    outer loop
      vertex 117.682 76 24.8671
      vertex 117.239 80 25.0267
      vertex 117.239 76 25.0267
    endloop
  endfacet
  facet normal -0.612075 0 0.7908
    outer loop
      vertex 124.408 80 25.9324
      vertex 124.781 76 26.2211
      vertex 124.781 80 26.2211
    endloop
  endfacet
  facet normal -0.612075 0 0.7908
    outer loop
      vertex 124.781 76 26.2211
      vertex 124.408 80 25.9324
      vertex 124.408 76 25.9324
    endloop
  endfacet
  facet normal 0.890963 -0 0.454075
    outer loop
      vertex 113.214 76 28.8067
      vertex 113.428 80 28.3868
      vertex 113.214 80 28.8067
    endloop
  endfacet
  facet normal 0.890963 0 0.454075
    outer loop
      vertex 113.428 80 28.3868
      vertex 113.214 76 28.8067
      vertex 113.428 76 28.3868
    endloop
  endfacet
  facet normal -0.890963 0 0.454075
    outer loop
      vertex 126.572 76 28.3868
      vertex 126.786 80 28.8067
      vertex 126.572 80 28.3868
    endloop
  endfacet
  facet normal -0.890963 0 0.454075
    outer loop
      vertex 126.786 80 28.8067
      vertex 126.572 76 28.3868
      vertex 126.786 76 28.8067
    endloop
  endfacet
  facet normal -0.96054 0 0.278141
    outer loop
      vertex 127.133 76 29.6824
      vertex 127.264 80 30.1348
      vertex 127.133 80 29.6824
    endloop
  endfacet
  facet normal -0.96054 0 0.278141
    outer loop
      vertex 127.264 80 30.1348
      vertex 127.133 76 29.6824
      vertex 127.264 76 30.1348
    endloop
  endfacet
  facet normal -0.397429 0 0.917633
    outer loop
      vertex 122.761 80 25.0267
      vertex 123.193 76 25.2138
      vertex 123.193 80 25.2138
    endloop
  endfacet
  facet normal -0.397429 0 0.917633
    outer loop
      vertex 123.193 76 25.2138
      vertex 122.761 80 25.0267
      vertex 122.761 76 25.0267
    endloop
  endfacet
  facet normal -0.917844 0 -0.39694
    outer loop
      vertex 126.973 76 34.7609
      vertex 126.786 80 35.1933
      vertex 126.973 80 34.7609
    endloop
  endfacet
  facet normal -0.917844 -0 -0.39694
    outer loop
      vertex 126.786 80 35.1933
      vertex 126.973 76 34.7609
      vertex 126.786 76 35.1933
    endloop
  endfacet
  facet normal -0.96054 0 -0.278141
    outer loop
      vertex 127.264 76 33.8652
      vertex 127.133 80 34.3176
      vertex 127.264 80 33.8652
    endloop
  endfacet
  facet normal -0.96054 -0 -0.278141
    outer loop
      vertex 127.133 80 34.3176
      vertex 127.264 76 33.8652
      vertex 127.133 76 34.3176
    endloop
  endfacet
  facet normal 0.707319 -0 0.706894
    outer loop
      vertex 114.533 76 26.8659
      vertex 114.866 80 26.5327
      vertex 114.533 80 26.8659
    endloop
  endfacet
  facet normal 0.707319 0 0.706894
    outer loop
      vertex 114.866 80 26.5327
      vertex 114.533 76 26.8659
      vertex 114.866 76 26.5327
    endloop
  endfacet
  facet normal -0.860567 0 -0.509337
    outer loop
      vertex 126.572 76 35.6132
      vertex 126.332 80 36.0187
      vertex 126.572 80 35.6132
    endloop
  endfacet
  facet normal -0.860567 -0 -0.509337
    outer loop
      vertex 126.332 80 36.0187
      vertex 126.572 76 35.6132
      vertex 126.332 76 36.0187
    endloop
  endfacet
  facet normal 0.031407 0 0.999507
    outer loop
      vertex 119.529 80 24.5148
      vertex 120 76 24.5
      vertex 120 80 24.5
    endloop
  endfacet
  facet normal 0.031407 0 0.999507
    outer loop
      vertex 120 76 24.5
      vertex 119.529 80 24.5148
      vertex 119.529 76 24.5148
    endloop
  endfacet
  facet normal 0.860567 0 -0.509337
    outer loop
      vertex 113.668 76 36.0187
      vertex 113.428 80 35.6132
      vertex 113.668 80 36.0187
    endloop
  endfacet
  facet normal 0.860567 0 -0.509337
    outer loop
      vertex 113.428 80 35.6132
      vertex 113.668 76 36.0187
      vertex 113.428 76 35.6132
    endloop
  endfacet
  facet normal -0.508558 0 -0.861028
    outer loop
      vertex 123.613 76 38.5723
      vertex 124.019 80 38.3325
      vertex 124.019 76 38.3325
    endloop
  endfacet
  facet normal -0.508558 0 -0.861028
    outer loop
      vertex 124.019 80 38.3325
      vertex 123.613 76 38.5723
      vertex 123.613 80 38.5723
    endloop
  endfacet
  facet normal -0.789935 0 -0.613191
    outer loop
      vertex 126.068 76 36.4084
      vertex 125.779 80 36.7807
      vertex 126.068 80 36.4084
    endloop
  endfacet
  facet normal -0.789935 -0 -0.613191
    outer loop
      vertex 125.779 80 36.7807
      vertex 126.068 76 36.4084
      vertex 125.779 76 36.7807
    endloop
  endfacet
  facet normal -0.453821 0 -0.891093
    outer loop
      vertex 123.193 76 38.7862
      vertex 123.613 80 38.5723
      vertex 123.613 76 38.5723
    endloop
  endfacet
  facet normal -0.453821 0 -0.891093
    outer loop
      vertex 123.613 80 38.5723
      vertex 123.193 76 38.7862
      vertex 123.193 80 38.7862
    endloop
  endfacet
  facet normal 0.397429 0 0.917633
    outer loop
      vertex 116.807 80 25.2138
      vertex 117.239 76 25.0267
      vertex 117.239 80 25.0267
    endloop
  endfacet
  facet normal 0.397429 0 0.917633
    outer loop
      vertex 117.239 76 25.0267
      vertex 116.807 80 25.2138
      vertex 116.807 76 25.2138
    endloop
  endfacet
  facet normal -0.789935 0 0.613191
    outer loop
      vertex 125.779 76 27.2193
      vertex 126.068 80 27.5916
      vertex 125.779 80 27.2193
    endloop
  endfacet
  facet normal -0.789935 0 0.613191
    outer loop
      vertex 126.068 80 27.5916
      vertex 125.779 76 27.2193
      vertex 126.068 76 27.5916
    endloop
  endfacet
  facet normal -0.0940377 0 0.995569
    outer loop
      vertex 120.471 80 24.5148
      vertex 120.94 76 24.5591
      vertex 120.94 80 24.5591
    endloop
  endfacet
  facet normal -0.0940377 0 0.995569
    outer loop
      vertex 120.94 76 24.5591
      vertex 120.471 80 24.5148
      vertex 120.471 76 24.5148
    endloop
  endfacet
  facet normal -0.827909 0 0.560862
    outer loop
      vertex 126.068 76 27.5916
      vertex 126.332 80 27.9813
      vertex 126.068 80 27.5916
    endloop
  endfacet
  facet normal -0.827909 0 0.560862
    outer loop
      vertex 126.332 80 27.9813
      vertex 126.068 76 27.5916
      vertex 126.332 76 27.9813
    endloop
  endfacet
  facet normal 0.397429 0 -0.917633
    outer loop
      vertex 116.807 76 38.7862
      vertex 117.239 80 38.9733
      vertex 117.239 76 38.9733
    endloop
  endfacet
  facet normal 0.397429 0 -0.917633
    outer loop
      vertex 117.239 80 38.9733
      vertex 116.807 76 38.7862
      vertex 116.807 80 38.7862
    endloop
  endfacet
  facet normal 0.156541 0 -0.987672
    outer loop
      vertex 118.595 76 39.3672
      vertex 119.06 80 39.4409
      vertex 119.06 76 39.4409
    endloop
  endfacet
  facet normal 0.156541 0 -0.987672
    outer loop
      vertex 119.06 80 39.4409
      vertex 118.595 76 39.3672
      vertex 118.595 80 39.3672
    endloop
  endfacet
  facet normal -0.975816 0 0.218593
    outer loop
      vertex 127.264 76 30.1348
      vertex 127.367 80 30.5946
      vertex 127.264 80 30.1348
    endloop
  endfacet
  facet normal -0.975816 0 0.218593
    outer loop
      vertex 127.367 80 30.5946
      vertex 127.264 76 30.1348
      vertex 127.367 76 30.5946
    endloop
  endfacet
  facet normal 0.827909 0 -0.560862
    outer loop
      vertex 113.932 76 36.4084
      vertex 113.668 80 36.0187
      vertex 113.932 80 36.4084
    endloop
  endfacet
  facet normal 0.827909 0 -0.560862
    outer loop
      vertex 113.668 80 36.0187
      vertex 113.932 76 36.4084
      vertex 113.668 76 36.0187
    endloop
  endfacet
  facet normal 0.218098 0 -0.975927
    outer loop
      vertex 118.135 76 39.2644
      vertex 118.595 80 39.3672
      vertex 118.595 76 39.3672
    endloop
  endfacet
  facet normal 0.218098 0 -0.975927
    outer loop
      vertex 118.595 80 39.3672
      vertex 118.135 76 39.2644
      vertex 118.135 80 39.2644
    endloop
  endfacet
  facet normal -0.338945 0 0.940806
    outer loop
      vertex 122.318 80 24.8671
      vertex 122.761 76 25.0267
      vertex 122.761 80 25.0267
    endloop
  endfacet
  facet normal -0.338945 0 0.940806
    outer loop
      vertex 122.761 76 25.0267
      vertex 122.318 80 24.8671
      vertex 122.318 76 24.8671
    endloop
  endfacet
  facet normal 0.218098 0 0.975927
    outer loop
      vertex 118.135 80 24.7356
      vertex 118.595 76 24.6328
      vertex 118.595 80 24.6328
    endloop
  endfacet
  facet normal 0.218098 0 0.975927
    outer loop
      vertex 118.595 76 24.6328
      vertex 118.135 80 24.7356
      vertex 118.135 76 24.7356
    endloop
  endfacet
  facet normal 0.789935 -0 0.613191
    outer loop
      vertex 113.932 76 27.5916
      vertex 114.221 80 27.2193
      vertex 113.932 80 27.5916
    endloop
  endfacet
  facet normal 0.789935 0 0.613191
    outer loop
      vertex 114.221 80 27.2193
      vertex 113.932 76 27.5916
      vertex 114.221 76 27.2193
    endloop
  endfacet
  facet normal -0.661776 0 0.749701
    outer loop
      vertex 124.781 80 26.2211
      vertex 125.134 76 26.5327
      vertex 125.134 80 26.5327
    endloop
  endfacet
  facet normal -0.661776 0 0.749701
    outer loop
      vertex 125.134 76 26.5327
      vertex 124.781 80 26.2211
      vertex 124.781 76 26.2211
    endloop
  endfacet
  facet normal 0.562862 0 0.826551
    outer loop
      vertex 115.592 80 25.9324
      vertex 115.981 76 25.6675
      vertex 115.981 80 25.6675
    endloop
  endfacet
  facet normal 0.562862 0 0.826551
    outer loop
      vertex 115.981 76 25.6675
      vertex 115.592 80 25.9324
      vertex 115.592 76 25.9324
    endloop
  endfacet
  facet normal -0.707319 0 -0.706894
    outer loop
      vertex 125.467 76 37.1341
      vertex 125.134 80 37.4673
      vertex 125.467 80 37.1341
    endloop
  endfacet
  facet normal -0.707319 -0 -0.706894
    outer loop
      vertex 125.134 80 37.4673
      vertex 125.467 76 37.1341
      vertex 125.134 76 37.4673
    endloop
  endfacet
  facet normal -0.999493 0 -0.0318377
    outer loop
      vertex 127.5 76 32
      vertex 127.485 80 32.4709
      vertex 127.5 80 32
    endloop
  endfacet
  facet normal -0.999493 -0 -0.0318377
    outer loop
      vertex 127.485 80 32.4709
      vertex 127.5 76 32
      vertex 127.485 76 32.4709
    endloop
  endfacet
  facet normal -0.397429 0 -0.917633
    outer loop
      vertex 122.761 76 38.9733
      vertex 123.193 80 38.7862
      vertex 123.193 76 38.7862
    endloop
  endfacet
  facet normal -0.397429 0 -0.917633
    outer loop
      vertex 123.193 80 38.7862
      vertex 122.761 76 38.9733
      vertex 122.761 80 38.9733
    endloop
  endfacet
  facet normal 0.0940377 0 0.995569
    outer loop
      vertex 119.06 80 24.5591
      vertex 119.529 76 24.5148
      vertex 119.529 80 24.5148
    endloop
  endfacet
  facet normal 0.0940377 0 0.995569
    outer loop
      vertex 119.529 76 24.5148
      vertex 119.06 80 24.5591
      vertex 119.06 76 24.5591
    endloop
  endfacet
  facet normal 0.96054 0 -0.278141
    outer loop
      vertex 112.867 76 34.3176
      vertex 112.736 80 33.8652
      vertex 112.867 80 34.3176
    endloop
  endfacet
  facet normal 0.96054 0 -0.278141
    outer loop
      vertex 112.736 80 33.8652
      vertex 112.867 76 34.3176
      vertex 112.736 76 33.8652
    endloop
  endfacet
  facet normal 0.707319 0 -0.706894
    outer loop
      vertex 114.866 76 37.4673
      vertex 114.533 80 37.1341
      vertex 114.866 80 37.4673
    endloop
  endfacet
  facet normal 0.707319 0 -0.706894
    outer loop
      vertex 114.533 80 37.1341
      vertex 114.866 76 37.4673
      vertex 114.533 76 37.1341
    endloop
  endfacet
  facet normal 0.508558 0 -0.861028
    outer loop
      vertex 115.981 76 38.3325
      vertex 116.387 80 38.5723
      vertex 116.387 76 38.5723
    endloop
  endfacet
  facet normal 0.508558 0 -0.861028
    outer loop
      vertex 116.387 80 38.5723
      vertex 115.981 76 38.3325
      vertex 115.981 80 38.3325
    endloop
  endfacet
  facet normal 0.278779 0 0.960355
    outer loop
      vertex 117.682 80 24.8671
      vertex 118.135 76 24.7356
      vertex 118.135 80 24.7356
    endloop
  endfacet
  facet normal 0.278779 0 0.960355
    outer loop
      vertex 118.135 76 24.7356
      vertex 117.682 80 24.8671
      vertex 117.682 76 24.8671
    endloop
  endfacet
  facet normal 0.749652 -0 0.661832
    outer loop
      vertex 114.221 76 27.2193
      vertex 114.533 80 26.8659
      vertex 114.221 80 27.2193
    endloop
  endfacet
  facet normal 0.749652 0 0.661832
    outer loop
      vertex 114.533 80 26.8659
      vertex 114.221 76 27.2193
      vertex 114.533 76 26.8659
    endloop
  endfacet
  facet normal 0.661776 0 0.749701
    outer loop
      vertex 114.866 80 26.5327
      vertex 115.219 76 26.2211
      vertex 115.219 80 26.2211
    endloop
  endfacet
  facet normal 0.661776 0 0.749701
    outer loop
      vertex 115.219 76 26.2211
      vertex 114.866 80 26.5327
      vertex 114.866 76 26.5327
    endloop
  endfacet
  facet normal 0.508558 0 0.861028
    outer loop
      vertex 115.981 80 25.6675
      vertex 116.387 76 25.4277
      vertex 116.387 80 25.4277
    endloop
  endfacet
  facet normal 0.508558 0 0.861028
    outer loop
      vertex 116.387 76 25.4277
      vertex 115.981 80 25.6675
      vertex 115.981 76 25.6675
    endloop
  endfacet
  facet normal 0.917844 -0 0.39694
    outer loop
      vertex 113.027 76 29.2391
      vertex 113.214 80 28.8067
      vertex 113.027 80 29.2391
    endloop
  endfacet
  facet normal 0.917844 0 0.39694
    outer loop
      vertex 113.214 80 28.8067
      vertex 113.027 76 29.2391
      vertex 113.214 76 28.8067
    endloop
  endfacet
  facet normal 0.338945 0 -0.940806
    outer loop
      vertex 117.239 76 38.9733
      vertex 117.682 80 39.1329
      vertex 117.682 76 39.1329
    endloop
  endfacet
  facet normal 0.338945 0 -0.940806
    outer loop
      vertex 117.682 80 39.1329
      vertex 117.239 76 38.9733
      vertex 117.239 80 38.9733
    endloop
  endfacet
  facet normal -0.156541 0 -0.987672
    outer loop
      vertex 120.94 76 39.4409
      vertex 121.405 80 39.3672
      vertex 121.405 76 39.3672
    endloop
  endfacet
  facet normal -0.156541 0 -0.987672
    outer loop
      vertex 121.405 80 39.3672
      vertex 120.94 76 39.4409
      vertex 120.94 80 39.4409
    endloop
  endfacet
  facet normal 0.827909 -0 0.560862
    outer loop
      vertex 113.668 76 27.9813
      vertex 113.932 80 27.5916
      vertex 113.668 80 27.9813
    endloop
  endfacet
  facet normal 0.827909 0 0.560862
    outer loop
      vertex 113.932 80 27.5916
      vertex 113.668 76 27.9813
      vertex 113.932 76 27.5916
    endloop
  endfacet
  facet normal -0.99563 0 -0.0933867
    outer loop
      vertex 127.485 76 32.4709
      vertex 127.441 80 32.94
      vertex 127.485 80 32.4709
    endloop
  endfacet
  facet normal -0.99563 -0 -0.0933867
    outer loop
      vertex 127.441 80 32.94
      vertex 127.485 76 32.4709
      vertex 127.441 76 32.94
    endloop
  endfacet
  facet normal 0.860567 -0 0.509337
    outer loop
      vertex 113.428 76 28.3868
      vertex 113.668 80 27.9813
      vertex 113.428 80 28.3868
    endloop
  endfacet
  facet normal 0.860567 0 0.509337
    outer loop
      vertex 113.668 80 27.9813
      vertex 113.428 76 28.3868
      vertex 113.668 76 27.9813
    endloop
  endfacet
  facet normal 0.562862 0 -0.826551
    outer loop
      vertex 115.592 76 38.0676
      vertex 115.981 80 38.3325
      vertex 115.981 76 38.3325
    endloop
  endfacet
  facet normal 0.562862 0 -0.826551
    outer loop
      vertex 115.981 80 38.3325
      vertex 115.592 76 38.0676
      vertex 115.592 80 38.0676
    endloop
  endfacet
  facet normal 0.890963 0 -0.454075
    outer loop
      vertex 113.428 76 35.6132
      vertex 113.214 80 35.1933
      vertex 113.428 80 35.6132
    endloop
  endfacet
  facet normal 0.890963 0 -0.454075
    outer loop
      vertex 113.214 80 35.1933
      vertex 113.428 76 35.6132
      vertex 113.214 76 35.1933
    endloop
  endfacet
  facet normal -0.508558 0 0.861028
    outer loop
      vertex 123.613 80 25.4277
      vertex 124.019 76 25.6675
      vertex 124.019 80 25.6675
    endloop
  endfacet
  facet normal -0.508558 0 0.861028
    outer loop
      vertex 124.019 76 25.6675
      vertex 123.613 80 25.4277
      vertex 123.613 76 25.4277
    endloop
  endfacet
  facet normal -0.940608 0 -0.339493
    outer loop
      vertex 127.133 76 34.3176
      vertex 126.973 80 34.7609
      vertex 127.133 80 34.3176
    endloop
  endfacet
  facet normal -0.940608 -0 -0.339493
    outer loop
      vertex 126.973 80 34.7609
      vertex 127.133 76 34.3176
      vertex 126.973 76 34.7609
    endloop
  endfacet
  facet normal -0.0940377 0 -0.995569
    outer loop
      vertex 120.471 76 39.4852
      vertex 120.94 80 39.4409
      vertex 120.94 76 39.4409
    endloop
  endfacet
  facet normal -0.0940377 0 -0.995569
    outer loop
      vertex 120.94 80 39.4409
      vertex 120.471 76 39.4852
      vertex 120.471 80 39.4852
    endloop
  endfacet
  facet normal 0.987594 0 -0.15703
    outer loop
      vertex 112.633 76 33.4054
      vertex 112.559 80 32.94
      vertex 112.633 80 33.4054
    endloop
  endfacet
  facet normal 0.987594 0 -0.15703
    outer loop
      vertex 112.559 80 32.94
      vertex 112.633 76 33.4054
      vertex 112.559 76 32.94
    endloop
  endfacet
  facet normal -0.562862 0 0.826551
    outer loop
      vertex 124.019 80 25.6675
      vertex 124.408 76 25.9324
      vertex 124.408 80 25.9324
    endloop
  endfacet
  facet normal -0.562862 0 0.826551
    outer loop
      vertex 124.408 76 25.9324
      vertex 124.019 80 25.6675
      vertex 124.019 76 25.6675
    endloop
  endfacet
  facet normal -0.453821 0 0.891093
    outer loop
      vertex 123.193 80 25.2138
      vertex 123.613 76 25.4277
      vertex 123.613 80 25.4277
    endloop
  endfacet
  facet normal -0.453821 0 0.891093
    outer loop
      vertex 123.613 76 25.4277
      vertex 123.193 80 25.2138
      vertex 123.193 76 25.2138
    endloop
  endfacet
  facet normal 0.661657 0 -0.749807
    outer loop
      vertex 114.866 76 37.4673
      vertex 115.219 80 37.7788
      vertex 115.219 76 37.7788
    endloop
  endfacet
  facet normal 0.661657 0 -0.749807
    outer loop
      vertex 115.219 80 37.7788
      vertex 114.866 76 37.4673
      vertex 114.866 80 37.4673
    endloop
  endfacet
  facet normal -0.860567 0 0.509337
    outer loop
      vertex 126.332 76 27.9813
      vertex 126.572 80 28.3868
      vertex 126.332 80 27.9813
    endloop
  endfacet
  facet normal -0.860567 0 0.509337
    outer loop
      vertex 126.572 80 28.3868
      vertex 126.332 76 27.9813
      vertex 126.572 76 28.3868
    endloop
  endfacet
  facet normal 0.987594 -0 0.15703
    outer loop
      vertex 112.559 76 31.06
      vertex 112.633 80 30.5946
      vertex 112.559 80 31.06
    endloop
  endfacet
  facet normal 0.987594 0 0.15703
    outer loop
      vertex 112.633 80 30.5946
      vertex 112.559 76 31.06
      vertex 112.633 76 30.5946
    endloop
  endfacet
  facet normal 0.453821 0 0.891093
    outer loop
      vertex 116.387 80 25.4277
      vertex 116.807 76 25.2138
      vertex 116.807 80 25.2138
    endloop
  endfacet
  facet normal 0.453821 0 0.891093
    outer loop
      vertex 116.807 76 25.2138
      vertex 116.387 80 25.4277
      vertex 116.387 76 25.4277
    endloop
  endfacet
  facet normal 0.917844 0 -0.39694
    outer loop
      vertex 113.214 76 35.1933
      vertex 113.027 80 34.7609
      vertex 113.214 80 35.1933
    endloop
  endfacet
  facet normal 0.917844 0 -0.39694
    outer loop
      vertex 113.027 80 34.7609
      vertex 113.214 76 35.1933
      vertex 113.027 76 34.7609
    endloop
  endfacet
  facet normal -0.707319 0 0.706894
    outer loop
      vertex 125.134 76 26.5327
      vertex 125.467 80 26.8659
      vertex 125.134 80 26.5327
    endloop
  endfacet
  facet normal -0.707319 0 0.706894
    outer loop
      vertex 125.467 80 26.8659
      vertex 125.134 76 26.5327
      vertex 125.467 76 26.8659
    endloop
  endfacet
  facet normal 0.156541 0 0.987672
    outer loop
      vertex 118.595 80 24.6328
      vertex 119.06 76 24.5591
      vertex 119.06 80 24.5591
    endloop
  endfacet
  facet normal 0.156541 0 0.987672
    outer loop
      vertex 119.06 76 24.5591
      vertex 118.595 80 24.6328
      vertex 118.595 76 24.6328
    endloop
  endfacet
  facet normal -0.562862 0 -0.826551
    outer loop
      vertex 124.019 76 38.3325
      vertex 124.408 80 38.0676
      vertex 124.408 76 38.0676
    endloop
  endfacet
  facet normal -0.562862 0 -0.826551
    outer loop
      vertex 124.408 80 38.0676
      vertex 124.019 76 38.3325
      vertex 124.019 80 38.3325
    endloop
  endfacet
  facet normal -0.890963 0 -0.454075
    outer loop
      vertex 126.786 76 35.1933
      vertex 126.572 80 35.6132
      vertex 126.786 80 35.1933
    endloop
  endfacet
  facet normal -0.890963 -0 -0.454075
    outer loop
      vertex 126.572 80 35.6132
      vertex 126.786 76 35.1933
      vertex 126.572 76 35.6132
    endloop
  endfacet
  facet normal -0.661657 0 -0.749807
    outer loop
      vertex 124.781 76 37.7788
      vertex 125.134 80 37.4673
      vertex 125.134 76 37.4673
    endloop
  endfacet
  facet normal -0.661657 0 -0.749807
    outer loop
      vertex 125.134 80 37.4673
      vertex 124.781 76 37.7788
      vertex 124.781 80 37.7788
    endloop
  endfacet
  facet normal -0.917844 0 0.39694
    outer loop
      vertex 126.786 76 28.8067
      vertex 126.973 80 29.2391
      vertex 126.786 80 28.8067
    endloop
  endfacet
  facet normal -0.917844 0 0.39694
    outer loop
      vertex 126.973 80 29.2391
      vertex 126.786 76 28.8067
      vertex 126.973 76 29.2391
    endloop
  endfacet
  facet normal 0.999493 -0 0.0318377
    outer loop
      vertex 112.5 76 32
      vertex 112.515 80 31.5291
      vertex 112.5 80 32
    endloop
  endfacet
  facet normal 0.999493 0 0.0318377
    outer loop
      vertex 112.515 80 31.5291
      vertex 112.5 76 32
      vertex 112.515 76 31.5291
    endloop
  endfacet
  facet normal 0.789935 0 -0.613191
    outer loop
      vertex 114.221 76 36.7807
      vertex 113.932 80 36.4084
      vertex 114.221 80 36.7807
    endloop
  endfacet
  facet normal 0.789935 0 -0.613191
    outer loop
      vertex 113.932 80 36.4084
      vertex 114.221 76 36.7807
      vertex 113.932 76 36.4084
    endloop
  endfacet
  facet normal 0.99563 0 -0.0933867
    outer loop
      vertex 112.559 76 32.94
      vertex 112.515 80 32.4709
      vertex 112.559 80 32.94
    endloop
  endfacet
  facet normal 0.99563 0 -0.0933867
    outer loop
      vertex 112.515 80 32.4709
      vertex 112.559 76 32.94
      vertex 112.515 76 32.4709
    endloop
  endfacet
  facet normal 0.99563 -0 0.0933867
    outer loop
      vertex 112.515 76 31.5291
      vertex 112.559 80 31.06
      vertex 112.515 80 31.5291
    endloop
  endfacet
  facet normal 0.99563 0 0.0933867
    outer loop
      vertex 112.559 80 31.06
      vertex 112.515 76 31.5291
      vertex 112.559 76 31.06
    endloop
  endfacet
  facet normal -0.612207 0 -0.790697
    outer loop
      vertex 124.408 76 38.0676
      vertex 124.781 80 37.7788
      vertex 124.781 76 37.7788
    endloop
  endfacet
  facet normal -0.612207 0 -0.790697
    outer loop
      vertex 124.781 80 37.7788
      vertex 124.408 76 38.0676
      vertex 124.408 80 38.0676
    endloop
  endfacet
  facet normal -0.749652 0 -0.661832
    outer loop
      vertex 125.779 76 36.7807
      vertex 125.467 80 37.1341
      vertex 125.779 80 36.7807
    endloop
  endfacet
  facet normal -0.749652 -0 -0.661832
    outer loop
      vertex 125.467 80 37.1341
      vertex 125.779 76 36.7807
      vertex 125.467 76 37.1341
    endloop
  endfacet
  facet normal -0.278779 0 0.960355
    outer loop
      vertex 121.865 80 24.7356
      vertex 122.318 76 24.8671
      vertex 122.318 80 24.8671
    endloop
  endfacet
  facet normal -0.278779 0 0.960355
    outer loop
      vertex 122.318 76 24.8671
      vertex 121.865 80 24.7356
      vertex 121.865 76 24.7356
    endloop
  endfacet
  facet normal -0.031407 0 0.999507
    outer loop
      vertex 120 80 24.5
      vertex 120.471 76 24.5148
      vertex 120.471 80 24.5148
    endloop
  endfacet
  facet normal -0.031407 0 0.999507
    outer loop
      vertex 120.471 76 24.5148
      vertex 120 80 24.5
      vertex 120 76 24.5
    endloop
  endfacet
  facet normal -0.218098 0 -0.975927
    outer loop
      vertex 121.405 76 39.3672
      vertex 121.865 80 39.2644
      vertex 121.865 76 39.2644
    endloop
  endfacet
  facet normal -0.218098 0 -0.975927
    outer loop
      vertex 121.865 80 39.2644
      vertex 121.405 76 39.3672
      vertex 121.405 80 39.3672
    endloop
  endfacet
  facet normal 0.453821 0 -0.891093
    outer loop
      vertex 116.387 76 38.5723
      vertex 116.807 80 38.7862
      vertex 116.807 76 38.7862
    endloop
  endfacet
  facet normal 0.453821 0 -0.891093
    outer loop
      vertex 116.807 80 38.7862
      vertex 116.387 76 38.5723
      vertex 116.387 80 38.5723
    endloop
  endfacet
  facet normal -0.278779 0 -0.960355
    outer loop
      vertex 121.865 76 39.2644
      vertex 122.318 80 39.1329
      vertex 122.318 76 39.1329
    endloop
  endfacet
  facet normal -0.278779 0 -0.960355
    outer loop
      vertex 122.318 80 39.1329
      vertex 121.865 76 39.2644
      vertex 121.865 80 39.2644
    endloop
  endfacet
  facet normal 0.940608 -0 0.339493
    outer loop
      vertex 112.867 76 29.6824
      vertex 113.027 80 29.2391
      vertex 112.867 80 29.6824
    endloop
  endfacet
  facet normal 0.940608 0 0.339493
    outer loop
      vertex 113.027 80 29.2391
      vertex 112.867 76 29.6824
      vertex 113.027 76 29.2391
    endloop
  endfacet
  facet normal -0.218098 0 0.975927
    outer loop
      vertex 121.405 80 24.6328
      vertex 121.865 76 24.7356
      vertex 121.865 80 24.7356
    endloop
  endfacet
  facet normal -0.218098 0 0.975927
    outer loop
      vertex 121.865 76 24.7356
      vertex 121.405 80 24.6328
      vertex 121.405 76 24.6328
    endloop
  endfacet
  facet normal -0.338945 0 -0.940806
    outer loop
      vertex 122.318 76 39.1329
      vertex 122.761 80 38.9733
      vertex 122.761 76 38.9733
    endloop
  endfacet
  facet normal -0.338945 0 -0.940806
    outer loop
      vertex 122.761 80 38.9733
      vertex 122.318 76 39.1329
      vertex 122.318 80 39.1329
    endloop
  endfacet
  facet normal -0.156541 0 0.987672
    outer loop
      vertex 120.94 80 24.5591
      vertex 121.405 76 24.6328
      vertex 121.405 80 24.6328
    endloop
  endfacet
  facet normal -0.156541 0 0.987672
    outer loop
      vertex 121.405 76 24.6328
      vertex 120.94 80 24.5591
      vertex 120.94 76 24.5591
    endloop
  endfacet
  facet normal 0.612207 0 -0.790697
    outer loop
      vertex 115.219 76 37.7788
      vertex 115.592 80 38.0676
      vertex 115.592 76 38.0676
    endloop
  endfacet
  facet normal 0.612207 0 -0.790697
    outer loop
      vertex 115.592 80 38.0676
      vertex 115.219 76 37.7788
      vertex 115.219 80 37.7788
    endloop
  endfacet
  facet normal 0.96054 -0 0.278141
    outer loop
      vertex 112.736 76 30.1348
      vertex 112.867 80 29.6824
      vertex 112.736 80 30.1348
    endloop
  endfacet
  facet normal 0.96054 0 0.278141
    outer loop
      vertex 112.867 80 29.6824
      vertex 112.736 76 30.1348
      vertex 112.867 76 29.6824
    endloop
  endfacet
  facet normal 0.975816 -0 0.218593
    outer loop
      vertex 112.633 76 30.5946
      vertex 112.736 80 30.1348
      vertex 112.633 80 30.5946
    endloop
  endfacet
  facet normal 0.975816 0 0.218593
    outer loop
      vertex 112.736 80 30.1348
      vertex 112.633 76 30.5946
      vertex 112.736 76 30.1348
    endloop
  endfacet
  facet normal 0.0940377 0 -0.995569
    outer loop
      vertex 119.06 76 39.4409
      vertex 119.529 80 39.4852
      vertex 119.529 76 39.4852
    endloop
  endfacet
  facet normal 0.0940377 0 -0.995569
    outer loop
      vertex 119.529 80 39.4852
      vertex 119.06 76 39.4409
      vertex 119.06 80 39.4409
    endloop
  endfacet
  facet normal 0.031407 0 -0.999507
    outer loop
      vertex 119.529 76 39.4852
      vertex 120 80 39.5
      vertex 120 76 39.5
    endloop
  endfacet
  facet normal 0.031407 0 -0.999507
    outer loop
      vertex 120 80 39.5
      vertex 119.529 76 39.4852
      vertex 119.529 80 39.4852
    endloop
  endfacet
  facet normal 0.940608 0 -0.339493
    outer loop
      vertex 113.027 76 34.7609
      vertex 112.867 80 34.3176
      vertex 113.027 80 34.7609
    endloop
  endfacet
  facet normal 0.940608 0 -0.339493
    outer loop
      vertex 112.867 80 34.3176
      vertex 113.027 76 34.7609
      vertex 112.867 76 34.3176
    endloop
  endfacet
  facet normal 0.999493 0 -0.0318377
    outer loop
      vertex 112.515 76 32.4709
      vertex 112.5 80 32
      vertex 112.515 80 32.4709
    endloop
  endfacet
  facet normal 0.999493 0 -0.0318377
    outer loop
      vertex 112.5 80 32
      vertex 112.515 76 32.4709
      vertex 112.5 76 32
    endloop
  endfacet
  facet normal 0.278779 0 -0.960355
    outer loop
      vertex 117.682 76 39.1329
      vertex 118.135 80 39.2644
      vertex 118.135 76 39.2644
    endloop
  endfacet
  facet normal 0.278779 0 -0.960355
    outer loop
      vertex 118.135 80 39.2644
      vertex 117.682 76 39.1329
      vertex 117.682 80 39.1329
    endloop
  endfacet
  facet normal -0.749652 0 0.661832
    outer loop
      vertex 125.467 76 26.8659
      vertex 125.779 80 27.2193
      vertex 125.467 80 26.8659
    endloop
  endfacet
  facet normal -0.749652 0 0.661832
    outer loop
      vertex 125.779 80 27.2193
      vertex 125.467 76 26.8659
      vertex 125.779 76 27.2193
    endloop
  endfacet
  facet normal -0.827909 0 -0.560862
    outer loop
      vertex 126.332 76 36.0187
      vertex 126.068 80 36.4084
      vertex 126.332 80 36.0187
    endloop
  endfacet
  facet normal -0.827909 -0 -0.560862
    outer loop
      vertex 126.068 80 36.4084
      vertex 126.332 76 36.0187
      vertex 126.068 76 36.4084
    endloop
  endfacet
endsolid OpenSCAD_Model
