solid OpenSCAD_Model
  facet normal -1 0 0
    outer loop
      vertex 0 0.333291 0.0866871
      vertex 0 0.444699 0.111891
      vertex 0 0.444699 0
    endloop
  endfacet
  facet normal -1 0 0
    outer loop
      vertex 0 0.444699 0.111891
      vertex 0 0.337867 0.10291
      vertex 0 0.337999 0.106299
    endloop
  endfacet
  facet normal -1 0 0
    outer loop
      vertex 0 0.444699 0.111891
      vertex 0 0.337467 0.0995417
      vertex 0 0.337867 0.10291
    endloop
  endfacet
  facet normal -1 0 0
    outer loop
      vertex 0 0.444699 0.111891
      vertex 0 0.336806 0.0962143
      vertex 0 0.337467 0.0995417
    endloop
  endfacet
  facet normal -1 0 0
    outer loop
      vertex 0 0.444699 0.111891
      vertex 0 0.335885 0.0929499
      vertex 0 0.336806 0.0962143
    endloop
  endfacet
  facet normal -1 0 0
    outer loop
      vertex 0 0.444699 0.111891
      vertex 0 0.334711 0.0897675
      vertex 0 0.335885 0.0929499
    endloop
  endfacet
  facet normal -1 0 0
    outer loop
      vertex 0 0.444699 0.111891
      vertex 0 0.333291 0.0866871
      vertex 0 0.334711 0.0897675
    endloop
  endfacet
  facet normal -1 0 0
    outer loop
      vertex 0 0.444699 0
      vertex 0 0.331634 0.0837278
      vertex 0 0.333291 0.0866871
    endloop
  endfacet
  facet normal -1 0 0
    outer loop
      vertex 0 0.444699 0
      vertex 0 0.329749 0.0809069
      vertex 0 0.331634 0.0837278
    endloop
  endfacet
  facet normal -1 0 0
    outer loop
      vertex 0 0.444699 0
      vertex 0 0.327649 0.0782433
      vertex 0 0.329749 0.0809069
    endloop
  endfacet
  facet normal -1 0 0
    outer loop
      vertex 0 0.444699 0
      vertex 0 0.325347 0.0757523
      vertex 0 0.327649 0.0782433
    endloop
  endfacet
  facet normal -1 0 0
    outer loop
      vertex 0 0.444699 0
      vertex 0 0.322856 0.0734501
      vertex 0 0.325347 0.0757523
    endloop
  endfacet
  facet normal -1 0 0
    outer loop
      vertex 0 0.444699 0
      vertex 0 0.320191 0.0713501
      vertex 0 0.322856 0.0734501
    endloop
  endfacet
  facet normal -1 0 0
    outer loop
      vertex 0 0.444699 0
      vertex 0 0.317371 0.0694656
      vertex 0 0.320191 0.0713501
    endloop
  endfacet
  facet normal -1 0 0
    outer loop
      vertex 0 0.444699 0
      vertex 0 0.314412 0.0678082
      vertex 0 0.317371 0.0694656
    endloop
  endfacet
  facet normal -1 0 0
    outer loop
      vertex 0 0.444699 0
      vertex 0 0.311332 0.0663881
      vertex 0 0.314412 0.0678082
    endloop
  endfacet
  facet normal -1 0 0
    outer loop
      vertex 0 0.444699 0
      vertex 0 0.308149 0.0652142
      vertex 0 0.311332 0.0663881
    endloop
  endfacet
  facet normal -1 0 0
    outer loop
      vertex 0 0.444699 0
      vertex 0 0.304884 0.0642929
      vertex 0 0.308149 0.0652142
    endloop
  endfacet
  facet normal -1 0 0
    outer loop
      vertex 0 0.444699 0
      vertex 0 0.301558 0.0636311
      vertex 0 0.304884 0.0642929
    endloop
  endfacet
  facet normal -1 0 0
    outer loop
      vertex 0 0.444699 0
      vertex 0 0.298189 0.0632324
      vertex 0 0.301558 0.0636311
    endloop
  endfacet
  facet normal -1 0 0
    outer loop
      vertex 0 0.444699 0
      vertex 0 0.2948 0.0630999
      vertex 0 0.298189 0.0632324
    endloop
  endfacet
  facet normal -1 0 0
    outer loop
      vertex 0 0.444699 0
      vertex 0 0.29141 0.0632324
      vertex 0 0.2948 0.0630999
    endloop
  endfacet
  facet normal -1 0 0
    outer loop
      vertex 0 0.444699 0
      vertex 0 0.288041 0.0636311
      vertex 0 0.29141 0.0632324
    endloop
  endfacet
  facet normal -1 0 0
    outer loop
      vertex 0 0 0
      vertex 0 0.288041 0.0636311
      vertex 0 0.444699 0
    endloop
  endfacet
  facet normal -1 -0 0
    outer loop
      vertex 0 0.288041 0.0636311
      vertex 0 0 0
      vertex 0 0.284715 0.0642929
    endloop
  endfacet
  facet normal -1 -0 0
    outer loop
      vertex 0 0.284715 0.0642929
      vertex 0 0 0
      vertex 0 0.28145 0.0652142
    endloop
  endfacet
  facet normal -1 -0 0
    outer loop
      vertex 0 0.251733 0.10291
      vertex 0 0.134521 0.0991993
      vertex 0 0.251599 0.106299
    endloop
  endfacet
  facet normal -1 -0 0
    outer loop
      vertex 0 0.252131 0.0995417
      vertex 0 0.134521 0.0991993
      vertex 0 0.251733 0.10291
    endloop
  endfacet
  facet normal -1 0 0
    outer loop
      vertex 0 0.252793 0.0962143
      vertex 0 0.134521 0.0991993
      vertex 0 0.252131 0.0995417
    endloop
  endfacet
  facet normal -1 0 0
    outer loop
      vertex 0 0.253714 0.0929499
      vertex 0 0.134521 0.0991993
      vertex 0 0.252793 0.0962143
    endloop
  endfacet
  facet normal -1 0 0
    outer loop
      vertex 0 0.254888 0.0897675
      vertex 0 0.134521 0.0991993
      vertex 0 0.253714 0.0929499
    endloop
  endfacet
  facet normal -1 0 0
    outer loop
      vertex 0 0.256308 0.0866871
      vertex 0 0.134521 0.0991993
      vertex 0 0.254888 0.0897675
    endloop
  endfacet
  facet normal -1 0 0
    outer loop
      vertex 0 0.257965 0.0837278
      vertex 0 0.134521 0.0991993
      vertex 0 0.256308 0.0866871
    endloop
  endfacet
  facet normal -1 0 0
    outer loop
      vertex 0 0.25985 0.0809069
      vertex 0 0.134521 0.0991993
      vertex 0 0.257965 0.0837278
    endloop
  endfacet
  facet normal -1 0 0
    outer loop
      vertex 0 0.26195 0.0782433
      vertex 0 0.134521 0.0991993
      vertex 0 0.25985 0.0809069
    endloop
  endfacet
  facet normal -1 0 0
    outer loop
      vertex 0 0.264253 0.0757523
      vertex 0 0.134521 0.0991993
      vertex 0 0.26195 0.0782433
    endloop
  endfacet
  facet normal -1 0 0
    outer loop
      vertex 0 0.266744 0.0734501
      vertex 0 0.134521 0.0991993
      vertex 0 0.264253 0.0757523
    endloop
  endfacet
  facet normal -1 0 0
    outer loop
      vertex 0 0.269407 0.0713501
      vertex 0 0.134521 0.0991993
      vertex 0 0.266744 0.0734501
    endloop
  endfacet
  facet normal -1 0 0
    outer loop
      vertex 0 0.272227 0.0694656
      vertex 0 0.134521 0.0991993
      vertex 0 0.269407 0.0713501
    endloop
  endfacet
  facet normal -1 0 0
    outer loop
      vertex 0 0 0
      vertex 0 0.272227 0.0694656
      vertex 0 0.275187 0.0678082
    endloop
  endfacet
  facet normal -1 0 0
    outer loop
      vertex 0 0 0
      vertex 0 0.275187 0.0678082
      vertex 0 0.278268 0.0663881
    endloop
  endfacet
  facet normal -1 -0 0
    outer loop
      vertex 0 0.28145 0.0652142
      vertex 0 0 0
      vertex 0 0.278268 0.0663881
    endloop
  endfacet
  facet normal -1 -0 0
    outer loop
      vertex 0 0.272227 0.0694656
      vertex 0 0 0
      vertex 0 0.134521 0.0991993
    endloop
  endfacet
  facet normal -1 0 0
    outer loop
      vertex 0 0 0.1938
      vertex 0 0.0909996 0.0991993
      vertex 0 0 0
    endloop
  endfacet
  facet normal -1 -0 0
    outer loop
      vertex 0 0.134521 0.0991993
      vertex 0 0 0
      vertex 0 0.0909996 0.0991993
    endloop
  endfacet
  facet normal -1 0 0
    outer loop
      vertex 0 0.525803 0.111891
      vertex 0 0.625 0
      vertex 0 0.525803 0
    endloop
  endfacet
  facet normal -1 0 0
    outer loop
      vertex 0 0.625 0
      vertex 0 0.525803 0.111891
      vertex 0 0.625 0.1938
    endloop
  endfacet
  facet normal -1 0 0
    outer loop
      vertex 0 0.444699 0.111891
      vertex 0 0.625 0.1938
      vertex 0 0.525803 0.111891
    endloop
  endfacet
  facet normal -1 0 0
    outer loop
      vertex 0 0.337867 0.109689
      vertex 0 0.444699 0.111891
      vertex 0 0.337999 0.106299
    endloop
  endfacet
  facet normal -1 0 0
    outer loop
      vertex 0 0.337467 0.113057
      vertex 0 0.444699 0.111891
      vertex 0 0.337867 0.109689
    endloop
  endfacet
  facet normal -1 0 0
    outer loop
      vertex 0 0.336806 0.116385
      vertex 0 0.444699 0.111891
      vertex 0 0.337467 0.113057
    endloop
  endfacet
  facet normal -1 0 0
    outer loop
      vertex 0 0.335885 0.119649
      vertex 0 0.444699 0.111891
      vertex 0 0.336806 0.116385
    endloop
  endfacet
  facet normal -1 0 0
    outer loop
      vertex 0 0.334711 0.122831
      vertex 0 0.444699 0.111891
      vertex 0 0.335885 0.119649
    endloop
  endfacet
  facet normal -1 0 0
    outer loop
      vertex 0 0.333291 0.125912
      vertex 0 0.444699 0.111891
      vertex 0 0.334711 0.122831
    endloop
  endfacet
  facet normal -1 0 0
    outer loop
      vertex 0 0.331634 0.128872
      vertex 0 0.444699 0.111891
      vertex 0 0.333291 0.125912
    endloop
  endfacet
  facet normal -1 0 0
    outer loop
      vertex 0 0.329749 0.131692
      vertex 0 0.444699 0.111891
      vertex 0 0.331634 0.128872
    endloop
  endfacet
  facet normal -1 0 0
    outer loop
      vertex 0 0.327649 0.134356
      vertex 0 0.444699 0.111891
      vertex 0 0.329749 0.131692
    endloop
  endfacet
  facet normal -1 0 0
    outer loop
      vertex 0 0.325347 0.136847
      vertex 0 0.444699 0.111891
      vertex 0 0.327649 0.134356
    endloop
  endfacet
  facet normal -1 0 0
    outer loop
      vertex 0 0.322856 0.139149
      vertex 0 0.444699 0.111891
      vertex 0 0.325347 0.136847
    endloop
  endfacet
  facet normal -1 0 0
    outer loop
      vertex 0 0.320191 0.141249
      vertex 0 0.444699 0.111891
      vertex 0 0.322856 0.139149
    endloop
  endfacet
  facet normal -1 0 0
    outer loop
      vertex 0 0.317371 0.143133
      vertex 0 0.444699 0.111891
      vertex 0 0.320191 0.141249
    endloop
  endfacet
  facet normal -1 0 0
    outer loop
      vertex 0 0.444699 0.111891
      vertex 0 0.317371 0.143133
      vertex 0 0.625 0.1938
    endloop
  endfacet
  facet normal -1 0 0
    outer loop
      vertex 0 0.314412 0.144791
      vertex 0 0.625 0.1938
      vertex 0 0.317371 0.143133
    endloop
  endfacet
  facet normal -1 0 0
    outer loop
      vertex 0 0.311332 0.146211
      vertex 0 0.625 0.1938
      vertex 0 0.314412 0.144791
    endloop
  endfacet
  facet normal -1 0 0
    outer loop
      vertex 0 0.308149 0.147386
      vertex 0 0.625 0.1938
      vertex 0 0.311332 0.146211
    endloop
  endfacet
  facet normal -1 0 0
    outer loop
      vertex 0 0.304884 0.148306
      vertex 0 0.625 0.1938
      vertex 0 0.308149 0.147386
    endloop
  endfacet
  facet normal -1 0 0
    outer loop
      vertex 0 0.301558 0.148968
      vertex 0 0.625 0.1938
      vertex 0 0.304884 0.148306
    endloop
  endfacet
  facet normal -1 0 0
    outer loop
      vertex 0 0.298189 0.149366
      vertex 0 0.625 0.1938
      vertex 0 0.301558 0.148968
    endloop
  endfacet
  facet normal -1 0 0
    outer loop
      vertex 0 0.2948 0.1495
      vertex 0 0.625 0.1938
      vertex 0 0.298189 0.149366
    endloop
  endfacet
  facet normal -1 0 0
    outer loop
      vertex 0 0 0.1938
      vertex 0 0.2948 0.1495
      vertex 0 0.29141 0.149366
    endloop
  endfacet
  facet normal -1 0 0
    outer loop
      vertex 0 0 0.1938
      vertex 0 0.29141 0.149366
      vertex 0 0.288041 0.148968
    endloop
  endfacet
  facet normal -1 0 0
    outer loop
      vertex 0 0.134521 0.0991993
      vertex 0 0.251733 0.109689
      vertex 0 0.251599 0.106299
    endloop
  endfacet
  facet normal -1 0 0
    outer loop
      vertex 0 0.134521 0.0991993
      vertex 0 0.252131 0.113057
      vertex 0 0.251733 0.109689
    endloop
  endfacet
  facet normal -1 0 0
    outer loop
      vertex 0 0.134521 0.143308
      vertex 0 0.252131 0.113057
      vertex 0 0.134521 0.0991993
    endloop
  endfacet
  facet normal -1 0 0
    outer loop
      vertex 0 0.252131 0.113057
      vertex 0 0.134521 0.143308
      vertex 0 0.252793 0.116385
    endloop
  endfacet
  facet normal -1 0 0
    outer loop
      vertex 0 0.252793 0.116385
      vertex 0 0.134521 0.143308
      vertex 0 0.253714 0.119649
    endloop
  endfacet
  facet normal -1 0 0
    outer loop
      vertex 0 0.253714 0.119649
      vertex 0 0.134521 0.143308
      vertex 0 0.254888 0.122831
    endloop
  endfacet
  facet normal -1 0 0
    outer loop
      vertex 0 0.254888 0.122831
      vertex 0 0.134521 0.143308
      vertex 0 0.256308 0.125912
    endloop
  endfacet
  facet normal -1 0 0
    outer loop
      vertex 0 0.256308 0.125912
      vertex 0 0.134521 0.143308
      vertex 0 0.257965 0.128872
    endloop
  endfacet
  facet normal -1 0 0
    outer loop
      vertex 0 0.257965 0.128872
      vertex 0 0.134521 0.143308
      vertex 0 0.25985 0.131692
    endloop
  endfacet
  facet normal -1 0 0
    outer loop
      vertex 0 0.25985 0.131692
      vertex 0 0.134521 0.143308
      vertex 0 0.26195 0.134356
    endloop
  endfacet
  facet normal -1 0 0
    outer loop
      vertex 0 0.26195 0.134356
      vertex 0 0.134521 0.143308
      vertex 0 0.264253 0.136847
    endloop
  endfacet
  facet normal -1 0 0
    outer loop
      vertex 0 0.264253 0.136847
      vertex 0 0.134521 0.143308
      vertex 0 0.266744 0.139149
    endloop
  endfacet
  facet normal -1 0 0
    outer loop
      vertex 0 0.266744 0.139149
      vertex 0 0.134521 0.143308
      vertex 0 0.269407 0.141249
    endloop
  endfacet
  facet normal -1 0 0
    outer loop
      vertex 0 0.269407 0.141249
      vertex 0 0.134521 0.143308
      vertex 0 0.272227 0.143133
    endloop
  endfacet
  facet normal -1 0 0
    outer loop
      vertex 0 0.272227 0.143133
      vertex 0 0.134521 0.143308
      vertex 0 0.275187 0.144791
    endloop
  endfacet
  facet normal -1 -0 0
    outer loop
      vertex 0 0.275187 0.144791
      vertex 0 0.134521 0.143308
      vertex 0 0.278268 0.146211
    endloop
  endfacet
  facet normal -1 -0 0
    outer loop
      vertex 0 0.278268 0.146211
      vertex 0 0.134521 0.143308
      vertex 0 0.28145 0.147386
    endloop
  endfacet
  facet normal -1 0 0
    outer loop
      vertex 0 0.134521 0.143308
      vertex 0 0.284715 0.148306
      vertex 0 0.28145 0.147386
    endloop
  endfacet
  facet normal -1 0 0
    outer loop
      vertex 0 0 0.1938
      vertex 0 0.284715 0.148306
      vertex 0 0.134521 0.143308
    endloop
  endfacet
  facet normal -1 0 0
    outer loop
      vertex 0 0.284715 0.148306
      vertex 0 0 0.1938
      vertex 0 0.288041 0.148968
    endloop
  endfacet
  facet normal -1 0 0
    outer loop
      vertex 0 0 0.1938
      vertex 0 0.134521 0.143308
      vertex 0 0.0909996 0.143308
    endloop
  endfacet
  facet normal -1 0 0
    outer loop
      vertex 0 0.2948 0.1495
      vertex 0 0 0.1938
      vertex 0 0.625 0.1938
    endloop
  endfacet
  facet normal -1 0 0
    outer loop
      vertex 0 0.0909996 0.0991993
      vertex 0 0 0.1938
      vertex 0 0.0909996 0.143308
    endloop
  endfacet
  facet normal 0 0 1
    outer loop
      vertex 0.577168 0.207299 0.00624943
      vertex 0.75 0.625 0.00624943
      vertex 0.577168 0.613549 0.00624943
    endloop
  endfacet
  facet normal 0 0 1
    outer loop
      vertex 0.75 0.625 0.00624943
      vertex 0.3125 0.613549 0.00624943
      vertex 0.577168 0.613549 0.00624943
    endloop
  endfacet
  facet normal 0 0 1
    outer loop
      vertex 0.00729942 0.444699 0.00624943
      vertex 0.3125 0.613549 0.00624943
      vertex 0.00729942 0.525803 0.00624943
    endloop
  endfacet
  facet normal -0 0 1
    outer loop
      vertex 0.00629997 0.625 0.00624943
      vertex 0.3125 0.613549 0.00624943
      vertex 0.75 0.625 0.00624943
    endloop
  endfacet
  facet normal 0 0 1
    outer loop
      vertex 0.00629997 0.625 0.00624943
      vertex 0.00729942 0.525803 0.00624943
      vertex 0.3125 0.613549 0.00624943
    endloop
  endfacet
  facet normal 0 0 1
    outer loop
      vertex 0.00729942 0.525803 0.00624943
      vertex 0.00629997 0.625 0.00624943
      vertex 0.00629997 0.525803 0.00624943
    endloop
  endfacet
  facet normal 0 0 1
    outer loop
      vertex 0.75 0.625 0.00624943
      vertex 0.577168 0.207299 0.00624943
      vertex 0.75 0 0.00624943
    endloop
  endfacet
  facet normal -0 0 1
    outer loop
      vertex 0.3125 0.207299 0.00624943
      vertex 0.75 0 0.00624943
      vertex 0.577168 0.207299 0.00624943
    endloop
  endfacet
  facet normal 0 0 1
    outer loop
      vertex 0.3125 0.613549 0.00624943
      vertex 0.00729942 0.444699 0.00624943
      vertex 0.3125 0.207299 0.00624943
    endloop
  endfacet
  facet normal 0 0 1
    outer loop
      vertex 0.00629997 0 0.00624943
      vertex 0.00729942 0.444699 0.00624943
      vertex 0.00629997 0.444699 0.00624943
    endloop
  endfacet
  facet normal 0 0 1
    outer loop
      vertex 0.3125 0.207299 0.00624943
      vertex 0.00629997 0 0.00624943
      vertex 0.75 0 0.00624943
    endloop
  endfacet
  facet normal 0 0 1
    outer loop
      vertex 0.00729942 0.444699 0.00624943
      vertex 0.00629997 0 0.00624943
      vertex 0.3125 0.207299 0.00624943
    endloop
  endfacet
  facet normal 1 -0 0
    outer loop
      vertex 0.75 0 0.00624943
      vertex 0.75 0.625 0
      vertex 0.75 0.625 0.00624943
    endloop
  endfacet
  facet normal 1 0 0
    outer loop
      vertex 0.75 0.625 0
      vertex 0.75 0 0.00624943
      vertex 0.75 0 0
    endloop
  endfacet
  facet normal 0 1 0
    outer loop
      vertex 0.75 0.625 0.00624943
      vertex 0.75 0.625 0
      vertex 0.00629997 0.625 0.00624943
    endloop
  endfacet
  facet normal 0 1 -0
    outer loop
      vertex 0.00629997 0.625 0.00624943
      vertex 0 0.625 0.1938
      vertex 0.00629997 0.625 0.1938
    endloop
  endfacet
  facet normal 0 1 0
    outer loop
      vertex 0.00629997 0.625 0.00624943
      vertex 0 0.625 0
      vertex 0 0.625 0.1938
    endloop
  endfacet
  facet normal 0 1 0
    outer loop
      vertex 0 0.625 0
      vertex 0.00629997 0.625 0.00624943
      vertex 0.75 0.625 0
    endloop
  endfacet
  facet normal 0 0 -1
    outer loop
      vertex 0.75 0 0
      vertex 0.577168 0.207299 0
      vertex 0.75 0.625 0
    endloop
  endfacet
  facet normal 0 0 -1
    outer loop
      vertex 0.75 0 0
      vertex 0.3125 0.207299 0
      vertex 0.577168 0.207299 0
    endloop
  endfacet
  facet normal 0 0 -1
    outer loop
      vertex 0.3125 0.207299 0
      vertex 0.00729942 0.444699 0
      vertex 0.3125 0.613549 0
    endloop
  endfacet
  facet normal 0 0 -1
    outer loop
      vertex 0 0 0
      vertex 0.3125 0.207299 0
      vertex 0.75 0 0
    endloop
  endfacet
  facet normal 0 0 -1
    outer loop
      vertex 0 0 0
      vertex 0.00729942 0.444699 0
      vertex 0.3125 0.207299 0
    endloop
  endfacet
  facet normal -0 0 -1
    outer loop
      vertex 0.00729942 0.444699 0
      vertex 0 0 0
      vertex 0 0.444699 0
    endloop
  endfacet
  facet normal 0 0 -1
    outer loop
      vertex 0.577168 0.613549 0
      vertex 0.75 0.625 0
      vertex 0.577168 0.207299 0
    endloop
  endfacet
  facet normal 0 0 -1
    outer loop
      vertex 0.3125 0.613549 0
      vertex 0.75 0.625 0
      vertex 0.577168 0.613549 0
    endloop
  endfacet
  facet normal 0 0 -1
    outer loop
      vertex 0.00729942 0.525803 0
      vertex 0.3125 0.613549 0
      vertex 0.00729942 0.444699 0
    endloop
  endfacet
  facet normal 0 0 -1
    outer loop
      vertex 0 0.625 0
      vertex 0.00729942 0.525803 0
      vertex 0 0.525803 0
    endloop
  endfacet
  facet normal 0 0 -1
    outer loop
      vertex 0.3125 0.613549 0
      vertex 0 0.625 0
      vertex 0.75 0.625 0
    endloop
  endfacet
  facet normal 0 0 -1
    outer loop
      vertex 0.00729942 0.525803 0
      vertex 0 0.625 0
      vertex 0.3125 0.613549 0
    endloop
  endfacet
  facet normal 0 -1 0
    outer loop
      vertex 0 0 0.1938
      vertex 0.00629997 0 0.00624943
      vertex 0.00629997 0 0.1938
    endloop
  endfacet
  facet normal 0 -1 0
    outer loop
      vertex 0 0 0
      vertex 0.00629997 0 0.00624943
      vertex 0 0 0.1938
    endloop
  endfacet
  facet normal 0 -1 0
    outer loop
      vertex 0.75 0 0
      vertex 0.00629997 0 0.00624943
      vertex 0 0 0
    endloop
  endfacet
  facet normal 0 -1 0
    outer loop
      vertex 0.00629997 0 0.00624943
      vertex 0.75 0 0
      vertex 0.75 0 0.00624943
    endloop
  endfacet
  facet normal -0 0 1
    outer loop
      vertex 0 0.625 0.1938
      vertex 0.00629997 0 0.1938
      vertex 0.00629997 0.625 0.1938
    endloop
  endfacet
  facet normal 0 0 1
    outer loop
      vertex 0.00629997 0 0.1938
      vertex 0 0.625 0.1938
      vertex 0 0 0.1938
    endloop
  endfacet
  facet normal 1 0 0
    outer loop
      vertex 0.00629997 0.625 0.1938
      vertex 0.00629997 0.525803 0.111891
      vertex 0.00629997 0.625 0.00624943
    endloop
  endfacet
  facet normal 1 0 0
    outer loop
      vertex 0.00629997 0.625 0.1938
      vertex 0.00629997 0.444699 0.111891
      vertex 0.00629997 0.525803 0.111891
    endloop
  endfacet
  facet normal 1 0 0
    outer loop
      vertex 0.00629997 0.337867 0.10291
      vertex 0.00629997 0.444699 0.111891
      vertex 0.00629997 0.337999 0.106299
    endloop
  endfacet
  facet normal 1 -0 0
    outer loop
      vertex 0.00629997 0.317371 0.143133
      vertex 0.00629997 0.444699 0.111891
      vertex 0.00629997 0.625 0.1938
    endloop
  endfacet
  facet normal 1 0 0
    outer loop
      vertex 0.00629997 0.444699 0.111891
      vertex 0.00629997 0.337867 0.109689
      vertex 0.00629997 0.337999 0.106299
    endloop
  endfacet
  facet normal 1 0 0
    outer loop
      vertex 0.00629997 0.444699 0.111891
      vertex 0.00629997 0.337467 0.113057
      vertex 0.00629997 0.337867 0.109689
    endloop
  endfacet
  facet normal 1 0 0
    outer loop
      vertex 0.00629997 0.444699 0.111891
      vertex 0.00629997 0.336806 0.116385
      vertex 0.00629997 0.337467 0.113057
    endloop
  endfacet
  facet normal 1 0 0
    outer loop
      vertex 0.00629997 0.444699 0.111891
      vertex 0.00629997 0.335885 0.119649
      vertex 0.00629997 0.336806 0.116385
    endloop
  endfacet
  facet normal 1 0 0
    outer loop
      vertex 0.00629997 0.444699 0.111891
      vertex 0.00629997 0.334711 0.122831
      vertex 0.00629997 0.335885 0.119649
    endloop
  endfacet
  facet normal 1 0 0
    outer loop
      vertex 0.00629997 0.444699 0.111891
      vertex 0.00629997 0.333291 0.125912
      vertex 0.00629997 0.334711 0.122831
    endloop
  endfacet
  facet normal 1 0 0
    outer loop
      vertex 0.00629997 0.444699 0.111891
      vertex 0.00629997 0.331634 0.128872
      vertex 0.00629997 0.333291 0.125912
    endloop
  endfacet
  facet normal 1 0 0
    outer loop
      vertex 0.00629997 0.444699 0.111891
      vertex 0.00629997 0.329749 0.131692
      vertex 0.00629997 0.331634 0.128872
    endloop
  endfacet
  facet normal 1 0 0
    outer loop
      vertex 0.00629997 0.444699 0.111891
      vertex 0.00629997 0.327649 0.134356
      vertex 0.00629997 0.329749 0.131692
    endloop
  endfacet
  facet normal 1 0 0
    outer loop
      vertex 0.00629997 0.444699 0.111891
      vertex 0.00629997 0.325347 0.136847
      vertex 0.00629997 0.327649 0.134356
    endloop
  endfacet
  facet normal 1 0 0
    outer loop
      vertex 0.00629997 0.444699 0.111891
      vertex 0.00629997 0.322856 0.139149
      vertex 0.00629997 0.325347 0.136847
    endloop
  endfacet
  facet normal 1 0 0
    outer loop
      vertex 0.00629997 0.444699 0.111891
      vertex 0.00629997 0.320191 0.141249
      vertex 0.00629997 0.322856 0.139149
    endloop
  endfacet
  facet normal 1 0 0
    outer loop
      vertex 0.00629997 0.444699 0.111891
      vertex 0.00629997 0.317371 0.143133
      vertex 0.00629997 0.320191 0.141249
    endloop
  endfacet
  facet normal 1 0 0
    outer loop
      vertex 0.00629997 0.625 0.1938
      vertex 0.00629997 0.314412 0.144791
      vertex 0.00629997 0.317371 0.143133
    endloop
  endfacet
  facet normal 1 0 0
    outer loop
      vertex 0.00629997 0.625 0.1938
      vertex 0.00629997 0.311332 0.146211
      vertex 0.00629997 0.314412 0.144791
    endloop
  endfacet
  facet normal 1 0 0
    outer loop
      vertex 0.00629997 0.625 0.1938
      vertex 0.00629997 0.308149 0.147386
      vertex 0.00629997 0.311332 0.146211
    endloop
  endfacet
  facet normal 1 0 0
    outer loop
      vertex 0.00629997 0.625 0.1938
      vertex 0.00629997 0.304884 0.148306
      vertex 0.00629997 0.308149 0.147386
    endloop
  endfacet
  facet normal 1 0 0
    outer loop
      vertex 0.00629997 0.625 0.1938
      vertex 0.00629997 0.301558 0.148968
      vertex 0.00629997 0.304884 0.148306
    endloop
  endfacet
  facet normal 1 0 0
    outer loop
      vertex 0.00629997 0.625 0.1938
      vertex 0.00629997 0.298189 0.149366
      vertex 0.00629997 0.301558 0.148968
    endloop
  endfacet
  facet normal 1 0 0
    outer loop
      vertex 0.00629997 0.625 0.1938
      vertex 0.00629997 0.2948 0.1495
      vertex 0.00629997 0.298189 0.149366
    endloop
  endfacet
  facet normal 1 -0 0
    outer loop
      vertex 0.00629997 0 0.1938
      vertex 0.00629997 0.2948 0.1495
      vertex 0.00629997 0.625 0.1938
    endloop
  endfacet
  facet normal 1 0 0
    outer loop
      vertex 0.00629997 0.2948 0.1495
      vertex 0.00629997 0 0.1938
      vertex 0.00629997 0.29141 0.149366
    endloop
  endfacet
  facet normal 1 0 0
    outer loop
      vertex 0.00629997 0.252131 0.113057
      vertex 0.00629997 0.134521 0.0991993
      vertex 0.00629997 0.251733 0.109689
    endloop
  endfacet
  facet normal 1 0 0
    outer loop
      vertex 0.00629997 0.134521 0.0991993
      vertex 0.00629997 0.252131 0.113057
      vertex 0.00629997 0.134521 0.143308
    endloop
  endfacet
  facet normal 1 0 0
    outer loop
      vertex 0.00629997 0.252793 0.116385
      vertex 0.00629997 0.134521 0.143308
      vertex 0.00629997 0.252131 0.113057
    endloop
  endfacet
  facet normal 1 0 0
    outer loop
      vertex 0.00629997 0.253714 0.119649
      vertex 0.00629997 0.134521 0.143308
      vertex 0.00629997 0.252793 0.116385
    endloop
  endfacet
  facet normal 1 0 0
    outer loop
      vertex 0.00629997 0.254888 0.122831
      vertex 0.00629997 0.134521 0.143308
      vertex 0.00629997 0.253714 0.119649
    endloop
  endfacet
  facet normal 1 0 0
    outer loop
      vertex 0.00629997 0.256308 0.125912
      vertex 0.00629997 0.134521 0.143308
      vertex 0.00629997 0.254888 0.122831
    endloop
  endfacet
  facet normal 1 0 0
    outer loop
      vertex 0.00629997 0.257965 0.128872
      vertex 0.00629997 0.134521 0.143308
      vertex 0.00629997 0.256308 0.125912
    endloop
  endfacet
  facet normal 1 0 0
    outer loop
      vertex 0.00629997 0.25985 0.131692
      vertex 0.00629997 0.134521 0.143308
      vertex 0.00629997 0.257965 0.128872
    endloop
  endfacet
  facet normal 1 0 0
    outer loop
      vertex 0.00629997 0.26195 0.134356
      vertex 0.00629997 0.134521 0.143308
      vertex 0.00629997 0.25985 0.131692
    endloop
  endfacet
  facet normal 1 0 0
    outer loop
      vertex 0.00629997 0.264253 0.136847
      vertex 0.00629997 0.134521 0.143308
      vertex 0.00629997 0.26195 0.134356
    endloop
  endfacet
  facet normal 1 0 0
    outer loop
      vertex 0.00629997 0.266744 0.139149
      vertex 0.00629997 0.134521 0.143308
      vertex 0.00629997 0.264253 0.136847
    endloop
  endfacet
  facet normal 1 0 0
    outer loop
      vertex 0.00629997 0.269407 0.141249
      vertex 0.00629997 0.134521 0.143308
      vertex 0.00629997 0.266744 0.139149
    endloop
  endfacet
  facet normal 1 0 0
    outer loop
      vertex 0.00629997 0.272227 0.143133
      vertex 0.00629997 0.134521 0.143308
      vertex 0.00629997 0.269407 0.141249
    endloop
  endfacet
  facet normal 1 0 0
    outer loop
      vertex 0.00629997 0.275187 0.144791
      vertex 0.00629997 0.134521 0.143308
      vertex 0.00629997 0.272227 0.143133
    endloop
  endfacet
  facet normal 1 0 0
    outer loop
      vertex 0.00629997 0.278268 0.146211
      vertex 0.00629997 0.134521 0.143308
      vertex 0.00629997 0.275187 0.144791
    endloop
  endfacet
  facet normal 1 0 0
    outer loop
      vertex 0.00629997 0.28145 0.147386
      vertex 0.00629997 0.134521 0.143308
      vertex 0.00629997 0.278268 0.146211
    endloop
  endfacet
  facet normal 1 0 0
    outer loop
      vertex 0.00629997 0.284715 0.148306
      vertex 0.00629997 0.134521 0.143308
      vertex 0.00629997 0.28145 0.147386
    endloop
  endfacet
  facet normal 1 0 0
    outer loop
      vertex 0.00629997 0 0.1938
      vertex 0.00629997 0.284715 0.148306
      vertex 0.00629997 0.288041 0.148968
    endloop
  endfacet
  facet normal 1 0 0
    outer loop
      vertex 0.00629997 0.29141 0.149366
      vertex 0.00629997 0 0.1938
      vertex 0.00629997 0.288041 0.148968
    endloop
  endfacet
  facet normal 1 0 0
    outer loop
      vertex 0.00629997 0.284715 0.148306
      vertex 0.00629997 0 0.1938
      vertex 0.00629997 0.134521 0.143308
    endloop
  endfacet
  facet normal 1 0 0
    outer loop
      vertex 0.00629997 0.0909996 0.143308
      vertex 0.00629997 0 0.1938
      vertex 0.00629997 0.0909996 0.0991993
    endloop
  endfacet
  facet normal 1 0 0
    outer loop
      vertex 0.00629997 0.134521 0.143308
      vertex 0.00629997 0 0.1938
      vertex 0.00629997 0.0909996 0.143308
    endloop
  endfacet
  facet normal 1 0 0
    outer loop
      vertex 0.00629997 0.625 0.00624943
      vertex 0.00629997 0.525803 0.111891
      vertex 0.00629997 0.525803 0.00624943
    endloop
  endfacet
  facet normal 1 0 0
    outer loop
      vertex 0.00629997 0.337467 0.0995417
      vertex 0.00629997 0.444699 0.111891
      vertex 0.00629997 0.337867 0.10291
    endloop
  endfacet
  facet normal 1 0 0
    outer loop
      vertex 0.00629997 0.336806 0.0962143
      vertex 0.00629997 0.444699 0.111891
      vertex 0.00629997 0.337467 0.0995417
    endloop
  endfacet
  facet normal 1 0 0
    outer loop
      vertex 0.00629997 0.335885 0.0929499
      vertex 0.00629997 0.444699 0.111891
      vertex 0.00629997 0.336806 0.0962143
    endloop
  endfacet
  facet normal 1 0 0
    outer loop
      vertex 0.00629997 0.334711 0.0897675
      vertex 0.00629997 0.444699 0.111891
      vertex 0.00629997 0.335885 0.0929499
    endloop
  endfacet
  facet normal 1 0 0
    outer loop
      vertex 0.00629997 0.444699 0.111891
      vertex 0.00629997 0.334711 0.0897675
      vertex 0.00629997 0.444699 0.00624943
    endloop
  endfacet
  facet normal 1 -0 0
    outer loop
      vertex 0.00629997 0.333291 0.0866871
      vertex 0.00629997 0.444699 0.00624943
      vertex 0.00629997 0.334711 0.0897675
    endloop
  endfacet
  facet normal 1 -0 0
    outer loop
      vertex 0.00629997 0.331634 0.0837278
      vertex 0.00629997 0.444699 0.00624943
      vertex 0.00629997 0.333291 0.0866871
    endloop
  endfacet
  facet normal 1 -0 0
    outer loop
      vertex 0.00629997 0.329749 0.0809069
      vertex 0.00629997 0.444699 0.00624943
      vertex 0.00629997 0.331634 0.0837278
    endloop
  endfacet
  facet normal 1 -0 0
    outer loop
      vertex 0.00629997 0.327649 0.0782433
      vertex 0.00629997 0.444699 0.00624943
      vertex 0.00629997 0.329749 0.0809069
    endloop
  endfacet
  facet normal 1 -0 0
    outer loop
      vertex 0.00629997 0.325347 0.0757523
      vertex 0.00629997 0.444699 0.00624943
      vertex 0.00629997 0.327649 0.0782433
    endloop
  endfacet
  facet normal 1 -0 0
    outer loop
      vertex 0.00629997 0.322856 0.0734501
      vertex 0.00629997 0.444699 0.00624943
      vertex 0.00629997 0.325347 0.0757523
    endloop
  endfacet
  facet normal 1 -0 0
    outer loop
      vertex 0.00629997 0.320191 0.0713501
      vertex 0.00629997 0.444699 0.00624943
      vertex 0.00629997 0.322856 0.0734501
    endloop
  endfacet
  facet normal 1 -0 0
    outer loop
      vertex 0.00629997 0.317371 0.0694656
      vertex 0.00629997 0.444699 0.00624943
      vertex 0.00629997 0.320191 0.0713501
    endloop
  endfacet
  facet normal 1 -0 0
    outer loop
      vertex 0.00629997 0.314412 0.0678082
      vertex 0.00629997 0.444699 0.00624943
      vertex 0.00629997 0.317371 0.0694656
    endloop
  endfacet
  facet normal 1 -0 0
    outer loop
      vertex 0.00629997 0.311332 0.0663881
      vertex 0.00629997 0.444699 0.00624943
      vertex 0.00629997 0.314412 0.0678082
    endloop
  endfacet
  facet normal 1 -0 0
    outer loop
      vertex 0.00629997 0.308149 0.0652142
      vertex 0.00629997 0.444699 0.00624943
      vertex 0.00629997 0.311332 0.0663881
    endloop
  endfacet
  facet normal 1 -0 0
    outer loop
      vertex 0.00629997 0.304884 0.0642929
      vertex 0.00629997 0.444699 0.00624943
      vertex 0.00629997 0.308149 0.0652142
    endloop
  endfacet
  facet normal 1 -0 0
    outer loop
      vertex 0.00629997 0.301558 0.0636311
      vertex 0.00629997 0.444699 0.00624943
      vertex 0.00629997 0.304884 0.0642929
    endloop
  endfacet
  facet normal 1 -0 0
    outer loop
      vertex 0.00629997 0.298189 0.0632324
      vertex 0.00629997 0.444699 0.00624943
      vertex 0.00629997 0.301558 0.0636311
    endloop
  endfacet
  facet normal 1 -0 0
    outer loop
      vertex 0.00629997 0.2948 0.0630999
      vertex 0.00629997 0.444699 0.00624943
      vertex 0.00629997 0.298189 0.0632324
    endloop
  endfacet
  facet normal 1 0 0
    outer loop
      vertex 0.00629997 0.29141 0.0632324
      vertex 0.00629997 0.444699 0.00624943
      vertex 0.00629997 0.2948 0.0630999
    endloop
  endfacet
  facet normal 1 0 0
    outer loop
      vertex 0.00629997 0.288041 0.0636311
      vertex 0.00629997 0.444699 0.00624943
      vertex 0.00629997 0.29141 0.0632324
    endloop
  endfacet
  facet normal 1 0 0
    outer loop
      vertex 0.00629997 0 0.00624943
      vertex 0.00629997 0.288041 0.0636311
      vertex 0.00629997 0.284715 0.0642929
    endloop
  endfacet
  facet normal 1 0 0
    outer loop
      vertex 0.00629997 0 0.00624943
      vertex 0.00629997 0.284715 0.0642929
      vertex 0.00629997 0.28145 0.0652142
    endloop
  endfacet
  facet normal 1 0 0
    outer loop
      vertex 0.00629997 0.251733 0.109689
      vertex 0.00629997 0.134521 0.0991993
      vertex 0.00629997 0.251599 0.106299
    endloop
  endfacet
  facet normal 1 0 0
    outer loop
      vertex 0.00629997 0.251599 0.106299
      vertex 0.00629997 0.134521 0.0991993
      vertex 0.00629997 0.251733 0.10291
    endloop
  endfacet
  facet normal 1 0 0
    outer loop
      vertex 0.00629997 0.251733 0.10291
      vertex 0.00629997 0.134521 0.0991993
      vertex 0.00629997 0.252131 0.0995417
    endloop
  endfacet
  facet normal 1 0 0
    outer loop
      vertex 0.00629997 0.252131 0.0995417
      vertex 0.00629997 0.134521 0.0991993
      vertex 0.00629997 0.252793 0.0962143
    endloop
  endfacet
  facet normal 1 0 0
    outer loop
      vertex 0.00629997 0.252793 0.0962143
      vertex 0.00629997 0.134521 0.0991993
      vertex 0.00629997 0.253714 0.0929499
    endloop
  endfacet
  facet normal 1 0 0
    outer loop
      vertex 0.00629997 0.253714 0.0929499
      vertex 0.00629997 0.134521 0.0991993
      vertex 0.00629997 0.254888 0.0897675
    endloop
  endfacet
  facet normal 1 0 0
    outer loop
      vertex 0.00629997 0.254888 0.0897675
      vertex 0.00629997 0.134521 0.0991993
      vertex 0.00629997 0.256308 0.0866871
    endloop
  endfacet
  facet normal 1 0 0
    outer loop
      vertex 0.00629997 0.256308 0.0866871
      vertex 0.00629997 0.134521 0.0991993
      vertex 0.00629997 0.257965 0.0837278
    endloop
  endfacet
  facet normal 1 0 0
    outer loop
      vertex 0.00629997 0.257965 0.0837278
      vertex 0.00629997 0.134521 0.0991993
      vertex 0.00629997 0.25985 0.0809069
    endloop
  endfacet
  facet normal 1 0 0
    outer loop
      vertex 0.00629997 0.25985 0.0809069
      vertex 0.00629997 0.134521 0.0991993
      vertex 0.00629997 0.26195 0.0782433
    endloop
  endfacet
  facet normal 1 0 0
    outer loop
      vertex 0.00629997 0.26195 0.0782433
      vertex 0.00629997 0.134521 0.0991993
      vertex 0.00629997 0.264253 0.0757523
    endloop
  endfacet
  facet normal 1 0 0
    outer loop
      vertex 0.00629997 0.264253 0.0757523
      vertex 0.00629997 0.134521 0.0991993
      vertex 0.00629997 0.266744 0.0734501
    endloop
  endfacet
  facet normal 1 0 0
    outer loop
      vertex 0.00629997 0.266744 0.0734501
      vertex 0.00629997 0.134521 0.0991993
      vertex 0.00629997 0.269407 0.0713501
    endloop
  endfacet
  facet normal 1 0 0
    outer loop
      vertex 0.00629997 0.269407 0.0713501
      vertex 0.00629997 0.134521 0.0991993
      vertex 0.00629997 0.272227 0.0694656
    endloop
  endfacet
  facet normal 1 0 0
    outer loop
      vertex 0.00629997 0 0.00624943
      vertex 0.00629997 0.272227 0.0694656
      vertex 0.00629997 0.134521 0.0991993
    endloop
  endfacet
  facet normal 1 0 0
    outer loop
      vertex 0.00629997 0.272227 0.0694656
      vertex 0.00629997 0 0.00624943
      vertex 0.00629997 0.275187 0.0678082
    endloop
  endfacet
  facet normal 1 0 0
    outer loop
      vertex 0.00629997 0.275187 0.0678082
      vertex 0.00629997 0 0.00624943
      vertex 0.00629997 0.278268 0.0663881
    endloop
  endfacet
  facet normal 1 0 0
    outer loop
      vertex 0.00629997 0.278268 0.0663881
      vertex 0.00629997 0 0.00624943
      vertex 0.00629997 0.28145 0.0652142
    endloop
  endfacet
  facet normal 1 0 0
    outer loop
      vertex 0.00629997 0 0.00624943
      vertex 0.00629997 0.134521 0.0991993
      vertex 0.00629997 0.0909996 0.0991993
    endloop
  endfacet
  facet normal 1 0 0
    outer loop
      vertex 0.00629997 0.288041 0.0636311
      vertex 0.00629997 0 0.00624943
      vertex 0.00629997 0.444699 0.00624943
    endloop
  endfacet
  facet normal 1 0 0
    outer loop
      vertex 0.00629997 0 0.00624943
      vertex 0.00629997 0.0909996 0.0991993
      vertex 0.00629997 0 0.1938
    endloop
  endfacet
  facet normal 0 0 -1
    outer loop
      vertex 0 0.444699 0.111891
      vertex 0.00629997 0.525803 0.111891
      vertex 0.00629997 0.444699 0.111891
    endloop
  endfacet
  facet normal -0 0 -1
    outer loop
      vertex 0.00629997 0.525803 0.111891
      vertex 0 0.444699 0.111891
      vertex 0 0.525803 0.111891
    endloop
  endfacet
  facet normal -1 0 0
    outer loop
      vertex 0.00729942 0.444699 0
      vertex 0.00729942 0.525803 0.00624943
      vertex 0.00729942 0.525803 0
    endloop
  endfacet
  facet normal -1 -0 0
    outer loop
      vertex 0.00729942 0.525803 0.00624943
      vertex 0.00729942 0.444699 0
      vertex 0.00729942 0.444699 0.00624943
    endloop
  endfacet
  facet normal 0 1 0
    outer loop
      vertex 0.00729942 0.444699 0.00624943
      vertex 0.00729942 0.444699 0
      vertex 0.00629997 0.444699 0.00624943
    endloop
  endfacet
  facet normal 0 1 -0
    outer loop
      vertex 0.00629997 0.444699 0.00624943
      vertex 0 0.444699 0.111891
      vertex 0.00629997 0.444699 0.111891
    endloop
  endfacet
  facet normal 0 1 0
    outer loop
      vertex 0.00629997 0.444699 0.00624943
      vertex 0 0.444699 0
      vertex 0 0.444699 0.111891
    endloop
  endfacet
  facet normal 0 1 0
    outer loop
      vertex 0 0.444699 0
      vertex 0.00629997 0.444699 0.00624943
      vertex 0.00729942 0.444699 0
    endloop
  endfacet
  facet normal 0 -1 0
    outer loop
      vertex 0 0.525803 0.111891
      vertex 0.00629997 0.525803 0.00624943
      vertex 0.00629997 0.525803 0.111891
    endloop
  endfacet
  facet normal 0 -1 0
    outer loop
      vertex 0 0.525803 0
      vertex 0.00629997 0.525803 0.00624943
      vertex 0 0.525803 0.111891
    endloop
  endfacet
  facet normal 0 -1 0
    outer loop
      vertex 0.00729942 0.525803 0
      vertex 0.00629997 0.525803 0.00624943
      vertex 0 0.525803 0
    endloop
  endfacet
  facet normal 0 -1 0
    outer loop
      vertex 0.00629997 0.525803 0.00624943
      vertex 0.00729942 0.525803 0
      vertex 0.00729942 0.525803 0.00624943
    endloop
  endfacet
  facet normal 0 -0.0390672 0.999237
    outer loop
      vertex 0 0.298189 0.0632324
      vertex 0.00629997 0.2948 0.0630999
      vertex 0.00629997 0.298189 0.0632324
    endloop
  endfacet
  facet normal 0 -0.0390672 0.999237
    outer loop
      vertex 0.00629997 0.2948 0.0630999
      vertex 0 0.298189 0.0632324
      vertex 0 0.2948 0.0630999
    endloop
  endfacet
  facet normal 0 -0.0395088 -0.999219
    outer loop
      vertex 0 0.2948 0.1495
      vertex 0.00629997 0.298189 0.149366
      vertex 0.00629997 0.2948 0.1495
    endloop
  endfacet
  facet normal -0 -0.0395088 -0.999219
    outer loop
      vertex 0.00629997 0.298189 0.149366
      vertex 0 0.2948 0.1495
      vertex 0 0.298189 0.149366
    endloop
  endfacet
  facet normal 0 -0.999243 -0.0389086
    outer loop
      vertex 0 0.337999 0.106299
      vertex 0.00629997 0.337867 0.109689
      vertex 0 0.337867 0.109689
    endloop
  endfacet
  facet normal 0 -0.999243 -0.0389086
    outer loop
      vertex 0.00629997 0.337867 0.109689
      vertex 0 0.337999 0.106299
      vertex 0.00629997 0.337999 0.106299
    endloop
  endfacet
  facet normal 0 0.99922 -0.0394972
    outer loop
      vertex 0.00629997 0.251599 0.106299
      vertex 0 0.251733 0.109689
      vertex 0.00629997 0.251733 0.109689
    endloop
  endfacet
  facet normal 0 0.99922 -0.0394972
    outer loop
      vertex 0 0.251733 0.109689
      vertex 0.00629997 0.251599 0.106299
      vertex 0 0.251599 0.106299
    endloop
  endfacet
  facet normal 0 0.678696 -0.734419
    outer loop
      vertex 0 0.264253 0.136847
      vertex 0.00629997 0.266744 0.139149
      vertex 0.00629997 0.264253 0.136847
    endloop
  endfacet
  facet normal 0 0.678696 -0.734419
    outer loop
      vertex 0.00629997 0.266744 0.139149
      vertex 0 0.264253 0.136847
      vertex 0 0.266744 0.139149
    endloop
  endfacet
  facet normal 0 -0.734419 -0.678696
    outer loop
      vertex 0 0.327649 0.134356
      vertex 0.00629997 0.325347 0.136847
      vertex 0 0.325347 0.136847
    endloop
  endfacet
  facet normal 0 -0.734419 -0.678696
    outer loop
      vertex 0.00629997 0.325347 0.136847
      vertex 0 0.327649 0.134356
      vertex 0.00629997 0.327649 0.134356
    endloop
  endfacet
  facet normal 0 -0.908184 -0.418572
    outer loop
      vertex 0 0.334711 0.122831
      vertex 0.00629997 0.333291 0.125912
      vertex 0 0.333291 0.125912
    endloop
  endfacet
  facet normal 0 -0.908184 -0.418572
    outer loop
      vertex 0.00629997 0.333291 0.125912
      vertex 0 0.334711 0.122831
      vertex 0.00629997 0.334711 0.122831
    endloop
  endfacet
  facet normal 0 0.346402 -0.938086
    outer loop
      vertex 0 0.278268 0.146211
      vertex 0.00629997 0.28145 0.147386
      vertex 0.00629997 0.278268 0.146211
    endloop
  endfacet
  facet normal 0 0.346402 -0.938086
    outer loop
      vertex 0.00629997 0.28145 0.147386
      vertex 0 0.278268 0.146211
      vertex 0 0.28145 0.147386
    endloop
  endfacet
  facet normal 0 -0.938196 0.346104
    outer loop
      vertex 0 0.334711 0.0897675
      vertex 0.00629997 0.335885 0.0929499
      vertex 0 0.335885 0.0929499
    endloop
  endfacet
  facet normal 0 -0.938196 0.346104
    outer loop
      vertex 0.00629997 0.335885 0.0929499
      vertex 0 0.334711 0.0897675
      vertex 0.00629997 0.334711 0.0897675
    endloop
  endfacet
  facet normal 0 -0.418684 -0.908132
    outer loop
      vertex 0 0.311332 0.146211
      vertex 0.00629997 0.314412 0.144791
      vertex 0.00629997 0.311332 0.146211
    endloop
  endfacet
  facet normal -0 -0.418684 -0.908132
    outer loop
      vertex 0.00629997 0.314412 0.144791
      vertex 0 0.311332 0.146211
      vertex 0 0.314412 0.144791
    endloop
  endfacet
  facet normal 0 -0.980841 -0.194812
    outer loop
      vertex 0 0.337467 0.113057
      vertex 0.00629997 0.336806 0.116385
      vertex 0 0.336806 0.116385
    endloop
  endfacet
  facet normal 0 -0.980841 -0.194812
    outer loop
      vertex 0.00629997 0.336806 0.116385
      vertex 0 0.337467 0.113057
      vertex 0.00629997 0.337467 0.113057
    endloop
  endfacet
  facet normal 0 0.908184 -0.418572
    outer loop
      vertex 0.00629997 0.254888 0.122831
      vertex 0 0.256308 0.125912
      vertex 0.00629997 0.256308 0.125912
    endloop
  endfacet
  facet normal 0 0.908184 -0.418572
    outer loop
      vertex 0 0.256308 0.125912
      vertex 0.00629997 0.254888 0.122831
      vertex 0 0.254888 0.122831
    endloop
  endfacet
  facet normal 0 0.11732 -0.993094
    outer loop
      vertex 0 0.288041 0.148968
      vertex 0.00629997 0.29141 0.149366
      vertex 0.00629997 0.288041 0.148968
    endloop
  endfacet
  facet normal 0 0.11732 -0.993094
    outer loop
      vertex 0.00629997 0.29141 0.149366
      vertex 0 0.288041 0.148968
      vertex 0 0.29141 0.149366
    endloop
  endfacet
  facet normal 0 -0.117524 0.99307
    outer loop
      vertex 0 0.301558 0.0636311
      vertex 0.00629997 0.298189 0.0632324
      vertex 0.00629997 0.301558 0.0636311
    endloop
  endfacet
  facet normal 0 -0.117524 0.99307
    outer loop
      vertex 0.00629997 0.298189 0.0632324
      vertex 0 0.301558 0.0636311
      vertex 0 0.298189 0.0632324
    endloop
  endfacet
  facet normal 0 -0.678728 0.73439
    outer loop
      vertex 0 0.325347 0.0757523
      vertex 0.00629997 0.322856 0.0734501
      vertex 0.00629997 0.325347 0.0757523
    endloop
  endfacet
  facet normal 0 -0.678728 0.73439
    outer loop
      vertex 0.00629997 0.322856 0.0734501
      vertex 0 0.325347 0.0757523
      vertex 0 0.322856 0.0734501
    endloop
  endfacet
  facet normal 0 -0.618927 0.785448
    outer loop
      vertex 0 0.322856 0.0734501
      vertex 0.00629997 0.320191 0.0713501
      vertex 0.00629997 0.322856 0.0734501
    endloop
  endfacet
  facet normal 0 -0.618927 0.785448
    outer loop
      vertex 0.00629997 0.320191 0.0713501
      vertex 0 0.322856 0.0734501
      vertex 0 0.320191 0.0713501
    endloop
  endfacet
  facet normal 0 -0.488684 0.872461
    outer loop
      vertex 0 0.317371 0.0694656
      vertex 0.00629997 0.314412 0.0678082
      vertex 0.00629997 0.317371 0.0694656
    endloop
  endfacet
  facet normal 0 -0.488684 0.872461
    outer loop
      vertex 0.00629997 0.314412 0.0678082
      vertex 0 0.317371 0.0694656
      vertex 0 0.314412 0.0678082
    endloop
  endfacet
  facet normal 0 -0.980834 0.194846
    outer loop
      vertex 0 0.336806 0.0962143
      vertex 0.00629997 0.337467 0.0995417
      vertex 0 0.337467 0.0995417
    endloop
  endfacet
  facet normal 0 -0.980834 0.194846
    outer loop
      vertex 0.00629997 0.337467 0.0995417
      vertex 0 0.336806 0.0962143
      vertex 0.00629997 0.336806 0.0962143
    endloop
  endfacet
  facet normal 0 -0.962429 0.271534
    outer loop
      vertex 0 0.335885 0.0929499
      vertex 0.00629997 0.336806 0.0962143
      vertex 0 0.336806 0.0962143
    endloop
  endfacet
  facet normal 0 -0.962429 0.271534
    outer loop
      vertex 0.00629997 0.336806 0.0962143
      vertex 0 0.335885 0.0929499
      vertex 0.00629997 0.335885 0.0929499
    endloop
  endfacet
  facet normal 0 -0.999242 0.03892
    outer loop
      vertex 0 0.337867 0.10291
      vertex 0.00629997 0.337999 0.106299
      vertex 0 0.337999 0.106299
    endloop
  endfacet
  facet normal 0 -0.999242 0.03892
    outer loop
      vertex 0.00629997 0.337999 0.106299
      vertex 0 0.337867 0.10291
      vertex 0.00629997 0.337867 0.10291
    endloop
  endfacet
  facet normal 0 -0.908153 0.418639
    outer loop
      vertex 0 0.333291 0.0866871
      vertex 0.00629997 0.334711 0.0897675
      vertex 0 0.334711 0.0897675
    endloop
  endfacet
  facet normal 0 -0.908153 0.418639
    outer loop
      vertex 0.00629997 0.334711 0.0897675
      vertex 0 0.333291 0.0866871
      vertex 0.00629997 0.333291 0.0866871
    endloop
  endfacet
  facet normal 0 -0.872532 0.488557
    outer loop
      vertex 0 0.331634 0.0837278
      vertex 0.00629997 0.333291 0.0866871
      vertex 0 0.333291 0.0866871
    endloop
  endfacet
  facet normal 0 -0.872532 0.488557
    outer loop
      vertex 0.00629997 0.333291 0.0866871
      vertex 0 0.331634 0.0837278
      vertex 0.00629997 0.331634 0.0837278
    endloop
  endfacet
  facet normal 0 -0.78529 0.619128
    outer loop
      vertex 0 0.327649 0.0782433
      vertex 0.00629997 0.329749 0.0809069
      vertex 0 0.329749 0.0809069
    endloop
  endfacet
  facet normal 0 -0.78529 0.619128
    outer loop
      vertex 0.00629997 0.329749 0.0809069
      vertex 0 0.327649 0.0782433
      vertex 0.00629997 0.327649 0.0782433
    endloop
  endfacet
  facet normal 0 -0.271215 -0.962519
    outer loop
      vertex 0 0.304884 0.148306
      vertex 0.00629997 0.308149 0.147386
      vertex 0.00629997 0.304884 0.148306
    endloop
  endfacet
  facet normal -0 -0.271215 -0.962519
    outer loop
      vertex 0.00629997 0.308149 0.147386
      vertex 0 0.304884 0.148306
      vertex 0 0.308149 0.147386
    endloop
  endfacet
  facet normal 0 -0.618927 -0.785448
    outer loop
      vertex 0 0.320191 0.141249
      vertex 0.00629997 0.322856 0.139149
      vertex 0.00629997 0.320191 0.141249
    endloop
  endfacet
  facet normal -0 -0.618927 -0.785448
    outer loop
      vertex 0.00629997 0.322856 0.139149
      vertex 0 0.320191 0.141249
      vertex 0 0.322856 0.139149
    endloop
  endfacet
  facet normal 0 -0.678696 -0.734419
    outer loop
      vertex 0 0.322856 0.139149
      vertex 0.00629997 0.325347 0.136847
      vertex 0.00629997 0.322856 0.139149
    endloop
  endfacet
  facet normal -0 -0.678696 -0.734419
    outer loop
      vertex 0.00629997 0.325347 0.136847
      vertex 0 0.322856 0.139149
      vertex 0 0.325347 0.136847
    endloop
  endfacet
  facet normal 0 -0.488819 -0.872385
    outer loop
      vertex 0 0.314412 0.144791
      vertex 0.00629997 0.317371 0.143133
      vertex 0.00629997 0.314412 0.144791
    endloop
  endfacet
  facet normal -0 -0.488819 -0.872385
    outer loop
      vertex 0.00629997 0.317371 0.143133
      vertex 0 0.314412 0.144791
      vertex 0 0.317371 0.143133
    endloop
  endfacet
  facet normal 0 -0.346306 -0.938122
    outer loop
      vertex 0 0.308149 0.147386
      vertex 0.00629997 0.311332 0.146211
      vertex 0.00629997 0.308149 0.147386
    endloop
  endfacet
  facet normal -0 -0.346306 -0.938122
    outer loop
      vertex 0.00629997 0.311332 0.146211
      vertex 0 0.308149 0.147386
      vertex 0 0.311332 0.146211
    endloop
  endfacet
  facet normal 0 -0.11732 -0.993094
    outer loop
      vertex 0 0.298189 0.149366
      vertex 0.00629997 0.301558 0.148968
      vertex 0.00629997 0.298189 0.149366
    endloop
  endfacet
  facet normal -0 -0.11732 -0.993094
    outer loop
      vertex 0.00629997 0.301558 0.148968
      vertex 0 0.298189 0.149366
      vertex 0 0.301558 0.148968
    endloop
  endfacet
  facet normal 0 -0.831369 -0.55572
    outer loop
      vertex 0 0.331634 0.128872
      vertex 0.00629997 0.329749 0.131692
      vertex 0 0.329749 0.131692
    endloop
  endfacet
  facet normal 0 -0.831369 -0.55572
    outer loop
      vertex 0.00629997 0.329749 0.131692
      vertex 0 0.331634 0.128872
      vertex 0.00629997 0.331634 0.128872
    endloop
  endfacet
  facet normal 0 -0.872581 -0.488469
    outer loop
      vertex 0 0.333291 0.125912
      vertex 0.00629997 0.331634 0.128872
      vertex 0 0.331634 0.128872
    endloop
  endfacet
  facet normal 0 -0.872581 -0.488469
    outer loop
      vertex 0.00629997 0.331634 0.128872
      vertex 0 0.333291 0.125912
      vertex 0.00629997 0.333291 0.125912
    endloop
  endfacet
  facet normal 0 -0.785335 -0.619071
    outer loop
      vertex 0 0.329749 0.131692
      vertex 0.00629997 0.327649 0.134356
      vertex 0 0.327649 0.134356
    endloop
  endfacet
  facet normal 0 -0.785335 -0.619071
    outer loop
      vertex 0.00629997 0.327649 0.134356
      vertex 0 0.329749 0.131692
      vertex 0.00629997 0.329749 0.131692
    endloop
  endfacet
  facet normal 0 -0.938182 -0.346143
    outer loop
      vertex 0 0.335885 0.119649
      vertex 0.00629997 0.334711 0.122831
      vertex 0 0.334711 0.122831
    endloop
  endfacet
  facet normal 0 -0.938182 -0.346143
    outer loop
      vertex 0.00629997 0.334711 0.122831
      vertex 0 0.335885 0.119649
      vertex 0.00629997 0.335885 0.119649
    endloop
  endfacet
  facet normal 0 -0.993021 -0.117936
    outer loop
      vertex 0 0.337867 0.109689
      vertex 0.00629997 0.337467 0.113057
      vertex 0 0.337467 0.113057
    endloop
  endfacet
  facet normal 0 -0.993021 -0.117936
    outer loop
      vertex 0.00629997 0.337467 0.113057
      vertex 0 0.337867 0.109689
      vertex 0.00629997 0.337867 0.109689
    endloop
  endfacet
  facet normal 0 0.999219 0.0395088
    outer loop
      vertex 0.00629997 0.251733 0.10291
      vertex 0 0.251599 0.106299
      vertex 0.00629997 0.251599 0.106299
    endloop
  endfacet
  facet normal 0 0.999219 0.0395088
    outer loop
      vertex 0 0.251599 0.106299
      vertex 0.00629997 0.251733 0.10291
      vertex 0 0.251733 0.10291
    endloop
  endfacet
  facet normal 0 0.78529 0.619128
    outer loop
      vertex 0.00629997 0.26195 0.0782433
      vertex 0 0.25985 0.0809069
      vertex 0.00629997 0.25985 0.0809069
    endloop
  endfacet
  facet normal 0 0.78529 0.619128
    outer loop
      vertex 0 0.25985 0.0809069
      vertex 0.00629997 0.26195 0.0782433
      vertex 0 0.26195 0.0782433
    endloop
  endfacet
  facet normal 0 0.831451 0.555598
    outer loop
      vertex 0.00629997 0.25985 0.0809069
      vertex 0 0.257965 0.0837278
      vertex 0.00629997 0.257965 0.0837278
    endloop
  endfacet
  facet normal 0 0.831451 0.555598
    outer loop
      vertex 0 0.257965 0.0837278
      vertex 0.00629997 0.25985 0.0809069
      vertex 0 0.25985 0.0809069
    endloop
  endfacet
  facet normal 0 0.908153 0.418639
    outer loop
      vertex 0.00629997 0.256308 0.0866871
      vertex 0 0.254888 0.0897675
      vertex 0.00629997 0.254888 0.0897675
    endloop
  endfacet
  facet normal 0 0.908153 0.418639
    outer loop
      vertex 0 0.254888 0.0897675
      vertex 0.00629997 0.256308 0.0866871
      vertex 0 0.256308 0.0866871
    endloop
  endfacet
  facet normal -0 0.488558 0.872531
    outer loop
      vertex 0 0.275187 0.0678082
      vertex 0.00629997 0.272227 0.0694656
      vertex 0.00629997 0.275187 0.0678082
    endloop
  endfacet
  facet normal 0 0.488558 0.872531
    outer loop
      vertex 0.00629997 0.272227 0.0694656
      vertex 0 0.275187 0.0678082
      vertex 0 0.272227 0.0694656
    endloop
  endfacet
  facet normal -0 0.117524 0.99307
    outer loop
      vertex 0 0.29141 0.0632324
      vertex 0.00629997 0.288041 0.0636311
      vertex 0.00629997 0.29141 0.0632324
    endloop
  endfacet
  facet normal 0 0.117524 0.99307
    outer loop
      vertex 0.00629997 0.288041 0.0636311
      vertex 0 0.29141 0.0632324
      vertex 0 0.288041 0.0636311
    endloop
  endfacet
  facet normal 0 0.785335 -0.619071
    outer loop
      vertex 0.00629997 0.25985 0.131692
      vertex 0 0.26195 0.134356
      vertex 0.00629997 0.26195 0.134356
    endloop
  endfacet
  facet normal 0 0.785335 -0.619071
    outer loop
      vertex 0 0.26195 0.134356
      vertex 0.00629997 0.25985 0.131692
      vertex 0 0.25985 0.131692
    endloop
  endfacet
  facet normal 0 0.734272 -0.678855
    outer loop
      vertex 0.00629997 0.26195 0.134356
      vertex 0 0.264253 0.136847
      vertex 0.00629997 0.264253 0.136847
    endloop
  endfacet
  facet normal 0 0.734272 -0.678855
    outer loop
      vertex 0 0.264253 0.136847
      vertex 0.00629997 0.26195 0.134356
      vertex 0 0.26195 0.134356
    endloop
  endfacet
  facet normal 0 0.872581 -0.488469
    outer loop
      vertex 0.00629997 0.256308 0.125912
      vertex 0 0.257965 0.128872
      vertex 0.00629997 0.257965 0.128872
    endloop
  endfacet
  facet normal 0 0.872581 -0.488469
    outer loop
      vertex 0 0.257965 0.128872
      vertex 0.00629997 0.256308 0.125912
      vertex 0 0.256308 0.125912
    endloop
  endfacet
  facet normal 0 0.938182 -0.346143
    outer loop
      vertex 0.00629997 0.253714 0.119649
      vertex 0 0.254888 0.122831
      vertex 0.00629997 0.254888 0.122831
    endloop
  endfacet
  facet normal 0 0.938182 -0.346143
    outer loop
      vertex 0 0.254888 0.122831
      vertex 0.00629997 0.253714 0.119649
      vertex 0 0.253714 0.119649
    endloop
  endfacet
  facet normal 0 0.99309 -0.117354
    outer loop
      vertex 0.00629997 0.251733 0.109689
      vertex 0 0.252131 0.113057
      vertex 0.00629997 0.252131 0.113057
    endloop
  endfacet
  facet normal 0 0.99309 -0.117354
    outer loop
      vertex 0 0.252131 0.113057
      vertex 0.00629997 0.251733 0.109689
      vertex 0 0.251733 0.109689
    endloop
  endfacet
  facet normal 0 0.488693 -0.872456
    outer loop
      vertex 0 0.272227 0.143133
      vertex 0.00629997 0.275187 0.144791
      vertex 0.00629997 0.272227 0.143133
    endloop
  endfacet
  facet normal 0 0.488693 -0.872456
    outer loop
      vertex 0.00629997 0.275187 0.144791
      vertex 0 0.272227 0.143133
      vertex 0 0.275187 0.144791
    endloop
  endfacet
  facet normal 0 0.555516 -0.831506
    outer loop
      vertex 0 0.269407 0.141249
      vertex 0.00629997 0.272227 0.143133
      vertex 0.00629997 0.269407 0.141249
    endloop
  endfacet
  facet normal 0 0.555516 -0.831506
    outer loop
      vertex 0.00629997 0.272227 0.143133
      vertex 0 0.269407 0.141249
      vertex 0 0.272227 0.143133
    endloop
  endfacet
  facet normal 0 0.0394972 -0.99922
    outer loop
      vertex 0 0.29141 0.149366
      vertex 0.00629997 0.2948 0.1495
      vertex 0.00629997 0.29141 0.149366
    endloop
  endfacet
  facet normal 0 0.0394972 -0.99922
    outer loop
      vertex 0.00629997 0.2948 0.1495
      vertex 0 0.29141 0.149366
      vertex 0 0.2948 0.1495
    endloop
  endfacet
  facet normal 0 -0.195152 0.980773
    outer loop
      vertex 0 0.304884 0.0642929
      vertex 0.00629997 0.301558 0.0636311
      vertex 0.00629997 0.304884 0.0642929
    endloop
  endfacet
  facet normal 0 -0.195152 0.980773
    outer loop
      vertex 0.00629997 0.301558 0.0636311
      vertex 0 0.304884 0.0642929
      vertex 0 0.301558 0.0636311
    endloop
  endfacet
  facet normal 0 -0.27157 0.962419
    outer loop
      vertex 0 0.308149 0.0652142
      vertex 0.00629997 0.304884 0.0642929
      vertex 0.00629997 0.308149 0.0652142
    endloop
  endfacet
  facet normal 0 -0.27157 0.962419
    outer loop
      vertex 0.00629997 0.304884 0.0642929
      vertex 0 0.308149 0.0652142
      vertex 0 0.304884 0.0642929
    endloop
  endfacet
  facet normal 0 -0.418709 0.908121
    outer loop
      vertex 0 0.314412 0.0678082
      vertex 0.00629997 0.311332 0.0663881
      vertex 0.00629997 0.314412 0.0678082
    endloop
  endfacet
  facet normal 0 -0.418709 0.908121
    outer loop
      vertex 0.00629997 0.311332 0.0663881
      vertex 0 0.314412 0.0678082
      vertex 0 0.311332 0.0663881
    endloop
  endfacet
  facet normal 0 -0.346021 0.938227
    outer loop
      vertex 0 0.311332 0.0663881
      vertex 0.00629997 0.308149 0.0652142
      vertex 0.00629997 0.311332 0.0663881
    endloop
  endfacet
  facet normal 0 -0.346021 0.938227
    outer loop
      vertex 0.00629997 0.308149 0.0652142
      vertex 0 0.311332 0.0663881
      vertex 0 0.308149 0.0652142
    endloop
  endfacet
  facet normal 0 -0.734419 0.678696
    outer loop
      vertex 0 0.325347 0.0757523
      vertex 0.00629997 0.327649 0.0782433
      vertex 0 0.327649 0.0782433
    endloop
  endfacet
  facet normal 0 -0.734419 0.678696
    outer loop
      vertex 0.00629997 0.327649 0.0782433
      vertex 0 0.325347 0.0757523
      vertex 0.00629997 0.325347 0.0757523
    endloop
  endfacet
  facet normal 0 -0.555618 0.831437
    outer loop
      vertex 0 0.320191 0.0713501
      vertex 0.00629997 0.317371 0.0694656
      vertex 0.00629997 0.320191 0.0713501
    endloop
  endfacet
  facet normal 0 -0.555618 0.831437
    outer loop
      vertex 0.00629997 0.317371 0.0694656
      vertex 0 0.320191 0.0713501
      vertex 0 0.317371 0.0694656
    endloop
  endfacet
  facet normal 0 -0.831451 0.555598
    outer loop
      vertex 0 0.329749 0.0809069
      vertex 0.00629997 0.331634 0.0837278
      vertex 0 0.331634 0.0837278
    endloop
  endfacet
  facet normal 0 -0.831451 0.555598
    outer loop
      vertex 0.00629997 0.331634 0.0837278
      vertex 0 0.329749 0.0809069
      vertex 0.00629997 0.329749 0.0809069
    endloop
  endfacet
  facet normal 0 -0.555516 -0.831506
    outer loop
      vertex 0 0.317371 0.143133
      vertex 0.00629997 0.320191 0.141249
      vertex 0.00629997 0.317371 0.143133
    endloop
  endfacet
  facet normal -0 -0.555516 -0.831506
    outer loop
      vertex 0.00629997 0.320191 0.141249
      vertex 0 0.317371 0.143133
      vertex 0 0.320191 0.141249
    endloop
  endfacet
  facet normal 0 -0.195209 -0.980762
    outer loop
      vertex 0 0.301558 0.148968
      vertex 0.00629997 0.304884 0.148306
      vertex 0.00629997 0.301558 0.148968
    endloop
  endfacet
  facet normal -0 -0.195209 -0.980762
    outer loop
      vertex 0.00629997 0.304884 0.148306
      vertex 0 0.301558 0.148968
      vertex 0 0.304884 0.148306
    endloop
  endfacet
  facet normal 0 -0.96242 -0.271565
    outer loop
      vertex 0 0.336806 0.116385
      vertex 0.00629997 0.335885 0.119649
      vertex 0 0.335885 0.119649
    endloop
  endfacet
  facet normal 0 -0.96242 -0.271565
    outer loop
      vertex 0.00629997 0.335885 0.119649
      vertex 0 0.336806 0.116385
      vertex 0.00629997 0.336806 0.116385
    endloop
  endfacet
  facet normal -0 0.0390557 0.999237
    outer loop
      vertex 0 0.2948 0.0630999
      vertex 0.00629997 0.29141 0.0632324
      vertex 0.00629997 0.2948 0.0630999
    endloop
  endfacet
  facet normal 0 0.0390557 0.999237
    outer loop
      vertex 0.00629997 0.29141 0.0632324
      vertex 0 0.2948 0.0630999
      vertex 0 0.29141 0.0632324
    endloop
  endfacet
  facet normal 0 0.993091 0.117344
    outer loop
      vertex 0.00629997 0.252131 0.0995417
      vertex 0 0.251733 0.10291
      vertex 0.00629997 0.251733 0.10291
    endloop
  endfacet
  facet normal 0 0.993091 0.117344
    outer loop
      vertex 0 0.251733 0.10291
      vertex 0.00629997 0.252131 0.0995417
      vertex 0 0.252131 0.0995417
    endloop
  endfacet
  facet normal 0 0.980777 0.19513
    outer loop
      vertex 0.00629997 0.252793 0.0962143
      vertex 0 0.252131 0.0995417
      vertex 0.00629997 0.252131 0.0995417
    endloop
  endfacet
  facet normal 0 0.980777 0.19513
    outer loop
      vertex 0 0.252131 0.0995417
      vertex 0.00629997 0.252793 0.0962143
      vertex 0 0.252793 0.0962143
    endloop
  endfacet
  facet normal 0 0.938196 0.346104
    outer loop
      vertex 0.00629997 0.254888 0.0897675
      vertex 0 0.253714 0.0929499
      vertex 0.00629997 0.253714 0.0929499
    endloop
  endfacet
  facet normal 0 0.938196 0.346104
    outer loop
      vertex 0 0.253714 0.0929499
      vertex 0.00629997 0.254888 0.0897675
      vertex 0 0.254888 0.0897675
    endloop
  endfacet
  facet normal 0 0.962429 0.271534
    outer loop
      vertex 0.00629997 0.253714 0.0929499
      vertex 0 0.252793 0.0962143
      vertex 0.00629997 0.252793 0.0962143
    endloop
  endfacet
  facet normal 0 0.962429 0.271534
    outer loop
      vertex 0 0.252793 0.0962143
      vertex 0.00629997 0.253714 0.0929499
      vertex 0 0.253714 0.0929499
    endloop
  endfacet
  facet normal 0 0.734272 0.678855
    outer loop
      vertex 0.00629997 0.264253 0.0757523
      vertex 0 0.26195 0.0782433
      vertex 0.00629997 0.26195 0.0782433
    endloop
  endfacet
  facet normal 0 0.734272 0.678855
    outer loop
      vertex 0 0.26195 0.0782433
      vertex 0.00629997 0.264253 0.0757523
      vertex 0 0.264253 0.0757523
    endloop
  endfacet
  facet normal 0 0.872532 0.488557
    outer loop
      vertex 0.00629997 0.257965 0.0837278
      vertex 0 0.256308 0.0866871
      vertex 0.00629997 0.256308 0.0866871
    endloop
  endfacet
  facet normal 0 0.872532 0.488557
    outer loop
      vertex 0 0.256308 0.0866871
      vertex 0.00629997 0.257965 0.0837278
      vertex 0 0.257965 0.0837278
    endloop
  endfacet
  facet normal -0 0.555618 0.831437
    outer loop
      vertex 0 0.272227 0.0694656
      vertex 0.00629997 0.269407 0.0713501
      vertex 0.00629997 0.272227 0.0694656
    endloop
  endfacet
  facet normal 0 0.555618 0.831437
    outer loop
      vertex 0.00629997 0.269407 0.0713501
      vertex 0 0.272227 0.0694656
      vertex 0 0.269407 0.0713501
    endloop
  endfacet
  facet normal -0 0.678728 0.73439
    outer loop
      vertex 0 0.266744 0.0734501
      vertex 0.00629997 0.264253 0.0757523
      vertex 0.00629997 0.266744 0.0734501
    endloop
  endfacet
  facet normal 0 0.678728 0.73439
    outer loop
      vertex 0.00629997 0.264253 0.0757523
      vertex 0 0.266744 0.0734501
      vertex 0 0.264253 0.0757523
    endloop
  endfacet
  facet normal -0 0.619214 0.785222
    outer loop
      vertex 0 0.269407 0.0713501
      vertex 0.00629997 0.266744 0.0734501
      vertex 0.00629997 0.269407 0.0713501
    endloop
  endfacet
  facet normal 0 0.619214 0.785222
    outer loop
      vertex 0.00629997 0.266744 0.0734501
      vertex 0 0.269407 0.0713501
      vertex 0 0.266744 0.0734501
    endloop
  endfacet
  facet normal -0 0.418596 0.908172
    outer loop
      vertex 0 0.278268 0.0663881
      vertex 0.00629997 0.275187 0.0678082
      vertex 0.00629997 0.278268 0.0663881
    endloop
  endfacet
  facet normal 0 0.418596 0.908172
    outer loop
      vertex 0.00629997 0.275187 0.0678082
      vertex 0 0.278268 0.0663881
      vertex 0 0.275187 0.0678082
    endloop
  endfacet
  facet normal -0 0.195152 0.980773
    outer loop
      vertex 0 0.288041 0.0636311
      vertex 0.00629997 0.284715 0.0642929
      vertex 0.00629997 0.288041 0.0636311
    endloop
  endfacet
  facet normal 0 0.195152 0.980773
    outer loop
      vertex 0.00629997 0.284715 0.0642929
      vertex 0 0.288041 0.0636311
      vertex 0 0.284715 0.0642929
    endloop
  endfacet
  facet normal -0 0.346117 0.938192
    outer loop
      vertex 0 0.28145 0.0652142
      vertex 0.00629997 0.278268 0.0663881
      vertex 0.00629997 0.28145 0.0652142
    endloop
  endfacet
  facet normal 0 0.346117 0.938192
    outer loop
      vertex 0.00629997 0.278268 0.0663881
      vertex 0 0.28145 0.0652142
      vertex 0 0.278268 0.0663881
    endloop
  endfacet
  facet normal -0 0.27157 0.962419
    outer loop
      vertex 0 0.284715 0.0642929
      vertex 0.00629997 0.28145 0.0652142
      vertex 0.00629997 0.284715 0.0642929
    endloop
  endfacet
  facet normal 0 0.27157 0.962419
    outer loop
      vertex 0.00629997 0.28145 0.0652142
      vertex 0 0.284715 0.0642929
      vertex 0 0.28145 0.0652142
    endloop
  endfacet
  facet normal 0 0.831369 -0.55572
    outer loop
      vertex 0.00629997 0.257965 0.128872
      vertex 0 0.25985 0.131692
      vertex 0.00629997 0.25985 0.131692
    endloop
  endfacet
  facet normal 0 0.831369 -0.55572
    outer loop
      vertex 0 0.25985 0.131692
      vertex 0.00629997 0.257965 0.128872
      vertex 0 0.257965 0.128872
    endloop
  endfacet
  facet normal 0 0.96242 -0.271565
    outer loop
      vertex 0.00629997 0.252793 0.116385
      vertex 0 0.253714 0.119649
      vertex 0.00629997 0.253714 0.119649
    endloop
  endfacet
  facet normal 0 0.96242 -0.271565
    outer loop
      vertex 0 0.253714 0.119649
      vertex 0.00629997 0.252793 0.116385
      vertex 0 0.252793 0.116385
    endloop
  endfacet
  facet normal 0 0.980784 -0.195096
    outer loop
      vertex 0.00629997 0.252131 0.113057
      vertex 0 0.252793 0.116385
      vertex 0.00629997 0.252793 0.116385
    endloop
  endfacet
  facet normal 0 0.980784 -0.195096
    outer loop
      vertex 0 0.252793 0.116385
      vertex 0.00629997 0.252131 0.113057
      vertex 0 0.252131 0.113057
    endloop
  endfacet
  facet normal 0 0.418572 -0.908184
    outer loop
      vertex 0 0.275187 0.144791
      vertex 0.00629997 0.278268 0.146211
      vertex 0.00629997 0.275187 0.144791
    endloop
  endfacet
  facet normal 0 0.418572 -0.908184
    outer loop
      vertex 0.00629997 0.278268 0.146211
      vertex 0 0.275187 0.144791
      vertex 0 0.278268 0.146211
    endloop
  endfacet
  facet normal 0 0.195209 -0.980762
    outer loop
      vertex 0 0.284715 0.148306
      vertex 0.00629997 0.288041 0.148968
      vertex 0.00629997 0.284715 0.148306
    endloop
  endfacet
  facet normal 0 0.195209 -0.980762
    outer loop
      vertex 0.00629997 0.288041 0.148968
      vertex 0 0.284715 0.148306
      vertex 0 0.288041 0.148968
    endloop
  endfacet
  facet normal 0 0.271215 -0.962519
    outer loop
      vertex 0 0.28145 0.147386
      vertex 0.00629997 0.284715 0.148306
      vertex 0.00629997 0.28145 0.147386
    endloop
  endfacet
  facet normal 0 0.271215 -0.962519
    outer loop
      vertex 0.00629997 0.284715 0.148306
      vertex 0 0.28145 0.147386
      vertex 0 0.284715 0.148306
    endloop
  endfacet
  facet normal 0 -0.993022 0.117926
    outer loop
      vertex 0 0.337467 0.0995417
      vertex 0.00629997 0.337867 0.10291
      vertex 0 0.337867 0.10291
    endloop
  endfacet
  facet normal 0 -0.993022 0.117926
    outer loop
      vertex 0.00629997 0.337867 0.10291
      vertex 0 0.337467 0.0995417
      vertex 0.00629997 0.337467 0.0995417
    endloop
  endfacet
  facet normal 0 0.619214 -0.785222
    outer loop
      vertex 0 0.266744 0.139149
      vertex 0.00629997 0.269407 0.141249
      vertex 0.00629997 0.266744 0.139149
    endloop
  endfacet
  facet normal 0 0.619214 -0.785222
    outer loop
      vertex 0.00629997 0.269407 0.141249
      vertex 0 0.266744 0.139149
      vertex 0 0.269407 0.141249
    endloop
  endfacet
  facet normal 0 0 -1
    outer loop
      vertex 0 0.0909996 0.143308
      vertex 0.00629997 0.134521 0.143308
      vertex 0.00629997 0.0909996 0.143308
    endloop
  endfacet
  facet normal -0 0 -1
    outer loop
      vertex 0.00629997 0.134521 0.143308
      vertex 0 0.0909996 0.143308
      vertex 0 0.134521 0.143308
    endloop
  endfacet
  facet normal -0 0 1
    outer loop
      vertex 0 0.134521 0.0991993
      vertex 0.00629997 0.0909996 0.0991993
      vertex 0.00629997 0.134521 0.0991993
    endloop
  endfacet
  facet normal 0 0 1
    outer loop
      vertex 0.00629997 0.0909996 0.0991993
      vertex 0 0.134521 0.0991993
      vertex 0 0.0909996 0.0991993
    endloop
  endfacet
  facet normal 0 1 -0
    outer loop
      vertex 0.00629997 0.0909996 0.0991993
      vertex 0 0.0909996 0.143308
      vertex 0.00629997 0.0909996 0.143308
    endloop
  endfacet
  facet normal 0 1 0
    outer loop
      vertex 0 0.0909996 0.143308
      vertex 0.00629997 0.0909996 0.0991993
      vertex 0 0.0909996 0.0991993
    endloop
  endfacet
  facet normal 0 -1 0
    outer loop
      vertex 0 0.134521 0.0991993
      vertex 0.00629997 0.134521 0.143308
      vertex 0 0.134521 0.143308
    endloop
  endfacet
  facet normal 0 -1 -0
    outer loop
      vertex 0.00629997 0.134521 0.143308
      vertex 0 0.134521 0.0991993
      vertex 0.00629997 0.134521 0.0991993
    endloop
  endfacet
  facet normal 1 -0 0
    outer loop
      vertex 0.3125 0.207299 0.00624943
      vertex 0.3125 0.613549 0
      vertex 0.3125 0.613549 0.00624943
    endloop
  endfacet
  facet normal 1 0 0
    outer loop
      vertex 0.3125 0.613549 0
      vertex 0.3125 0.207299 0.00624943
      vertex 0.3125 0.207299 0
    endloop
  endfacet
  facet normal -1 0 0
    outer loop
      vertex 0.577168 0.207299 0
      vertex 0.577168 0.613549 0.00624943
      vertex 0.577168 0.613549 0
    endloop
  endfacet
  facet normal -1 -0 0
    outer loop
      vertex 0.577168 0.613549 0.00624943
      vertex 0.577168 0.207299 0
      vertex 0.577168 0.207299 0.00624943
    endloop
  endfacet
  facet normal 0 -1 0
    outer loop
      vertex 0.3125 0.613549 0
      vertex 0.577168 0.613549 0.00624943
      vertex 0.3125 0.613549 0.00624943
    endloop
  endfacet
  facet normal 0 -1 -0
    outer loop
      vertex 0.577168 0.613549 0.00624943
      vertex 0.3125 0.613549 0
      vertex 0.577168 0.613549 0
    endloop
  endfacet
  facet normal 0 1 -0
    outer loop
      vertex 0.577168 0.207299 0
      vertex 0.3125 0.207299 0.00624943
      vertex 0.577168 0.207299 0.00624943
    endloop
  endfacet
  facet normal 0 1 0
    outer loop
      vertex 0.3125 0.207299 0.00624943
      vertex 0.577168 0.207299 0
      vertex 0.3125 0.207299 0
    endloop
  endfacet
endsolid OpenSCAD_Model
