solid OpenSCAD_Model
  facet normal 1 -0 0
    outer loop
      vertex 80 0 2
      vertex 80 18.5 0
      vertex 80 18.5 2
    endloop
  endfacet
  facet normal 1 0 0
    outer loop
      vertex 80 18.5 0
      vertex 80 0 2
      vertex 80 0 0
    endloop
  endfacet
  facet normal 1 0 0
    outer loop
      vertex 80 20 10
      vertex 80 60 12
      vertex 80 20 12
    endloop
  endfacet
  facet normal 1 0 0
    outer loop
      vertex 80 60 12
      vertex 80 20 10
      vertex 80 60 0
    endloop
  endfacet
  facet normal 1 0 0
    outer loop
      vertex 80 20 10
      vertex 80 20 0
      vertex 80 60 0
    endloop
  endfacet
  facet normal 1 -0 0
    outer loop
      vertex 80 18.5 2
      vertex 80 20 0
      vertex 80 20 10
    endloop
  endfacet
  facet normal 1 0 0
    outer loop
      vertex 80 18.5 2
      vertex 80 20 10
      vertex 80 18.5 10
    endloop
  endfacet
  facet normal 1 0 0
    outer loop
      vertex 80 18.5 0
      vertex 80 20 0
      vertex 80 18.5 2
    endloop
  endfacet
  facet normal 1 0 0
    outer loop
      vertex 80 20 0
      vertex 80 18.5 0
      vertex 80 20 -4
    endloop
  endfacet
  facet normal 1 0 0
    outer loop
      vertex 80 20 -4
      vertex 80 18.5 0
      vertex 80 18.5 -4
    endloop
  endfacet
  facet normal 0 0 1
    outer loop
      vertex 74 60 10
      vertex 40 18.5 10
      vertex 74 20 10
    endloop
  endfacet
  facet normal -0 0 1
    outer loop
      vertex 6 60 10
      vertex 40 18.5 10
      vertex 74 60 10
    endloop
  endfacet
  facet normal -0 0 1
    outer loop
      vertex 6 20 10
      vertex 40 18.5 10
      vertex 6 60 10
    endloop
  endfacet
  facet normal 0 0 1
    outer loop
      vertex 0 18.5 10
      vertex 6 20 10
      vertex 0 20 10
    endloop
  endfacet
  facet normal 0 0 1
    outer loop
      vertex 6 20 10
      vertex 0 18.5 10
      vertex 40 18.5 10
    endloop
  endfacet
  facet normal -0 0 1
    outer loop
      vertex 74 20 10
      vertex 80 18.5 10
      vertex 80 20 10
    endloop
  endfacet
  facet normal 0 0 1
    outer loop
      vertex 80 18.5 10
      vertex 74 20 10
      vertex 40 18.5 10
    endloop
  endfacet
  facet normal 0 0 -1
    outer loop
      vertex 0 18.5 -4
      vertex 80 20 -4
      vertex 80 18.5 -4
    endloop
  endfacet
  facet normal -0 0 -1
    outer loop
      vertex 80 20 -4
      vertex 0 18.5 -4
      vertex 0 20 -4
    endloop
  endfacet
  facet normal -1 0 0
    outer loop
      vertex 0 0 0
      vertex 0 18.5 2
      vertex 0 18.5 0
    endloop
  endfacet
  facet normal -1 -0 0
    outer loop
      vertex 0 18.5 2
      vertex 0 0 0
      vertex 0 0 2
    endloop
  endfacet
  facet normal -1 0 0
    outer loop
      vertex 0 20 10
      vertex 0 60 0
      vertex 0 20 0
    endloop
  endfacet
  facet normal -1 0 0
    outer loop
      vertex 0 60 0
      vertex 0 20 10
      vertex 0 60 12
    endloop
  endfacet
  facet normal -1 -0 0
    outer loop
      vertex 0 60 12
      vertex 0 20 10
      vertex 0 20 12
    endloop
  endfacet
  facet normal -1 0 0
    outer loop
      vertex 0 18.5 0
      vertex 0 20 0
      vertex 0 20 -4
    endloop
  endfacet
  facet normal -1 0 0
    outer loop
      vertex 0 18.5 0
      vertex 0 20 -4
      vertex 0 18.5 -4
    endloop
  endfacet
  facet normal -1 0 0
    outer loop
      vertex 0 20 0
      vertex 0 18.5 0
      vertex 0 18.5 2
    endloop
  endfacet
  facet normal -1 0 0
    outer loop
      vertex 0 20 0
      vertex 0 18.5 2
      vertex 0 20 10
    endloop
  endfacet
  facet normal -1 -0 0
    outer loop
      vertex 0 20 10
      vertex 0 18.5 2
      vertex 0 18.5 10
    endloop
  endfacet
  facet normal 0 -1 0
    outer loop
      vertex 74 20 10
      vertex 80 20 12
      vertex 74 20 12
    endloop
  endfacet
  facet normal 0 -1 -0
    outer loop
      vertex 80 20 12
      vertex 74 20 10
      vertex 80 20 10
    endloop
  endfacet
  facet normal 0 -1 0
    outer loop
      vertex 0 20 10
      vertex 6 20 12
      vertex 0 20 12
    endloop
  endfacet
  facet normal 0 -1 -0
    outer loop
      vertex 6 20 12
      vertex 0 20 10
      vertex 6 20 10
    endloop
  endfacet
  facet normal 0 1 -0
    outer loop
      vertex 80 20 -4
      vertex 44.4684 20 0
      vertex 80 20 0
    endloop
  endfacet
  facet normal 0 1 0
    outer loop
      vertex 44.4684 20 0
      vertex 80 20 -4
      vertex 44.3738 20 -0.107282
    endloop
  endfacet
  facet normal 0 1 0
    outer loop
      vertex 44.3738 20 -0.107282
      vertex 80 20 -4
      vertex 44.1073 20 -0.373812
    endloop
  endfacet
  facet normal 0 1 0
    outer loop
      vertex 44.1073 20 -0.373812
      vertex 80 20 -4
      vertex 43.8245 20 -0.623079
    endloop
  endfacet
  facet normal 0 1 0
    outer loop
      vertex 43.8245 20 -0.623079
      vertex 80 20 -4
      vertex 43.5267 20 -0.854101
    endloop
  endfacet
  facet normal 0 1 0
    outer loop
      vertex 43.5267 20 -0.854101
      vertex 80 20 -4
      vertex 43.215 20 -1.06597
    endloop
  endfacet
  facet normal 0 1 0
    outer loop
      vertex 43.215 20 -1.06597
      vertex 80 20 -4
      vertex 42.8905 20 -1.25784
    endloop
  endfacet
  facet normal 0 1 0
    outer loop
      vertex 42.8905 20 -1.25784
      vertex 80 20 -4
      vertex 42.5547 20 -1.42896
    endloop
  endfacet
  facet normal 0 1 0
    outer loop
      vertex 42.5547 20 -1.42896
      vertex 80 20 -4
      vertex 42.2087 20 -1.57866
    endloop
  endfacet
  facet normal 0 1 0
    outer loop
      vertex 42.2087 20 -1.57866
      vertex 80 20 -4
      vertex 41.8541 20 -1.70634
    endloop
  endfacet
  facet normal 0 1 0
    outer loop
      vertex 41.8541 20 -1.70634
      vertex 80 20 -4
      vertex 41.4921 20 -1.8115
    endloop
  endfacet
  facet normal 0 1 0
    outer loop
      vertex 41.4921 20 -1.8115
      vertex 80 20 -4
      vertex 41.1243 20 -1.89372
    endloop
  endfacet
  facet normal 0 1 0
    outer loop
      vertex 41.1243 20 -1.89372
      vertex 80 20 -4
      vertex 40.752 20 -1.95269
    endloop
  endfacet
  facet normal 0 1 0
    outer loop
      vertex 40.3767 20 -1.98816
      vertex 80 20 -4
      vertex 40 20 -2
    endloop
  endfacet
  facet normal 0 1 0
    outer loop
      vertex 40.752 20 -1.95269
      vertex 80 20 -4
      vertex 40.3767 20 -1.98816
    endloop
  endfacet
  facet normal 0 1 0
    outer loop
      vertex 0 20 -4
      vertex 35.5316 20 0
      vertex 35.6262 20 -0.107282
    endloop
  endfacet
  facet normal 0 1 0
    outer loop
      vertex 0 20 -4
      vertex 35.6262 20 -0.107282
      vertex 35.8927 20 -0.373812
    endloop
  endfacet
  facet normal 0 1 0
    outer loop
      vertex 0 20 -4
      vertex 35.8927 20 -0.373812
      vertex 36.1755 20 -0.623079
    endloop
  endfacet
  facet normal 0 1 0
    outer loop
      vertex 0 20 -4
      vertex 36.1755 20 -0.623079
      vertex 36.4733 20 -0.854101
    endloop
  endfacet
  facet normal 0 1 0
    outer loop
      vertex 0 20 -4
      vertex 36.4733 20 -0.854101
      vertex 36.785 20 -1.06597
    endloop
  endfacet
  facet normal 0 1 0
    outer loop
      vertex 0 20 -4
      vertex 36.785 20 -1.06597
      vertex 37.1095 20 -1.25784
    endloop
  endfacet
  facet normal 0 1 0
    outer loop
      vertex 0 20 -4
      vertex 37.1095 20 -1.25784
      vertex 37.4453 20 -1.42896
    endloop
  endfacet
  facet normal 0 1 0
    outer loop
      vertex 0 20 -4
      vertex 37.4453 20 -1.42896
      vertex 37.7913 20 -1.57866
    endloop
  endfacet
  facet normal 0 1 0
    outer loop
      vertex 0 20 -4
      vertex 37.7913 20 -1.57866
      vertex 38.1459 20 -1.70634
    endloop
  endfacet
  facet normal 0 1 0
    outer loop
      vertex 0 20 -4
      vertex 38.1459 20 -1.70634
      vertex 38.5079 20 -1.8115
    endloop
  endfacet
  facet normal 0 1 0
    outer loop
      vertex 0 20 -4
      vertex 38.5079 20 -1.8115
      vertex 38.8757 20 -1.89372
    endloop
  endfacet
  facet normal 0 1 0
    outer loop
      vertex 0 20 -4
      vertex 38.8757 20 -1.89372
      vertex 39.248 20 -1.95269
    endloop
  endfacet
  facet normal 0 1 0
    outer loop
      vertex 0 20 -4
      vertex 39.248 20 -1.95269
      vertex 39.6233 20 -1.98816
    endloop
  endfacet
  facet normal 0 1 0
    outer loop
      vertex 0 20 -4
      vertex 40 20 -2
      vertex 80 20 -4
    endloop
  endfacet
  facet normal 0 1 0
    outer loop
      vertex 35.5316 20 0
      vertex 0 20 -4
      vertex 0 20 0
    endloop
  endfacet
  facet normal 0 1 0
    outer loop
      vertex 40 20 -2
      vertex 0 20 -4
      vertex 39.6233 20 -1.98816
    endloop
  endfacet
  facet normal 0 -1 0
    outer loop
      vertex 39.6233 20 9.98816
      vertex 40.3767 20 9.98816
      vertex 40 20 10
    endloop
  endfacet
  facet normal 0 -1 0
    outer loop
      vertex 39.248 20 9.95269
      vertex 40.3767 20 9.98816
      vertex 39.6233 20 9.98816
    endloop
  endfacet
  facet normal 0 -1 0
    outer loop
      vertex 39.248 20 9.95269
      vertex 40.752 20 9.95269
      vertex 40.3767 20 9.98816
    endloop
  endfacet
  facet normal 0 -1 0
    outer loop
      vertex 38.8757 20 9.89372
      vertex 40.752 20 9.95269
      vertex 39.248 20 9.95269
    endloop
  endfacet
  facet normal 0 -1 0
    outer loop
      vertex 38.8757 20 9.89372
      vertex 41.1243 20 9.89372
      vertex 40.752 20 9.95269
    endloop
  endfacet
  facet normal 0 -1 0
    outer loop
      vertex 38.5079 20 9.8115
      vertex 41.1243 20 9.89372
      vertex 38.8757 20 9.89372
    endloop
  endfacet
  facet normal 0 -1 0
    outer loop
      vertex 38.5079 20 9.8115
      vertex 41.4921 20 9.8115
      vertex 41.1243 20 9.89372
    endloop
  endfacet
  facet normal 0 -1 0
    outer loop
      vertex 38.1459 20 9.70634
      vertex 41.4921 20 9.8115
      vertex 38.5079 20 9.8115
    endloop
  endfacet
  facet normal 0 -1 0
    outer loop
      vertex 38.1459 20 9.70634
      vertex 41.8541 20 9.70634
      vertex 41.4921 20 9.8115
    endloop
  endfacet
  facet normal 0 -1 0
    outer loop
      vertex 37.7913 20 9.57866
      vertex 41.8541 20 9.70634
      vertex 38.1459 20 9.70634
    endloop
  endfacet
  facet normal 0 -1 0
    outer loop
      vertex 37.7913 20 9.57866
      vertex 42.2087 20 9.57866
      vertex 41.8541 20 9.70634
    endloop
  endfacet
  facet normal 0 -1 0
    outer loop
      vertex 37.4453 20 9.42896
      vertex 42.2087 20 9.57866
      vertex 37.7913 20 9.57866
    endloop
  endfacet
  facet normal 0 -1 0
    outer loop
      vertex 37.4453 20 9.42896
      vertex 42.5547 20 9.42896
      vertex 42.2087 20 9.57866
    endloop
  endfacet
  facet normal 0 -1 0
    outer loop
      vertex 37.1095 20 9.25784
      vertex 42.5547 20 9.42896
      vertex 37.4453 20 9.42896
    endloop
  endfacet
  facet normal 0 -1 0
    outer loop
      vertex 37.1095 20 9.25784
      vertex 42.8905 20 9.25784
      vertex 42.5547 20 9.42896
    endloop
  endfacet
  facet normal 0 -1 0
    outer loop
      vertex 36.785 20 9.06597
      vertex 42.8905 20 9.25784
      vertex 37.1095 20 9.25784
    endloop
  endfacet
  facet normal 0 -1 0
    outer loop
      vertex 36.785 20 9.06597
      vertex 43.215 20 9.06597
      vertex 42.8905 20 9.25784
    endloop
  endfacet
  facet normal 0 -1 0
    outer loop
      vertex 36.4733 20 8.8541
      vertex 43.215 20 9.06597
      vertex 36.785 20 9.06597
    endloop
  endfacet
  facet normal 0 -1 0
    outer loop
      vertex 36.4733 20 8.8541
      vertex 43.5267 20 8.8541
      vertex 43.215 20 9.06597
    endloop
  endfacet
  facet normal 0 -1 0
    outer loop
      vertex 36.1755 20 8.62308
      vertex 43.5267 20 8.8541
      vertex 36.4733 20 8.8541
    endloop
  endfacet
  facet normal 0 -1 0
    outer loop
      vertex 36.1755 20 8.62308
      vertex 43.8245 20 8.62308
      vertex 43.5267 20 8.8541
    endloop
  endfacet
  facet normal 0 -1 0
    outer loop
      vertex 35.8927 20 8.37381
      vertex 43.8245 20 8.62308
      vertex 36.1755 20 8.62308
    endloop
  endfacet
  facet normal 0 -1 0
    outer loop
      vertex 35.8927 20 8.37381
      vertex 44.1073 20 8.37381
      vertex 43.8245 20 8.62308
    endloop
  endfacet
  facet normal 0 -1 0
    outer loop
      vertex 35.6262 20 8.10728
      vertex 44.1073 20 8.37381
      vertex 35.8927 20 8.37381
    endloop
  endfacet
  facet normal 0 -1 0
    outer loop
      vertex 35.6262 20 8.10728
      vertex 44.3738 20 8.10728
      vertex 44.1073 20 8.37381
    endloop
  endfacet
  facet normal 0 -1 0
    outer loop
      vertex 35.3769 20 7.82454
      vertex 44.3738 20 8.10728
      vertex 35.6262 20 8.10728
    endloop
  endfacet
  facet normal 0 -1 0
    outer loop
      vertex 35.3769 20 7.82454
      vertex 44.6231 20 7.82454
      vertex 44.3738 20 8.10728
    endloop
  endfacet
  facet normal 0 -1 0
    outer loop
      vertex 35.1459 20 7.52671
      vertex 44.6231 20 7.82454
      vertex 35.3769 20 7.82454
    endloop
  endfacet
  facet normal 0 -1 0
    outer loop
      vertex 35.1459 20 7.52671
      vertex 44.8541 20 7.52671
      vertex 44.6231 20 7.82454
    endloop
  endfacet
  facet normal 0 -1 0
    outer loop
      vertex 34.934 20 7.21496
      vertex 44.8541 20 7.52671
      vertex 35.1459 20 7.52671
    endloop
  endfacet
  facet normal 0 -1 0
    outer loop
      vertex 34.934 20 7.21496
      vertex 45.066 20 7.21496
      vertex 44.8541 20 7.52671
    endloop
  endfacet
  facet normal 0 -1 0
    outer loop
      vertex 34.7422 20 6.89052
      vertex 45.066 20 7.21496
      vertex 34.934 20 7.21496
    endloop
  endfacet
  facet normal 0 -1 0
    outer loop
      vertex 34.7422 20 6.89052
      vertex 45.2578 20 6.89052
      vertex 45.066 20 7.21496
    endloop
  endfacet
  facet normal 0 -1 0
    outer loop
      vertex 34.571 20 6.55468
      vertex 45.2578 20 6.89052
      vertex 34.7422 20 6.89052
    endloop
  endfacet
  facet normal 0 -1 0
    outer loop
      vertex 34.571 20 6.55468
      vertex 45.429 20 6.55468
      vertex 45.2578 20 6.89052
    endloop
  endfacet
  facet normal 0 -1 0
    outer loop
      vertex 34.4213 20 6.20875
      vertex 45.429 20 6.55468
      vertex 34.571 20 6.55468
    endloop
  endfacet
  facet normal 0 -1 0
    outer loop
      vertex 34.4213 20 6.20875
      vertex 45.5787 20 6.20875
      vertex 45.429 20 6.55468
    endloop
  endfacet
  facet normal 0 -1 0
    outer loop
      vertex 34.2937 20 5.8541
      vertex 45.5787 20 6.20875
      vertex 34.4213 20 6.20875
    endloop
  endfacet
  facet normal 0 -1 0
    outer loop
      vertex 34.2937 20 5.8541
      vertex 45.7063 20 5.8541
      vertex 45.5787 20 6.20875
    endloop
  endfacet
  facet normal 0 -1 0
    outer loop
      vertex 34.1885 20 5.49214
      vertex 45.7063 20 5.8541
      vertex 34.2937 20 5.8541
    endloop
  endfacet
  facet normal 0 -1 0
    outer loop
      vertex 34.1885 20 5.49214
      vertex 45.8115 20 5.49214
      vertex 45.7063 20 5.8541
    endloop
  endfacet
  facet normal 0 -1 0
    outer loop
      vertex 34.1063 20 5.12429
      vertex 45.8115 20 5.49214
      vertex 34.1885 20 5.49214
    endloop
  endfacet
  facet normal 0 -1 0
    outer loop
      vertex 34.1063 20 5.12429
      vertex 45.8937 20 5.12429
      vertex 45.8115 20 5.49214
    endloop
  endfacet
  facet normal 0 -1 0
    outer loop
      vertex 34.0473 20 4.752
      vertex 45.8937 20 5.12429
      vertex 34.1063 20 5.12429
    endloop
  endfacet
  facet normal 0 -1 0
    outer loop
      vertex 34.0473 20 4.752
      vertex 45.9527 20 4.752
      vertex 45.8937 20 5.12429
    endloop
  endfacet
  facet normal 0 -1 0
    outer loop
      vertex 34.0118 20 4.37674
      vertex 45.9527 20 4.752
      vertex 34.0473 20 4.752
    endloop
  endfacet
  facet normal 0 -1 0
    outer loop
      vertex 34.0118 20 4.37674
      vertex 45.9882 20 4.37674
      vertex 45.9527 20 4.752
    endloop
  endfacet
  facet normal 0 -1 0
    outer loop
      vertex 34 20 4
      vertex 45.9882 20 4.37674
      vertex 34.0118 20 4.37674
    endloop
  endfacet
  facet normal 0 -1 0
    outer loop
      vertex 34 20 4
      vertex 46 20 4
      vertex 45.9882 20 4.37674
    endloop
  endfacet
  facet normal 0 -1 0
    outer loop
      vertex 34.0118 20 3.62326
      vertex 46 20 4
      vertex 34 20 4
    endloop
  endfacet
  facet normal 0 -1 0
    outer loop
      vertex 34.0118 20 3.62326
      vertex 45.9882 20 3.62326
      vertex 46 20 4
    endloop
  endfacet
  facet normal 0 -1 0
    outer loop
      vertex 34.0473 20 3.248
      vertex 45.9882 20 3.62326
      vertex 34.0118 20 3.62326
    endloop
  endfacet
  facet normal 0 -1 0
    outer loop
      vertex 34.0473 20 3.248
      vertex 45.9527 20 3.248
      vertex 45.9882 20 3.62326
    endloop
  endfacet
  facet normal 0 -1 0
    outer loop
      vertex 34.1063 20 2.87571
      vertex 45.9527 20 3.248
      vertex 34.0473 20 3.248
    endloop
  endfacet
  facet normal 0 -1 0
    outer loop
      vertex 34.1063 20 2.87571
      vertex 45.8937 20 2.87571
      vertex 45.9527 20 3.248
    endloop
  endfacet
  facet normal 0 -1 0
    outer loop
      vertex 34.1885 20 2.50786
      vertex 45.8937 20 2.87571
      vertex 34.1063 20 2.87571
    endloop
  endfacet
  facet normal 0 -1 0
    outer loop
      vertex 34.1885 20 2.50786
      vertex 45.8115 20 2.50786
      vertex 45.8937 20 2.87571
    endloop
  endfacet
  facet normal 0 -1 0
    outer loop
      vertex 34.3462 20 2
      vertex 34.1885 20 2.50786
      vertex 34.2937 20 2.1459
    endloop
  endfacet
  facet normal 0 -1 0
    outer loop
      vertex 34.1885 20 2.50786
      vertex 34.3462 20 2
      vertex 45.8115 20 2.50786
    endloop
  endfacet
  facet normal 0 -1 0
    outer loop
      vertex 45.6538 20 2
      vertex 45.8115 20 2.50786
      vertex 34.3462 20 2
    endloop
  endfacet
  facet normal 0 -1 0
    outer loop
      vertex 45.8115 20 2.50786
      vertex 45.6538 20 2
      vertex 45.7063 20 2.1459
    endloop
  endfacet
  facet normal 0 -1 0
    outer loop
      vertex 0 18.5 10
      vertex 39.6233 18.5 9.98816
      vertex 40 18.5 10
    endloop
  endfacet
  facet normal 0 -1 0
    outer loop
      vertex 0 18.5 10
      vertex 39.248 18.5 9.95269
      vertex 39.6233 18.5 9.98816
    endloop
  endfacet
  facet normal 0 -1 0
    outer loop
      vertex 0 18.5 10
      vertex 38.8757 18.5 9.89372
      vertex 39.248 18.5 9.95269
    endloop
  endfacet
  facet normal 0 -1 0
    outer loop
      vertex 0 18.5 10
      vertex 38.5079 18.5 9.8115
      vertex 38.8757 18.5 9.89372
    endloop
  endfacet
  facet normal 0 -1 0
    outer loop
      vertex 0 18.5 10
      vertex 38.1459 18.5 9.70634
      vertex 38.5079 18.5 9.8115
    endloop
  endfacet
  facet normal 0 -1 0
    outer loop
      vertex 0 18.5 10
      vertex 37.7913 18.5 9.57866
      vertex 38.1459 18.5 9.70634
    endloop
  endfacet
  facet normal 0 -1 0
    outer loop
      vertex 0 18.5 10
      vertex 37.4453 18.5 9.42896
      vertex 37.7913 18.5 9.57866
    endloop
  endfacet
  facet normal 0 -1 0
    outer loop
      vertex 0 18.5 10
      vertex 37.1095 18.5 9.25784
      vertex 37.4453 18.5 9.42896
    endloop
  endfacet
  facet normal 0 -1 0
    outer loop
      vertex 0 18.5 10
      vertex 36.785 18.5 9.06597
      vertex 37.1095 18.5 9.25784
    endloop
  endfacet
  facet normal 0 -1 0
    outer loop
      vertex 0 18.5 10
      vertex 36.4733 18.5 8.8541
      vertex 36.785 18.5 9.06597
    endloop
  endfacet
  facet normal 0 -1 0
    outer loop
      vertex 0 18.5 10
      vertex 36.1755 18.5 8.62308
      vertex 36.4733 18.5 8.8541
    endloop
  endfacet
  facet normal 0 -1 0
    outer loop
      vertex 0 18.5 10
      vertex 35.8927 18.5 8.37381
      vertex 36.1755 18.5 8.62308
    endloop
  endfacet
  facet normal 0 -1 0
    outer loop
      vertex 0 18.5 10
      vertex 35.6262 18.5 8.10728
      vertex 35.8927 18.5 8.37381
    endloop
  endfacet
  facet normal 0 -1 0
    outer loop
      vertex 0 18.5 10
      vertex 35.3769 18.5 7.82454
      vertex 35.6262 18.5 8.10728
    endloop
  endfacet
  facet normal 0 -1 0
    outer loop
      vertex 0 18.5 10
      vertex 35.1459 18.5 7.52671
      vertex 35.3769 18.5 7.82454
    endloop
  endfacet
  facet normal 0 -1 0
    outer loop
      vertex 0 18.5 10
      vertex 34.934 18.5 7.21496
      vertex 35.1459 18.5 7.52671
    endloop
  endfacet
  facet normal 0 -1 0
    outer loop
      vertex 0 18.5 10
      vertex 34.7422 18.5 6.89052
      vertex 34.934 18.5 7.21496
    endloop
  endfacet
  facet normal 0 -1 0
    outer loop
      vertex 0 18.5 10
      vertex 34.571 18.5 6.55468
      vertex 34.7422 18.5 6.89052
    endloop
  endfacet
  facet normal 0 -1 0
    outer loop
      vertex 0 18.5 10
      vertex 34.4213 18.5 6.20875
      vertex 34.571 18.5 6.55468
    endloop
  endfacet
  facet normal 0 -1 0
    outer loop
      vertex 0 18.5 10
      vertex 34.2937 18.5 5.8541
      vertex 34.4213 18.5 6.20875
    endloop
  endfacet
  facet normal 0 -1 0
    outer loop
      vertex 0 18.5 10
      vertex 34.1885 18.5 5.49214
      vertex 34.2937 18.5 5.8541
    endloop
  endfacet
  facet normal 0 -1 0
    outer loop
      vertex 0 18.5 10
      vertex 34.1063 18.5 5.12429
      vertex 34.1885 18.5 5.49214
    endloop
  endfacet
  facet normal 0 -1 0
    outer loop
      vertex 0 18.5 10
      vertex 34.0473 18.5 4.752
      vertex 34.1063 18.5 5.12429
    endloop
  endfacet
  facet normal 0 -1 0
    outer loop
      vertex 0 18.5 10
      vertex 34.0118 18.5 4.37674
      vertex 34.0473 18.5 4.752
    endloop
  endfacet
  facet normal 0 -1 0
    outer loop
      vertex 0 18.5 2
      vertex 34.0118 18.5 4.37674
      vertex 0 18.5 10
    endloop
  endfacet
  facet normal 0 -1 0
    outer loop
      vertex 34.0118 18.5 4.37674
      vertex 0 18.5 2
      vertex 34 18.5 4
    endloop
  endfacet
  facet normal 0 -1 -0
    outer loop
      vertex 34 18.5 4
      vertex 0 18.5 2
      vertex 34.0118 18.5 3.62326
    endloop
  endfacet
  facet normal 0 -1 -0
    outer loop
      vertex 34.0118 18.5 3.62326
      vertex 0 18.5 2
      vertex 34.0473 18.5 3.248
    endloop
  endfacet
  facet normal 0 -1 -0
    outer loop
      vertex 34.0473 18.5 3.248
      vertex 0 18.5 2
      vertex 34.1063 18.5 2.87571
    endloop
  endfacet
  facet normal 0 -1 -0
    outer loop
      vertex 34.1063 18.5 2.87571
      vertex 0 18.5 2
      vertex 34.1885 18.5 2.50786
    endloop
  endfacet
  facet normal 0 -1 -0
    outer loop
      vertex 34.1885 18.5 2.50786
      vertex 0 18.5 2
      vertex 34.2937 18.5 2.1459
    endloop
  endfacet
  facet normal 0 -1 -0
    outer loop
      vertex 34.2937 18.5 2.1459
      vertex 0 18.5 2
      vertex 34.3462 18.5 2
    endloop
  endfacet
  facet normal 0 -1 0
    outer loop
      vertex 40.3767 18.5 9.98816
      vertex 80 18.5 10
      vertex 40 18.5 10
    endloop
  endfacet
  facet normal 0 -1 0
    outer loop
      vertex 40.752 18.5 9.95269
      vertex 80 18.5 10
      vertex 40.3767 18.5 9.98816
    endloop
  endfacet
  facet normal 0 -1 0
    outer loop
      vertex 41.1243 18.5 9.89372
      vertex 80 18.5 10
      vertex 40.752 18.5 9.95269
    endloop
  endfacet
  facet normal 0 -1 0
    outer loop
      vertex 41.4921 18.5 9.8115
      vertex 80 18.5 10
      vertex 41.1243 18.5 9.89372
    endloop
  endfacet
  facet normal 0 -1 0
    outer loop
      vertex 41.8541 18.5 9.70634
      vertex 80 18.5 10
      vertex 41.4921 18.5 9.8115
    endloop
  endfacet
  facet normal 0 -1 0
    outer loop
      vertex 42.2087 18.5 9.57866
      vertex 80 18.5 10
      vertex 41.8541 18.5 9.70634
    endloop
  endfacet
  facet normal 0 -1 0
    outer loop
      vertex 42.5547 18.5 9.42896
      vertex 80 18.5 10
      vertex 42.2087 18.5 9.57866
    endloop
  endfacet
  facet normal 0 -1 0
    outer loop
      vertex 42.8905 18.5 9.25784
      vertex 80 18.5 10
      vertex 42.5547 18.5 9.42896
    endloop
  endfacet
  facet normal 0 -1 0
    outer loop
      vertex 43.215 18.5 9.06597
      vertex 80 18.5 10
      vertex 42.8905 18.5 9.25784
    endloop
  endfacet
  facet normal 0 -1 0
    outer loop
      vertex 43.5267 18.5 8.8541
      vertex 80 18.5 10
      vertex 43.215 18.5 9.06597
    endloop
  endfacet
  facet normal 0 -1 0
    outer loop
      vertex 43.8245 18.5 8.62308
      vertex 80 18.5 10
      vertex 43.5267 18.5 8.8541
    endloop
  endfacet
  facet normal 0 -1 0
    outer loop
      vertex 44.1073 18.5 8.37381
      vertex 80 18.5 10
      vertex 43.8245 18.5 8.62308
    endloop
  endfacet
  facet normal 0 -1 0
    outer loop
      vertex 44.3738 18.5 8.10728
      vertex 80 18.5 10
      vertex 44.1073 18.5 8.37381
    endloop
  endfacet
  facet normal 0 -1 0
    outer loop
      vertex 44.6231 18.5 7.82454
      vertex 80 18.5 10
      vertex 44.3738 18.5 8.10728
    endloop
  endfacet
  facet normal 0 -1 0
    outer loop
      vertex 44.8541 18.5 7.52671
      vertex 80 18.5 10
      vertex 44.6231 18.5 7.82454
    endloop
  endfacet
  facet normal 0 -1 0
    outer loop
      vertex 45.066 18.5 7.21496
      vertex 80 18.5 10
      vertex 44.8541 18.5 7.52671
    endloop
  endfacet
  facet normal 0 -1 0
    outer loop
      vertex 45.2578 18.5 6.89052
      vertex 80 18.5 10
      vertex 45.066 18.5 7.21496
    endloop
  endfacet
  facet normal 0 -1 0
    outer loop
      vertex 45.429 18.5 6.55468
      vertex 80 18.5 10
      vertex 45.2578 18.5 6.89052
    endloop
  endfacet
  facet normal 0 -1 0
    outer loop
      vertex 45.5787 18.5 6.20875
      vertex 80 18.5 10
      vertex 45.429 18.5 6.55468
    endloop
  endfacet
  facet normal 0 -1 0
    outer loop
      vertex 45.7063 18.5 5.8541
      vertex 80 18.5 10
      vertex 45.5787 18.5 6.20875
    endloop
  endfacet
  facet normal 0 -1 0
    outer loop
      vertex 45.8115 18.5 5.49214
      vertex 80 18.5 10
      vertex 45.7063 18.5 5.8541
    endloop
  endfacet
  facet normal 0 -1 0
    outer loop
      vertex 45.8937 18.5 5.12429
      vertex 80 18.5 10
      vertex 45.8115 18.5 5.49214
    endloop
  endfacet
  facet normal 0 -1 0
    outer loop
      vertex 45.9527 18.5 4.752
      vertex 80 18.5 10
      vertex 45.8937 18.5 5.12429
    endloop
  endfacet
  facet normal 0 -1 0
    outer loop
      vertex 45.9882 18.5 4.37674
      vertex 80 18.5 10
      vertex 45.9527 18.5 4.752
    endloop
  endfacet
  facet normal 0 -1 0
    outer loop
      vertex 80 18.5 2
      vertex 45.9882 18.5 4.37674
      vertex 46 18.5 4
    endloop
  endfacet
  facet normal 0 -1 0
    outer loop
      vertex 80 18.5 2
      vertex 46 18.5 4
      vertex 45.9882 18.5 3.62326
    endloop
  endfacet
  facet normal 0 -1 0
    outer loop
      vertex 80 18.5 2
      vertex 45.9882 18.5 3.62326
      vertex 45.9527 18.5 3.248
    endloop
  endfacet
  facet normal 0 -1 0
    outer loop
      vertex 80 18.5 2
      vertex 45.9527 18.5 3.248
      vertex 45.8937 18.5 2.87571
    endloop
  endfacet
  facet normal 0 -1 0
    outer loop
      vertex 80 18.5 2
      vertex 45.8937 18.5 2.87571
      vertex 45.8115 18.5 2.50786
    endloop
  endfacet
  facet normal 0 -1 0
    outer loop
      vertex 80 18.5 2
      vertex 45.8115 18.5 2.50786
      vertex 45.7063 18.5 2.1459
    endloop
  endfacet
  facet normal 0 -1 0
    outer loop
      vertex 80 18.5 2
      vertex 45.7063 18.5 2.1459
      vertex 45.6538 18.5 2
    endloop
  endfacet
  facet normal 0 -1 0
    outer loop
      vertex 45.9882 18.5 4.37674
      vertex 80 18.5 2
      vertex 80 18.5 10
    endloop
  endfacet
  facet normal 0 -1 0
    outer loop
      vertex 0 18.5 -4
      vertex 35.5316 18.5 0
      vertex 0 18.5 0
    endloop
  endfacet
  facet normal 0 -1 -0
    outer loop
      vertex 35.5316 18.5 0
      vertex 0 18.5 -4
      vertex 35.6262 18.5 -0.107282
    endloop
  endfacet
  facet normal 0 -1 -0
    outer loop
      vertex 35.6262 18.5 -0.107282
      vertex 0 18.5 -4
      vertex 35.8927 18.5 -0.373812
    endloop
  endfacet
  facet normal 0 -1 -0
    outer loop
      vertex 35.8927 18.5 -0.373812
      vertex 0 18.5 -4
      vertex 36.1755 18.5 -0.623079
    endloop
  endfacet
  facet normal 0 -1 -0
    outer loop
      vertex 36.1755 18.5 -0.623079
      vertex 0 18.5 -4
      vertex 36.4733 18.5 -0.854101
    endloop
  endfacet
  facet normal 0 -1 -0
    outer loop
      vertex 36.4733 18.5 -0.854101
      vertex 0 18.5 -4
      vertex 36.785 18.5 -1.06597
    endloop
  endfacet
  facet normal 0 -1 -0
    outer loop
      vertex 36.785 18.5 -1.06597
      vertex 0 18.5 -4
      vertex 37.1095 18.5 -1.25784
    endloop
  endfacet
  facet normal 0 -1 -0
    outer loop
      vertex 37.1095 18.5 -1.25784
      vertex 0 18.5 -4
      vertex 37.4453 18.5 -1.42896
    endloop
  endfacet
  facet normal 0 -1 -0
    outer loop
      vertex 37.4453 18.5 -1.42896
      vertex 0 18.5 -4
      vertex 37.7913 18.5 -1.57866
    endloop
  endfacet
  facet normal 0 -1 -0
    outer loop
      vertex 37.7913 18.5 -1.57866
      vertex 0 18.5 -4
      vertex 38.1459 18.5 -1.70634
    endloop
  endfacet
  facet normal 0 -1 -0
    outer loop
      vertex 38.1459 18.5 -1.70634
      vertex 0 18.5 -4
      vertex 38.5079 18.5 -1.8115
    endloop
  endfacet
  facet normal 0 -1 -0
    outer loop
      vertex 38.5079 18.5 -1.8115
      vertex 0 18.5 -4
      vertex 38.8757 18.5 -1.89372
    endloop
  endfacet
  facet normal 0 -1 -0
    outer loop
      vertex 38.8757 18.5 -1.89372
      vertex 0 18.5 -4
      vertex 39.248 18.5 -1.95269
    endloop
  endfacet
  facet normal 0 -1 -0
    outer loop
      vertex 39.6233 18.5 -1.98816
      vertex 0 18.5 -4
      vertex 40 18.5 -2
    endloop
  endfacet
  facet normal 0 -1 -0
    outer loop
      vertex 39.248 18.5 -1.95269
      vertex 0 18.5 -4
      vertex 39.6233 18.5 -1.98816
    endloop
  endfacet
  facet normal 0 -1 0
    outer loop
      vertex 80 18.5 -4
      vertex 44.4684 18.5 0
      vertex 44.3738 18.5 -0.107282
    endloop
  endfacet
  facet normal 0 -1 0
    outer loop
      vertex 80 18.5 -4
      vertex 44.3738 18.5 -0.107282
      vertex 44.1073 18.5 -0.373812
    endloop
  endfacet
  facet normal 0 -1 0
    outer loop
      vertex 80 18.5 -4
      vertex 44.1073 18.5 -0.373812
      vertex 43.8245 18.5 -0.623079
    endloop
  endfacet
  facet normal 0 -1 0
    outer loop
      vertex 80 18.5 -4
      vertex 43.8245 18.5 -0.623079
      vertex 43.5267 18.5 -0.854101
    endloop
  endfacet
  facet normal 0 -1 0
    outer loop
      vertex 80 18.5 -4
      vertex 43.5267 18.5 -0.854101
      vertex 43.215 18.5 -1.06597
    endloop
  endfacet
  facet normal 0 -1 0
    outer loop
      vertex 80 18.5 -4
      vertex 43.215 18.5 -1.06597
      vertex 42.8905 18.5 -1.25784
    endloop
  endfacet
  facet normal 0 -1 0
    outer loop
      vertex 80 18.5 -4
      vertex 42.8905 18.5 -1.25784
      vertex 42.5547 18.5 -1.42896
    endloop
  endfacet
  facet normal 0 -1 0
    outer loop
      vertex 80 18.5 -4
      vertex 42.5547 18.5 -1.42896
      vertex 42.2087 18.5 -1.57866
    endloop
  endfacet
  facet normal 0 -1 0
    outer loop
      vertex 80 18.5 -4
      vertex 42.2087 18.5 -1.57866
      vertex 41.8541 18.5 -1.70634
    endloop
  endfacet
  facet normal 0 -1 0
    outer loop
      vertex 80 18.5 -4
      vertex 41.8541 18.5 -1.70634
      vertex 41.4921 18.5 -1.8115
    endloop
  endfacet
  facet normal 0 -1 0
    outer loop
      vertex 80 18.5 -4
      vertex 41.4921 18.5 -1.8115
      vertex 41.1243 18.5 -1.89372
    endloop
  endfacet
  facet normal 0 -1 0
    outer loop
      vertex 80 18.5 -4
      vertex 41.1243 18.5 -1.89372
      vertex 40.752 18.5 -1.95269
    endloop
  endfacet
  facet normal 0 -1 0
    outer loop
      vertex 80 18.5 -4
      vertex 40.752 18.5 -1.95269
      vertex 40.3767 18.5 -1.98816
    endloop
  endfacet
  facet normal 0 -1 0
    outer loop
      vertex 80 18.5 -4
      vertex 40 18.5 -2
      vertex 0 18.5 -4
    endloop
  endfacet
  facet normal 0 -1 0
    outer loop
      vertex 44.4684 18.5 0
      vertex 80 18.5 -4
      vertex 80 18.5 0
    endloop
  endfacet
  facet normal 0 -1 0
    outer loop
      vertex 40 18.5 -2
      vertex 80 18.5 -4
      vertex 40.3767 18.5 -1.98816
    endloop
  endfacet
  facet normal -0.89092 0 -0.454161
    outer loop
      vertex 45.429 18.5 6.55468
      vertex 45.2578 20 6.89052
      vertex 45.429 20 6.55468
    endloop
  endfacet
  facet normal -0.89092 -0 -0.454161
    outer loop
      vertex 45.2578 20 6.89052
      vertex 45.429 18.5 6.55468
      vertex 45.2578 18.5 6.89052
    endloop
  endfacet
  facet normal -0.917752 0 -0.397154
    outer loop
      vertex 45.5787 18.5 6.20875
      vertex 45.429 20 6.55468
      vertex 45.5787 20 6.20875
    endloop
  endfacet
  facet normal -0.917752 -0 -0.397154
    outer loop
      vertex 45.429 20 6.55468
      vertex 45.5787 18.5 6.20875
      vertex 45.429 18.5 6.55468
    endloop
  endfacet
  facet normal -0.278965 0 -0.960301
    outer loop
      vertex 41.4921 18.5 9.8115
      vertex 41.8541 20 9.70634
      vertex 41.8541 18.5 9.70634
    endloop
  endfacet
  facet normal -0.278965 0 -0.960301
    outer loop
      vertex 41.8541 20 9.70634
      vertex 41.4921 18.5 9.8115
      vertex 41.4921 20 9.8115
    endloop
  endfacet
  facet normal 0.218161 0 -0.975913
    outer loop
      vertex 38.5079 18.5 9.8115
      vertex 38.8757 20 9.89372
      vertex 38.8757 18.5 9.89372
    endloop
  endfacet
  facet normal 0.218161 0 -0.975913
    outer loop
      vertex 38.8757 20 9.89372
      vertex 38.5079 18.5 9.8115
      vertex 38.5079 20 9.8115
    endloop
  endfacet
  facet normal -0.987674 0 0.156525
    outer loop
      vertex 45.8937 18.5 2.87571
      vertex 45.9527 20 3.248
      vertex 45.8937 20 2.87571
    endloop
  endfacet
  facet normal -0.987674 0 0.156525
    outer loop
      vertex 45.9527 20 3.248
      vertex 45.8937 18.5 2.87571
      vertex 45.9527 18.5 3.248
    endloop
  endfacet
  facet normal 0.454035 0 -0.890984
    outer loop
      vertex 37.1095 18.5 9.25784
      vertex 37.4453 20 9.42896
      vertex 37.4453 18.5 9.42896
    endloop
  endfacet
  facet normal 0.454035 0 -0.890984
    outer loop
      vertex 37.4453 20 9.42896
      vertex 37.1095 18.5 9.25784
      vertex 37.1095 20 9.25784
    endloop
  endfacet
  facet normal -0.338776 0 0.940867
    outer loop
      vertex 41.8541 20 -1.70634
      vertex 42.2087 18.5 -1.57866
      vertex 42.2087 20 -1.57866
    endloop
  endfacet
  facet normal -0.338776 0 0.940867
    outer loop
      vertex 42.2087 18.5 -1.57866
      vertex 41.8541 20 -1.70634
      vertex 41.8541 18.5 -1.70634
    endloop
  endfacet
  facet normal 0.94095 0 -0.338546
    outer loop
      vertex 34.4213 18.5 6.20875
      vertex 34.2937 20 5.8541
      vertex 34.4213 20 6.20875
    endloop
  endfacet
  facet normal 0.94095 0 -0.338546
    outer loop
      vertex 34.2937 20 5.8541
      vertex 34.4213 18.5 6.20875
      vertex 34.2937 18.5 5.8541
    endloop
  endfacet
  facet normal 0.218161 0 0.975913
    outer loop
      vertex 38.5079 20 -1.8115
      vertex 38.8757 18.5 -1.89372
      vertex 38.8757 20 -1.89372
    endloop
  endfacet
  facet normal 0.218161 0 0.975913
    outer loop
      vertex 38.8757 18.5 -1.89372
      vertex 38.5079 20 -1.8115
      vertex 38.5079 18.5 -1.8115
    endloop
  endfacet
  facet normal -0.97593 0 -0.218082
    outer loop
      vertex 45.8937 18.5 5.12429
      vertex 45.8115 20 5.49214
      vertex 45.8937 20 5.12429
    endloop
  endfacet
  facet normal -0.97593 -0 -0.218082
    outer loop
      vertex 45.8115 20 5.49214
      vertex 45.8937 18.5 5.12429
      vertex 45.8115 18.5 5.49214
    endloop
  endfacet
  facet normal -0.827038 0 -0.562147
    outer loop
      vertex 45.066 18.5 7.21496
      vertex 44.8541 20 7.52671
      vertex 45.066 20 7.21496
    endloop
  endfacet
  facet normal -0.827038 -0 -0.562147
    outer loop
      vertex 44.8541 20 7.52671
      vertex 45.066 18.5 7.21496
      vertex 44.8541 18.5 7.52671
    endloop
  endfacet
  facet normal 0.661235 0 -0.750179
    outer loop
      vertex 35.8927 18.5 8.37381
      vertex 36.1755 20 8.62308
      vertex 36.1755 18.5 8.62308
    endloop
  endfacet
  facet normal 0.661235 0 -0.750179
    outer loop
      vertex 36.1755 20 8.62308
      vertex 35.8927 18.5 8.37381
      vertex 35.8927 20 8.37381
    endloop
  endfacet
  facet normal -0.97593 0 0.218082
    outer loop
      vertex 45.8115 18.5 2.50786
      vertex 45.8937 20 2.87571
      vertex 45.8115 20 2.50786
    endloop
  endfacet
  facet normal -0.97593 0 0.218082
    outer loop
      vertex 45.8937 20 2.87571
      vertex 45.8115 18.5 2.50786
      vertex 45.8937 18.5 2.87571
    endloop
  endfacet
  facet normal -0.278965 0 0.960301
    outer loop
      vertex 41.4921 20 -1.8115
      vertex 41.8541 18.5 -1.70634
      vertex 41.8541 20 -1.70634
    endloop
  endfacet
  facet normal -0.278965 0 0.960301
    outer loop
      vertex 41.8541 18.5 -1.70634
      vertex 41.4921 20 -1.8115
      vertex 41.4921 18.5 -1.8115
    endloop
  endfacet
  facet normal 0.987674 -0 0.156525
    outer loop
      vertex 34.0473 18.5 3.248
      vertex 34.1063 20 2.87571
      vertex 34.0473 20 3.248
    endloop
  endfacet
  facet normal 0.987674 0 0.156525
    outer loop
      vertex 34.1063 20 2.87571
      vertex 34.0473 18.5 3.248
      vertex 34.1063 18.5 2.87571
    endloop
  endfacet
  facet normal 0.960265 -0 0.279091
    outer loop
      vertex 34.1885 18.5 2.50786
      vertex 34.2937 20 2.1459
      vertex 34.1885 20 2.50786
    endloop
  endfacet
  facet normal 0.960265 0 0.279091
    outer loop
      vertex 34.2937 20 2.1459
      vertex 34.1885 18.5 2.50786
      vertex 34.2937 18.5 2.1459
    endloop
  endfacet
  facet normal -0.218161 0 -0.975913
    outer loop
      vertex 41.1243 18.5 9.89372
      vertex 41.4921 20 9.8115
      vertex 41.4921 18.5 9.8115
    endloop
  endfacet
  facet normal -0.218161 0 -0.975913
    outer loop
      vertex 41.4921 20 9.8115
      vertex 41.1243 18.5 9.89372
      vertex 41.1243 20 9.89372
    endloop
  endfacet
  facet normal 0.940937 -0 0.338582
    outer loop
      vertex 34.2937 18.5 2.1459
      vertex 34.3462 20 2
      vertex 34.2937 20 2.1459
    endloop
  endfacet
  facet normal 0.940937 0 0.338582
    outer loop
      vertex 34.3462 20 2
      vertex 34.2937 18.5 2.1459
      vertex 34.3462 18.5 2
    endloop
  endfacet
  facet normal -0.995555 0 -0.0941806
    outer loop
      vertex 45.9882 18.5 4.37674
      vertex 45.9527 20 4.752
      vertex 45.9882 20 4.37674
    endloop
  endfacet
  facet normal -0.995555 -0 -0.0941806
    outer loop
      vertex 45.9527 20 4.752
      vertex 45.9882 18.5 4.37674
      vertex 45.9527 18.5 4.752
    endloop
  endfacet
  facet normal -0.612945 0 -0.790126
    outer loop
      vertex 43.5267 18.5 8.8541
      vertex 43.8245 20 8.62308
      vertex 43.8245 18.5 8.62308
    endloop
  endfacet
  facet normal -0.612945 0 -0.790126
    outer loop
      vertex 43.8245 20 8.62308
      vertex 43.5267 18.5 8.8541
      vertex 43.5267 20 8.8541
    endloop
  endfacet
  facet normal 0.707147 -0 0.707067
    outer loop
      vertex 35.6262 18.5 -0.107282
      vertex 35.8927 20 -0.373812
      vertex 35.6262 20 -0.107282
    endloop
  endfacet
  facet normal 0.707147 0 0.707067
    outer loop
      vertex 35.8927 20 -0.373812
      vertex 35.6262 18.5 -0.107282
      vertex 35.8927 18.5 -0.373812
    endloop
  endfacet
  facet normal 0.156443 0 0.987687
    outer loop
      vertex 38.8757 20 -1.89372
      vertex 39.248 18.5 -1.95269
      vertex 39.248 20 -1.95269
    endloop
  endfacet
  facet normal 0.156443 0 0.987687
    outer loop
      vertex 39.248 18.5 -1.95269
      vertex 38.8757 20 -1.89372
      vertex 38.8757 18.5 -1.89372
    endloop
  endfacet
  facet normal 0.66123 0 0.750183
    outer loop
      vertex 35.8927 20 -0.373812
      vertex 36.1755 18.5 -0.623079
      vertex 36.1755 20 -0.623079
    endloop
  endfacet
  facet normal 0.66123 0 0.750183
    outer loop
      vertex 36.1755 18.5 -0.623079
      vertex 35.8927 20 -0.373812
      vertex 35.8927 18.5 -0.373812
    endloop
  endfacet
  facet normal -0.99951 0 -0.031306
    outer loop
      vertex 46 18.5 4
      vertex 45.9882 20 4.37674
      vertex 46 20 4
    endloop
  endfacet
  facet normal -0.99951 -0 -0.031306
    outer loop
      vertex 45.9882 20 4.37674
      vertex 46 18.5 4
      vertex 45.9882 18.5 4.37674
    endloop
  endfacet
  facet normal -0.960265 0 -0.279091
    outer loop
      vertex 45.8115 18.5 5.49214
      vertex 45.7063 20 5.8541
      vertex 45.8115 20 5.49214
    endloop
  endfacet
  facet normal -0.960265 -0 -0.279091
    outer loop
      vertex 45.7063 20 5.8541
      vertex 45.8115 18.5 5.49214
      vertex 45.7063 18.5 5.8541
    endloop
  endfacet
  facet normal -0.0314153 0 -0.999506
    outer loop
      vertex 40 18.5 10
      vertex 40.3767 20 9.98816
      vertex 40.3767 18.5 9.98816
    endloop
  endfacet
  facet normal -0.0314153 0 -0.999506
    outer loop
      vertex 40.3767 20 9.98816
      vertex 40 18.5 10
      vertex 40 20 10
    endloop
  endfacet
  facet normal -0.397086 0 -0.917781
    outer loop
      vertex 42.2087 18.5 9.57866
      vertex 42.5547 20 9.42896
      vertex 42.5547 18.5 9.42896
    endloop
  endfacet
  facet normal -0.397086 0 -0.917781
    outer loop
      vertex 42.5547 20 9.42896
      vertex 42.2087 18.5 9.57866
      vertex 42.2087 20 9.57866
    endloop
  endfacet
  facet normal 0.508965 0 -0.860787
    outer loop
      vertex 36.785 18.5 9.06597
      vertex 37.1095 20 9.25784
      vertex 37.1095 18.5 9.25784
    endloop
  endfacet
  facet normal 0.508965 0 -0.860787
    outer loop
      vertex 37.1095 20 9.25784
      vertex 36.785 18.5 9.06597
      vertex 36.785 20 9.06597
    endloop
  endfacet
  facet normal -0.75007 0 -0.661358
    outer loop
      vertex 44.6231 18.5 7.82454
      vertex 44.3738 20 8.10728
      vertex 44.6231 20 7.82454
    endloop
  endfacet
  facet normal -0.75007 -0 -0.661358
    outer loop
      vertex 44.3738 20 8.10728
      vertex 44.6231 18.5 7.82454
      vertex 44.3738 18.5 8.10728
    endloop
  endfacet
  facet normal -0.987674 0 -0.156525
    outer loop
      vertex 45.9527 18.5 4.752
      vertex 45.8937 20 5.12429
      vertex 45.9527 20 4.752
    endloop
  endfacet
  facet normal -0.987674 -0 -0.156525
    outer loop
      vertex 45.8937 20 5.12429
      vertex 45.9527 18.5 4.752
      vertex 45.8937 18.5 5.12429
    endloop
  endfacet
  facet normal 0.612945 0 -0.790126
    outer loop
      vertex 36.1755 18.5 8.62308
      vertex 36.4733 20 8.8541
      vertex 36.4733 18.5 8.8541
    endloop
  endfacet
  facet normal 0.612945 0 -0.790126
    outer loop
      vertex 36.4733 20 8.8541
      vertex 36.1755 18.5 8.62308
      vertex 36.1755 20 8.62308
    endloop
  endfacet
  facet normal 0.562152 0 0.827034
    outer loop
      vertex 36.4733 20 -0.854101
      vertex 36.785 18.5 -1.06597
      vertex 36.785 20 -1.06597
    endloop
  endfacet
  facet normal 0.562152 0 0.827034
    outer loop
      vertex 36.785 18.5 -1.06597
      vertex 36.4733 20 -0.854101
      vertex 36.4733 18.5 -0.854101
    endloop
  endfacet
  facet normal -0.218161 0 0.975913
    outer loop
      vertex 41.1243 20 -1.89372
      vertex 41.4921 18.5 -1.8115
      vertex 41.4921 20 -1.8115
    endloop
  endfacet
  facet normal -0.218161 0 0.975913
    outer loop
      vertex 41.4921 18.5 -1.8115
      vertex 41.1243 20 -1.89372
      vertex 41.1243 18.5 -1.89372
    endloop
  endfacet
  facet normal -0.454035 0 -0.890984
    outer loop
      vertex 42.5547 18.5 9.42896
      vertex 42.8905 20 9.25784
      vertex 42.8905 18.5 9.25784
    endloop
  endfacet
  facet normal -0.454035 0 -0.890984
    outer loop
      vertex 42.8905 20 9.25784
      vertex 42.5547 18.5 9.42896
      vertex 42.5547 20 9.42896
    endloop
  endfacet
  facet normal -0.707147 0 -0.707067
    outer loop
      vertex 44.3738 18.5 8.10728
      vertex 44.1073 20 8.37381
      vertex 44.3738 20 8.10728
    endloop
  endfacet
  facet normal -0.707147 -0 -0.707067
    outer loop
      vertex 44.1073 20 8.37381
      vertex 44.3738 18.5 8.10728
      vertex 44.1073 18.5 8.37381
    endloop
  endfacet
  facet normal -0.995555 0 0.0941806
    outer loop
      vertex 45.9527 18.5 3.248
      vertex 45.9882 20 3.62326
      vertex 45.9527 20 3.248
    endloop
  endfacet
  facet normal -0.995555 0 0.0941806
    outer loop
      vertex 45.9882 20 3.62326
      vertex 45.9527 18.5 3.248
      vertex 45.9882 18.5 3.62326
    endloop
  endfacet
  facet normal 0.99951 0 -0.031306
    outer loop
      vertex 34.0118 18.5 4.37674
      vertex 34 20 4
      vertex 34.0118 20 4.37674
    endloop
  endfacet
  facet normal 0.99951 0 -0.031306
    outer loop
      vertex 34 20 4
      vertex 34.0118 18.5 4.37674
      vertex 34 18.5 4
    endloop
  endfacet
  facet normal -0.562152 0 0.827034
    outer loop
      vertex 43.215 20 -1.06597
      vertex 43.5267 18.5 -0.854101
      vertex 43.5267 20 -0.854101
    endloop
  endfacet
  facet normal -0.562152 0 0.827034
    outer loop
      vertex 43.5267 18.5 -0.854101
      vertex 43.215 20 -1.06597
      vertex 43.215 18.5 -1.06597
    endloop
  endfacet
  facet normal 0.917752 0 -0.397154
    outer loop
      vertex 34.571 18.5 6.55468
      vertex 34.4213 20 6.20875
      vertex 34.571 20 6.55468
    endloop
  endfacet
  facet normal 0.917752 0 -0.397154
    outer loop
      vertex 34.4213 20 6.20875
      vertex 34.571 18.5 6.55468
      vertex 34.4213 18.5 6.20875
    endloop
  endfacet
  facet normal -0.508965 0 0.860787
    outer loop
      vertex 42.8905 20 -1.25784
      vertex 43.215 18.5 -1.06597
      vertex 43.215 20 -1.06597
    endloop
  endfacet
  facet normal -0.508965 0 0.860787
    outer loop
      vertex 43.215 18.5 -1.06597
      vertex 42.8905 20 -1.25784
      vertex 42.8905 18.5 -1.25784
    endloop
  endfacet
  facet normal -0.99951 0 0.031306
    outer loop
      vertex 45.9882 18.5 3.62326
      vertex 46 20 4
      vertex 45.9882 20 3.62326
    endloop
  endfacet
  facet normal -0.99951 0 0.031306
    outer loop
      vertex 46 20 4
      vertex 45.9882 18.5 3.62326
      vertex 46 18.5 4
    endloop
  endfacet
  facet normal 0.707147 0 -0.707067
    outer loop
      vertex 35.8927 18.5 8.37381
      vertex 35.6262 20 8.10728
      vertex 35.8927 20 8.37381
    endloop
  endfacet
  facet normal 0.707147 0 -0.707067
    outer loop
      vertex 35.6262 20 8.10728
      vertex 35.8927 18.5 8.37381
      vertex 35.6262 18.5 8.10728
    endloop
  endfacet
  facet normal 0.960265 0 -0.279091
    outer loop
      vertex 34.2937 18.5 5.8541
      vertex 34.1885 20 5.49214
      vertex 34.2937 20 5.8541
    endloop
  endfacet
  facet normal 0.960265 0 -0.279091
    outer loop
      vertex 34.1885 20 5.49214
      vertex 34.2937 18.5 5.8541
      vertex 34.1885 18.5 5.49214
    endloop
  endfacet
  facet normal 0.995555 0 -0.0941806
    outer loop
      vertex 34.0473 18.5 4.752
      vertex 34.0118 20 4.37674
      vertex 34.0473 20 4.752
    endloop
  endfacet
  facet normal 0.995555 0 -0.0941806
    outer loop
      vertex 34.0118 20 4.37674
      vertex 34.0473 18.5 4.752
      vertex 34.0118 18.5 4.37674
    endloop
  endfacet
  facet normal 0.397086 0 0.917781
    outer loop
      vertex 37.4453 20 -1.42896
      vertex 37.7913 18.5 -1.57866
      vertex 37.7913 20 -1.57866
    endloop
  endfacet
  facet normal 0.397086 0 0.917781
    outer loop
      vertex 37.7913 18.5 -1.57866
      vertex 37.4453 20 -1.42896
      vertex 37.4453 18.5 -1.42896
    endloop
  endfacet
  facet normal 0.97593 -0 0.218082
    outer loop
      vertex 34.1063 18.5 2.87571
      vertex 34.1885 20 2.50786
      vertex 34.1063 20 2.87571
    endloop
  endfacet
  facet normal 0.97593 0 0.218082
    outer loop
      vertex 34.1885 20 2.50786
      vertex 34.1063 18.5 2.87571
      vertex 34.1885 18.5 2.50786
    endloop
  endfacet
  facet normal 0.89092 0 -0.454161
    outer loop
      vertex 34.7422 18.5 6.89052
      vertex 34.571 20 6.55468
      vertex 34.7422 20 6.89052
    endloop
  endfacet
  facet normal 0.89092 0 -0.454161
    outer loop
      vertex 34.571 20 6.55468
      vertex 34.7422 18.5 6.89052
      vertex 34.571 18.5 6.55468
    endloop
  endfacet
  facet normal -0.156443 0 0.987687
    outer loop
      vertex 40.752 20 -1.95269
      vertex 41.1243 18.5 -1.89372
      vertex 41.1243 20 -1.89372
    endloop
  endfacet
  facet normal -0.156443 0 0.987687
    outer loop
      vertex 41.1243 18.5 -1.89372
      vertex 40.752 20 -1.95269
      vertex 40.752 18.5 -1.95269
    endloop
  endfacet
  facet normal 0.995555 -0 0.0941806
    outer loop
      vertex 34.0118 18.5 3.62326
      vertex 34.0473 20 3.248
      vertex 34.0118 20 3.62326
    endloop
  endfacet
  facet normal 0.995555 0 0.0941806
    outer loop
      vertex 34.0473 20 3.248
      vertex 34.0118 18.5 3.62326
      vertex 34.0473 18.5 3.248
    endloop
  endfacet
  facet normal -0.790182 0 -0.612873
    outer loop
      vertex 44.8541 18.5 7.52671
      vertex 44.6231 20 7.82454
      vertex 44.8541 20 7.52671
    endloop
  endfacet
  facet normal -0.790182 -0 -0.612873
    outer loop
      vertex 44.6231 20 7.82454
      vertex 44.8541 18.5 7.52671
      vertex 44.6231 18.5 7.82454
    endloop
  endfacet
  facet normal 0.278965 0 -0.960301
    outer loop
      vertex 38.1459 18.5 9.70634
      vertex 38.5079 20 9.8115
      vertex 38.5079 18.5 9.8115
    endloop
  endfacet
  facet normal 0.278965 0 -0.960301
    outer loop
      vertex 38.5079 20 9.8115
      vertex 38.1459 18.5 9.70634
      vertex 38.1459 20 9.70634
    endloop
  endfacet
  facet normal 0.0940918 0 0.995564
    outer loop
      vertex 39.248 20 -1.95269
      vertex 39.6233 18.5 -1.98816
      vertex 39.6233 20 -1.98816
    endloop
  endfacet
  facet normal 0.0940918 0 0.995564
    outer loop
      vertex 39.6233 18.5 -1.98816
      vertex 39.248 20 -1.95269
      vertex 39.248 18.5 -1.95269
    endloop
  endfacet
  facet normal -0.661235 0 -0.750179
    outer loop
      vertex 43.8245 18.5 8.62308
      vertex 44.1073 20 8.37381
      vertex 44.1073 18.5 8.37381
    endloop
  endfacet
  facet normal -0.661235 0 -0.750179
    outer loop
      vertex 44.1073 20 8.37381
      vertex 43.8245 18.5 8.62308
      vertex 43.8245 20 8.62308
    endloop
  endfacet
  facet normal 0.987674 0 -0.156525
    outer loop
      vertex 34.1063 18.5 5.12429
      vertex 34.0473 20 4.752
      vertex 34.1063 20 5.12429
    endloop
  endfacet
  facet normal 0.987674 0 -0.156525
    outer loop
      vertex 34.0473 20 4.752
      vertex 34.1063 18.5 5.12429
      vertex 34.0473 18.5 4.752
    endloop
  endfacet
  facet normal -0.397086 0 0.917781
    outer loop
      vertex 42.2087 20 -1.57866
      vertex 42.5547 18.5 -1.42896
      vertex 42.5547 20 -1.42896
    endloop
  endfacet
  facet normal -0.397086 0 0.917781
    outer loop
      vertex 42.5547 18.5 -1.42896
      vertex 42.2087 20 -1.57866
      vertex 42.2087 18.5 -1.57866
    endloop
  endfacet
  facet normal 0.397086 0 -0.917781
    outer loop
      vertex 37.4453 18.5 9.42896
      vertex 37.7913 20 9.57866
      vertex 37.7913 18.5 9.57866
    endloop
  endfacet
  facet normal 0.397086 0 -0.917781
    outer loop
      vertex 37.7913 20 9.57866
      vertex 37.4453 18.5 9.42896
      vertex 37.4453 20 9.42896
    endloop
  endfacet
  facet normal 0.338776 0 -0.940867
    outer loop
      vertex 37.7913 18.5 9.57866
      vertex 38.1459 20 9.70634
      vertex 38.1459 18.5 9.70634
    endloop
  endfacet
  facet normal 0.338776 0 -0.940867
    outer loop
      vertex 38.1459 20 9.70634
      vertex 37.7913 18.5 9.57866
      vertex 37.7913 20 9.57866
    endloop
  endfacet
  facet normal 0.0314153 0 -0.999506
    outer loop
      vertex 39.6233 18.5 9.98816
      vertex 40 20 10
      vertex 40 18.5 10
    endloop
  endfacet
  facet normal 0.0314153 0 -0.999506
    outer loop
      vertex 40 20 10
      vertex 39.6233 18.5 9.98816
      vertex 39.6233 20 9.98816
    endloop
  endfacet
  facet normal 0.156443 0 -0.987687
    outer loop
      vertex 38.8757 18.5 9.89372
      vertex 39.248 20 9.95269
      vertex 39.248 18.5 9.95269
    endloop
  endfacet
  facet normal 0.156443 0 -0.987687
    outer loop
      vertex 39.248 20 9.95269
      vertex 38.8757 18.5 9.89372
      vertex 38.8757 20 9.89372
    endloop
  endfacet
  facet normal 0.0314153 0 0.999506
    outer loop
      vertex 39.6233 20 -1.98816
      vertex 40 18.5 -2
      vertex 40 20 -2
    endloop
  endfacet
  facet normal 0.0314153 0 0.999506
    outer loop
      vertex 40 18.5 -2
      vertex 39.6233 20 -1.98816
      vertex 39.6233 18.5 -1.98816
    endloop
  endfacet
  facet normal 0.99951 -0 0.031306
    outer loop
      vertex 34 18.5 4
      vertex 34.0118 20 3.62326
      vertex 34 20 4
    endloop
  endfacet
  facet normal 0.99951 0 0.031306
    outer loop
      vertex 34.0118 20 3.62326
      vertex 34 18.5 4
      vertex 34.0118 18.5 3.62326
    endloop
  endfacet
  facet normal 0.790182 0 -0.612873
    outer loop
      vertex 35.3769 18.5 7.82454
      vertex 35.1459 20 7.52671
      vertex 35.3769 20 7.82454
    endloop
  endfacet
  facet normal 0.790182 0 -0.612873
    outer loop
      vertex 35.1459 20 7.52671
      vertex 35.3769 18.5 7.82454
      vertex 35.1459 18.5 7.52671
    endloop
  endfacet
  facet normal -0.0940918 0 0.995564
    outer loop
      vertex 40.3767 20 -1.98816
      vertex 40.752 18.5 -1.95269
      vertex 40.752 20 -1.95269
    endloop
  endfacet
  facet normal -0.0940918 0 0.995564
    outer loop
      vertex 40.752 18.5 -1.95269
      vertex 40.3767 20 -1.98816
      vertex 40.3767 18.5 -1.98816
    endloop
  endfacet
  facet normal -0.860827 0 -0.508897
    outer loop
      vertex 45.2578 18.5 6.89052
      vertex 45.066 20 7.21496
      vertex 45.2578 20 6.89052
    endloop
  endfacet
  facet normal -0.860827 -0 -0.508897
    outer loop
      vertex 45.066 20 7.21496
      vertex 45.2578 18.5 6.89052
      vertex 45.066 18.5 7.21496
    endloop
  endfacet
  facet normal 0.0940918 0 -0.995564
    outer loop
      vertex 39.248 18.5 9.95269
      vertex 39.6233 20 9.98816
      vertex 39.6233 18.5 9.98816
    endloop
  endfacet
  facet normal 0.0940918 0 -0.995564
    outer loop
      vertex 39.6233 20 9.98816
      vertex 39.248 18.5 9.95269
      vertex 39.248 20 9.95269
    endloop
  endfacet
  facet normal -0.338776 0 -0.940867
    outer loop
      vertex 41.8541 18.5 9.70634
      vertex 42.2087 20 9.57866
      vertex 42.2087 18.5 9.57866
    endloop
  endfacet
  facet normal -0.338776 0 -0.940867
    outer loop
      vertex 42.2087 20 9.57866
      vertex 41.8541 18.5 9.70634
      vertex 41.8541 20 9.70634
    endloop
  endfacet
  facet normal -0.508965 0 -0.860787
    outer loop
      vertex 42.8905 18.5 9.25784
      vertex 43.215 20 9.06597
      vertex 43.215 18.5 9.06597
    endloop
  endfacet
  facet normal -0.508965 0 -0.860787
    outer loop
      vertex 43.215 20 9.06597
      vertex 42.8905 18.5 9.25784
      vertex 42.8905 20 9.25784
    endloop
  endfacet
  facet normal 0.97593 0 -0.218082
    outer loop
      vertex 34.1885 18.5 5.49214
      vertex 34.1063 20 5.12429
      vertex 34.1885 20 5.49214
    endloop
  endfacet
  facet normal 0.97593 0 -0.218082
    outer loop
      vertex 34.1063 20 5.12429
      vertex 34.1885 18.5 5.49214
      vertex 34.1063 18.5 5.12429
    endloop
  endfacet
  facet normal 0.562154 0 -0.827033
    outer loop
      vertex 36.4733 18.5 8.8541
      vertex 36.785 20 9.06597
      vertex 36.785 18.5 9.06597
    endloop
  endfacet
  facet normal 0.562154 0 -0.827033
    outer loop
      vertex 36.785 20 9.06597
      vertex 36.4733 18.5 8.8541
      vertex 36.4733 20 8.8541
    endloop
  endfacet
  facet normal -0.562154 0 -0.827033
    outer loop
      vertex 43.215 18.5 9.06597
      vertex 43.5267 20 8.8541
      vertex 43.5267 18.5 8.8541
    endloop
  endfacet
  facet normal -0.562154 0 -0.827033
    outer loop
      vertex 43.5267 20 8.8541
      vertex 43.215 18.5 9.06597
      vertex 43.215 20 9.06597
    endloop
  endfacet
  facet normal -0.94095 0 -0.338546
    outer loop
      vertex 45.7063 18.5 5.8541
      vertex 45.5787 20 6.20875
      vertex 45.7063 20 5.8541
    endloop
  endfacet
  facet normal -0.94095 -0 -0.338546
    outer loop
      vertex 45.5787 20 6.20875
      vertex 45.7063 18.5 5.8541
      vertex 45.5787 18.5 6.20875
    endloop
  endfacet
  facet normal -0.750048 0 0.661383
    outer loop
      vertex 44.3738 18.5 -0.107282
      vertex 44.4684 20 0
      vertex 44.3738 20 -0.107282
    endloop
  endfacet
  facet normal -0.750048 0 0.661383
    outer loop
      vertex 44.4684 20 0
      vertex 44.3738 18.5 -0.107282
      vertex 44.4684 18.5 0
    endloop
  endfacet
  facet normal 0.338776 0 0.940867
    outer loop
      vertex 37.7913 20 -1.57866
      vertex 38.1459 18.5 -1.70634
      vertex 38.1459 20 -1.70634
    endloop
  endfacet
  facet normal 0.338776 0 0.940867
    outer loop
      vertex 38.1459 18.5 -1.70634
      vertex 37.7913 20 -1.57866
      vertex 37.7913 18.5 -1.57866
    endloop
  endfacet
  facet normal -0.454035 0 0.890984
    outer loop
      vertex 42.5547 20 -1.42896
      vertex 42.8905 18.5 -1.25784
      vertex 42.8905 20 -1.25784
    endloop
  endfacet
  facet normal -0.454035 0 0.890984
    outer loop
      vertex 42.8905 18.5 -1.25784
      vertex 42.5547 20 -1.42896
      vertex 42.5547 18.5 -1.42896
    endloop
  endfacet
  facet normal -0.0940918 0 -0.995564
    outer loop
      vertex 40.3767 18.5 9.98816
      vertex 40.752 20 9.95269
      vertex 40.752 18.5 9.95269
    endloop
  endfacet
  facet normal -0.0940918 0 -0.995564
    outer loop
      vertex 40.752 20 9.95269
      vertex 40.3767 18.5 9.98816
      vertex 40.3767 20 9.98816
    endloop
  endfacet
  facet normal -0.0314153 0 0.999506
    outer loop
      vertex 40 20 -2
      vertex 40.3767 18.5 -1.98816
      vertex 40.3767 20 -1.98816
    endloop
  endfacet
  facet normal -0.0314153 0 0.999506
    outer loop
      vertex 40.3767 18.5 -1.98816
      vertex 40 20 -2
      vertex 40 18.5 -2
    endloop
  endfacet
  facet normal -0.960265 0 0.279091
    outer loop
      vertex 45.7063 18.5 2.1459
      vertex 45.8115 20 2.50786
      vertex 45.7063 20 2.1459
    endloop
  endfacet
  facet normal -0.960265 0 0.279091
    outer loop
      vertex 45.8115 20 2.50786
      vertex 45.7063 18.5 2.1459
      vertex 45.8115 18.5 2.50786
    endloop
  endfacet
  facet normal -0.940937 0 0.338582
    outer loop
      vertex 45.6538 18.5 2
      vertex 45.7063 20 2.1459
      vertex 45.6538 20 2
    endloop
  endfacet
  facet normal -0.940937 0 0.338582
    outer loop
      vertex 45.7063 20 2.1459
      vertex 45.6538 18.5 2
      vertex 45.7063 18.5 2.1459
    endloop
  endfacet
  facet normal 0.508965 0 0.860787
    outer loop
      vertex 36.785 20 -1.06597
      vertex 37.1095 18.5 -1.25784
      vertex 37.1095 20 -1.25784
    endloop
  endfacet
  facet normal 0.508965 0 0.860787
    outer loop
      vertex 37.1095 18.5 -1.25784
      vertex 36.785 20 -1.06597
      vertex 36.785 18.5 -1.06597
    endloop
  endfacet
  facet normal 0.750048 -0 0.661383
    outer loop
      vertex 35.5316 18.5 0
      vertex 35.6262 20 -0.107282
      vertex 35.5316 20 0
    endloop
  endfacet
  facet normal 0.750048 0 0.661383
    outer loop
      vertex 35.6262 20 -0.107282
      vertex 35.5316 18.5 0
      vertex 35.6262 18.5 -0.107282
    endloop
  endfacet
  facet normal -0.156443 0 -0.987687
    outer loop
      vertex 40.752 18.5 9.95269
      vertex 41.1243 20 9.89372
      vertex 41.1243 18.5 9.89372
    endloop
  endfacet
  facet normal -0.156443 0 -0.987687
    outer loop
      vertex 41.1243 20 9.89372
      vertex 40.752 18.5 9.95269
      vertex 40.752 20 9.95269
    endloop
  endfacet
  facet normal -0.612948 0 0.790123
    outer loop
      vertex 43.5267 20 -0.854101
      vertex 43.8245 18.5 -0.623079
      vertex 43.8245 20 -0.623079
    endloop
  endfacet
  facet normal -0.612948 0 0.790123
    outer loop
      vertex 43.8245 18.5 -0.623079
      vertex 43.5267 20 -0.854101
      vertex 43.5267 18.5 -0.854101
    endloop
  endfacet
  facet normal 0.278965 0 0.960301
    outer loop
      vertex 38.1459 20 -1.70634
      vertex 38.5079 18.5 -1.8115
      vertex 38.5079 20 -1.8115
    endloop
  endfacet
  facet normal 0.278965 0 0.960301
    outer loop
      vertex 38.5079 18.5 -1.8115
      vertex 38.1459 20 -1.70634
      vertex 38.1459 18.5 -1.70634
    endloop
  endfacet
  facet normal -0.707147 0 0.707067
    outer loop
      vertex 44.1073 18.5 -0.373812
      vertex 44.3738 20 -0.107282
      vertex 44.1073 20 -0.373812
    endloop
  endfacet
  facet normal -0.707147 0 0.707067
    outer loop
      vertex 44.3738 20 -0.107282
      vertex 44.1073 18.5 -0.373812
      vertex 44.3738 18.5 -0.107282
    endloop
  endfacet
  facet normal -0.66123 0 0.750183
    outer loop
      vertex 43.8245 20 -0.623079
      vertex 44.1073 18.5 -0.373812
      vertex 44.1073 20 -0.373812
    endloop
  endfacet
  facet normal -0.66123 0 0.750183
    outer loop
      vertex 44.1073 18.5 -0.373812
      vertex 43.8245 20 -0.623079
      vertex 43.8245 18.5 -0.623079
    endloop
  endfacet
  facet normal 0.454035 0 0.890984
    outer loop
      vertex 37.1095 20 -1.25784
      vertex 37.4453 18.5 -1.42896
      vertex 37.4453 20 -1.42896
    endloop
  endfacet
  facet normal 0.454035 0 0.890984
    outer loop
      vertex 37.4453 18.5 -1.42896
      vertex 37.1095 20 -1.25784
      vertex 37.1095 18.5 -1.25784
    endloop
  endfacet
  facet normal 0.75007 0 -0.661358
    outer loop
      vertex 35.6262 18.5 8.10728
      vertex 35.3769 20 7.82454
      vertex 35.6262 20 8.10728
    endloop
  endfacet
  facet normal 0.75007 0 -0.661358
    outer loop
      vertex 35.3769 20 7.82454
      vertex 35.6262 18.5 8.10728
      vertex 35.3769 18.5 7.82454
    endloop
  endfacet
  facet normal 0.612948 0 0.790123
    outer loop
      vertex 36.1755 20 -0.623079
      vertex 36.4733 18.5 -0.854101
      vertex 36.4733 20 -0.854101
    endloop
  endfacet
  facet normal 0.612948 0 0.790123
    outer loop
      vertex 36.4733 18.5 -0.854101
      vertex 36.1755 20 -0.623079
      vertex 36.1755 18.5 -0.623079
    endloop
  endfacet
  facet normal 0.860827 0 -0.508897
    outer loop
      vertex 34.934 18.5 7.21496
      vertex 34.7422 20 6.89052
      vertex 34.934 20 7.21496
    endloop
  endfacet
  facet normal 0.860827 0 -0.508897
    outer loop
      vertex 34.7422 20 6.89052
      vertex 34.934 18.5 7.21496
      vertex 34.7422 18.5 6.89052
    endloop
  endfacet
  facet normal 0.827038 0 -0.562147
    outer loop
      vertex 35.1459 18.5 7.52671
      vertex 34.934 20 7.21496
      vertex 35.1459 20 7.52671
    endloop
  endfacet
  facet normal 0.827038 0 -0.562147
    outer loop
      vertex 34.934 20 7.21496
      vertex 35.1459 18.5 7.52671
      vertex 34.934 18.5 7.21496
    endloop
  endfacet
  facet normal 0 0 1
    outer loop
      vertex 45.6538 20 2
      vertex 34.3462 20 2
      vertex 45.6538 18.5 2
    endloop
  endfacet
  facet normal -0 0 1
    outer loop
      vertex 45.6538 18.5 2
      vertex 80 0 2
      vertex 80 18.5 2
    endloop
  endfacet
  facet normal 0 0 1
    outer loop
      vertex 34.3462 18.5 2
      vertex 45.6538 18.5 2
      vertex 34.3462 20 2
    endloop
  endfacet
  facet normal 0 0 1
    outer loop
      vertex 45.6538 18.5 2
      vertex 34.3462 18.5 2
      vertex 80 0 2
    endloop
  endfacet
  facet normal 0 0 1
    outer loop
      vertex 0 0 2
      vertex 34.3462 18.5 2
      vertex 0 18.5 2
    endloop
  endfacet
  facet normal 0 0 1
    outer loop
      vertex 34.3462 18.5 2
      vertex 0 0 2
      vertex 80 0 2
    endloop
  endfacet
  facet normal 0 0 -1
    outer loop
      vertex 80 0 0
      vertex 44.4684 18.5 0
      vertex 80 18.5 0
    endloop
  endfacet
  facet normal 0 0 -1
    outer loop
      vertex 44.4684 18.5 0
      vertex 35.5316 18.5 0
      vertex 44.4684 20 0
    endloop
  endfacet
  facet normal 0 0 -1
    outer loop
      vertex 80 0 0
      vertex 35.5316 18.5 0
      vertex 44.4684 18.5 0
    endloop
  endfacet
  facet normal 0 0 -1
    outer loop
      vertex 0 0 0
      vertex 35.5316 18.5 0
      vertex 80 0 0
    endloop
  endfacet
  facet normal -0 0 -1
    outer loop
      vertex 35.5316 18.5 0
      vertex 0 0 0
      vertex 0 18.5 0
    endloop
  endfacet
  facet normal 0 0 -1
    outer loop
      vertex 44.4684 20 0
      vertex 80 60 0
      vertex 80 20 0
    endloop
  endfacet
  facet normal 0 0 -1
    outer loop
      vertex 35.5316 20 0
      vertex 44.4684 20 0
      vertex 35.5316 18.5 0
    endloop
  endfacet
  facet normal 0 0 -1
    outer loop
      vertex 44.4684 20 0
      vertex 35.5316 20 0
      vertex 80 60 0
    endloop
  endfacet
  facet normal 0 0 -1
    outer loop
      vertex 0 60 0
      vertex 35.5316 20 0
      vertex 0 20 0
    endloop
  endfacet
  facet normal 0 0 -1
    outer loop
      vertex 35.5316 20 0
      vertex 0 60 0
      vertex 80 60 0
    endloop
  endfacet
  facet normal 0 1 0
    outer loop
      vertex 80 60 12
      vertex 74 60 10
      vertex 74 60 12
    endloop
  endfacet
  facet normal 0 1 0
    outer loop
      vertex 74 60 10
      vertex 80 60 0
      vertex 6 60 10
    endloop
  endfacet
  facet normal 0 1 -0
    outer loop
      vertex 80 60 0
      vertex 74 60 10
      vertex 80 60 12
    endloop
  endfacet
  facet normal 0 1 -0
    outer loop
      vertex 6 60 10
      vertex 0 60 12
      vertex 6 60 12
    endloop
  endfacet
  facet normal 0 1 0
    outer loop
      vertex 6 60 10
      vertex 0 60 0
      vertex 0 60 12
    endloop
  endfacet
  facet normal 0 1 0
    outer loop
      vertex 0 60 0
      vertex 6 60 10
      vertex 80 60 0
    endloop
  endfacet
  facet normal 0 -1 0
    outer loop
      vertex 0 0 0
      vertex 80 0 2
      vertex 0 0 2
    endloop
  endfacet
  facet normal 0 -1 -0
    outer loop
      vertex 80 0 2
      vertex 0 0 0
      vertex 80 0 0
    endloop
  endfacet
  facet normal 1 -0 0
    outer loop
      vertex 6 20 12
      vertex 6 60 10
      vertex 6 60 12
    endloop
  endfacet
  facet normal 1 0 0
    outer loop
      vertex 6 60 10
      vertex 6 20 12
      vertex 6 20 10
    endloop
  endfacet
  facet normal -0 0 1
    outer loop
      vertex 0 60 12
      vertex 6 20 12
      vertex 6 60 12
    endloop
  endfacet
  facet normal 0 0 1
    outer loop
      vertex 6 20 12
      vertex 0 60 12
      vertex 0 20 12
    endloop
  endfacet
  facet normal -0 0 1
    outer loop
      vertex 74 60 12
      vertex 80 20 12
      vertex 80 60 12
    endloop
  endfacet
  facet normal 0 0 1
    outer loop
      vertex 80 20 12
      vertex 74 60 12
      vertex 74 20 12
    endloop
  endfacet
  facet normal -1 0 0
    outer loop
      vertex 74 20 10
      vertex 74 60 12
      vertex 74 60 10
    endloop
  endfacet
  facet normal -1 -0 0
    outer loop
      vertex 74 60 12
      vertex 74 20 10
      vertex 74 20 12
    endloop
  endfacet
endsolid OpenSCAD_Model
