solid OpenSCAD_Model
  facet normal -1 0 0
    outer loop
      vertex -50 80 0
      vertex -50 30 11
      vertex -50 80 11
    endloop
  endfacet
  facet normal -1 0 0
    outer loop
      vertex -50 22 13
      vertex -50 30 11
      vertex -50 22 3
    endloop
  endfacet
  facet normal -1 0 0
    outer loop
      vertex -50 80 0
      vertex -50 22 3
      vertex -50 30 11
    endloop
  endfacet
  facet normal -1 0 0
    outer loop
      vertex -50 0 0
      vertex -50 22 3
      vertex -50 80 0
    endloop
  endfacet
  facet normal -1 -0 0
    outer loop
      vertex -50 22 3
      vertex -50 0 0
      vertex -50 0 3
    endloop
  endfacet
  facet normal -1 0 0
    outer loop
      vertex -50 30 11
      vertex -50 22 13
      vertex -50 30 13
    endloop
  endfacet
  facet normal 0 1 -0
    outer loop
      vertex 50 80 0
      vertex -50 80 11
      vertex 50 80 11
    endloop
  endfacet
  facet normal 0 1 0
    outer loop
      vertex -50 80 11
      vertex 50 80 0
      vertex -50 80 0
    endloop
  endfacet
  facet normal 1 0 0
    outer loop
      vertex 50 30 13
      vertex 50 22 13
      vertex 50 30 11
    endloop
  endfacet
  facet normal 1 -0 0
    outer loop
      vertex 50 30 11
      vertex 50 80 0
      vertex 50 80 11
    endloop
  endfacet
  facet normal 1 0 0
    outer loop
      vertex 50 22 3
      vertex 50 30 11
      vertex 50 22 13
    endloop
  endfacet
  facet normal 1 -0 0
    outer loop
      vertex 50 22 3
      vertex 50 80 0
      vertex 50 30 11
    endloop
  endfacet
  facet normal 1 0 0
    outer loop
      vertex 50 0 0
      vertex 50 22 3
      vertex 50 0 3
    endloop
  endfacet
  facet normal 1 0 0
    outer loop
      vertex 50 22 3
      vertex 50 0 0
      vertex 50 80 0
    endloop
  endfacet
  facet normal -0 0 1
    outer loop
      vertex -50 30 13
      vertex 50 22 13
      vertex 50 30 13
    endloop
  endfacet
  facet normal 0 0 1
    outer loop
      vertex 50 22 13
      vertex -50 30 13
      vertex -50 22 13
    endloop
  endfacet
  facet normal -0 0 1
    outer loop
      vertex -50 22 3
      vertex 50 0 3
      vertex 50 22 3
    endloop
  endfacet
  facet normal 0 0 1
    outer loop
      vertex 50 0 3
      vertex -50 22 3
      vertex -50 0 3
    endloop
  endfacet
  facet normal 0 -1 0
    outer loop
      vertex -50 22 13
      vertex -35 22 10
      vertex 50 22 13
    endloop
  endfacet
  facet normal 0 -1 0
    outer loop
      vertex -50 22 13
      vertex -35 22 6
      vertex -35 22 10
    endloop
  endfacet
  facet normal 0 -1 -0
    outer loop
      vertex -35 22 6
      vertex -50 22 3
      vertex 35 22 6
    endloop
  endfacet
  facet normal 0 -1 0
    outer loop
      vertex -50 22 3
      vertex -35 22 6
      vertex -50 22 13
    endloop
  endfacet
  facet normal 0 -1 0
    outer loop
      vertex 35 22 10
      vertex 50 22 13
      vertex -35 22 10
    endloop
  endfacet
  facet normal 0 -1 0
    outer loop
      vertex 35 22 6
      vertex 50 22 13
      vertex 35 22 10
    endloop
  endfacet
  facet normal 0 -1 0
    outer loop
      vertex 35 22 6
      vertex 50 22 3
      vertex 50 22 13
    endloop
  endfacet
  facet normal 0 -1 0
    outer loop
      vertex 50 22 3
      vertex 35 22 6
      vertex -50 22 3
    endloop
  endfacet
  facet normal 0 1 -0
    outer loop
      vertex 50 30 11
      vertex -50 30 13
      vertex 50 30 13
    endloop
  endfacet
  facet normal 0 1 0
    outer loop
      vertex -50 30 13
      vertex 50 30 11
      vertex -50 30 11
    endloop
  endfacet
  facet normal 0 -1 0
    outer loop
      vertex -35 30 6
      vertex 35 30 10
      vertex -35 30 10
    endloop
  endfacet
  facet normal 0 -1 -0
    outer loop
      vertex 35 30 10
      vertex -35 30 6
      vertex 35 30 6
    endloop
  endfacet
  facet normal 1 -0 0
    outer loop
      vertex -35 22 10
      vertex -35 30 6
      vertex -35 30 10
    endloop
  endfacet
  facet normal 1 0 0
    outer loop
      vertex -35 30 6
      vertex -35 22 10
      vertex -35 22 6
    endloop
  endfacet
  facet normal 0 0 -1
    outer loop
      vertex -35 22 10
      vertex 35 30 10
      vertex 35 22 10
    endloop
  endfacet
  facet normal -0 0 -1
    outer loop
      vertex 35 30 10
      vertex -35 22 10
      vertex -35 30 10
    endloop
  endfacet
  facet normal -1 0 0
    outer loop
      vertex 35 22 6
      vertex 35 30 10
      vertex 35 30 6
    endloop
  endfacet
  facet normal -1 -0 0
    outer loop
      vertex 35 30 10
      vertex 35 22 6
      vertex 35 22 10
    endloop
  endfacet
  facet normal -0 0 1
    outer loop
      vertex -35 30 6
      vertex 35 22 6
      vertex 35 30 6
    endloop
  endfacet
  facet normal 0 0 1
    outer loop
      vertex 35 22 6
      vertex -35 30 6
      vertex -35 22 6
    endloop
  endfacet
  facet normal 0 0 -1
    outer loop
      vertex -50 0 0
      vertex 50 80 0
      vertex 50 0 0
    endloop
  endfacet
  facet normal -0 0 -1
    outer loop
      vertex 50 80 0
      vertex -50 0 0
      vertex -50 80 0
    endloop
  endfacet
  facet normal 0 -1 0
    outer loop
      vertex -50 0 0
      vertex 50 0 3
      vertex -50 0 3
    endloop
  endfacet
  facet normal 0 -1 -0
    outer loop
      vertex 50 0 3
      vertex -50 0 0
      vertex 50 0 0
    endloop
  endfacet
  facet normal -0 0 1
    outer loop
      vertex -50 80 11
      vertex 50 30 11
      vertex 50 80 11
    endloop
  endfacet
  facet normal 0 0 1
    outer loop
      vertex 50 30 11
      vertex -50 80 11
      vertex -50 30 11
    endloop
  endfacet
endsolid OpenSCAD_Model
