solid OpenSCAD_Model
  facet normal 1 0 0
    outer loop
      vertex 60 37 2
      vertex 60 40 32
      vertex 60 37 32
    endloop
  endfacet
  facet normal 1 0 0
    outer loop
      vertex 60 40 32
      vertex 60 37 2
      vertex 60 40 0
    endloop
  endfacet
  facet normal 1 0 0
    outer loop
      vertex 60 0 0
      vertex 60 37 2
      vertex 60 0 2
    endloop
  endfacet
  facet normal 1 0 0
    outer loop
      vertex 60 37 2
      vertex 60 0 0
      vertex 60 40 0
    endloop
  endfacet
  facet normal 0 0 1
    outer loop
      vertex 60 37 2
      vertex 38 20 2
      vertex 60 0 2
    endloop
  endfacet
  facet normal -0 0 1
    outer loop
      vertex 0 37 2
      vertex 38 20 2
      vertex 60 37 2
    endloop
  endfacet
  facet normal 0 0 1
    outer loop
      vertex 0 0 2
      vertex 18 20 2
      vertex 0 37 2
    endloop
  endfacet
  facet normal 0 0 1
    outer loop
      vertex 38 20 2
      vertex 0 37 2
      vertex 18 20 2
    endloop
  endfacet
  facet normal -0 0 1
    outer loop
      vertex 38 8 2
      vertex 60 0 2
      vertex 38 20 2
    endloop
  endfacet
  facet normal 0 0 1
    outer loop
      vertex 0 0 2
      vertex 38 8 2
      vertex 18 8 2
    endloop
  endfacet
  facet normal 0 0 1
    outer loop
      vertex 38 8 2
      vertex 0 0 2
      vertex 60 0 2
    endloop
  endfacet
  facet normal 0 0 1
    outer loop
      vertex 18 20 2
      vertex 0 0 2
      vertex 18 8 2
    endloop
  endfacet
  facet normal 0 0 -1
    outer loop
      vertex 38 20 0
      vertex 60 0 0
      vertex 38 8 0
    endloop
  endfacet
  facet normal 0 0 -1
    outer loop
      vertex 0 0 0
      vertex 38 8 0
      vertex 60 0 0
    endloop
  endfacet
  facet normal -0 0 -1
    outer loop
      vertex 18 8 0
      vertex 0 0 0
      vertex 18 20 0
    endloop
  endfacet
  facet normal -0 0 -1
    outer loop
      vertex 38 8 0
      vertex 0 0 0
      vertex 18 8 0
    endloop
  endfacet
  facet normal 0 0 -1
    outer loop
      vertex 60 0 0
      vertex 38 20 0
      vertex 60 40 0
    endloop
  endfacet
  facet normal 0 0 -1
    outer loop
      vertex 0 40 0
      vertex 38 20 0
      vertex 18 20 0
    endloop
  endfacet
  facet normal 0 0 -1
    outer loop
      vertex 38 20 0
      vertex 0 40 0
      vertex 60 40 0
    endloop
  endfacet
  facet normal 0 0 -1
    outer loop
      vertex 0 40 0
      vertex 18 20 0
      vertex 0 0 0
    endloop
  endfacet
  facet normal -1 0 0
    outer loop
      vertex 0 40 0
      vertex 0 37 2
      vertex 0 40 32
    endloop
  endfacet
  facet normal -1 0 0
    outer loop
      vertex 0 0 0
      vertex 0 37 2
      vertex 0 40 0
    endloop
  endfacet
  facet normal -1 -0 0
    outer loop
      vertex 0 37 2
      vertex 0 0 0
      vertex 0 0 2
    endloop
  endfacet
  facet normal -1 -0 0
    outer loop
      vertex 0 40 32
      vertex 0 37 2
      vertex 0 37 32
    endloop
  endfacet
  facet normal 0 1 0
    outer loop
      vertex 39.843 40 26.4951
      vertex 60 40 32
      vertex 40 40 26.5
    endloop
  endfacet
  facet normal 0 1 0
    outer loop
      vertex 60 40 32
      vertex 40.157 40 26.4951
      vertex 40 40 26.5
    endloop
  endfacet
  facet normal 0 1 0
    outer loop
      vertex 60 40 32
      vertex 40.3133 40 26.4803
      vertex 40.157 40 26.4951
    endloop
  endfacet
  facet normal 0 1 0
    outer loop
      vertex 60 40 32
      vertex 40.4685 40 26.4557
      vertex 40.3133 40 26.4803
    endloop
  endfacet
  facet normal 0 1 0
    outer loop
      vertex 60 40 32
      vertex 40.6217 40 26.4215
      vertex 40.4685 40 26.4557
    endloop
  endfacet
  facet normal 0 1 0
    outer loop
      vertex 60 40 32
      vertex 40.7725 40 26.3776
      vertex 40.6217 40 26.4215
    endloop
  endfacet
  facet normal 0 1 0
    outer loop
      vertex 60 40 32
      vertex 40.9203 40 26.3244
      vertex 40.7725 40 26.3776
    endloop
  endfacet
  facet normal 0 1 0
    outer loop
      vertex 60 40 32
      vertex 41.0644 40 26.2621
      vertex 40.9203 40 26.3244
    endloop
  endfacet
  facet normal 0 1 0
    outer loop
      vertex 60 40 32
      vertex 41.2044 40 26.1908
      vertex 41.0644 40 26.2621
    endloop
  endfacet
  facet normal 0 1 0
    outer loop
      vertex 60 40 32
      vertex 41.3396 40 26.1108
      vertex 41.2044 40 26.1908
    endloop
  endfacet
  facet normal 0 1 0
    outer loop
      vertex 60 40 32
      vertex 41.4695 40 26.0225
      vertex 41.3396 40 26.1108
    endloop
  endfacet
  facet normal 0 1 0
    outer loop
      vertex 60 40 32
      vertex 41.5936 40 25.9263
      vertex 41.4695 40 26.0225
    endloop
  endfacet
  facet normal 0 1 0
    outer loop
      vertex 60 40 32
      vertex 41.7114 40 25.8224
      vertex 41.5936 40 25.9263
    endloop
  endfacet
  facet normal 0 1 0
    outer loop
      vertex 60 40 32
      vertex 41.8224 40 25.7114
      vertex 41.7114 40 25.8224
    endloop
  endfacet
  facet normal 0 1 0
    outer loop
      vertex 60 40 32
      vertex 41.9263 40 25.5936
      vertex 41.8224 40 25.7114
    endloop
  endfacet
  facet normal 0 1 0
    outer loop
      vertex 60 40 32
      vertex 42.0225 40 25.4695
      vertex 41.9263 40 25.5936
    endloop
  endfacet
  facet normal 0 1 0
    outer loop
      vertex 60 40 32
      vertex 42.1108 40 25.3396
      vertex 42.0225 40 25.4695
    endloop
  endfacet
  facet normal 0 1 0
    outer loop
      vertex 60 40 32
      vertex 42.1908 40 25.2044
      vertex 42.1108 40 25.3396
    endloop
  endfacet
  facet normal 0 1 0
    outer loop
      vertex 60 40 32
      vertex 42.2621 40 25.0644
      vertex 42.1908 40 25.2044
    endloop
  endfacet
  facet normal 0 1 0
    outer loop
      vertex 60 40 32
      vertex 42.3244 40 24.9203
      vertex 42.2621 40 25.0644
    endloop
  endfacet
  facet normal 0 1 0
    outer loop
      vertex 60 40 32
      vertex 42.3776 40 24.7725
      vertex 42.3244 40 24.9203
    endloop
  endfacet
  facet normal 0 1 0
    outer loop
      vertex 60 40 32
      vertex 42.4215 40 24.6217
      vertex 42.3776 40 24.7725
    endloop
  endfacet
  facet normal 0 1 0
    outer loop
      vertex 60 40 32
      vertex 42.4557 40 24.4685
      vertex 42.4215 40 24.6217
    endloop
  endfacet
  facet normal 0 1 0
    outer loop
      vertex 60 40 32
      vertex 42.4803 40 24.3133
      vertex 42.4557 40 24.4685
    endloop
  endfacet
  facet normal 0 1 0
    outer loop
      vertex 60 40 32
      vertex 42.4951 40 24.157
      vertex 42.4803 40 24.3133
    endloop
  endfacet
  facet normal 0 1 0
    outer loop
      vertex 60 40 32
      vertex 42.5 40 24
      vertex 42.4951 40 24.157
    endloop
  endfacet
  facet normal 0 1 0
    outer loop
      vertex 60 40 32
      vertex 42.4951 40 23.843
      vertex 42.5 40 24
    endloop
  endfacet
  facet normal 0 1 0
    outer loop
      vertex 60 40 32
      vertex 42.4803 40 23.6867
      vertex 42.4951 40 23.843
    endloop
  endfacet
  facet normal 0 1 0
    outer loop
      vertex 60 40 32
      vertex 42.4557 40 23.5315
      vertex 42.4803 40 23.6867
    endloop
  endfacet
  facet normal 0 1 0
    outer loop
      vertex 60 40 32
      vertex 42.4215 40 23.3783
      vertex 42.4557 40 23.5315
    endloop
  endfacet
  facet normal 0 1 0
    outer loop
      vertex 60 40 32
      vertex 42.3776 40 23.2275
      vertex 42.4215 40 23.3783
    endloop
  endfacet
  facet normal 0 1 0
    outer loop
      vertex 60 40 32
      vertex 42.3244 40 23.0797
      vertex 42.3776 40 23.2275
    endloop
  endfacet
  facet normal 0 1 0
    outer loop
      vertex 60 40 32
      vertex 42.2621 40 22.9356
      vertex 42.3244 40 23.0797
    endloop
  endfacet
  facet normal 0 1 -0
    outer loop
      vertex 60 40 0
      vertex 42.2621 40 22.9356
      vertex 60 40 32
    endloop
  endfacet
  facet normal 0 1 0
    outer loop
      vertex 42.2621 40 22.9356
      vertex 60 40 0
      vertex 42.1908 40 22.7956
    endloop
  endfacet
  facet normal 0 1 0
    outer loop
      vertex 42.1908 40 22.7956
      vertex 60 40 0
      vertex 42.1108 40 22.6604
    endloop
  endfacet
  facet normal 0 1 0
    outer loop
      vertex 42.1108 40 22.6604
      vertex 60 40 0
      vertex 42.0225 40 22.5305
    endloop
  endfacet
  facet normal 0 1 0
    outer loop
      vertex 42.0225 40 22.5305
      vertex 60 40 0
      vertex 41.9263 40 22.4064
    endloop
  endfacet
  facet normal 0 1 0
    outer loop
      vertex 41.9263 40 22.4064
      vertex 60 40 0
      vertex 41.8224 40 22.2886
    endloop
  endfacet
  facet normal 0 1 0
    outer loop
      vertex 41.8224 40 22.2886
      vertex 60 40 0
      vertex 41.7114 40 22.1776
    endloop
  endfacet
  facet normal 0 1 0
    outer loop
      vertex 41.7114 40 22.1776
      vertex 60 40 0
      vertex 41.5936 40 22.0737
    endloop
  endfacet
  facet normal 0 1 0
    outer loop
      vertex 41.5936 40 22.0737
      vertex 60 40 0
      vertex 41.4695 40 21.9775
    endloop
  endfacet
  facet normal -0 1 0
    outer loop
      vertex 38 40 18
      vertex 41.4695 40 21.9775
      vertex 60 40 0
    endloop
  endfacet
  facet normal 0 1 0
    outer loop
      vertex 40.157 40 21.5049
      vertex 38 40 18
      vertex 40 40 21.5
    endloop
  endfacet
  facet normal 0 1 0
    outer loop
      vertex 40.3133 40 21.5197
      vertex 38 40 18
      vertex 40.157 40 21.5049
    endloop
  endfacet
  facet normal 0 1 0
    outer loop
      vertex 40.4685 40 21.5443
      vertex 38 40 18
      vertex 40.3133 40 21.5197
    endloop
  endfacet
  facet normal 0 1 0
    outer loop
      vertex 40.6217 40 21.5785
      vertex 38 40 18
      vertex 40.4685 40 21.5443
    endloop
  endfacet
  facet normal 0 1 0
    outer loop
      vertex 40.7725 40 21.6224
      vertex 38 40 18
      vertex 40.6217 40 21.5785
    endloop
  endfacet
  facet normal 0 1 0
    outer loop
      vertex 40.9203 40 21.6756
      vertex 38 40 18
      vertex 40.7725 40 21.6224
    endloop
  endfacet
  facet normal 0 1 0
    outer loop
      vertex 41.0644 40 21.7379
      vertex 38 40 18
      vertex 40.9203 40 21.6756
    endloop
  endfacet
  facet normal 0 1 0
    outer loop
      vertex 41.2044 40 21.8092
      vertex 38 40 18
      vertex 41.0644 40 21.7379
    endloop
  endfacet
  facet normal 0 1 0
    outer loop
      vertex 41.4695 40 21.9775
      vertex 38 40 18
      vertex 41.3396 40 21.8892
    endloop
  endfacet
  facet normal 0 1 0
    outer loop
      vertex 24 40 5
      vertex 30 40 18
      vertex 38 40 18
    endloop
  endfacet
  facet normal 0 1 0
    outer loop
      vertex 30 40 18
      vertex 24 40 5
      vertex 24 40 13
    endloop
  endfacet
  facet normal 0 1 0
    outer loop
      vertex 41.3396 40 21.8892
      vertex 38 40 18
      vertex 41.2044 40 21.8092
    endloop
  endfacet
  facet normal 0 1 0
    outer loop
      vertex 0 40 0
      vertex 24 40 5
      vertex 60 40 0
    endloop
  endfacet
  facet normal 0 1 0
    outer loop
      vertex 38 40 18
      vertex 60 40 0
      vertex 24 40 5
    endloop
  endfacet
  facet normal 0 1 0
    outer loop
      vertex 39.6867 40 26.4803
      vertex 60 40 32
      vertex 39.843 40 26.4951
    endloop
  endfacet
  facet normal 0 1 0
    outer loop
      vertex 60 40 32
      vertex 39.6867 40 26.4803
      vertex 0 40 32
    endloop
  endfacet
  facet normal 0 1 -0
    outer loop
      vertex 39.5315 40 26.4557
      vertex 0 40 32
      vertex 39.6867 40 26.4803
    endloop
  endfacet
  facet normal 0 1 -0
    outer loop
      vertex 39.3783 40 26.4215
      vertex 0 40 32
      vertex 39.5315 40 26.4557
    endloop
  endfacet
  facet normal 0 1 -0
    outer loop
      vertex 39.2275 40 26.3776
      vertex 0 40 32
      vertex 39.3783 40 26.4215
    endloop
  endfacet
  facet normal 0 1 -0
    outer loop
      vertex 39.0797 40 26.3244
      vertex 0 40 32
      vertex 39.2275 40 26.3776
    endloop
  endfacet
  facet normal 0 1 -0
    outer loop
      vertex 38.9356 40 26.2621
      vertex 0 40 32
      vertex 39.0797 40 26.3244
    endloop
  endfacet
  facet normal 0 1 -0
    outer loop
      vertex 38.7956 40 26.1908
      vertex 0 40 32
      vertex 38.9356 40 26.2621
    endloop
  endfacet
  facet normal 0 1 0
    outer loop
      vertex 30 40 23
      vertex 38.7956 40 26.1908
      vertex 38.6604 40 26.1108
    endloop
  endfacet
  facet normal 0 1 0
    outer loop
      vertex 30 40 23
      vertex 38.6604 40 26.1108
      vertex 38.5305 40 26.0225
    endloop
  endfacet
  facet normal 0 1 0
    outer loop
      vertex 30 40 23
      vertex 38.5305 40 26.0225
      vertex 38.4064 40 25.9263
    endloop
  endfacet
  facet normal 0 1 0
    outer loop
      vertex 30 40 23
      vertex 38.4064 40 25.9263
      vertex 38.2886 40 25.8224
    endloop
  endfacet
  facet normal 0 1 0
    outer loop
      vertex 30 40 23
      vertex 38.2886 40 25.8224
      vertex 38.1776 40 25.7114
    endloop
  endfacet
  facet normal 0 1 0
    outer loop
      vertex 30 40 23
      vertex 38.1776 40 25.7114
      vertex 38.0737 40 25.5936
    endloop
  endfacet
  facet normal 0 1 0
    outer loop
      vertex 30 40 23
      vertex 38.0737 40 25.5936
      vertex 37.9775 40 25.4695
    endloop
  endfacet
  facet normal 0 1 0
    outer loop
      vertex 30 40 23
      vertex 37.9775 40 25.4695
      vertex 37.8892 40 25.3396
    endloop
  endfacet
  facet normal 0 1 0
    outer loop
      vertex 30 40 23
      vertex 37.8892 40 25.3396
      vertex 37.8092 40 25.2044
    endloop
  endfacet
  facet normal 0 1 0
    outer loop
      vertex 30 40 23
      vertex 37.8092 40 25.2044
      vertex 37.7379 40 25.0644
    endloop
  endfacet
  facet normal 0 1 0
    outer loop
      vertex 30 40 23
      vertex 37.7379 40 25.0644
      vertex 37.6756 40 24.9203
    endloop
  endfacet
  facet normal 0 1 0
    outer loop
      vertex 30 40 23
      vertex 37.6756 40 24.9203
      vertex 37.6224 40 24.7725
    endloop
  endfacet
  facet normal 0 1 0
    outer loop
      vertex 30 40 23
      vertex 37.6224 40 24.7725
      vertex 37.5785 40 24.6217
    endloop
  endfacet
  facet normal 0 1 0
    outer loop
      vertex 30 40 23
      vertex 37.5785 40 24.6217
      vertex 37.5443 40 24.4685
    endloop
  endfacet
  facet normal 0 1 0
    outer loop
      vertex 30 40 23
      vertex 37.5443 40 24.4685
      vertex 37.5197 40 24.3133
    endloop
  endfacet
  facet normal 0 1 0
    outer loop
      vertex 30 40 23
      vertex 37.5197 40 24.3133
      vertex 37.5049 40 24.157
    endloop
  endfacet
  facet normal 0 1 0
    outer loop
      vertex 30 40 23
      vertex 37.5049 40 24.157
      vertex 37.5 40 24
    endloop
  endfacet
  facet normal 0 1 0
    outer loop
      vertex 30 40 23
      vertex 37.5 40 24
      vertex 37.5049 40 23.843
    endloop
  endfacet
  facet normal 0 1 0
    outer loop
      vertex 30 40 23
      vertex 37.5049 40 23.843
      vertex 37.5197 40 23.6867
    endloop
  endfacet
  facet normal 0 1 0
    outer loop
      vertex 30 40 23
      vertex 37.5197 40 23.6867
      vertex 37.5443 40 23.5315
    endloop
  endfacet
  facet normal 0 1 0
    outer loop
      vertex 30 40 23
      vertex 37.5443 40 23.5315
      vertex 37.5785 40 23.3783
    endloop
  endfacet
  facet normal 0 1 0
    outer loop
      vertex 30 40 23
      vertex 37.5785 40 23.3783
      vertex 37.6224 40 23.2275
    endloop
  endfacet
  facet normal 0 1 0
    outer loop
      vertex 30 40 23
      vertex 37.6224 40 23.2275
      vertex 37.6756 40 23.0797
    endloop
  endfacet
  facet normal 0 1 0
    outer loop
      vertex 30 40 23
      vertex 37.6756 40 23.0797
      vertex 37.71 40 23
    endloop
  endfacet
  facet normal 0 1 0
    outer loop
      vertex 38.7956 40 26.1908
      vertex 30 40 23
      vertex 0 40 32
    endloop
  endfacet
  facet normal 0 1 0
    outer loop
      vertex 24 40 13
      vertex 30 40 23
      vertex 30 40 18
    endloop
  endfacet
  facet normal 0 1 0
    outer loop
      vertex 30 40 23
      vertex 24 40 13
      vertex 10 40 13
    endloop
  endfacet
  facet normal 0 1 0
    outer loop
      vertex 30 40 23
      vertex 10 40 13
      vertex 0 40 32
    endloop
  endfacet
  facet normal 0 1 0
    outer loop
      vertex 0 40 0
      vertex 10 40 13
      vertex 10 40 5
    endloop
  endfacet
  facet normal 0 1 0
    outer loop
      vertex 10 40 13
      vertex 0 40 0
      vertex 0 40 32
    endloop
  endfacet
  facet normal 0 1 0
    outer loop
      vertex 24 40 5
      vertex 0 40 0
      vertex 10 40 5
    endloop
  endfacet
  facet normal 0 1 0
    outer loop
      vertex 38.0737 40 22.4064
      vertex 38 40 18
      vertex 38 40 22.5015
    endloop
  endfacet
  facet normal 0 1 0
    outer loop
      vertex 38.1776 40 22.2886
      vertex 38 40 18
      vertex 38.0737 40 22.4064
    endloop
  endfacet
  facet normal 0 1 0
    outer loop
      vertex 38.2886 40 22.1776
      vertex 38 40 18
      vertex 38.1776 40 22.2886
    endloop
  endfacet
  facet normal 0 1 0
    outer loop
      vertex 38.4064 40 22.0737
      vertex 38 40 18
      vertex 38.2886 40 22.1776
    endloop
  endfacet
  facet normal 0 1 0
    outer loop
      vertex 38.5305 40 21.9775
      vertex 38 40 18
      vertex 38.4064 40 22.0737
    endloop
  endfacet
  facet normal 0 1 0
    outer loop
      vertex 38.6604 40 21.8892
      vertex 38 40 18
      vertex 38.5305 40 21.9775
    endloop
  endfacet
  facet normal 0 1 0
    outer loop
      vertex 38.7956 40 21.8092
      vertex 38 40 18
      vertex 38.6604 40 21.8892
    endloop
  endfacet
  facet normal 0 1 0
    outer loop
      vertex 38.9356 40 21.7379
      vertex 38 40 18
      vertex 38.7956 40 21.8092
    endloop
  endfacet
  facet normal 0 1 0
    outer loop
      vertex 39.0797 40 21.6756
      vertex 38 40 18
      vertex 38.9356 40 21.7379
    endloop
  endfacet
  facet normal 0 1 0
    outer loop
      vertex 39.2275 40 21.6224
      vertex 38 40 18
      vertex 39.0797 40 21.6756
    endloop
  endfacet
  facet normal 0 1 0
    outer loop
      vertex 39.3783 40 21.5785
      vertex 38 40 18
      vertex 39.2275 40 21.6224
    endloop
  endfacet
  facet normal 0 1 0
    outer loop
      vertex 39.5315 40 21.5443
      vertex 38 40 18
      vertex 39.3783 40 21.5785
    endloop
  endfacet
  facet normal 0 1 0
    outer loop
      vertex 39.6867 40 21.5197
      vertex 38 40 18
      vertex 39.5315 40 21.5443
    endloop
  endfacet
  facet normal 0 1 0
    outer loop
      vertex 39.843 40 21.5049
      vertex 38 40 18
      vertex 39.6867 40 21.5197
    endloop
  endfacet
  facet normal 0 1 0
    outer loop
      vertex 38 40 18
      vertex 39.843 40 21.5049
      vertex 40 40 21.5
    endloop
  endfacet
  facet normal 0 -1 0
    outer loop
      vertex 0 0 0
      vertex 60 0 2
      vertex 0 0 2
    endloop
  endfacet
  facet normal 0 -1 -0
    outer loop
      vertex 60 0 2
      vertex 0 0 0
      vertex 60 0 0
    endloop
  endfacet
  facet normal -0 0 1
    outer loop
      vertex 0 40 32
      vertex 60 37 32
      vertex 60 40 32
    endloop
  endfacet
  facet normal 0 0 1
    outer loop
      vertex 60 37 32
      vertex 0 40 32
      vertex 0 37 32
    endloop
  endfacet
  facet normal 0 -1 -0
    outer loop
      vertex 39.843 37 21.5049
      vertex 38 37 18
      vertex 40 37 21.5
    endloop
  endfacet
  facet normal 0 -1 -0
    outer loop
      vertex 39.6867 37 21.5197
      vertex 38 37 18
      vertex 39.843 37 21.5049
    endloop
  endfacet
  facet normal 0 -1 -0
    outer loop
      vertex 39.5315 37 21.5443
      vertex 38 37 18
      vertex 39.6867 37 21.5197
    endloop
  endfacet
  facet normal 0 -1 -0
    outer loop
      vertex 39.3783 37 21.5785
      vertex 38 37 18
      vertex 39.5315 37 21.5443
    endloop
  endfacet
  facet normal 0 -1 -0
    outer loop
      vertex 39.2275 37 21.6224
      vertex 38 37 18
      vertex 39.3783 37 21.5785
    endloop
  endfacet
  facet normal 0 -1 -0
    outer loop
      vertex 39.0797 37 21.6756
      vertex 38 37 18
      vertex 39.2275 37 21.6224
    endloop
  endfacet
  facet normal 0 -1 -0
    outer loop
      vertex 38.9356 37 21.7379
      vertex 38 37 18
      vertex 39.0797 37 21.6756
    endloop
  endfacet
  facet normal 0 -1 -0
    outer loop
      vertex 38.7956 37 21.8092
      vertex 38 37 18
      vertex 38.9356 37 21.7379
    endloop
  endfacet
  facet normal 0 -1 -0
    outer loop
      vertex 38.6604 37 21.8892
      vertex 38 37 18
      vertex 38.7956 37 21.8092
    endloop
  endfacet
  facet normal 0 -1 -0
    outer loop
      vertex 38.5305 37 21.9775
      vertex 38 37 18
      vertex 38.6604 37 21.8892
    endloop
  endfacet
  facet normal 0 -1 -0
    outer loop
      vertex 38.4064 37 22.0737
      vertex 38 37 18
      vertex 38.5305 37 21.9775
    endloop
  endfacet
  facet normal 0 -1 -0
    outer loop
      vertex 38.2886 37 22.1776
      vertex 38 37 18
      vertex 38.4064 37 22.0737
    endloop
  endfacet
  facet normal 0 -1 -0
    outer loop
      vertex 38.1776 37 22.2886
      vertex 38 37 18
      vertex 38.2886 37 22.1776
    endloop
  endfacet
  facet normal 0 -1 -0
    outer loop
      vertex 38.0737 37 22.4064
      vertex 38 37 18
      vertex 38.1776 37 22.2886
    endloop
  endfacet
  facet normal 0 -1 0
    outer loop
      vertex 38 37 18
      vertex 38.0737 37 22.4064
      vertex 38 37 22.5015
    endloop
  endfacet
  facet normal 0 -1 0
    outer loop
      vertex 39.6867 37 26.4803
      vertex 60 37 32
      vertex 0 37 32
    endloop
  endfacet
  facet normal 0 -1 0
    outer loop
      vertex 60 37 32
      vertex 39.843 37 26.4951
      vertex 40 37 26.5
    endloop
  endfacet
  facet normal 0 -1 0
    outer loop
      vertex 60 37 32
      vertex 39.6867 37 26.4803
      vertex 39.843 37 26.4951
    endloop
  endfacet
  facet normal 0 -1 0
    outer loop
      vertex 0 37 32
      vertex 39.5315 37 26.4557
      vertex 39.6867 37 26.4803
    endloop
  endfacet
  facet normal 0 -1 0
    outer loop
      vertex 0 37 32
      vertex 39.3783 37 26.4215
      vertex 39.5315 37 26.4557
    endloop
  endfacet
  facet normal 0 -1 0
    outer loop
      vertex 0 37 32
      vertex 39.2275 37 26.3776
      vertex 39.3783 37 26.4215
    endloop
  endfacet
  facet normal 0 -1 0
    outer loop
      vertex 0 37 32
      vertex 39.0797 37 26.3244
      vertex 39.2275 37 26.3776
    endloop
  endfacet
  facet normal 0 -1 0
    outer loop
      vertex 0 37 32
      vertex 38.9356 37 26.2621
      vertex 39.0797 37 26.3244
    endloop
  endfacet
  facet normal 0 -1 0
    outer loop
      vertex 0 37 32
      vertex 38.7956 37 26.1908
      vertex 38.9356 37 26.2621
    endloop
  endfacet
  facet normal 0 -1 0
    outer loop
      vertex 30 37 23
      vertex 38.7956 37 26.1908
      vertex 0 37 32
    endloop
  endfacet
  facet normal 0 -1 0
    outer loop
      vertex 38.7956 37 26.1908
      vertex 30 37 23
      vertex 38.6604 37 26.1108
    endloop
  endfacet
  facet normal 0 -1 0
    outer loop
      vertex 38.6604 37 26.1108
      vertex 30 37 23
      vertex 38.5305 37 26.0225
    endloop
  endfacet
  facet normal 0 -1 0
    outer loop
      vertex 38.5305 37 26.0225
      vertex 30 37 23
      vertex 38.4064 37 25.9263
    endloop
  endfacet
  facet normal 0 -1 0
    outer loop
      vertex 38.4064 37 25.9263
      vertex 30 37 23
      vertex 38.2886 37 25.8224
    endloop
  endfacet
  facet normal 0 -1 0
    outer loop
      vertex 38.2886 37 25.8224
      vertex 30 37 23
      vertex 38.1776 37 25.7114
    endloop
  endfacet
  facet normal 0 -1 0
    outer loop
      vertex 38.1776 37 25.7114
      vertex 30 37 23
      vertex 38.0737 37 25.5936
    endloop
  endfacet
  facet normal 0 -1 0
    outer loop
      vertex 38.0737 37 25.5936
      vertex 30 37 23
      vertex 37.9775 37 25.4695
    endloop
  endfacet
  facet normal 0 -1 0
    outer loop
      vertex 37.9775 37 25.4695
      vertex 30 37 23
      vertex 37.8892 37 25.3396
    endloop
  endfacet
  facet normal 0 -1 0
    outer loop
      vertex 37.8892 37 25.3396
      vertex 30 37 23
      vertex 37.8092 37 25.2044
    endloop
  endfacet
  facet normal 0 -1 0
    outer loop
      vertex 37.8092 37 25.2044
      vertex 30 37 23
      vertex 37.7379 37 25.0644
    endloop
  endfacet
  facet normal 0 -1 0
    outer loop
      vertex 37.7379 37 25.0644
      vertex 30 37 23
      vertex 37.6756 37 24.9203
    endloop
  endfacet
  facet normal 0 -1 0
    outer loop
      vertex 37.6756 37 24.9203
      vertex 30 37 23
      vertex 37.6224 37 24.7725
    endloop
  endfacet
  facet normal 0 -1 0
    outer loop
      vertex 37.6224 37 24.7725
      vertex 30 37 23
      vertex 37.5785 37 24.6217
    endloop
  endfacet
  facet normal 0 -1 0
    outer loop
      vertex 37.5785 37 24.6217
      vertex 30 37 23
      vertex 37.5443 37 24.4685
    endloop
  endfacet
  facet normal 0 -1 0
    outer loop
      vertex 37.5443 37 24.4685
      vertex 30 37 23
      vertex 37.5197 37 24.3133
    endloop
  endfacet
  facet normal 0 -1 0
    outer loop
      vertex 37.5197 37 24.3133
      vertex 30 37 23
      vertex 37.5049 37 24.157
    endloop
  endfacet
  facet normal 0 -1 0
    outer loop
      vertex 37.5049 37 24.157
      vertex 30 37 23
      vertex 37.5 37 24
    endloop
  endfacet
  facet normal 0 -1 -0
    outer loop
      vertex 37.5 37 24
      vertex 30 37 23
      vertex 37.5049 37 23.843
    endloop
  endfacet
  facet normal 0 -1 -0
    outer loop
      vertex 37.5049 37 23.843
      vertex 30 37 23
      vertex 37.5197 37 23.6867
    endloop
  endfacet
  facet normal 0 -1 -0
    outer loop
      vertex 37.5197 37 23.6867
      vertex 30 37 23
      vertex 37.5443 37 23.5315
    endloop
  endfacet
  facet normal 0 -1 -0
    outer loop
      vertex 37.5443 37 23.5315
      vertex 30 37 23
      vertex 37.5785 37 23.3783
    endloop
  endfacet
  facet normal 0 -1 -0
    outer loop
      vertex 37.5785 37 23.3783
      vertex 30 37 23
      vertex 37.6224 37 23.2275
    endloop
  endfacet
  facet normal 0 -1 -0
    outer loop
      vertex 37.6224 37 23.2275
      vertex 30 37 23
      vertex 37.6756 37 23.0797
    endloop
  endfacet
  facet normal 0 -1 0
    outer loop
      vertex 10 37 13
      vertex 30 37 23
      vertex 0 37 32
    endloop
  endfacet
  facet normal 0 -1 -0
    outer loop
      vertex 30 37 23
      vertex 24 37 13
      vertex 30 37 18
    endloop
  endfacet
  facet normal 0 -1 0
    outer loop
      vertex 24 37 13
      vertex 30 37 23
      vertex 10 37 13
    endloop
  endfacet
  facet normal 0 -1 0
    outer loop
      vertex 0 37 2
      vertex 10 37 13
      vertex 0 37 32
    endloop
  endfacet
  facet normal 0 -1 -0
    outer loop
      vertex 10 37 5
      vertex 0 37 2
      vertex 24 37 5
    endloop
  endfacet
  facet normal 0 -1 -0
    outer loop
      vertex 10 37 13
      vertex 0 37 2
      vertex 10 37 5
    endloop
  endfacet
  facet normal 0 -1 0
    outer loop
      vertex 40.157 37 26.4951
      vertex 60 37 32
      vertex 40 37 26.5
    endloop
  endfacet
  facet normal 0 -1 0
    outer loop
      vertex 40.3133 37 26.4803
      vertex 60 37 32
      vertex 40.157 37 26.4951
    endloop
  endfacet
  facet normal 0 -1 0
    outer loop
      vertex 40.4685 37 26.4557
      vertex 60 37 32
      vertex 40.3133 37 26.4803
    endloop
  endfacet
  facet normal 0 -1 0
    outer loop
      vertex 40.6217 37 26.4215
      vertex 60 37 32
      vertex 40.4685 37 26.4557
    endloop
  endfacet
  facet normal 0 -1 0
    outer loop
      vertex 40.7725 37 26.3776
      vertex 60 37 32
      vertex 40.6217 37 26.4215
    endloop
  endfacet
  facet normal 0 -1 0
    outer loop
      vertex 40.9203 37 26.3244
      vertex 60 37 32
      vertex 40.7725 37 26.3776
    endloop
  endfacet
  facet normal 0 -1 0
    outer loop
      vertex 41.0644 37 26.2621
      vertex 60 37 32
      vertex 40.9203 37 26.3244
    endloop
  endfacet
  facet normal 0 -1 0
    outer loop
      vertex 41.2044 37 26.1908
      vertex 60 37 32
      vertex 41.0644 37 26.2621
    endloop
  endfacet
  facet normal 0 -1 0
    outer loop
      vertex 41.3396 37 26.1108
      vertex 60 37 32
      vertex 41.2044 37 26.1908
    endloop
  endfacet
  facet normal 0 -1 0
    outer loop
      vertex 41.4695 37 26.0225
      vertex 60 37 32
      vertex 41.3396 37 26.1108
    endloop
  endfacet
  facet normal 0 -1 0
    outer loop
      vertex 41.5936 37 25.9263
      vertex 60 37 32
      vertex 41.4695 37 26.0225
    endloop
  endfacet
  facet normal 0 -1 0
    outer loop
      vertex 41.7114 37 25.8224
      vertex 60 37 32
      vertex 41.5936 37 25.9263
    endloop
  endfacet
  facet normal 0 -1 0
    outer loop
      vertex 41.8224 37 25.7114
      vertex 60 37 32
      vertex 41.7114 37 25.8224
    endloop
  endfacet
  facet normal 0 -1 0
    outer loop
      vertex 41.9263 37 25.5936
      vertex 60 37 32
      vertex 41.8224 37 25.7114
    endloop
  endfacet
  facet normal 0 -1 0
    outer loop
      vertex 42.0225 37 25.4695
      vertex 60 37 32
      vertex 41.9263 37 25.5936
    endloop
  endfacet
  facet normal 0 -1 0
    outer loop
      vertex 42.1108 37 25.3396
      vertex 60 37 32
      vertex 42.0225 37 25.4695
    endloop
  endfacet
  facet normal 0 -1 0
    outer loop
      vertex 42.1908 37 25.2044
      vertex 60 37 32
      vertex 42.1108 37 25.3396
    endloop
  endfacet
  facet normal 0 -1 0
    outer loop
      vertex 42.2621 37 25.0644
      vertex 60 37 32
      vertex 42.1908 37 25.2044
    endloop
  endfacet
  facet normal 0 -1 0
    outer loop
      vertex 42.3244 37 24.9203
      vertex 60 37 32
      vertex 42.2621 37 25.0644
    endloop
  endfacet
  facet normal 0 -1 0
    outer loop
      vertex 42.3776 37 24.7725
      vertex 60 37 32
      vertex 42.3244 37 24.9203
    endloop
  endfacet
  facet normal 0 -1 0
    outer loop
      vertex 42.4215 37 24.6217
      vertex 60 37 32
      vertex 42.3776 37 24.7725
    endloop
  endfacet
  facet normal 0 -1 0
    outer loop
      vertex 42.4557 37 24.4685
      vertex 60 37 32
      vertex 42.4215 37 24.6217
    endloop
  endfacet
  facet normal 0 -1 0
    outer loop
      vertex 42.4803 37 24.3133
      vertex 60 37 32
      vertex 42.4557 37 24.4685
    endloop
  endfacet
  facet normal 0 -1 0
    outer loop
      vertex 42.4951 37 24.157
      vertex 60 37 32
      vertex 42.4803 37 24.3133
    endloop
  endfacet
  facet normal 0 -1 0
    outer loop
      vertex 42.5 37 24
      vertex 60 37 32
      vertex 42.4951 37 24.157
    endloop
  endfacet
  facet normal 0 -1 0
    outer loop
      vertex 42.4951 37 23.843
      vertex 60 37 32
      vertex 42.5 37 24
    endloop
  endfacet
  facet normal 0 -1 0
    outer loop
      vertex 42.4803 37 23.6867
      vertex 60 37 32
      vertex 42.4951 37 23.843
    endloop
  endfacet
  facet normal 0 -1 0
    outer loop
      vertex 42.4557 37 23.5315
      vertex 60 37 32
      vertex 42.4803 37 23.6867
    endloop
  endfacet
  facet normal 0 -1 0
    outer loop
      vertex 42.4215 37 23.3783
      vertex 60 37 32
      vertex 42.4557 37 23.5315
    endloop
  endfacet
  facet normal 0 -1 0
    outer loop
      vertex 42.3776 37 23.2275
      vertex 60 37 32
      vertex 42.4215 37 23.3783
    endloop
  endfacet
  facet normal 0 -1 0
    outer loop
      vertex 42.3244 37 23.0797
      vertex 60 37 32
      vertex 42.3776 37 23.2275
    endloop
  endfacet
  facet normal 0 -1 0
    outer loop
      vertex 42.2621 37 22.9356
      vertex 60 37 32
      vertex 42.3244 37 23.0797
    endloop
  endfacet
  facet normal 0 -1 0
    outer loop
      vertex 60 37 2
      vertex 42.2621 37 22.9356
      vertex 42.1908 37 22.7956
    endloop
  endfacet
  facet normal 0 -1 0
    outer loop
      vertex 60 37 2
      vertex 42.1908 37 22.7956
      vertex 42.1108 37 22.6604
    endloop
  endfacet
  facet normal 0 -1 0
    outer loop
      vertex 60 37 2
      vertex 42.1108 37 22.6604
      vertex 42.0225 37 22.5305
    endloop
  endfacet
  facet normal 0 -1 0
    outer loop
      vertex 60 37 2
      vertex 42.0225 37 22.5305
      vertex 41.9263 37 22.4064
    endloop
  endfacet
  facet normal 0 -1 0
    outer loop
      vertex 60 37 2
      vertex 41.9263 37 22.4064
      vertex 41.8224 37 22.2886
    endloop
  endfacet
  facet normal 0 -1 0
    outer loop
      vertex 60 37 2
      vertex 41.8224 37 22.2886
      vertex 41.7114 37 22.1776
    endloop
  endfacet
  facet normal 0 -1 0
    outer loop
      vertex 60 37 2
      vertex 41.7114 37 22.1776
      vertex 41.5936 37 22.0737
    endloop
  endfacet
  facet normal 0 -1 0
    outer loop
      vertex 60 37 2
      vertex 41.5936 37 22.0737
      vertex 41.4695 37 21.9775
    endloop
  endfacet
  facet normal 0 -1 0
    outer loop
      vertex 38 37 18
      vertex 41.4695 37 21.9775
      vertex 41.3396 37 21.8892
    endloop
  endfacet
  facet normal 0 -1 0
    outer loop
      vertex 38 37 18
      vertex 41.3396 37 21.8892
      vertex 41.2044 37 21.8092
    endloop
  endfacet
  facet normal 0 -1 0
    outer loop
      vertex 38 37 18
      vertex 40.157 37 21.5049
      vertex 40 37 21.5
    endloop
  endfacet
  facet normal 0 -1 0
    outer loop
      vertex 38 37 18
      vertex 40.3133 37 21.5197
      vertex 40.157 37 21.5049
    endloop
  endfacet
  facet normal 0 -1 0
    outer loop
      vertex 38 37 18
      vertex 40.4685 37 21.5443
      vertex 40.3133 37 21.5197
    endloop
  endfacet
  facet normal 0 -1 0
    outer loop
      vertex 38 37 18
      vertex 40.6217 37 21.5785
      vertex 40.4685 37 21.5443
    endloop
  endfacet
  facet normal 0 -1 0
    outer loop
      vertex 38 37 18
      vertex 40.7725 37 21.6224
      vertex 40.6217 37 21.5785
    endloop
  endfacet
  facet normal 0 -1 0
    outer loop
      vertex 38 37 18
      vertex 40.9203 37 21.6756
      vertex 40.7725 37 21.6224
    endloop
  endfacet
  facet normal 0 -1 0
    outer loop
      vertex 38 37 18
      vertex 41.0644 37 21.7379
      vertex 40.9203 37 21.6756
    endloop
  endfacet
  facet normal 0 -1 0
    outer loop
      vertex 38 37 18
      vertex 41.2044 37 21.8092
      vertex 41.0644 37 21.7379
    endloop
  endfacet
  facet normal 0 -1 -0
    outer loop
      vertex 41.4695 37 21.9775
      vertex 38 37 18
      vertex 60 37 2
    endloop
  endfacet
  facet normal 0 -1 0
    outer loop
      vertex 24 37 5
      vertex 30 37 18
      vertex 24 37 13
    endloop
  endfacet
  facet normal 0 -1 -0
    outer loop
      vertex 30 37 18
      vertex 24 37 5
      vertex 38 37 18
    endloop
  endfacet
  facet normal 0 -1 0
    outer loop
      vertex 60 37 2
      vertex 38 37 18
      vertex 24 37 5
    endloop
  endfacet
  facet normal 0 -1 0
    outer loop
      vertex 42.2621 37 22.9356
      vertex 60 37 2
      vertex 60 37 32
    endloop
  endfacet
  facet normal 0 -1 0
    outer loop
      vertex 60 37 2
      vertex 24 37 5
      vertex 0 37 2
    endloop
  endfacet
  facet normal 0 -1 -0
    outer loop
      vertex 37.6756 37 23.0797
      vertex 30 37 23
      vertex 37.71 37 23
    endloop
  endfacet
  facet normal -1 0 0
    outer loop
      vertex 38 8 0
      vertex 38 20 2
      vertex 38 20 0
    endloop
  endfacet
  facet normal -1 -0 0
    outer loop
      vertex 38 20 2
      vertex 38 8 0
      vertex 38 8 2
    endloop
  endfacet
  facet normal 1 -0 0
    outer loop
      vertex 18 8 2
      vertex 18 20 0
      vertex 18 20 2
    endloop
  endfacet
  facet normal 1 0 0
    outer loop
      vertex 18 20 0
      vertex 18 8 2
      vertex 18 8 0
    endloop
  endfacet
  facet normal 0 -1 0
    outer loop
      vertex 18 20 0
      vertex 38 20 2
      vertex 18 20 2
    endloop
  endfacet
  facet normal 0 -1 -0
    outer loop
      vertex 38 20 2
      vertex 18 20 0
      vertex 38 20 0
    endloop
  endfacet
  facet normal 0 1 -0
    outer loop
      vertex 38 8 0
      vertex 18 8 2
      vertex 38 8 2
    endloop
  endfacet
  facet normal 0 1 0
    outer loop
      vertex 18 8 2
      vertex 38 8 0
      vertex 18 8 0
    endloop
  endfacet
  facet normal -1 0 0
    outer loop
      vertex 24 37 5
      vertex 24 40 13
      vertex 24 40 5
    endloop
  endfacet
  facet normal -1 -0 0
    outer loop
      vertex 24 40 13
      vertex 24 37 5
      vertex 24 37 13
    endloop
  endfacet
  facet normal 0 0 -1
    outer loop
      vertex 10 37 13
      vertex 24 40 13
      vertex 24 37 13
    endloop
  endfacet
  facet normal -0 0 -1
    outer loop
      vertex 24 40 13
      vertex 10 37 13
      vertex 10 40 13
    endloop
  endfacet
  facet normal -0 0 1
    outer loop
      vertex 10 40 5
      vertex 24 37 5
      vertex 24 40 5
    endloop
  endfacet
  facet normal 0 0 1
    outer loop
      vertex 24 37 5
      vertex 10 40 5
      vertex 10 37 5
    endloop
  endfacet
  facet normal 1 -0 0
    outer loop
      vertex 10 37 13
      vertex 10 40 5
      vertex 10 40 13
    endloop
  endfacet
  facet normal 1 0 0
    outer loop
      vertex 10 40 5
      vertex 10 37 13
      vertex 10 37 5
    endloop
  endfacet
  facet normal -1 0 0
    outer loop
      vertex 38 37 18
      vertex 38 40 22.5015
      vertex 38 40 18
    endloop
  endfacet
  facet normal -1 -0 0
    outer loop
      vertex 38 40 22.5015
      vertex 38 37 18
      vertex 38 37 22.5015
    endloop
  endfacet
  facet normal 0 0 -1
    outer loop
      vertex 30 37 23
      vertex 37.71 40 23
      vertex 37.71 37 23
    endloop
  endfacet
  facet normal -0 0 -1
    outer loop
      vertex 37.71 40 23
      vertex 30 37 23
      vertex 30 40 23
    endloop
  endfacet
  facet normal -0 0 1
    outer loop
      vertex 30 40 18
      vertex 38 37 18
      vertex 38 40 18
    endloop
  endfacet
  facet normal 0 0 1
    outer loop
      vertex 38 37 18
      vertex 30 40 18
      vertex 30 37 18
    endloop
  endfacet
  facet normal 1 -0 0
    outer loop
      vertex 30 37 23
      vertex 30 40 18
      vertex 30 40 23
    endloop
  endfacet
  facet normal 1 0 0
    outer loop
      vertex 30 40 18
      vertex 30 37 23
      vertex 30 37 18
    endloop
  endfacet
  facet normal -0.995547 0 0.094268
    outer loop
      vertex 42.4803 37 23.6867
      vertex 42.4951 40 23.843
      vertex 42.4803 40 23.6867
    endloop
  endfacet
  facet normal -0.995547 0 0.094268
    outer loop
      vertex 42.4951 40 23.843
      vertex 42.4803 37 23.6867
      vertex 42.4951 37 23.843
    endloop
  endfacet
  facet normal -0.999513 0 0.031195
    outer loop
      vertex 42.4951 37 23.843
      vertex 42.5 40 24
      vertex 42.4951 40 23.843
    endloop
  endfacet
  facet normal -0.999513 0 0.031195
    outer loop
      vertex 42.5 40 24
      vertex 42.4951 37 23.843
      vertex 42.5 37 24
    endloop
  endfacet
  facet normal -0.98767 0 0.156551
    outer loop
      vertex 42.4557 37 23.5315
      vertex 42.4803 40 23.6867
      vertex 42.4557 40 23.5315
    endloop
  endfacet
  facet normal -0.98767 0 0.156551
    outer loop
      vertex 42.4803 40 23.6867
      vertex 42.4557 37 23.5315
      vertex 42.4803 37 23.6867
    endloop
  endfacet
  facet normal -0.975977 0 0.217875
    outer loop
      vertex 42.4215 37 23.3783
      vertex 42.4557 40 23.5315
      vertex 42.4215 40 23.3783
    endloop
  endfacet
  facet normal -0.975977 0 0.217875
    outer loop
      vertex 42.4557 40 23.5315
      vertex 42.4215 37 23.3783
      vertex 42.4557 37 23.5315
    endloop
  endfacet
  facet normal -0.790346 0 0.612661
    outer loop
      vertex 41.9263 37 22.4064
      vertex 42.0225 40 22.5305
      vertex 41.9263 40 22.4064
    endloop
  endfacet
  facet normal -0.790346 0 0.612661
    outer loop
      vertex 42.0225 40 22.5305
      vertex 41.9263 37 22.4064
      vertex 42.0225 37 22.5305
    endloop
  endfacet
  facet normal -0.917888 0 0.396839
    outer loop
      vertex 42.2621 37 22.9356
      vertex 42.3244 40 23.0797
      vertex 42.2621 40 22.9356
    endloop
  endfacet
  facet normal -0.917888 0 0.396839
    outer loop
      vertex 42.3244 40 23.0797
      vertex 42.2621 37 22.9356
      vertex 42.3244 37 23.0797
    endloop
  endfacet
  facet normal 0.975977 -0 0.217875
    outer loop
      vertex 37.5443 37 23.5315
      vertex 37.5785 40 23.3783
      vertex 37.5443 40 23.5315
    endloop
  endfacet
  facet normal 0.975977 0 0.217875
    outer loop
      vertex 37.5785 40 23.3783
      vertex 37.5443 37 23.5315
      vertex 37.5785 37 23.3783
    endloop
  endfacet
  facet normal -0.509244 0 -0.860622
    outer loop
      vertex 41.2044 37 26.1908
      vertex 41.3396 40 26.1108
      vertex 41.3396 37 26.1108
    endloop
  endfacet
  facet normal -0.509244 0 -0.860622
    outer loop
      vertex 41.3396 40 26.1108
      vertex 41.2044 37 26.1908
      vertex 41.2044 40 26.1908
    endloop
  endfacet
  facet normal -0.707107 0 0.707107
    outer loop
      vertex 41.7114 37 22.1776
      vertex 41.8224 40 22.2886
      vertex 41.7114 40 22.1776
    endloop
  endfacet
  facet normal -0.707107 0 0.707107
    outer loop
      vertex 41.8224 40 22.2886
      vertex 41.7114 37 22.1776
      vertex 41.8224 37 22.2886
    endloop
  endfacet
  facet normal -0.661474 0 -0.749968
    outer loop
      vertex 41.5936 37 25.9263
      vertex 41.7114 40 25.8224
      vertex 41.7114 37 25.8224
    endloop
  endfacet
  facet normal -0.661474 0 -0.749968
    outer loop
      vertex 41.7114 40 25.8224
      vertex 41.5936 37 25.9263
      vertex 41.5936 40 25.9263
    endloop
  endfacet
  facet normal -0.396839 0 0.917888
    outer loop
      vertex 40.9203 40 21.6756
      vertex 41.0644 37 21.7379
      vertex 41.0644 40 21.7379
    endloop
  endfacet
  facet normal -0.396839 0 0.917888
    outer loop
      vertex 41.0644 37 21.7379
      vertex 40.9203 40 21.6756
      vertex 40.9203 37 21.6756
    endloop
  endfacet
  facet normal -0.338674 0 0.940904
    outer loop
      vertex 40.7725 40 21.6224
      vertex 40.9203 37 21.6756
      vertex 40.9203 40 21.6756
    endloop
  endfacet
  facet normal -0.338674 0 0.940904
    outer loop
      vertex 40.9203 37 21.6756
      vertex 40.7725 40 21.6224
      vertex 40.7725 37 21.6224
    endloop
  endfacet
  facet normal -0.940904 0 0.338674
    outer loop
      vertex 42.3244 37 23.0797
      vertex 42.3776 40 23.2275
      vertex 42.3244 40 23.0797
    endloop
  endfacet
  facet normal -0.940904 0 0.338674
    outer loop
      vertex 42.3776 40 23.2275
      vertex 42.3244 37 23.0797
      vertex 42.3776 37 23.2275
    endloop
  endfacet
  facet normal -0.749968 0 0.661474
    outer loop
      vertex 41.8224 37 22.2886
      vertex 41.9263 40 22.4064
      vertex 41.8224 40 22.2886
    endloop
  endfacet
  facet normal -0.749968 0 0.661474
    outer loop
      vertex 41.9263 40 22.4064
      vertex 41.8224 37 22.2886
      vertex 41.9263 37 22.4064
    endloop
  endfacet
  facet normal 0.396839 0 0.917888
    outer loop
      vertex 38.9356 40 21.7379
      vertex 39.0797 37 21.6756
      vertex 39.0797 40 21.6756
    endloop
  endfacet
  facet normal 0.396839 0 0.917888
    outer loop
      vertex 39.0797 37 21.6756
      vertex 38.9356 40 21.7379
      vertex 38.9356 37 21.7379
    endloop
  endfacet
  facet normal -0.156551 0 0.98767
    outer loop
      vertex 40.3133 40 21.5197
      vertex 40.4685 37 21.5443
      vertex 40.4685 40 21.5443
    endloop
  endfacet
  facet normal -0.156551 0 0.98767
    outer loop
      vertex 40.4685 37 21.5443
      vertex 40.3133 40 21.5197
      vertex 40.3133 37 21.5197
    endloop
  endfacet
  facet normal 0.453821 0 -0.891093
    outer loop
      vertex 38.7956 37 26.1908
      vertex 38.9356 40 26.2621
      vertex 38.9356 37 26.2621
    endloop
  endfacet
  facet normal 0.453821 0 -0.891093
    outer loop
      vertex 38.9356 40 26.2621
      vertex 38.7956 37 26.1908
      vertex 38.7956 40 26.1908
    endloop
  endfacet
  facet normal 0.338674 0 0.940904
    outer loop
      vertex 39.0797 40 21.6756
      vertex 39.2275 37 21.6224
      vertex 39.2275 40 21.6224
    endloop
  endfacet
  facet normal 0.338674 0 0.940904
    outer loop
      vertex 39.2275 37 21.6224
      vertex 39.0797 40 21.6756
      vertex 39.0797 37 21.6756
    endloop
  endfacet
  facet normal -0.960142 0 0.279511
    outer loop
      vertex 42.3776 37 23.2275
      vertex 42.4215 40 23.3783
      vertex 42.3776 40 23.2275
    endloop
  endfacet
  facet normal -0.960142 0 0.279511
    outer loop
      vertex 42.4215 40 23.3783
      vertex 42.3776 37 23.2275
      vertex 42.4215 37 23.3783
    endloop
  endfacet
  facet normal -0.960142 0 -0.279511
    outer loop
      vertex 42.4215 37 24.6217
      vertex 42.3776 40 24.7725
      vertex 42.4215 40 24.6217
    endloop
  endfacet
  facet normal -0.960142 -0 -0.279511
    outer loop
      vertex 42.3776 40 24.7725
      vertex 42.4215 37 24.6217
      vertex 42.3776 37 24.7725
    endloop
  endfacet
  facet normal -0.094268 0 -0.995547
    outer loop
      vertex 40.157 37 26.4951
      vertex 40.3133 40 26.4803
      vertex 40.3133 37 26.4803
    endloop
  endfacet
  facet normal -0.094268 0 -0.995547
    outer loop
      vertex 40.3133 40 26.4803
      vertex 40.157 37 26.4951
      vertex 40.157 40 26.4951
    endloop
  endfacet
  facet normal 0.661474 0 0.749968
    outer loop
      vertex 38.2886 40 22.1776
      vertex 38.4064 37 22.0737
      vertex 38.4064 40 22.0737
    endloop
  endfacet
  facet normal 0.661474 0 0.749968
    outer loop
      vertex 38.4064 37 22.0737
      vertex 38.2886 40 22.1776
      vertex 38.2886 37 22.1776
    endloop
  endfacet
  facet normal 0.562171 0 0.827021
    outer loop
      vertex 38.5305 40 21.9775
      vertex 38.6604 37 21.8892
      vertex 38.6604 40 21.8892
    endloop
  endfacet
  facet normal 0.562171 0 0.827021
    outer loop
      vertex 38.6604 37 21.8892
      vertex 38.5305 40 21.9775
      vertex 38.5305 37 21.9775
    endloop
  endfacet
  facet normal -0.999513 0 -0.031195
    outer loop
      vertex 42.5 37 24
      vertex 42.4951 40 24.157
      vertex 42.5 40 24
    endloop
  endfacet
  facet normal -0.999513 -0 -0.031195
    outer loop
      vertex 42.4951 40 24.157
      vertex 42.5 37 24
      vertex 42.4951 37 24.157
    endloop
  endfacet
  facet normal -0.562171 0 0.827021
    outer loop
      vertex 41.3396 40 21.8892
      vertex 41.4695 37 21.9775
      vertex 41.4695 40 21.9775
    endloop
  endfacet
  facet normal -0.562171 0 0.827021
    outer loop
      vertex 41.4695 37 21.9775
      vertex 41.3396 40 21.8892
      vertex 41.3396 37 21.8892
    endloop
  endfacet
  facet normal 0.960142 0 -0.279511
    outer loop
      vertex 37.6224 37 24.7725
      vertex 37.5785 40 24.6217
      vertex 37.6224 40 24.7725
    endloop
  endfacet
  facet normal 0.960142 0 -0.279511
    outer loop
      vertex 37.5785 40 24.6217
      vertex 37.6224 37 24.7725
      vertex 37.5785 37 24.6217
    endloop
  endfacet
  facet normal -0.031195 0 0.999513
    outer loop
      vertex 40 40 21.5
      vertex 40.157 37 21.5049
      vertex 40.157 40 21.5049
    endloop
  endfacet
  facet normal -0.031195 0 0.999513
    outer loop
      vertex 40.157 37 21.5049
      vertex 40 40 21.5
      vertex 40 37 21.5
    endloop
  endfacet
  facet normal -0.790346 0 -0.612661
    outer loop
      vertex 42.0225 37 25.4695
      vertex 41.9263 40 25.5936
      vertex 42.0225 40 25.4695
    endloop
  endfacet
  facet normal -0.790346 -0 -0.612661
    outer loop
      vertex 41.9263 40 25.5936
      vertex 42.0225 37 25.4695
      vertex 41.9263 37 25.5936
    endloop
  endfacet
  facet normal 0.509244 0 0.860622
    outer loop
      vertex 38.6604 40 21.8892
      vertex 38.7956 37 21.8092
      vertex 38.7956 40 21.8092
    endloop
  endfacet
  facet normal 0.509244 0 0.860622
    outer loop
      vertex 38.7956 37 21.8092
      vertex 38.6604 40 21.8892
      vertex 38.6604 37 21.8892
    endloop
  endfacet
  facet normal -0.917888 0 -0.396839
    outer loop
      vertex 42.3244 37 24.9203
      vertex 42.2621 40 25.0644
      vertex 42.3244 40 24.9203
    endloop
  endfacet
  facet normal -0.917888 -0 -0.396839
    outer loop
      vertex 42.2621 40 25.0644
      vertex 42.3244 37 24.9203
      vertex 42.2621 37 25.0644
    endloop
  endfacet
  facet normal 0.094268 0 0.995547
    outer loop
      vertex 39.6867 40 21.5197
      vertex 39.843 37 21.5049
      vertex 39.843 40 21.5049
    endloop
  endfacet
  facet normal 0.094268 0 0.995547
    outer loop
      vertex 39.843 37 21.5049
      vertex 39.6867 40 21.5197
      vertex 39.6867 37 21.5197
    endloop
  endfacet
  facet normal 0.790346 0 -0.612661
    outer loop
      vertex 38.0737 37 25.5936
      vertex 37.9775 40 25.4695
      vertex 38.0737 40 25.5936
    endloop
  endfacet
  facet normal 0.790346 0 -0.612661
    outer loop
      vertex 37.9775 40 25.4695
      vertex 38.0737 37 25.5936
      vertex 37.9775 37 25.4695
    endloop
  endfacet
  facet normal -0.975977 0 -0.217875
    outer loop
      vertex 42.4557 37 24.4685
      vertex 42.4215 40 24.6217
      vertex 42.4557 40 24.4685
    endloop
  endfacet
  facet normal -0.975977 -0 -0.217875
    outer loop
      vertex 42.4215 40 24.6217
      vertex 42.4557 37 24.4685
      vertex 42.4215 37 24.6217
    endloop
  endfacet
  facet normal 0.453821 0 0.891093
    outer loop
      vertex 38.7956 40 21.8092
      vertex 38.9356 37 21.7379
      vertex 38.9356 40 21.7379
    endloop
  endfacet
  facet normal 0.453821 0 0.891093
    outer loop
      vertex 38.9356 37 21.7379
      vertex 38.7956 40 21.8092
      vertex 38.7956 37 21.8092
    endloop
  endfacet
  facet normal 0.960142 -0 0.279511
    outer loop
      vertex 37.5785 37 23.3783
      vertex 37.6224 40 23.2275
      vertex 37.5785 40 23.3783
    endloop
  endfacet
  facet normal 0.960142 0 0.279511
    outer loop
      vertex 37.6224 40 23.2275
      vertex 37.5785 37 23.3783
      vertex 37.6224 37 23.2275
    endloop
  endfacet
  facet normal -0.749968 0 -0.661474
    outer loop
      vertex 41.9263 37 25.5936
      vertex 41.8224 40 25.7114
      vertex 41.9263 40 25.5936
    endloop
  endfacet
  facet normal -0.749968 -0 -0.661474
    outer loop
      vertex 41.8224 40 25.7114
      vertex 41.9263 37 25.5936
      vertex 41.8224 37 25.7114
    endloop
  endfacet
  facet normal -0.509244 0 0.860622
    outer loop
      vertex 41.2044 40 21.8092
      vertex 41.3396 37 21.8892
      vertex 41.3396 40 21.8892
    endloop
  endfacet
  facet normal -0.509244 0 0.860622
    outer loop
      vertex 41.3396 37 21.8892
      vertex 41.2044 40 21.8092
      vertex 41.2044 37 21.8092
    endloop
  endfacet
  facet normal -0.612661 0 -0.790346
    outer loop
      vertex 41.4695 37 26.0225
      vertex 41.5936 40 25.9263
      vertex 41.5936 37 25.9263
    endloop
  endfacet
  facet normal -0.612661 0 -0.790346
    outer loop
      vertex 41.5936 40 25.9263
      vertex 41.4695 37 26.0225
      vertex 41.4695 40 26.0225
    endloop
  endfacet
  facet normal 0.707107 -0 0.707107
    outer loop
      vertex 38.1776 37 22.2886
      vertex 38.2886 40 22.1776
      vertex 38.1776 40 22.2886
    endloop
  endfacet
  facet normal 0.707107 0 0.707107
    outer loop
      vertex 38.2886 40 22.1776
      vertex 38.1776 37 22.2886
      vertex 38.2886 37 22.1776
    endloop
  endfacet
  facet normal 0.707107 0 -0.707107
    outer loop
      vertex 38.2886 37 25.8224
      vertex 38.1776 40 25.7114
      vertex 38.2886 40 25.8224
    endloop
  endfacet
  facet normal 0.707107 0 -0.707107
    outer loop
      vertex 38.1776 40 25.7114
      vertex 38.2886 37 25.8224
      vertex 38.1776 37 25.7114
    endloop
  endfacet
  facet normal -0.940904 0 -0.338674
    outer loop
      vertex 42.3776 37 24.7725
      vertex 42.3244 40 24.9203
      vertex 42.3776 40 24.7725
    endloop
  endfacet
  facet normal -0.940904 -0 -0.338674
    outer loop
      vertex 42.3244 40 24.9203
      vertex 42.3776 37 24.7725
      vertex 42.3244 37 24.9203
    endloop
  endfacet
  facet normal -0.156551 0 -0.98767
    outer loop
      vertex 40.3133 37 26.4803
      vertex 40.4685 40 26.4557
      vertex 40.4685 37 26.4557
    endloop
  endfacet
  facet normal -0.156551 0 -0.98767
    outer loop
      vertex 40.4685 40 26.4557
      vertex 40.3133 37 26.4803
      vertex 40.3133 40 26.4803
    endloop
  endfacet
  facet normal 0.891093 0 -0.453821
    outer loop
      vertex 37.8092 37 25.2044
      vertex 37.7379 40 25.0644
      vertex 37.8092 40 25.2044
    endloop
  endfacet
  facet normal 0.891093 0 -0.453821
    outer loop
      vertex 37.7379 40 25.0644
      vertex 37.8092 37 25.2044
      vertex 37.7379 37 25.0644
    endloop
  endfacet
  facet normal -0.891093 0 0.453821
    outer loop
      vertex 42.1908 37 22.7956
      vertex 42.2621 40 22.9356
      vertex 42.1908 40 22.7956
    endloop
  endfacet
  facet normal -0.891093 0 0.453821
    outer loop
      vertex 42.2621 40 22.9356
      vertex 42.1908 37 22.7956
      vertex 42.2621 37 22.9356
    endloop
  endfacet
  facet normal -0.279511 0 -0.960142
    outer loop
      vertex 40.6217 37 26.4215
      vertex 40.7725 40 26.3776
      vertex 40.7725 37 26.3776
    endloop
  endfacet
  facet normal -0.279511 0 -0.960142
    outer loop
      vertex 40.7725 40 26.3776
      vertex 40.6217 37 26.4215
      vertex 40.6217 40 26.4215
    endloop
  endfacet
  facet normal -0.860622 0 -0.509244
    outer loop
      vertex 42.1908 37 25.2044
      vertex 42.1108 40 25.3396
      vertex 42.1908 40 25.2044
    endloop
  endfacet
  facet normal -0.860622 -0 -0.509244
    outer loop
      vertex 42.1108 40 25.3396
      vertex 42.1908 37 25.2044
      vertex 42.1108 37 25.3396
    endloop
  endfacet
  facet normal 0.279511 0 0.960142
    outer loop
      vertex 39.2275 40 21.6224
      vertex 39.3783 37 21.5785
      vertex 39.3783 40 21.5785
    endloop
  endfacet
  facet normal 0.279511 0 0.960142
    outer loop
      vertex 39.3783 37 21.5785
      vertex 39.2275 40 21.6224
      vertex 39.2275 37 21.6224
    endloop
  endfacet
  facet normal -0.217875 0 -0.975977
    outer loop
      vertex 40.4685 37 26.4557
      vertex 40.6217 40 26.4215
      vertex 40.6217 37 26.4215
    endloop
  endfacet
  facet normal -0.217875 0 -0.975977
    outer loop
      vertex 40.6217 40 26.4215
      vertex 40.4685 37 26.4557
      vertex 40.4685 40 26.4557
    endloop
  endfacet
  facet normal -0.860622 0 0.509244
    outer loop
      vertex 42.1108 37 22.6604
      vertex 42.1908 40 22.7956
      vertex 42.1108 40 22.6604
    endloop
  endfacet
  facet normal -0.860622 0 0.509244
    outer loop
      vertex 42.1908 40 22.7956
      vertex 42.1108 37 22.6604
      vertex 42.1908 37 22.7956
    endloop
  endfacet
  facet normal -0.453821 0 -0.891093
    outer loop
      vertex 41.0644 37 26.2621
      vertex 41.2044 40 26.1908
      vertex 41.2044 37 26.1908
    endloop
  endfacet
  facet normal -0.453821 0 -0.891093
    outer loop
      vertex 41.2044 40 26.1908
      vertex 41.0644 37 26.2621
      vertex 41.0644 40 26.2621
    endloop
  endfacet
  facet normal -0.612661 0 0.790346
    outer loop
      vertex 41.4695 40 21.9775
      vertex 41.5936 37 22.0737
      vertex 41.5936 40 22.0737
    endloop
  endfacet
  facet normal -0.612661 0 0.790346
    outer loop
      vertex 41.5936 37 22.0737
      vertex 41.4695 40 21.9775
      vertex 41.4695 37 21.9775
    endloop
  endfacet
  facet normal 0.279511 0 -0.960142
    outer loop
      vertex 39.2275 37 26.3776
      vertex 39.3783 40 26.4215
      vertex 39.3783 37 26.4215
    endloop
  endfacet
  facet normal 0.279511 0 -0.960142
    outer loop
      vertex 39.3783 40 26.4215
      vertex 39.2275 37 26.3776
      vertex 39.2275 40 26.3776
    endloop
  endfacet
  facet normal 0.217875 0 0.975977
    outer loop
      vertex 39.3783 40 21.5785
      vertex 39.5315 37 21.5443
      vertex 39.5315 40 21.5443
    endloop
  endfacet
  facet normal 0.217875 0 0.975977
    outer loop
      vertex 39.5315 37 21.5443
      vertex 39.3783 40 21.5785
      vertex 39.3783 37 21.5785
    endloop
  endfacet
  facet normal -0.562171 0 -0.827021
    outer loop
      vertex 41.3396 37 26.1108
      vertex 41.4695 40 26.0225
      vertex 41.4695 37 26.0225
    endloop
  endfacet
  facet normal -0.562171 0 -0.827021
    outer loop
      vertex 41.4695 40 26.0225
      vertex 41.3396 37 26.1108
      vertex 41.3396 40 26.1108
    endloop
  endfacet
  facet normal 0.940904 -0 0.338674
    outer loop
      vertex 37.6224 37 23.2275
      vertex 37.6756 40 23.0797
      vertex 37.6224 40 23.2275
    endloop
  endfacet
  facet normal 0.940904 0 0.338674
    outer loop
      vertex 37.6756 40 23.0797
      vertex 37.6224 37 23.2275
      vertex 37.6756 37 23.0797
    endloop
  endfacet
  facet normal 0.338674 0 -0.940904
    outer loop
      vertex 39.0797 37 26.3244
      vertex 39.2275 40 26.3776
      vertex 39.2275 37 26.3776
    endloop
  endfacet
  facet normal 0.338674 0 -0.940904
    outer loop
      vertex 39.2275 40 26.3776
      vertex 39.0797 37 26.3244
      vertex 39.0797 40 26.3244
    endloop
  endfacet
  facet normal -0.827021 0 -0.562171
    outer loop
      vertex 42.1108 37 25.3396
      vertex 42.0225 40 25.4695
      vertex 42.1108 40 25.3396
    endloop
  endfacet
  facet normal -0.827021 -0 -0.562171
    outer loop
      vertex 42.0225 40 25.4695
      vertex 42.1108 37 25.3396
      vertex 42.0225 37 25.4695
    endloop
  endfacet
  facet normal 0.156551 0 0.98767
    outer loop
      vertex 39.5315 40 21.5443
      vertex 39.6867 37 21.5197
      vertex 39.6867 40 21.5197
    endloop
  endfacet
  facet normal 0.156551 0 0.98767
    outer loop
      vertex 39.6867 37 21.5197
      vertex 39.5315 40 21.5443
      vertex 39.5315 37 21.5443
    endloop
  endfacet
  facet normal 0.918129 -0 0.396282
    outer loop
      vertex 37.6756 37 23.0797
      vertex 37.71 40 23
      vertex 37.6756 40 23.0797
    endloop
  endfacet
  facet normal 0.918129 0 0.396282
    outer loop
      vertex 37.71 40 23
      vertex 37.6756 37 23.0797
      vertex 37.71 37 23
    endloop
  endfacet
  facet normal -0.031195 0 -0.999513
    outer loop
      vertex 40 37 26.5
      vertex 40.157 40 26.4951
      vertex 40.157 37 26.4951
    endloop
  endfacet
  facet normal -0.031195 0 -0.999513
    outer loop
      vertex 40.157 40 26.4951
      vertex 40 37 26.5
      vertex 40 40 26.5
    endloop
  endfacet
  facet normal -0.338674 0 -0.940904
    outer loop
      vertex 40.7725 37 26.3776
      vertex 40.9203 40 26.3244
      vertex 40.9203 37 26.3244
    endloop
  endfacet
  facet normal -0.338674 0 -0.940904
    outer loop
      vertex 40.9203 40 26.3244
      vertex 40.7725 37 26.3776
      vertex 40.7725 40 26.3776
    endloop
  endfacet
  facet normal 0.917888 0 -0.396839
    outer loop
      vertex 37.7379 37 25.0644
      vertex 37.6756 40 24.9203
      vertex 37.7379 40 25.0644
    endloop
  endfacet
  facet normal 0.917888 0 -0.396839
    outer loop
      vertex 37.6756 40 24.9203
      vertex 37.7379 37 25.0644
      vertex 37.6756 37 24.9203
    endloop
  endfacet
  facet normal 0.031195 0 0.999513
    outer loop
      vertex 39.843 40 21.5049
      vertex 40 37 21.5
      vertex 40 40 21.5
    endloop
  endfacet
  facet normal 0.031195 0 0.999513
    outer loop
      vertex 40 37 21.5
      vertex 39.843 40 21.5049
      vertex 39.843 37 21.5049
    endloop
  endfacet
  facet normal -0.396839 0 -0.917888
    outer loop
      vertex 40.9203 37 26.3244
      vertex 41.0644 40 26.2621
      vertex 41.0644 37 26.2621
    endloop
  endfacet
  facet normal -0.396839 0 -0.917888
    outer loop
      vertex 41.0644 40 26.2621
      vertex 40.9203 37 26.3244
      vertex 40.9203 40 26.3244
    endloop
  endfacet
  facet normal 0.995547 0 -0.094268
    outer loop
      vertex 37.5197 37 24.3133
      vertex 37.5049 40 24.157
      vertex 37.5197 40 24.3133
    endloop
  endfacet
  facet normal 0.995547 0 -0.094268
    outer loop
      vertex 37.5049 40 24.157
      vertex 37.5197 37 24.3133
      vertex 37.5049 37 24.157
    endloop
  endfacet
  facet normal 0.975977 0 -0.217875
    outer loop
      vertex 37.5785 37 24.6217
      vertex 37.5443 40 24.4685
      vertex 37.5785 40 24.6217
    endloop
  endfacet
  facet normal 0.975977 0 -0.217875
    outer loop
      vertex 37.5443 40 24.4685
      vertex 37.5785 37 24.6217
      vertex 37.5443 37 24.4685
    endloop
  endfacet
  facet normal -0.827021 0 0.562171
    outer loop
      vertex 42.0225 37 22.5305
      vertex 42.1108 40 22.6604
      vertex 42.0225 40 22.5305
    endloop
  endfacet
  facet normal -0.827021 0 0.562171
    outer loop
      vertex 42.1108 40 22.6604
      vertex 42.0225 37 22.5305
      vertex 42.1108 37 22.6604
    endloop
  endfacet
  facet normal 0.156551 0 -0.98767
    outer loop
      vertex 39.5315 37 26.4557
      vertex 39.6867 40 26.4803
      vertex 39.6867 37 26.4803
    endloop
  endfacet
  facet normal 0.156551 0 -0.98767
    outer loop
      vertex 39.6867 40 26.4803
      vertex 39.5315 37 26.4557
      vertex 39.5315 40 26.4557
    endloop
  endfacet
  facet normal -0.453821 0 0.891093
    outer loop
      vertex 41.0644 40 21.7379
      vertex 41.2044 37 21.8092
      vertex 41.2044 40 21.8092
    endloop
  endfacet
  facet normal -0.453821 0 0.891093
    outer loop
      vertex 41.2044 37 21.8092
      vertex 41.0644 40 21.7379
      vertex 41.0644 37 21.7379
    endloop
  endfacet
  facet normal -0.661474 0 0.749968
    outer loop
      vertex 41.5936 40 22.0737
      vertex 41.7114 37 22.1776
      vertex 41.7114 40 22.1776
    endloop
  endfacet
  facet normal -0.661474 0 0.749968
    outer loop
      vertex 41.7114 37 22.1776
      vertex 41.5936 40 22.0737
      vertex 41.5936 37 22.0737
    endloop
  endfacet
  facet normal 0.612661 0 0.790346
    outer loop
      vertex 38.4064 40 22.0737
      vertex 38.5305 37 21.9775
      vertex 38.5305 40 21.9775
    endloop
  endfacet
  facet normal 0.612661 0 0.790346
    outer loop
      vertex 38.5305 37 21.9775
      vertex 38.4064 40 22.0737
      vertex 38.4064 37 22.0737
    endloop
  endfacet
  facet normal -0.98767 0 -0.156551
    outer loop
      vertex 42.4803 37 24.3133
      vertex 42.4557 40 24.4685
      vertex 42.4803 40 24.3133
    endloop
  endfacet
  facet normal -0.98767 -0 -0.156551
    outer loop
      vertex 42.4557 40 24.4685
      vertex 42.4803 37 24.3133
      vertex 42.4557 37 24.4685
    endloop
  endfacet
  facet normal 0.827021 0 -0.562171
    outer loop
      vertex 37.9775 37 25.4695
      vertex 37.8892 40 25.3396
      vertex 37.9775 40 25.4695
    endloop
  endfacet
  facet normal 0.827021 0 -0.562171
    outer loop
      vertex 37.8892 40 25.3396
      vertex 37.9775 37 25.4695
      vertex 37.8892 37 25.3396
    endloop
  endfacet
  facet normal -0.995547 0 -0.094268
    outer loop
      vertex 42.4951 37 24.157
      vertex 42.4803 40 24.3133
      vertex 42.4951 40 24.157
    endloop
  endfacet
  facet normal -0.995547 -0 -0.094268
    outer loop
      vertex 42.4803 40 24.3133
      vertex 42.4951 37 24.157
      vertex 42.4803 37 24.3133
    endloop
  endfacet
  facet normal 0.999513 0 -0.031195
    outer loop
      vertex 37.5049 37 24.157
      vertex 37.5 40 24
      vertex 37.5049 40 24.157
    endloop
  endfacet
  facet normal 0.999513 0 -0.031195
    outer loop
      vertex 37.5 40 24
      vertex 37.5049 37 24.157
      vertex 37.5 37 24
    endloop
  endfacet
  facet normal 0.999513 -0 0.031195
    outer loop
      vertex 37.5 37 24
      vertex 37.5049 40 23.843
      vertex 37.5 40 24
    endloop
  endfacet
  facet normal 0.999513 0 0.031195
    outer loop
      vertex 37.5049 40 23.843
      vertex 37.5 37 24
      vertex 37.5049 37 23.843
    endloop
  endfacet
  facet normal 0.940904 0 -0.338674
    outer loop
      vertex 37.6756 37 24.9203
      vertex 37.6224 40 24.7725
      vertex 37.6756 40 24.9203
    endloop
  endfacet
  facet normal 0.940904 0 -0.338674
    outer loop
      vertex 37.6224 40 24.7725
      vertex 37.6756 37 24.9203
      vertex 37.6224 37 24.7725
    endloop
  endfacet
  facet normal 0.790425 -0 0.612559
    outer loop
      vertex 38 37 22.5015
      vertex 38.0737 40 22.4064
      vertex 38 40 22.5015
    endloop
  endfacet
  facet normal 0.790425 0 0.612559
    outer loop
      vertex 38.0737 40 22.4064
      vertex 38 37 22.5015
      vertex 38.0737 37 22.4064
    endloop
  endfacet
  facet normal -0.707107 0 -0.707107
    outer loop
      vertex 41.8224 37 25.7114
      vertex 41.7114 40 25.8224
      vertex 41.8224 40 25.7114
    endloop
  endfacet
  facet normal -0.707107 -0 -0.707107
    outer loop
      vertex 41.7114 40 25.8224
      vertex 41.8224 37 25.7114
      vertex 41.7114 37 25.8224
    endloop
  endfacet
  facet normal 0.749968 -0 0.661474
    outer loop
      vertex 38.0737 37 22.4064
      vertex 38.1776 40 22.2886
      vertex 38.0737 40 22.4064
    endloop
  endfacet
  facet normal 0.749968 0 0.661474
    outer loop
      vertex 38.1776 40 22.2886
      vertex 38.0737 37 22.4064
      vertex 38.1776 37 22.2886
    endloop
  endfacet
  facet normal 0.217875 0 -0.975977
    outer loop
      vertex 39.3783 37 26.4215
      vertex 39.5315 40 26.4557
      vertex 39.5315 37 26.4557
    endloop
  endfacet
  facet normal 0.217875 0 -0.975977
    outer loop
      vertex 39.5315 40 26.4557
      vertex 39.3783 37 26.4215
      vertex 39.3783 40 26.4215
    endloop
  endfacet
  facet normal 0.031195 0 -0.999513
    outer loop
      vertex 39.843 37 26.4951
      vertex 40 40 26.5
      vertex 40 37 26.5
    endloop
  endfacet
  facet normal 0.031195 0 -0.999513
    outer loop
      vertex 40 40 26.5
      vertex 39.843 37 26.4951
      vertex 39.843 40 26.4951
    endloop
  endfacet
  facet normal -0.094268 0 0.995547
    outer loop
      vertex 40.157 40 21.5049
      vertex 40.3133 37 21.5197
      vertex 40.3133 40 21.5197
    endloop
  endfacet
  facet normal -0.094268 0 0.995547
    outer loop
      vertex 40.3133 37 21.5197
      vertex 40.157 40 21.5049
      vertex 40.157 37 21.5049
    endloop
  endfacet
  facet normal 0.860622 0 -0.509244
    outer loop
      vertex 37.8892 37 25.3396
      vertex 37.8092 40 25.2044
      vertex 37.8892 40 25.3396
    endloop
  endfacet
  facet normal 0.860622 0 -0.509244
    outer loop
      vertex 37.8092 40 25.2044
      vertex 37.8892 37 25.3396
      vertex 37.8092 37 25.2044
    endloop
  endfacet
  facet normal 0.98767 0 -0.156551
    outer loop
      vertex 37.5443 37 24.4685
      vertex 37.5197 40 24.3133
      vertex 37.5443 40 24.4685
    endloop
  endfacet
  facet normal 0.98767 0 -0.156551
    outer loop
      vertex 37.5197 40 24.3133
      vertex 37.5443 37 24.4685
      vertex 37.5197 37 24.3133
    endloop
  endfacet
  facet normal 0.749968 0 -0.661474
    outer loop
      vertex 38.1776 37 25.7114
      vertex 38.0737 40 25.5936
      vertex 38.1776 40 25.7114
    endloop
  endfacet
  facet normal 0.749968 0 -0.661474
    outer loop
      vertex 38.0737 40 25.5936
      vertex 38.1776 37 25.7114
      vertex 38.0737 37 25.5936
    endloop
  endfacet
  facet normal 0.562171 0 -0.827021
    outer loop
      vertex 38.5305 37 26.0225
      vertex 38.6604 40 26.1108
      vertex 38.6604 37 26.1108
    endloop
  endfacet
  facet normal 0.562171 0 -0.827021
    outer loop
      vertex 38.6604 40 26.1108
      vertex 38.5305 37 26.0225
      vertex 38.5305 40 26.0225
    endloop
  endfacet
  facet normal 0.612661 0 -0.790346
    outer loop
      vertex 38.4064 37 25.9263
      vertex 38.5305 40 26.0225
      vertex 38.5305 37 26.0225
    endloop
  endfacet
  facet normal 0.612661 0 -0.790346
    outer loop
      vertex 38.5305 40 26.0225
      vertex 38.4064 37 25.9263
      vertex 38.4064 40 25.9263
    endloop
  endfacet
  facet normal 0.661474 0 -0.749968
    outer loop
      vertex 38.2886 37 25.8224
      vertex 38.4064 40 25.9263
      vertex 38.4064 37 25.9263
    endloop
  endfacet
  facet normal 0.661474 0 -0.749968
    outer loop
      vertex 38.4064 40 25.9263
      vertex 38.2886 37 25.8224
      vertex 38.2886 40 25.8224
    endloop
  endfacet
  facet normal 0.98767 -0 0.156551
    outer loop
      vertex 37.5197 37 23.6867
      vertex 37.5443 40 23.5315
      vertex 37.5197 40 23.6867
    endloop
  endfacet
  facet normal 0.98767 0 0.156551
    outer loop
      vertex 37.5443 40 23.5315
      vertex 37.5197 37 23.6867
      vertex 37.5443 37 23.5315
    endloop
  endfacet
  facet normal 0.995547 -0 0.094268
    outer loop
      vertex 37.5049 37 23.843
      vertex 37.5197 40 23.6867
      vertex 37.5049 40 23.843
    endloop
  endfacet
  facet normal 0.995547 0 0.094268
    outer loop
      vertex 37.5197 40 23.6867
      vertex 37.5049 37 23.843
      vertex 37.5197 37 23.6867
    endloop
  endfacet
  facet normal 0.396839 0 -0.917888
    outer loop
      vertex 38.9356 37 26.2621
      vertex 39.0797 40 26.3244
      vertex 39.0797 37 26.3244
    endloop
  endfacet
  facet normal 0.396839 0 -0.917888
    outer loop
      vertex 39.0797 40 26.3244
      vertex 38.9356 37 26.2621
      vertex 38.9356 40 26.2621
    endloop
  endfacet
  facet normal -0.891093 0 -0.453821
    outer loop
      vertex 42.2621 37 25.0644
      vertex 42.1908 40 25.2044
      vertex 42.2621 40 25.0644
    endloop
  endfacet
  facet normal -0.891093 -0 -0.453821
    outer loop
      vertex 42.1908 40 25.2044
      vertex 42.2621 37 25.0644
      vertex 42.1908 37 25.2044
    endloop
  endfacet
  facet normal 0.509244 0 -0.860622
    outer loop
      vertex 38.6604 37 26.1108
      vertex 38.7956 40 26.1908
      vertex 38.7956 37 26.1908
    endloop
  endfacet
  facet normal 0.509244 0 -0.860622
    outer loop
      vertex 38.7956 40 26.1908
      vertex 38.6604 37 26.1108
      vertex 38.6604 40 26.1108
    endloop
  endfacet
  facet normal 0.094268 0 -0.995547
    outer loop
      vertex 39.6867 37 26.4803
      vertex 39.843 40 26.4951
      vertex 39.843 37 26.4951
    endloop
  endfacet
  facet normal 0.094268 0 -0.995547
    outer loop
      vertex 39.843 40 26.4951
      vertex 39.6867 37 26.4803
      vertex 39.6867 40 26.4803
    endloop
  endfacet
  facet normal -0.217875 0 0.975977
    outer loop
      vertex 40.4685 40 21.5443
      vertex 40.6217 37 21.5785
      vertex 40.6217 40 21.5785
    endloop
  endfacet
  facet normal -0.217875 0 0.975977
    outer loop
      vertex 40.6217 37 21.5785
      vertex 40.4685 40 21.5443
      vertex 40.4685 37 21.5443
    endloop
  endfacet
  facet normal -0.279511 0 0.960142
    outer loop
      vertex 40.6217 40 21.5785
      vertex 40.7725 37 21.6224
      vertex 40.7725 40 21.6224
    endloop
  endfacet
  facet normal -0.279511 0 0.960142
    outer loop
      vertex 40.7725 37 21.6224
      vertex 40.6217 40 21.5785
      vertex 40.6217 37 21.5785
    endloop
  endfacet
endsolid OpenSCAD_Model
