solid OpenSCAD_Model
  facet normal 1 -0 0
    outer loop
      vertex -20 -21 0
      vertex -20 -9 -1.5
      vertex -20 -9 0
    endloop
  endfacet
  facet normal 1 0 0
    outer loop
      vertex -20 -9 -1.5
      vertex -20 -21 0
      vertex -20 -21 -1.5
    endloop
  endfacet
  facet normal 0 0 -1
    outer loop
      vertex -36 -9 0
      vertex -20 9 0
      vertex -20 -9 0
    endloop
  endfacet
  facet normal -0 0 -1
    outer loop
      vertex -20 9 0
      vertex -36 -9 0
      vertex -36 9 0
    endloop
  endfacet
  facet normal 0 0 -1
    outer loop
      vertex 20 -9 0
      vertex 36 9 0
      vertex 36 -9 0
    endloop
  endfacet
  facet normal -0 0 -1
    outer loop
      vertex 36 9 0
      vertex 20 -9 0
      vertex 20 9 0
    endloop
  endfacet
  facet normal 0 0 -1
    outer loop
      vertex 36 -9 0
      vertex 40 -25 0
      vertex 36 -21 0
    endloop
  endfacet
  facet normal 0 0 -1
    outer loop
      vertex 40 -25 0
      vertex 20 -21 0
      vertex 36 -21 0
    endloop
  endfacet
  facet normal 0 0 -1
    outer loop
      vertex -20 -9 0
      vertex 20 -9 0
      vertex 20 -21 0
    endloop
  endfacet
  facet normal 0 0 -1
    outer loop
      vertex 20 -9 0
      vertex -20 -9 0
      vertex 20 9 0
    endloop
  endfacet
  facet normal 0 0 -1
    outer loop
      vertex -20 -9 0
      vertex 20 -21 0
      vertex -20 -21 0
    endloop
  endfacet
  facet normal 0 0 -1
    outer loop
      vertex 40 -25 0
      vertex -20 -21 0
      vertex 20 -21 0
    endloop
  endfacet
  facet normal 0 0 -1
    outer loop
      vertex -40 -25 0
      vertex -20 -21 0
      vertex 40 -25 0
    endloop
  endfacet
  facet normal 0 0 -1
    outer loop
      vertex -40 -25 0
      vertex -36 -9 0
      vertex -36 -21 0
    endloop
  endfacet
  facet normal -0 0 -1
    outer loop
      vertex -36 -9 0
      vertex -40 -25 0
      vertex -36 9 0
    endloop
  endfacet
  facet normal 0 0 -1
    outer loop
      vertex -40 25 0
      vertex -36 9 0
      vertex -40 -25 0
    endloop
  endfacet
  facet normal -0 0 -1
    outer loop
      vertex -20 -21 0
      vertex -40 -25 0
      vertex -36 -21 0
    endloop
  endfacet
  facet normal 0 0 -1
    outer loop
      vertex 40 -25 0
      vertex 36 -9 0
      vertex 40 25 0
    endloop
  endfacet
  facet normal 0 0 -1
    outer loop
      vertex 36 9 0
      vertex 40 25 0
      vertex 36 -9 0
    endloop
  endfacet
  facet normal 0 0 -1
    outer loop
      vertex 36 21 0
      vertex 40 25 0
      vertex 36 9 0
    endloop
  endfacet
  facet normal 0 0 -1
    outer loop
      vertex 20 21 0
      vertex 40 25 0
      vertex 36 21 0
    endloop
  endfacet
  facet normal 0 0 -1
    outer loop
      vertex -20 9 0
      vertex 20 9 0
      vertex -20 -9 0
    endloop
  endfacet
  facet normal 0 0 -1
    outer loop
      vertex 20 9 0
      vertex -20 9 0
      vertex 20 21 0
    endloop
  endfacet
  facet normal 0 0 -1
    outer loop
      vertex -20 21 0
      vertex 20 21 0
      vertex -20 9 0
    endloop
  endfacet
  facet normal 0 0 -1
    outer loop
      vertex -20 21 0
      vertex 40 25 0
      vertex 20 21 0
    endloop
  endfacet
  facet normal 0 0 -1
    outer loop
      vertex -40 25 0
      vertex -20 21 0
      vertex -36 21 0
    endloop
  endfacet
  facet normal 0 0 -1
    outer loop
      vertex -20 21 0
      vertex -40 25 0
      vertex 40 25 0
    endloop
  endfacet
  facet normal 0 0 -1
    outer loop
      vertex -36 9 0
      vertex -40 25 0
      vertex -36 21 0
    endloop
  endfacet
  facet normal 0 0 -1
    outer loop
      vertex -28 -21 -1.5
      vertex -20 -9 -1.5
      vertex -20 -21 -1.5
    endloop
  endfacet
  facet normal -0 0 -1
    outer loop
      vertex -20 -9 -1.5
      vertex -28 -21 -1.5
      vertex -28 -9 -1.5
    endloop
  endfacet
  facet normal -1 0 0
    outer loop
      vertex -36 -21 -4.5
      vertex -36 -9 0
      vertex -36 -9 -4.5
    endloop
  endfacet
  facet normal -1 -0 0
    outer loop
      vertex -36 -9 0
      vertex -36 -21 -4.5
      vertex -36 -21 0
    endloop
  endfacet
  facet normal 0 1 0
    outer loop
      vertex -28 -9 -1.5
      vertex -20 -9 0
      vertex -20 -9 -1.5
    endloop
  endfacet
  facet normal 0 1 0
    outer loop
      vertex -20 -9 0
      vertex -28 -9 -1.5
      vertex -36 -9 0
    endloop
  endfacet
  facet normal 0 1 0
    outer loop
      vertex -36 -9 -4.5
      vertex -28 -9 -1.5
      vertex -28 -9 -4.5
    endloop
  endfacet
  facet normal 0 1 0
    outer loop
      vertex -28 -9 -1.5
      vertex -36 -9 -4.5
      vertex -36 -9 0
    endloop
  endfacet
  facet normal 0 -1 0
    outer loop
      vertex -36 -21 0
      vertex -28 -21 -1.5
      vertex -20 -21 0
    endloop
  endfacet
  facet normal 0 -1 0
    outer loop
      vertex -36 -21 -4.5
      vertex -28 -21 -1.5
      vertex -36 -21 0
    endloop
  endfacet
  facet normal 0 -1 -0
    outer loop
      vertex -28 -21 -1.5
      vertex -36 -21 -4.5
      vertex -28 -21 -4.5
    endloop
  endfacet
  facet normal 0 -1 -0
    outer loop
      vertex -20 -21 0
      vertex -28 -21 -1.5
      vertex -20 -21 -1.5
    endloop
  endfacet
  facet normal 1 -0 0
    outer loop
      vertex -28 -21 -1.5
      vertex -28 -9 -4.5
      vertex -28 -9 -1.5
    endloop
  endfacet
  facet normal 1 0 0
    outer loop
      vertex -28 -9 -4.5
      vertex -28 -21 -1.5
      vertex -28 -21 -4.5
    endloop
  endfacet
  facet normal 0 0 -1
    outer loop
      vertex -36 -21 -4.5
      vertex -28 -9 -4.5
      vertex -28 -21 -4.5
    endloop
  endfacet
  facet normal -0 0 -1
    outer loop
      vertex -28 -9 -4.5
      vertex -36 -21 -4.5
      vertex -36 -9 -4.5
    endloop
  endfacet
  facet normal 1 -0 0
    outer loop
      vertex 36 -21 0
      vertex 36 -9 -4.5
      vertex 36 -9 0
    endloop
  endfacet
  facet normal 1 0 0
    outer loop
      vertex 36 -9 -4.5
      vertex 36 -21 0
      vertex 36 -21 -4.5
    endloop
  endfacet
  facet normal 0 0 -1
    outer loop
      vertex 20 -21 -1.5
      vertex 28 -9 -1.5
      vertex 28 -21 -1.5
    endloop
  endfacet
  facet normal -0 0 -1
    outer loop
      vertex 28 -9 -1.5
      vertex 20 -21 -1.5
      vertex 20 -9 -1.5
    endloop
  endfacet
  facet normal -1 0 0
    outer loop
      vertex 20 -21 -1.5
      vertex 20 -9 0
      vertex 20 -9 -1.5
    endloop
  endfacet
  facet normal -1 -0 0
    outer loop
      vertex 20 -9 0
      vertex 20 -21 -1.5
      vertex 20 -21 0
    endloop
  endfacet
  facet normal 0 1 0
    outer loop
      vertex 36 -9 0
      vertex 28 -9 -1.5
      vertex 20 -9 0
    endloop
  endfacet
  facet normal 0 1 -0
    outer loop
      vertex 36 -9 -4.5
      vertex 28 -9 -1.5
      vertex 36 -9 0
    endloop
  endfacet
  facet normal 0 1 0
    outer loop
      vertex 28 -9 -1.5
      vertex 36 -9 -4.5
      vertex 28 -9 -4.5
    endloop
  endfacet
  facet normal 0 1 0
    outer loop
      vertex 20 -9 0
      vertex 28 -9 -1.5
      vertex 20 -9 -1.5
    endloop
  endfacet
  facet normal 0 -1 0
    outer loop
      vertex 28 -21 -1.5
      vertex 20 -21 0
      vertex 20 -21 -1.5
    endloop
  endfacet
  facet normal 0 -1 0
    outer loop
      vertex 20 -21 0
      vertex 28 -21 -1.5
      vertex 36 -21 0
    endloop
  endfacet
  facet normal 0 -1 0
    outer loop
      vertex 36 -21 -4.5
      vertex 28 -21 -1.5
      vertex 28 -21 -4.5
    endloop
  endfacet
  facet normal 0 -1 0
    outer loop
      vertex 28 -21 -1.5
      vertex 36 -21 -4.5
      vertex 36 -21 0
    endloop
  endfacet
  facet normal 0 0 -1
    outer loop
      vertex 28 -21 -4.5
      vertex 36 -9 -4.5
      vertex 36 -21 -4.5
    endloop
  endfacet
  facet normal -0 0 -1
    outer loop
      vertex 36 -9 -4.5
      vertex 28 -21 -4.5
      vertex 28 -9 -4.5
    endloop
  endfacet
  facet normal -1 0 0
    outer loop
      vertex 28 -21 -4.5
      vertex 28 -9 -1.5
      vertex 28 -9 -4.5
    endloop
  endfacet
  facet normal -1 -0 0
    outer loop
      vertex 28 -9 -1.5
      vertex 28 -21 -4.5
      vertex 28 -21 -1.5
    endloop
  endfacet
  facet normal 1 -0 0
    outer loop
      vertex -20 9 0
      vertex -20 21 -1.5
      vertex -20 21 0
    endloop
  endfacet
  facet normal 1 0 0
    outer loop
      vertex -20 21 -1.5
      vertex -20 9 0
      vertex -20 9 -1.5
    endloop
  endfacet
  facet normal 0 0 -1
    outer loop
      vertex -28 9 -1.5
      vertex -20 21 -1.5
      vertex -20 9 -1.5
    endloop
  endfacet
  facet normal -0 0 -1
    outer loop
      vertex -20 21 -1.5
      vertex -28 9 -1.5
      vertex -28 21 -1.5
    endloop
  endfacet
  facet normal -1 0 0
    outer loop
      vertex -36 9 -4.5
      vertex -36 21 0
      vertex -36 21 -4.5
    endloop
  endfacet
  facet normal -1 -0 0
    outer loop
      vertex -36 21 0
      vertex -36 9 -4.5
      vertex -36 9 0
    endloop
  endfacet
  facet normal 0 1 0
    outer loop
      vertex -28 21 -1.5
      vertex -20 21 0
      vertex -20 21 -1.5
    endloop
  endfacet
  facet normal 0 1 0
    outer loop
      vertex -20 21 0
      vertex -28 21 -1.5
      vertex -36 21 0
    endloop
  endfacet
  facet normal 0 1 0
    outer loop
      vertex -36 21 -4.5
      vertex -28 21 -1.5
      vertex -28 21 -4.5
    endloop
  endfacet
  facet normal 0 1 0
    outer loop
      vertex -28 21 -1.5
      vertex -36 21 -4.5
      vertex -36 21 0
    endloop
  endfacet
  facet normal 0 -1 0
    outer loop
      vertex -36 9 0
      vertex -28 9 -1.5
      vertex -20 9 0
    endloop
  endfacet
  facet normal 0 -1 0
    outer loop
      vertex -36 9 -4.5
      vertex -28 9 -1.5
      vertex -36 9 0
    endloop
  endfacet
  facet normal 0 -1 -0
    outer loop
      vertex -28 9 -1.5
      vertex -36 9 -4.5
      vertex -28 9 -4.5
    endloop
  endfacet
  facet normal 0 -1 -0
    outer loop
      vertex -20 9 0
      vertex -28 9 -1.5
      vertex -20 9 -1.5
    endloop
  endfacet
  facet normal 1 -0 0
    outer loop
      vertex -28 9 -1.5
      vertex -28 21 -4.5
      vertex -28 21 -1.5
    endloop
  endfacet
  facet normal 1 0 0
    outer loop
      vertex -28 21 -4.5
      vertex -28 9 -1.5
      vertex -28 9 -4.5
    endloop
  endfacet
  facet normal 0 0 -1
    outer loop
      vertex -36 9 -4.5
      vertex -28 21 -4.5
      vertex -28 9 -4.5
    endloop
  endfacet
  facet normal -0 0 -1
    outer loop
      vertex -28 21 -4.5
      vertex -36 9 -4.5
      vertex -36 21 -4.5
    endloop
  endfacet
  facet normal 1 -0 0
    outer loop
      vertex 36 9 0
      vertex 36 21 -4.5
      vertex 36 21 0
    endloop
  endfacet
  facet normal 1 0 0
    outer loop
      vertex 36 21 -4.5
      vertex 36 9 0
      vertex 36 9 -4.5
    endloop
  endfacet
  facet normal 0 0 -1
    outer loop
      vertex 20 9 -1.5
      vertex 28 21 -1.5
      vertex 28 9 -1.5
    endloop
  endfacet
  facet normal -0 0 -1
    outer loop
      vertex 28 21 -1.5
      vertex 20 9 -1.5
      vertex 20 21 -1.5
    endloop
  endfacet
  facet normal -1 0 0
    outer loop
      vertex 20 9 -1.5
      vertex 20 21 0
      vertex 20 21 -1.5
    endloop
  endfacet
  facet normal -1 -0 0
    outer loop
      vertex 20 21 0
      vertex 20 9 -1.5
      vertex 20 9 0
    endloop
  endfacet
  facet normal 0 1 0
    outer loop
      vertex 36 21 0
      vertex 28 21 -1.5
      vertex 20 21 0
    endloop
  endfacet
  facet normal 0 1 -0
    outer loop
      vertex 36 21 -4.5
      vertex 28 21 -1.5
      vertex 36 21 0
    endloop
  endfacet
  facet normal 0 1 0
    outer loop
      vertex 28 21 -1.5
      vertex 36 21 -4.5
      vertex 28 21 -4.5
    endloop
  endfacet
  facet normal 0 1 0
    outer loop
      vertex 20 21 0
      vertex 28 21 -1.5
      vertex 20 21 -1.5
    endloop
  endfacet
  facet normal 0 -1 0
    outer loop
      vertex 28 9 -1.5
      vertex 20 9 0
      vertex 20 9 -1.5
    endloop
  endfacet
  facet normal 0 -1 0
    outer loop
      vertex 20 9 0
      vertex 28 9 -1.5
      vertex 36 9 0
    endloop
  endfacet
  facet normal 0 -1 0
    outer loop
      vertex 36 9 -4.5
      vertex 28 9 -1.5
      vertex 28 9 -4.5
    endloop
  endfacet
  facet normal 0 -1 0
    outer loop
      vertex 28 9 -1.5
      vertex 36 9 -4.5
      vertex 36 9 0
    endloop
  endfacet
  facet normal 0 0 -1
    outer loop
      vertex 28 9 -4.5
      vertex 36 21 -4.5
      vertex 36 9 -4.5
    endloop
  endfacet
  facet normal -0 0 -1
    outer loop
      vertex 36 21 -4.5
      vertex 28 9 -4.5
      vertex 28 21 -4.5
    endloop
  endfacet
  facet normal -1 0 0
    outer loop
      vertex 28 9 -4.5
      vertex 28 21 -1.5
      vertex 28 21 -4.5
    endloop
  endfacet
  facet normal -1 -0 0
    outer loop
      vertex 28 21 -1.5
      vertex 28 9 -4.5
      vertex 28 9 -1.5
    endloop
  endfacet
  facet normal 1 -0 0
    outer loop
      vertex 40 -25 4
      vertex 40 25 0
      vertex 40 25 4
    endloop
  endfacet
  facet normal 1 0 0
    outer loop
      vertex 40 25 0
      vertex 40 -25 4
      vertex 40 -25 0
    endloop
  endfacet
  facet normal -0 0 1
    outer loop
      vertex -40 25 4
      vertex 40 -25 4
      vertex 40 25 4
    endloop
  endfacet
  facet normal 0 0 1
    outer loop
      vertex 40 -25 4
      vertex -40 25 4
      vertex -40 -25 4
    endloop
  endfacet
  facet normal -1 0 0
    outer loop
      vertex -40 -25 0
      vertex -40 25 4
      vertex -40 25 0
    endloop
  endfacet
  facet normal -1 -0 0
    outer loop
      vertex -40 25 4
      vertex -40 -25 0
      vertex -40 -25 4
    endloop
  endfacet
  facet normal 0 1 -0
    outer loop
      vertex 40 25 0
      vertex -40 25 4
      vertex 40 25 4
    endloop
  endfacet
  facet normal 0 1 0
    outer loop
      vertex -40 25 4
      vertex 40 25 0
      vertex -40 25 0
    endloop
  endfacet
  facet normal 0 -1 0
    outer loop
      vertex -40 -25 0
      vertex 40 -25 4
      vertex -40 -25 4
    endloop
  endfacet
  facet normal 0 -1 -0
    outer loop
      vertex 40 -25 4
      vertex -40 -25 0
      vertex 40 -25 0
    endloop
  endfacet
endsolid OpenSCAD_Model
